<?xml version="1.0" encoding="UTF-8"?><svg id="a" xmlns="http://www.w3.org/2000/svg" width="512" height="512" viewBox="0 0 512 512"><path d="M218.992,403.251c1.95-8.775,3.9-16.576,6.338-24.864,16.576-62.89,33.639-125.781,50.215-188.671,3.9-15.113,7.8-30.226,12.188-45.827,3.331-11.66,13.726-19.897,25.839-20.476,26.814,0,53.627-.488,79.954,0,25.531.826,49.706,11.687,67.278,30.226,21.949,20.89,32.939,50.797,29.739,80.929-4.875,43.877-25.839,77.516-69.228,93.117-10.481,3.838-21.508,5.978-32.664,6.338-19.013.975-38.027,0-57.528,0h-6.338l4.388-16.088c2.925-10.725,5.363-21.451,8.288-31.689,3.656-11.704,14.552-19.628,26.814-19.501,10.783.422,21.58-.395,32.176-2.438,14.138-2.925,24.864-17.551,26.326-31.201,1.842-16.503-7.237-32.292-22.426-39.002-4.826-1.928-9.927-3.08-15.113-3.413h-33.639c-4.875,0-6.825,1.463-8.288,6.338l-48.265,181.846c-4.388,16.576-15.113,24.376-32.176,24.376h-43.877Z" fill="#212529"/><path d="M256.043,192.642c-2.438,8.288-3.9,16.088-6.338,23.889l-5.85,22.426c-3.156,12.461-14.447,21.131-27.301,20.963h-36.564c-20.997-.421-38.361,16.259-38.782,37.256-.323,16.118,9.552,30.689,24.644,36.359,6.053,1.561,12.275,2.38,18.526,2.438,5.85.488,11.213,0,17.063,0,6.716-.457,12.531,4.616,12.988,11.332.122,1.786-.152,3.576-.8,5.244-4.388,15.601-8.288,31.201-12.676,46.802-.859,1.752-2.478,3.011-4.388,3.413-16.088.488-32.664.975-48.265-3.9-24.776-6.908-46.024-22.93-59.478-44.852-26.814-42.902-15.601-102.38,19.013-134.068,16.088-14.626,34.614-24.864,56.553-25.839,21.938-.975,44.852-.975,67.278-1.463h24.376Z" fill="#212529"/></svg>