<?xml version="1.0" encoding="UTF-8"?><svg id="a" xmlns="http://www.w3.org/2000/svg" width="512" height="512" viewBox="0 0 512 512"><line x1="248.169" y1="339.71" x2="248.169" y2="446.203" fill="none" stroke="#fff" stroke-miterlimit="10"/><circle cx="261.138" cy="261.747" r="181.862" fill="none" stroke="#000" stroke-miterlimit="10" stroke-width="3"/><line x1="258.391" y1="82.783" x2="258.391" y2="187.446" fill="none" stroke="#212529" stroke-miterlimit="10" stroke-width="5"/><path d="M234.896,81.868s-132.125,123.428,0,361.741" fill="none" stroke="#212529" stroke-miterlimit="10" stroke-width="5"/><path d="M176.157,101.092s-126.175,110.155,20.139,331.38" fill="none" stroke="#212529" stroke-miterlimit="10" stroke-width="5"/><path d="M436.745,215.366s-124.649-120.377-342.67-25.784" fill="none" stroke="#212529" stroke-miterlimit="10" stroke-width="5"/><path d="M423.929,342.304s-112.138,119.309-310.936,23.038" fill="none" stroke="#212529" stroke-miterlimit="10" stroke-width="5"/><path d="M268.766,81.868s155.621,143.262,16.935,358.232" fill="none" stroke="#212529" stroke-miterlimit="10" stroke-width="5"/><path d="M322.776,90.717s169.199,135.939,15.715,335.652" fill="none" stroke="#212529" stroke-miterlimit="10" stroke-width="5"/><ellipse cx="261.062" cy="270.61" rx="161.113" ry="86.202" transform="translate(-9.103 9.087) rotate(-1.96)" fill="#fff"/><path d="M208.368,241.377v1.812c0,.725-.362,1.631-.725,3.081l-15.587,52.559s-.544,1.45-.906,1.812c-.362.544-.906.906-1.631,1.087-.725.181-1.631.362-3.081.544-3.444.181-6.887.181-10.331,0-1.45,0-2.356-.181-3.262-.544-.725,0-1.269-.544-1.631-1.087-.362-.544-.725-1.087-.725-1.631l-9.787-35.342v-.544l-.362.544-9.062,35.342s-.362,1.45-.725,1.812c-.362.544-.906.906-1.631,1.087s-1.812.362-3.262.544c-3.444.181-7.068.181-10.512,0-1.269,0-2.356-.181-3.081-.544-.725,0-1.269-.544-1.631-1.087-.362-.544-.725-1.087-.725-1.631l-15.405-52.559c-.362-1.269-.544-2.175-.725-3.081v-1.812c0-.362,0-.906.362-1.087.181-.362.725-.544,1.269-.725.544-.181,1.45-.362,2.537-.362h8.156c1.087,0,1.994.181,2.537.362.544.181,1.087.544,1.269.906.181.362.362.906.544,1.45l11.418,42.772v.725l.362-.725,10.874-42.772s.362-.906.544-1.45c.181-.362.725-.725,1.269-.906.544-.181,1.45-.362,2.356-.362h7.975c1.087,0,1.812.181,2.356.362.544,0,1.087.362,1.269.725.181.362.362.725.544,1.087l11.599,42.954v.725l.362-.725,11.056-42.772s.181-.906.544-1.45c.181-.362.725-.725,1.269-.906.544-.181,1.45-.362,2.537-.362h7.975c1.087,0,1.812.181,2.356.362.544,0,1.087.362,1.269.725.181.181.362.544.362,1.087h-.181ZM308.594,241.377v1.812c0,.725-.362,1.631-.725,3.081l-15.587,52.559s-.544,1.45-.906,1.812c-.362.544-.906.906-1.631,1.087-.725.181-1.631.362-3.081.544-3.444.181-6.887.181-10.331,0-1.45,0-2.356-.181-3.262-.544-.725,0-1.269-.544-1.631-1.087-.362-.544-.725-1.087-.725-1.631l-9.787-35.342v-.544l-.362.544-9.062,35.342s-.362,1.45-.725,1.812c-.362.544-.906.906-1.631,1.087s-1.812.362-3.262.544c-3.444.181-7.068.181-10.512,0-1.269,0-2.356-.181-3.081-.544-.725,0-1.269-.544-1.631-1.087-.362-.544-.725-1.087-.725-1.631l-15.405-52.559c-.362-1.269-.544-2.175-.725-3.081v-1.812c0-.362,0-.906.362-1.087.181-.362.725-.544,1.269-.725.544-.181,1.45-.362,2.537-.362h8.156c1.087,0,1.994.181,2.537.362.544.181,1.087.544,1.269.906s.362.906.544,1.45l11.418,42.772v.725l.362-.725,10.874-42.772s.362-.906.544-1.45c.181-.362.725-.725,1.269-.906.544-.181,1.45-.362,2.356-.362h7.975c1.087,0,1.812.181,2.356.362.544,0,1.087.362,1.269.725.181.362.362.725.544,1.087l11.599,42.954v.725l.362-.906,11.056-42.772s.181-.906.544-1.45c.181-.362.725-.725,1.269-.906.544-.181,1.45-.362,2.537-.362h7.975c1.087,0,1.812.181,2.356.362.544,0,1.087.362,1.269.725.181.362.362.725.362,1.087h0l-.181.181Z"/><path d="M408.819,241.377v1.812c0,.725-.362,1.631-.725,3.081l-15.587,52.559s-.544,1.45-.906,1.812c-.362.544-.906.906-1.631,1.087-.725.181-1.631.362-3.081.544-3.444.181-6.887.181-10.331,0-1.45,0-2.356-.181-3.262-.544-.725,0-1.269-.544-1.631-1.087-.362-.544-.725-1.087-.725-1.631l-9.787-35.342v-.544l-.362.544-9.062,35.342s-.362,1.45-.725,1.812c-.362.544-.906.906-1.631,1.087-.725.181-1.812.362-3.262.544-3.444.181-7.068.181-10.512,0-1.269,0-2.356-.181-3.081-.544-.725,0-1.269-.544-1.631-1.087-.362-.544-.725-1.087-.725-1.631l-15.405-52.559c-.362-1.269-.544-2.175-.725-3.081v-1.812c0-.362,0-.906.362-1.087.181-.362.725-.544,1.269-.725.544-.181,1.45-.362,2.537-.362h8.156c1.087,0,1.994.181,2.537.362.544.181,1.087.544,1.269.906.181.362.362.906.544,1.45l11.418,42.772v.725l.362-.725,10.874-42.772s.362-.906.544-1.45c.181-.362.725-.725,1.269-.906.544-.181,1.45-.362,2.356-.362h7.975c1.087,0,1.812.181,2.356.362.544,0,1.087.362,1.269.725.181.362.362.725.544,1.087l11.599,42.954v.725l.362-.725,11.056-42.772s.181-.906.544-1.45c.181-.362.725-.725,1.269-.906.544-.181,1.45-.362,2.537-.362h7.975c1.087,0,1.812.181,2.356.362.544,0,1.087.362,1.269.725.181.181.362.544.362,1.087h-.181Z"/></svg>