<?xml version="1.0" encoding="UTF-8"?>
<svg id="Screen" xmlns="http://www.w3.org/2000/svg" viewBox="0 0 70 70">
  <defs>
    <style>
      .cls-1 {
        fill: #fff;
      }

      .cls-2 {
        stroke: #fff;
        stroke-miterlimit: 10;
        stroke-width: .5px;
      }

      .cls-2, .cls-3 {
        fill: #5138cc;
      }
    </style>
  </defs>
  <g id="Character">
    <rect class="cls-3" x="1.32" y="1.32" width="67.36" height="67.36" rx="12.09" ry="12.09"/>
    <path class="cls-1" d="m19.66,11.57c0-.39-.32-.71-.71-.71s-.71.32-.71.71v11.86h-1.07l1.78,3.07,1.77-3.07h-1.06v-11.86Z"/>
    <path class="cls-1" d="m16.11,18.48c0-.39-.32-.71-.71-.71s-.71.32-.71.71v11.86h-1.07l1.78,3.07,1.77-3.07h-1.06v-11.86Z"/>
    <circle class="cls-2" cx="35.77" cy="19.66" r="12.43"/>
    <g>
      <path class="cls-1" d="m30.91,24.04h-.88c-1.25,0-2.13-.82-2.49-2.31-.39-1.63-.39-2.62,0-4.25.33-1.39,1.4-2.22,2.86-2.22h1.5c-.2,0-.37-.16-.37-.37v-1.4c0-1.29.38-2.1,2.31-2.45,1.27-.23,2.78-.23,4.13,0,1.25.21,2.06,1.17,2.06,2.45v3.82c0,1.27-.75,1.97-2.12,1.97h-4.01c-1.22,0-2.64.67-2.64,2.56v1.82c0,.2-.16.37-.37.37Zm-.5-8.04c-1.11,0-1.9.6-2.15,1.66-.36,1.51-.36,2.39,0,3.9.19.8.66,1.75,1.77,1.75h.51v-1.46c0-2.27,1.69-3.29,3.37-3.29h4.01c.97,0,1.39-.37,1.39-1.24v-3.82c0-.91-.56-1.57-1.45-1.73-1.27-.21-2.69-.21-3.88,0-1.53.27-1.7.76-1.7,1.72v1.04h3.65c.2,0,.37.16.37.37v.73c0,.2-.16.37-.37.37h-5.52Z"/>
      <path class="cls-1" d="m34.2,14.2c-.6,0-1.1-.49-1.1-1.1,0-.61.5-1.11,1.1-1.11s1.1.5,1.1,1.11-.49,1.1-1.1,1.1Zm0-1.48c-.21,0-.37.17-.37.38,0,0,0,0,0,0,0,.2.16.37.37.37s.37-.17.37-.37c0-.2-.16-.37-.37-.38Zm1.95,15.71c-.7,0-1.39-.05-2.08-.17-1.25-.21-2.06-1.17-2.06-2.45v-3.82c0-1.27.75-1.97,2.12-1.97h4.01c1.22,0,2.64-.67,2.64-2.56v-1.82c0-.2.16-.37.37-.37h.88c1.25,0,2.13.82,2.49,2.31.39,1.63.39,2.62,0,4.25-.33,1.39-1.4,2.22-2.86,2.22h-5.15,3.65c.2,0,.37.16.37.37v1.4c0,1.29-.38,2.1-2.31,2.45-.64.11-1.34.17-2.05.17Zm-2.02-7.67c-.97,0-1.39.37-1.39,1.24v3.82c0,.91.56,1.57,1.45,1.73,1.27.21,2.69.21,3.88,0,1.53-.27,1.7-.76,1.7-1.72v-1.04h-3.65c-.2,0-.37-.16-.37-.37v-.73c0-.2.16-.37.37-.37h5.52c1.11,0,1.9-.6,2.15-1.66.36-1.51.36-2.39,0-3.9-.19-.8-.66-1.75-1.77-1.75h-.51v1.46c0,2.27-1.69,3.29-3.37,3.29h-4.01Z"/>
      <path class="cls-1" d="m37.85,27.33c-.6,0-1.1-.5-1.1-1.11s.49-1.1,1.1-1.1,1.1.5,1.1,1.1c0,.61-.5,1.11-1.1,1.11Zm0-1.48c-.2,0-.37.17-.37.37s.17.38.37.38c.21,0,.37-.17.37-.38,0,0,0,0,0,0,0-.2-.16-.37-.37-.37Z"/>
    </g>
    <path class="cls-1" d="m47.64,57.56c0,.39-.21.75-.54.97l-.1.07c-.79.5-1.26,1.35-1.25,2.26.01.28-.1.56-.32.75-.25.24-.59.38-.95.38h-9.77c-.7,0-1.26-.54-1.26-1.21v-2.86c0-.17-.06-.34-.17-.48l-2.1-2.52c-.16-.19-.24-.42-.24-.66v-5.91c0-.46.33-.87.79-1l.88-.28-.06,1.83c-.02.42.33.77.76.78.44.01.8-.31.82-.73l.47-13.88v-.05l.1-3.02c0-.63.53-1.13,1.18-1.13s1.18.51,1.18,1.13l.55,13.29c.01.35.27.64.63.71l8.01,1.51c.83.14,1.44.83,1.44,1.64l-.05,8.41Z"/>
    <path class="cls-1" d="m49.82,14.21c2.76,6.2,1.04,13.49-4.46,17.56-1.12.92-2.54,1.69-3.81,2.35,1.2-.8,2.53-1.63,3.61-2.59,5.23-4.29,6.78-10.98,4.66-17.32h0Z"/>
  </g>
</svg>