<?xml version="1.0" encoding="UTF-8"?>
<svg id="Screen" xmlns="http://www.w3.org/2000/svg" viewBox="0 0 85 85">
  <defs>
    <style>
      .cls-1 {
        fill: #fff;
      }

      .cls-2 {
        fill: #eae5ff;
      }

      .cls-3 {
        fill: #5835d2;
      }
    </style>
  </defs>
  <circle class="cls-2" cx="42.5" cy="42.5" r="41.53"/>
  <g id="Character">
    <path class="cls-3" d="m53.29,30.85h-21.61c-.39,0-.7.25-.7.56v12.36c0,.31.31.56.7.56h13.4l2.71,3.44c.1.13.32.17.48.09.05-.02.09-.06.12-.1l2.4-3.43h2.5c.39,0,.7-.25.7-.56v-12.36c0-.31-.31-.56-.7-.56Z"/>
    <g>
      <path class="cls-1" d="m37.88,38.43c1.19,0,1.19-1.85,0-1.85s-1.19,1.85,0,1.85Z"/>
      <path class="cls-1" d="m42.54,38.43c1.19,0,1.19-1.85,0-1.85s-1.19,1.85,0,1.85Z"/>
      <path class="cls-1" d="m47.21,38.43c1.19,0,1.19-1.85,0-1.85s-1.19,1.85,0,1.85Z"/>
    </g>
  </g>
  <path class="cls-3" d="m19.63,62.08h-3.27c-2.41,0-4.36-1.95-4.36-4.36v-8.71c0-2.41,1.95-4.36,4.36-4.36h3.27c.6,0,1.09.49,1.09,1.09v15.25c0,.6-.49,1.09-1.09,1.09Zm-3.27-15.25c-1.2,0-2.18.98-2.18,2.18v8.71c0,1.2.98,2.18,2.18,2.18h2.18v-13.07h-2.18Z"/>
  <path class="cls-3" d="m22.9,65.35c-2.41,0-4.36-1.95-4.36-4.36v-15.25c0-2.41,1.95-4.36,4.36-4.36s4.36,1.95,4.36,4.36v15.25c0,2.41-1.95,4.36-4.36,4.36Zm0-21.78c-1.2,0-2.18.98-2.18,2.18v15.25c0,1.2.98,2.18,2.18,2.18s2.18-.98,2.18-2.18v-15.25c0-1.2-.98-2.18-2.18-2.18Zm45.74,18.51h-3.27c-.6,0-1.09-.49-1.09-1.09v-15.25c0-.6.49-1.09,1.09-1.09h3.27c2.41,0,4.36,1.95,4.36,4.36v8.71c0,2.41-1.95,4.36-4.36,4.36Zm-2.18-2.18h2.18c1.2,0,2.18-.98,2.18-2.18v-8.71c0-1.2-.98-2.18-2.18-2.18h-2.18v13.07Z"/>
  <path class="cls-3" d="m62.1,65.35c-2.41,0-4.36-1.95-4.36-4.36v-15.25c0-2.41,1.95-4.36,4.36-4.36s4.36,1.95,4.36,4.36v15.25c0,2.41-1.95,4.36-4.36,4.36Zm0-21.78c-1.2,0-2.18.98-2.18,2.18v15.25c0,1.2.98,2.18,2.18,2.18s2.18-.98,2.18-2.18v-15.25c0-1.2-.98-2.18-2.18-2.18Zm-17.43,29.41h-4.36c-1.8,0-3.27-1.46-3.27-3.27s1.46-3.27,3.27-3.27h4.36c1.8,0,3.27,1.46,3.27,3.27s-1.46,3.27-3.27,3.27Zm-4.36-4.36c-.6,0-1.09.49-1.09,1.09s.49,1.09,1.09,1.09h4.36c.6,0,1.09-.49,1.09-1.09s-.49-1.09-1.09-1.09h-4.36Z"/>
  <path class="cls-3" d="m62.1,70.8h-15.25c-.6,0-1.09-.49-1.09-1.09s.49-1.09,1.09-1.09h15.25c3.01,0,5.45-2.44,5.45-5.45v-2.18c0-.6.49-1.09,1.09-1.09s1.09.49,1.09,1.09v2.18c0,4.21-3.41,7.62-7.62,7.62Zm5.45-23.96c-.6,0-1.09-.49-1.09-1.09v-7.62c0-1.05-.07-2.09-.21-3.13-.08-.6.35-1.15.95-1.23.6-.08,1.15.35,1.23.95.14,1.13.21,2.27.21,3.41v7.62c0,.6-.49,1.09-1.09,1.09Zm-50.1,0c-.6,0-1.09-.49-1.09-1.09v-7.62c0-1.14.08-2.28.23-3.41.08-.6.63-1.03,1.23-.95.6.08,1.03.63.95,1.23h0c-.15,1.04-.22,2.08-.23,3.13v7.62c0,.6-.49,1.09-1.09,1.09Z"/>
  <path class="cls-3" d="m67.33,35.95c-3.44-.05-6.53-2.12-7.89-5.28-4.12-9.36-15.05-13.6-24.41-9.47-4.3,1.89-7.71,5.35-9.56,9.67-1.25,3.05-4.2,5.05-7.49,5.09h-.32c-.6,0-1.09-.48-1.1-1.08,0-.05,0-.1,0-.15,1.91-14.31,15.05-24.36,29.36-22.46,11.7,1.56,20.9,10.76,22.46,22.46.08.6-.34,1.14-.94,1.22-.05,0-.1,0-.15,0h.02Zm-24.83-21.78c-11.52,0-21.41,8.2-23.55,19.52,2.03-.38,3.73-1.77,4.52-3.68,4.48-10.52,16.63-15.41,27.14-10.93,2.43,1.04,4.65,2.53,6.52,4.4,1.83,1.81,3.3,3.95,4.36,6.29.83,1.94,2.54,3.37,4.6,3.84-.91-4.71-3.21-9.04-6.6-12.44-4.5-4.52-10.62-7.04-16.99-7Z"/>
</svg>