<?xml version="1.0" encoding="UTF-8"?>
<svg id="Screen" xmlns="http://www.w3.org/2000/svg" viewBox="0 0 70 70">
  <defs>
    <style>
      .cls-1 {
        fill: #eae5ff;
      }

      .cls-2 {
        fill: #5138cc;
      }
    </style>
  </defs>
  <g id="Character">
    <rect class="cls-2" x="1.32" y="1.32" width="67.36" height="67.36" rx="12.09" ry="12.09"/>
  </g>
  <g>
    <path class="cls-1" d="m23.28,25.98c.03-.07.03-.17.07-.23,1.11-2.56,2.81-4.82,4.95-6.6,2-1.62,4.33-2.77,6.83-3.37,1.91-.47,3.88-.62,5.84-.43,1.85.15,3.66.58,5.38,1.29,2.88,1.13,5.44,2.94,7.46,5.28,1.64,1.87,2.88,4.04,3.66,6.4.76,2.18,1.12,4.49,1.06,6.8-.07,2.19-.55,4.35-1.42,6.37-1.88,4.36-4.95,7.66-9.01,10.07-2.63,1.59-5.57,2.61-8.61,3-2.81.35-5.66.14-8.38-.63-4.07-1.1-7.73-3.38-10.53-6.53-2.52-2.79-4.23-6.21-4.95-9.9-.11-.53-.21-1.09-.3-1.68h-3.43c-.13,0-.3.07-.43-.1s7.03-10.23,7.43-10.63l.23.26,3.56,5.05,2.51,3.56,1.16,1.62c-.13.26-.36.23-.56.23h-3.07l-.1.07c-.02.1-.02.2,0,.3.2,1.9.8,3.73,1.75,5.38,1.72,3.01,4.41,5.34,7.62,6.63,2.18.94,4.56,1.34,6.93,1.19,4.76-.29,9.2-2.48,12.34-6.07,2-2.13,3.29-4.83,3.7-7.72.26-1.79.2-3.61-.2-5.38-.85-4.25-3.35-7.99-6.96-10.4-2.95-2.07-6.5-3.11-10.1-2.97-5.05.13-9.11,2.18-12.31,6.07-.7.89-1.32,1.84-1.85,2.84l-.2.3-.07-.07Z"/>
    <g>
      <path class="cls-1" d="m49.62,22.88l-9.01,10.56-1.52,1.78c-.54.66-1.52.77-2.18.22-.26-.21-.44-.5-.52-.82-.2-.59,0-1.24.5-1.62l1.09-.86,11.32-9.14.26-.2.07.07Z"/>
      <path class="cls-1" d="m37.81,18.92h1.52c.12,1.02.13,2.05.03,3.07-.52.03-1.03.03-1.55,0v-3.07Z"/>
      <path class="cls-1" d="m53.05,32.61v1.52h-3.07c-.07-.53,0-1.02-.03-1.52,1.03-.1,2.07-.1,3.1,0Z"/>
      <path class="cls-1" d="m48.3,44.1l-2.21-2.21,1.06-1.02,2.18,2.21-1.02,1.02Z"/>
      <path class="cls-1" d="m27.81,43.01l2.18-2.18,1.06,1.16-2.11,2.11c-.4-.34-.77-.7-1.12-1.09Z"/>
      <path class="cls-1" d="m32.33,20.3l1.49-.63c.4.96.76,1.88,1.19,2.87l-1.49.63-1.19-2.87Z"/>
      <path class="cls-1" d="m31.07,24.73l-1.12,1.12-2.18-2.15,1.12-1.16,2.18,2.18Z"/>
      <path class="cls-1" d="m27.81,37.07l.63,1.45-2.84,1.22-.63-1.45,2.84-1.22Z"/>
      <path class="cls-1" d="m33.35,46.84l-1.45-.66,1.29-2.81c.5.17.96.43,1.45.63l-1.29,2.84Z"/>
      <path class="cls-1" d="m48.8,38.36c.23-.5.4-.92.59-1.42.99.33,1.91.76,2.9,1.16-.2.46-.36.96-.63,1.45l-2.87-1.19Z"/>
      <path class="cls-1" d="m37.81,44.73h1.52c.09,1.01.11,2.02.03,3.04h-1.55v-3.04Z"/>
      <path class="cls-1" d="m45.26,20.5l-1.29,2.84-1.45-.66,1.29-2.84,1.45.66Z"/>
      <path class="cls-1" d="m51.6,26.94l.63,1.42c-.96.5-1.88.83-2.87,1.25l-.63-1.45c.92-.43,1.88-.83,2.87-1.22Z"/>
      <path class="cls-1" d="m43.38,47c-.4-.96-.79-1.88-1.19-2.87l1.45-.63,1.19,2.87-1.45.63Z"/>
      <path class="cls-1" d="m24.87,28.59l.63-1.45,2.87,1.16-.59,1.49-2.9-1.19Z"/>
    </g>
  </g>
</svg>