<?xml version="1.0" encoding="UTF-8"?>
<svg id="Screen" xmlns="http://www.w3.org/2000/svg" viewBox="0 0 70 70">
  <defs>
    <style>
      .cls-1 {
        opacity: .31;
      }

      .cls-2, .cls-3 {
        fill: #fff;
      }

      .cls-3, .cls-4 {
        fill-rule: evenodd;
      }

      .cls-5, .cls-4 {
        fill: #e7e3fd;
      }

      .cls-6 {
        fill: #5138cc;
      }
    </style>
  </defs>
  <g id="Character">
    <rect class="cls-6" x="1.32" y="1.32" width="67.36" height="67.36" rx="12.09" ry="12.09"/>
  </g>
  <g>
    <g class="cls-1">
      <path class="cls-4" d="m13.42,50.69h7.43c1.26,0,2.25-1.01,2.25-2.28h0c0-1.27-.99-2.28-2.25-2.28h-12.13c-1.26,0-2.25-1-2.25-2.28h0c0-1.27.99-2.28,2.25-2.28h25.06c1.26,0,2.25,1,2.25,2.28h0c0,1.21-.86,2.14-2.06,2.28h-1.53c-1.19,0-2.19,1.01-2.19,2.28h0c0,1.21,1,2.28,2.19,2.28h1.53-.2c1.26,0,2.25,1,2.25,2.27h0c0,1.21-1,2.28-2.25,2.28H13.42c-1.26,0-2.25-1.07-2.25-2.28h0c0-1.27.99-2.27,2.25-2.27h0Z"/>
      <path class="cls-3" d="m29.41,55.17h3.58c1.26,0,2.25-1,2.25-2.21h0c0-1.27-1-2.27-2.25-2.27h-3.58c-1.19,0-2.25-1.07-2.25-2.28h0c0-1.27,1.06-2.28,2.25-2.28h28.77c1.19,0,2.19,1.01,2.19,2.28h0c0,1.21-.99,2.28-2.19,2.28h-9.48c-1.26,0-2.25,1-2.25,2.27h0c0,1.21.99,2.21,2.25,2.21h1.13c1.26,0,2.25,1.07,2.25,2.28h0c0,1.27-1,2.28-2.25,2.28h-20.42c-1.19,0-2.25-1-2.25-2.28h0c0-1.21,1.06-2.28,2.25-2.28h0Z"/>
    </g>
    <g>
      <path class="cls-6" d="m24.23,14.7h-5.39c0,15.73.09,26.91,15.25,37.3,15.17-10.4,15.26-21.57,15.26-37.3h-6.16"/>
      <path class="cls-2" d="m34.09,52.35c-.07,0-.14-.02-.2-.06-7.08-4.85-11.35-10.2-13.45-16.83-1.96-6.18-1.96-12.93-1.96-20.76,0-.19.15-.35.35-.35h5.39c.19,0,.35.15.35.35s-.15.35-.35.35h-5.05c0,15.24.11,26.3,14.91,36.54,14.8-10.24,14.91-21.3,14.91-36.54h-5.81c-.19,0-.35-.15-.35-.35s.15-.35.35-.35h6.16c.19,0,.35.15.35.35,0,7.82,0,14.57-1.96,20.76-2.1,6.63-6.37,11.98-13.45,16.83-.06.04-.13.06-.2.06h.01Z"/>
    </g>
    <g>
      <polyline class="cls-6" points="21.09 14.7 21.09 10.63 47.02 10.63 47.02 14.7"/>
      <path class="cls-2" d="m47.02,15.04c-.19,0-.35-.15-.35-.35v-3.73h-25.24v3.73c0,.19-.16.35-.35.35s-.35-.15-.35-.35v-4.07c0-.19.15-.35.35-.35h25.93c.19,0,.35.15.35.35v4.07c0,.19-.15.35-.35.35h0Z"/>
    </g>
    <g>
      <path class="cls-5" d="m38.93,24.5h-9.68c-.94,0-1.7.76-1.7,1.7v6.17c0,2.5,2.05,4.55,4.55,4.55h4.19c2.39,0,4.34-1.96,4.34-4.35v-6.37c0-.94-.76-1.7-1.7-1.7Z"/>
      <path class="cls-5" d="m36.29,37.26h-4.19c-2.7,0-4.9-2.2-4.9-4.9v-6.17c0-1.13.92-2.05,2.05-2.05h9.68c1.13,0,2.05.92,2.05,2.05v6.37c0,2.59-2.1,4.69-4.69,4.69h0Zm-7.04-12.41c-.75,0-1.36.61-1.36,1.35v6.17c0,2.32,1.89,4.21,4.21,4.21h4.19c2.21,0,4-1.8,4-4v-6.37c0-.75-.61-1.35-1.35-1.35h-9.69Z"/>
    </g>
    <g>
      <path class="cls-6" d="m29.81,24.37h8.57v-2.98c0-1.64-1.34-2.98-2.98-2.98h-2.61c-1.64,0-2.98,1.34-2.98,2.98,0,0,0,2.98,0,2.98Z"/>
      <path class="cls-5" d="m38.37,24.71h-8.57c-.19,0-.35-.15-.35-.35v-2.98c0-1.83,1.49-3.32,3.32-3.32h2.61c1.83,0,3.32,1.49,3.32,3.32v2.98c0,.19-.15.35-.35.35h.02Zm-8.22-.69h7.88v-2.64c0-1.45-1.18-2.63-2.63-2.63h-2.61c-1.45,0-2.63,1.18-2.63,2.63v2.64h0Z"/>
    </g>
    <path class="cls-6" d="m34.82,34.31h-1.47c-.26,0-.47-.21-.47-.47v-2.12c-.77-.43-1.26-1.25-1.26-2.15,0-1.36,1.1-2.46,2.46-2.46s2.46,1.1,2.46,2.46c0,.91-.49,1.72-1.26,2.15v2.12c0,.26-.21.47-.47.47h.01Zm-.93-1.65h.38v-1.43c0-.14.09-.27.22-.32.43-.17.71-.58.71-1.04,0-.61-.5-1.11-1.12-1.11s-1.12.5-1.12,1.11c0,.46.28.87.71,1.04.13.05.22.18.22.32,0,0,0,1.43,0,1.43Z"/>
  </g>
</svg>