<?xml version="1.0" encoding="UTF-8"?>
<svg id="Screen" xmlns="http://www.w3.org/2000/svg" viewBox="0 0 70 70">
  <defs>
    <style>
      .cls-1 {
        fill: #fff;
      }

      .cls-2 {
        fill: none;
      }

      .cls-3 {
        fill: #5138cc;
      }
    </style>
  </defs>
  <g id="Character">
    <rect class="cls-3" x="1.32" y="1.32" width="67.36" height="67.36" rx="12.09" ry="12.09"/>
    <path class="cls-1" d="m37.44,42.22c0-.79-.62-1.43-1.41-1.44-.01,0-.02,0-.03,0h-.85v2.89h.85c.79,0,1.43-.62,1.44-1.41,0-.01,0-.02,0-.03Z"/>
    <path class="cls-1" d="m43.3,43.12v-4.55h-.68v4.55c0,.47-.38.85-.85.85s-.85-.38-.85-.85v-.07c-.02-.59-.48-1.06-1.07-1.09h-1.99v.68h1.99c.21.02.38.2.39.41v.07c0,.84.68,1.53,1.53,1.53s1.53-.68,1.53-1.53Zm-9.48-2c-.19,0-.34.15-.34.34s.15.34.34.34h.99v-.68h-.99Zm0,1.7c-.19,0-.34.15-.34.34s.15.34.34.34h.99v-.68h-.99Z"/>
    <rect class="cls-1" x="25.53" y="41.12" width="2.44" height="2.44"/>
    <rect class="cls-1" x="29.5" y="41.12" width="2.44" height="2.44"/>
  </g>
  <g id="Character-2" data-name="Character">
    <g>
      <path class="cls-1" d="m56.67,45.65s-.19,0-.29-.05c-.45-.17-.67-.64-.53-1.1h0c.38-1.07.67-2.17.88-3.27.1-.45.53-.76,1-.67.45.1.76.53.67,1h0c-.21,1.19-.55,2.39-.95,3.53-.12.33-.45.57-.81.57l.02-.02Z"/>
      <path class="cls-1" d="m51.32,54.17c-.48,0-.86-.38-.86-.86,0-.21.1-.43.24-.6,1-1,1.89-2.1,2.67-3.27.26-.38.79-.5,1.17-.24s.5.79.24,1.17c-.84,1.27-1.81,2.43-2.89,3.53-.17.17-.38.26-.6.26h.02Z"/>
      <path class="cls-1" d="m54.92,17.65c-.31-.14-.67-.1-.91.14l-2.51,2.2c-9.5-9.12-24.59-8.81-33.68.69-9.12,9.5-8.81,24.59.69,33.68,7.52,7.21,18.83,8.71,27.98,3.7.41-.21.57-.74.33-1.15s-.74-.57-1.15-.33c-10.72,5.9-24.18,1.98-30.08-8.71-5.9-10.72-1.98-24.18,8.71-30.08,8.45-4.65,18.93-3.29,25.92,3.34l-3.01,2.65c-.36.31-.38.84-.07,1.19.17.19.41.29.64.29h6.8c.48,0,.86-.38.86-.86v-5.97c0-.33-.19-.64-.5-.76l-.05-.02Z"/>
      <path class="cls-1" d="m57.98,37.15c-.45,0-.84-.36-.86-.81-.05-1.1-.17-2.2-.38-3.27-.1-.45.21-.91.69-.98.45-.07.88.21.98.67.21,1.17.36,2.34.41,3.53,0,.48-.36.86-.81.88h-.02v-.02Z"/>
    </g>
  </g>
  <path class="cls-2" d="m9.41,13.18h48v48H9.41V13.18Z"/>
  <path class="cls-2" d="m10.59,11.77h48v48H10.59V11.77Z"/>
  <path class="cls-1" d="m35,20.72c-9.55,0-17.3,7.75-17.3,17.3s7.75,17.31,17.3,17.31,17.31-7.75,17.31-17.31-7.75-17.3-17.31-17.3Zm10.41,25.89h-20.81c-1.25,0-2.26-1.01-2.26-2.26v-13.34c0-1.25,1.01-2.26,2.26-2.26h20.81c1.24,0,2.26,1.01,2.26,2.26v13.34c0,1.25-1.02,2.26-2.26,2.26Z"/>
  <path class="cls-1" d="m33.33,35.98c-2.68,0-5.36,0-8.04,0v-4.22s8.04,0,8.04,0c0,1.41,0,2.81,0,4.22Z"/>
  <path class="cls-1" d="m43.46,35.98c-2.68,0-5.36,0-8.04,0v-4.22s8.04,0,8.04,0c0,1.41,0,2.81,0,4.22Z"/>
</svg>