<?xml version="1.0" encoding="UTF-8"?>
<svg id="Screen" xmlns="http://www.w3.org/2000/svg" viewBox="0 0 70 70">
  <defs>
    <style>
      .cls-1 {
        fill: #fff;
      }

      .cls-2 {
        fill: #eae5ff;
      }

      .cls-3 {
        fill: #5835d2;
      }
    </style>
  </defs>
  <rect class="cls-3" x="1.32" y="1.26" width="67.36" height="67.36" rx="12.09" ry="12.09"/>
  <path class="cls-2" d="m47.97,57.36c-6.29,0-11.39-5.1-11.39-11.39,0-6.29,5.1-11.39,11.39-11.39,6.29,0,11.39,5.1,11.39,11.39,0,.01,0,.03,0,.04-.02,6.27-5.11,11.35-11.39,11.35Z"/>
  <g id="Character">
    <g>
      <path class="cls-3" d="m57.04,49.53s-.08,0-.12-.02c-.19-.07-.28-.27-.22-.46,0,0,0,0,0,0,.16-.45.28-.91.37-1.37.04-.19.22-.32.42-.28.19.04.32.22.28.42h0c-.09.5-.23,1-.4,1.48-.05.14-.19.24-.34.24Z"/>
      <path class="cls-3" d="m54.8,53.1c-.2,0-.36-.16-.36-.36,0-.09.04-.18.1-.25.42-.42.79-.88,1.12-1.37.11-.16.33-.21.49-.1s.21.33.1.49c-.35.53-.76,1.02-1.21,1.48-.07.07-.16.11-.25.11Z"/>
      <path class="cls-3" d="m56.31,37.8c-.13-.06-.28-.04-.38.06l-1.05.92c-3.98-3.82-10.3-3.69-14.11.29-3.82,3.98-3.69,10.3.29,14.11,3.15,3.02,7.89,3.65,11.72,1.55.17-.09.24-.31.14-.48s-.31-.24-.48-.14c-4.49,2.47-10.13.83-12.6-3.65-2.47-4.49-.83-10.13,3.65-12.6,3.54-1.95,7.93-1.38,10.86,1.4l-1.26,1.11c-.15.13-.16.35-.03.5.07.08.17.12.27.12h2.85c.2,0,.36-.16.36-.36v-2.5c0-.14-.08-.27-.21-.32Z"/>
      <path class="cls-3" d="m57.59,45.97c-.19,0-.35-.15-.36-.34-.02-.46-.07-.92-.16-1.37-.04-.19.09-.38.29-.41.19-.03.37.09.41.28.09.49.15.98.17,1.48,0,.2-.15.36-.34.37h0s-.01,0-.01,0Z"/>
    </g>
  </g>
  <path class="cls-3" d="m46.9,49.37c-.07,0-.14-.02-.19-.06l-3.57-3.18c-.05-.02-.09-.07-.1-.13,0-.07.03-.13.1-.16l3.57-3.18.19-.06h.1c.09.04.16.13.16.23v1.48h4.66c.12-.02.24.07.26.19,0,.01,0,.02,0,.03v2.93c0,.12-.1.23-.22.23-.01,0-.02,0-.03,0h-4.66v1.48c0,.1-.07.19-.16.23h-.1Z"/>
  <path class="cls-1" d="m21.95,17.21c2.98-1.02,7.02-1.55,11.39-1.55s8.37.53,11.39,1.55c3.02,1.02,3.96,1.96,3.96,2.65s-1.22,1.71-3.96,2.65c-2.73.94-7.06,1.51-11.39,1.51s-8.41-.53-11.39-1.51-3.96-2-3.96-2.65,1.22-1.75,3.96-2.65Z"/>
  <path class="cls-1" d="m17.55,24.92c2.98,2.08,9.06,3.39,15.79,3.39s12.77-1.31,15.79-3.39v3.63c0,1.35-1.63,2.82-4.29,3.96s-7.14,2.04-11.51,2.04-8.45-.73-11.51-2.04c-3.06-1.31-4.29-2.61-4.29-3.96v-3.63Z"/>
  <path class="cls-1" d="m33.34,55.33c-4.37,0-8.45-.69-11.51-2s-4.29-2.61-4.29-3.96v-4.12c3.22,2.49,9.18,4.04,15.79,4.04h1.31c.3,2.11,1.05,4.13,2.2,5.92-1.17.1-2.34.14-3.51.12Z"/>
  <path class="cls-1" d="m34.65,44.96h-1.31c-4.37,0-8.45-.69-11.51-2-3.06-1.31-4.29-2.61-4.29-3.96v-4.12c3.22,2.53,9.18,4.08,15.79,4.08,1.14,0,2.37-.08,3.63-.2-1.23,1.87-2.03,3.99-2.33,6.2Z"/>
</svg>