<?xml version="1.0" encoding="UTF-8"?>
<svg id="Screen" xmlns="http://www.w3.org/2000/svg" viewBox="0 0 70 70">
  <defs>
    <style>
      .cls-1, .cls-2 {
        fill: #fff;
      }

      .cls-2 {
        font-family: Raleway-Bold, Raleway;
        font-size: 7.7px;
        font-weight: 700;
      }

      .cls-3 {
        fill: #5138cc;
      }
    </style>
  </defs>
  <g id="Character">
    <rect class="cls-3" x="1.32" y="1.32" width="67.36" height="67.36" rx="12.09" ry="12.09"/>
  </g>
  <g>
    <path class="cls-1" d="m19.57,49.6h-2.21c-1.63,0-2.94-1.32-2.94-2.94v-5.87c0-1.63,1.32-2.94,2.94-2.94h2.21c.4,0,.74.33.74.74v10.29c0,.4-.33.74-.74.74Zm-2.21-10.29c-.81,0-1.47.66-1.47,1.47v5.87c0,.81.66,1.47,1.47,1.47h1.47v-8.82h-1.47Z"/>
    <path class="cls-1" d="m21.78,51.81c-1.63,0-2.94-1.32-2.94-2.94v-10.29c0-1.63,1.32-2.94,2.94-2.94s2.94,1.32,2.94,2.94v10.29c0,1.63-1.32,2.94-2.94,2.94Zm0-14.69c-.81,0-1.47.66-1.47,1.47v10.29c0,.81.66,1.47,1.47,1.47s1.47-.66,1.47-1.47v-10.29c0-.81-.66-1.47-1.47-1.47Zm30.85,12.48h-2.21c-.4,0-.74-.33-.74-.74v-10.29c0-.4.33-.74.74-.74h2.21c1.63,0,2.94,1.32,2.94,2.94v5.87c0,1.63-1.32,2.94-2.94,2.94Zm-1.47-1.47h1.47c.81,0,1.47-.66,1.47-1.47v-5.87c0-.81-.66-1.47-1.47-1.47h-1.47v8.82Z"/>
    <path class="cls-1" d="m48.22,51.81c-1.63,0-2.94-1.32-2.94-2.94v-10.29c0-1.63,1.32-2.94,2.94-2.94s2.94,1.32,2.94,2.94v10.29c0,1.63-1.32,2.94-2.94,2.94Zm0-14.69c-.81,0-1.47.66-1.47,1.47v10.29c0,.81.66,1.47,1.47,1.47s1.47-.66,1.47-1.47v-10.29c0-.81-.66-1.47-1.47-1.47Zm-11.76,19.84h-2.94c-1.21,0-2.21-.98-2.21-2.21s.98-2.21,2.21-2.21h2.94c1.21,0,2.21.98,2.21,2.21s-.98,2.21-2.21,2.21Zm-2.94-2.94c-.4,0-.74.33-.74.74s.33.74.74.74h2.94c.4,0,.74-.33.74-.74s-.33-.74-.74-.74h-2.94Z"/>
    <path class="cls-1" d="m48.22,55.48h-10.29c-.4,0-.74-.32-.74-.71s.33-.71.74-.71h10.29c2.03,0,3.68-1.59,3.68-3.54v-1.42c0-.39.33-.71.74-.71s.74.32.74.71v1.42c0,2.74-2.3,4.96-5.14,4.96h0Zm3.68-17.29c-.4,0-.74-.35-.74-.79v-5.5c0-.76-.05-1.51-.14-2.26-.05-.43.24-.83.64-.89.4-.06.78.25.83.69.09.82.14,1.64.14,2.46v5.5c0,.43-.33.79-.74.79Zm-33.79,0c-.4,0-.74-.35-.74-.79v-5.5c0-.82.05-1.65.16-2.46.05-.43.42-.74.83-.69.4.06.69.45.64.89h0c-.1.75-.15,1.5-.16,2.26v5.5c0,.43-.33.79-.74.79Z"/>
    <path class="cls-1" d="m51.75,29.17c-2.32-.03-4.4-1.43-5.32-3.56-2.78-6.31-10.15-9.17-16.46-6.39-2.9,1.27-5.2,3.61-6.45,6.52-.84,2.06-2.83,3.41-5.05,3.43h-.22c-.4,0-.74-.32-.74-.73v-.1c1.29-9.65,10.15-16.43,19.8-15.15,7.89,1.05,14.1,7.26,15.15,15.15.05.4-.23.77-.63.82h-.1.03Zm-16.75-14.69c-7.77,0-14.44,5.53-15.88,13.17,1.37-.26,2.52-1.19,3.05-2.48,3.02-7.1,11.22-10.39,18.31-7.37,1.64.7,3.14,1.71,4.4,2.97,1.23,1.22,2.23,2.66,2.94,4.24.56,1.31,1.71,2.27,3.1,2.59-.61-3.18-2.17-6.1-4.45-8.39-3.04-3.05-7.16-4.75-11.46-4.72Z"/>
    <text class="cls-2" transform="translate(30.2 34.08)"><tspan x="0" y="0">24</tspan></text>
    <g>
      <path class="cls-1" d="m41.81,34.93s-.06,0-.1-.02c-.15-.05-.23-.22-.17-.36,0,0,0,0,0,0,.13-.36.23-.72.3-1.1.03-.15.18-.26.33-.23.15.03.26.18.23.33h0c-.08.4-.18.8-.32,1.18-.04.11-.15.19-.27.19Z"/>
      <path class="cls-1" d="m40.02,37.78c-.16,0-.28-.13-.28-.29,0-.07.03-.15.08-.2.33-.34.63-.7.9-1.1.09-.13.26-.17.4-.08s.17.26.08.4c-.28.42-.61.82-.97,1.18-.05.05-.13.09-.2.09Z"/>
      <path class="cls-1" d="m41.23,25.56c-.1-.05-.22-.03-.31.04l-.84.73c-3.18-3.05-8.22-2.95-11.27.23-3.05,3.18-2.95,8.22.23,11.27,2.51,2.41,6.3,2.91,9.36,1.24.14-.08.19-.25.11-.39s-.25-.19-.39-.11c-3.58,1.97-8.09.67-10.06-2.92-1.97-3.58-.67-8.09,2.92-10.06,2.83-1.56,6.33-1.1,8.67,1.12l-1.01.88c-.12.1-.13.28-.03.4.05.06.13.1.21.1h2.28c.16,0,.28-.13.28-.28v-1.99c0-.11-.07-.21-.17-.26Z"/>
      <path class="cls-1" d="m42.25,32.08c-.15,0-.28-.12-.28-.27-.01-.37-.05-.73-.12-1.1-.03-.15.07-.3.23-.33.15-.03.3.07.33.22.08.39.12.79.14,1.18,0,.16-.12.29-.27.3h0s-.01,0-.01,0Z"/>
    </g>
  </g>
</svg>