<?xml version="1.0" encoding="UTF-8"?>
<svg id="Screen" xmlns="http://www.w3.org/2000/svg" viewBox="0 0 70 70">
  <defs>
    <style>
      .cls-1 {
        fill: #fff;
      }

      .cls-2 {
        fill: none;
        stroke: #fff;
        stroke-miterlimit: 10;
      }

      .cls-3 {
        fill: #5138cc;
      }
    </style>
  </defs>
  <g id="Character">
    <rect class="cls-3" x="1.32" y="1.32" width="67.36" height="67.36" rx="12.09" ry="12.09"/>
  </g>
  <path class="cls-1" d="m37.65,52.12c-1.07,0-1.93.87-1.93,1.93s.87,1.93,1.93,1.93,1.93-.87,1.93-1.93-.87-1.93-1.93-1.93Z"/>
  <path class="cls-1" d="m39.79,52.43l4.08-7.73-5.43,6.79c.54.17,1.01.5,1.35.95Z"/>
  <circle class="cls-1" cx="22.64" cy="17.8" r=".94"/>
  <circle class="cls-1" cx="27.33" cy="17.8" r=".94"/>
  <path class="cls-2" d="m60.61,16.99c0-1.39-1.13-2.53-2.53-2.53H16.47c-1.39,0-2.53,1.13-2.53,2.53v4.14h46.67v-4.14Z"/>
  <circle class="cls-1" cx="17.95" cy="17.8" r=".94"/>
  <path class="cls-1" d="m56.6,16.86h-21.8c-.52,0-.94.42-.94.94s.42.94.94.94h21.8c.52,0,.94-.42.94-.94s-.42-.94-.94-.94Z"/>
  <path class="cls-2" d="m13.94,55.97c0,1.39,1.13,2.53,2.53,2.53h41.62c1.39,0,2.53-1.13,2.53-2.53V21.89H13.94v34.08Z"/>
  <path class="cls-1" d="m37.65,34.42c-8.48,0-15.37,6.9-15.37,15.37,0,2.9.81,5.71,2.35,8.16h26.05c1.54-2.45,2.35-5.26,2.35-8.16,0-8.48-6.9-15.37-15.37-15.37Zm5.28,5.61l.89-1.54c.1-.18.33-.24.51-.14.18.1.24.33.14.51l-.89,1.54c-.1.18-.34.24-.51.14-.18-.1-.24-.33-.14-.51Zm-5.65-3.09c0-.21.17-.38.38-.38s.38.17.38.38v1.78c0,.21-.17.38-.38.38s-.38-.17-.38-.38v-1.78Zm-10.83,13.36h-1.78c-.21,0-.38-.17-.38-.38s.17-.38.38-.38h1.78c.21,0,.38.17.38.38s-.17.38-.38.38Zm1.83-5.79c-.1.18-.34.24-.51.14l-1.54-.89c-.18-.1-.24-.33-.14-.51.1-.18.33-.24.51-.14l1.54.89c.18.1.24.33.14.51Zm3.96-3.96c-.18.1-.41.04-.51-.14l-.89-1.54c-.1-.18-.04-.41.14-.51.18-.1.41-.04.51.14l.89,1.54c.1.18.04.41-.14.51Zm14.14,1l-6.17,11.7c.08.26.13.53.13.81,0,1.48-1.21,2.69-2.69,2.69s-2.69-1.21-2.69-2.69,1.16-2.64,2.6-2.68l8.19-10.24c.12-.15.34-.18.5-.08.16.11.21.32.12.49Zm.65,2.96c-.1-.18-.04-.41.14-.51l1.54-.89c.18-.1.41-.04.51.14.1.18.04.41-.14.51l-1.54.89c-.18.1-.41.04-.51-.14Zm3.6,5.79h-1.78c-.21,0-.38-.17-.38-.38s.17-.38.38-.38h1.78c.21,0,.38.17.38.38s-.17.38-.38.38Z"/>
</svg>