<?xml version="1.0" encoding="UTF-8"?>
<svg id="Screen" xmlns="http://www.w3.org/2000/svg" viewBox="0 0 70 70">
  <defs>
    <style>
      .cls-1 {
        fill: #fff;
      }

      .cls-2 {
        fill: #e7e3fd;
      }

      .cls-3 {
        fill: #5138cc;
      }
    </style>
  </defs>
  <g id="Character">
    <rect class="cls-3" x="1.32" y="1.32" width="67.36" height="67.36" rx="12.09" ry="12.09"/>
  </g>
  <g>
    <path class="cls-2" d="m46.49,56.62c-6.23,0-11.28-5.05-11.28-11.28s5.05-11.28,11.28-11.28,11.28,5.05,11.28,11.28v.04c-.02,6.21-5.06,11.24-11.28,11.24Z"/>
    <g id="Character-2" data-name="Character">
      <g>
        <path class="cls-3" d="m55.47,48.86s-.08,0-.12-.02c-.19-.07-.28-.27-.22-.46h0c.16-.45.28-.9.37-1.36.04-.19.22-.32.42-.28.19.04.32.22.28.42h0c-.09.5-.23.99-.4,1.47-.05.14-.19.24-.34.24h0Z"/>
        <path class="cls-3" d="m53.25,52.4c-.2,0-.36-.16-.36-.36,0-.09.04-.18.1-.25.42-.42.78-.87,1.11-1.36.11-.16.33-.21.49-.1s.21.33.1.49c-.35.52-.75,1.01-1.2,1.47-.07.07-.16.11-.25.11h0Z"/>
        <path class="cls-3" d="m54.75,37.24c-.13-.06-.28-.04-.38.06l-1.04.91c-3.94-3.78-10.2-3.65-13.98.29-3.78,3.94-3.65,10.2.29,13.98,3.12,2.99,7.81,3.62,11.61,1.54.17-.09.24-.31.14-.48s-.31-.24-.48-.14c-4.45,2.45-10.03.82-12.48-3.62-2.45-4.45-.82-10.03,3.62-12.48,3.51-1.93,7.85-1.37,10.76,1.39l-1.25,1.1c-.15.13-.16.35-.03.5.07.08.17.12.27.12h2.82c.2,0,.36-.16.36-.36v-2.48c0-.14-.08-.27-.21-.32h-.02Z"/>
        <path class="cls-3" d="m56.01,45.33c-.19,0-.35-.15-.36-.34-.02-.46-.07-.91-.16-1.36-.04-.19.09-.38.29-.41.19-.03.37.09.41.28.09.49.15.97.17,1.47,0,.2-.15.36-.34.37h0Z"/>
      </g>
    </g>
    <path class="cls-3" d="m45.43,48.7c-.07,0-.14-.02-.19-.06l-3.54-3.15s-.09-.07-.1-.13c0-.07.03-.13.1-.16l3.54-3.15.19-.06h.1c.09.04.16.13.16.23v1.47h4.62c.12-.02.24.07.26.19v2.93c0,.12-.1.23-.22.23h-4.65v1.47c0,.1-.07.19-.16.23h-.1v-.03Z"/>
    <path class="cls-1" d="m20.71,16.85c2.95-1.01,6.95-1.54,11.28-1.54s8.29.52,11.28,1.54,3.92,1.94,3.92,2.62-1.21,1.69-3.92,2.62c-2.7.93-6.99,1.5-11.28,1.5s-8.33-.52-11.28-1.5-3.92-1.98-3.92-2.62,1.21-1.73,3.92-2.62Z"/>
    <path class="cls-1" d="m16.35,24.48c2.95,2.06,8.97,3.36,15.64,3.36s12.65-1.3,15.64-3.36v3.6c0,1.34-1.61,2.79-4.25,3.92s-7.07,2.02-11.4,2.02-8.37-.72-11.4-2.02c-3.03-1.3-4.25-2.59-4.25-3.92v-3.6h.02Z"/>
    <path class="cls-1" d="m31.99,54.6c-4.33,0-8.37-.68-11.4-1.98s-4.25-2.59-4.25-3.92v-4.08c3.19,2.47,9.09,4,15.64,4h1.3c.3,2.09,1.04,4.09,2.18,5.86-1.16.1-2.32.14-3.48.12h0Z"/>
    <path class="cls-1" d="m33.29,44.33h-1.3c-4.33,0-8.37-.68-11.4-1.98-3.03-1.3-4.25-2.59-4.25-3.92v-4.08c3.19,2.51,9.09,4.04,15.64,4.04,1.13,0,2.35-.08,3.6-.2-1.22,1.85-2.01,3.95-2.31,6.14h.02Z"/>
  </g>
</svg>