<?xml version="1.0" encoding="UTF-8"?>
<svg id="Screen" xmlns="http://www.w3.org/2000/svg" viewBox="0 0 70 70">
  <defs>
    <style>
      .cls-1 {
        fill: #fff;
      }

      .cls-2 {
        font-family: Raleway-Bold, Raleway;
        font-size: 4.91px;
        font-weight: 700;
      }

      .cls-2, .cls-3, .cls-4 {
        fill: #5138cc;
      }

      .cls-3, .cls-5 {
        stroke: #fff;
        stroke-miterlimit: 10;
      }

      .cls-6 {
        letter-spacing: -.03em;
      }

      .cls-7 {
        fill: #e7e3fd;
      }

      .cls-5 {
        fill: none;
        stroke-width: .25px;
      }
    </style>
  </defs>
  <g id="Character">
    <rect class="cls-4" x="1.32" y="1.32" width="67.36" height="67.36" rx="12.09" ry="12.09"/>
  </g>
  <g>
    <path class="cls-5" d="m8.89,13.78c0,.2.06.4.21.55.15.18.38.29.61.27h10.97c.45.04.85-.3.89-.75v-.07c-.04-.48-.42-.86-.89-.89h-10.97c-.45,0-.82.36-.82.82v.07h0Z"/>
    <rect class="cls-5" x="13.07" y="21.19" width="8.98" height="1.7" rx=".82" ry=".82"/>
    <rect class="cls-5" x="8" y="28.09" width="5.49" height="1.7" rx=".82" ry=".82"/>
    <rect class="cls-5" x="12.53" y="31.99" width="8.98" height="1.7" rx=".82" ry=".82"/>
    <circle class="cls-5" cx="11.02" cy="18.64" r=".82"/>
    <circle class="cls-5" cx="16.2" cy="26.2" r=".82"/>
  </g>
  <g>
    <path class="cls-5" d="m44.48,37.39c0,.2.06.4.21.55.15.18.38.29.61.27h10.97c.45.04.85-.3.89-.75v-.07c-.04-.48-.42-.86-.89-.89h-10.97c-.45,0-.82.36-.82.82v.07h0Z"/>
    <rect class="cls-5" x="48.66" y="44.8" width="8.98" height="1.7" rx=".82" ry=".82"/>
    <rect class="cls-5" x="43.59" y="51.7" width="5.49" height="1.7" rx=".82" ry=".82"/>
    <rect class="cls-5" x="48.11" y="55.6" width="8.98" height="1.7" rx=".82" ry=".82"/>
    <circle class="cls-5" cx="46.61" cy="42.25" r=".82"/>
    <circle class="cls-5" cx="51.78" cy="49.81" r=".82"/>
  </g>
  <g>
    <path class="cls-4" d="m23.6,18.78h-6.12c0,16.35.1,27.97,17.31,38.76,17.22-10.81,17.32-22.42,17.32-38.76h-6.99"/>
    <path class="cls-1" d="m34.8,57.91c-.08,0-.16-.02-.23-.06-8.04-5.04-12.88-10.6-15.27-17.49-2.23-6.42-2.23-13.44-2.23-21.58,0-.2.17-.36.4-.36h6.12c.22,0,.4.16.4.36s-.17.36-.4.36h-5.73c0,15.84.12,27.33,16.93,37.97,16.8-10.64,16.93-22.14,16.93-37.97h-6.6c-.22,0-.4-.16-.4-.36s.17-.36.4-.36h6.99c.22,0,.4.16.4.36,0,8.13,0,15.14-2.23,21.58-2.38,6.89-7.23,12.45-15.27,17.49-.07.04-.15.06-.23.06h.01Z"/>
  </g>
  <g>
    <polyline class="cls-4" points="20.08 18.43 20.08 14.2 49.52 14.2 49.52 18.43"/>
    <path class="cls-1" d="m49.52,18.78c-.22,0-.4-.16-.4-.36v-3.88h-28.65v3.88c0,.2-.18.36-.4.36s-.4-.16-.4-.36v-4.23c0-.2.17-.36.4-.36h29.44c.22,0,.4.16.4.36v4.23c0,.2-.17.36-.4.36h.01Z"/>
  </g>
  <g>
    <path class="cls-3" d="m37.8,34.03l2.96,13.26-5.98-3.27v-9.99h3.02Z"/>
    <path class="cls-3" d="m31.76,34.03l-2.96,13.26,5.98-3.27v-9.99h-3.02Z"/>
    <path class="cls-3" d="m42.06,32.74c0,2.35-1.91,4.26-4.26,4.26h0c-1.66,1.67-4.36,1.67-6.03,0h0c-2.35,0-4.26-1.92-4.26-4.27h0c-1.66-1.67-1.66-4.37,0-6.03v-.02c0-2.35,1.91-4.26,4.26-4.26h.02c1.66-1.66,4.36-1.66,6.02,0h0c2.35,0,4.26,1.91,4.26,4.26,1.67,1.67,1.67,4.38,0,6.04h0l-.02.02Z"/>
    <circle class="cls-7" cx="34.77" cy="29.73" r="5.79"/>
  </g>
  <text class="cls-2" transform="translate(30.58 31.23)"><tspan x="0" y="0">SS</tspan><tspan class="cls-6" x="6.02" y="0">L</tspan></text>
</svg>