<?xml version="1.0" encoding="UTF-8"?>
<svg id="Screen" xmlns="http://www.w3.org/2000/svg" viewBox="0 0 70 70">
  <defs>
    <style>
      .cls-1 {
        fill: #fff;
      }

      .cls-2 {
        fill: #5c49e6;
      }

      .cls-3 {
        fill: none;
        stroke: #fff;
        stroke-miterlimit: 10;
        stroke-width: .25px;
      }

      .cls-4 {
        fill: #5138cc;
      }
    </style>
  </defs>
  <g id="Character">
    <rect class="cls-4" x="1.32" y="1.32" width="67.36" height="67.36" rx="12.09" ry="12.09"/>
  </g>
  <rect class="cls-3" x="8.81" y="13.49" width="26.25" height="18.05" rx=".54" ry=".54"/>
  <rect class="cls-1" x="9.79" y="16" width="24.37" height="14.57"/>
  <rect class="cls-2" x="11.68" y="17.77" width="6.42" height="4.76" rx=".91" ry=".91"/>
  <rect class="cls-2" x="18.89" y="17.77" width="6.24" height="4.76" rx=".87" ry=".87"/>
  <rect class="cls-2" x="25.96" y="17.77" width="6.24" height="4.76" rx=".87" ry=".87"/>
  <rect class="cls-2" x="16.57" y="24.45" width="15.63" height="1.33" rx=".58" ry=".58"/>
  <rect class="cls-2" x="11.68" y="24.45" width="3.84" height="1.33" rx=".47" ry=".47"/>
  <rect class="cls-2" x="16.57" y="26.4" width="15.63" height="1.33" rx=".58" ry=".58"/>
  <rect class="cls-2" x="11.68" y="26.4" width="3.84" height="1.33" rx=".47" ry=".47"/>
  <circle class="cls-1" cx="10.41" cy="14.84" r=".47"/>
  <circle class="cls-1" cx="11.68" cy="14.84" r=".47"/>
  <circle class="cls-1" cx="12.98" cy="14.84" r=".47"/>
  <rect class="cls-3" x="36.49" y="41.3" width="26.25" height="18.05" rx=".54" ry=".54"/>
  <rect class="cls-1" x="37.47" y="43.8" width="24.37" height="14.57"/>
  <rect class="cls-2" x="39.35" y="45.58" width="6.42" height="4.76" rx=".91" ry=".91"/>
  <rect class="cls-2" x="46.57" y="45.58" width="6.24" height="4.76" rx=".87" ry=".87"/>
  <rect class="cls-2" x="53.64" y="45.58" width="6.24" height="4.76" rx=".87" ry=".87"/>
  <rect class="cls-2" x="44.25" y="52.25" width="15.63" height="1.33" rx=".58" ry=".58"/>
  <rect class="cls-2" x="39.35" y="52.25" width="3.84" height="1.33" rx=".47" ry=".47"/>
  <rect class="cls-2" x="44.25" y="54.21" width="15.63" height="1.33" rx=".58" ry=".58"/>
  <rect class="cls-2" x="39.35" y="54.21" width="3.84" height="1.33" rx=".47" ry=".47"/>
  <circle class="cls-1" cx="38.09" cy="42.64" r=".47"/>
  <circle class="cls-1" cx="39.35" cy="42.64" r=".47"/>
  <circle class="cls-1" cx="40.66" cy="42.64" r=".47"/>
  <path class="cls-1" d="m51.02,27.89c-.25.66-.49,1.32-.76,2.01l-.81,2.16-.52,1.37c-.11.32-.46.49-.78.38-.1-.03-.18-.09-.25-.16l-.93-1.03-2.43-2.72c-.17-.22-.35-.42-.54-.61-.14-.18-.12-.44.06-.59.03-.02.05-.04.08-.05l.17-.05,1.13-.2h.17v-.39l-.07-.83-.07-.44c-.04-.26-.11-.51-.2-.76-.12-.39-.25-.76-.39-1.15-.12-.27-.25-.53-.39-.78-.41-.81-.92-1.57-1.52-2.26-.25-.29-.52-.59-.78-.86-.09-.09-.1-.24-.02-.34.05-.1.16-.14.26-.09,0,0,.02.01.03.02l1.15.56.44.29c.72.46,1.4,1,2.01,1.59.96.9,1.76,1.96,2.38,3.11.24.44.43.9.59,1.37.04.08.07.16.1.25h.17l1.1-.22c.21-.07.44.01.56.2l.05.22h.01Z"/>
  <path class="cls-1" d="m22.73,44.06l-.16.06-1.11.46c-.12.04-.26.04-.37-.02-.16-.07-.25-.25-.21-.42l.13-.86c.18-1.14.36-2.28.52-3.41l.23-1.5c.05-.34.36-.57.69-.52.03,0,.06,0,.09.02l.2.11c.57.42,1.14.81,1.69,1.23l2.92,2.16.1.07c.17.15.19.41.04.59-.03.04-.07.07-.11.09l-.21.08-.97.41-.16.06c.02.12.04.24.08.36.08.3.18.6.3.88.07.19.15.38.24.57.26.62.6,1.21,1.01,1.74.58.8,1.27,1.52,2.05,2.14.37.31.8.59,1.22.88.07.05.12.13.13.21.01.14-.09.25-.22.26-.03,0-.07,0-.1,0-.31-.06-.62-.14-.92-.23s-.59-.19-.87-.31c-.74-.29-1.45-.65-2.12-1.07-.64-.38-1.24-.82-1.8-1.32-.72-.62-1.36-1.33-1.89-2.13-.12-.19-.25-.4-.41-.61v.03Z"/>
</svg>