<?xml version="1.0" encoding="UTF-8"?>
<svg id="Screen" xmlns="http://www.w3.org/2000/svg" viewBox="0 0 70 70">
  <defs>
    <style>
      .cls-1 {
        fill: #fff;
      }

      .cls-2 {
        fill: #5138cc;
      }
    </style>
  </defs>
  <g id="Character">
    <rect class="cls-2" x="1.32" y="1.32" width="67.36" height="67.36" rx="12.09" ry="12.09"/>
  </g>
  <g>
    <path class="cls-1" d="m9.13,13.67v42.66h51.74V13.67H9.13Zm49.62,40.54H11.25v-30.35h47.5v30.35ZM11.25,21.74v-5.94h47.5v5.94H11.25Z"/>
    <rect class="cls-1" x="40.31" y="17.64" width="3.27" height="2.12"/>
    <rect class="cls-1" x="46.67" y="17.64" width="3.27" height="2.12"/>
    <rect class="cls-1" x="53.04" y="17.64" width="3.27" height="2.12"/>
    <polygon class="cls-1" points="20.76 42.11 22.16 37.91 23.58 42.11 25.15 42.11 27.59 34.7 25.66 34.7 24.37 38.76 23.01 34.7 21.35 34.7 20.02 38.76 18.72 34.7 16.75 34.7 19.19 42.11 20.76 42.11"/>
    <polygon class="cls-1" points="32.11 42.11 33.51 37.91 34.94 42.11 36.51 42.11 38.95 34.7 37.02 34.7 35.72 38.76 34.36 34.7 32.71 34.7 31.37 38.76 30.08 34.7 28.1 34.7 30.54 42.11 32.11 42.11"/>
    <polygon class="cls-1" points="43.49 42.11 44.89 37.91 46.31 42.11 47.88 42.11 50.32 34.7 48.39 34.7 47.1 38.76 45.74 34.7 44.08 34.7 42.75 38.76 41.45 34.7 39.48 34.7 41.94 42.11 43.49 42.11"/>
    <path class="cls-1" d="m51.98,42.11c.31,0,.61-.11.83-.32.23-.22.36-.53.36-.85,0-.31-.13-.62-.36-.83-.48-.43-1.2-.43-1.68,0-.23.21-.36.51-.36.83,0,.32.13.63.36.85.23.21.54.32.85.32Z"/>
  </g>
</svg>