<?xml version="1.0" encoding="UTF-8"?>
<svg id="Screen" xmlns="http://www.w3.org/2000/svg" viewBox="0 0 70 70">
  <defs>
    <style>
      .cls-1 {
        fill: #fff;
      }

      .cls-2 {
        fill: none;
      }

      .cls-2, .cls-3 {
        stroke: #fff;
        stroke-miterlimit: 10;
      }

      .cls-3, .cls-4 {
        fill: #5138cc;
      }
    </style>
  </defs>
  <g id="Character">
    <rect class="cls-4" x="1.32" y="1.32" width="67.36" height="67.36" rx="12.09" ry="12.09"/>
  </g>
  <path class="cls-1" d="m52.31,60.09c-.06-.06-.1-.13-.11-.2l-.43-5.55c-.03-.06-.02-.13.02-.19.06-.06.13-.08.21-.05l5.56.21.21.1.08.08c.04.11.03.24-.05.32l-1.19,1.24,3.91,3.76c.12.08.14.25.06.37l-.02.03-2.36,2.46c-.1.1-.27.11-.37.02l-.03-.02-3.91-3.76-1.19,1.24c-.08.08-.21.1-.32.06l-.08-.08.02-.03Z"/>
  <line class="cls-3" x1="33.36" y1="44.31" x2="33.36" y2="57.21"/>
  <g>
    <circle class="cls-3" cx="34.93" cy="34.89" r="22.01"/>
    <line class="cls-2" x1="34.6" y1="13.22" x2="34.6" y2="25.89"/>
    <path class="cls-2" d="m31.74,13.11s-15.99,14.94,0,43.78"/>
    <path class="cls-2" d="m24.64,15.44s-15.27,13.34,2.43,40.11"/>
    <path class="cls-2" d="m56.18,29.26s-15.08-14.58-41.47-3.12"/>
    <path class="cls-2" d="m54.63,44.64s-13.58,14.45-37.63,2.78"/>
    <path class="cls-2" d="m35.86,13.11s18.84,17.33,2.05,43.36"/>
    <path class="cls-2" d="m42.39,14.18s20.47,16.46,1.89,40.62"/>
  </g>
  <ellipse class="cls-4" cx="34.93" cy="35.96" rx="19.51" ry="10.44" transform="translate(-1.21 1.22) rotate(-1.96)"/>
  <g>
    <path class="cls-1" d="m29.55,32.97c0,.05,0,.1-.02.18-.02.07-.03.17-.07.31l-1.58,5.36c-.03.08-.05.14-.09.18-.04.05-.1.09-.17.11-.07.03-.17.04-.31.05-.35.02-.71.02-1.06,0-.14,0-.24-.03-.32-.05-.07-.02-.13-.06-.17-.11-.04-.05-.06-.11-.08-.17l-1-3.6-.02-.06-.02.06-.92,3.6c-.02.08-.04.14-.08.18-.04.05-.1.09-.17.11-.08.03-.19.04-.32.05-.36.02-.71.02-1.07,0-.13,0-.24-.03-.31-.05-.07-.02-.13-.06-.17-.11-.04-.05-.06-.11-.08-.17l-1.56-5.36c-.04-.13-.06-.23-.08-.31,0-.07-.02-.13-.02-.18,0-.04,0-.09.03-.11.03-.03.07-.06.13-.08s.15-.03.26-.04c.1,0,.24,0,.41,0,.17,0,.32,0,.43,0,.11,0,.2.03.26.04.06.03.1.05.13.09s.04.09.05.14l1.17,4.35.02.08.02-.08,1.1-4.35c.02-.05.03-.1.06-.14.03-.03.07-.07.13-.09.06-.03.14-.03.24-.04.1,0,.24,0,.4,0s.3,0,.4.02.18.03.24.04c.06.02.1.04.12.08.03.03.04.07.05.11l1.18,4.38.02.07.02-.08,1.13-4.35c0-.05.03-.1.05-.14.03-.03.07-.07.13-.09.06-.03.15-.03.25-.04.1,0,.24,0,.4,0s.3,0,.4,0,.18.03.24.04c.06.02.1.04.12.08.03.03.03.06.03.1Zm10.21,0c0,.05,0,.1-.02.18-.02.07-.03.17-.07.31l-1.58,5.36c-.03.08-.05.14-.09.18-.04.05-.1.09-.17.11-.07.03-.17.04-.31.05-.35.02-.71.02-1.06,0-.14,0-.24-.03-.32-.05-.07-.02-.13-.06-.17-.11-.04-.05-.06-.11-.08-.17l-1-3.6-.02-.06-.02.06-.92,3.6c-.02.08-.04.14-.08.18-.04.05-.1.09-.17.11-.08.03-.19.04-.32.05-.36.02-.71.02-1.07,0-.13,0-.24-.03-.31-.05-.07-.02-.13-.06-.17-.11-.04-.05-.06-.11-.08-.17l-1.56-5.36c-.04-.13-.06-.23-.08-.31,0-.07-.02-.13-.02-.18,0-.04,0-.09.03-.11.03-.03.07-.06.13-.08s.15-.03.26-.04c.1,0,.24,0,.41,0,.17,0,.32,0,.43,0,.11,0,.2.03.26.04.06.03.1.05.13.09.03.03.04.09.05.14l1.17,4.35.02.08.02-.08,1.1-4.35c.02-.05.03-.1.06-.14.03-.03.07-.07.13-.09.06-.03.14-.03.24-.04.1,0,.24,0,.4,0s.3,0,.4.02.18.03.24.04c.06.02.1.04.12.08.03.03.04.07.05.11l1.18,4.38.02.07.02-.09,1.13-4.35c0-.05.03-.1.05-.14.03-.03.07-.07.13-.09.06-.03.15-.03.25-.04.1,0,.24,0,.4,0s.3,0,.4,0,.18.03.24.04c.06.02.1.04.12.08.03.03.03.07.03.11h0Z"/>
    <path class="cls-1" d="m49.98,32.97c0,.05,0,.1-.02.18-.02.07-.03.17-.07.31l-1.58,5.36c-.03.08-.05.14-.09.18-.04.05-.1.09-.17.11-.07.03-.17.04-.31.05-.35.02-.71.02-1.06,0-.14,0-.24-.03-.32-.05-.07-.02-.13-.06-.17-.11-.04-.05-.06-.11-.08-.17l-1-3.6-.02-.06-.02.06-.92,3.6c-.02.08-.04.14-.08.18-.04.05-.1.09-.17.11-.08.03-.19.04-.32.05-.36.02-.71.02-1.07,0-.13,0-.24-.03-.31-.05-.07-.02-.13-.06-.17-.11-.04-.05-.06-.11-.08-.17l-1.56-5.36c-.04-.13-.06-.23-.08-.31,0-.07-.02-.13-.02-.18,0-.04,0-.09.03-.11.03-.03.07-.06.13-.08s.15-.03.26-.04c.1,0,.24,0,.41,0,.17,0,.32,0,.43,0,.11,0,.2.03.26.04.06.03.1.05.13.09.03.03.04.09.05.14l1.17,4.35.02.08.02-.08,1.1-4.35c.02-.05.03-.1.06-.14.03-.03.07-.07.13-.09.06-.03.14-.03.24-.04.1,0,.24,0,.4,0s.3,0,.4.02.18.03.24.04c.06.02.1.04.12.08.03.03.04.07.05.11l1.18,4.38.02.07.02-.08,1.13-4.35c0-.05.03-.1.05-.14.03-.03.07-.07.13-.09.06-.03.15-.03.25-.04.1,0,.24,0,.4,0s.3,0,.4,0,.18.03.24.04c.06.02.1.04.12.08.03.03.03.06.03.1Z"/>
  </g>
</svg>