<?xml version="1.0" encoding="UTF-8"?>
<svg id="Screen" xmlns="http://www.w3.org/2000/svg" viewBox="0 0 70 70">
  <defs>
    <style>
      .cls-1 {
        fill: #fff;
      }

      .cls-2 {
        fill: #5138cc;
      }
    </style>
  </defs>
  <g id="Character">
    <rect class="cls-2" x="1.32" y="1.32" width="67.36" height="67.36" rx="12.09" ry="12.09"/>
  </g>
  <path class="cls-1" d="m54.28,45.16c-.45,0-.9.08-1.32.24l-7.5,2.88c-.39-1.07-1.4-1.78-2.54-1.78h-3.18c-1.81,0-3.61-.36-5.27-1.08-3.51-1.48-7.52-1.17-10.76.83l-1.7,1.06v-1.48c0-.37-.3-.67-.67-.67h-5.4c-.37,0-.67.3-.67.67v14.84c0,.37.3.67.67.67h5.4c.37,0,.67-.3.67-.67v-1.07l1.55-1.55c1.38-1.38,3.45-1.81,5.27-1.08l3.67,1.47c3.53,1.39,7.5,1.1,10.79-.8l12.41-7.24c1.34-.78,1.8-2.51,1.01-3.85-.5-.87-1.43-1.4-2.43-1.4Zm-33.61,14.84h-4.05v-13.49h4.05v13.49Zm34.35-10.76l-12.4,7.24c-2.93,1.69-6.47,1.95-9.61.71l-3.67-1.47c-2.32-.93-4.96-.38-6.72,1.38l-.59.59v-8.79l2.41-1.51c2.87-1.77,6.41-2.04,9.51-.73,1.83.79,3.81,1.19,5.8,1.19h3.18c.75,0,1.35.6,1.35,1.35s-.6,1.35-1.35,1.35h-8.77v1.35h8.77c1.3,0,2.42-.93,2.65-2.22l7.87-3.03c.27-.1.55-.15.83-.15.81,0,1.47.65,1.47,1.46,0,.52-.28,1.01-.73,1.27h0Z"/>
  <g>
    <path class="cls-1" d="m41.19,14.69c-7.37,0-13.3,5.93-13.3,13.3s5.93,13.3,13.3,13.3,13.3-5.93,13.3-13.3-5.93-13.3-13.3-13.3Zm0,24.66c-6.24,0-11.36-5.12-11.36-11.36s5.12-11.36,11.36-11.36,11.36,5.12,11.36,11.36-5.12,11.36-11.36,11.36Zm-12.59-20.87l4.09-4.09c.41-.41.41-1.02,0-1.43s-1.02-.41-1.43,0l-4.09,4.09c-.41.41-.41,1.02,0,1.43.21.21.41.31.71.31s.51-.1.71-.31h0Zm26.61-1.43l-4.09-4.09c-.41-.41-1.02-.41-1.43,0s-.41,1.02,0,1.43l4.09,4.09c.21.21.41.31.71.31s.51-.1.71-.31c.41-.41.41-1.02,0-1.43h0Z"/>
    <path class="cls-1" d="m49.27,29.02h-.1c-.51-.1-.92-.51-.92-1.02s.41-.92.92-1.02h1.23c-.51-4.3-3.89-7.67-8.19-8.19v1.23c-.1.51-.51.92-1.02.92s-.92-.41-1.02-.92v-1.23c-4.3.51-7.67,3.89-8.19,8.19h1.23c.51.1.92.51.92,1.02s-.41.92-.92,1.02h-1.23c.51,4.3,3.89,7.67,8.19,8.19v-1.23c.1-.51.51-.92,1.02-.92s.92.41,1.02.92v1.23c4.3-.51,7.67-3.89,8.19-8.19h-1.12q.07,0,0,0Zm-4.3-1.33c-.21.21-.41.31-.71.31s-.51-.1-.71-.31l-1.33-1.33v5.73c0,.51-.51,1.02-1.02,1.02s-1.02-.51-1.02-1.02v-5.73l-1.33,1.33c-.41.41-1.02.41-1.43,0s-.41-1.02,0-1.43l3.07-3.07c.1-.1.21-.21.31-.21.21-.1.51-.1.82,0,.1.1.21.1.31.21l3.07,3.07c.41.41.41,1.02,0,1.43h0Z"/>
  </g>
</svg>