<?xml version="1.0" encoding="UTF-8"?>
<svg id="Screen" xmlns="http://www.w3.org/2000/svg" viewBox="0 0 70 70">
  <defs>
    <style>
      .cls-1 {
        fill: #fff;
        stroke: #5835d2;
      }

      .cls-1, .cls-2 {
        stroke-miterlimit: 10;
      }

      .cls-2 {
        fill: none;
        stroke: #fff;
        stroke-width: .5px;
      }

      .cls-3 {
        fill: #eae5ff;
      }

      .cls-4 {
        fill: #d58048;
      }

      .cls-5 {
        fill: #5835d2;
      }
    </style>
  </defs>
  <rect class="cls-5" x="1.32" y="1.32" width="67.36" height="67.36" rx="12.09" ry="12.09"/>
  <g>
    <path class="cls-3" d="m28.55,46.28c1.26.84,2.68,1.4,4.17,1.65,4.4.94,8.97-.48,12.07-3.73,1.98-1.97,3.26-4.53,3.65-7.29.47-3.22-.27-6.5-2.08-9.2q-.35-.52.09-.87c.24-.33.54-.62.87-.87.26-.35.35-.35.69.09,1.3,1.81,2.19,3.88,2.6,6.08.54,2.92.24,5.93-.87,8.68-2.02,5.03-6.54,8.63-11.89,9.46-3.92.68-7.95-.23-11.2-2.52l-.35-.26h-.17l-1.04.61-.61.17c-.46.16-.98.02-1.3-.35-.29-.42-.29-.97,0-1.39l.87-.95-.52-.69c-5.16-6.07-4.82-15.08.78-20.75,2.26-2.33,5.21-3.89,8.42-4.43,3.16-.53,6.4-.08,9.29,1.3l.35.17c.17.09.35.26.35.35s-.17.26-.26.35l-1.56.78c-.23.15-.52.18-.78.09-1.27-.54-2.62-.86-3.99-.95-6.64-.41-12.54,4.21-13.72,10.76-.81,3.91.29,7.97,2.95,10.94l.26.35,5.9-5.9-2.17-1.22-3.21-1.91c-.67-.27-.99-1.03-.72-1.7.03-.07.07-.15.11-.21.17-.34.44-.61.78-.78l6.25-3.3,13.02-6.86c.32-.19.67-.31,1.04-.35.62-.02,1.15.46,1.17,1.09,0,.2-.04.39-.13.56l-.52.69-7.55,7.47-.52.43.69.52,4.6,2.6.26.17c.7.32,1,1.15.67,1.85-.14.3-.38.53-.67.67l-2.26,1.22-12.85,6.77-.95.61Z"/>
    <path class="cls-4" d="m46.82,22.63h-.43l-.43.17-19.1,10.07c-.26.17-.61.26-.61.69s.35.52.61.69l5.38,3.13c.33.07.54.39.48.71-.04.18-.15.33-.3.41l-.26.35-7.81,7.81-.26.26c-.11.12-.17.27-.17.43h.69l4.08-2.17,15.19-8.16c.26-.17.52-.26.52-.69s-.26-.43-.52-.52l-3.3-2c-.75-.35-1.48-.76-2.17-1.22-.52-.26-.61-.69-.26-1.04l.26-.35,7.9-7.81.35-.43.17-.35Z"/>
    <path class="cls-1" d="m46.82,22.8l-.17.35-.35.43-7.9,7.81-.26.35c-.35.35-.26.78.26,1.04.69.46,1.42.86,2.17,1.22l3.3,2c.26.09.52.17.52.52s-.26.52-.52.69l-15.19,7.99-4.08,2.17h-.69c0-.16.07-.31.17-.43l.26-.26,7.81-7.81.26-.35c.29-.16.4-.53.24-.83-.09-.16-.24-.27-.41-.3l-5.38-3.13c-.26-.17-.69-.26-.61-.69s.35-.52.61-.69l19.1-10.07.43-.17.43.17Z"/>
    <path class="cls-2" d="m52.68,26.8c0,.22.07.44.23.61.17.2.42.32.68.3h12.14c.5.04.94-.33.98-.83,0-.03,0-.05,0-.08-.04-.53-.46-.95-.99-.99h-12.14c-.5,0-.91.4-.91.91,0,.03,0,.05,0,.08Z"/>
    <rect class="cls-2" x="57.3" y="35" width="9.94" height="1.88" rx=".91" ry=".91"/>
    <rect class="cls-2" x="51.69" y="42.64" width="6.07" height="1.88" rx=".91" ry=".91"/>
    <rect class="cls-2" x="56.7" y="46.95" width="9.94" height="1.88" rx=".91" ry=".91"/>
    <circle class="cls-2" cx="55.03" cy="32.18" r=".91"/>
    <circle class="cls-2" cx="60.76" cy="40.55" r=".91"/>
    <path class="cls-2" d="m3.75,26.36c0,.22.07.44.23.61.17.2.42.32.68.3h12.14c.5.04.94-.33.98-.83,0-.03,0-.05,0-.08-.04-.53-.46-.95-.99-.99H4.66c-.5,0-.91.4-.91.91,0,.03,0,.05,0,.08Z"/>
    <rect class="cls-2" x="8.37" y="34.56" width="9.94" height="1.88" rx=".91" ry=".91"/>
    <rect class="cls-2" x="2.76" y="42.2" width="6.07" height="1.88" rx=".91" ry=".91"/>
    <rect class="cls-2" x="7.77" y="46.51" width="9.94" height="1.88" rx=".91" ry=".91"/>
    <circle class="cls-2" cx="6.1" cy="31.74" r=".91"/>
    <circle class="cls-2" cx="11.83" cy="40.11" r=".91"/>
  </g>
</svg>