<?xml version="1.0" encoding="UTF-8"?>
<svg id="Screen" xmlns="http://www.w3.org/2000/svg" viewBox="0 0 70 70">
  <defs>
    <style>
      .cls-1, .cls-2 {
        fill: #fff;
      }

      .cls-3 {
        fill: #6b46f2;
      }

      .cls-4, .cls-5 {
        stroke: #fff;
      }

      .cls-4, .cls-5, .cls-2 {
        stroke-miterlimit: 10;
      }

      .cls-4, .cls-6 {
        fill: #5138cc;
      }

      .cls-7 {
        fill: #6963fa;
      }

      .cls-8 {
        fill: #eae5ff;
      }

      .cls-5 {
        fill: none;
        stroke-width: .25px;
      }

      .cls-2 {
        stroke: #5138cc;
      }
    </style>
  </defs>
  <g id="Character">
    <rect class="cls-6" x="1.32" y="1.32" width="67.36" height="67.36" rx="12.09" ry="12.09"/>
  </g>
  <g>
    <path class="cls-1" d="m58.43,32H25.47c-.55,0-.99-.44-.99-.99v-11.12c0-.55.44-.99.99-.99h32.96c.55,0,.99.44.99.99v11.12c0,.55-.44.99-.99.99Z"/>
    <rect class="cls-3" x="29.64" y="21.88" width="8.74" height=".99"/>
    <circle class="cls-7" cx="49.89" cy="22.47" r=".6"/>
    <circle class="cls-7" cx="51.88" cy="22.47" r=".6"/>
    <circle class="cls-7" cx="53.86" cy="22.47" r=".6"/>
    <path class="cls-1" d="m58.43,47.32H25.47c-.55,0-.99-.44-.99-.99v-11.12c0-.55.44-.99.99-.99h32.96c.55,0,.99.44.99.99v11.12c0,.55-.44.99-.99.99Z"/>
    <rect class="cls-3" x="29.64" y="37.2" width="8.74" height=".99"/>
    <circle class="cls-7" cx="49.89" cy="37.79" r=".6"/>
    <circle class="cls-7" cx="51.88" cy="37.79" r=".6"/>
    <circle class="cls-7" cx="53.86" cy="37.79" r=".6"/>
    <rect class="cls-8" x="41.1" y="49.11" width="2.56" height="8.71"/>
    <rect class="cls-8" x="41.78" y="50.13" width="1.75" height="14.48" transform="translate(-14.72 100.03) rotate(-90)"/>
    <g>
      <path class="cls-5" d="m9.31,17.69c0,.16.05.32.17.45.13.15.31.24.5.22h8.95c.37.03.69-.24.72-.61v-.06c-.03-.39-.34-.7-.73-.73h-8.95c-.37,0-.67.29-.67.67v.06h0Z"/>
      <rect class="cls-5" x="12.71" y="23.74" width="7.33" height="1.39" rx=".67" ry=".67"/>
      <rect class="cls-5" x="8.58" y="29.37" width="4.48" height="1.39" rx=".67" ry=".67"/>
      <rect class="cls-5" x="12.27" y="32.55" width="7.33" height="1.39" rx=".67" ry=".67"/>
      <circle class="cls-5" cx="11.04" cy="21.66" r=".67"/>
      <circle class="cls-5" cx="15.26" cy="27.83" r=".67"/>
    </g>
    <circle class="cls-4" cx="25.27" cy="25.45" r="9.7"/>
    <path class="cls-2" d="m33.11,16.56l-.12.24-.24.29-5.41,5.35-.18.24c-.24.24-.18.53.18.71.47.31.97.59,1.49.84l2.26,1.37c.18.06.36.12.36.36s-.18.36-.36.47l-10.4,5.47-2.79,1.49h-.47c0-.11.05-.21.12-.29l.18-.18,5.35-5.35.18-.24c.2-.11.27-.36.16-.57-.06-.11-.16-.18-.28-.21l-3.68-2.14c-.18-.12-.47-.18-.42-.47s.24-.36.42-.47l13.07-6.89.29-.12.29.12h0Z"/>
  </g>
</svg>