<?xml version="1.0" encoding="UTF-8"?>
<svg id="Screen" xmlns="http://www.w3.org/2000/svg" viewBox="0 0 70 70">
  <defs>
    <style>
      .cls-1 {
        fill: #fff;
      }

      .cls-2 {
        fill: #5138cc;
      }
    </style>
  </defs>
  <g id="Character">
    <rect class="cls-2" x="1.32" y="1.32" width="67.36" height="67.36" rx="12.09" ry="12.09"/>
  </g>
  <g>
    <rect x="34.8" y="14.65" width=".92" height="1.19"/>
    <rect x="34.8" y="54.19" width=".92" height="1.19"/>
    <rect x="45.91" y="18.48" width="1.2" height=".93" transform="translate(4.03 45.74) rotate(-54.4)"/>
    <rect x="22.91" y="50.65" width="1.2" height=".93" transform="translate(-31.74 40.48) rotate(-54.4)"/>
    <rect x="53.18" y="28.02" width="1.2" height=".93" transform="translate(-6.17 18.01) rotate(-18)"/>
    <rect x="15.55" y="40.28" width="1.2" height=".93" transform="translate(-11.8 6.98) rotate(-18)"/>
    <rect x="53.34" y="39.99" width=".92" height="1.19" transform="translate(-1.22 79.5) rotate(-72.3)"/>
    <rect x="15.74" y="27.92" width=".92" height="1.19" transform="translate(-15.89 35.28) rotate(-72.3)"/>
    <rect x="46.09" y="50.02" width=".92" height="1.19" transform="translate(-20.56 35.62) rotate(-34.8)"/>
    <rect class="cls-1" x="34.8" y="50.04" width=".92" height="2.5"/>
    <rect class="cls-1" x="34.8" y="45.97" width=".92" height="2.5"/>
    <rect class="cls-1" x="34.8" y="21.51" width=".92" height="2.5"/>
    <rect class="cls-1" x="34.8" y="17.44" width=".92" height="2.5"/>
    <rect class="cls-1" x="40.72" y="24.72" width="2.5" height=".93" transform="translate(-2.94 44.64) rotate(-54.4)"/>
    <rect class="cls-1" x="43.15" y="21.36" width="2.5" height=".93" transform="translate(.81 45.22) rotate(-54.4)"/>
    <rect class="cls-1" x="24.09" y="47.84" width="2.5" height=".93" transform="translate(-28.68 40.79) rotate(-54.4)"/>
    <rect class="cls-1" x="26.68" y="44.51" width="2.51" height=".93" transform="translate(-24.9 41.51) rotate(-54.4)"/>
    <rect class="cls-1" x="49.25" y="29.14" width="2.51" height=".93" transform="translate(-6.68 17.06) rotate(-18)"/>
    <rect class="cls-1" x="45.41" y="30.42" width="2.51" height=".93" transform="translate(-7.26 15.93) rotate(-18)"/>
    <rect class="cls-1" x="22.07" y="37.94" width="2.51" height=".93" transform="translate(-10.73 9.09) rotate(-18)"/>
    <rect class="cls-1" x="18.22" y="39.22" width="2.51" height=".93" transform="translate(-11.31 7.96) rotate(-18)"/>
    <rect class="cls-1" x="46.17" y="37.02" width=".92" height="2.5" transform="translate(-4 71.06) rotate(-72.3)"/>
    <rect class="cls-1" x="22.84" y="29.58" width=".92" height="2.5" transform="translate(-13.15 43.65) rotate(-72.3)"/>
    <rect class="cls-1" x="18.96" y="28.35" width=".92" height="2.5" transform="translate(-14.68 39.1) rotate(-72.3)"/>
    <rect class="cls-1" x="50.04" y="38.31" width=".92" height="2.5" transform="translate(-2.53 75.64) rotate(-72.3)"/>
    <rect class="cls-1" x="27.81" y="23.1" width=".92" height="2.5" transform="translate(-8.84 20.49) rotate(-34.8)"/>
    <rect class="cls-1" x="41.74" y="43.17" width=".92" height="2.5" transform="translate(-17.8 32.03) rotate(-34.8)"/>
    <rect class="cls-1" x="44.06" y="46.61" width=".92" height="2.5" transform="translate(-19.35 33.97) rotate(-34.8)"/>
    <rect class="cls-1" x="25.46" y="19.81" width=".92" height="2.5" transform="translate(-7.38 18.56) rotate(-34.8)"/>
    <rect x="23.39" y="17.56" width=".92" height="1.19" transform="translate(-6.09 16.86) rotate(-34.8)"/>
    <path class="cls-1" d="m35,20.08c-8.04,0-14.56,6.52-14.56,14.56s6.52,14.56,14.56,14.56,14.56-6.52,14.56-14.56h0c-.02-8.03-6.53-14.54-14.56-14.56Zm0,28.41c-7.65,0-13.85-6.2-13.85-13.85,0-7.65,6.2-13.85,13.85-13.85,7.65,0,13.85,6.2,13.85,13.85h0c0,7.65-6.2,13.85-13.85,13.85,0,0,0,0,0,0Z"/>
    <path class="cls-1" d="m44.58,35.92l-1.32-.4-.2-.24v-1.28c0-.11.09-.2.2-.2h0l1.32-.44c.36-.16.48-.36.36-.72l-.68-2c-.12-.44-.32-.56-.76-.44l-1.24.44c-.2,0-.28,0-.36-.16-.18-.34-.41-.65-.68-.92-.09-.1-.09-.26,0-.36l.76-1.08c.24-.36.24-.64-.12-.84l-1.6-1.16c-.48-.36-.72-.28-1.04.16l-.8,1.12-1.28-.4c-.24-.08-.32-.16-.32-.36.04-.41.04-.83,0-1.24,0-.4-.12-.64-.56-.64h-2c-.35-.05-.67.2-.72.55,0,.06,0,.11,0,.17v1.44l-1.48.48-.24-.28-.72-1c-.16-.24-.48-.31-.72-.15-.01,0-.03.02-.04.03l-1.8,1.28c-.36.28-.36.56-.08.92l.88,1.16-.8,1.12c-.09.11-.22.17-.36.16l-1.28-.44c-.25-.12-.55,0-.68.24,0,.04-.04.08-.04.12l-.64,2c-.16.44-.08.64.36.8l1.2.44c.24,0,.24.04.24.28v1.2c0,.16,0,.24-.16.24l-1.28.4c-.3.06-.5.35-.44.65,0,0,0,.02,0,.03h0c.24.72.52,1.44.72,2.07.07.3.37.48.67.41.01,0,.03,0,.04-.01h.08l1.2-.36c.08-.08.2,0,.28,0l.88,1.2-.96,1.24c-.2.24-.17.59.07.79,0,0,0,0,.01.01h.08l1.64,1.28c.44.28.64.2,1-.24.3-.35.57-.72.8-1.12l1.36.4c.2.08.2.16.2.32v1.36c-.02.27.17.52.44.56h2.27c.44,0,.56-.24.56-.64.04-.42.04-.85,0-1.28,0-.16.08-.24.24-.32l1.12-.36c.13-.03.26,0,.36.08.24.4.51.79.8,1.16.12.24.4.34.64.22.01,0,.03-.01.04-.02l.12-.08,1.72-1.28c.36-.2.36-.48.12-.84l-.76-1.08v-.28l.68-1c.08-.16.16-.16.36-.16l1.16.44c.52.16.72,0,.84-.44l.68-2c.12-.36,0-.56-.36-.72Zm-9.38,2.43c-2.05,0-3.71-1.66-3.71-3.71s1.66-3.71,3.71-3.71,3.71,1.66,3.71,3.71-1.66,3.71-3.71,3.71h0Z"/>
    <path class="cls-1" d="m35.2,33.28c-.72.06-1.3.63-1.36,1.36,0,.75.61,1.36,1.36,1.36h0c.7.05,1.31-.49,1.36-1.19,0,0,0,0,0,0v-.16c0-.75-.61-1.36-1.36-1.36h0Z"/>
    <circle class="cls-1" cx="35.2" cy="14.65" r="2"/>
    <circle class="cls-1" cx="46.65" cy="18.44" r="2"/>
    <circle class="cls-1" cx="54.47" cy="28.22" r="2"/>
    <circle class="cls-1" cx="54.55" cy="40.71" r="2"/>
    <circle class="cls-1" cx="35.2" cy="55.35" r="2"/>
    <circle class="cls-1" cx="23.07" cy="51.64" r="2"/>
    <circle class="cls-1" cx="15.53" cy="41.07" r="2"/>
    <circle class="cls-1" cx="15.45" cy="28.22" r="2"/>
    <circle class="cls-1" cx="23.51" cy="17.64" r="2"/>
    <circle class="cls-1" cx="46.97" cy="51.12" r="2"/>
  </g>
</svg>