<?xml version="1.0" encoding="UTF-8"?>
<svg id="Screen" xmlns="http://www.w3.org/2000/svg" viewBox="0 0 70 70">
  <defs>
    <style>
      .cls-1 {
        font-family: Raleway-Bold, Raleway;
        font-size: 1.75px;
        font-weight: 700;
      }

      .cls-1, .cls-2, .cls-3, .cls-4 {
        fill: #5138cc;
      }

      .cls-1, .cls-5 {
        isolation: isolate;
      }

      .cls-6 {
        letter-spacing: 0em;
      }

      .cls-7 {
        fill: none;
        stroke: #eae5ff;
      }

      .cls-7, .cls-2, .cls-3 {
        stroke-miterlimit: 10;
      }

      .cls-8 {
        fill: #dedede;
      }

      .cls-2, .cls-3 {
        stroke: #fff;
      }

      .cls-3 {
        stroke-width: .25px;
      }

      .cls-9 {
        fill: #e7e3fd;
      }

      .cls-5 {
        fill: #fff;
        opacity: .31;
      }

      .cls-10 {
        fill: #eae5ff;
      }
    </style>
  </defs>
  <g id="Character">
    <rect class="cls-4" x="1.32" y="1.32" width="67.36" height="67.36" rx="12.09" ry="12.09"/>
  </g>
  <ellipse class="cls-5" cx="18.94" cy="54.63" rx="7.45" ry=".74"/>
  <g>
    <g>
      <g>
        <path class="cls-9" d="m23.48,21.72l-1.77-.23c-.33-.04-.62.19-.67.51l-.23,1.77c-.04.33.19.62.51.67l1.77.23c.33.04.62-.19.67-.51l.23-1.77c.04-.33-.19-.62-.51-.67Zm-3.54-.46l-4.72-.61c-.33-.04-.62.19-.67.51l-.23,1.77c-.04.33.19.62.51.67l4.72.61c.33.04.62-.19.67-.51l.23-1.77c.04-.33-.19-.62-.51-.67Z"/>
        <path class="cls-2" d="m23.84,23.56l-9.43-1.22-3.81,29.48c-.04.33.19.62.51.67l2.43.31c.25.03.52-.08.64-.31.23-.45.71-.72,1.21-.65s.9.44,1.01.94c.05.25.28.43.54.46l2.22.29c.55.07.84-.16.88-.48l3.81-29.48Z"/>
        <path class="cls-8" d="m20.95,27.39l-4.72-.61c-.33-.04-.62.19-.67.51l-.61,4.72c-.04.33.19.62.51.67l4.72.61c.33.04.62-.19.67-.51l.61-4.72c.04-.33-.19-.62-.51-.67Zm-7.39,20.03c-.33-.04-.56-.34-.51-.67l1.45-11.2c.04-.33.34-.56.67-.51s.56.34.51.67l-1.45,11.2c-.04.33-.34.56-.67.51Zm6.32-11.77l-2.36-.31c-.33-.04-.62.19-.67.51l-1.45,11.2c-.04.33.19.62.51.67l2.36.31c.33.04.62-.19.67-.51l1.45-11.2c.04-.33-.19-.62-.51-.67Zm-3.46-1.05l-1.18-.15c-.33-.04-.56-.34-.51-.67s.34-.56.67-.51l1.18.15c.33.04.56.34.51.67s-.34.56-.67.51Z"/>
        <path class="cls-9" d="m11.05,48.29l-.46,3.54c-.04.33.19.62.51.67l2.47.32c.25.03.49-.1.61-.32.23-.45.71-.71,1.21-.64s.9.44,1,.93c.05.25.26.43.5.46l2.47.32c.33.04.62-.19.67-.51l.46-3.54-9.43-1.22Z"/>
        <circle class="cls-8" cx="18.27" cy="34.23" r=".59"/>
        <circle class="cls-8" cx="20.04" cy="34.46" r=".59"/>
      </g>
      <text class="cls-1" transform="translate(18.05 46.22) rotate(-82.85)"><tspan x="0" y="0">NV</tspan><tspan class="cls-6" x="2.52" y="0">M</tspan><tspan x="4.01" y="0">e SSD</tspan></text>
    </g>
    <circle class="cls-8" cx="17.03" cy="25.29" r=".59"/>
    <circle class="cls-8" cx="18.8" cy="25.52" r=".59"/>
    <circle class="cls-8" cx="20.57" cy="25.75" r=".59"/>
  </g>
  <g>
    <g>
      <g>
        <path class="cls-7" d="m58.44,29.74H26.31c-.53,0-.97-.43-.97-.97v-10.84c0-.53.43-.97.97-.97h32.13c.53,0,.97.43.97.97v10.84c0,.53-.43.97-.97.97Z"/>
        <rect class="cls-10" x="30.37" y="19.86" width="8.52" height=".97"/>
        <circle class="cls-10" cx="50.12" cy="20.44" r=".58"/>
        <circle class="cls-10" cx="52.05" cy="20.44" r=".58"/>
        <circle class="cls-10" cx="53.99" cy="20.44" r=".58"/>
        <path class="cls-7" d="m58.44,44.67H26.31c-.53,0-.97-.43-.97-.97v-10.84c0-.53.43-.97.97-.97h32.13c.53,0,.97.43.97.97v10.84c0,.53-.43.97-.97.97Z"/>
        <rect class="cls-10" x="30.37" y="34.8" width="8.52" height=".97"/>
        <circle class="cls-10" cx="50.12" cy="35.38" r=".58"/>
        <circle class="cls-10" cx="52.05" cy="35.38" r=".58"/>
        <circle class="cls-10" cx="53.99" cy="35.38" r=".58"/>
        <rect class="cls-10" x="41.54" y="46.42" width="2.49" height="8.49"/>
      </g>
      <rect class="cls-10" x="42.21" y="47.41" width="1.71" height="14.11" transform="translate(-11.41 97.53) rotate(-90)"/>
    </g>
    <circle class="cls-3" cx="43.06" cy="54.47" r="2.01"/>
  </g>
</svg>