<?xml version="1.0" encoding="UTF-8"?>
<svg id="Screen" xmlns="http://www.w3.org/2000/svg" viewBox="0 0 70 70">
  <defs>
    <style>
      .cls-1 {
        font-family: Raleway-Bold, Raleway;
        font-size: 5.17px;
        font-weight: 700;
      }

      .cls-1, .cls-2, .cls-3 {
        fill: #fff;
      }

      .cls-1, .cls-4, .cls-3 {
        isolation: isolate;
      }

      .cls-2 {
        fill-rule: evenodd;
      }

      .cls-3 {
        opacity: .31;
      }

      .cls-5 {
        letter-spacing: 0em;
      }

      .cls-6 {
        fill: #5138cc;
      }
    </style>
  </defs>
  <g id="Character">
    <rect class="cls-6" x="1.32" y="1.32" width="67.36" height="67.36" rx="12.09" ry="12.09"/>
    <ellipse class="cls-3" cx="22.9" cy="62.88" rx="10.52" ry="1.06"/>
    <path class="cls-2" d="m17.98,44.4h0c-.34-.22-.79-.14-1.02.2-.17.25-.17.57,0,.82h.04c.13.13.31.21.49.21.19,0,.36-.07.49-.21.38,0,.7-.12.7-.51s-.32-.7-.7-.7v.2h0Zm0,0h0c-.34-.22-.79-.14-1.02.2-.17.25-.17.57,0,.82h.04c.13.13.31.21.49.21.19,0,.36-.07.49-.21.38,0,.7-.12.7-.51s-.32-.7-.7-.7v.2h0Zm45.15-21.08c-.03-.1-.08-.21-.16-.28l-5.46-5.46-.53.49c-.14.17-.33.29-.53.37l-.69.08c-.27-.03-.53-.09-.78-.21-.24-.08-.47-.22-.66-.4-.19-.19-.34-.41-.45-.66-.09-.24-.15-.51-.16-.78,0-.24,0-.5.08-.73l.33-.53.53-.49-.21-.16-1.1-1.14c-1.47-1.51-3.71-3.83-4.2-4.16l-.24-.16-.33-.08-.33.08-.24.16L12.93,44.36c-.07.07-.13.18-.16.28-.05.08-.07.19-.08.28,0,.11.03.22.08.33.04.1.09.2.16.28l.53.53-2.85,2.85c-.23.25-.23.65,0,.9l2.36,2.36c.21.2.52.2.73,0l.45-.4c.11-.13.27-.21.45-.21.17,0,.33.08.45.21.22.26.22.64,0,.9l-.45.4c-.2.21-.2.52,0,.73l7.82,7.78c.21.27.59.33.85.12.05-.04.08-.07.12-.12l2.81-2.77.49.49.28.16.28.08.33-.08.28-.16L62.97,24.23c.07-.07.13-.18.16-.28.05-.1.07-.22.08-.33,0-.1-.04-.2-.08-.28h0Zm-46.82,20.4c.31-.32.74-.5,1.18-.49.43,0,.85.17,1.14.49.32.31.5.74.49,1.18,0,.43-.18.84-.49,1.14-.3.32-.71.5-1.14.49-.44,0-.87-.17-1.18-.49-.31-.3-.49-.71-.49-1.14s.17-.87.49-1.18Zm6.6,16.91l-1.02-.97,1.79-1.79-.69-.73-1.79,1.79-.9-.85,1.79-1.79-.73-.73-1.75,1.79-.9-.85,1.79-1.79-.73-.73-1.79,1.79-.94-.94,1.79-1.79-.69-.73-1.79,1.79-.66-.66v-.08c.32-.3.5-.71.49-1.14,0-.44-.17-.87-.49-1.18-.3-.31-.71-.49-1.14-.49s-.87.17-1.18.49l-.08.08-.4-.4,1.79-1.79-.69-.73-1.79,1.79-.61-.61,2.6-2.6,11.29,11.33-2.57,2.57v-.03ZM56.08,25.61l-26.81,26.77c-.1.14-.31.18-.46.07,0,0-.02-.02-.04-.03h0l-8.76-8.81c-.12-.14-.12-.35,0-.49l26.77-26.77c.14-.12.35-.12.49,0l8.81,8.76c.12.14.13.35,0,.49h0Zm-39.07,19.81c.13.13.31.21.49.21.19,0,.36-.07.49-.21.27-.28.27-.73,0-1.02h0c-.34-.22-.79-.14-1.02.2-.17.25-.17.57,0,.82h.05Z"/>
    <g class="cls-4">
      <text class="cls-1" transform="translate(30.36 44.94) rotate(-44.95)"><tspan x="0" y="0">NV</tspan><tspan class="cls-5" x="7.44" y="0">M</tspan><tspan x="11.87" y="0">e SSD</tspan></text>
    </g>
  </g>
</svg>