<?xml version="1.0" encoding="UTF-8"?>
<svg id="Screen" xmlns="http://www.w3.org/2000/svg" viewBox="0 0 70 70">
  <defs>
    <style>
      .cls-1 {
        fill: #dedede;
      }

      .cls-2 {
        stroke: #fff;
        stroke-miterlimit: 10;
      }

      .cls-2, .cls-3, .cls-4 {
        fill: #5138cc;
      }

      .cls-5 {
        fill: #e7e3fd;
      }

      .cls-3 {
        font-family: Raleway-Bold, Raleway;
        font-size: 2.61px;
        font-weight: 700;
      }

      .cls-3, .cls-6 {
        isolation: isolate;
      }

      .cls-6 {
        fill: #fff;
        fill-rule: evenodd;
        opacity: .31;
      }

      .cls-7 {
        letter-spacing: 0em;
      }
    </style>
  </defs>
  <g id="Character">
    <rect class="cls-4" x="1.32" y="1.32" width="67.36" height="67.36" rx="12.09" ry="12.09"/>
  </g>
  <path class="cls-6" d="m33.89,57.74h3.18c1.12,0,2-.89,2-1.96h0c0-1.13-.89-2.02-2-2.02h-3.18c-1.06,0-2-.95-2-2.03h0c0-1.13.94-2.03,2-2.03h25.56c1.06,0,1.95.9,1.95,2.03h0c0,1.08-.88,2.03-1.95,2.03h-8.42c-1.12,0-2,.89-2,2.02h0c0,1.08.88,1.96,2,1.96h1c1.12,0,2,.95,2,2.03h0c0,1.13-.89,2.03-2,2.03h-18.14c-1.06,0-2-.89-2-2.03h0c0-1.08.94-2.03,2-2.03h0Z"/>
  <path class="cls-6" d="m12.38,21.26h3.18c1.12,0,2-.89,2-1.96h0c0-1.13-.89-2.02-2-2.02h-3.18c-1.06,0-2-.95-2-2.03h0c0-1.13.94-2.03,2-2.03h25.56c1.06,0,1.95.9,1.95,2.03h0c0,1.08-.88,2.03-1.95,2.03h-8.42c-1.12,0-2,.89-2,2.02h0c0,1.08.88,1.96,2,1.96h1c1.12,0,2,.95,2,2.03h0c0,1.13-.89,2.03-2,2.03H12.38c-1.06,0-2-.89-2-2.03h0c0-1.08.94-2.03,2-2.03h0Z"/>
  <g>
    <g>
      <g>
        <path class="cls-5" d="m41.66,13.23h-2.67c-.49,0-.89.4-.89.89v2.67c0,.49.4.89.89.89h2.67c.49,0,.89-.4.89-.89v-2.67c0-.49-.4-.89-.89-.89Zm-5.33,0h-7.11c-.49,0-.89.4-.89.89v2.67c0,.49.4.89.89.89h7.11c.49,0,.89-.4.89-.89v-2.67c0-.49-.4-.89-.89-.89Z"/>
        <path class="cls-2" d="m42.55,15.9h-14.22v44.42c0,.49.4.89.89.89h3.67c.38,0,.76-.22.88-.58.25-.72.92-1.2,1.67-1.2s1.42.48,1.67,1.2c.13.36.5.58.88.58h3.34c.82,0,1.22-.4,1.22-.89V15.9Z"/>
        <path class="cls-1" d="m39,22.12h-7.11c-.49,0-.89.4-.89.89v7.11c0,.49.4.89.89.89h7.11c.49,0,.89-.4.89-.89v-7.11c0-.49-.4-.89-.89-.89Zm-7.11,31.1c-.49,0-.89-.4-.89-.89v-16.88c0-.49.4-.89.89-.89s.89.4.89.89v16.88c0,.49-.4.89-.89.89Zm7.11-18.66h-3.55c-.49,0-.89.4-.89.89v16.88c0,.49.4.89.89.89h3.55c.49,0,.89-.4.89-.89v-16.88c0-.49-.4-.89-.89-.89Zm-5.33-.89h-1.78c-.49,0-.89-.4-.89-.89s.4-.89.89-.89h1.78c.49,0,.89.4.89.89s-.4.89-.89.89Z"/>
        <path class="cls-5" d="m28.34,54.99v5.33c0,.49.4.89.89.89h3.72c.38,0,.71-.24.84-.59.25-.71.92-1.19,1.67-1.19s1.41.48,1.67,1.19c.13.35.46.59.84.59h3.72c.49,0,.89-.4.89-.89v-5.33h-14.22Z"/>
        <circle class="cls-1" cx="36.33" cy="32.78" r=".89"/>
        <circle class="cls-1" cx="39" cy="32.78" r=".89"/>
      </g>
      <text class="cls-3" transform="translate(38.31 50.59) rotate(-90.22)"><tspan x="0" y="0">NV</tspan><tspan class="cls-7" x="3.76" y="0">M</tspan><tspan x="6" y="0">e SSD</tspan></text>
    </g>
    <circle class="cls-1" cx="32.78" cy="19.76" r=".89"/>
    <circle class="cls-1" cx="35.44" cy="19.76" r=".89"/>
    <circle class="cls-1" cx="38.11" cy="19.76" r=".89"/>
  </g>
</svg>