<?xml version="1.0" encoding="UTF-8"?>
<svg id="Screen" xmlns="http://www.w3.org/2000/svg" viewBox="0 0 70 70">
  <defs>
    <style>
      .cls-1 {
        fill-rule: evenodd;
      }

      .cls-1, .cls-2, .cls-3 {
        fill: #fff;
      }

      .cls-2 {
        font-family: Raleway-Bold, Raleway;
        font-size: 5.52px;
        font-weight: 700;
      }

      .cls-3 {
        isolation: isolate;
        opacity: .31;
      }

      .cls-4 {
        fill: #5835d2;
      }
    </style>
  </defs>
  <rect class="cls-4" x="1.32" y="1.32" width="67.36" height="67.36" rx="12.09" ry="12.09"/>
  <ellipse class="cls-3" cx="20.2" cy="64.27" rx="11.23" ry="1.13"/>
  <path class="cls-1" d="m14.95,44.54h0c-.36-.24-.84-.15-1.09.21-.18.27-.18.61,0,.88h.04c.14.14.33.22.52.22.2,0,.38-.08.52-.22.41,0,.75-.13.75-.54,0-.41-.34-.75-.75-.75v.21Zm0,0h0c-.36-.24-.84-.15-1.09.21-.18.27-.18.61,0,.88h.04c.14.14.33.22.52.22.2,0,.38-.08.52-.22.41,0,.75-.13.75-.54,0-.41-.34-.75-.75-.75v.21Zm48.2-22.49c-.03-.11-.09-.22-.17-.3l-5.83-5.83-.57.52c-.15.18-.35.31-.57.39l-.74.09c-.29-.03-.57-.1-.83-.22-.26-.09-.5-.24-.7-.43-.2-.2-.36-.44-.48-.7-.1-.26-.16-.54-.17-.83-.01-.26.01-.53.09-.78l.35-.57.57-.52-.22-.17-1.17-1.22c-1.57-1.61-3.96-4.09-4.48-4.44l-.26-.17-.35-.09-.35.09-.26.17L9.56,44.5c-.08.08-.14.19-.17.3-.05.09-.08.2-.09.3,0,.12.03.24.09.35.04.11.1.21.17.3l.57.57-3.04,3.04c-.25.27-.25.69,0,.96l2.52,2.52c.22.21.56.21.78,0l.48-.43c.12-.14.29-.22.48-.22.18,0,.35.09.48.22.23.28.23.68,0,.96l-.48.43c-.21.22-.21.56,0,.78l8.35,8.31c.22.29.63.35.91.13.05-.04.09-.08.13-.13l3-2.96.52.52.3.17.3.09.35-.09.3-.17L62.97,23.01c.08-.08.14-.19.17-.3.05-.11.08-.23.09-.35,0-.11-.04-.21-.09-.3ZM13.17,43.84c.33-.34.79-.53,1.26-.52.46-.01.91.18,1.22.52.34.33.53.79.52,1.26,0,.46-.19.9-.52,1.22-.32.34-.76.53-1.22.52-.47,0-.93-.18-1.26-.52-.33-.32-.52-.76-.52-1.22,0-.47.18-.93.52-1.26Zm7.05,18.05l-1.09-1.04,1.91-1.91-.74-.78-1.91,1.91-.96-.91,1.91-1.91-.78-.78-1.87,1.91-.96-.91,1.91-1.91-.78-.78-1.91,1.91-1-1,1.91-1.91-.74-.78-1.91,1.91-.7-.7v-.09c.34-.32.53-.76.52-1.22,0-.47-.18-.93-.52-1.26-.32-.33-.76-.52-1.22-.52-.47,0-.93.18-1.26.52l-.09.09-.43-.43,1.91-1.91-.74-.78-1.91,1.91-.65-.65,2.78-2.78,12.05,12.09-2.74,2.74ZM55.62,24.49l-28.62,28.58c-.11.15-.33.19-.49.07-.01,0-.02-.02-.04-.03h0l-9.35-9.4c-.13-.15-.13-.37,0-.52l28.58-28.58c.15-.13.37-.13.52,0l9.4,9.35c.13.15.14.37,0,.52ZM13.91,45.63c.14.14.33.22.52.22.2,0,.38-.08.52-.22.29-.3.29-.78,0-1.09h0c-.36-.24-.84-.15-1.09.21-.18.27-.18.61,0,.88h.04Z"/>
  <text class="cls-2" transform="translate(28.16 45.12) rotate(-44.95)"><tspan x="0" y="0">NVMe SSD</tspan></text>
</svg>