<?xml version="1.0" encoding="UTF-8"?>
<svg id="Screen" xmlns="http://www.w3.org/2000/svg" viewBox="0 0 70 70">
  <defs>
    <style>
      .cls-1 {
        fill: none;
        stroke: #eae5ff;
      }

      .cls-1, .cls-2, .cls-3 {
        stroke-miterlimit: 10;
      }

      .cls-4 {
        fill: #dedede;
      }

      .cls-2, .cls-3 {
        stroke: #fff;
      }

      .cls-2, .cls-3, .cls-5, .cls-6 {
        fill: #5138cc;
      }

      .cls-3 {
        stroke-width: .25px;
      }

      .cls-5 {
        font-family: Raleway-Bold, Raleway;
        font-size: 1.88px;
        font-weight: 700;
      }

      .cls-5, .cls-7 {
        isolation: isolate;
      }

      .cls-8 {
        fill: #e7e3fd;
      }

      .cls-7 {
        fill: #fff;
        opacity: .31;
      }

      .cls-9 {
        fill: #eae5ff;
      }

      .cls-10 {
        letter-spacing: 0em;
      }
    </style>
  </defs>
  <g id="Character">
    <rect class="cls-6" x="1.32" y="1.32" width="67.36" height="67.36" rx="12.09" ry="12.09"/>
  </g>
  <g>
    <ellipse class="cls-7" cx="17.32" cy="55.62" rx="8" ry=".79"/>
    <g>
      <g>
        <g>
          <path class="cls-8" d="m22.21,20.25l-1.9-.25c-.35-.05-.67.2-.72.55l-.25,1.9c-.05.35.2.67.55.72l1.9.25c.35.05.67-.2.72-.55l.25-1.9c.05-.35-.2-.67-.55-.72Zm-3.8-.49l-5.07-.66c-.35-.05-.67.2-.72.55l-.25,1.9c-.05.35.2.67.55.72l5.07.66c.35.05.67-.2.72-.55l.25-1.9c.05-.35-.2-.67-.55-.72Z"/>
          <path class="cls-2" d="m22.6,22.23l-10.14-1.31-4.1,31.68c-.05.35.2.67.55.72l2.61.34c.27.04.56-.08.68-.33.24-.49.77-.77,1.3-.7s.97.47,1.08,1.01c.06.27.3.46.58.49l2.38.31c.59.08.91-.17.95-.52l4.1-31.68Z"/>
          <path class="cls-4" d="m19.49,26.34l-5.07-.66c-.35-.05-.67.2-.72.55l-.66,5.07c-.05.35.2.67.55.72l5.07.66c.35.05.67-.2.72-.55l.66-5.07c.05-.35-.2-.67-.55-.72Zm-7.94,21.52c-.35-.05-.6-.37-.55-.72l1.56-12.04c.05-.35.37-.6.72-.55s.6.37.55.72l-1.56,12.04c-.05.35-.37.6-.72.55Zm6.79-12.65l-2.53-.33c-.35-.05-.67.2-.72.55l-1.56,12.04c-.05.35.2.67.55.72l2.53.33c.35.05.67-.2.72-.55l1.56-12.04c.05-.35-.2-.67-.55-.72Zm-3.72-1.13l-1.27-.16c-.35-.05-.6-.37-.55-.72s.37-.6.72-.55l1.27.16c.35.05.6.37.55.72s-.37.6-.72.55Z"/>
          <path class="cls-8" d="m8.85,48.8l-.49,3.8c-.05.35.2.67.55.72l2.65.34c.27.03.53-.1.65-.34.25-.48.77-.76,1.3-.69s.96.47,1.08,1c.06.26.27.46.54.5l2.65.34c.35.05.67-.2.72-.55l.49-3.8-10.14-1.31Z"/>
          <circle class="cls-4" cx="16.6" cy="33.7" r=".64"/>
          <circle class="cls-4" cx="18.5" cy="33.95" r=".64"/>
        </g>
        <text class="cls-5" transform="translate(16.37 46.59) rotate(-82.85)"><tspan x="0" y="0">NV</tspan><tspan class="cls-10" x="2.71" y="0">M</tspan><tspan x="4.31" y="0">e SSD</tspan></text>
      </g>
      <circle class="cls-4" cx="15.27" cy="24.09" r=".64"/>
      <circle class="cls-4" cx="17.17" cy="24.33" r=".64"/>
      <circle class="cls-4" cx="19.07" cy="24.58" r=".64"/>
    </g>
    <g>
      <g>
        <g>
          <path class="cls-1" d="m59.78,28.87H25.24c-.57,0-1.04-.47-1.04-1.04v-11.65c0-.57.47-1.04,1.04-1.04h34.54c.57,0,1.04.47,1.04,1.04v11.65c0,.57-.47,1.04-1.04,1.04Z"/>
          <rect class="cls-9" x="29.61" y="18.26" width="9.15" height="1.04"/>
          <circle class="cls-9" cx="50.83" cy="18.88" r=".62"/>
          <circle class="cls-9" cx="52.91" cy="18.88" r=".62"/>
          <circle class="cls-9" cx="54.99" cy="18.88" r=".62"/>
          <path class="cls-1" d="m59.78,44.92H25.24c-.57,0-1.04-.47-1.04-1.04v-11.65c0-.57.47-1.04,1.04-1.04h34.54c.57,0,1.04.47,1.04,1.04v11.65c0,.57-.47,1.04-1.04,1.04Z"/>
          <rect class="cls-9" x="29.61" y="34.31" width="9.15" height="1.04"/>
          <circle class="cls-9" cx="50.83" cy="34.93" r=".62"/>
          <circle class="cls-9" cx="52.91" cy="34.93" r=".62"/>
          <circle class="cls-9" cx="54.99" cy="34.93" r=".62"/>
          <rect class="cls-9" x="41.62" y="46.79" width="2.68" height="9.13"/>
        </g>
        <rect class="cls-9" x="42.33" y="47.86" width="1.84" height="15.17" transform="translate(-12.2 98.7) rotate(-90)"/>
      </g>
      <circle class="cls-3" cx="43.25" cy="55.45" r="2.16"/>
    </g>
  </g>
</svg>