<?xml version="1.0" encoding="UTF-8"?>
<svg id="Screen" xmlns="http://www.w3.org/2000/svg" viewBox="0 0 70 70">
  <defs>
    <style>
      .cls-1 {
        fill: #fff;
      }

      .cls-2 {
        fill: #5138cc;
      }
    </style>
  </defs>
  <g id="Character">
    <rect class="cls-2" x="1.32" y="1.32" width="67.36" height="67.36" rx="12.09" ry="12.09"/>
  </g>
  <g>
    <path class="cls-2" d="m56.43,32.98c0-.06-.01-.13-.04-.18,0-.03-.03-.04-.04-.07-.03-.05-.06-.1-.11-.15,0,0,0-.01-.01-.01l-19.98-17.35c-.24-.21-.6-.21-.85,0l-19.98,17.35s0,.01-.01.01c-.04.04-.08.1-.12.15-.01.02-.03.04-.04.06-.03.07-.04.15-.04.22,0,.02-.01.03-.01.04v23.12s.02.06.02.08c0,.04.01.09.03.13.02.04.04.08.06.12.02.03.03.06.04.08l.02.02s.1.08.16.12c.02,0,.03.03.05.03.08.04.17.06.26.06h39.96c.1,0,.18-.02.26-.06.02,0,.03-.03.05-.03.06-.04.12-.08.16-.12l.02-.02s.03-.05.04-.08c.02-.04.04-.07.06-.12.01-.04.02-.09.03-.13,0-.03.01-.05.01-.08v-23.11s0,0,0-.01c0-.03-.01-.05-.02-.08Zm-20.61-16.42l18.99,16.49-18.99,15.9-18.99-15.9,18.99-16.49Zm-19.34,17.87l12.17,10.18-12.17,10.19v-20.37Zm1.13,21.11l12.04-10.08,5.76,4.82c.24.2.58.2.82,0l5.76-4.82,12.04,10.08H17.61Zm37.54-.73l-12.16-10.19,12.16-10.18v20.37Z"/>
    <path class="cls-1" d="m28.65,44.61l-12.17,10.19v-20.37l12.17,10.18Zm7.17-28.06l-18.99,16.49,18.99,15.9,18.99-15.9-18.99-16.49Zm4.92,17.03c-.09.33-.22.65-.37.95-.15.3-.35.56-.57.78-.22.23-.49.4-.79.53-.3.13-.64.19-1.03.19-.21,0-.39-.03-.57-.07-.17-.05-.33-.12-.46-.21-.13-.09-.25-.21-.35-.35-.09-.14-.15-.31-.19-.49-.2.2-.39.37-.58.52-.19.14-.37.26-.56.35-.18.09-.35.15-.53.19-.17.04-.34.06-.51.06-.22,0-.41-.02-.57-.06-.17-.04-.31-.11-.44-.19-.13-.08-.24-.19-.33-.31s-.17-.26-.22-.4c-.06-.15-.1-.31-.13-.49-.03-.19-.04-.38-.04-.59s.02-.46.05-.74c.04-.28.1-.57.17-.87.08-.3.19-.58.33-.87.14-.28.31-.53.52-.76.21-.22.46-.4.75-.55.28-.13.62-.21,1-.21.16,0,.31.02.46.06.15.04.29.1.42.18.13.08.26.18.39.3.12.12.25.26.39.43l.13-.66c.02-.07.06-.12.13-.16.07-.03.2-.05.39-.05.09,0,.17,0,.22.02.06,0,.12.02.15.04.04.02.06.04.07.06s.01.06,0,.09l-.67,3.46c-.08.44-.06.76.06.97.12.21.35.31.69.31.21,0,.39-.05.55-.15.17-.1.31-.24.44-.42.13-.17.23-.38.32-.61.08-.24.15-.48.21-.74.06-.26.1-.53.12-.8.03-.27.04-.53.04-.78,0-.44-.06-.85-.18-1.25-.11-.39-.32-.74-.6-1.03-.28-.3-.67-.54-1.15-.72-.48-.17-1.08-.26-1.8-.26-.59,0-1.12.06-1.58.19-.46.13-.87.31-1.22.53-.35.22-.66.48-.91.77s-.46.6-.64.93-.31.66-.42,1.01c-.1.34-.19.67-.24.99-.06.32-.1.62-.11.91-.02.28-.03.51-.03.71,0,.56.06,1.07.19,1.53s.35.86.67,1.2.74.6,1.27.78,1.2.28,2.01.28c.37,0,.7-.02,1-.06.3-.04.55-.08.77-.13.22-.04.39-.09.53-.13.14-.04.23-.06.28-.06.03,0,.06.01.08.03.03.02.04.04.05.08s.03.08.03.14c0,.06.01.13.01.22,0,.07,0,.13,0,.17s0,.08-.02.12c0,.04-.03.07-.04.1-.02.03-.04.06-.07.08-.03.03-.12.06-.26.11-.14.05-.33.1-.58.15s-.53.09-.85.13c-.33.03-.69.05-1.08.05-.94,0-1.73-.11-2.38-.33-.65-.22-1.18-.53-1.59-.94s-.7-.91-.89-1.48c-.18-.58-.27-1.22-.27-1.93,0-.26.01-.57.04-.9.03-.34.08-.7.15-1.09.08-.39.19-.78.33-1.18.14-.4.32-.79.55-1.17s.49-.75.82-1.08c.31-.34.69-.64,1.13-.89.43-.25.93-.45,1.49-.6.56-.14,1.19-.22,1.9-.22.83,0,1.54.1,2.14.3.6.19,1.09.48,1.48.84.39.37.68.8.87,1.32s.29,1.1.29,1.73c0,.34-.03.69-.06,1.05-.04.35-.12.7-.21,1.04Z"/>
    <path class="cls-1" d="m54.03,55.54H17.61l12.04-10.08,5.76,4.82c.24.2.58.2.82,0l5.76-4.82s12.04,10.08,12.04,10.08Zm1.12-21.11v20.37l-12.16-10.19,12.16-10.18Z"/>
    <path class="cls-2" d="m40.72,29.76c-.19-.52-.48-.96-.87-1.32-.39-.36-.89-.64-1.48-.84-.6-.2-1.31-.3-2.14-.3-.71,0-1.34.08-1.9.22-.57.15-1.06.35-1.49.6-.44.26-.82.55-1.13.89-.32.33-.59.7-.82,1.08s-.4.77-.55,1.17c-.14.4-.25.79-.33,1.18s-.13.75-.15,1.09c-.03.33-.04.64-.04.9,0,.71.09,1.36.27,1.93.19.58.48,1.07.89,1.48.41.41.94.73,1.59.94.66.22,1.45.33,2.38.33.39,0,.75-.02,1.08-.05.33-.04.61-.08.85-.13s.44-.1.58-.15c.14-.04.23-.08.26-.11.03-.03.05-.05.07-.08.01-.03.03-.06.04-.1.01-.04.02-.08.02-.12s0-.1,0-.17c0-.08,0-.16-.01-.22,0-.06-.01-.1-.03-.14s-.03-.06-.05-.08c-.02-.02-.05-.03-.08-.03-.05,0-.14.03-.28.06-.13.04-.31.09-.53.13-.22.05-.48.1-.77.13-.3.04-.63.06-1,.06-.81,0-1.48-.09-2.01-.28-.53-.19-.96-.45-1.27-.78s-.54-.73-.67-1.2c-.13-.46-.19-.97-.19-1.53,0-.2,0-.44.03-.71.01-.28.05-.58.11-.91.05-.31.13-.65.24-.99.11-.35.24-.68.42-1.01s.39-.64.64-.93.55-.55.91-.77c.35-.22.76-.4,1.22-.53.46-.13.99-.19,1.58-.19.72,0,1.32.09,1.8.26.48.18.87.42,1.15.72.29.3.49.64.6,1.03.12.4.18.81.18,1.25,0,.25-.01.51-.04.78s-.06.54-.12.8c-.05.26-.12.5-.21.74-.09.23-.19.44-.32.61-.12.18-.27.31-.44.42-.16.1-.35.15-.55.15-.34,0-.57-.1-.69-.31-.12-.21-.14-.53-.06-.97l.67-3.46s0-.06,0-.09c-.02-.03-.04-.05-.07-.06-.05-.02-.1-.04-.15-.04-.06-.01-.13-.02-.22-.02-.19,0-.32.02-.39.05-.07.04-.12.09-.13.16l-.13.66c-.12-.15-.25-.29-.39-.43-.13-.12-.26-.22-.39-.3-.13-.08-.28-.14-.42-.18-.15-.04-.3-.06-.46-.06-.39,0-.72.07-1,.21-.29.14-.53.32-.75.55-.21.22-.38.48-.52.76s-.25.57-.33.87c-.08.3-.13.58-.17.87-.03.28-.05.53-.05.74s.01.4.04.59c.03.18.07.34.13.49.06.15.13.28.22.4.09.12.2.22.33.31.13.08.28.14.44.19.16.04.35.06.57.06.17,0,.33-.02.51-.06.17-.04.35-.1.53-.19.19-.09.37-.21.56-.35.19-.15.38-.32.58-.52.04.19.1.35.19.49.1.14.21.26.35.35.13.1.29.16.46.21.18.04.37.07.57.07.39,0,.73-.06,1.03-.19.3-.13.57-.3.79-.53.22-.22.42-.49.57-.78.15-.3.28-.62.37-.95.1-.34.17-.69.21-1.04.04-.36.06-.71.06-1.05,0-.64-.1-1.21-.29-1.73Zm-4.44,4.18c-.19.19-.37.37-.53.51-.15.14-.31.26-.44.35-.14.09-.28.15-.4.19-.12.04-.24.06-.37.06-.31,0-.54-.1-.67-.3-.13-.2-.2-.48-.2-.85,0-.15.01-.33.03-.54.03-.21.06-.41.12-.63.06-.21.13-.42.22-.63s.19-.39.32-.55c.12-.17.27-.3.44-.4.17-.1.36-.15.57-.15.26,0,.48.08.69.25.2.17.39.42.58.74l-.36,1.96Z"/>
    <path class="cls-1" d="m36.64,31.98l-.36,1.96c-.19.19-.37.37-.53.51-.15.14-.31.26-.44.35-.14.09-.28.15-.4.19-.12.04-.24.06-.37.06-.31,0-.54-.1-.67-.3-.13-.2-.2-.48-.2-.85,0-.15.01-.33.03-.54.03-.21.06-.41.12-.63.06-.21.13-.42.22-.63s.19-.39.32-.55c.12-.17.27-.3.44-.4.17-.1.36-.15.57-.15.26,0,.48.08.69.25.2.17.39.42.58.74Z"/>
  </g>
</svg>