<?xml version="1.0" encoding="UTF-8"?>
<svg id="Screen" xmlns="http://www.w3.org/2000/svg" viewBox="0 0 85 85">
  <defs>
    <style>
      .cls-1 {
        fill: #eae5ff;
      }

      .cls-2 {
        fill: #5835d2;
      }
    </style>
  </defs>
  <circle class="cls-1" cx="42.5" cy="42.5" r="41.53"/>
  <g id="Character">
    <g>
      <path class="cls-2" d="m67.93,52.49c-.11,0-.23-.02-.34-.06-.52-.19-.79-.76-.61-1.28,0,0,0,0,0,0,.45-1.25.79-2.54,1.04-3.85.1-.54.63-.9,1.17-.8.54.1.9.63.8,1.17h0c-.27,1.41-.64,2.8-1.12,4.15-.14.4-.52.66-.94.66Z"/>
      <path class="cls-2" d="m61.65,62.49c-.55,0-1-.45-1-1,0-.26.1-.51.29-.7,1.17-1.18,2.22-2.47,3.15-3.85.31-.46.93-.58,1.39-.28s.58.93.28,1.39c-1,1.49-2.13,2.87-3.39,4.14-.19.19-.44.3-.71.3Z"/>
      <path class="cls-2" d="m65.9,19.58c-.36-.16-.78-.1-1.07.16l-2.94,2.58c-11.15-10.7-28.87-10.34-39.57.81-10.7,11.15-10.34,28.87.81,39.57,8.82,8.47,22.13,10.23,32.85,4.34.48-.27.66-.87.4-1.36s-.87-.66-1.36-.4c-12.58,6.93-28.4,2.34-35.33-10.24-6.93-12.58-2.34-28.4,10.24-35.33,9.92-5.46,22.23-3.87,30.45,3.92l-3.54,3.1c-.42.36-.46.99-.1,1.41.19.22.46.34.75.34h8c.55,0,1-.45,1-1v-7c0-.39-.23-.75-.59-.91Z"/>
      <path class="cls-2" d="m69.48,42.49c-.54,0-.98-.43-1-.96-.05-1.29-.19-2.58-.44-3.85-.1-.54.26-1.06.81-1.16.53-.1,1.05.25,1.16.78.27,1.37.42,2.76.47,4.15.02.55-.41,1.02-.96,1.04,0,0,0,0,0,0h-.04Z"/>
      <path class="cls-2" d="m38.48,38.49c0,1.66,1.34,3,3,3v-6c-1.66,0-3,1.34-3,3Z"/>
      <path class="cls-2" d="m46.48,46.49c0-1.66-1.34-3-3-3v6c1.66,0,3-1.34,3-3Z"/>
      <path class="cls-2" d="m42.48,25.49c-9.39,0-17,7.61-17,17s7.61,17,17,17,17-7.61,17-17c-.01-9.38-7.62-16.99-17-17Zm6,14c0,.55-.45,1-1,1s-1-.45-1-1v-1c0-1.66-1.34-3-3-3v6c2.76,0,5,2.24,5,5s-2.24,5-5,5v1c0,.55-.45,1-1,1s-1-.45-1-1v-1c-2.76,0-5-2.24-5-5v-1c0-.55.45-1,1-1s1,.45,1,1v1c0,1.66,1.34,3,3,3v-6c-2.76,0-5-2.24-5-5s2.24-5,5-5v-1c0-.55.45-1,1-1s1,.45,1,1v1c2.76,0,5,2.24,5,5v1Z"/>
    </g>
  </g>
</svg>