<?xml version="1.0" encoding="UTF-8"?>
<svg id="Screen" xmlns="http://www.w3.org/2000/svg" viewBox="0 0 70 70">
  <defs>
    <style>
      .cls-1 {
        fill: #fff;
      }

      .cls-2 {
        fill: #e7e3fd;
      }

      .cls-3 {
        fill: #5138cc;
      }
    </style>
  </defs>
  <g id="Character">
    <rect class="cls-3" x="1.32" y="1.32" width="67.36" height="67.36" rx="12.09" ry="12.09"/>
  </g>
  <g>
    <path class="cls-2" d="m35,23.59h20.76q.83,0,.83.83v21.42c0,1.57-.66,2.31-2.27,2.31h-7.92c-.5,0-.7-.17-.66-.7s-.04-1.11,0-1.69c.09-1.18-.57-2.28-1.65-2.76-1.39-.72-2.9-1.17-4.46-1.32-1.2-.17-2.43-.25-3.67-.33-.29-.04-.54-.08-.5-.45s-.29-.95.37-1.07c2.85-.66,4.58-2.39,5.24-5.2,0-.17.29-.29.45-.37s.33,0,.5-.04.7-.29.7-.74c0-.36-.29-.66-.66-.67-.03,0-.06,0-.09,0-.7.08-.91-.25-1.07-.87-.52-2.37-2.4-4.21-4.79-4.66-.5-.12-.7-.29-.66-.83s-.12-.87-.7-.91-.74.41-.7.91-.17.7-.66.83c-2.49.47-4.44,2.42-4.91,4.91-.08.45-.29.66-.78.62s-.91.08-.91.66.29.78.95.74c.36-.05.69.21.74.57,0,0,0,0,0,.01.62,2.68,2.31,4.33,4.95,4.95.74.17.58.62.58,1.07s-.33.5-.66.54c-2.15.29-4.33.45-6.44,1.03-1.49.41-3.22,1.36-3.14,3.18,0,.66-.04,1.32,0,1.98s-.12.62-.54.62c-2.64,0-5.24.04-7.88-.04-1.24,0-1.94-.78-1.94-2.06v-21.79c0-.62.25-.7.78-.7l20.8.04Z"/>
    <path class="cls-2" d="m23.28,27.06c.95,0,1.94.04,2.89,0s.95-.29.95-.7-.45-.7-.95-.7h-5.69c-.5,0-.91.12-.91.7s.45.7.95.7h2.76Z"/>
    <path class="cls-2" d="m46.14,25.66h-2.85c-.5,0-.91.08-.91.7s.29.7.91.7c1.9.03,3.8.03,5.69,0,.58,0,.91-.25.87-.74s-.41-.66-.87-.66h-2.85Z"/>
    <path class="cls-2" d="m21.42,28.71h-1.07c-.38-.05-.73.23-.78.61,0,.03,0,.06,0,.09-.02.36.25.68.62.7.03,0,.06,0,.09,0h2.31c.39,0,.7-.31.7-.7s-.31-.7-.7-.7h-1.16Z"/>
    <path class="cls-2" d="m48.04,28.71h-1.07c-.38-.05-.73.23-.78.61,0,.03,0,.06,0,.09-.03.36.25.68.61.71.04,0,.09,0,.13,0h2.23c.45,0,.74-.25.7-.7s-.29-.7-.74-.7h-1.07Z"/>
    <path class="cls-2" d="m21.38,42.74h1.2c.36,0,.66-.3.66-.66.07-.33-.15-.66-.48-.73-.04,0-.09-.01-.14-.01-.8-.04-1.6-.04-2.39,0-.34-.03-.64.22-.67.56,0,.06,0,.12.01.18.02.37.33.66.7.66h1.11Z"/>
    <path class="cls-2" d="m48.08,42.74h1.11c.41-.04.66-.25.66-.66.05-.36-.21-.69-.57-.74-.02,0-.03,0-.05,0-.8-.04-1.6-.04-2.39,0-.39.02-.68.35-.66.74,0,0,0,0,0,0,.04.41.29.62.74.66h1.16Z"/>
    <path class="cls-2" d="m16.64,30.11h0c.36.05.72.03,1.07-.04.3-.1.54-.33.66-.62.08-.41-.25-.7-.66-.74h-2.1c-.36,0-.66.29-.66.66,0,.01,0,.03,0,.04-.02.36.25.68.62.7.01,0,.03,0,.04,0h1.03Z"/>
    <path class="cls-2" d="m16.64,27.06h0c.34.02.69.02,1.03,0,.39,0,.7-.31.7-.7,0-.01,0-.03,0-.04,0-.36-.29-.66-.66-.67-.03,0-.06,0-.09,0h-1.98c-.36-.02-.68.25-.7.62,0,.01,0,.03,0,.04-.05.36.21.69.57.74.03,0,.06,0,.09,0,.34.02.69.02,1.03,0Z"/>
    <path class="cls-2" d="m52.78,27.06h0c.36.02.72.02,1.07,0,.36-.02.64-.33.62-.7,0-.02,0-.03,0-.05.05-.32-.17-.61-.49-.66-.04,0-.09,0-.13,0h-2.06c-.36-.02-.68.25-.7.62,0,.01,0,.03,0,.04-.05.36.21.69.57.74.03,0,.06,0,.09,0,.34.02.69.02,1.03,0Z"/>
    <path class="cls-2" d="m16.64,42.74h.99c.45-.04.7-.25.74-.66.05-.36-.21-.69-.57-.74-.03,0-.06,0-.09,0-.71-.07-1.43-.06-2.15.04-.25,0-.54.41-.58.66s.21.66.62.66l1.03.04Z"/>
    <path class="cls-2" d="m52.78,42.74h1.07c.41-.04.7-.29.62-.66s-.33-.7-.58-.7c-.74-.12-1.49-.12-2.23,0-.21,0-.5.41-.54.7s.21.62.62.66h1.03Z"/>
    <path class="cls-2" d="m52.83,30.11h.99c.34.03.64-.23.66-.57,0-.04,0-.09,0-.13.02-.36-.25-.68-.62-.7-.01,0-.03,0-.04,0h-2.06c-.36,0-.66.29-.66.66,0,.01,0,.03,0,.04.04.45.25.7.7.7h1.03Z"/>
    <path class="cls-2" d="m35,22.15H14.33q-.91,0-.91-.87v-2.6c0-1.4.74-2.15,2.1-2.15h38.7c1.73,0,2.35.66,2.35,2.39v2.39q0,.83-.83.83s-20.76,0-20.76,0Zm18.24-3.51h0c-.32-.05-.64-.03-.95.04-.25.08-.62.37-.62.62.04.31.24.58.54.7.66.08,1.32.08,1.98,0,.29-.13.5-.39.58-.7.08-.37-.25-.66-.66-.66h-.87Zm-9.53,1.4h.91c.36,0,.66-.29.67-.66,0-.03,0-.06,0-.09,0-.36-.29-.66-.66-.66-.01,0-.03,0-.04,0h-1.73c-.34-.05-.65.19-.7.53,0,.04,0,.09,0,.13-.05.36.21.69.57.74.03,0,.06,0,.09,0h.91Zm4.79-1.4h-.95c-.41.04-.7.29-.62.66.06.31.26.56.54.7.64.08,1.29.09,1.94.04.41-.04.62-.33.62-.78,0-.34-.27-.62-.61-.62-.03,0-.06,0-.09,0h-.83Z"/>
    <path class="cls-1" d="m34.01,42.7c2.55-.08,5.09.21,7.55.87.99.25,2.23.54,2.6,1.65s.25,2.93.08,4.25c0,.53-.21,1.03-.58,1.4-1.07.78-2.85,1.07-4.13,1.24-3.72.63-7.54.53-11.22-.29-.8-.21-1.57-.5-2.31-.87-.78-.37-.83-1.11-.83-1.86v-3.22c0-1.07.21-1.36.95-1.65,2.52-.95,5.19-1.47,7.88-1.53Zm-6.48,6.44c.66-.08.91-.33.87-.78.03-.32-.2-.6-.52-.63-.06,0-.12,0-.18.01-.45,0-.74.29-.66.7.12.26.29.5.5.7Z"/>
    <path class="cls-1" d="m44.2,52.4c.03.2.05.41.04.62,0,1.28-.04,2.52,0,3.75.1.63-.27,1.23-.87,1.44-4.87,1.86-10.4,1.98-15.43.74-.68-.18-1.33-.45-1.94-.78-.56-.22-.91-.8-.83-1.4.04-1.24,0-2.52,0-3.75,0-.21.04-.41.04-.62,6.15,2.1,12.83,2.1,18.98,0Zm-16.3,2.89c-.62.04-.87.25-.87.7-.02.36.25.68.62.7.01,0,.03,0,.04,0,.37.04.83-.37.7-.7-.12-.26-.29-.5-.5-.7Z"/>
    <path class="cls-2" d="m39.66,33.5c0,2.73-2.22,4.95-4.95,4.95s-4.95-2.22-4.95-4.95,2.22-4.95,4.95-4.95,4.95,2.22,4.95,4.95Zm-5.61-1.4h0c-.04.4-.04.8,0,1.2.06.34.22.66.45.91.57.45,1.16.86,1.77,1.24.5.33.95.33,1.16-.08s.08-.83-.37-1.11-.7-.54-1.07-.74c-.38-.18-.59-.58-.54-.99.04-.59.04-1.18,0-1.77,0-.36-.29-.66-.66-.67-.03,0-.06,0-.09,0-.34-.03-.64.23-.66.57,0,.04,0,.09,0,.13-.04.41,0,.87,0,1.32Z"/>
    <path class="cls-1" d="m27.53,49.14c-.21-.2-.37-.44-.5-.7-.08-.41.21-.7.66-.7.31-.07.62.13.69.44.01.06.02.12.01.18.04.45-.21.7-.87.78Z"/>
    <path class="cls-1" d="m27.9,55.28c.21.2.37.44.5.7.12.33-.33.74-.7.7-.36,0-.66-.29-.66-.66,0-.01,0-.03,0-.04,0-.45.25-.66.87-.7Z"/>
    <path class="cls-3" d="m34.05,32.09c0-.45-.04-.91,0-1.32-.05-.34.19-.65.53-.7.04,0,.09,0,.13,0,.36-.05.69.21.74.57,0,.03,0,.06,0,.09.04.59.04,1.18,0,1.77-.06.41.16.81.54.99.37.21.7.5,1.07.74s.62.62.37,1.11-.66.41-1.16.08c-.61-.38-1.21-.79-1.77-1.24-.24-.25-.4-.57-.45-.91-.04-.4-.04-.8,0-1.2Z"/>
    <circle class="cls-3" cx="27.74" cy="48.43" r=".78"/>
    <circle class="cls-3" cx="27.74" cy="55.99" r=".78"/>
  </g>
</svg>