<?xml version="1.0" encoding="UTF-8"?>
<svg id="Screen" xmlns="http://www.w3.org/2000/svg" viewBox="0 0 70 70">
  <defs>
    <style>
      .cls-1 {
        fill: #fff;
      }

      .cls-2 {
        fill: #eae5ff;
      }

      .cls-3 {
        fill: none;
        stroke: #fff;
        stroke-miterlimit: 10;
        stroke-width: .25px;
      }

      .cls-4 {
        fill: #5835d2;
      }

      .cls-5 {
        fill: #6248ec;
      }
    </style>
  </defs>
  <rect class="cls-4" x="1.32" y="1.32" width="67.36" height="67.36" rx="12.09" ry="12.09"/>
  <rect class="cls-3" x="7.32" y="12.14" width="26.25" height="18.05" rx=".54" ry=".54"/>
  <rect class="cls-2" x="8.3" y="14.65" width="24.37" height="14.57"/>
  <rect class="cls-5" x="10.19" y="16.42" width="6.42" height="4.76" rx=".91" ry=".91"/>
  <rect class="cls-5" x="17.4" y="16.42" width="6.24" height="4.76" rx=".87" ry=".87"/>
  <rect class="cls-5" x="24.47" y="16.42" width="6.24" height="4.76" rx=".87" ry=".87"/>
  <rect class="cls-5" x="15.08" y="23.1" width="15.63" height="1.33" rx=".58" ry=".58"/>
  <rect class="cls-5" x="10.19" y="23.1" width="3.84" height="1.33" rx=".47" ry=".47"/>
  <rect class="cls-5" x="15.08" y="25.05" width="15.63" height="1.33" rx=".58" ry=".58"/>
  <rect class="cls-5" x="10.19" y="25.05" width="3.84" height="1.33" rx=".47" ry=".47"/>
  <circle class="cls-1" cx="8.92" cy="13.49" r=".47"/>
  <circle class="cls-1" cx="10.19" cy="13.49" r=".47"/>
  <circle class="cls-1" cx="11.49" cy="13.49" r=".47"/>
  <rect class="cls-3" x="35" y="39.95" width="26.25" height="18.05" rx=".54" ry=".54"/>
  <rect class="cls-2" x="35.98" y="42.45" width="24.37" height="14.57"/>
  <rect class="cls-5" x="37.86" y="44.23" width="6.42" height="4.76" rx=".91" ry=".91"/>
  <rect class="cls-5" x="45.08" y="44.23" width="6.24" height="4.76" rx=".87" ry=".87"/>
  <rect class="cls-5" x="52.15" y="44.23" width="6.24" height="4.76" rx=".87" ry=".87"/>
  <rect class="cls-5" x="42.76" y="50.9" width="15.63" height="1.33" rx=".58" ry=".58"/>
  <rect class="cls-5" x="37.86" y="50.9" width="3.84" height="1.33" rx=".47" ry=".47"/>
  <rect class="cls-5" x="42.76" y="52.86" width="15.63" height="1.33" rx=".58" ry=".58"/>
  <rect class="cls-5" x="37.86" y="52.86" width="3.84" height="1.33" rx=".47" ry=".47"/>
  <circle class="cls-1" cx="36.6" cy="41.29" r=".47"/>
  <circle class="cls-1" cx="37.86" cy="41.29" r=".47"/>
  <circle class="cls-1" cx="39.17" cy="41.29" r=".47"/>
  <path class="cls-1" d="m49.53,26.54c-.25.66-.49,1.32-.76,2.01l-.81,2.16-.52,1.37c-.11.32-.46.49-.78.38-.1-.03-.18-.09-.25-.16l-.93-1.03-2.43-2.72c-.17-.22-.35-.42-.54-.61-.14-.18-.12-.44.06-.59.03-.02.05-.04.08-.05l.17-.05,1.13-.2h.17v-.39l-.07-.83-.07-.44c-.04-.26-.11-.51-.2-.76-.12-.39-.25-.76-.39-1.15-.12-.27-.25-.53-.39-.78-.41-.81-.92-1.57-1.52-2.26-.25-.29-.52-.59-.78-.86-.09-.09-.1-.24-.02-.34.05-.1.16-.14.26-.09.01,0,.02.01.03.02l1.15.56.44.29c.72.46,1.4,1,2.01,1.59.96.9,1.76,1.96,2.38,3.11.24.44.43.9.59,1.37.04.08.07.16.1.25h.17l1.1-.22c.21-.07.44.01.56.2l.05.22Z"/>
  <path class="cls-1" d="m21.24,42.71l-.16.06-1.11.46c-.12.04-.26.04-.37-.02-.16-.07-.25-.25-.21-.42l.13-.86c.18-1.14.36-2.28.52-3.41l.23-1.5c.05-.34.36-.57.69-.52.03,0,.06.01.09.02l.2.11c.57.42,1.14.81,1.69,1.23l2.92,2.16.1.07c.17.15.19.41.04.59-.03.04-.07.07-.11.09l-.21.08-.97.41-.16.06c.02.12.04.24.08.36.08.3.18.6.3.88.07.19.15.38.24.57.26.62.6,1.21,1.01,1.74.58.8,1.27,1.52,2.05,2.14.37.31.8.59,1.22.88.07.05.12.13.13.21.01.14-.09.25-.22.26-.03,0-.07,0-.1-.01-.31-.06-.62-.14-.92-.23-.3-.09-.59-.19-.87-.31-.74-.29-1.45-.65-2.12-1.07-.64-.38-1.24-.82-1.8-1.32-.72-.62-1.36-1.33-1.89-2.13-.12-.19-.25-.4-.41-.61Z"/>
</svg>