<?xml version="1.0" encoding="UTF-8"?>
<svg id="Screen" xmlns="http://www.w3.org/2000/svg" viewBox="0 0 70 70">
  <defs>
    <style>
      .cls-1 {
        stroke: #5138cc;
      }

      .cls-1, .cls-2 {
        fill: #fff;
      }

      .cls-1, .cls-3 {
        stroke-miterlimit: 10;
        stroke-width: .5px;
      }

      .cls-2 {
        fill-rule: evenodd;
      }

      .cls-4 {
        font-family: Raleway-Bold, Raleway;
        font-size: 9.04px;
        font-weight: 700;
      }

      .cls-4, .cls-3, .cls-5 {
        fill: #5138cc;
      }

      .cls-3 {
        stroke: #fff;
      }
    </style>
  </defs>
  <g id="Character">
    <rect class="cls-5" x="1.32" y="1.32" width="67.36" height="67.36" rx="12.09" ry="12.09"/>
    <path class="cls-2" d="m63.69,21.38H8.69v27.89c0,.9.76,1.62,1.69,1.62h52.08c.68,0,1.23-.53,1.23-1.18v-28.33Z"/>
    <path class="cls-3" d="m54.19,39.35c-3.23,0-5.86,2.63-5.86,5.86,0,2.21,1.24,4.22,3.2,5.22v9.33c0,.14.06.28.16.38l2.13,2.13c.21.21.55.21.75,0h0s2.13-2.13,2.13-2.13c.1-.1.16-.24.16-.38v-1.07c0-.16-.07-.32-.2-.42l-.64-.51.72-.87c.16-.2.16-.48,0-.68l-.72-.87.64-.51c.12-.09.19-.23.2-.39,0-.15-.05-.3-.16-.41l-.7-.7.69-.69c.1-.1.16-.24.16-.38v-1.92c1.97-1,3.21-2.95,3.21-5.16,0-3.23-2.63-5.86-5.86-5.86h0Zm1.6,4.17c0,.88-.72,1.6-1.6,1.6s-1.6-.72-1.6-1.6.72-1.6,1.6-1.6,1.6.72,1.6,1.6Z"/>
    <path class="cls-5" d="m23.18,35.77c0-.48-.3-.95-.75-1.15l-7.15-3.21c-.1-.04-.21-.06-.32-.06-.44,0-.87.34-.85.85,0,.32.18.63.51.77l6.63,2.83-6.63,2.81c-.32.14-.49.44-.49.77,0,.49.42.83.83.83.1,0,.22-.02.32-.06l7.15-3.19c.46-.2.75-.67.75-1.21h0Z"/>
    <path class="cls-5" d="m41.95,44.93c0-.46-.38-.83-.81-.83h-9.88c-.46,0-.83.38-.83.83s.38.85.83.85h9.88c.44,0,.81-.38.81-.85Z"/>
    <text class="cls-4" transform="translate(26.85 39)"><tspan x="0" y="0">SSH</tspan></text>
    <path class="cls-1" d="m63.69,22.13v-4.02c0-2.23-1.81-4.04-4.03-4.04H12.72c-2.23,0-4.04,1.81-4.04,4.04v4.02h55Z"/>
    <circle class="cls-5" cx="58.34" cy="18.12" r="1.54"/>
    <circle class="cls-5" cx="53.63" cy="18.12" r="1.54"/>
  </g>
</svg>