<?xml version="1.0" encoding="UTF-8"?>
<svg id="Screen" xmlns="http://www.w3.org/2000/svg" viewBox="0 0 70 70">
  <defs>
    <style>
      .cls-1 {
        fill: #fff;
      }

      .cls-2 {
        stroke: #fff;
        stroke-miterlimit: 10;
      }

      .cls-2, .cls-3 {
        fill: #5835d2;
      }

      .cls-4 {
        fill: #eae5ff;
      }
    </style>
  </defs>
  <rect class="cls-3" x="1.32" y="1.32" width="67.36" height="67.36" rx="12.09" ry="12.09"/>
  <path class="cls-2" d="m59.65,56.89H10.35c-2.34,0-4.24-1.9-4.24-4.24,0,0,0,0,0,0V13.64c0-2.34,1.9-4.24,4.24-4.24h49.29c2.34,0,4.24,1.9,4.24,4.24h0v39.01c0,2.34-1.9,4.24-4.24,4.24h0Z"/>
  <path class="cls-1" d="m25.75,25.41c-.2.17-.31.39-.31.67s.13.5.38.66c.25.16.83.36,1.74.58.91.22,1.61.56,2.11,1,.5.45.75,1.1.75,1.95s-.32,1.55-.96,2.08c-.64.53-1.49.8-2.54.8-1.51,0-2.87-.56-4.09-1.68l1.27-1.56c1.03.9,1.98,1.35,2.86,1.35.39,0,.7-.08.92-.25.22-.17.33-.4.33-.68s-.12-.52-.36-.68c-.24-.17-.71-.34-1.41-.51-1.11-.26-1.93-.61-2.44-1.03-.52-.42-.77-1.09-.77-2s.33-1.61.98-2.1c.65-.49,1.46-.74,2.44-.74.64,0,1.28.11,1.91.33.64.22,1.19.53,1.67.93l-1.08,1.56c-.83-.63-1.69-.94-2.57-.94-.36,0-.64.08-.84.25Zm8.72,0c-.2.17-.31.39-.31.67s.13.5.38.66c.25.16.83.36,1.74.58.91.22,1.61.56,2.11,1,.5.45.75,1.1.75,1.95s-.32,1.55-.96,2.08c-.64.53-1.49.8-2.53.8-1.51,0-2.88-.56-4.09-1.68l1.27-1.56c1.03.9,1.98,1.35,2.86,1.35.39,0,.7-.08.92-.25.22-.17.33-.4.33-.68s-.12-.52-.36-.68c-.24-.17-.71-.34-1.41-.51-1.11-.26-1.93-.61-2.44-1.03s-.77-1.09-.77-2,.32-1.61.98-2.1c.65-.49,1.46-.74,2.44-.74.64,0,1.28.11,1.91.33.64.22,1.19.53,1.67.93l-1.08,1.56c-.83-.63-1.69-.94-2.57-.94-.36,0-.63.08-.84.25Zm6.48,7.65v-9.55h2.13v7.65h4.07v1.9h-6.21Z"/>
  <path class="cls-1" d="m63.88,17.86v-4.22c0-2.34-1.9-4.24-4.23-4.24,0,0,0,0,0,0H10.35c-2.34,0-4.24,1.9-4.24,4.24v4.22h57.77Z"/>
  <circle class="cls-3" cx="58.26" cy="13.64" r="1.62"/>
  <circle class="cls-3" cx="53.31" cy="13.64" r="1.62"/>
  <g>
    <path class="cls-2" d="m56.38,50l2.96,13.27-5.98-3.27v-10h3.02Z"/>
    <path class="cls-2" d="m50.33,50l-2.96,13.27,5.98-3.27v-10h-3.02Z"/>
    <path class="cls-2" d="m60.64,48.71c0,2.35-1.91,4.26-4.26,4.26h0c-1.66,1.67-4.36,1.67-6.03,0h0c-2.35,0-4.26-1.92-4.26-4.27h0c-1.66-1.67-1.66-4.37,0-6.03v-.02c0-2.35,1.91-4.26,4.26-4.26h.02c1.66-1.66,4.36-1.66,6.02,0h.01c2.35,0,4.26,1.91,4.26,4.26,1.67,1.67,1.67,4.38,0,6.04,0,0,0,0,0,0Z"/>
    <circle class="cls-4" cx="53.35" cy="45.69" r="4.31"/>
  </g>
  <path class="cls-4" d="m15.33,42.3h15.99v1.88h-15.99v-1.88Zm0,3.65h15.99v1.88h-15.99v-1.88Zm0,3.65h9.42v1.88h-9.42v-1.88Z"/>
</svg>