<?xml version="1.0" encoding="UTF-8"?>
<svg id="Screen" xmlns="http://www.w3.org/2000/svg" viewBox="0 0 85 85">
  <defs>
    <style>
      .cls-1 {
        fill: #eae5ff;
      }

      .cls-2 {
        fill: #5835d2;
      }
    </style>
  </defs>
  <circle class="cls-1" cx="42.5" cy="42.5" r="41.53"/>
  <g>
    <path class="cls-2" d="m42.5,18.59c-15.67,0-28.29,12.62-28.29,28.29s12.62,28.29,28.29,28.29,28.29-12.62,28.29-28.29-12.62-28.29-28.29-28.29Zm0,52.45c-13.28,0-24.16-10.88-24.16-24.16s10.88-24.16,24.16-24.16,24.16,10.88,24.16,24.16-10.88,24.16-24.16,24.16ZM15.73,26.64l8.71-8.71c.87-.87.87-2.18,0-3.05s-2.18-.87-3.05,0l-8.71,8.71c-.87.87-.87,2.18,0,3.05.44.44.87.65,1.52.65s1.09-.22,1.52-.65Zm56.59-3.05l-8.71-8.71c-.87-.87-2.18-.87-3.05,0-.87.87-.87,2.18,0,3.05l8.71,8.71c.44.44.87.65,1.52.65s1.09-.22,1.52-.65c.87-.87.87-2.18,0-3.05Z"/>
    <path class="cls-2" d="m59.69,49.06h-.22c-1.09-.22-1.96-1.09-1.96-2.18s.87-1.96,1.96-2.18h2.61c-1.09-9.14-8.27-16.32-17.41-17.41v2.61c-.22,1.09-1.09,1.96-2.18,1.96s-1.96-.87-2.18-1.96v-2.61c-9.14,1.09-16.32,8.27-17.41,17.41h2.61c1.09.22,1.96,1.09,1.96,2.18s-.87,1.96-1.96,2.18h-2.61c1.09,9.14,8.27,16.32,17.41,17.41v-2.61c.22-1.09,1.09-1.96,2.18-1.96s1.96.87,2.18,1.96v2.61c9.14-1.09,16.32-8.27,17.41-17.41h-2.39q.22,0,0,0Zm-9.14-2.83c-.44.44-.87.65-1.52.65s-1.09-.22-1.52-.65l-2.83-2.83v12.19c0,1.09-1.09,2.18-2.18,2.18s-2.18-1.09-2.18-2.18v-12.19l-2.83,2.83c-.87.87-2.18.87-3.05,0s-.87-2.18,0-3.05l6.53-6.53c.22-.22.44-.44.65-.44.44-.22,1.09-.22,1.74,0,.22.22.44.22.65.44l6.53,6.53c.87.87.87,2.18,0,3.05Z"/>
  </g>
</svg>