<?xml version="1.0" encoding="UTF-8"?><svg id="a" xmlns="http://www.w3.org/2000/svg" width="35" height="35" viewBox="0 0 35 35"><path d="M17.5.765h0c9.242,0,16.735,7.493,16.735,16.735h0c0,9.242-7.493,16.735-16.735,16.735h0C8.258,34.235.765,26.742.765,17.5h0C.765,8.258,8.258.765,17.5.765Z" fill="#eae5ff"/><path d="M28.235,16.102c.963,1.611,1.479,3.51,1.488,5.496,0,.123-.099.225-.225.225h0c-.123,0-.225-.099-.225-.225-.009-1.905-.501-3.726-1.425-5.268-.222-.372-.468-.738-.729-1.086-.075-.099-.054-.24.045-.315s.24-.054.315.045c.27.363.522.741.756,1.128Z" fill="#5138cc" stroke="#5138cc" stroke-miterlimit="10"/><path d="M13.832,10.8c-3.24.999-5.703,3.315-6.933,6.519-.519,1.347-.759,2.796-.72,4.305.003.123-.096.228-.219.231h-.006c-.12,0-.222-.096-.225-.219-.042-1.569.21-3.075.75-4.479,1.281-3.336,3.846-5.745,7.221-6.789,3.681-1.137,7.83-.462,11.103,1.803.102.072.129.21.057.312-.072.102-.21.129-.312.057-3.159-2.184-7.164-2.838-10.716-1.74Z" fill="#5138cc" stroke="#5138cc" stroke-miterlimit="10"/><path d="M27.488,12.636c.063-.087.057-.207-.015-.285s-.192-.096-.282-.039c-1.539.939-3.222,1.971-4.914,3.006-1.497.918-3,1.839-4.413,2.706-.114-.021-.225-.039-.342-.051-.624-.066-1.251.027-1.86.27-1.509.609-2.556,2.169-2.55,3.798.009,1.626,1.071,3.177,2.583,3.774.462.183.957.27,1.449.27,1.119,0,2.241-.45,3.012-1.275.711-.756,1.098-1.8,1.041-2.784-.012-.204-.039-.408-.078-.606.936-1.278,1.908-2.631,2.85-3.939,1.17-1.623,2.376-3.3,3.519-4.845Z" fill="#5138cc"/><path d="M17.866,11.77l.015,1.659c0,.123-.099.225-.222.228h-.003c-.123,0-.225-.099-.225-.222l-.015-1.659c0-.123.099-.225.222-.228h.003c.123,0,.225.099.225.222Z" fill="#5138cc"/><path d="M11.69,15.675c.09.087.09.228.003.318-.045.045-.102.066-.162.066-.057,0-.114-.021-.159-.063l-1.185-1.161c-.09-.087-.09-.228-.003-.318s.228-.09.318-.003l1.188,1.161Z" fill="#5138cc"/><path d="M9.398,22.188c0,.123-.099.225-.222.228l-1.659.015h-.003c-.123,0-.225-.099-.225-.222s.099-.225.222-.228l1.659-.015h.003c.123,0,.225.099.225.222Z" fill="#5138cc"/><path d="M27.999,21.955c0,.123-.099.225-.222.228l-1.659.015h-.003c-.123,0-.225-.099-.225-.222s.099-.225.222-.228l1.659-.015h.003c.123,0,.222.099.225.222Z" fill="#5138cc"/><path d="M14.489,21.667h-.005l-.266.144-.04-.157.334-.179h.176v1.527h-.2v-1.335Z" fill="#eae5ff"/><path d="M16.522,22.931c-.092.032-.273.087-.487.087-.24,0-.437-.062-.592-.209-.136-.132-.221-.344-.221-.59.002-.473.327-.818.858-.818.183,0,.327.04.395.073l-.049.167c-.084-.038-.19-.068-.35-.068-.385,0-.637.239-.637.637,0,.402.242.64.611.64.134,0,.226-.02.272-.043v-.472h-.322v-.165h.522v.762Z" fill="#eae5ff"/><path d="M16.815,23.002c.005-.077.009-.192.009-.294v-1.374h.205v.714h.005c.073-.127.204-.209.388-.209.282,0,.481.235.479.58,0,.407-.256.608-.51.608-.165,0-.296-.063-.38-.214h-.007l-.009.188h-.179ZM17.029,22.546c0,.026.005.052.009.075.04.144.16.242.31.242.216,0,.346-.176.346-.438,0-.228-.118-.423-.338-.423-.141,0-.272.097-.315.254-.005.023-.012.052-.012.085v.204Z" fill="#eae5ff"/><path d="M18.159,22.236c0-.146-.004-.264-.009-.372h.186l.01.195h.004c.084-.139.219-.221.404-.221.275,0,.481.232.481.578,0,.409-.249.61-.517.61-.15,0-.282-.065-.35-.178h-.005v.617h-.205v-1.23ZM18.364,22.539c0,.03.005.059.009.085.038.143.162.241.31.241.219,0,.346-.178.346-.439,0-.228-.12-.423-.338-.423-.141,0-.272.102-.312.257-.007.025-.014.056-.014.084v.195Z" fill="#eae5ff"/><path d="M19.466,22.79c.061.04.169.083.272.083.15,0,.221-.075.221-.17,0-.099-.059-.152-.211-.209-.205-.072-.301-.186-.301-.321,0-.184.148-.334.393-.334.115,0,.216.033.279.07l-.051.15c-.045-.028-.127-.065-.233-.065-.122,0-.19.07-.19.155,0,.094.068.136.216.192.197.075.298.174.298.343,0,.2-.155.341-.425.341-.125,0-.24-.03-.319-.077l.052-.158Z" fill="#eae5ff"/></svg>