<?xml version="1.0" encoding="UTF-8"?><svg id="a" xmlns="http://www.w3.org/2000/svg" width="85" height="85" viewBox="0 0 85 85"><circle cx="42.5" cy="42.5" r="41.53" fill="#eae5ff" stroke-width="0"/><path d="M59.071,23.088h6.492v1.075h-6.492v-1.075ZM59.071,22.358h6.492v-1.075h-6.492v1.075ZM59.071,20.554h6.492v-1.075h-6.492v1.075ZM59.071,18.75h6.492v-1.075h-6.492v1.075ZM19.849,66.456h-1.354v1.075h1.354v-1.075ZM22.501,66.456h-1.354v1.075h1.354v-1.075ZM18.495,62.768h1.354v-1.075h-1.354v1.075ZM21.147,62.768h1.354v-1.075h-1.354v1.075ZM68.947,61.375c0,.516-.053,1.031-.159,1.536l-.072.34-1.567.343c-.022.055-.044.109-.067.163l.807,1.455-.181.272c-.565.853-1.301,1.579-2.161,2.133l-.318.206-1.218-.934-.005.003-.282,1.587-.334.087c-1.239.32-2.54.317-3.777-.009l-.334-.088-.267-1.552-1.281.86-.299-.197c-.859-.566-1.592-1.304-2.15-2.168l-.175-.27.81-1.475-.023-.056-1.577-.373-.07-.334c-.009-.045-.013-.091-.021-.135h-18.843v7.144h-19.333v-10.601h19.333v2.381h6.577v-7.659c-4.658-.068-9.465-1.028-9.465-3.05v-1.373l-4.076-.006v2.505s-1.074.001-1.074.001l-.002-3.582,5.152.007v-1.648c.028-.467.266-.897.648-1.168-.383-.272-.621-.704-.648-1.173v-.835h-2.402v-1.075h2.402v-2.186c.028-.467.266-.897.648-1.168-.383-.272-.621-.704-.648-1.172v-1.099l-5.045.007.003-2.744h1.075s-.002,1.668-.002,1.668l3.969-.006v-1.921c0-2.022,4.807-2.981,9.465-3.05v-8.196h-8.655v2.094c0,.827-.671,1.497-1.498,1.498h-12.359c-.728,0-1.319-.591-1.32-1.319v-8.406c0-.728.591-1.318,1.32-1.319h12.538c.728,0,1.318.591,1.319,1.319v5.058h23.417v-6.607h11.187v14.001h-11.187v-6.319h-13.686v8.196c4.658.068,9.465,1.028,9.465,3.05v2.261l4.111.006v-2.505s1.074-.001,1.074-.001l.002,3.582-5.188-.007v.76c-.027.469-.265.9-.648,1.173.382.271.62.701.648,1.168v1.723h2.437v1.075h-2.437v1.297c-.027.469-.265.9-.648,1.173.382.271.62.7.648,1.168v1.988l5.08-.007-.003,2.743h-1.075s.002-1.667.002-1.667l-4.004.006v1.033c0,2.022-4.807,2.981-9.465,3.05v7.659h11.071c-.005-.106-.016-.212-.016-.318,0-.51.052-1.019.155-1.519l.071-.34,1.568-.352c.026-.066.052-.13.08-.194l-.876-1.335.19-.294c.545-.842,1.254-1.565,2.086-2.126l.284-.192,1.352.814.26-1.55.334-.089c1.253-.332,2.57-.334,3.824-.006l.329.087.271,1.452,1.242-.783.288.187c.857.554,1.591,1.278,2.155,2.128l.178.268-.793,1.483.031.075,1.614.49.064.314c.098.487.147.983.147,1.48ZM57.799,28.015h9.037v-11.852h-9.037v11.852ZM21.693,18.739h10.295c.083.008.165.025.244.049v-2.151c0-.135-.109-.244-.244-.244h-12.538c-.135,0-.244.109-.245.244v8.406c0,.135.11.244.245.244h.64c.119-.015.283-.089.283-.244v-4.985c0-.728.591-1.318,1.319-1.319ZM32.232,20.058c0-.135-.109-.244-.244-.244h-10.295c-.135,0-.244.109-.244.244v4.985c0,.082-.008.164-.024.244h10.384c.233,0,.422-.189.423-.423v-4.806ZM33.573,34.016c0,.672,3.151,1.981,8.927,1.981s8.927-1.309,8.927-1.981-3.151-1.981-8.927-1.981-8.927,1.309-8.927,1.981h0ZM33.573,40.452c0,.672,3.151,1.981,8.927,1.981s8.927-1.309,8.927-1.981c0-.115-.166-.324-.57-.565-2.681.946-5.516,1.38-8.358,1.281-2.841.099-5.676-.336-8.357-1.281-.404.241-.57.45-.57.565h0ZM33.573,46.888c0,.673,3.151,1.982,8.927,1.982s8.927-1.309,8.927-1.982c0-.115-.166-.324-.57-.565-2.681.946-5.516,1.381-8.357,1.282-2.841.099-5.676-.336-8.357-1.281-.405.241-.57.45-.57.565h0ZM34.311,65.149h-17.183v3.688h17.183v-3.688ZM34.311,64.074v-3.688h-17.183v3.688h17.183ZM67.872,61.375c0-.32-.024-.639-.071-.955l-1.502-.457-.091-.256c-.058-.163-.125-.323-.199-.479l-.118-.246.739-1.383c-.387-.525-.854-.987-1.382-1.37l-1.277.805-.269-.132c-.108-.052-.217-.101-.329-.146l-.273-.11-.279-1.491c-.862-.177-1.752-.176-2.613.003l-.249,1.482-.28.112c-.145.058-.287.122-.426.194l-.267.137-1.293-.778c-.502.378-.944.828-1.313,1.337l.819,1.249-.138.276c-.101.203-.188.414-.26.629l-.096.288-1.466.329c-.097.643-.097,1.297.002,1.939l1.472.348.096.281c.056.165.122.328.195.486l.115.247-.755,1.375c.382.532.845,1.001,1.372,1.39l1.227-.824.282.146c.143.074.29.141.44.2l.281.111.255,1.483c.847.174,1.721.176,2.569.006l.263-1.482.28-.11c.168-.066.333-.142.493-.226l.304-.16,1.143.877c.517-.378.974-.833,1.355-1.348l-.753-1.357.123-.252c.092-.189.172-.384.238-.584l.097-.289,1.465-.321c.05-.323.075-.649.074-.976h0ZM64.284,61.375c0,1.527-1.238,2.765-2.765,2.765-1.527,0-2.765-1.238-2.765-2.765,0-1.527,1.238-2.765,2.765-2.765,1.526.002,2.763,1.238,2.765,2.765h0ZM63.209,61.375c0-.933-.756-1.69-1.69-1.69-.933,0-1.69.756-1.69,1.69,0,.933.756,1.69,1.69,1.69h0c.933-.001,1.689-.757,1.69-1.69h0ZM28.649,42.638h-1.4v1.075h1.4v-1.075ZM27.351,53.381l-.004,1.623,1.075.003.004-1.623-1.075-.003ZM56.387,43.251h1.4v-1.075h-1.4v1.075ZM56.609,32.504l1.075.003.004-1.623-1.075-.003-.004,1.623Z" fill="#6232d7" stroke-width="0"/></svg>