<?xml version="1.0" encoding="UTF-8"?>
<svg id="Screen" xmlns="http://www.w3.org/2000/svg" viewBox="0 0 70 70">
  <defs>
    <style>
      .cls-1 {
        fill: #fff;
      }

      .cls-2 {
        fill: #e7e3fd;
      }

      .cls-3 {
        fill: none;
        stroke: #fff;
        stroke-miterlimit: 10;
        stroke-width: .25px;
      }

      .cls-4 {
        fill: #5138cc;
      }
    </style>
  </defs>
  <g id="Character">
    <rect class="cls-4" x="1.32" y="1.32" width="67.36" height="67.36" rx="12.09" ry="12.09"/>
  </g>
  <g>
    <path class="cls-3" d="m7.81,11.05c0,.2.06.4.21.55.15.18.38.29.61.27h10.97c.45.04.85-.3.89-.75v-.07c-.04-.48-.42-.86-.89-.89h-10.97c-.45,0-.82.36-.82.82v.07h0Z"/>
    <rect class="cls-3" x="11.99" y="18.46" width="8.98" height="1.7" rx=".82" ry=".82"/>
    <rect class="cls-3" x="6.92" y="25.36" width="5.49" height="1.7" rx=".82" ry=".82"/>
    <rect class="cls-3" x="11.44" y="29.26" width="8.98" height="1.7" rx=".82" ry=".82"/>
    <circle class="cls-3" cx="9.93" cy="15.91" r=".82"/>
    <circle class="cls-3" cx="15.11" cy="23.47" r=".82"/>
  </g>
  <g>
    <path class="cls-3" d="m44.83,39.48c0,.2.06.4.21.55.15.18.38.29.61.27h10.97c.45.04.85-.3.89-.75v-.07c-.04-.48-.42-.86-.89-.89h-10.97c-.45,0-.82.36-.82.82v.07h0Z"/>
    <rect class="cls-3" x="49" y="46.89" width="8.98" height="1.7" rx=".82" ry=".82"/>
    <rect class="cls-3" x="43.93" y="53.8" width="5.49" height="1.7" rx=".82" ry=".82"/>
    <rect class="cls-3" x="48.46" y="57.69" width="8.98" height="1.7" rx=".82" ry=".82"/>
    <circle class="cls-3" cx="46.95" cy="44.35" r=".82"/>
    <circle class="cls-3" cx="52.13" cy="51.91" r=".82"/>
  </g>
  <g>
    <g>
      <path class="cls-4" d="m25.62,17.88h-5.82c0,16.98.1,29.05,16.46,40.27,16.38-11.23,16.48-23.29,16.48-40.27h-6.65"/>
      <path class="cls-1" d="m36.26,58.53c-.08,0-.15-.02-.22-.06-7.64-5.24-12.25-11.01-14.52-18.17-2.12-6.67-2.12-13.96-2.12-22.41,0-.21.16-.38.38-.38h5.82c.21,0,.38.16.38.38s-.16.38-.38.38h-5.45c0,16.45.12,28.39,16.1,39.45,15.98-11.06,16.1-23,16.1-39.45h-6.27c-.21,0-.38-.16-.38-.38s.16-.38.38-.38h6.65c.21,0,.38.16.38.38,0,8.44,0,15.73-2.12,22.41-2.27,7.16-6.88,12.93-14.52,18.17-.06.04-.14.06-.22.06h.01Z"/>
    </g>
    <g>
      <polyline class="cls-4" points="22.23 17.88 22.23 13.49 50.22 13.49 50.22 17.88"/>
      <path class="cls-1" d="m50.22,18.25c-.21,0-.38-.16-.38-.38v-4.03h-27.25v4.03c0,.21-.17.38-.38.38s-.38-.16-.38-.38v-4.39c0-.21.16-.38.38-.38h27.99c.21,0,.38.16.38.38v4.39c0,.21-.16.38-.38.38h.01Z"/>
    </g>
    <g>
      <path class="cls-2" d="m41.49,28.46h-10.45c-1.01,0-1.84.82-1.84,1.84v6.66c0,2.7,2.21,4.91,4.91,4.91h4.52c2.58,0,4.69-2.12,4.69-4.7v-6.88c0-1.01-.82-1.84-1.84-1.84Z"/>
      <path class="cls-2" d="m38.64,42.24h-4.52c-2.92,0-5.29-2.38-5.29-5.29v-6.66c0-1.22.99-2.21,2.21-2.21h10.45c1.22,0,2.21.99,2.21,2.21v6.88c0,2.8-2.27,5.06-5.06,5.06h0Zm-7.6-13.4c-.81,0-1.47.66-1.47,1.46v6.66c0,2.5,2.04,4.55,4.55,4.55h4.52c2.39,0,4.32-1.94,4.32-4.32v-6.88c0-.81-.66-1.46-1.46-1.46h-10.46Z"/>
    </g>
    <g>
      <path class="cls-4" d="m31.64,28.32h9.25v-3.22c0-1.77-1.45-3.22-3.22-3.22h-2.82c-1.77,0-3.22,1.45-3.22,3.22,0,0,0,3.22,0,3.22Z"/>
      <path class="cls-2" d="m40.88,28.69h-9.25c-.21,0-.38-.16-.38-.38v-3.22c0-1.98,1.61-3.58,3.58-3.58h2.82c1.98,0,3.58,1.61,3.58,3.58v3.22c0,.21-.16.38-.38.38h.02Zm-8.87-.74h8.51v-2.85c0-1.57-1.27-2.84-2.84-2.84h-2.82c-1.57,0-2.84,1.27-2.84,2.84v2.85h-.01Z"/>
    </g>
    <path class="cls-4" d="m37.05,39.05h-1.59c-.28,0-.51-.23-.51-.51v-2.29c-.83-.46-1.36-1.35-1.36-2.32,0-1.47,1.19-2.66,2.66-2.66s2.66,1.19,2.66,2.66c0,.98-.53,1.86-1.36,2.32v2.29c0,.28-.23.51-.51.51h.01Zm-1-1.78h.41v-1.54c0-.15.1-.29.24-.35.46-.18.77-.63.77-1.12,0-.66-.54-1.2-1.21-1.2s-1.21.54-1.21,1.2c0,.5.3.94.77,1.12.14.05.24.19.24.35,0,0,0,1.54,0,1.54Z"/>
  </g>
</svg>