<?xml version="1.0" encoding="UTF-8"?><svg id="a" xmlns="http://www.w3.org/2000/svg" width="70" height="70" viewBox="0 0 70 70"><rect x="1.152" y="1.152" width="67.696" height="67.696" rx="11.185" ry="11.185" fill="#fff"/><path d="M18.443,54.19h33.114c1.386,0,2.509-1.123,2.509-2.509V18.318c0-1.386-1.123-2.509-2.509-2.509H18.443c-1.386,0-2.509,1.123-2.509,2.509v33.365c0,1.386,1.123,2.509,2.509,2.509h0ZM15.935,23.335h38.131" fill="none" stroke="#6b46f2" stroke-miterlimit="10" stroke-width="2"/><circle cx="19.447" cy="19.823" r="1.003" fill="#6b46f2"/><circle cx="22.959" cy="19.823" r="1.003" fill="#6b46f2"/><circle cx="26.471" cy="19.823" r="1.003" fill="#6b46f2"/><circle cx="27.976" cy="31.362" r="2.683" fill="#6b46f2"/><circle cx="40.519" cy="38.386" r="2.565" fill="#6b46f2"/><circle cx="35" cy="46.414" r="2.669" fill="#6b46f2"/><path d="M23.46,31.362h2.126M46.54,31.362h-16.247M23.46,38.386h14.728M46.54,38.386h-3.644M23.46,46.414h9.262M46.54,46.414h-9.11" fill="none" stroke="#6b46f2" stroke-miterlimit="10" stroke-width="2"/></svg>