<?xml version="1.0" encoding="UTF-8"?><svg id="a" xmlns="http://www.w3.org/2000/svg" width="813.13" height="119.739" xmlns:xlink="http://www.w3.org/1999/xlink" viewBox="0 0 813.13 119.739"><defs><filter id="b" filterUnits="userSpaceOnUse"><feOffset dx="7" dy="7"/><feGaussianBlur result="c" stdDeviation="5"/><feFlood flood-color="#4c4c4c" flood-opacity=".75"/><feComposite in2="c" operator="in"/><feComposite in="SourceGraphic"/></filter><filter id="d" filterUnits="userSpaceOnUse"><feOffset dx="7" dy="7"/><feGaussianBlur result="e" stdDeviation="5"/><feFlood flood-color="#4c4c4c" flood-opacity=".75"/><feComposite in2="e" operator="in"/><feComposite in="SourceGraphic"/></filter><filter id="f" filterUnits="userSpaceOnUse"><feOffset dx="7" dy="7"/><feGaussianBlur result="g" stdDeviation="5"/><feFlood flood-color="#4c4c4c" flood-opacity=".75"/><feComposite in2="g" operator="in"/><feComposite in="SourceGraphic"/></filter><filter id="h" filterUnits="userSpaceOnUse"><feOffset dx="7" dy="7"/><feGaussianBlur result="i" stdDeviation="5"/><feFlood flood-color="#4c4c4c" flood-opacity=".75"/><feComposite in2="i" operator="in"/><feComposite in="SourceGraphic"/></filter><filter id="j" filterUnits="userSpaceOnUse"><feOffset dx="7" dy="7"/><feGaussianBlur result="k" stdDeviation="5"/><feFlood flood-color="#4c4c4c" flood-opacity=".75"/><feComposite in2="k" operator="in"/><feComposite in="SourceGraphic"/></filter><filter id="l" filterUnits="userSpaceOnUse"><feOffset dx="7" dy="7"/><feGaussianBlur result="m" stdDeviation="5"/><feFlood flood-color="#4c4c4c" flood-opacity=".75"/><feComposite in2="m" operator="in"/><feComposite in="SourceGraphic"/></filter><filter id="n" filterUnits="userSpaceOnUse"><feOffset dx="7" dy="7"/><feGaussianBlur result="o" stdDeviation="5"/><feFlood flood-color="#4c4c4c" flood-opacity=".75"/><feComposite in2="o" operator="in"/><feComposite in="SourceGraphic"/></filter><linearGradient id="p" x1="38.984" y1="57.978" x2="82.848" y2="57.978" gradientUnits="userSpaceOnUse"><stop offset="0" stop-color="#21b9ec"/><stop offset="1" stop-color="#3bc4ed"/></linearGradient></defs><rect x="20.32" y="15.522" width="83.793" height="84.913" rx="9.685" ry="9.685" fill="#fff" filter="url(#b)"/><rect x="134.58" y="15.522" width="83.793" height="84.913" rx="9.685" ry="9.685" fill="#fff" filter="url(#d)"/><rect x="248.841" y="15.522" width="83.793" height="84.913" rx="9.685" ry="9.685" fill="#fff" filter="url(#f)"/><rect x="363.102" y="15.522" width="83.793" height="84.913" rx="9.685" ry="9.685" fill="#fff" filter="url(#h)"/><rect x="477.363" y="15.522" width="83.793" height="84.913" rx="9.685" ry="9.685" fill="#fff" filter="url(#j)"/><rect x="591.624" y="15.522" width="83.793" height="84.913" rx="9.685" ry="9.685" fill="#fff" filter="url(#l)"/><rect x="705.885" y="15.522" width="83.793" height="84.913" rx="9.685" ry="9.685" fill="#fff" filter="url(#n)"/><path d="M200.635,39.176h-45.126c-3.561,0-6.446,2.886-6.446,6.446v19.34c0,3.561,2.886,6.446,6.446,6.446h22.563l8.058,5.213c.922.553,1.994-.441,1.514-1.402l-2.051-3.811h15.042c3.561,0,6.446-2.886,6.446-6.446v-19.34c0-3.561-2.886-6.446-6.446-6.446h0Z" fill="#7f54b3"/><path d="M198.263,50.473c.05,0,.162.007.34.046.42.095.686.243,1.007.842.38.686.565,1.575.565,2.719,0,1.717-.389,3.24-1.195,4.668-.867,1.546-1.501,1.546-1.805,1.546-.05,0-.162-.007-.34-.046-.42-.095-.686-.243-.994-.818-.385-.704-.578-1.636-.578-2.766,0-1.718.386-3.23,1.183-4.623.893-1.57,1.541-1.57,1.817-1.57M198.263,46.79c-2.051,0-3.715,1.143-5.019,3.43-1.11,1.943-1.665,4.091-1.665,6.446,0,1.761.342,3.268,1.025,4.527.768,1.441,1.901,2.309,3.418,2.653.405.091.79.137,1.153.137,2.072,0,3.737-1.143,5.019-3.43,1.11-1.966,1.665-4.115,1.665-6.469,0-1.782-.342-3.268-1.025-4.504-.768-1.441-1.901-2.309-3.418-2.653-.405-.091-.79-.137-1.153-.137h0ZM183.527,50.473c.05,0,.162.007.329.044.41.094.702.255,1.018.846.38.686.565,1.574.565,2.718,0,1.717-.389,3.24-1.195,4.668-.867,1.546-1.501,1.546-1.805,1.546-.05,0-.162-.007-.34-.046-.42-.095-.686-.243-.994-.818-.385-.705-.578-1.636-.578-2.766,0-1.718.386-3.23,1.183-4.623.895-1.569,1.542-1.569,1.818-1.569M183.527,46.79c-2.051,0-3.715,1.143-5.019,3.43-1.11,1.943-1.665,4.091-1.665,6.446,0,1.761.342,3.268,1.025,4.527.768,1.441,1.901,2.309,3.418,2.653.405.091.79.137,1.153.137,2.072,0,3.737-1.143,5.019-3.43,1.11-1.966,1.665-4.115,1.665-6.469,0-1.782-.342-3.268-1.025-4.504-.768-1.441-1.922-2.309-3.418-2.653-.405-.091-.789-.137-1.153-.137h0ZM171.318,66.437c-.517,0-1.022-.218-1.379-.62-2.697-3.044-4.352-7.042-5.329-10.245-1.404,2.972-3.301,6.772-5.22,9.97-.379.633-1.098.972-1.831.878-.732-.102-1.332-.63-1.525-1.342-2.716-9.979-3.693-17.13-3.732-17.43-.135-1.007.573-1.934,1.579-2.07,1.021-.132,1.935.571,2.072,1.579.009.06.702,5.13,2.496,12.524,2.724-5.167,5.008-10.48,5.037-10.548.328-.762,1.128-1.214,1.94-1.099.82.111,1.467.755,1.578,1.575.009.063.665,4.696,2.757,9.15.883-8.799,3.527-13.31,3.662-13.533.524-.873,1.658-1.155,2.527-.633.873.523,1.155,1.656.633,2.527-.031.054-3.422,5.95-3.422,17.475,0,.765-.474,1.452-1.188,1.721-.217.082-.437.122-.656.122h0Z" fill="#fff"/><path d="M302.172,76.019c-.087-.331-.296-.375-.628-.13-.523.383-1.281.724-2.274,1.02s-2.135.444-3.425.444c-2.249,0-3.931-.427-5.046-1.281-.087-.07-.201-.105-.34-.105-.191,0-.418.105-.68.314-.122.105-.188.244-.196.418s.056.348.196.523c.593.558,1.355.959,2.287,1.202s1.826.353,2.68.327c.854-.026,1.717-.065,2.588-.118.715-.07,1.451-.249,2.209-.536s1.325-.549,1.7-.785.623-.414.745-.536c.209-.209.27-.462.183-.758h0ZM301.153,73.013c-.331-.819-.671-1.351-1.02-1.595-.401-.262-1.063-.392-1.987-.392-.819,0-1.438.087-1.856.262-.505.209-1.185.697-2.039,1.464-.453.418-.558.802-.314,1.15.157.139.309.179.457.118s.423-.266.823-.614c.052-.035.144-.109.274-.222s.222-.188.274-.222.139-.096.262-.183.222-.148.301-.183.188-.078.327-.13.27-.092.392-.118.266-.048.431-.065.345-.026.536-.026c.471,0,.859.065,1.164.196s.505.257.601.379.213.314.353.575c.175.296.283.471.327.523s.152.044.327-.026c.401-.209.523-.505.366-.889v-.003h0ZM310.435,65.666c0-.383-.044-.771-.13-1.164s-.231-.785-.431-1.177-.497-.711-.889-.954-.85-.366-1.372-.366c-.575,0-1.42.361-2.536,1.085s-2.24,1.451-3.373,2.183-2.013,1.098-2.641,1.098c-.471.018-1.024-.148-1.66-.497s-1.298-.776-1.987-1.281c-.688-.505-1.417-1.011-2.183-1.516s-1.639-.933-2.614-1.281-1.944-.514-2.902-.497c-2.005.018-3.722.702-5.151,2.052-1.429,1.351-2.161,2.906-2.196,4.667-.035,1.953.61,3.381,1.935,4.288.505.348,1.05.597,1.634.745s1.486.222,2.706.222c.993,0,2.144-.283,3.451-.85s2.475-1.185,3.503-1.856c1.028-.671,2.074-1.285,3.137-1.843s1.874-.828,2.431-.81c.453.018,1.02.292,1.7.823s1.303,1.116,1.87,1.751c.567.636,1.159,1.224,1.778,1.765.619.54,1.103.819,1.451.837.61.052,1.119-.07,1.529-.366s.893-.845,1.451-1.647c.488-.715.859-1.595,1.111-2.641s.379-1.969.379-2.771h0s0,0,0,0ZM311.82,61.483c0,2.859-.54,5.512-1.621,7.961-1.081,2.449-2.527,4.505-4.34,6.17s-3.926,2.967-6.34,3.908c-2.414.941-4.946,1.412-7.595,1.412s-5.202-.501-7.66-1.503-4.615-2.37-6.471-4.105-3.343-3.839-4.458-6.314c-1.116-2.475-1.673-5.107-1.673-7.895,0-1.551.17-3.054.51-4.51s.767-2.724,1.281-3.804,1.129-2.113,1.843-3.098c.715-.985,1.399-1.804,2.052-2.458s1.338-1.26,2.052-1.817,1.276-.964,1.686-1.216.78-.466,1.111-.641c.244-.139.688-.37,1.334-.693s1.119-.571,1.425-.745.724-.436,1.255-.785c.532-.348,1.059-.732,1.582-1.15.628-.488,1.133-1.119,1.516-1.895s.645-1.87.785-3.281c2.249,2.702,3.87,4.384,4.863,5.046.767.505,1.9,1.098,3.399,1.778s2.623,1.255,3.373,1.726c.366.227.706.444,1.02.654s.841.614,1.582,1.216,1.403,1.216,1.987,1.843,1.238,1.455,1.961,2.484,1.325,2.092,1.804,3.19.889,2.392,1.229,3.882.51,3.038.51,4.641l.002.002h0Z" fill="#008ac9"/><path d="M387.388,57.978c0,7.795,4.53,14.531,11.099,17.724l-9.394-25.738c-1.093,2.449-1.705,5.16-1.705,8.015h0Z" fill="#21759b"/><path d="M420.375,56.984c0-2.434-.874-4.119-1.624-5.431-.998-1.622-1.934-2.996-1.934-4.618,0-1.81,1.373-3.495,3.307-3.495.087,0,.17.011.255.016-3.504-3.21-8.172-5.17-13.298-5.17-6.88,0-12.933,3.53-16.454,8.876.462.014.897.024,1.267.024,2.06,0,5.248-.25,5.248-.25,1.062-.063,1.187,1.497.126,1.622,0,0-1.067.126-2.254.188l7.171,21.331,4.31-12.925-3.068-8.407c-1.061-.062-2.065-.188-2.065-.188-1.061-.062-.937-1.685.124-1.622,0,0,3.252.25,5.187.25,2.059,0,5.248-.25,5.248-.25,1.062-.063,1.187,1.497.126,1.622,0,0-1.069.126-2.254.188l7.117,21.169,1.964-6.564c.851-2.724,1.499-4.68,1.499-6.366h0Z" fill="#21759b"/><path d="M407.426,59.7l-5.909,17.169c1.764.519,3.63.802,5.563.802,2.293,0,4.493-.396,6.54-1.116-.053-.084-.101-.174-.14-.271l-6.054-16.584Z" fill="#21759b"/><path d="M424.361,48.53c.085.627.133,1.301.133,2.025,0,1.999-.373,4.245-1.497,7.054l-6.015,17.392c5.855-3.414,9.792-9.757,9.792-17.022,0-3.424-.874-6.643-2.412-9.449Z" fill="#21759b"/><path d="M407.081,35.023c-12.658,0-22.956,10.297-22.956,22.955s10.299,22.956,22.956,22.956,22.957-10.297,22.957-22.956c0-12.658-10.3-22.955-22.957-22.955ZM407.081,79.882c-12.077,0-21.903-9.826-21.903-21.904s9.826-21.902,21.903-21.902,21.902,9.826,21.902,21.903-9.826,21.904-21.902,21.904h0Z" fill="#21759b"/><path d="M769.014,43.568c0-2.865-2.323-5.188-5.188-5.188-2.616,0-4.779,1.937-5.135,4.454-.033-.018-.053-.028-.053-.028-4.242-1.914-7.816,1.476-7.816,1.476l-9.453,9.499,3.735,3.597,7.609-7.475c3.553-3.553,5.487-1.148,5.487-1.148,2.675,2.259.092,4.934.092,4.934l3.827,3.689c3.125-3.376,3.307-6.322,2.357-8.665,2.558-.32,4.537-2.501,4.537-5.146" fill="#f9ae41"/><path d="M764.525,67.426c.018-.033.028-.052.028-.052,1.914-4.243-1.476-7.816-1.476-7.816l-9.499-9.453-3.597,3.735,7.475,7.609c3.553,3.553,1.148,5.488,1.148,5.488-2.259,2.675-4.934.092-4.934.092l-3.689,3.827c3.375,3.125,6.322,3.307,8.665,2.357.32,2.558,2.501,4.537,5.146,4.537,2.865,0,5.188-2.323,5.188-5.188,0-2.616-1.937-4.779-4.454-5.135" fill="#ee4035"/><path d="M753.659,58.578l-7.609,7.475c-3.553,3.553-5.488,1.148-5.488,1.148-2.675-2.26-.092-4.934-.092-4.934l-3.827-3.689c-3.125,3.375-3.307,6.322-2.357,8.665-2.558.32-4.537,2.501-4.537,5.146,0,2.865,2.323,5.188,5.188,5.188,2.616,0,4.779-1.936,5.135-4.454.033.018.053.027.053.027,4.243,1.914,7.816-1.476,7.816-1.476l9.453-9.499-3.735-3.597" fill="#4f91cd"/><path d="M741.308,54.508c-3.553-3.553-1.148-5.488-1.148-5.488,2.26-2.675,4.934-.092,4.934-.092l3.689-3.827c-3.375-3.125-6.322-3.307-8.665-2.357-.32-2.558-2.501-4.537-5.146-4.537-2.865,0-5.187,2.323-5.188,5.188,0,2.616,1.937,4.779,4.454,5.135-.018.033-.027.053-.027.053-1.914,4.242,1.476,7.816,1.476,7.816l9.5,9.453,3.597-3.735-7.475-7.609" fill="#7ac043"/><path d="M649.799,72.105v-22.026c.029-.225-.081-.446-.279-.558l-6.134-3.718-7.528-4.554c-.385-.354-.965-.393-1.394-.093l-5.948,3.718-7.714,4.647c-.183.079-.295.266-.279.465v22.119h-.279l-4.368-2.602c-.183-.079-.295-.266-.279-.465v-22.026c-.016-.199.096-.386.279-.465l7.156-4.368,7.063-4.275,4.74-2.881h.558l3.439,2.138,4.182,2.509,5.576,3.346,5.855,3.532c.186.093.186.279.186.558v21.933c.02.15-.054.297-.186.372l-4.368,2.602-.279.093Z" fill="#ec6737"/><path d="M632.42,48.87v25.93c0,.279.093.372.372.558l2.138,1.301c.186.093.279.093.465-.093l2.138-1.301c.186-.093.279-.186.279-.372-.093-2.881-.093-5.762-.093-8.643.093-5.669.093-11.431.093-17.101v-.372l1.208.836c1.766,1.022,3.532,2.045,5.205,3.16.186.093.279.186.279.372v21.84c.055.251-.103.499-.354.554-.006.001-.012.003-.018.004l-5.112,3.16-3.625,2.231h-.558l-3.253-1.952-5.483-3.439c-.186-.093-.279-.186-.279-.372v-21.933c-.016-.199.096-.386.279-.465l6.041-3.81.279-.093Z" fill="#ec6737"/><path d="M514.416,70.32c.369-.164.742-.315,1.119-.457.426-.16.855-.31,1.29-.441.541-.163,1.087-.311,1.64-.428.746-.158,1.501-.276,2.261-.349-.426,1.341-.898,2.674-1.408,3.999.022.257.034.515.04.774,1.029-.203,2.091-.312,3.179-.312s2.15.109,3.179.312c.007-.259.019-.517.04-.774-.511-1.325-.982-2.658-1.408-3.999.76.074,1.515.191,2.261.349.553.117,1.099.265,1.64.428.435.131.864.281,1.29.441.377.142.751.293,1.12.457,2.616,1.165,5.001,2.893,6.958,5.136,4.903-4.234,8.011-10.491,8.011-17.478,0-12.752-10.338-23.09-23.09-23.09s-23.09,10.338-23.09,23.09c0,6.987,3.108,13.243,8.011,17.478,1.956-2.243,4.342-3.971,6.958-5.136" fill="#a5dbe8"/><path d="M530.659,70.32l1.433,4.929.407.019c.264,0,.45.069.45.333,0,.439.023.932.065,1.362.357.303.792.645,1.122.978,1.239-.721,2.403-1.554,3.482-2.485-1.956-2.243-4.341-3.971-6.958-5.136" fill="#525353"/><path d="M527.856,70.271l1.683-.408c-.426-.16-.855-.31-1.29-.441-.541-.163-1.087-.311-1.64-.428-.746-.158-1.501-.276-2.261-.349.426,1.341.898,2.674,1.408,3.999-.022.257-.034.515-.04.774,1.193.235,2.365.644,3.449,1.123l-1.309-4.269" fill="#525353"/><path d="M510.94,77.941c.268.156.539.309.814.454.096-.463.25-1.104.297-1.58-.357.303-.781.793-1.111,1.126"/><path d="M529.137,74.497c-1.084-.479-2.229-.846-3.421-1.081-1.029-.203-2.091-.312-3.179-.312s-2.15.109-3.179.312c-1.192.235-2.437.592-3.52,1.071l-.115.718h13.629l-.215-.708"/><path d="M512.008,76.952c.042-.43.073-.814.073-1.253,0-.264.181-.433.445-.433l.433-.015,1.457-4.931c-2.616,1.165-5.002,2.893-6.958,5.136,1.078.931,2.243,1.764,3.482,2.485.33-.332.673-.651,1.03-.954" fill="#525353"/><path d="M533.19,77.829c.093.469.115.562.132.566.275-.146.546-.298.814-.454-.33-.332-.684-.662-1.041-.965l.096.853"/><path d="M529.137,74.497l.215.708h2.788l-1.481-4.886c-.369-.164-.742-.315-1.12-.457l-1.683.408,1.281,4.227" fill="#aa9678"/><path d="M512.984,76.192c.015-.01.029-.021.044-.031h-.042c0,.01-.001.021-.002.031" fill="#c4b6a1"/><path d="M532.089,76.161h-.042c.015.01.029.021.044.031,0-.01-.001-.021-.002-.031" fill="#aa9678"/><path d="M532.041,76.09l-9.523.011.02,4.967c3.544,0,6.901-.801,9.902-2.228-.196-.861-.216-1.788-.247-2.69-.014-.01-.151-.06-.151-.06" fill="#aa9678"/><path d="M522.522,76.121s-9.576-.012-9.591-.002c-.032.902-.218,1.973-.296,2.72,3.001,1.427,6.358,2.228,9.902,2.228l.005-4.931-.021-.016" fill="#c4b6a1"/><path d="M522.537,75.683h0v.478h0v-.478Z" fill="#786453"/><path d="M529.148,71.911c-.07-.08-.141-.166-.216-.263.075.098.146.183.216.263" fill="#525353"/><path d="M529.68,72.438s.002.005.005.015c-.003-.01-.005-.015-.005-.015,0,0-.234-.186-.531-.527.297.342.531.527.531.527" fill="#aa9678"/><path d="M537.664,58.195s0-.005,0-.007c0,.002,0,.005,0,.007" fill="#fff"/><path d="M537.664,58.188s0-.004,0-.006c0,.002,0,.004,0,.006" fill="#bbbcbd"/><path d="M537.638,57.828c0,.006.003.012.003.018,0,.004.002.007.002.011h0c.011.09.015.182.017.275,0,.017.003.033.003.05,0,.002,0,.004,0,.006,0,.002,0,.005,0,.007,0,.018-.003.036-.003.054-.002.091-.006.181-.017.268h0c0,.006-.002.01-.003.014,0,.007-.003.013-.004.02-.013.095-.03.186-.052.273,0,0,0,0,0,.001h0s.003-.003.003-.003c0-.001,0-.003.001-.004h0s.604-.632.604-.632l-.609-.638s0,0,0,.001c.023.089.04.182.053.279" fill="#676a6a"/><path d="M537.638,58.551c.002-.012.005-.023.006-.035.011-.087.015-.177.017-.268,0-.021.003-.04.003-.061,0-.019-.003-.037-.003-.056-.002-.093-.006-.185-.017-.273-.001-.01-.004-.02-.005-.03-.013-.097-.03-.19-.053-.279-.008-.031-.019-.059-.028-.089-.055-.181-.129-.34-.218-.473-.012-.018-.024-.035-.036-.051-.024-.033-.049-.064-.074-.093-.038-.041-.078-.079-.119-.111-.016-.012-.033-.021-.049-.031-.036-.023-.073-.044-.111-.059-.016-.006-.033-.013-.049-.018-.054-.017-.109-.029-.165-.029s-.111.012-.165.029c-.017.005-.033.012-.049.018-.038.015-.075.036-.111.059-.016.01-.033.019-.049.031-.042.032-.081.07-.12.111-.026.029-.05.06-.074.093-.013.017-.025.034-.037.052-.088.133-.163.292-.218.473-.002.007-.005.014-.007.022-.024.083-.043.17-.059.26-.005.027-.011.054-.015.082-.014.1-.022.205-.024.312,0,.015-.003.029-.003.044h.004c0,.88.416,1.592.929,1.592.088,0,.173-.023.254-.063.013-.006.026-.013.039-.021.034-.019.067-.04.098-.066.017-.014.034-.031.051-.047.041-.038.08-.082.117-.13.026-.034.051-.067.074-.105.015-.024.029-.05.043-.076.026-.048.051-.098.073-.151.008-.019.017-.038.024-.057.028-.074.053-.152.074-.233.022-.087.039-.179.052-.273h0ZM536.768,57.976c-.192,0-.349-.268-.349-.597s.156-.597.349-.597.348.268.348.597-.156.597-.348.597h0Z"/><path d="M536.768,56.782c-.192,0-.349.268-.349.597s.156.597.349.597.348-.268.348-.597-.156-.597-.348-.597" fill="#fff"/><path d="M535.913,57.461h0c.054-.181.129-.34.218-.473.012-.018.024-.035.037-.052.024-.032.048-.064.074-.093.038-.042.078-.079.12-.111.016-.012.033-.02.049-.031.036-.024.073-.043.111-.059.016-.007.033-.013.049-.018.054-.017.109-.029.165-.029s.112.012.165.029c.017.005.033.012.049.018.038.016.075.036.111.059.016.01.033.019.049.031.041.032.081.069.119.111.026.029.05.06.074.093.012.017.024.034.036.051.088.133.163.292.218.473h0s-.822-3.766-.822-3.766l-.822,3.766h0" fill="#909393"/><path d="M525.838,58.153c-.001-.076-.006-.151-.014-.224,0,0,0-.002,0-.003-.009-.073-.021-.144-.036-.214,0-.002-.001-.003-.001-.005-.016-.069-.034-.138-.056-.205,0-.001-.001-.003-.002-.005-.022-.067-.047-.132-.076-.196,0-.001-.001-.003-.002-.004-.029-.064-.06-.127-.095-.187-.106-.185-.238-.353-.391-.499-.195-.185-.424-.335-.676-.439-.002,0-.004-.001-.006-.002-.124-.051-.255-.09-.389-.117-.003,0-.007,0-.01-.001-.135-.027-.274-.041-.417-.041-.141,0-.277.014-.41.04-.005,0-.009.001-.014.002-.132.026-.26.065-.382.114-.003.001-.006.002-.01.004-.124.051-.243.112-.354.184,0,0,0,0-.001,0-.112.073-.218.155-.315.246l-.002.007-.008.002c-.155.147-.288.317-.395.504-.001.002-.003.004-.004.007-.032.057-.062.117-.089.177-.003.006-.006.013-.009.019-.025.056-.046.114-.066.173-.004.012-.009.022-.012.034-.017.055-.031.111-.045.167-.003.016-.009.032-.012.048-.012.056-.019.112-.027.169-.002.017-.006.034-.008.052-.008.074-.012.15-.012.227,0,.144.015.284.042.42,0,.003,0,.006.001.009.027.136.067.267.119.392,0,.002.001.004.002.005.105.254.256.483.443.678.148.154.318.286.505.392,0,0,.002.001.003.002.058.033.119.062.18.09.005.002.01.005.015.007.057.025.116.046.175.066.01.003.02.008.03.011.055.017.111.032.168.045.015.004.03.009.046.012.055.011.112.019.169.027.017.002.034.006.052.008.074.008.15.012.226.012.3,0,.586-.061.847-.171.13-.055.254-.122.369-.2.232-.156.431-.356.588-.588.078-.116.146-.239.201-.37.11-.26.171-.546.171-.847,0-.005,0-.01,0-.015,0-.006,0-.011-.001-.016h0ZM523.665,57.898c-.451,0-.817-.366-.817-.817s.366-.817.817-.817.817.366.817.817-.366.817-.817.817h0Z"/><path d="M523.665,56.263c-.451,0-.817.366-.817.817s.366.817.817.817.817-.366.817-.817-.366-.817-.817-.817" fill="#fff"/><path d="M522.168,56.608h0l.008-.002.002-.007,1.498-4.582v-1.072c0-.008,0-.012,0-.012-.834-.171-1.692-.265-2.571-.265-.293,0-.584.012-.873.032-.042.003-.084.005-.126.009-1.504.114-2.985.506-4.356,1.132-1.176.537-2.269,1.244-3.251,2.083h0s-.001.001-.002.002c-.264.224-.516.461-.763.703-.046.045-.093.09-.139.136-.232.234-.457.476-.674.725-.047.054-.093.11-.14.165-.218.257-.43.52-.632.791-.017.023-.032.047-.049.069-.192.261-.375.53-.551.802-.034.053-.07.106-.104.159-.143.226-.275.458-.407.691h6.825l6.303-1.557" fill="#bbbcbd"/><path d="M527.93,56.092c.014-.179.025-.357.034-.536.012-.242.021-.485.026-.727.004-.188.003-.376.002-.565,0-.054.001-.109,0-.163-.005-.485-.024-.97-.054-1.456-.001,0-.003-.002-.004-.003,0-.001-.001-.002-.002-.003-.002-.001-.009-.005-.015-.009-.006-.003-.011-.006-.022-.012-.089-.051-.308-.177-.505-.288-.004-.002-.008-.005-.013-.007-.05-.028-.098-.055-.141-.08,0,0-.002,0-.003-.001-.038-.021-.069-.039-.098-.055-.006-.003-.014-.008-.019-.011-.032-.018-.057-.031-.071-.039-.314-.163-.634-.313-.959-.451-.776-.328-1.822-.615-2.411-.754v1.085l1.485,4.59.002.004c.153.146.285.314.391.499h0c.035.061.066.123.095.187,0,.001.001.003.002.004.029.064.054.129.076.196,0,.002.001.003.002.005.022.067.041.135.056.205,0,.002,0,.004.001.005.016.07.028.142.036.214,0,.001,0,.002,0,.003.008.074.013.148.014.224l.006.012h1.819c.123-.665.209-1.34.263-2.017.001-.019.003-.037.005-.056" fill="#e3dddb"/><path d="M530.308,54.47s-.002.004-.003.006c.001-.002.002-.004.003-.006" fill="#fcb03f"/><path d="M522.178,56.599h0c.097-.091.203-.174.315-.246,0,0,0,0,.001,0,.111-.072.23-.133.354-.184.003-.001.007-.002.01-.004.122-.049.25-.088.382-.114.005,0,.009-.001.014-.002.133-.025.27-.04.41-.04.143,0,.282.014.417.041.003,0,.007,0,.01.001.135.027.265.067.389.117.002,0,.004.002.006.002.252.104.481.254.676.439l-.002-.004-1.485-4.59-1.498,4.582" fill="#909393"/><path d="M521.651,59.005c-.051-.125-.091-.256-.119-.392,0-.003,0-.006-.001-.009-.027-.136-.042-.276-.042-.42,0-.077.004-.152.012-.227.002-.017.006-.034.008-.052.007-.057.015-.114.027-.169.003-.016.009-.032.012-.048.013-.056.027-.112.045-.167.004-.011.008-.022.012-.034.02-.058.041-.117.066-.173.003-.006.006-.013.009-.019.027-.061.056-.12.089-.177.001-.002.003-.005.004-.007.107-.187.24-.357.395-.504l-6.303,1.557h-.012l6.243,1.524c-.187-.195-.338-.425-.443-.678,0-.002-.001-.003-.002-.005" fill="#676a6a"/><path d="M535.833,57.825c.004-.028.01-.054.015-.082.016-.09.034-.177.059-.26.003-.009.004-.02.007-.029l.822-3.766v-2.147c-.672-.555-1.392-.858-2.141-.858-.947,0-1.829.523-2.489,1.168-.722.707-1.28,1.596-1.732,2.493-.021.041-.042.081-.063.122.139.121.277.243.413.367.307.281.608.57.905.862.138.136.274.276.41.414.144.147.289.294.431.443.183.192.364.386.543.582.076.082.151.165.226.248.216.239.431.48.643.724h0c.036.038.06.064.07.075h1.855c0-.015.003-.029.003-.044.002-.107.009-.212.024-.312" fill="#e3dddb"/><path d="M530.31,54.475s-.001-.004-.002-.006c-.001.002-.002.004-.003.006.001.001.006.006.008.008,0-.003-.002-.006-.003-.008" fill="#e3dddb"/><path d="M507.921,60.535c.005-.014.011-.028.017-.041.119-.312.25-.62.387-.926.038-.085.078-.169.118-.254.113-.24.232-.476.355-.71.05-.095.099-.191.151-.285.029-.052.061-.102.09-.154.132-.233.264-.465.407-.691.034-.054.069-.106.104-.159.176-.273.359-.541.551-.802.017-.023.032-.047.049-.069.201-.271.414-.533.632-.791.047-.055.093-.11.14-.165.217-.249.442-.491.674-.725.046-.046.093-.091.139-.136.247-.242.499-.479.763-.703,0,0,.001-.001.002-.002,1.037-3.475,4.387-5.61,8.143-5.61,1.512,0,3.015.436,4.303,1.224,1.322.808,2.223,1.598,2.922,2.979.003.007.007.014.01.021.018.035.038.069.055.104,0,.001.001.002.002.003.001,0,.003.002.004.003.585.36,1.143.769,1.674,1.217.177.149.351.303.522.461.056.052.114.101.17.153.001-.002.002-.004.003-.006,0-.001.001-.003.002-.004.019-.039.038-.079.057-.118.529-3.34,2.211-5.162,3.949-5.162,1.31,0,2.262.781,2.981,2.884l.007.023s.001.002.002.003c.203.221.401.464.593.73h0s.008.01.012.015h0s0,0,0,0c.01.03.019.062.029.092h0s-.027-.11-.027-.11c-2.162-6.401-8.216-11.009-15.346-11.009-8.944,0-16.194,7.25-16.194,16.194,0,1.763.282,3.461.805,5.04,0-.003.001-.006.002-.009.103-.476.226-.95.369-1.418.112-.365.236-.727.372-1.085" fill="#525353"/><path d="M538.155,58.187l-.565.632h0s0,.003-.001.004c-.021.083-.048.161-.077.236-.008.02-.016.038-.024.057-.022.053-.047.103-.073.151-.014.026-.028.052-.043.076-.023.038-.049.072-.074.105-.037.048-.076.091-.117.13-.017.016-.033.033-.051.047-.032.025-.065.047-.098.066-.013.007-.026.014-.039.021-.081.04-.166.063-.254.063-.513,0-.929-.713-.929-1.592h-1.865s0,.001.001.001c.346.4.687.805,1.022,1.214.004.005.008.01.012.015.326.398.648.8.966,1.205.016.02.031.04.047.059.302.385.6.772.895,1.16.029.037.058.075.086.113.313.411.622.824.93,1.237.002.003.004.006.006.009.533-1.576.831-3.26.849-5.012l-.524-.02-.082.026" fill="#fff"/><path d="M520.107,50.708c.042-.003.084-.006.126-.009.289-.02.58-.032.873-.032.878,0,1.736.094,2.571.265h0c.589.139,1.635.426,2.411.754.326.137.646.288.959.451.015.008.039.021.071.039.005.003.014.008.019.011.029.016.061.034.098.055,0,0,.002,0,.003.001.044.025.091.052.141.08.004.002.008.005.013.007.2.113.42.24.505.288.011.006.016.009.022.012.004.003.014.008.015.009-.017-.035-.037-.069-.055-.104-.003-.007-.007-.014-.01-.021-.7-1.381-1.776-2.565-3.098-3.373-1.288-.788-2.792-1.224-4.304-1.224-3.756,0-6.93,2.53-7.967,6.005.982-.839,2.075-1.546,3.251-2.083,1.371-.626,2.852-1.018,4.356-1.132"/><path d="M537.911,52.84h0s0,0,0,0c-.004-.005-.008-.01-.012-.015h0c-.192-.266-.39-.509-.593-.73,0,0-.001-.002-.002-.002,0,0,.001.001.002.002-.002-.002-.003-.004-.005-.006-.092-.1-.185-.195-.28-.286-.036-.034-.072-.064-.108-.097-.059-.054-.118-.11-.179-.159v2.148l.822,3.766h0c.009.029.02.056.028.087l.57.638.006-.006h.596c0-.055.004-.11.004-.165h0c0-1.777-.292-3.484-.821-5.083h0c-.01-.03-.019-.062-.029-.092" fill="#bbbcbd"/><path d="M532.105,51.85c.66-.646,1.543-1.168,2.489-1.168.749,0,1.469.303,2.141.858,0,0,0,.005,0,.006h0s0,0,0,0c.06.049.119.105.179.159.036.033.073.062.108.097.095.091.187.186.28.286.002.002.004.004.005.006,0,0-.001-.002-.002-.002h0s-.007-.023-.007-.023c-.719-2.103-1.88-3.469-3.189-3.469-1.738,0-3.212,2.406-3.741,5.747l.006-.005c.451-.897,1.009-1.786,1.732-2.493"/><path d="M529.756,72.38s-.234-.185-.531-.527c-.07-.08-.141-.166-.216-.263-.056-.073-.113-.151-.17-.234-.038-.055-.075-.113-.113-.172-.112-.178-.202-.394-.301-.608-.114-.247-.115-.412-.18-.643-.047-.165-.086-.337-.115-.516-.043-.269-.064-.553-.055-.853.005-.165.022-.335.047-.509.024-.167.057-.338.1-.512.131-.524.357-1.081.711-1.67,0-.002.089-.2.09-.202.115-.192.141-.184.251-.369,1.545-2.607,2.378-4.579,1.971-7.614-.029-.217-.109-.702-.152-.93-.023.158-.11.66-.113.671-.015.069-.057.144-.073.192-.671,1.986-1.727,3.447-3.247,5.097-.206.224-.422.45-.643.679-.372.385-.761.779-1.173,1.189-.165.164-.332.33-.503.499-.157.155-.352.487-.584.731-.144.402-.307.856-.445,1.333-.062-.024-.122-.045-.185-.069-2.953-1.142-4.93-2.668-4.93-2.668,0,0,1.521,1.98,4.084,3.84.248.18.493.336.732.474-.106,1.673.632,3.28,3.964,3.759.563.081,1.14.077,1.721.012-.006-.017.032-.017.029-.027-.003-.01.031-.035.031-.035"/><path d="M527.974,68.073c2.958.477,7.336.399,11.881-1.729.109-.051.23.084.34.03,0,0-3.106,3.173-6.816,4.966-.108.052-.215.108-.325.158-.358.164-.723.306-1.089.438-.718.258-1.445.454-2.167.544-.033.004-.066.011-.1.014-.006-.017-.01-.031-.014-.041-.003-.01-.005-.015-.005-.015,0,0-.234-.186-.531-.527-.07-.08-.141-.166-.216-.263-.056-.073-.113-.151-.17-.234-.038-.055-.076-.113-.113-.172-.112-.178-.221-.374-.32-.588-.099-.214-.187-.445-.257-.692-.047-.165-.086-.337-.115-.516-.043-.269-.064-.553-.055-.853.005-.165.022-.335.047-.509l.025-.011" fill="#9f2254"/><path d="M525.854,64.705c.412-.41.802-.804,1.174-1.189.221-.229.437-.456.643-.679,1.52-1.65,2.635-3.193,3.307-5.18.016-.047.032-.109.047-.179.003-.011.005-.021.007-.032.016-.074.031-.157.046-.249.006-.064.207-.193.213-.253-.168-.865-.556-1.774-.98-2.468.001.003.002.006.003.008-.002-.001-.007-.007-.008-.008-.056-.052-.113-.102-.17-.153-.171-.158-.345-.311-.522-.461-.531-.448-1.089-.856-1.674-1.217.03.486.049.971.054,1.456,0,.054,0,.109,0,.163,0,.188.001.376-.002.565-.005.242-.013.485-.026.727-.009.179-.021.358-.034.536-.001.019-.004.037-.005.056-.054.677-.14,1.351-.263,2.017l-.214,1.01c-.446,1.809-1.352,3.449-2.097,5.143-.198.449-.385.903-.549,1.366-.015.042-.031.087-.047.131.233-.244.439-.456.595-.611.171-.169.339-.335.503-.499" fill="#fcb03f"/><path d="M516.079,74.432c1.084-.479,2.087-.781,3.279-1.016-.007-.259-.019-.517-.04-.774.511-1.325.982-2.658,1.408-3.999-.76.074-1.515.191-2.261.349-.553.117-1.099.265-1.64.428-.435.131-.864.281-1.29.441l1.683.408-1.354,4.251.215-.09" fill="#525353"/><path d="M536.889,61.835c-.296-.388-.594-.775-.895-1.16-.016-.02-.031-.04-.047-.059-.318-.405-.639-.807-.966-1.205-.004-.005-.008-.01-.012-.015-.336-.409-.676-.814-1.022-1.214-.022-.025-.044-.051-.066-.076-.212-.244-.427-.484-.643-.724-.075-.083-.15-.166-.226-.248-.179-.196-.36-.389-.543-.582-.142-.149-.286-.296-.431-.443-.136-.139-.272-.278-.41-.414-.297-.292-.597-.581-.905-.862-.136-.124-.274-.247-.413-.367,0,.001-.001.003-.002.004.293.841.626,1.692.794,2.569.043.228.079.45.109.667.408,3.035-.565,5.017-2.11,7.625-.111.187-.224.377-.341.571-.353.589-.579,1.147-.711,1.67-.044.174-.077.345-.1.512,3.029.489,7.584.58,12.245-1.71,0,0-.914-1.343-2.289-3.19-.308-.413-.617-.825-.93-1.237-.029-.038-.058-.075-.086-.113" fill="#df0067"/><path d="M515.703,75.282l1.515-5.011-1.683-.408c-.377.142-.751.293-1.119.457l-1.501,4.962,1.675.026,1.113-.026" fill="#aa9678"/><path d="M516.769,73.114c.148.057.298.108.448.161,1.675.587,3.474.91,5.35.91,2.139,0,4.179-.419,6.048-1.172.099-.04.196-.083.293-.125.159-.068.316-.137.472-.209.14-.065.279-.129.417-.198-.033.004-.066.011-.1.014-.581.065-1.158.069-1.721-.012-3.332-.479-4.07-2.085-3.964-3.759-.24-.138-.484-.294-.732-.474-2.563-1.859-4.084-3.84-4.084-3.84,0,0,1.977,1.526,4.93,2.668.063.025.123.046.185.069.138-.477.301-.93.445-1.333.016-.044.032-.088.047-.131.164-.463.352-.917.549-1.366.745-1.694,1.651-3.334,2.097-5.143l.214-1.01h-1.822s0,.003,0,.004h0c0,.005,0,.01,0,.015,0,.3-.061.586-.171.847-.055.13-.122.254-.201.37-.156.231-.356.431-.588.588-.116.078-.239.146-.369.2-.26.11-.546.171-.847.171-.076,0-.152-.004-.226-.012-.017-.002-.034-.006-.052-.008-.057-.007-.114-.015-.169-.027-.016-.003-.03-.008-.046-.012-.057-.013-.113-.027-.168-.045-.01-.003-.02-.008-.03-.011-.059-.02-.118-.041-.175-.066-.005-.002-.01-.005-.015-.007-.062-.027-.122-.057-.18-.09l-.003-.002c-.187-.106-.358-.238-.505-.392l-6.243-1.524h-6.813c-.029.052-.062.102-.09.154-.052.094-.101.19-.151.285-.123.234-.242.47-.355.71-.04.084-.079.169-.118.254-.137.305-.268.613-.387.926-.005.014-.011.028-.017.041-.136.358-.26.72-.372,1.085-.143.468-.267.942-.369,1.418,1.073,3.272,3.16,6.083,5.888,8.064.079.058.163.109.244.165.461.323.938.624,1.433.898.649.36,1.324.679,2.025.948" fill="#fff"/><path d="M533.105,76.987c-.042-.43-.068-.864-.068-1.303,0-.264-.214-.478-.478-.478h-20.043c-.264,0-.478.214-.478.478,0,.439-.026.873-.068,1.303-.047.476-.12.946-.216,1.408.291.154.584.303.882.445.196-.861.317-1.745.349-2.648,0-.01.002-.021.002-.031h19.103c0,.01.001.021.002.031.032.902.153,1.787.349,2.648.298-.142.591-.291.882-.445-.096-.463-.17-.932-.216-1.408" fill="#8b7460"/><circle cx="60.916" cy="57.978" r="21.932" fill="url(#p)"/><path d="M46.166,47.36c3.784,3.981,7.319,4.577,21.256,4.577s7.807,3.101-.798,10.782c2.728-4.744,12.104-8.944-3.265-8.707-14.73.223-15.601-4.261-17.192-6.651Z" fill="#fff"/><path d="M56.083,66.492c0,1.161-.942,2.104-2.104,2.104s-2.109-.942-2.109-2.104.942-2.109,2.109-2.109,2.104.943,2.104,2.109Z" fill="#fff"/><path d="M65.68,66.492c0,1.161-.942,2.104-2.104,2.104s-2.109-.942-2.109-2.104.944-2.109,2.109-2.109,2.104.943,2.104,2.109Z" fill="#fff"/></svg>