<?xml version="1.0" encoding="UTF-8"?><svg id="a" xmlns="http://www.w3.org/2000/svg" width="70" height="70" viewBox="0 0 70 70"><rect x="1.198" y="1.152" width="67.604" height="67.604" rx="9.3" ry="9.3" fill="#fff" stroke-width="0"/><path d="M14.649,60.032h42.702c1.787,0,3.235-1.448,3.235-3.235V13.772c0-1.787-1.448-3.235-3.235-3.235H14.649c-1.787,0-3.235,1.448-3.235,3.235v43.026c0,1.787,1.448,3.235,3.235,3.235ZM11.414,20.242h49.172" fill="none" stroke="#6b46f2" stroke-miterlimit="10" stroke-width="3"/><circle cx="15.943" cy="15.713" r="1.294" fill="#6b46f2" stroke-width="0"/><circle cx="20.472" cy="15.713" r="1.294" fill="#6b46f2" stroke-width="0"/><circle cx="25.001" cy="15.713" r="1.294" fill="#6b46f2" stroke-width="0"/><circle cx="26.942" cy="30.594" r="2.588" fill="none" stroke="#6b46f2" stroke-miterlimit="10" stroke-width="3"/><circle cx="43.117" cy="39.652" r="2.588" fill="none" stroke="#6b46f2" stroke-miterlimit="10" stroke-width="3"/><circle cx="36" cy="50.004" r="2.588" fill="none" stroke="#6b46f2" stroke-miterlimit="10" stroke-width="3"/><path d="M21.119,30.594h2.741M50.881,30.594h-20.951M21.119,39.652h18.993M50.881,39.652h-4.699M21.119,50.004h11.944M50.881,50.004h-11.748" fill="none" stroke="#6b46f2" stroke-miterlimit="10" stroke-width="3"/></svg>