<?xml version="1.0" encoding="UTF-8"?><svg id="a" xmlns="http://www.w3.org/2000/svg" width="35" height="35" viewBox="0 0 35 35"><path d="M17.5.765h0c9.242,0,16.735,7.493,16.735,16.735h0c0,9.242-7.493,16.735-16.735,16.735h0C8.258,34.235.765,26.742.765,17.5h0C.765,8.258,8.258.765,17.5.765Z" fill="#eae5ff"/><g isolation="isolate"><g id="b"><path d="M20.152,21.298h-3.798c-.114.009-.228.009-.342,0-.331-.009-.591-.285-.582-.615,0,0,0,0,0,0-.034-.496-.017-1.009-.017-1.523.006-.312.238-.574.548-.616h8.178c.53.017.77.257.77.787s-.017.787,0,1.181-.342.821-.838.821l-3.918-.034ZM19.142,19.912c-.009.274.205.504.479.513.006,0,.012,0,.017,0,.255-.041.455-.241.496-.496,0-.267-.212-.487-.479-.496-.243-.039-.471.126-.509.369-.006.036-.007.073-.004.11ZM23.95,19.929c.01-.264-.197-.487-.461-.496,0,0,0,0,0,0-.273-.019-.51.187-.529.46,0,.006,0,.012,0,.019.019.256.209.467.462.513.28,0,.512-.217.53-.496ZM22.017,19.912c.02-.245-.163-.459-.408-.479-.024-.002-.048-.002-.071,0-.267,0-.487.212-.496.479.007.267.213.487.479.513.274,0,.496-.222.496-.496,0-.006,0-.012,0-.017Z" fill="#5138cc"/><path d="M20.169,24.275h-3.935c-.151.004-.302-.02-.445-.068-.227-.096-.375-.318-.376-.565v-1.471c-.002-.325.242-.598.565-.633.141-.028.284-.04.428-.034h7.648c.565,0,.89.24.855.873s0,.753,0,1.146-.24.753-.77.77l-3.969-.017ZM19.621,22.393c-.265-.002-.48.212-.482.476,0,.018,0,.036.003.054.018.261.235.463.496.462.276-.026.489-.254.496-.53-.026-.263-.249-.463-.513-.462ZM23.471,22.393c-.274-.009-.504.205-.513.479,0,.006,0,.012,0,.017.008.264.215.479.479.496.274.009.504-.205.513-.479,0-.006,0-.012,0-.017,0-.267-.212-.487-.479-.496ZM21.52,22.393c-.258.009-.462.221-.462.479,0,.277.219.504.496.513.273-.018.48-.255.462-.528,0,0,0-.002,0-.002,0-.255-.206-.463-.461-.463-.012,0-.024,0-.035.001Z" fill="#5138cc"/><path d="M20.135,27.235h-3.884c-.633,0-.838-.205-.838-.838v-1.181c.017-.496.24-.719.736-.719h8.024c.513,0,.736.222.736.753v1.266c-.017.479-.24.719-.736.719h-4.038ZM23.95,25.849c-.009-.261-.218-.47-.479-.479-.277,0-.504.219-.513.496.016.261.219.471.479.496.283,0,.513-.23.513-.513ZM19.604,25.37c-.264.008-.472.229-.465.493,0,.012.001.025.003.037.018.261.235.463.496.462.264-.017.471-.232.479-.496,0-.274-.222-.496-.496-.496-.006,0-.012,0-.017,0ZM21.555,25.37c-.274-.009-.504.205-.513.479,0,.006,0,.012,0,.017.008.264.215.479.479.496.274,0,.496-.222.496-.496.019-.254-.172-.476-.426-.495-.012,0-.024-.001-.035-.001Z" fill="#5138cc"/><path d="M22.136,18.286l-.137,2.737c-.047,1-.267,1.984-.65,2.909-.513,1.249-1.352,2.327-2.601,2.994-.616.342-1.677.667-2.943.719h-.137c-3.781-1.369-4.62-5.03-4.859-7.99l-.855-2.276c-.017-.325.89-1.078,1.266-1.044l4.91-.479c.139-.017.28,0,.411.051l4.945,1.711c.351.033.626.315.65.667Z" fill="#6b46f2"/><path d="M19.33,19.638c-2.618,1.437-5.167,2.412-7.699,3.952.667,1.728,1.865,3.251,4.038,4.038h.137c1.266-.051,2.327-.376,2.943-.719,1.249-.667,2.087-1.745,2.601-2.994.384-.925.604-1.909.65-2.909l.137-2.737c.007-.149-.042-.296-.137-.411-.853.646-1.744,1.24-2.669,1.779Z" fill="#6b46f2"/><path d="M12.093,15.446c-.034-2.053,1.249-3.576,2.874-3.388l1.95.222c1.625.205,3.182,2.122,3.217,4.175l.034,1.009-.958-.291v-.873c-.034-1.591-1.044-2.994-2.258-3.131l-1.968-.24c-1.215-.137-2.173,1.027-2.139,2.618v.873c-.252-.009-.504.009-.753.051v-1.027Z" fill="#5138cc"/><g mix-blend-mode="multiply" opacity=".5"><path d="M12.555,15.754c-.051-1.882,1.095-3.285,2.549-3.114l1.711.205c1.437.171,2.652,1.848,2.686,3.73v.684l-.291-.086v-.873c-.034-1.591-1.044-2.994-2.258-3.131l-1.968-.24c-1.215-.137-2.173,1.027-2.139,2.618v.873h-.291v-.667Z" fill="#6b46f2"/></g><path d="M21.298,18.817l-.12,2.584c-.051.953-.265,1.891-.633,2.772-.494,1.21-1.396,2.209-2.549,2.823-.667.342-1.393.557-2.139.633h-.137c-3.713-1.283-5.287-4.705-5.543-7.511l-.222-2.635c-.034-.325.257-.547.633-.513l4.808-.462c.138,0,.276.018.411.051l4.842,1.608c.376.051.667.342.65.65Z" fill="#5138cc"/><path d="M11.118,17.585c-.291-.034-.496.12-.479.359l.188,2.378c.205,2.481,1.591,5.612,4.927,6.741h.034c3.319-.342,4.637-3.148,4.739-5.595l.103-2.344c.017-.222-.205-.445-.479-.479l-4.534-1.335-4.5.274Z" fill="#6b46f2" isolation="isolate" mix-blend-mode="multiply"/><path d="M11.255,17.739c-.193-.047-.387.071-.435.263-.008.031-.011.064-.01.096l.171,2.293c.188,2.395,1.54,5.441,4.774,6.536h.034c3.217-.342,4.5-3.063,4.585-5.441l.103-2.258c-.009-.258-.221-.462-.479-.462l-4.38-1.283-4.363.257Z" fill="#eae5ff"/><path d="M20.477,19.244l-.103,2.258c-.086,2.378-1.369,5.099-4.585,5.441h0l-.171-9.461,4.38,1.3c.255.008.462.208.479.462Z" fill="#eae5ff"/><path d="M16.661,21.742c-.012-.565-.433-1.036-.992-1.112-.449-.067-.867.242-.934.69-.009.06-.011.122-.007.182.021.349.189.672.462.89l.034,1.146c.005.294.223.54.513.582h0c.233.038.453-.12.491-.353.005-.03.007-.061.005-.092v-1.163c.274-.158.438-.454.428-.77Z" fill="#6b46f2" isolation="isolate" mix-blend-mode="multiply" opacity=".35"/><path d="M16.37,21.914c0-.496-.445-.958-.975-1.027s-.958.291-.958.804c.036.32.203.612.462.804l.034,1.044c.023.277.238.499.513.53h0c.233.038.453-.12.491-.354.003-.019.005-.038.005-.057v-1.044c.266-.132.432-.405.428-.701Z" fill="#6b46f2"/><path d="M14.796,21.76c.004.108.034.213.086.308.055.081.125.15.205.205v.975c.005.159.118.293.274.325h.12c.142,0,.257-.115.257-.257v-.975c.079-.043.149-.101.205-.171.056-.087.086-.188.086-.291-.036-.337-.298-.605-.633-.65-.268-.058-.532.112-.59.38-.011.049-.014.1-.009.15Z" fill="#6b46f2"/><path d="M14.882,22.016v.051c.055.081.125.15.205.205h0c.017.017.017.051.051.188v.838c.009.129.098.238.222.274h.12c.051.002.1-.016.137-.051.055-.039.087-.103.086-.171v-.838c.007-.058.018-.115.034-.171h0c.079-.043.149-.101.205-.171v-.034c-.016-.298-.25-.539-.547-.565-.243-.038-.47.128-.508.371-.004.024-.006.049-.005.074Z" fill="#6b46f2" isolation="isolate" opacity=".56"/><path d="M20.169,18.817c.068,2.635-.325,5.68-3.422,6.279-1.677.325-3.456-.462-4.859-1.523.792,1.587,2.183,2.794,3.867,3.353h.034c3.217-.342,4.5-3.063,4.585-5.441l.103-2.258c-.014-.185-.134-.345-.308-.411Z" fill="#eae5ff"/><path d="M20.785,9.886c-.285.245-.553.508-.804.787l.445.462c.291-.257.53-.547.804-.838l-.445-.411ZM20.665,10.467q-.017.017-.034,0h-.017v-.034l.274-.257c0-.017.017-.017.017,0h.017c.017.017.017.034,0,.034l-.257.257Z" fill="#5138cc"/><path d="M19.946,10.724l.411.445c-.159.146-.354.246-.565.291-.103.017-.154-.051-.154-.154s.017-.086.034-.137c.066-.162.158-.313.274-.445Z" fill="#5138cc"/><path d="M20.631,9.937l-.24.24c-.017-.154-.068-.291.086-.411l.154.171Z" fill="#5138cc"/><path d="M21.178,10.45l-.257.222c.154.034.291.086.428-.051l-.171-.171Z" fill="#5138cc"/><path d="M20.904,9.869l.325.342h.034l.051-.051v-.034l-.342-.342h-.034l-.034.034c-.017.034-.017.051,0,.051Z" fill="#5138cc"/><path d="M20.357,6.755c-.394.376-.787.701-1.112,1.078l.599.633c.411-.325.736-.753,1.112-1.129l-.599-.582ZM20.186,7.576h-.051v-.034c-.017,0-.017-.017,0-.034l.359-.359h.068v.051l-.376.376Z" fill="#5138cc"/><path d="M19.194,7.918l.582.616c-.232.184-.5.318-.787.394-.137.017-.222-.068-.205-.222.005-.058.016-.116.034-.171.087-.227.214-.435.376-.616Z" fill="#5138cc"/><path d="M20.135,6.84l-.342.308c-.017-.188-.068-.394.137-.565l.205.257Z" fill="#5138cc"/><path d="M20.87,7.542l-.325.308c.188.034.394.12.565-.086l-.24-.222Z" fill="#5138cc"/><path d="M20.494,6.738l.462.462c.012.014.034.016.048.003.001,0,.002-.002.003-.003l.068-.068v-.034l-.462-.462h-.051l-.068.068v.034Z" fill="#5138cc"/><path d="M23.762,9.988c-.394.376-.804.719-1.146,1.112l.633.65c.411-.342.736-.77,1.129-1.181l-.616-.582ZM23.591,10.827c-.012.014-.034.016-.048.003-.001,0-.002-.002-.003-.003h-.017c-.014-.012-.016-.034-.003-.048,0-.001.002-.002.003-.003l.359-.359c.012-.014.034-.016.048-.003.001,0,.002.002.003.003h.017c.014.012.016.034.003.048,0,.001-.002.002-.003.003l-.359.359Z" fill="#5138cc"/><path d="M22.564,11.186l.599.616c-.231.2-.507.34-.804.411-.137.034-.222-.068-.222-.222l.051-.171c.083-.234.21-.449.376-.633Z" fill="#5138cc"/><path d="M23.539,10.074l-.342.325c-.017-.205-.086-.411.12-.582l.222.257Z" fill="#5138cc"/><path d="M24.292,10.792l-.342.325c.205.034.411.12.599-.086l-.257-.24Z" fill="#5138cc"/><path d="M23.916,9.971l.479.479h.034l.068-.068c.014-.012.016-.034.003-.048,0-.001-.002-.002-.003-.003l-.479-.462h-.034l-.068.068c-.017,0-.017.017,0,.034Z" fill="#5138cc"/><path d="M15.703,10.946c.344-.06.695-.077,1.044-.051.347.029.691.093,1.027.188.686.202,1.314.566,1.831,1.061.512.495.909,1.097,1.163,1.762.246.652.385,1.34.411,2.036-.161-.664-.384-1.312-.667-1.933-.138-.305-.304-.598-.496-.873-.193-.27-.411-.522-.65-.753-.479-.463-1.05-.818-1.677-1.044-.637-.234-1.307-.367-1.985-.394Z" fill="#5138cc"/></g></g></svg>