<?xml version="1.0" encoding="UTF-8"?>
<svg id="Screen" xmlns="http://www.w3.org/2000/svg" viewBox="0 0 35 35">
  <defs>
    <style>
      .cls-1 {
        fill: #fff;
      }

      .cls-2, .cls-3, .cls-4 {
        stroke: #fff;
        stroke-miterlimit: 10;
      }

      .cls-2, .cls-3, .cls-5 {
        fill: #5138cc;
      }

      .cls-3, .cls-4 {
        stroke-width: .5px;
      }

      .cls-4 {
        fill: none;
      }

      .cls-6 {
        fill: #eae5ff;
      }
    </style>
  </defs>
  <rect class="cls-6" x="1.07" y=".64" width="33.47" height="33.47" rx="16.74" ry="16.74"/>
  <g>
    <line class="cls-2" x1="16.65" y1="22.52" x2="16.65" y2="29.5"/>
    <g>
      <circle class="cls-3" cx="17.5" cy="17.41" r="11.92"/>
      <line class="cls-4" x1="17.32" y1="5.68" x2="17.32" y2="12.54"/>
      <path class="cls-4" d="m15.78,5.62s-8.66,8.09,0,23.71"/>
      <path class="cls-4" d="m11.93,6.88s-8.27,7.22,1.32,21.72"/>
      <path class="cls-4" d="m29.01,14.37s-8.17-7.89-22.46-1.69"/>
      <path class="cls-4" d="m28.17,22.69s-7.35,7.82-20.38,1.51"/>
      <path class="cls-4" d="m18,5.62s10.2,9.39,1.11,23.48"/>
      <path class="cls-4" d="m21.54,6.2s11.09,8.91,1.03,22"/>
    </g>
    <ellipse class="cls-5" cx="17.5" cy="17.99" rx="10.56" ry="5.65" transform="translate(-.61 .61) rotate(-1.96)"/>
    <g>
      <path class="cls-1" d="m14.59,16.38s0,.06,0,.1c0,.04-.02.09-.04.17l-.86,2.9s-.03.08-.05.1c-.02.03-.05.05-.09.06-.04.01-.09.02-.17.03-.19.01-.38.01-.57,0-.08,0-.13-.01-.18-.03-.04,0-.07-.03-.09-.06-.02-.03-.04-.06-.04-.09l-.54-1.95v-.03s-.02.03-.02.03l-.5,1.95s-.02.08-.04.1c-.02.03-.05.05-.09.06-.04.01-.1.02-.18.03-.19.01-.39.01-.58,0-.07,0-.13-.01-.17-.03-.04,0-.07-.03-.09-.06-.02-.03-.04-.06-.04-.09l-.85-2.9c-.02-.07-.03-.12-.04-.17,0-.04,0-.07,0-.1,0-.02,0-.05.02-.06.01-.02.04-.03.07-.04s.08-.02.14-.02c.06,0,.13,0,.22,0,.09,0,.18,0,.23,0,.06,0,.11.01.14.02.03.01.06.03.07.05s.02.05.03.08l.63,2.36v.04s.02-.04.02-.04l.6-2.36s.02-.05.03-.08c.01-.02.04-.04.07-.05.03-.01.08-.02.13-.02.06,0,.13,0,.22,0s.16,0,.22,0,.1.01.13.02c.03,0,.06.02.07.04.01.02.02.04.03.06l.64,2.37v.04s.02-.04.02-.04l.61-2.36s.01-.05.03-.08c.01-.02.04-.04.07-.05.03-.01.08-.02.14-.02.06,0,.13,0,.22,0s.16,0,.22,0,.1.01.13.02c.03,0,.06.02.07.04.01.01.02.03.02.06Zm5.53,0s0,.06,0,.1c0,.04-.02.09-.04.17l-.86,2.9s-.03.08-.05.1c-.02.03-.05.05-.09.06-.04.01-.09.02-.17.03-.19.01-.38.01-.57,0-.08,0-.13-.01-.18-.03-.04,0-.07-.03-.09-.06-.02-.03-.04-.06-.04-.09l-.54-1.95v-.03s-.02.03-.02.03l-.5,1.95s-.02.08-.04.1c-.02.03-.05.05-.09.06-.04.01-.1.02-.18.03-.19.01-.39.01-.58,0-.07,0-.13-.01-.17-.03-.04,0-.07-.03-.09-.06-.02-.03-.04-.06-.04-.09l-.85-2.9c-.02-.07-.03-.12-.04-.17,0-.04,0-.07,0-.1,0-.02,0-.05.02-.06.01-.02.04-.03.07-.04s.08-.02.14-.02c.06,0,.13,0,.22,0,.09,0,.18,0,.23,0,.06,0,.11.01.14.02.03.01.06.03.07.05.01.02.02.05.03.08l.63,2.36v.04s.02-.04.02-.04l.6-2.36s.02-.05.03-.08c.01-.02.04-.04.07-.05.03-.01.08-.02.13-.02.06,0,.13,0,.22,0s.16,0,.22,0,.1.01.13.02c.03,0,.06.02.07.04.01.02.02.04.03.06l.64,2.37v.04s.02-.05.02-.05l.61-2.36s.01-.05.03-.08c.01-.02.04-.04.07-.05.03-.01.08-.02.14-.02.06,0,.13,0,.22,0s.16,0,.22,0,.1.01.13.02c.03,0,.06.02.07.04.01.02.02.04.02.06h0Z"/>
      <path class="cls-1" d="m25.65,16.38s0,.06,0,.1c0,.04-.02.09-.04.17l-.86,2.9s-.03.08-.05.1c-.02.03-.05.05-.09.06-.04.01-.09.02-.17.03-.19.01-.38.01-.57,0-.08,0-.13-.01-.18-.03-.04,0-.07-.03-.09-.06-.02-.03-.04-.06-.04-.09l-.54-1.95v-.03s-.02.03-.02.03l-.5,1.95s-.02.08-.04.1c-.02.03-.05.05-.09.06-.04.01-.1.02-.18.03-.19.01-.39.01-.58,0-.07,0-.13-.01-.17-.03-.04,0-.07-.03-.09-.06-.02-.03-.04-.06-.04-.09l-.85-2.9c-.02-.07-.03-.12-.04-.17,0-.04,0-.07,0-.1,0-.02,0-.05.02-.06.01-.02.04-.03.07-.04s.08-.02.14-.02c.06,0,.13,0,.22,0,.09,0,.18,0,.23,0,.06,0,.11.01.14.02.03.01.06.03.07.05.01.02.02.05.03.08l.63,2.36v.04s.02-.04.02-.04l.6-2.36s.02-.05.03-.08c.01-.02.04-.04.07-.05.03-.01.08-.02.13-.02.06,0,.13,0,.22,0s.16,0,.22,0,.1.01.13.02c.03,0,.06.02.07.04.01.02.02.04.03.06l.64,2.37v.04s.02-.04.02-.04l.61-2.36s.01-.05.03-.08c.01-.02.04-.04.07-.05.03-.01.08-.02.14-.02.06,0,.13,0,.22,0s.16,0,.22,0,.1.01.13.02c.03,0,.06.02.07.04.01.01.02.03.02.06Z"/>
    </g>
  </g>
</svg>