<?xml version="1.0" encoding="UTF-8"?><svg id="a" xmlns="http://www.w3.org/2000/svg" width="70" height="70" viewBox="0 0 70 70"><rect x="1.198" y="1.56" width="67.604" height="66.88" rx="9.3" ry="9.3" fill="#fff" stroke-width="0"/><g isolation="isolate"><g id="b"><path d="M41.519,44.914h-10.635c-.319.024-.639.024-.958,0-.926-.026-1.655-.798-1.629-1.723,0,0,0,0,0-.001-.096-1.389-.048-2.826-.048-4.264.016-.874.667-1.607,1.533-1.725h22.899c1.485.048,2.156.719,2.156,2.204s-.048,2.204,0,3.305-.958,2.299-2.347,2.299l-10.97-.096ZM38.692,41.033c-.026.767.574,1.41,1.341,1.436.016,0,.032,0,.049,0,.714-.115,1.274-.675,1.389-1.389,0-.749-.593-1.363-1.341-1.389-.679-.109-1.318.354-1.427,1.033-.016.102-.02.205-.011.308ZM52.154,41.081c.027-.74-.551-1.362-1.292-1.389,0,0-.001,0-.002,0-.765-.053-1.429.524-1.482,1.289-.001.017-.002.035-.003.052.054.718.585,1.308,1.293,1.437.784.002,1.434-.607,1.485-1.389ZM46.74,41.033c.055-.686-.456-1.286-1.142-1.341-.066-.005-.133-.005-.2,0-.749,0-1.363.593-1.389,1.341.021.749.596,1.365,1.341,1.437.767,0,1.39-.621,1.39-1.388,0-.016,0-.032,0-.049Z" fill="#6b46f2" stroke-width="0"/><path d="M41.566,53.249h-11.018c-.423.01-.845-.055-1.246-.192-.636-.268-1.051-.89-1.054-1.581v-4.12c-.005-.909.677-1.674,1.581-1.773.394-.079.796-.111,1.198-.096h21.414c1.581,0,2.491.671,2.395,2.443s0,2.108,0,3.21-.671,2.108-2.156,2.156l-11.114-.048ZM40.033,47.98c-.741-.004-1.345.593-1.349,1.334,0,.051.002.101.008.151.05.73.658,1.295,1.389,1.293.772-.072,1.368-.71,1.389-1.485-.074-.737-.696-1.297-1.437-1.293ZM50.812,47.98c-.767-.026-1.41.574-1.436,1.341,0,.016,0,.032,0,.049.023.739.603,1.34,1.341,1.389.767.026,1.41-.574,1.436-1.341,0-.016,0-.032,0-.049,0-.749-.593-1.363-1.341-1.389ZM45.351,47.98c-.722.026-1.294.619-1.293,1.341,0,.775.614,1.411,1.389,1.437.766-.051,1.345-.713,1.294-1.478,0-.002,0-.004,0-.007.002-.714-.576-1.295-1.29-1.297-.033,0-.066.001-.099.004Z" fill="#6b46f2" stroke-width="0"/><path d="M41.471,61.537h-10.875c-1.773,0-2.347-.575-2.347-2.347v-3.305c.048-1.389.671-2.012,2.06-2.012h22.468c1.437,0,2.06.623,2.06,2.108v3.545c-.048,1.341-.671,2.012-2.06,2.012h-11.306ZM52.154,57.657c-.025-.73-.611-1.317-1.341-1.341-.775,0-1.411.614-1.437,1.389.044.73.613,1.32,1.341,1.389.794,0,1.437-.643,1.437-1.437ZM39.986,56.315c-.74.022-1.323.64-1.301,1.381.001.035.003.07.007.104.05.73.658,1.295,1.389,1.293.738-.049,1.318-.65,1.341-1.389,0-.767-.621-1.39-1.388-1.39-.016,0-.032,0-.049,0ZM45.447,56.315c-.767-.026-1.41.574-1.436,1.341,0,.016,0,.032,0,.049.023.739.603,1.34,1.341,1.389.767,0,1.389-.622,1.389-1.389.053-.712-.482-1.333-1.194-1.386-.033-.002-.066-.004-.099-.004Z" fill="#6b46f2" stroke-width="0"/><path d="M47.076,36.482l-.383,7.665c-.13,2.8-.746,5.555-1.82,8.144-1.437,3.497-3.785,6.515-7.282,8.383-1.725.958-4.695,1.868-8.24,2.012h-.383c-10.587-3.832-12.935-14.084-13.605-22.372l-2.395-6.371c-.048-.91,2.491-3.018,3.545-2.922l13.749-1.341c.389-.047.784.002,1.15.144l13.845,4.791c.983.092,1.754.883,1.82,1.868Z" fill="#6b46f2" stroke-width="0"/><path d="M39.219,40.267c-7.33,4.024-14.468,6.755-21.558,11.066,1.868,4.838,5.222,9.102,11.306,11.306h.383c3.545-.144,6.515-1.054,8.24-2.012,3.497-1.868,5.844-4.886,7.282-8.383,1.074-2.589,1.69-5.344,1.82-8.144l.383-7.665c.02-.418-.117-.828-.383-1.15-2.389,1.809-4.884,3.473-7.473,4.982Z" fill="#6b46f2" stroke-width="0"/><path d="M18.955,28.53c-.096-5.749,3.497-10.012,8.048-9.485l5.461.623c4.551.575,8.91,5.94,9.006,11.689l.096,2.826-2.683-.814v-2.443c-.096-4.455-2.922-8.383-6.324-8.767l-5.509-.671c-3.401-.383-6.084,2.874-5.988,7.33v2.443c-.706-.024-1.412.024-2.108.144v-2.874Z" fill="#6b46f2" stroke-width="0"/><g mix-blend-mode="multiply" opacity=".5"><path d="M20.248,29.392c-.144-5.27,3.066-9.198,7.138-8.719l4.791.575c4.024.479,7.425,5.174,7.521,10.443v1.916l-.814-.24v-2.443c-.096-4.455-2.922-8.383-6.324-8.767l-5.509-.671c-3.401-.383-6.084,2.874-5.988,7.33v2.443h-.814v-1.868Z" fill="#6b46f2" stroke-width="0"/></g><path d="M44.728,37.967l-.335,7.234c-.144,2.669-.743,5.294-1.773,7.761-1.383,3.388-3.908,6.184-7.138,7.904-1.869.957-3.899,1.559-5.988,1.773h-.383c-10.396-3.593-14.803-13.174-15.521-21.031l-.623-7.377c-.096-.91.719-1.533,1.773-1.437l13.461-1.293c.388,0,.774.049,1.15.144l13.557,4.503c1.054.144,1.868.958,1.82,1.82Z" fill="#6b46f2" stroke-width="0"/><path d="M16.224,34.518c-.814-.096-1.389.335-1.341,1.006l.527,6.659c.575,6.946,4.455,15.713,13.797,18.875h.096c9.294-.958,12.982-8.815,13.27-15.665l.287-6.563c.048-.623-.575-1.246-1.341-1.341l-12.695-3.737-12.599.766Z" fill="#6b46f2" isolation="isolate" mix-blend-mode="multiply" stroke-width="0"/><path d="M16.608,34.949c-.54-.133-1.084.197-1.217.737-.022.088-.031.178-.029.269l.479,6.419c.527,6.707,4.312,15.234,13.366,18.3h.096c9.006-.958,12.599-8.575,12.839-15.234l.287-6.324c-.026-.722-.619-1.294-1.341-1.293l-12.264-3.593-12.216.719Z" fill="#fff" stroke-width="0"/><path d="M42.429,39.165l-.287,6.324c-.24,6.659-3.832,14.276-12.839,15.234h0l-.479-26.492,12.264,3.641c.713.023,1.293.582,1.341,1.293Z" fill="#fff" stroke-width="0"/><path d="M31.746,46.159c-.033-1.581-1.212-2.902-2.779-3.114-1.256-.189-2.427.677-2.616,1.932-.025.169-.032.34-.019.511.059.976.529,1.882,1.293,2.491l.096,3.21c.015.822.624,1.512,1.437,1.629h0c.653.107,1.268-.336,1.375-.989.014-.085.019-.171.014-.257v-3.258c.767-.442,1.227-1.271,1.198-2.156Z" fill="#6b46f2" isolation="isolate" mix-blend-mode="multiply" opacity=".35" stroke-width="0"/><path d="M30.931,46.638c0-1.389-1.246-2.683-2.731-2.874s-2.683.814-2.683,2.252c.1.897.569,1.713,1.293,2.252l.096,2.922c.063.774.665,1.396,1.437,1.485h0c.653.106,1.268-.337,1.374-.99.009-.053.014-.106.015-.16v-2.922c.744-.369,1.21-1.133,1.198-1.964Z" fill="#6b46f2" stroke-width="0"/><path d="M26.524,46.207c.012.302.094.597.24.862.154.226.349.421.575.575v2.731c.013.445.331.821.766.91h.335c.397,0,.719-.322.719-.719v-2.731c.221-.12.417-.283.575-.479.157-.242.241-.525.24-.814-.102-.942-.833-1.694-1.773-1.82-.75-.162-1.489.315-1.651,1.065-.03.138-.038.28-.025.42Z" fill="#6b46f2" stroke-width="0"/><path d="M26.764,46.926v.144c.154.226.349.421.575.575h0c.048.048.048.144.144.527v2.347c.026.361.275.667.623.766h.335c.142.006.28-.046.383-.144.154-.11.243-.29.24-.479v-2.347c.019-.162.051-.322.096-.479h0c.221-.12.417-.283.575-.479v-.096c-.045-.836-.699-1.51-1.533-1.581-.68-.106-1.317.359-1.422,1.039-.011.068-.016.137-.015.207Z" fill="#6b46f2" isolation="isolate" opacity=".56" stroke-width="0"/><path d="M41.566,37.967c.192,7.377-.91,15.905-9.581,17.581-4.695.91-9.677-1.293-13.605-4.264,2.217,4.445,6.113,7.823,10.827,9.39h.096c9.006-.958,12.599-8.575,12.839-15.234l.287-6.324c-.041-.518-.376-.966-.862-1.15Z" fill="#fff" isolation="isolate" opacity=".6" stroke-width="0"/><path d="M43.291,12.961c-.797.685-1.549,1.421-2.252,2.204l1.246,1.293c.814-.719,1.485-1.533,2.252-2.347l-1.246-1.15ZM42.956,14.589q-.048.048-.096,0h-.048v-.096l.766-.719c0-.048.048-.048.048,0h.048c.048.048.048.096,0,.096l-.719.719Z" fill="#6b46f2" stroke-width="0"/><path d="M40.944,15.308l1.15,1.246c-.444.409-.99.69-1.581.814-.287.048-.431-.144-.431-.431s.048-.24.096-.383c.184-.455.443-.876.766-1.246Z" fill="#6b46f2" stroke-width="0"/><path d="M42.86,13.104l-.671.671c-.048-.431-.192-.814.24-1.15l.431.479Z" fill="#6b46f2" stroke-width="0"/><path d="M44.393,14.542l-.719.623c.431.096.814.24,1.198-.144l-.479-.479Z" fill="#6b46f2" stroke-width="0"/><path d="M43.626,12.913l.91.958h.096l.144-.144v-.096l-.958-.958h-.096l-.096.096c-.048.096-.048.144,0,.144Z" fill="#6b46f2" stroke-width="0"/><path d="M42.093,4.194c-1.102,1.054-2.204,1.964-3.114,3.018l1.677,1.773c1.15-.91,2.06-2.108,3.114-3.162l-1.677-1.629ZM41.614,6.493h-.144v-.096c-.048,0-.048-.048,0-.096l1.006-1.006h.192v.144l-1.054,1.054Z" fill="#6b46f2" stroke-width="0"/><path d="M38.836,7.451l1.629,1.725c-.65.516-1.401.891-2.204,1.102-.383.048-.623-.192-.575-.623.013-.163.045-.324.096-.479.243-.634.6-1.219,1.054-1.725Z" fill="#6b46f2" stroke-width="0"/><path d="M41.471,4.433l-.958.862c-.048-.527-.192-1.102.383-1.581l.575.719Z" fill="#6b46f2" stroke-width="0"/><path d="M43.531,6.398l-.91.862c.527.096,1.102.335,1.581-.24l-.671-.623Z" fill="#6b46f2" stroke-width="0"/><path d="M42.477,4.146l1.293,1.293c.035.04.096.043.135.008.003-.003.006-.005.008-.008l.192-.192v-.096l-1.293-1.293h-.144l-.192.192v.096Z" fill="#6b46f2" stroke-width="0"/><path d="M51.627,13.248c-1.102,1.054-2.252,2.012-3.21,3.114l1.773,1.82c1.15-.958,2.06-2.156,3.162-3.305l-1.725-1.629ZM51.148,15.595c-.035.04-.096.043-.135.008-.003-.003-.006-.005-.008-.008h-.048c-.04-.035-.043-.096-.008-.135.003-.003.005-.006.008-.008l1.006-1.006c.035-.04.096-.043.135-.008.003.003.006.005.008.008h.048c.04.035.043.096.008.135-.003.003-.005.006-.008.008l-1.006,1.006Z" fill="#6b46f2" stroke-width="0"/><path d="M48.273,16.601l1.677,1.725c-.647.559-1.42.953-2.252,1.15-.383.096-.623-.192-.623-.623l.144-.479c.231-.654.589-1.257,1.054-1.773Z" fill="#6b46f2" stroke-width="0"/><path d="M51.004,13.488l-.958.91c-.048-.575-.24-1.15.335-1.629l.623.719Z" fill="#6b46f2" stroke-width="0"/><path d="M53.112,15.5l-.958.91c.575.096,1.15.335,1.677-.24l-.719-.671Z" fill="#6b46f2" stroke-width="0"/><path d="M52.058,13.2l1.341,1.341h.096l.192-.192c.04-.035.043-.096.008-.135-.003-.003-.005-.006-.008-.008l-1.341-1.293h-.096l-.192.192c-.048,0-.048.048,0,.096Z" fill="#6b46f2" stroke-width="0"/><path d="M29.063,15.931c.964-.169,1.946-.217,2.922-.144.973.083,1.935.259,2.874.527,1.921.567,3.679,1.585,5.126,2.97,1.433,1.387,2.545,3.071,3.258,4.934.69,1.825,1.078,3.751,1.15,5.701-.45-1.86-1.075-3.672-1.868-5.413-.387-.855-.852-1.673-1.389-2.443-.541-.757-1.15-1.463-1.82-2.108-1.341-1.295-2.941-2.291-4.695-2.922-1.784-.655-3.659-1.027-5.557-1.102Z" fill="#6b46f2" stroke-width="0"/></g></g></svg>