<?xml version="1.0" encoding="UTF-8"?><svg id="a" xmlns="http://www.w3.org/2000/svg" width="35" height="35" viewBox="0 0 35 35"><path d="M17.5.765h0c9.242,0,16.735,7.493,16.735,16.735h0c0,9.242-7.493,16.735-16.735,16.735h0C8.258,34.235.765,26.742.765,17.5h0C.765,8.258,8.258.765,17.5.765Z" fill="#eae5ff"/><path d="M22.596,18.259v-1.525h-1.089c-.104-.55-.322-1.068-.633-1.525l.758-.768-1.079-1.079-.757.758c-.467-.312-.986-.529-1.535-.633v-1.079h-1.525v1.09c-.55.104-1.068.322-1.525.633l-.768-.768-1.079,1.079.757.768c-.311.456-.529.975-.633,1.525h-1.079v1.525h1.089c.104.55.321,1.068.633,1.535l-.768.757,1.079,1.09.768-.768c.457.322.975.529,1.525.633v1.09h1.525v-1.09c.55-.104,1.068-.322,1.535-.633l.757.757,1.089-1.079-.768-.757c.322-.467.529-.986.633-1.535h1.089ZM17.502,20.043c-1.411,0-2.552-1.141-2.552-2.542,0-1.411,1.141-2.552,2.552-2.552,1.401,0,2.542,1.141,2.542,2.552,0,1.401-1.141,2.542-2.542,2.542Z" fill="#5138cc"/><line x1="22.085" y1="12.915" x2="25.141" y2="9.859" fill="none" stroke="#5138cc" stroke-miterlimit="10"/><polyline points="23.358 9.859 25.141 9.859 25.141 11.642" fill="none" stroke="#5138cc" stroke-miterlimit="10"/><line x1="12.915" y1="12.915" x2="9.859" y2="9.859" fill="none" stroke="#5138cc" stroke-miterlimit="10"/><polyline points="11.642 9.859 9.859 9.859 9.859 11.642" fill="none" stroke="#5138cc" stroke-miterlimit="10"/><line x1="22.085" y1="22.085" x2="25.141" y2="25.141" fill="none" stroke="#5138cc" stroke-miterlimit="10"/><polyline points="23.358 25.141 25.141 25.141 25.141 23.358" fill="none" stroke="#5138cc" stroke-miterlimit="10"/><line x1="12.915" y1="22.085" x2="9.859" y2="25.141" fill="none" stroke="#5138cc" stroke-miterlimit="10"/><polyline points="11.642 25.141 9.859 25.141 9.859 23.358" fill="none" stroke="#5138cc" stroke-miterlimit="10"/></svg>