<?xml version="1.0" encoding="UTF-8"?><svg id="a" xmlns="http://www.w3.org/2000/svg" width="35" height="35" viewBox="0 0 35 35"><path d="M17.5.765h0c9.242,0,16.735,7.493,16.735,16.735h0c0,9.242-7.493,16.735-16.735,16.735h0C8.258,34.235.765,26.742.765,17.5h0C.765,8.258,8.258.765,17.5.765Z" fill="#eae5ff"/><circle cx="12.783" cy="14.578" r="1.959" fill="#6b46f2"/><circle cx="22.188" cy="19.707" r="1.49" fill="#4927b9"/><circle cx="17.912" cy="25.418" r="1.55" fill="#4927b9"/><path d="M9.485,14.572h1.552M26.339,14.572h-11.864M9.485,19.701h11.341M26.339,19.701h-3.589M9.485,25.563h7.803M26.339,25.563h-7.388" fill="none" stroke="#4927b9" stroke-miterlimit="10"/><circle cx="12.783" cy="12.618" r="5.648" fill="#eae5ff"/><path d="M12.659,7.775c.031.022.062.044.093.065.065.096.068.808-.028.88-.056.012-.115.025-.171.037-.233-.04-.143-.855-.103-.917.031-.022.062-.044.093-.065h.115Z" fill="#5138cc"/><path d="M11.232,8.418c.056.012.115.025.171.037l.463.463c.115.208-.087.357-.236.292-.174-.174-.348-.348-.519-.519-.053-.115.04-.258.124-.274h-.003Z" fill="#5138cc"/><path d="M13.88,8.418c.146-.025.283.127.218.274-.174.174-.348.348-.519.519-.149.062-.351-.087-.236-.292.18-.168.361-.336.541-.5h-.003Z" fill="#5138cc"/><path d="M15.036,8.968c.482-.065.876.339.786.824-.062.333-.761.814-.967,1.116.354.115.544.525.416.87.472.112.681.634.416,1.041.451.155.615.668.342,1.06-.513.513-1.029,1.029-1.542,1.542-.336.221-.668.441-1.004.662-.103.103.124.096.028.311-.031.068-.982,1.019-1.05,1.05-.044.006-.087.012-.134.019-.068-.009-.967-.892-.995-.957-.081-.186.068-.357.255-.274.258.258.516.516.777.777l.709-.709c-.892-.892-1.787-1.787-2.679-2.679l-.709.709.777.777c.081.177-.09.336-.274.255l-.935-.935c-.006-.05-.012-.099-.019-.152.016-.075,1.001-1.057,1.069-1.088.174-.078.249.075.264.075.05,0,.42-.451.5-.69.155-.466.152-1.989.227-2.291.034-.14.208-.311.351-.333.535-.081.951.805.935,1.259.009.003.019.006.028.009.706-.706,1.414-1.414,2.12-2.12.099-.044.202-.087.301-.134l.003.006ZM15.073,9.347l-.115.056c-.802.802-1.604,1.604-2.402,2.402-.401.177-.261-.69-.482-1.125-.047-.09-.326-.454-.398-.323-.053.099-.096,1.787-.208,2.216-.149.566-.631.908-.625.967l2.319,2.319c.277-.177.556-.354.833-.531.174-.124,1.666-1.566,1.731-1.675.165-.267-.068-.572-.37-.463-.093.034-.208.283-.398.152-.311-.211.423-.6.463-.824.044-.239-.152-.423-.388-.37-.205.047-.513.687-.777.491-.317-.236.628-.796.671-1.013.053-.258-.199-.46-.444-.351-.239.233-.479.466-.718.699-.196.059-.329-.121-.236-.292.625-.625,1.249-1.249,1.874-1.874.143-.246-.053-.519-.333-.463l.003.003Z" fill="#5138cc"/></svg>