<?xml version="1.0" encoding="UTF-8"?>
<svg id="Screen" xmlns="http://www.w3.org/2000/svg" viewBox="0 0 35 35">
  <defs>
    <style>
      .cls-1 {
        fill: #fff;
      }

      .cls-2 {
        fill: #eae5ff;
      }

      .cls-3 {
        fill: #5138cc;
      }
    </style>
  </defs>
  <rect class="cls-2" x="1.04" y="1.04" width="32.92" height="32.92" rx="16.46" ry="16.46"/>
  <g>
    <path class="cls-1" d="m27.52,16.06s0-.06-.02-.09c0-.01-.02-.02-.02-.03-.02-.02-.03-.05-.05-.07,0,0,0,0,0,0l-9.71-8.43c-.12-.1-.29-.1-.41,0L7.58,15.86s0,0,0,0c-.02.02-.04.05-.06.07,0,0-.02.02-.02.03-.02.03-.02.07-.02.11,0,0,0,.02,0,.02v11.24s0,.03,0,.04c0,.02,0,.04.01.07,0,.02.02.04.03.06,0,.01.01.03.02.04h0s.05.05.08.07c0,0,.02.01.02.02.04.02.08.03.12.03h19.42s.09,0,.13-.03c0,0,.02-.01.02-.02.03-.02.06-.04.08-.06h0s.01-.03.02-.05c0-.02.02-.03.03-.06,0-.02,0-.04.01-.07,0-.01,0-.02,0-.04v-11.23s0,0,0,0c0-.01,0-.02,0-.04Zm-10.02-7.98l9.23,8.01-9.23,7.73-9.23-7.73,9.23-8.01Zm-9.4,8.69l5.92,4.95-5.92,4.95v-9.9Zm.55,10.26l5.85-4.9,2.8,2.34c.12.1.28.1.4,0l2.8-2.34,5.85,4.9H8.65Zm18.25-.36l-5.91-4.95,5.91-4.95v9.9Z"/>
    <path class="cls-3" d="m14.01,21.72l-5.92,4.95v-9.9l5.92,4.95Zm3.49-13.64l-9.23,8.01,9.23,7.73,9.23-7.73-9.23-8.01Zm2.39,8.28c-.04.16-.11.32-.18.46-.07.14-.17.27-.28.38-.11.11-.24.2-.38.26-.14.06-.31.09-.5.09-.1,0-.19-.01-.28-.03-.08-.02-.16-.06-.22-.1-.07-.04-.12-.1-.17-.17-.04-.07-.07-.15-.09-.24-.1.1-.19.18-.28.25-.09.07-.18.12-.27.17-.09.04-.17.07-.26.09-.08.02-.17.03-.25.03-.11,0-.2,0-.28-.03-.08-.02-.15-.05-.22-.09-.06-.04-.12-.09-.16-.15s-.08-.12-.11-.2c-.03-.07-.05-.15-.06-.24-.01-.09-.02-.18-.02-.29s0-.22.02-.36c.02-.14.05-.27.08-.42.04-.14.09-.28.16-.42.07-.14.15-.26.25-.37.1-.11.22-.2.36-.27.14-.07.3-.1.49-.1.08,0,.15,0,.22.03.07.02.14.05.21.09.07.04.13.09.19.14.06.06.12.13.19.21l.06-.32s.03-.06.07-.08c.03-.02.1-.02.19-.02.04,0,.08,0,.11,0,.03,0,.06,0,.07.02.02,0,.03.02.03.03s0,.03,0,.04l-.32,1.68c-.04.21-.03.37.03.47.06.1.17.15.33.15.1,0,.19-.02.27-.07.08-.05.15-.12.21-.2.06-.08.11-.18.16-.3.04-.12.07-.23.1-.36.03-.12.05-.26.06-.39.01-.13.02-.26.02-.38,0-.21-.03-.41-.09-.61-.05-.19-.16-.36-.29-.5-.14-.15-.32-.26-.56-.35-.23-.08-.52-.13-.87-.13-.29,0-.54.03-.77.09-.22.07-.42.15-.59.26-.17.11-.32.23-.44.37s-.22.29-.31.45-.15.32-.2.49c-.05.17-.09.33-.12.48-.03.16-.05.3-.05.44,0,.13-.01.25-.01.35,0,.27.03.52.09.74s.17.42.32.58.36.29.62.38.58.13.98.13c.18,0,.34,0,.48-.03.14-.02.27-.04.37-.07.11-.02.19-.04.26-.07.07-.02.11-.03.14-.03.02,0,.03,0,.04.01.01,0,.02.02.02.04s.01.04.01.07c0,.03,0,.07,0,.11,0,.03,0,.06,0,.08s0,.04,0,.06c0,.02-.01.03-.02.05,0,.02-.02.03-.03.04-.02.01-.06.03-.13.05-.07.02-.16.05-.28.07s-.26.04-.42.06c-.16.02-.33.02-.52.02-.46,0-.84-.05-1.16-.16-.32-.11-.57-.26-.77-.46s-.34-.44-.43-.72c-.09-.28-.13-.59-.13-.94,0-.13,0-.27.02-.44.01-.17.04-.34.07-.53.04-.19.09-.38.16-.57.07-.19.16-.38.27-.57s.24-.36.4-.52c.15-.17.34-.31.55-.43.21-.12.45-.22.72-.29.27-.07.58-.11.92-.11.4,0,.75.05,1.04.15.29.09.53.23.72.41.19.18.33.39.42.64s.14.53.14.84c0,.17-.01.33-.03.51-.02.17-.06.34-.1.51Z"/>
    <path class="cls-3" d="m26.35,27.03H8.65l5.85-4.9,2.8,2.34c.12.1.28.1.4,0l2.8-2.34,5.85,4.9Zm.55-10.26v9.9l-5.91-4.95,5.91-4.95Z"/>
    <path class="cls-1" d="m19.88,14.49c-.09-.25-.23-.47-.42-.64-.19-.17-.43-.31-.72-.41-.29-.1-.64-.15-1.04-.15-.34,0-.65.04-.92.11-.27.07-.52.17-.72.29-.21.12-.4.27-.55.43-.16.16-.29.34-.4.52s-.2.37-.27.57c-.07.19-.12.38-.16.57s-.06.36-.07.53c-.02.16-.02.31-.02.44,0,.35.04.66.13.94.09.28.23.52.43.72.2.2.46.35.77.46.32.11.7.16,1.16.16.19,0,.37,0,.52-.02.16-.02.3-.04.42-.06s.21-.05.28-.07c.07-.02.11-.04.13-.05.01-.01.02-.02.03-.04,0-.02.02-.03.02-.05,0-.02,0-.04,0-.06s0-.05,0-.08c0-.04,0-.08,0-.11,0-.03,0-.05-.01-.07s-.01-.03-.02-.04c-.01,0-.02-.01-.04-.01-.02,0-.07.01-.14.03-.07.02-.15.04-.26.07-.11.02-.23.05-.37.07-.14.02-.31.03-.48.03-.39,0-.72-.04-.98-.13-.26-.09-.47-.22-.62-.38s-.26-.36-.32-.58c-.06-.22-.09-.47-.09-.74,0-.1,0-.21.01-.35,0-.14.02-.28.05-.44.02-.15.07-.32.12-.48.05-.17.12-.33.2-.49s.19-.31.31-.45.27-.27.44-.37c.17-.11.37-.19.59-.26.22-.06.48-.09.77-.09.35,0,.64.04.87.13.23.09.42.2.56.35.14.14.24.31.29.5.06.19.09.39.09.61,0,.12,0,.25-.02.38s-.03.26-.06.39c-.02.12-.06.24-.1.36-.04.11-.09.21-.16.3-.06.09-.13.15-.21.2-.08.05-.17.07-.27.07-.17,0-.27-.05-.33-.15-.06-.1-.07-.26-.03-.47l.32-1.68s0-.03,0-.04c0-.01-.02-.03-.03-.03-.02-.01-.05-.02-.07-.02-.03,0-.07,0-.11,0-.09,0-.16,0-.19.02-.03.02-.06.04-.07.08l-.06.32c-.06-.07-.12-.14-.19-.21-.06-.06-.12-.11-.19-.14-.07-.04-.13-.07-.21-.09-.07-.02-.15-.03-.22-.03-.19,0-.35.03-.49.1-.14.07-.26.16-.36.27-.1.11-.18.23-.25.37s-.12.28-.16.42c-.04.15-.07.28-.08.42-.02.13-.02.26-.02.36s0,.2.02.29c.01.09.03.17.06.24.03.07.07.14.11.2.04.06.1.11.16.15.06.04.13.07.22.09.08.02.17.03.28.03.08,0,.16,0,.25-.03.08-.02.17-.05.26-.09.09-.04.18-.1.27-.17.09-.07.18-.16.28-.25.02.09.05.17.09.24.05.07.1.12.17.17.07.05.14.08.22.1.09.02.18.03.28.03.19,0,.36-.03.5-.09.15-.06.27-.15.38-.26.11-.11.2-.24.28-.38.07-.15.14-.3.18-.46.05-.17.08-.33.1-.51.02-.17.03-.34.03-.51,0-.31-.05-.59-.14-.84Zm-2.16,2.03c-.09.09-.18.18-.26.25-.07.07-.15.12-.22.17-.07.04-.13.07-.2.09-.06.02-.12.03-.18.03-.15,0-.26-.05-.33-.15-.07-.1-.1-.23-.1-.42,0-.07,0-.16.02-.26.01-.1.03-.2.06-.31.03-.1.06-.21.11-.31s.09-.19.16-.27c.06-.08.13-.14.22-.19.08-.05.17-.07.28-.07.12,0,.23.04.33.12.1.08.19.2.28.36l-.17.95Z"/>
    <path class="cls-3" d="m17.9,15.58l-.17.95c-.09.09-.18.18-.26.25-.07.07-.15.12-.22.17-.07.04-.13.07-.2.09-.06.02-.12.03-.18.03-.15,0-.26-.05-.33-.15-.07-.1-.1-.23-.1-.42,0-.07,0-.16.02-.26.01-.1.03-.2.06-.31.03-.1.06-.21.11-.31s.09-.19.16-.27c.06-.08.13-.14.22-.19.08-.05.17-.07.28-.07.12,0,.23.04.33.12.1.08.19.2.28.36Z"/>
  </g>
</svg>