<?xml version="1.0" encoding="UTF-8"?>
<svg id="Layer_1" xmlns="http://www.w3.org/2000/svg" viewBox="0 0 70 70">
  <defs>
    <style>
      .cls-1 {
        fill: #fff;
      }

      .cls-2 {
        fill: #5835d2;
      }
    </style>
  </defs>
  <g id="Character">
    <rect class="cls-2" x=".39" y=".27" width="70" height="70" rx="12.56" ry="12.56"/>
  </g>
  <g>
    <path class="cls-1" d="M44.76,8.36c.66.36.82.5,1.14,1.2-.29,5.17.37,36.31,0,38.18-.09.44-.76,1.11-1.2,1.2h-8.11c-.02,1.16-.03,2.32-.05,3.49,1.41.45,2.51,1.58,2.97,2.97h6.66c.46-1.4,1.52-2.42,2.86-2.97v-3.33c1.02-.02,2.05-.03,3.07-.05.02,1.13.03,2.25.05,3.38,1.41.45,2.51,1.58,2.97,2.97,1.49.29,6.15-.83,6.5,1.2.52,3.01-4.84,1.61-6.5,1.92-1.75,4.16-7.19,4.17-8.95,0h-6.66c-1.75,4.16-7.19,4.17-8.95,0h-6.76c-1.76,4.17-7.2,4.16-8.95,0-1.9-.34-5.68.9-6.5-1.14v-.83c.82-2.04,4.6-.81,6.5-1.14.46-1.39,1.56-2.5,2.97-2.97.02-1.13.03-2.25.05-3.38,1.02.02,2.05.03,3.07.05v3.33c1.34.55,2.41,1.56,2.86,2.97h6.76c.46-1.4,1.52-2.42,2.86-2.97-.02-1.16-.03-2.32-.05-3.49h-8.11c-.44-.09-1.11-.76-1.2-1.2-.37-1.87.29-33.01,0-38.18.32-.7.49-.83,1.14-1.2h19.56ZM29.42,14.71c-1.55.32-1.55,2.8,0,3.12h11.24c1.56-.31,1.56-2.81,0-3.12h-11.24ZM29.42,20.95c-1.55.32-1.55,2.8,0,3.12h11.24c1.56-.31,1.56-2.81,0-3.12h-11.24ZM29.42,27.2c-1.55.32-1.55,2.8,0,3.12h11.13c1.56-.31,1.56-2.81,0-3.12h-11.13ZM29.42,33.44c-1.55.32-1.55,2.8,0,3.12h11.13c1.56-.31,1.56-2.81,0-3.12h-11.13ZM34.62,39.68c-1.82.36-1.44,3.5.73,3.12,1.83-.32,1.44-3.54-.73-3.12Z"/>
    <path class="cls-1" d="M8.35,44.78V12.73c.25-.46.66-1.04,1.2-1.14,3.8.02,7.59.03,11.39.05v6.14c-2.03.02-4.06.03-6.09.05-1.02.21-1.68,1.81-.73,2.7.88.83,5.31.23,6.76.42.02,1.02.03,2.05.05,3.07-2.03.02-4.06.03-6.09.05-1.02.21-1.68,1.81-.73,2.7.88.83,5.31.23,6.76.42.02,1.02.03,2.05.05,3.07-2.03.02-4.06.03-6.09.05-1.02.21-1.68,1.81-.73,2.7.88.83,5.31.23,6.76.42.02,1.02.03,2.05.05,3.07-2.03.02-4.06.03-6.09.05-.74.15-1.33,1.13-1.2,1.92.37,2.12,5.71.81,7.28,1.25v6.14c-3.8.02-7.59.03-11.39.05-.54-.11-.95-.69-1.2-1.14Z"/>
    <path class="cls-1" d="M49.08,11.59h11.34c.44.09,1.11.76,1.2,1.2v31.94c-.21.49-.65,1.09-1.2,1.2-3.8-.02-7.59-.03-11.39-.05v-6.14c1.58-.45,6.91.88,7.28-1.25.55-3.17-5.57-1.47-7.28-1.98.02-1.02.03-2.05.05-3.07,1.57-.33,6.87.9,7.23-1.2.55-3.17-5.57-1.47-7.28-1.98.02-1.02.03-2.05.05-3.07,1.57-.33,6.87.9,7.23-1.2.55-3.17-5.57-1.47-7.28-1.98.02-1.02.03-2.05.05-3.07,1.57-.33,6.87.9,7.23-1.2.55-3.17-5.57-1.47-7.28-1.98.02-2.06.03-4.13.05-6.19Z"/>
  </g>
</svg>