<?xml version="1.0" encoding="UTF-8"?>
<svg id="Layer_1" xmlns="http://www.w3.org/2000/svg" viewBox="0 0 70 70">
  <defs>
    <style>
      .cls-1, .cls-2 {
        fill: #fff;
      }

      .cls-3, .cls-2 {
        isolation: isolate;
      }

      .cls-2 {
        font-family: Raleway-Bold, Raleway;
        font-size: 9.62px;
        font-weight: 700;
      }

      .cls-4 {
        fill: #5835d2;
      }
    </style>
  </defs>
  <g id="Character">
    <rect class="cls-4" x=".39" y=".27" width="70" height="70" rx="12.56" ry="12.56"/>
  </g>
  <g>
    <path class="cls-1" d="M15.72,53.25h-2.76c-2.04,0-3.67-1.65-3.67-3.67v-7.34c0-2.04,1.65-3.67,3.67-3.67h2.76c.5,0,.92.41.92.92v12.86c0,.5-.41.92-.92.92v-.03ZM12.96,40.39c-1.01,0-1.84.82-1.84,1.84v7.34c0,1.01.82,1.84,1.84,1.84h1.84v-11.02h-1.84Z"/>
    <path class="cls-1" d="M18.48,56.01c-2.04,0-3.67-1.65-3.67-3.67v-12.86c0-2.04,1.65-3.67,3.67-3.67s3.67,1.65,3.67,3.67v12.86c0,2.04-1.65,3.67-3.67,3.67ZM18.48,37.65c-1.01,0-1.84.82-1.84,1.84v12.86c0,1.01.82,1.84,1.84,1.84s1.84-.82,1.84-1.84v-12.86c0-1.01-.82-1.84-1.84-1.84ZM57.04,53.25h-2.76c-.5,0-.92-.41-.92-.92v-12.86c0-.5.41-.92.92-.92h2.76c2.04,0,3.67,1.65,3.67,3.67v7.34c0,2.04-1.65,3.67-3.67,3.67v.03ZM55.2,51.41h1.84c1.01,0,1.84-.82,1.84-1.84v-7.34c0-1.01-.82-1.84-1.84-1.84h-1.84v11.02h0Z"/>
    <path class="cls-1" d="M51.53,56.01c-2.04,0-3.67-1.65-3.67-3.67v-12.86c0-2.04,1.65-3.67,3.67-3.67s3.67,1.65,3.67,3.67v12.86c0,2.04-1.65,3.67-3.67,3.67ZM51.53,37.65c-1.01,0-1.84.82-1.84,1.84v12.86c0,1.01.82,1.84,1.84,1.84s1.84-.82,1.84-1.84v-12.86c0-1.01-.82-1.84-1.84-1.84ZM36.83,62.45h-3.67c-1.51,0-2.76-1.22-2.76-2.76s1.22-2.76,2.76-2.76h3.67c1.51,0,2.76,1.22,2.76,2.76s-1.22,2.76-2.76,2.76ZM33.16,58.77c-.5,0-.92.41-.92.92s.41.92.92.92h3.67c.5,0,.92-.41.92-.92s-.41-.92-.92-.92h-3.67Z"/>
    <path class="cls-1" d="M51.53,60.6h-12.86c-.5,0-.92-.4-.92-.89s.41-.89.92-.89h12.86c2.54,0,4.6-1.99,4.6-4.42v-1.77c0-.49.41-.89.92-.89s.92.4.92.89v1.77c0,3.42-2.87,6.2-6.42,6.2h-.02ZM56.13,38.99c-.5,0-.92-.44-.92-.99v-6.87c0-.95-.06-1.89-.17-2.82-.06-.54.3-1.04.8-1.11.5-.07.97.31,1.04.86.11,1.02.17,2.05.17,3.07v6.87c0,.54-.41.99-.92.99h.01ZM13.9,38.99c-.5,0-.92-.44-.92-.99v-6.87c0-1.02.06-2.06.2-3.07.06-.54.52-.92,1.04-.86.5.07.86.56.8,1.11h0c-.12.94-.19,1.87-.2,2.82v6.87c0,.54-.41.99-.92.99h.01Z"/>
    <path class="cls-1" d="M55.94,27.72c-2.9-.04-5.5-1.79-6.65-4.45-3.47-7.89-12.68-11.46-20.57-7.99-3.62,1.59-6.5,4.51-8.06,8.15-1.05,2.57-3.54,4.26-6.31,4.29h-.27c-.5,0-.92-.4-.92-.91v-.12c1.61-12.06,12.68-20.53,24.74-18.93,9.86,1.31,17.62,9.07,18.93,18.93.06.5-.29.96-.79,1.02h-.12.04-.01ZM35.01,9.36c-9.71,0-18.05,6.91-19.85,16.46,1.71-.32,3.15-1.49,3.81-3.1,3.77-8.87,14.02-12.98,22.88-9.21,2.05.87,3.92,2.14,5.5,3.71,1.54,1.52,2.79,3.32,3.67,5.3.7,1.64,2.14,2.84,3.87,3.24-.76-3.97-2.71-7.62-5.56-10.49-3.8-3.81-8.95-5.94-14.32-5.9h-.01Z"/>
    <g class="cls-3">
      <text class="cls-2" transform="translate(29.01 33.85)"><tspan x="0" y="0">24</tspan></text>
    </g>
    <g>
      <path class="cls-1" d="M43.52,34.92s-.07,0-.12-.02c-.19-.06-.29-.27-.21-.45h0c.16-.45.29-.9.37-1.37.04-.19.22-.32.41-.29s.32.22.29.41h0c-.1.5-.22,1-.4,1.47-.05.14-.19.24-.34.24h0Z"/>
      <path class="cls-1" d="M41.28,38.48c-.2,0-.35-.16-.35-.36,0-.09.04-.19.1-.25.41-.42.79-.87,1.12-1.37.11-.16.32-.21.5-.1s.21.32.1.5c-.35.52-.76,1.02-1.21,1.47-.06.06-.16.11-.25.11h-.01Z"/>
      <path class="cls-1" d="M42.79,23.21c-.12-.06-.27-.04-.39.05l-1.05.91c-3.97-3.81-10.27-3.69-14.08.29-3.81,3.97-3.69,10.27.29,14.08,3.14,3.01,7.87,3.64,11.7,1.55.17-.1.24-.31.14-.49s-.31-.24-.49-.14c-4.47,2.46-10.11.84-12.57-3.65-2.46-4.47-.84-10.11,3.65-12.57,3.54-1.95,7.91-1.37,10.84,1.4l-1.26,1.1c-.15.12-.16.35-.04.5.06.07.16.12.26.12h2.85c.2,0,.35-.16.35-.35v-2.49c0-.14-.09-.26-.21-.32h.02Z"/>
      <path class="cls-1" d="M44.07,31.35c-.19,0-.35-.15-.35-.34-.01-.46-.06-.91-.15-1.37-.04-.19.09-.37.29-.41.19-.04.37.09.41.27.1.49.15.99.17,1.47,0,.2-.15.36-.34.37h-.04Z"/>
    </g>
  </g>
</svg>