<?xml version="1.0" encoding="UTF-8"?><svg id="a" xmlns="http://www.w3.org/2000/svg" width="35" height="35" viewBox="0 0 35 35"><path d="M17.5.765h0c9.242,0,16.735,7.493,16.735,16.735h0c0,9.242-7.493,16.735-16.735,16.735h0C8.258,34.235.765,26.742.765,17.5h0C.765,8.258,8.258.765,17.5.765Z" fill="#eae5ff"/><path d="M15.799,7.002l.464-.084v4.641c-1.313-.014-2.624-.113-3.924-.295l.253-.717.886-1.603c.553-.872,1.364-1.55,2.321-1.941ZM13.394,7.719c0,.042-.042.084-.084.127-.625.767-1.136,1.619-1.519,2.532-.089.19-.16.388-.211.591-.01.093-.094.159-.187.149-.023-.003-.046-.01-.066-.022l-1.983-.422-.169-.084c1.145-1.294,2.595-2.28,4.219-2.869ZM6.854,16.116c.094-.987.335-1.954.717-2.869.253-.506.549-1.013.802-1.561s.169-.169.295-.084l1.224.295,1.181.211.084.169c-.042.295-.127.506-.169.802-.125.513-.21,1.035-.253,1.561-.084.506-.127,1.055-.169,1.561s-.042.127-.169.127h-3.333c-.169,0-.211-.042-.211-.211ZM8.584,22.318c-.127,0-.169,0-.253-.084-.467-.751-.836-1.56-1.097-2.405-.167-.653-.294-1.315-.38-1.983,0-.169.042-.211.169-.211h3.544c.07,1.352.267,2.694.591,4.008l-1.013.211-1.561.464ZM9.132,23.289c0-.047.038-.084.084-.084l.97-.211.928-.211c.338-.084.338-.042.464.253.384,1.179,1.001,2.27,1.814,3.207-.802.042-3.502-1.856-4.261-2.954ZM11.537,17.635h4.726v3.502l-4.346.338c-.042-.295-.127-.633-.211-1.013l-.253-1.646c-.042-.338-.042-.675-.084-1.055s.042-.127.169-.127ZM16.263,27.044c-.344-.009-.68-.111-.97-.295-.765-.435-1.404-1.06-1.856-1.814-.448-.672-.817-1.394-1.097-2.152-.042-.169,0-.211.127-.211,1.077-.147,2.162-.232,3.249-.253h.549v4.726ZM16.094,16.327h-4.515c-.169,0-.211-.042-.211-.211s.127-1.35.211-1.983.253-1.097.338-1.646.084-.211.253-.169l2.447.211,1.646.084v3.502c0,.169,0,.211-.169.211ZM24.786,11.559l.169.084c.488.715.872,1.497,1.139,2.321.205.703.346,1.423.422,2.152q0,.211-.211.211h-3.291c-.169,0-.211-.042-.211-.211l-.127-1.73-.38-1.814c0-.084-.042-.127-.042-.169s-.042-.253.211-.295l2.321-.549ZM24.195,10.631l-.464.127-1.688.338c-.127.042-.169,0-.211-.127-.418-1.164-1.032-2.249-1.814-3.207-.024-.022-.04-.052-.042-.084,1.649.583,3.107,1.604,4.219,2.954ZM17.107,6.876l.717.211c.713.324,1.325.834,1.772,1.477.6.746,1.071,1.588,1.392,2.489.034.05.049.109.042.169-.338.169-3.418.38-3.924.295v-4.641ZM17.107,12.867v-.295h1.181l1.772-.127,1.181-.127c.127-.042.169.042.211.169.219.816.375,1.649.464,2.489.042.38.042.802.084,1.181s-.042.169-.127.169h-4.515c-.211,0-.253-.042-.253-.253v-3.207Z" fill="#5138cc"/><path d="M22.237,21.351c-.936.061-1.876-.047-2.774-.32-.533-.099-1.031-.338-1.44-.694-.277-.172-.485-.437-.587-.747-.092-.302-.01-.63.213-.854.287-.37.677-.649,1.12-.8.652-.258,1.333-.438,2.027-.533.693-.053,1.388-.053,2.081,0,.869.049,1.721.266,2.507.64.311.152.584.37.8.64.366.39.366.997,0,1.387l-.694.533h-.107c-.207-.005-.411.051-.587.16-.323.258-.71.424-1.12.48l-1.44.107Z" fill="#5138cc"/><path d="M22.717,24.019l.747.16c-.317.571-.375,1.25-.16,1.867.486,1.075,1.752,1.553,2.827,1.067s1.553-1.752,1.067-2.827c-.355-.734-1.106-1.192-1.921-1.174v.854l-1.654-1.227,1.654-1.28v.907c.788.005,1.54.333,2.081.907.403.426.664.966.747,1.547.264,1.539-.77,3.001-2.309,3.265-.967.166-1.951-.181-2.599-.917-.806-.844-.998-2.102-.48-3.148Z" fill="#5138cc"/><path d="M17.435,20.124c.126.415.414.762.8.96.583.326,1.213.56,1.867.694.897.168,1.814.204,2.721.107h.533l-.213.213c-.367.246-.466.743-.22,1.11.002.003.005.007.007.01h0c-.277-.055-.565.003-.8.16l-.213.107c-.833.01-1.662-.116-2.454-.373-.536-.112-1.043-.329-1.494-.64-.275-.211-.464-.514-.533-.854,0,0,0-1.494,0-1.494Z" fill="#5138cc"/><path d="M21.703,26.099c.139.562.393,1.089.747,1.547h0c-.895.064-1.794-.008-2.667-.213-.548-.124-1.071-.341-1.547-.64-.305-.143-.551-.388-.694-.694-.06-.097-.096-.207-.107-.32-.027-.48-.027-.961,0-1.44.05.135.123.261.213.373.269.367.64.645,1.067.8.75.307,1.541.505,2.347.587h.64Z" fill="#5138cc"/><path d="M21.81,24.019c-.149.502-.221,1.024-.213,1.547h-.587c-.69-.06-1.371-.203-2.027-.427-.448-.145-.852-.402-1.174-.747-.262-.207-.419-.52-.427-.854.027-.409.027-.818,0-1.227l.267.373c.206.28.482.501.8.64.607.292,1.254.49,1.921.587l1.227.107h.213Z" fill="#5138cc"/><path d="M26.451,20.124c0,.533.053,1.067,0,1.6l-.267-.107h-.053c.012-.249-.063-.494-.213-.694.256-.206.442-.485.533-.8Z" fill="#5138cc"/></svg>