<?xml version="1.0" encoding="UTF-8"?><svg id="a" xmlns="http://www.w3.org/2000/svg" width="35" height="35" viewBox="0 0 35 35"><path d="M17.5.765h0c9.242,0,16.735,7.493,16.735,16.735h0c0,9.242-7.493,16.735-16.735,16.735h0C8.258,34.235.765,26.742.765,17.5h0C.765,8.258,8.258.765,17.5.765Z" fill="#eae5ff"/><path d="M21.16,13.906c-.999.003-1.993.138-2.957.401-.657.155-1.273.451-1.804.869-.351.301-.351.651.017.885.315.221.651.412,1.002.568.92.376,1.897.591,2.89.635.979.089,1.964.078,2.94-.033.916-.078,1.813-.303,2.656-.668.325-.151.633-.336.919-.551.317-.267.301-.518,0-.819-.063-.055-.13-.106-.2-.15-.368-.184-.702-.401-1.086-.551-1.27-.468-2.589-.585-4.377-.585ZM27.04,16.963l-.551.334c-1.219.652-2.556.852-3.926.952-1.144.087-2.294.03-3.425-.167-.935-.167-1.854-.418-2.673-.919l-.334-.2c0,.535.017,1.036-.017,1.52s.167.752.518.986l.384.217c.919.468,1.921.668,2.94.785,1.027.114,2.063.12,3.09.017.934-.076,1.852-.29,2.723-.635.37-.191.722-.415,1.052-.668.109-.087.18-.213.2-.351.017-.618.017-1.236.017-1.871ZM27.04,20.204l-.117.033c-.595.413-1.264.708-1.971.869-1.996.5-4.079.552-6.097.15-.952-.167-1.854-.451-2.656-1.019h-.084c0,.468.033.935,0,1.403-.035.367.148.72.468.902.544.344,1.143.592,1.771.735,1.386.345,2.82.458,4.243.334,1.027-.036,2.041-.233,3.007-.585.434-.167.869-.351,1.203-.702.115-.099.192-.235.217-.384.033-.568.017-1.136.017-1.737ZM27.04,23.344c-.368.184-.685.384-1.036.518-1.253.518-2.573.685-3.926.752-.945.039-1.891-.023-2.823-.184-1.086-.184-2.138-.434-3.057-1.086h-.067c0,.401.017.785-.017,1.169-.032.357.143.701.451.885l.267.167c.688.369,1.434.617,2.205.735,1.272.239,2.571.295,3.859.167.954-.065,1.894-.267,2.79-.601.424-.142.812-.376,1.136-.685.106-.089.177-.214.2-.351.017-.484.017-.986.017-1.487ZM12.891,11.367c0,.017,1.403-.117,2.105-.234.479-.085.928-.292,1.303-.601.234-.2.234-.384-.017-.551-.268-.189-.56-.341-.869-.451-1.565-.484-3.237-.502-4.811-.05-.388.12-.754.3-1.086.535-.251.15-.234.351-.017.518.237.171.495.312.768.418.835.334,1.721.418,2.623.418ZM16.432,11.166c-1.103.702-2.305.835-3.541.835s-2.439-.15-3.541-.852c0,.384-.033.718,0,1.069.01.16.082.31.2.418.248.192.524.344.819.451,1.457.478,3.019.541,4.51.184.456-.077.89-.254,1.27-.518.117-.084.267-.234.267-.368.031-.406.037-.813.017-1.219ZM9.333,13.338c.017.206.017.412,0,.618-.067.518.2.802.635,1.002l.301.117c.717.264,1.474.405,2.238.418.972.062,1.948-.063,2.873-.368.078-.024.144-.078.184-.15.181-.334.439-.62.752-.835.05-.033.117-.1.117-.15v-.618c-2.389,1.036-4.728,1.036-7.1-.033ZM15.413,15.81c-2.088.501-4.109.518-6.064-.468h0c.003.112-.003.223-.017.334-.1.651.251,1.002.802,1.219l.167.067c.866.291,1.776.427,2.69.401.751.01,1.5-.091,2.222-.301.085-.021.157-.075.2-.15.017-.368,0-.718,0-1.103Z" fill="#5138cc"/><path d="M12.657,23.461l-.217-.718c-.074-.249.068-.511.317-.585s.511.068.585.317h0c.15.484.317.952.451,1.437.038.153.014.315-.067.451-.234.401-.518.768-.768,1.153-.106.169-.305.255-.501.217-.187-.029-.33-.18-.351-.368-.009-.135.027-.27.1-.384.099-.185.211-.364.334-.535l-.167-.084c-1.169-.418-1.804-1.27-2.038-2.472-.15-.797-.133-1.616.05-2.406.015-.075.037-.147.067-.217.086-.219.326-.336.551-.267.217.076.355.289.334.518-.078.548-.122,1.1-.134,1.654.017.406.102.807.251,1.186.2.535.618.885,1.203,1.103Z" fill="#5138cc"/><path d="M22.463,10.899c-.205-.606-.681-1.081-1.286-1.286-.835-.284-1.687-.234-2.522-.067l-.184.033c-.248.041-.484-.121-.535-.368-.042-.243.111-.477.351-.535.264-.066.532-.116.802-.15.748-.117,1.513-.066,2.238.15.986.317,1.671.935,2.005,1.904l.1.217.551-.368c.175-.132.418-.125.585.017.19.146.226.419.08.609-.027.036-.06.067-.097.093-.401.301-.819.568-1.236.835-.134.048-.28.054-.418.017-.468-.117-.919-.267-1.387-.418s-.468-.334-.384-.601.334-.368.651-.284l.685.2Z" fill="#5138cc"/><path d="M21.16,13.906c1.787,0,3.107.117,4.377.585.384.15.718.368,1.086.551.071.045.138.095.2.15.301.301.317.551,0,.819-.286.215-.594.4-.919.551-.843.365-1.74.59-2.656.668-.976.111-1.961.123-2.94.033-.993-.044-1.97-.259-2.89-.635-.352-.156-.687-.347-1.002-.568-.368-.234-.368-.585-.017-.885.531-.417,1.147-.714,1.804-.869.964-.263,1.958-.398,2.957-.401Z" fill="#5138cc"/><path d="M27.04,16.963c0,.635,0,1.253-.017,1.871-.02.138-.092.263-.2.351-.33.254-.682.477-1.052.668-.871.345-1.789.559-2.723.635-1.028.103-2.064.097-3.09-.017-1.019-.117-2.021-.317-2.94-.785l-.384-.217c-.351-.234-.551-.518-.518-.986s.017-.986.017-1.52l.334.2c.819.501,1.737.752,2.673.919,1.13.197,2.281.254,3.425.167,1.37-.1,2.706-.301,3.926-.952l.551-.334Z" fill="#5138cc"/><path d="M27.04,20.204c0,.601.017,1.169-.017,1.737-.025.149-.102.285-.217.384-.334.351-.768.535-1.203.702-.965.351-1.98.549-3.007.585-1.423.124-2.857.011-4.243-.334-.628-.143-1.226-.391-1.771-.735-.32-.182-.503-.536-.468-.902.033-.468,0-.935,0-1.403h.084c.802.568,1.704.852,2.656,1.019,2.019.401,4.101.35,6.097-.15.707-.16,1.376-.455,1.971-.869l.117-.033ZM17.201,21.607c0-.194-.157-.351-.351-.351-.184-.009-.341.133-.35.317,0,.006,0,.011,0,.017,0,.194.157.351.351.351.184-.008.334-.151.351-.334Z" fill="#5138cc"/><path d="M27.04,23.344c0,.501,0,1.002-.017,1.487-.023.137-.094.261-.2.351-.324.309-.712.543-1.136.685-.896.334-1.836.537-2.79.601-1.288.128-2.587.072-3.859-.167-.771-.118-1.517-.366-2.205-.735l-.267-.167c-.308-.184-.483-.528-.451-.885.033-.384.017-.768.017-1.169h.067c.919.651,1.971.902,3.057,1.086.932.161,1.878.222,2.823.184,1.353-.067,2.673-.234,3.926-.752.351-.134.668-.334,1.036-.518ZM16.833,24.965c.19-.008.342-.161.351-.351-.016-.187-.164-.335-.351-.351-.203,0-.368.165-.368.368.024.186.18.328.368.334Z" fill="#5138cc"/><path d="M12.891,11.367c-.902,0-1.787-.084-2.623-.418-.273-.106-.531-.246-.768-.418-.217-.167-.234-.368.017-.518.332-.234.698-.415,1.086-.535,1.574-.452,3.246-.434,4.811.05.309.11.601.262.869.451.251.167.251.351.017.551-.375.309-.824.517-1.303.601-.702.117-2.105.251-2.105.234Z" fill="#5138cc"/><path d="M16.432,11.166c.02.406.014.814-.017,1.219,0,.134-.15.284-.267.368-.38.264-.813.441-1.27.518-1.491.357-3.053.294-4.51-.184-.295-.107-.571-.259-.819-.451-.118-.108-.19-.258-.2-.418-.033-.351,0-.685,0-1.069,1.103.702,2.305.852,3.541.852s2.439-.134,3.541-.835ZM10.352,12.185c0-.194-.157-.351-.351-.351s-.351.157-.351.351.157.351.351.351h0c.19-.008.342-.161.351-.351Z" fill="#5138cc"/><path d="M9.333,13.338c2.372,1.069,4.711,1.069,7.1.033,0,.184.017.401,0,.618s-.067.117-.117.15c-.313.215-.571.501-.752.835-.039.072-.105.126-.184.15-.926.304-1.901.429-2.873.368-.764-.013-1.521-.154-2.238-.418l-.301-.117c-.434-.2-.702-.484-.635-1.002.017-.206.023-.413,0-.618ZM9.968,14.574c.184.009.341-.133.35-.317,0-.006,0-.011,0-.017,0-.194-.157-.351-.351-.351s-.351.157-.351.351c0,.185.149.334.334.335.006,0,.011,0,.017,0Z" fill="#5138cc"/><path d="M15.413,15.81c0,.384.017.735,0,1.103-.043.075-.116.13-.2.15-.721.215-1.47.322-2.222.317-.913.026-1.824-.109-2.69-.401l-.167-.067c-.551-.217-.902-.568-.802-1.219.014-.111.019-.222.017-.334h0c1.954.969,3.976.952,6.064.451ZM9.934,16.545c.2-.033.336-.222.303-.422-.023-.143-.129-.26-.27-.296-.2,0-.367.152-.384.351.014.19.161.344.351.368Z" fill="#5138cc"/><path d="M17.201,21.607c-.017.184-.167.326-.351.334-.194,0-.351-.157-.351-.351,0-.185.149-.334.334-.335.006,0,.011,0,.017,0,.194,0,.351.157.351.351Z" fill="#5138cc"/><path d="M16.833,24.965c-.188-.007-.343-.148-.368-.334,0-.203.165-.368.368-.368.187.016.335.164.351.351-.008.19-.161.342-.351.351Z" fill="#5138cc"/><path d="M10.352,12.185c-.008.19-.161.342-.351.351-.194,0-.351-.157-.351-.351s.157-.351.351-.351.351.157.351.351h0Z" fill="#5138cc"/><path d="M9.968,14.574c-.184.009-.341-.133-.35-.317,0-.006,0-.011,0-.017,0-.194.157-.351.351-.351s.351.157.351.351h0c0,.185-.149.334-.334.335-.006,0-.011,0-.017,0Z" fill="#5138cc"/><path d="M9.934,16.545c-.19-.023-.336-.177-.351-.368.017-.199.184-.352.384-.351.196.051.314.252.263.448-.037.141-.153.247-.296.27Z" fill="#5138cc"/></svg>