<?xml version="1.0" encoding="UTF-8"?>
<svg id="Layer_1" xmlns="http://www.w3.org/2000/svg" viewBox="0 0 70 70">
  <defs>
    <style>
      .cls-1 {
        fill: #f2efff;
      }

      .cls-2 {
        fill: #fff;
      }

      .cls-3 {
        fill: #5835d2;
      }
    </style>
  </defs>
  <g id="Character">
    <rect class="cls-3" x=".39" y=".27" width="70" height="70" rx="12.56" ry="12.56"/>
  </g>
  <g>
    <g>
      <path class="cls-2" d="M41.06,6.98c5.89,1.14,11.04,6.03,10.7,12.65,17.17,1.91,14.24,24.63-2.88,22.78-4.33,10.04-12.59,8.79-13.05,9.51-.15.37-.31.97-.04,1.45.38.68,1.43.77,2.05.79,3.73.14,7.43-.9,11.16-.71.87.05,1.77.23,2.48.76,1.3.96,1.33,2.99,1.34,4.46,0,1.35-.15,3.19-1.41,3.99-1.54.98-4.01.51-5.74.52-8.57.05-17.15.04-25.72.06-.84,0-1.61-.07-2.18-.76-.4-.48-.61-1.09-.77-1.7-.52-2.07-.69-5.11,1.35-6.45.57-.37,1.24-.7,4.56-.52,3.11.17,9.23.77,10.64-.2.17-.12.64-.44.7-.95,0,0,.06-.36-.18-.73-.46-.72-8.72.53-13.05-9.51.02.04-5.06-.15-5.61-.28-1.65-.4-3.2-1.14-4.51-2.22-3.54-2.93-5.01-7.81-3.64-12.2,1.62-5.18,6.67-8.21,11.99-7.85,1.34-2.38,3.91-4.42,6.64-4.42.25,0,2.1-3.27,2.43-3.67.92-1.11,1.97-2.1,3.16-2.92,2.89-1.97,6.35-2.48,9.59-1.85ZM37.37,8.34c-3.69.34-10.11,5.72-8.41,7.08,1.4.52,2.8,1.03,4.2,1.55.23.09.68.94.43,1.17-.45.42-1.61-.16-2.1-.3-.68-.19-1.38-.33-2.07-.45-1.59-.28-3.26-.36-4.82.13-.66.21-1.28.51-1.84.92-.16.12-1.67,1.56-1.56,1.63,9.28,5.87-1.52,1.2-4.65,1.55-11.2,1.24-11.11,20.18,3.54,19.02-2.96-19.11,19.64-24.85,27.65-12.17,5.25,8.31-2.25,14.72,7.3,11.72,6.27-1.97,8.3-10.96,3.76-15.71-6.28-6.57-14.14,1.11-13.71-2.21.28-2.18,8.52-.28,3.1-8.85-2.03-3.22-7.08-5.43-10.84-5.09ZM34.28,23.38c-9.53.36-15.81,12.01-10.84,20.13,2.36-1.18,4.72-2.36,7.08-3.54-6.68-5.31-1.77-15.06,6.41-13.49,5.43,1.04,7.87,9.89,2.43,13.49,2.62.62,4.82,2.04,6.86,3.76,5.65-8.88-1.66-20.74-11.94-20.35ZM33.83,28.25c-6.82.99-5.45,12.14,1.77,11.5,6.88-.61,6.54-12.71-1.77-11.5ZM32.06,41.52c-2.94.39-8.87,2.54-5.31,5.75,6.39,5.75,17.47.7,17.92-1.55.44-2.21-6.81-4.98-12.61-4.2ZM19.74,55.81c-.38.17-.64.49-.77,1.05-.18.79-.08,1.62-.02,2.42.06.81,0,2.15,1.09,2.15,5.31-.02,10.61,0,15.92,0,4.38,0,8.77.02,13.15.04.79,0,1.44-.06,1.68-.91.15-.53.16-1.08.17-1.62.03-.91.27-2.49-.61-3.1-.48-.33-1.11-.21-1.66-.21-.72,0-1.44.06-2.16.06h-19.92c-1.92,0-3.84-.01-5.77-.04-.44,0-.81.03-1.11.17Z"/>
      <path class="cls-2" d="M38.24,10.51c1.35-.57,2.97.08,4.22.66,1.23.58,2.84,1.5,3.48,2.76.17.34.25.77-.11,1.02-.39.28-1.02.1-1.38-.14-.65-.43-1.17-1.02-1.83-1.44-.77-.49-1.6-.79-2.47-1-.52-.13-1.05-.2-1.56-.38-.34-.12-1.32-.42-1.07-.95.06-.13.17-.22.29-.3.14-.1.29-.18.45-.24Z"/>
      <path class="cls-2" d="M33.83,28.25c8.31-1.21,8.65,10.9,1.77,11.5-7.22.64-8.59-10.51-1.77-11.5Z"/>
      <path class="cls-2" d="M32.06,41.52c5.8-.78,13.05,1.99,12.61,4.2-.45,2.25-11.53,7.3-17.92,1.55-3.56-3.21,2.37-5.36,5.31-5.75Z"/>
    </g>
    <path class="cls-1" d="M26.5,57.93c0,.48.02.97.02,1.45.45,0,.91-.01,1.36-.02,0-.48-.02-.97-.02-1.45-.45,0-.91.01-1.36.02Z"/>
    <path class="cls-1" d="M29.32,57.92c0,.48,0,.97,0,1.45.45,0,.91,0,1.36,0,0-.48,0-.97,0-1.45-.45,0-.91,0-1.36,0Z"/>
    <path class="cls-1" d="M32.12,57.92c0,.48,0,.97.01,1.45.45,0,.91,0,1.36,0,0-.48,0-.97-.01-1.45-.45,0-.91,0-1.36,0Z"/>
    <path class="cls-1" d="M35.17,57.93c0,.48.02.97.02,1.45.45,0,.91-.01,1.36-.02,0-.48-.02-.97-.02-1.45-.45,0-.91.01-1.36.02Z"/>
    <path class="cls-1" d="M37.99,57.92c0,.48,0,.97,0,1.45.45,0,.91,0,1.36,0,0-.48,0-.97,0-1.45-.45,0-.91,0-1.36,0Z"/>
    <path class="cls-1" d="M40.8,57.92c0,.48,0,.97.01,1.45.45,0,.91,0,1.36,0,0-.48,0-.97-.01-1.45-.45,0-.91,0-1.36,0Z"/>
  </g>
</svg>