<?xml version="1.0" encoding="UTF-8"?><svg id="a" xmlns="http://www.w3.org/2000/svg" width="70" height="70" viewBox="0 0 70 70"><rect x="1.152" y="1.152" width="67.696" height="67.696" rx="11.185" ry="11.185" fill="#fff"/><path d="M22.67,35.459c.35.993.642,1.869.993,2.628,2.277,4.964,6.073,8.175,11.27,9.869,8.329,2.546,17.333-.774,22.015-8.117.759-1.11,1.285-2.336,1.927-3.504.051-.181.179-.33.35-.409.292-.058.467.175.35.584-.466,1.837-1.173,3.604-2.102,5.256-3.621,6.307-9.11,10.161-16.351,11.154-9.635,1.285-17.402-2.219-23.242-9.986-1.556-2.168-2.704-4.603-3.387-7.183-.117-.292-.234-.409-.526-.409l-3.095-.234c-.175,0-.409-.058-.467-.175-.049-.184-.005-.38.117-.526,2.686-3.737,5.372-7.475,8-11.27.35-.467.526-.409.818.058,2.219,3.971,4.613,7.825,7.124,11.562.114.15.157.342.117.526-.058.117-.292.175-.467.175-1.11.058-2.219,0-3.445,0Z" fill="#6b46f2"/><path d="M36.51,42.409l-.117.409c-.234.584-.526,1.11-.759,1.693-.209.542-.817.812-1.359.603-.055-.021-.109-.047-.16-.078-.542-.209-.812-.817-.603-1.359.021-.055.047-.109.078-.16.292-.584.584-1.168.934-1.752.233-.442.758-.642,1.226-.467.474.157.784.611.759,1.11Z" fill="#6b46f2"/><path d="M47.897,43.518c-.155.593-.761.948-1.354.793-.409-.107-.722-.437-.807-.852,0-.642-.058-1.285-.058-1.985,0-.581.469-1.052,1.05-1.053.02,0,.04,0,.06.002.577-.065,1.097.351,1.161.928.005.041.007.082.006.123,0,.35-.058,1.693-.058,2.044Z" fill="#6b46f2"/><path d="M39.196,17.882c.033-.471.361-.87.818-.993.437-.178.938-.003,1.168.409l1.051,1.927c.208.516-.022,1.105-.526,1.343-.526.292-1.168.292-1.402-.234s-.701-1.518-1.051-2.277,0-.117-.058-.175Z" fill="#6b46f2"/><path d="M47.196,20.919c-.384.477-1.083.552-1.56.168-.099-.08-.184-.176-.25-.285-.117-.3-.117-.634,0-.934.232-.649.526-1.275.876-1.869.228-.499.817-.718,1.316-.49.05.023.098.05.144.081.513.192.774.764.582,1.278-.016.043-.035.084-.056.124-.296.641-.627,1.265-.993,1.869-.032,0-.058.026-.058.058h0Z" fill="#6b46f2"/><path d="M53.445,21.736c.211.472.119,1.024-.234,1.402h-.058c-.466.439-.974.83-1.518,1.168-.554.262-1.215.026-1.478-.528-.181-.382-.129-.834.134-1.165l1.46-1.226c.323-.278.777-.346,1.168-.175.228.113.412.298.526.526Z" fill="#6b46f2"/><path d="M52.802,29.445c-.543.073-1.051-.282-1.168-.818-.153-.515.132-1.059.642-1.226.724-.237,1.466-.413,2.219-.526.507-.097.996.235,1.094.741.009.044.014.089.016.134.185.516-.082,1.085-.598,1.27-.015.005-.029.01-.044.015l-2.161.409Z" fill="#6b46f2"/><path d="M55.605,34.292c.032.612-.439,1.134-1.051,1.165-.139.007-.277-.012-.409-.056l-1.752-.467c-.544-.071-.927-.569-.856-1.113.008-.058.02-.116.038-.172.103-.571.65-.951,1.222-.847.041.007.082.017.122.03l1.81.409c.525.061.911.523.876,1.051Z" fill="#6b46f2"/><path d="M28.685,40.598c-.234-.479-.114-1.056.292-1.402h0c.5-.441,1.026-.85,1.577-1.226.468-.335,1.119-.231,1.46.234.362.438.311,1.085-.117,1.46l-1.518,1.285c-.329.273-.791.319-1.168.117-.224-.091-.409-.256-.526-.467Z" fill="#6b46f2"/><path d="M50.466,37.795l.526.234,1.518,1.11c.491.31.638.959.328,1.45-.028.045-.06.087-.094.127-.311.49-.961.635-1.451.324-.067-.042-.129-.092-.184-.149l-1.518-1.226c-.322-.322-.415-.808-.234-1.226.163-.456.632-.728,1.11-.642Z" fill="#6b46f2"/><path d="M41.882,45.562c.004.581-.464,1.054-1.045,1.058-.041,0-.082-.002-.123-.006-.547.036-1.02-.378-1.056-.925-.004-.062-.002-.123.005-.185,0-.642,0-1.285.058-1.927-.033-.547.383-1.018.931-1.051.04-.002.08-.002.12,0,.581,0,1.052.469,1.053,1.05,0,.02,0,.04-.002.06.058.35.058,1.635.058,1.927Z" fill="#6b46f2"/><path d="M46.517,30.08h-3.387c-.187,0-.34-.149-.345-.336v-2.115c0-.599-.442-1.106-1.035-1.187v.937c-.001.871-.368,1.701-1.011,2.288l-1.132,1.035v5.074h5.992c.131,0,.236-.106.236-.236,0,0,0-.001,0-.002v-.594c0-.131-.104-.237-.235-.238,0,0-.001,0-.002,0h-1.208v-.492h1.43c.131,0,.237-.104.238-.235,0,0,0-.001,0-.002v-.538c0-.131-.107-.238-.238-.238h-.89v-.485h1.523c.131,0,.236-.106.236-.236h0v-.602c0-.131-.106-.236-.236-.236h-1.016v-.492h1.078c.317,0,.538-.173.538-.33v-.411c.002-.155-.221-.33-.538-.33Z" fill="#6b46f2"/><rect x="36.709" y="29.255" width="2.405" height="6.937" fill="#6b46f2"/></svg>