<?xml version="1.0" encoding="UTF-8"?>
<svg id="Layer_1" xmlns="http://www.w3.org/2000/svg" viewBox="0 0 70 70">
  <defs>
    <style>
      .cls-1 {
        fill: #4927b9;
      }

      .cls-2 {
        fill: #eae5ff;
      }
    </style>
  </defs>
  <rect class="cls-2" x=".15" y=".15" width="69.7" height="69.7" rx="10.83" ry="10.83"/>
  <g>
    <path class="cls-1" d="M21.12,7.71c1.61-.33,1.51,4.71-.11,3.87-.59-.3-.65-3.71.11-3.87Z"/>
    <path class="cls-1" d="M33.83,7.71c19.84-1.08,33.11,20.05,23.32,37.36-.48-.11-.96-.22-1.44-.33,1.04-2.2,2.21-4.63,2.71-7.13,3.17-15.82-9.79-29.96-25.81-28.24-2.63.28-5.7,1.93-5.25-.06.18-.81,5.54-1.55,6.47-1.6Z"/>
    <path class="cls-1" d="M16.48,12.36c.76-.2,3.72-.31,3.48.94-.18.92-3.32.63-3.59.5-.53-.26-.52-1.28.11-1.44Z"/>
    <path class="cls-1" d="M23.22,12.36h3.09c.96.31.52,2.21-2.76,1.55-1.08-.22-.86-1.39-.33-1.55Z"/>
    <path class="cls-1" d="M21.23,14.46c1.49-.21,1.36,4.95-.33,3.87-.35-.23-.65-3.73.33-3.87Z"/>
    <path class="cls-1" d="M16.48,16.45c.66-.17,1.17.27,1.05.94-.07.38-2.64,3.15-3.98,6.52-7.84,19.74,12.14,38.79,31.44,30.34.04.55.07,1.11.11,1.66-.4.47-6.18,1.77-7.74,1.88-20.79,1.42-33.98-21.04-23.27-38.3.29-.47,2.03-2.95,2.38-3.04Z"/>
    <path class="cls-1" d="M35.05,19.65c5.39-.22,8.67,6.03,5.36,10.33-4.02,5.24-13.02,1.32-11.16-5.75.63-2.42,3.33-4.49,5.8-4.59Z"/>
    <path class="cls-1" d="M17.25,25.73c.69-.09,1.61.07,2.21.44l8.95,10.28c.29.11.59.22.88.33.67.11,12,.08,12.6-.11,2.14-1.38,8.16-9.74,9.39-10.5,2.58-1.59,6.14,1.21,4.03,4.48-3.98,4.68-7.96,9.36-11.94,14.04-.69,1.47-.16,6.59-.33,8.62-4.82,1.88-10.53,1.88-15.36,0-.17-2.03.36-7.15-.33-8.62-3.98-4.68-7.96-9.36-11.94-14.04-1.51-2.35.03-4.68,1.82-4.92Z"/>
    <path class="cls-1" d="M53.28,46.18c7.03-.69,11.06,7.23,7.02,12.43-3.15,4.05-9.64,3.82-12.49-.44-3.32-4.97.2-11.48,5.47-11.99ZM58.48,50.6c-.5.01-5.12,4.55-5.97,5.19-.92-1.07-1.84-2.14-2.76-3.21-.72-.21-1.21.33-1.05,1.05.06.27,3.2,4.17,3.7,4.14.44-.02,6.44-5.44,6.69-5.8.52-.76-.14-1.39-.61-1.38Z"/>
    <path class="cls-1" d="M13.16,51.59c.34-.1.96.18,1.05.5.2.67.28,4.16-1.16,3.37-.59-.32-.63-3.66.11-3.87Z"/>
    <path class="cls-1" d="M8.85,56.12c.85-.18,3.58-.26,3.15,1.16-.18.59-3.69.59-3.87,0-.16-.54.17-1.05.72-1.16Z"/>
    <path class="cls-1" d="M15.59,56.12c.7-.15,3.28-.2,3.26.83-.17.24-.33.48-.5.72h-3.09c-.46-.15-.69-1.33.33-1.55Z"/>
    <path class="cls-1" d="M13.27,58.33c.18.04.37.07.55.11.56.31.91,4.66-.77,3.76-.56-.3-.7-3.72.22-3.87Z"/>
  </g>
</svg>