<?xml version="1.0" encoding="UTF-8"?>
<svg id="Layer_1" xmlns="http://www.w3.org/2000/svg" viewBox="0 0 70 70">
  <defs>
    <style>
      .cls-1 {
        fill: #fff;
      }

      .cls-2 {
        fill: #5835d2;
      }

      .cls-3 {
        fill: none;
        stroke: #fff;
        stroke-miterlimit: 10;
        stroke-width: .25px;
      }
    </style>
  </defs>
  <g id="Character">
    <rect class="cls-2" x=".39" y=".27" width="70" height="70" rx="12.56" ry="12.56"/>
  </g>
  <g>
    <g>
      <path class="cls-3" d="M8.62,33.56c0,.14.04.28.15.4.12.13.28.21.45.2h7.97c.33.03.61-.21.64-.54v-.05c-.03-.35-.3-.62-.65-.65h-7.97c-.33,0-.6.26-.6.6v.05h0Z"/>
      <rect class="cls-3" x="11.65" y="38.94" width="6.53" height="1.24" rx=".6" ry=".6"/>
      <rect class="cls-3" x="7.97" y="43.96" width="3.99" height="1.24" rx=".6" ry=".6"/>
      <rect class="cls-3" x="11.26" y="46.79" width="6.53" height="1.24" rx=".6" ry=".6"/>
      <circle class="cls-3" cx="10.16" cy="37.09" r=".6"/>
      <circle class="cls-3" cx="13.92" cy="42.59" r=".6"/>
    </g>
    <g>
      <path class="cls-1" d="M43.18,30.21l-.69-.21-.1-.13v-.67c0-.06.05-.1.1-.1h0l.69-.23c.19-.08.25-.19.19-.38l-.35-1.04c-.06-.23-.17-.29-.4-.23l-.65.23c-.1,0-.15,0-.19-.08-.09-.18-.21-.34-.35-.48-.05-.05-.05-.14,0-.19l.4-.56c.13-.19.13-.33-.06-.44l-.83-.6c-.25-.19-.38-.15-.54.08l-.42.58-.67-.21c-.13-.04-.17-.08-.17-.19.02-.21.02-.43,0-.65,0-.21-.06-.33-.29-.33h-1.04c-.18-.03-.35.1-.38.29v.84l-.77.25-.13-.15-.38-.52c-.08-.13-.25-.16-.38-.08,0,0-.02.01-.02.02l-.94.67c-.19.15-.19.29-.04.48l.46.6-.42.58c-.05.06-.11.09-.19.08l-.67-.23c-.13-.06-.29,0-.35.13,0,.02-.02.04-.02.06l-.33,1.04c-.08.23-.04.33.19.42l.63.23c.13,0,.13.02.13.15v.63c0,.08,0,.13-.08.13l-.67.21c-.16.03-.26.18-.23.34v.02h0c.13.38.27.75.38,1.08.04.16.19.25.35.21,0,0,.02,0,.02,0h.04l.63-.19s.1,0,.15,0l.46.63-.5.65c-.1.13-.09.31.04.41h0s.04,0,.04,0l.86.67c.23.15.33.1.52-.13.16-.18.3-.38.42-.58l.71.21c.1.04.1.08.1.17v.71c-.01.14.09.27.23.29h1.18c.23,0,.29-.13.29-.33.02-.22.02-.44,0-.67,0-.08.04-.13.13-.17l.58-.19c.07-.02.14,0,.19.04.13.21.27.41.42.6.06.13.21.18.33.11,0,0,.02,0,.02-.01l.06-.04.9-.67c.19-.1.19-.25.06-.44l-.4-.56v-.15l.35-.52c.04-.08.08-.08.19-.08l.6.23c.27.08.38,0,.44-.23l.35-1.04c.06-.19,0-.29-.19-.38h.01ZM38.29,31.48c-1.07,0-1.93-.87-1.93-1.93s.87-1.93,1.93-1.93,1.93.87,1.93,1.93-.87,1.93-1.93,1.93h0Z"/>
      <path class="cls-1" d="M16.72,14.29h43.14c.95.23,1.9,1.05,2.06,2.06.33,2.15-.25,23.74,0,28.41-.62.02-1.24.03-1.87.05-1.5-2.88-3.15-8.03-7.08-4.97-1.1-.27-2.33.05-3.06.96-1.17-.26-1.94.39-2.15.24-1.43-2.22-.42-1.2,1.43-3.92.4-.59,1.9-2.8.53-3.01-1.01-.16-1.66,2.7-3.54,4.11-.4-.62-.8-1.24-1.2-1.87-.06-.28,2.16-2.41,2.58-5.07,1.28-8.1-7.01-13.67-13.82-10-8.34,4.5-5.6,18.56,6.07,17.65.84,2.51,2.15,2.15-2.34,2.34-.18-.06.06-.99-.57-1.15-.48-.12-2.38.78-2.53,1.1-.34.68,1.24,2.49,1.39,2.53.75.22,1.13-.4,1.05-1.05,1.61.24,3.2-.02,4.78-.29.46.78.92,1.56,1.39,2.34-9.42.02-18.84.03-28.27.05.15-4.54-.36-26.46-.05-28.46.16-1.01,1.1-1.83,2.06-2.06ZM40.26,15.34c-.58.15-.42,1.02-.48,1.05-3.76-.44-7.75.88-10.52,3.44-.6.56-4.39,4.83-2.39,5.17.87.15,1.13-1.29,2.06-2.53,2.35-3.15,6.38-4.88,10.28-4.64-.41,2.28,3.05.42,3.11-.24.02-.26-1.1-2.49-2.06-2.25ZM43.32,17.54c-.39.12-.56.83-.33,1.2.38.62,7.27,2.6,6.98,11.77-2.18-.57-.56,3.24.62,3.01.42-.08,3.6-2.23.81-2.53.58-4.03-1.12-8.41-4.07-11.14-.65-.61-3.2-2.54-4.02-2.3ZM26,25.57c-.14.03-2.05,1.15-1.96,1.87.08.7,1.02.61,1.05.67.25.4-.81,4.45,2.3,8.99,1.49,2.17,5.84,5.65,6.31,4.02.3-1.03-1.21-1.25-2.53-2.25-3.11-2.36-4.87-6.38-4.54-10.28,2.19.56.56-3.23-.62-3.01Z"/>
      <path class="cls-1" d="M42.36,36.86c.58-.1,1.18.09,1.58.53l3.87,6.74c-.1-1.9,1.95-2.63,2.87-.96-.18-1.98,1.96-2.65,2.87-.96-.03-1.32,1.23-2.27,2.39-1.53.9.57,3.62,6.38,3.68,7.89-3.3,1.93-6.6,3.86-9.9,5.79-1.94-1.98-10-3.53-9.23-7.13.5-2.32,4.85.65,6.12.77-1.75-3.06-3.51-6.12-5.26-9.18-.2-.75.13-1.81,1-1.96Z"/>
      <path class="cls-1" d="M14.71,46.33h24.49c-.27.79-.41,1.76-.05,2.53-7.51.02-15.02.03-22.53.05-.99-.17-2.17-1.54-1.91-2.58Z"/>
      <path class="cls-1" d="M59.67,50.35l1.29,2.15c-2.98,1.74-5.96,3.48-8.94,5.21l-1.29-2.15c2.98-1.74,5.96-3.48,8.94-5.21Z"/>
      <path class="cls-1" d="M28.49,50.44h11.48c1.95,1.96,4.89,2.88,7.32,4.16-2.64-.17-19.73.37-20.71.05-.84-.28,1.78-3.59,1.91-4.21Z"/>
    </g>
  </g>
</svg>