<?xml version="1.0" encoding="UTF-8"?>
<svg id="Layer_1" xmlns="http://www.w3.org/2000/svg" viewBox="0 0 70 70">
  <defs>
    <style>
      .cls-1 {
        fill: #4927b9;
      }

      .cls-2 {
        fill: #eae5ff;
      }
    </style>
  </defs>
  <rect class="cls-2" x=".3" y=".43" width="69.7" height="69.7" rx="10.83" ry="10.83"/>
  <g>
    <path class="cls-1" d="M34.54,7.82c1.98-.38,2.81,2.93,4.12,4,6.18,1.48,5.74,2.11,2,6.61.46,6.61-.05,6.27-5.76,4.18-5.68,2.24-6.08,2.19-5.64-4.18-3.84-4.6-4.08-5.18,2.12-6.61.69-.78,2.25-3.83,3.15-4Z"/>
    <path class="cls-1" d="M15.87,13.03c1.59-.27,2.44,2.44,3.39,3.39,5.39,1.23,4.82,1.74,1.76,5.64.36,5.16.03,5.44-4.67,3.46-4.6,1.58-5.47,2.31-4.91-3.46-3.09-3.83-3.68-4.37,1.64-5.64.78-.6,1.96-3.26,2.79-3.39Z"/>
    <path class="cls-1" d="M53.46,13.03c1.57-.25,2.32,2.56,3.39,3.39,5.31,1.24,4.72,1.82,1.64,5.64.53,5.28-.11,5.35-4.67,3.46-4.71,1.68-5.32,2.17-4.91-3.46-3.09-3.95-3.65-4.37,1.76-5.64.69-.7,1.87-3.25,2.79-3.39Z"/>
    <path class="cls-1" d="M34.54,29.77c8.67-.4,10.74,12.51,1.27,14.25,4.15-.18,8.55,2.51,10.06,6.43.84,2.17,1.33,8.5-.12,10.31-.63.42-1.25.85-1.88,1.27-.83.22-16.36.24-17.22.12-1.32-.19-2.87-1.43-3.21-2.73-.24-.91-.17-5.83,0-6.91.8-4.91,5.7-8.74,10.67-8.49-9.44-1.94-7.23-13.89.42-14.25Z"/>
    <path class="cls-1" d="M18.66,31.1c7.09-.76,9.67,9.69,1.64,11.58,1.87.1,3.83.39,5.33,1.58-6.76,5.43-4.38,13.21-4.85,13.94-2.98-.27-9.01,1.14-10.91-1.45-1.26-1.72-.86-6.77,0-8.73,1.46-3.31,5.16-5.4,8.73-5.33-7.34-1.55-5.8-10.95.06-11.58Z"/>
    <path class="cls-1" d="M49.7,31.1c7.09-.76,9.67,9.69,1.64,11.58,4.5-.16,8.96,3.31,9.46,7.88,1.07,9.91-4.23,7.44-11.64,7.64-.47-.73,1.91-8.48-4.85-13.94,1.51-1.19,3.46-1.48,5.33-1.58-7.34-1.55-5.8-10.95.06-11.58Z"/>
  </g>
</svg>