<?xml version="1.0" encoding="UTF-8"?>
<svg id="Layer_1" xmlns="http://www.w3.org/2000/svg" viewBox="0 0 70 70">
  <defs>
    <style>
      .cls-1 {
        fill: #4927b9;
      }

      .cls-2 {
        fill: #eae5ff;
      }
    </style>
  </defs>
  <rect class="cls-2" x=".15" y=".15" width="69.7" height="69.7" rx="10.83" ry="10.83"/>
  <g>
    <path class="cls-1" d="M49.45,9.48c5.27-.52,5.69,7.19.99,7.66-5.25.52-5.73-7.19-.99-7.66Z"/>
    <path class="cls-1" d="M32.7,10.13c.95-.07,6.72-.06,6.95.82.4,1.52-2.39.53-3.34.49-7.99-.34-13.23,2.74-18.44,8.48.11.18,2.26-.56,1.97.77-.15.69-3.53.78-3.78.71-.63-.17-.93-3.96-.33-4.16,1.25-.4.95,1.77,1.09,1.86,3.97-4.58,9.65-8.5,15.87-8.98Z"/>
    <path class="cls-1" d="M46.71,18.56c1.29-.14,6.8-.07,7.88.33,3.52,1.29,2.58,5.44,2.68,8.37-4.91.02-9.81.04-14.72.05-.21-3.66-.56-8.24,4.16-8.76Z"/>
    <path class="cls-1" d="M9.17,24.25h21.89c.64.16.62,1.16.11,1.31H9.06c-.59-.35-.54-1.04.11-1.31Z"/>
    <path class="cls-1" d="M9.17,28.63h11.06c.68.18.64,1.17.11,1.31-.54.15-10.73.14-11.27,0-.62-.16-.51-1.15.11-1.31Z"/>
    <path class="cls-1" d="M23.94,28.63h7.11c.64.16.62,1.16.11,1.31h-7.33c-.51-.15-.53-1.15.11-1.31Z"/>
    <path class="cls-1" d="M38.94,30.82h21.89c.63.26.74,1.04.11,1.31h-22.11c-.51-.15-.53-1.15.11-1.31Z"/>
    <path class="cls-1" d="M9.17,33.01h21.89c.64.16.62,1.16.11,1.31H9.06c-.63-.28-.52-1.05.11-1.31Z"/>
    <path class="cls-1" d="M39.05,35.2h6.9c.84.19.69,1.17.22,1.31h-7.33c-.48-.14-.61-1.14.22-1.31Z"/>
    <path class="cls-1" d="M49.78,35.2h11.06c.67.18.62,1.18.22,1.31-.54.18-10.83.15-11.38,0-.53-.15-.57-1.13.11-1.31Z"/>
    <path class="cls-1" d="M9.17,37.39h18.06c.84.19.69,1.17.22,1.31H8.95c-.48-.4-.39-1.06.22-1.31Z"/>
    <path class="cls-1" d="M39.05,39.58h21.67c.71.16.84.88.33,1.31h-22.22c-.42-.12-.68-1.08.22-1.31Z"/>
    <path class="cls-1" d="M20.44,41.66c5.75-.82,5.96,7.95.44,7.66-4.52-.24-4.63-7.06-.44-7.66Z"/>
    <path class="cls-1" d="M43.76,43.96c.83-.17,16.14-.18,16.97,0,.71.16.84.88.33,1.31h-17.62c-.49-.16-.54-1.14.33-1.31Z"/>
    <path class="cls-1" d="M55.03,49.1c.18.04.36.07.55.11.44.25.98,3.98.11,4.16-1.03.21-.77-1.29-.99-1.86-5.38,6.1-12.71,10.17-21.13,8.76-2.55-.43-1.66-1.42-1.31-1.53,1.15-.36,10.91,3.74,21.4-8.05-2.15.29-2.39-.87-1.59-1.26l2.96-.33Z"/>
    <path class="cls-1" d="M17.6,50.74h7.11c1.19.15,2.63,1.09,3.23,2.13.98,1.69.39,4.57.55,6.57-4.91.02-9.81.04-14.72.05-.23-3.32-.53-8.2,3.83-8.76Z"/>
  </g>
</svg>