<?xml version="1.0" encoding="UTF-8"?>
<svg id="Layer_1" xmlns="http://www.w3.org/2000/svg" viewBox="0 0 83 83">
  <defs>
    <style>
      .cls-1 {
        fill: none;
        stroke: #4927b9;
        stroke-linecap: round;
        stroke-linejoin: round;
        stroke-width: 2px;
      }

      .cls-2 {
        fill: #4927b9;
      }

      .cls-3 {
        fill: #eae5ff;
      }
    </style>
  </defs>
  <circle class="cls-3" cx="41.5" cy="41.5" r="41.53"/>
  <g>
    <path class="cls-1" d="M48.83,21.81s-9.7-3.9-13.84,12.26c0,0-10.78-1.82-12.93,9.45,0,0-10.61-1.86-10.84,8.79-.07,3.24,1.33,6.43,4.03,8.23.03.02.06.04.09.06,1.06.68,2.31,1,3.57,1h38.54c4.13,0,8.13-1.91,10.38-5.37,1.07-1.64,1.83-3.7,1.83-6.24"/>
    <path class="cls-2" d="M41.09,37.29c.36-3.3,1.83-6.26,4.01-8.52l2.48,2.48,1.15-1.15-2.43-2.43c2.33-1.92,5.27-3.14,8.48-3.32v4.03h1.62v-4.03c3.21.18,6.15,1.39,8.48,3.32l-2.33,2.33,1.15,1.15,2.38-2.38c2.19,2.26,3.65,5.23,4.01,8.52h-3.41v1.62h3.5c0,3.52-1.25,6.74-3.33,9.26l-2.77-2.77-1.15,1.15,2.82,2.82h-.01s1.13,1.17,1.13,1.17c3.04-2.94,4.93-7.07,4.93-11.63,0-8.94-7.25-16.19-16.2-16.19s-16.2,7.25-16.2,16.19c0,4.44,1.79,8.47,4.69,11.4l1.15-1.14-.02-.02,2.43-2.43-1.15-1.15-2.36,2.36c-1.96-2.48-3.13-5.61-3.13-9.01h3.28v-1.62h-3.19Z"/>
    <path class="cls-2" d="M57.91,45.9c-.29.13-.62.15-.92.06l-10.47-4.4c-1.55-.48-1.16-2.07.44-1.82l11.33.65c.32.05.6.21.8.46l1.39,1.92c.21.83.12,1.23-.47,2.03l-2.1,1.11h0Z"/>
  </g>
</svg>