<?xml version="1.0" encoding="UTF-8"?>
<svg id="Screen" xmlns="http://www.w3.org/2000/svg" viewBox="0 0 35 35">
  <defs>
    <style>
      .cls-1 {
        fill: #eae5ff;
      }

      .cls-2 {
        fill: #5c49e6;
      }
    </style>
  </defs>
  <rect class="cls-1" x="1.04" y="1.04" width="32.92" height="32.92" rx="16.46" ry="16.46"/>
  <g>
    <rect class="cls-2" x="6.34" y="9.1" width="11.81" height="7.06"/>
    <rect class="cls-1" x="7.25" y="9.95" width="3.11" height="2.31" rx=".44" ry=".44"/>
    <rect class="cls-1" x="10.75" y="9.95" width="3.02" height="2.31" rx=".42" ry=".42"/>
    <rect class="cls-1" x="14.17" y="9.95" width="3.02" height="2.31" rx=".42" ry=".42"/>
    <rect class="cls-1" x="9.62" y="13.19" width="7.57" height=".64" rx=".28" ry=".28"/>
    <rect class="cls-1" x="7.25" y="13.19" width="1.86" height=".64" rx=".23" ry=".23"/>
    <rect class="cls-1" x="9.62" y="14.14" width="7.57" height=".64" rx=".28" ry=".28"/>
    <rect class="cls-1" x="7.25" y="14.14" width="1.86" height=".64" rx=".23" ry=".23"/>
  </g>
  <rect class="cls-2" x="18.62" y="21.08" width="10.04" height="6"/>
  <rect class="cls-1" x="19.4" y="21.81" width="2.64" height="1.96" rx=".37" ry=".37"/>
  <rect class="cls-1" x="22.37" y="21.81" width="2.57" height="1.96" rx=".36" ry=".36"/>
  <rect class="cls-1" x="25.28" y="21.81" width="2.57" height="1.96" rx=".36" ry=".36"/>
  <rect class="cls-1" x="21.42" y="24.56" width="6.44" height=".55" rx=".24" ry=".24"/>
  <rect class="cls-1" x="19.4" y="24.56" width="1.58" height=".55" rx=".19" ry=".19"/>
  <rect class="cls-1" x="21.42" y="25.36" width="6.44" height=".55" rx=".24" ry=".24"/>
  <rect class="cls-1" x="19.4" y="25.36" width="1.58" height=".55" rx=".19" ry=".19"/>
  <path class="cls-2" d="m24.21,14.52c-.1.27-.2.54-.31.83l-.33.89-.21.56c-.05.13-.19.2-.32.16-.04-.01-.07-.04-.1-.07l-.38-.42-1-1.12c-.07-.09-.14-.17-.22-.25-.06-.07-.05-.18.02-.24.01,0,.02-.02.03-.02l.07-.02.47-.08h.07v-.16l-.03-.34-.03-.18c-.02-.11-.05-.21-.08-.31-.05-.16-.1-.31-.16-.47-.05-.11-.1-.22-.16-.32-.17-.33-.38-.65-.63-.93-.1-.12-.21-.24-.32-.35-.04-.04-.04-.1,0-.14.02-.04.07-.06.11-.04,0,0,0,0,.01,0l.47.23.18.12c.3.19.58.41.83.65.4.37.72.81.98,1.28.1.18.18.37.24.56.02.03.03.07.04.1h.07l.45-.09c.09-.03.18,0,.23.08l.02.09h0Z"/>
  <path class="cls-2" d="m12.55,21.18l-.07.02-.46.19s-.11.02-.15,0c-.07-.03-.1-.1-.09-.17l.05-.35c.07-.47.15-.94.21-1.4l.09-.62c.02-.14.15-.23.28-.21.01,0,.02,0,.04,0l.08.05c.23.17.47.33.7.51l1.2.89.04.03c.07.06.08.17.02.24-.01.02-.03.03-.05.04l-.09.03-.4.17-.07.02s.02.1.03.15c.03.12.07.25.12.36.03.08.06.16.1.23.11.26.25.5.42.72.24.33.52.63.84.88.15.13.33.24.5.36.03.02.05.05.05.09,0,.06-.04.1-.09.11-.01,0-.03,0-.04,0-.13-.02-.26-.06-.38-.09s-.24-.08-.36-.13c-.3-.12-.6-.27-.87-.44-.26-.16-.51-.34-.74-.54-.3-.26-.56-.55-.78-.88-.05-.08-.1-.16-.17-.25h0Z"/>
</svg>