<?xml version="1.0" encoding="UTF-8"?><svg id="a" xmlns="http://www.w3.org/2000/svg" width="35" height="35" viewBox="0 0 35 35"><path d="M17.5.765h0c9.242,0,16.735,7.493,16.735,16.735h0c0,9.242-7.493,16.735-16.735,16.735h0C8.258,34.235.765,26.742.765,17.5h0C.765,8.258,8.258.765,17.5.765Z" fill="#eae5ff"/><path d="M30.044,18.96c0,1.768-1.468,3.205-3.274,3.205-.062,0-.122-.002-.184-.005-.712,1.926-2.065,3.587-3.837,4.7-.063.039-.136.06-.211.061-.133,0-.256-.066-.329-.175-.117-.177-.064-.413.117-.527,1.59-.999,2.814-2.478,3.481-4.195-1.337-.403-2.311-1.624-2.311-3.063s.974-2.659,2.311-3.063c-.891-2.294-2.757-4.121-5.1-4.994-.414,1.308-1.661,2.262-3.129,2.262s-2.718-.954-3.129-2.261c-2.343.873-4.209,2.699-5.1,4.994,1.335.404,2.309,1.624,2.309,3.063s-.974,2.66-2.311,3.063c.669,1.717,1.891,3.195,3.481,4.195.182.114.234.35.117.527-.074.113-.2.175-.329.175-.074,0-.147-.021-.209-.061-1.771-1.113-3.125-2.774-3.839-4.7-.06.003-.122.005-.184.005-1.804,0-3.274-1.437-3.274-3.205s1.47-3.205,3.274-3.205c.062,0,.124.002.184.005.965-2.606,3.081-4.676,5.741-5.621-.002-.06-.005-.119-.005-.18,0-1.767,1.468-3.205,3.274-3.205s3.274,1.437,3.274,3.205c0,.061-.002.12-.007.18,2.663.945,4.777,3.016,5.742,5.621.062-.003.122-.005.184-.005,1.806,0,3.274,1.437,3.274,3.205h0Z" fill="#5138cc" fill-rule="evenodd"/><path d="M21.024,19.91c.202,0,.365-.177.366-.396v-1.584c0-.219-.164-.396-.366-.396h-6.894c-.202,0-.365.177-.366.396v1.584c0,.219.164.396.366.396h.157v.566h-.157c-.202,0-.365.177-.366.396v1.584c0,.219.164.396.366.396h6.894c.202,0,.365-.177.366-.396v-1.584c0-.219-.164-.396-.366-.396h-.157v-.566h.157Z" fill="#5138cc"/><path d="M14.077,19.514v-1.584c0-.031.023-.057.052-.057h6.894c.029,0,.052.025.052.057v.622h-2.705c-.087,0-.157.076-.157.17s.07.17.157.17h2.705v.622c0,.031-.023.057-.052.057h-6.894c-.029,0-.052-.025-.052-.057Z" fill="#5138cc"/><path d="M21.076,20.872v.622h-2.705c-.087,0-.157.076-.157.17s.07.17.157.17h2.705v.622c0,.031-.023.057-.052.057h-6.894c-.029,0-.052-.025-.052-.057v-1.584c0-.031.023-.057.052-.057h6.894c.029,0,.052.025.052.057Z" fill="#5138cc"/><rect x="14.6" y="19.91" width="5.954" height=".566" fill="#eae5ff"/><path d="M16.908,18.099h-.418c-.202,0-.365.177-.366.396v.453c0,.219.164.396.366.396h.418c.202,0,.365-.177.366-.396v-.453c0-.219-.164-.396-.366-.396Z" fill="#eae5ff"/><path d="M16.96,18.948c0,.031-.023.057-.052.057h-.418c-.029,0-.052-.025-.052-.057v-.453c0-.031.023-.057.052-.057h.418c.029,0,.052.025.052.057v.453Z" fill="#5138cc"/><path d="M16.49,22.287h.418c.202,0,.365-.177.366-.396v-.453c0-.219-.164-.396-.366-.396h-.418c-.202,0-.365.177-.366.396v.453c0,.219.164.396.366.396Z" fill="#eae5ff"/><path d="M16.438,21.438c0-.031.023-.057.052-.057h.418c.029,0,.052.025.052.057v.453c0,.031-.023.057-.052.057h-.418c-.029,0-.052-.025-.052-.057v-.453Z" fill="#5138cc"/><path d="M15.237,18.099h-.418c-.202,0-.365.177-.366.396v.453c0,.219.164.396.366.396h.418c.202,0,.365-.177.366-.396v-.453c0-.219-.164-.396-.366-.396Z" fill="#eae5ff"/><path d="M15.289,18.948c0,.031-.023.057-.052.057h-.418c-.029,0-.052-.025-.052-.057v-.453c0-.031.023-.057.052-.057h.418c.029,0,.052.025.052.057v.453Z" fill="#5138cc"/><path d="M14.819,22.287h.418c.202,0,.365-.177.366-.396v-.453c0-.219-.164-.396-.366-.396h-.418c-.202,0-.365.177-.366.396v.453c0,.219.164.396.366.396Z" fill="#eae5ff"/><path d="M14.767,21.438c0-.031.023-.057.052-.057h.418c.029,0,.052.025.052.057v.453c0,.031-.023.057-.052.057h-.418c-.029,0-.052-.025-.052-.057v-.453Z" fill="#5138cc"/><rect x="18.184" y="18.439" width="2.795" height=".453" fill="#eae5ff"/><rect x="18.184" y="21.438" width="2.795" height=".453" fill="#eae5ff"/><path d="M21.024,25.657c.202,0,.365-.177.366-.396v-1.584c0-.219-.164-.396-.366-.396h-6.894c-.202,0-.365.177-.366.396v1.584c0,.219.164.396.366.396h.157v.566h-.157c-.202,0-.365.177-.366.396v1.584c0,.219.164.396.366.396h6.894c.202,0,.365-.177.366-.396v-1.584c0-.219-.164-.396-.366-.396h-.157v-.566h.157Z" fill="#5138cc"/><path d="M14.077,25.261v-1.584c0-.031.023-.057.052-.057h6.894c.029,0,.052.025.052.057v.622h-2.705c-.087,0-.157.076-.157.17s.07.17.157.17h2.705v.622c0,.031-.023.057-.052.057h-6.894c-.029,0-.052-.025-.052-.057Z" fill="#5138cc"/><path d="M21.076,26.619v.622h-2.705c-.087,0-.157.076-.157.17s.07.17.157.17h2.705v.622c0,.031-.023.057-.052.057h-6.894c-.029,0-.052-.025-.052-.057v-1.584c0-.031.023-.057.052-.057h6.894c.029,0,.052.025.052.057Z" fill="#5138cc"/><rect x="14.6" y="25.657" width="5.954" height=".566" fill="#eae5ff"/><path d="M16.908,23.846h-.418c-.202,0-.365.177-.366.396v.453c0,.219.164.396.366.396h.418c.202,0,.365-.177.366-.396v-.453c0-.219-.164-.396-.366-.396Z" fill="#eae5ff"/><path d="M16.96,24.695c0,.031-.023.057-.052.057h-.418c-.029,0-.052-.025-.052-.057v-.453c0-.031.023-.057.052-.057h.418c.029,0,.052.025.052.057v.453Z" fill="#5138cc"/><path d="M16.49,28.034h.418c.202,0,.365-.177.366-.396v-.453c0-.219-.164-.396-.366-.396h-.418c-.202,0-.365.177-.366.396v.453c0,.219.164.396.366.396Z" fill="#eae5ff"/><path d="M16.438,27.185c0-.031.023-.057.052-.057h.418c.029,0,.052.025.052.057v.453c0,.031-.023.057-.052.057h-.418c-.029,0-.052-.025-.052-.057v-.453Z" fill="#5138cc"/><path d="M15.237,23.846h-.418c-.202,0-.365.177-.366.396v.453c0,.219.164.396.366.396h.418c.202,0,.365-.177.366-.396v-.453c0-.219-.164-.396-.366-.396Z" fill="#eae5ff"/><path d="M15.289,24.695c0,.031-.023.057-.052.057h-.418c-.029,0-.052-.025-.052-.057v-.453c0-.031.023-.057.052-.057h.418c.029,0,.052.025.052.057v.453Z" fill="#5138cc"/><path d="M14.819,28.034h.418c.202,0,.365-.177.366-.396v-.453c0-.219-.164-.396-.366-.396h-.418c-.202,0-.365.177-.366.396v.453c0,.219.164.396.366.396Z" fill="#eae5ff"/><path d="M14.767,27.185c0-.031.023-.057.052-.057h.418c.029,0,.052.025.052.057v.453c0,.031-.023.057-.052.057h-.418c-.029,0-.052-.025-.052-.057v-.453Z" fill="#5138cc"/><rect x="18.184" y="24.186" width="2.795" height=".453" fill="#eae5ff"/><rect x="18.184" y="27.185" width="2.795" height=".453" fill="#eae5ff"/><path d="M8.067,17.216c-.552.004-.996.422-.993.935s1.014,2.077,1.014,2.077c0,0,.989-1.579.984-2.091s-.454-.925-1.005-.92ZM8.077,18.56c-.264,0-.481-.196-.482-.441s.212-.446.473-.446.48.196.482.441-.209.444-.473.444v.002Z" fill="#eae5ff"/><path d="M26.83,17.499c-.552.004-.996.422-.993.935s1.014,2.077,1.014,2.077c0,0,.989-1.579.984-2.091s-.454-.925-1.005-.92ZM26.839,18.842c-.264,0-.481-.196-.482-.441s.212-.446.473-.446.48.196.482.441-.209.444-.473.444v.002Z" fill="#eae5ff"/><path d="M17.571,7.996c-.552.004-.996.422-.993.935s1.014,2.077,1.014,2.077c0,0,.989-1.579.984-2.091s-.454-.925-1.005-.92ZM17.58,9.339c-.264,0-.481-.196-.482-.441s.212-.446.473-.446.48.196.482.441-.209.444-.473.444v.002Z" fill="#eae5ff"/></svg>