<?xml version="1.0" encoding="UTF-8"?><svg id="a" xmlns="http://www.w3.org/2000/svg" width="70" height="70" xmlns:xlink="http://www.w3.org/1999/xlink" viewBox="0 0 70 70"><defs><radialGradient id="b" cx="27.265" cy="-55387.942" fx="27.265" fy="-55387.942" r="12.516" gradientTransform="translate(0 -6587.082) scale(1 -.12)" gradientUnits="userSpaceOnUse"><stop offset="0" stop-color="#2b2b3f"/><stop offset=".2" stop-color="#686877"/><stop offset=".39" stop-color="#9e9ea7"/><stop offset=".57" stop-color="#c8c8cd"/><stop offset=".74" stop-color="#e6e6e8"/><stop offset=".88" stop-color="#f8f8f9"/><stop offset=".97" stop-color="#fff"/></radialGradient></defs><rect x="1.152" y="1.152" width="67.696" height="67.696" rx="11.185" ry="11.185" fill="#fff"/><ellipse cx="27.265" cy="59.629" rx="12.356" ry="1.483" fill="url(#b)" isolation="isolate" opacity=".41"/><path d="M54.687,16.468l-2.312-1.592c-.424-.292-1.009-.184-1.301.24l-1.592,2.312c-.292.424-.184,1.009.24,1.301l2.312,1.592c.424.292,1.009.184,1.301-.24l1.592-2.312c.292-.424.184-1.009-.24-1.301ZM50.071,13.291l-6.158-4.238c-.424-.292-1.009-.184-1.301.24l-1.592,2.312c-.292.424-.184,1.009.24,1.301l6.158,4.238c.424.292,1.009.184,1.301-.24l1.592-2.312c.292-.424.184-1.009-.24-1.301Z" fill="#6b46f2"/><path d="M53.866,19.311l-12.315-8.476L15.073,49.304c-.292.424-.184,1.009.24,1.301l3.178,2.188c.329.227.789.262,1.108.022.646-.475,1.512-.491,2.162-.044s.944,1.262.731,2.035c-.102.389.087.8.416,1.027l2.893,1.991c.71.489,1.295.381,1.587-.044l26.478-38.469Z" fill="none" stroke="#6b46f2" stroke-miterlimit="10"/><rect x="36.682" y="19.638" width="9.347" height="9.347" rx=".936" ry=".936" transform="translate(-2.118 44.594) rotate(-55.461)" fill="#6b46f2"/><path d="M22.388,45.277c-.424-.292-.532-.877-.24-1.301l10.062-14.619c.292-.424.877-.532,1.301-.24s.532.877.24,1.301l-10.062,14.619c-.292.424-.877.532-1.301.24Z" fill="#6b46f2"/><rect x="22.761" y="37.575" width="19.618" height="5.604" rx=".936" ry=".936" transform="translate(-19.156 44.313) rotate(-55.461)" fill="#6b46f2"/><path d="M35.583,29.407l-1.542-1.061c-.424-.292-.532-.877-.24-1.301s.877-.532,1.301-.24l1.542,1.061c.424.292.532.877.24,1.301s-.877.532-1.301.24Z" fill="#6b46f2"/><path d="M18.259,44.693l-3.177,4.616c-.292.424-.184,1.009.24,1.301l3.222,2.217c.329.227.758.215,1.079-.01.64-.466,1.506-.482,2.156-.035s.935,1.256.737,2.026c-.096.381.047.785.376,1.012l3.222,2.217c.424.292,1.009.184,1.301-.24l3.177-4.616-12.315-8.476-.017-.012Z" fill="#6b46f2"/><circle cx="38.417" cy="30.222" r=".936" fill="#6b46f2"/><circle cx="40.73" cy="31.813" r=".936" fill="#6b46f2"/><g isolation="isolate"><path d="M28.81,45.641l1.033.705-.214.312-1.609-1.098.17-.25,1.628-.107-1.058-.723.214-.312,1.606,1.098-.178.26-1.593.115Z" fill="#fff"/><path d="M29.313,43.666l1.535.408-.944-1.274.225-.329,1.193,1.709-.206.301-2.027-.486.224-.328Z" fill="#fff"/></g><g isolation="isolate"><path d="M32.754,42.082l-1.056-.721.504.949-.119.174-1.068-.125,1.056.721-.213.313-1.609-1.099.229-.336,1.241.15-.588-1.106.228-.333,1.609,1.099-.213.313Z" fill="#fff"/></g><g isolation="isolate"><path d="M33.564,40.943c-.065.095-.14.171-.225.226-.084.056-.172.091-.267.107-.092.016-.186.014-.278-.006-.092-.02-.178-.059-.259-.113-.112-.076-.198-.172-.256-.285-.058-.114-.083-.236-.074-.371.009-.132.056-.262.144-.391.088-.13.193-.223.311-.275.119-.054.241-.074.368-.061.125.014.24.057.347.129.018.013.036.026.053.041.018.014.033.025.044.035l-.626.918c.062.035.126.052.191.053s.124-.014.178-.045c.055-.029.101-.072.136-.125.042-.061.065-.127.072-.201.008-.074-.007-.137-.041-.189l.25-.211c.041.07.066.148.077.233s.003.173-.019.265c-.023.09-.065.179-.125.267ZM32.647,40.772l.424-.621c-.062-.033-.125-.053-.189-.054-.062,0-.121.011-.176.04-.055.029-.102.071-.14.128-.037.054-.058.112-.065.173-.006.061.004.121.027.179.025.057.065.109.12.155Z" fill="#fff"/><path d="M33.951,37.778c-.018.004-.044.014-.083.029-.038.016-.079.037-.122.066-.044.028-.089.062-.134.1-.044.038-.084.082-.117.13-.058.085-.085.159-.083.224.002.064.032.117.089.156.044.029.088.039.132.029.045-.01.094-.035.149-.078.056-.041.121-.096.198-.164.099-.088.191-.158.282-.211.09-.053.179-.079.267-.08.088,0,.18.031.278.098.086.059.148.125.188.198.039.073.058.151.058.232,0,.081-.017.163-.048.247-.032.082-.075.164-.129.244-.055.08-.117.154-.188.223s-.147.13-.229.182c-.082.053-.165.096-.251.129l-.175-.322c.023-.006.057-.018.102-.037.046-.02.098-.047.153-.081.056-.036.112-.077.167-.126.055-.049.104-.104.145-.164.058-.084.086-.158.088-.222.001-.062-.024-.112-.077-.147-.048-.033-.097-.042-.148-.025-.051.016-.107.049-.17.096-.063.049-.135.107-.217.176-.097.08-.187.144-.27.188-.082.044-.161.064-.237.061s-.156-.033-.237-.089c-.109-.075-.183-.164-.223-.267-.039-.104-.047-.212-.025-.328.022-.114.072-.227.146-.336.052-.076.108-.141.171-.197.062-.057.128-.104.194-.145.067-.04.134-.072.197-.098l.16.311Z" fill="#fff"/><path d="M34.9,36.389c-.019.004-.045.012-.083.027-.038.017-.079.039-.122.067-.044.028-.089.062-.134.1-.044.038-.084.081-.117.13-.058.084-.085.159-.083.225.002.063.032.115.089.154.044.03.088.041.132.03.045-.01.094-.036.149-.078.056-.042.121-.097.198-.164.099-.088.191-.158.282-.211.09-.052.178-.079.267-.081.088,0,.18.033.278.1.086.059.148.124.188.197.039.073.058.15.058.232,0,.08-.017.164-.048.246-.032.083-.075.165-.129.244-.055.08-.117.154-.188.225-.071.068-.147.129-.229.182-.082.053-.165.096-.251.127l-.175-.322c.023-.004.057-.016.102-.036.046-.02.098-.048.153-.081.056-.035.112-.078.167-.126.055-.049.104-.104.145-.164.058-.085.087-.157.089-.222.001-.062-.024-.111-.077-.148-.048-.032-.097-.041-.148-.024-.051.017-.107.048-.17.097-.063.048-.135.105-.217.174-.097.082-.187.145-.27.188-.082.044-.161.064-.237.061s-.156-.033-.237-.089c-.109-.074-.183-.164-.223-.268-.039-.102-.047-.211-.025-.326.022-.115.072-.229.146-.337.052-.076.108-.142.171-.198.062-.055.128-.103.194-.143.067-.041.134-.074.197-.1l.16.312Z" fill="#fff"/><path d="M36.381,36.769l-1.609-1.099.399-.584c.119-.176.256-.297.407-.367.153-.068.31-.091.471-.066.163.023.317.087.465.188.163.111.283.24.36.389.076.147.107.303.092.467-.014.164-.076.327-.186.488l-.399.585ZM36.3,35.155c-.104-.07-.209-.113-.314-.131-.105-.016-.205-.004-.297.037-.094.041-.175.111-.244.213l-.186.271,1.061.723.186-.271c.07-.102.106-.205.108-.308s-.023-.199-.08-.292c-.055-.092-.134-.173-.235-.242Z" fill="#fff"/></g><circle cx="43.104" cy="16.83" r=".936" fill="#6b46f2"/><circle cx="45.408" cy="18.415" r=".936" fill="#6b46f2"/><circle cx="47.72" cy="20.007" r=".936" fill="#6b46f2"/></svg>