<?xml version="1.0" encoding="UTF-8"?><svg id="a" xmlns="http://www.w3.org/2000/svg" width="35" height="35" viewBox="0 0 35 35"><path d="M17.5.765h0c9.242,0,16.735,7.493,16.735,16.735h0c0,9.242-7.493,16.735-16.735,16.735h0C8.258,34.235.765,26.742.765,17.5h0C.765,8.258,8.258.765,17.5.765Z" fill="#eae5ff"/><path d="M12.886,12.218c-.001-.192.095-.369.247-.479l.046-.035c.365-.248.58-.668.573-1.115-.006-.138.044-.276.146-.37.115-.119.273-.189.44-.19l4.538-.033c.325-.002.587.261.59.59l.01,1.405c0,.084.029.167.081.235l.985,1.231c.075.093.113.206.114.324l.021,2.904c.002.226-.15.429-.363.494l-.408.141.021-.9c.008-.206-.156-.377-.356-.381-.204-.003-.371.155-.378.362l-.14,5.688h0l-.115.086c.002.31-.242.557-.544.559s-.55-.247-.552-.551l-.251-3.972c-.006-.172-.128-.314-.295-.347l-3.726-.715c-.386-.066-.672-.403-.675-.801l-.007-4.133Z" fill="#5138cc"/><polyline points="9.81 19.866 9.81 26.383 25.19 26.423 25.19 19.866" fill="none" stroke="#5138cc" stroke-miterlimit="10"/><circle cx="18.38" cy="22.326" r="2.459" fill="none" stroke="#5138cc" stroke-miterlimit="10" stroke-width=".25"/><circle cx="18.38" cy="22.326" r="1.579" fill="none" stroke="#5138cc" stroke-miterlimit="10" stroke-width=".25"/><path d="M11.686,8.988c0-.226-.185-.411-.411-.411s-.411.185-.411.411v6.871h-.62l1.031,1.779,1.025-1.779h-.614v-6.871Z" fill="#5138cc"/><path d="M22.956,14.531c0-.17-.14-.31-.31-.31s-.31.14-.31.31v5.183h-.468l.778,1.342.773-1.342h-.463v-5.183Z" fill="#5138cc"/></svg>