<?xml version="1.0" encoding="UTF-8"?><svg id="a" xmlns="http://www.w3.org/2000/svg" width="70" height="70" viewBox="0 0 70 70"><rect x="1.152" y="1.152" width="67.696" height="67.696" rx="11.185" ry="11.185" fill="#fff"/><path d="M30.808,43.043c13.537,0,17.958-4.452,17.958-5.986v-4.053c-3.61,2.371-9.628,4.053-17.958,4.053s-14.349-1.682-17.958-4.053v4.053c0,1.534,4.422,5.986,17.958,5.986Z" fill="#6b46f2"/><path d="M30.808,33.066c13.537,0,17.958-4.452,17.958-5.986v-4.053c-3.61,2.371-9.628,4.053-17.958,4.053s-14.349-1.682-17.958-4.053v4.053c0,1.534,4.422,5.986,17.958,5.986Z" fill="#6b46f2"/><path d="M30.808,23.089c10.366,0,15.374-2.606,17.158-4.52-2.384-3.59-9.801-5.457-17.158-5.457s-14.774,1.868-17.158,5.457c1.784,1.914,6.792,4.52,17.158,4.52Z" fill="#6b46f2"/><path d="M43.584,45.333c-3.366,1.052-7.622,1.7-12.776,1.7-8.331,0-14.349-1.682-17.958-4.053v2.057c0,5.24,9.033,7.982,17.958,7.982,3.522,0,7.052-.433,10.047-1.273.25-2.362,1.201-4.595,2.73-6.413Z" fill="#6b46f2"/><circle cx="47.081" cy="46.819" r="10.07" fill="#fff"/><path d="M39.759,48.352v-2.968c.594-.297,1.484.297,1.88-.792s-.495-1.286-.693-1.88l2.177-2.078c.495.198.594,1.286,1.682.792s.594-1.187.792-1.88h2.968c.297.594-.297,1.385.792,1.88,1.088.495,1.187-.495,1.88-.792l2.078,2.276c-.198.396-1.187.594-.792,1.682s1.286.495,1.88.792v2.968h-1.484c-.207.377-.373.775-.495,1.187-.099.099,0,.396.099.495l.891.693-2.276,2.276c-.495-.297-.693-1.286-1.781-.792s-.495,1.286-.792,1.88h-2.968c-.297-.594.396-1.385-.693-1.88s-1.286.594-1.88.792l-2.177-2.177c.99-.594,1.385-1.385.297-2.474h-1.385ZM47.18,49.639c1.53,0,2.771-1.239,2.772-2.769,0-.034,0-.067-.002-.101-.053-1.546-1.323-2.772-2.87-2.771-1.552.319-2.552,1.836-2.233,3.388.238,1.16,1.165,2.054,2.332,2.252Z" fill="#6b46f2"/></svg>