<?xml version="1.0" encoding="UTF-8"?><svg id="a" xmlns="http://www.w3.org/2000/svg" width="35" height="35" viewBox="0 0 35 35"><path d="M17.5.765h0c9.242,0,16.735,7.493,16.735,16.735h0c0,9.242-7.493,16.735-16.735,16.735h0C8.258,34.235.765,26.742.765,17.5h0C.765,8.258,8.258.765,17.5.765Z" fill="#eae5ff"/><path d="M15.623,24.516c0,.255.005.5-.005.745,0,.039-.068.083-.112.112s-.062.003-.096.003c-1.489,0-2.982.003-4.471,0-.367,0-.586-.289-.453-.599.062-.146.174-.242.339-.247.388-.01.779-.013,1.169-.016h3.63v.003Z" fill="#5138cc"/><path d="M21.435,25.355v-.833h2.185l2.453-.005c.208,0,.396.039.497.255.076.167.06.325-.062.445-.081.078-.206.154-.312.156-1.555.008-3.109.005-4.666.003-.018-.003-.036-.01-.094-.021Z" fill="#5138cc"/><path d="M24.112,10.598l-10.32.07c.1.17.19.36.27.54.01.03.02.06.03.09v.01c.03.04.05.09.08.14.07.12.16.23.21.36.17.39-.06.76-.25,1.09-.13.22-.27.44-.4.66-.02.05-.03.11-.05.16l10.43-.07c.3,0,.54-.24.54-.53v-1.99c0-.29-.24-.53-.54-.53ZM20.862,12.719c-.33,0-.59-.27-.59-.59,0-.33.26-.6.59-.6s.6.27.6.6c0,.32-.27.59-.6.59Z" fill="#5138cc"/><path d="M24.122,14.368h-10.74c-.27.49-.62.94-.96,1.4v1.11c0,.3.23.53.52.53h11.18c.29,0,.53-.23.53-.53v-1.98c0-.29-.24-.53-.53-.53ZM20.862,16.489c-.33,0-.59-.27-.59-.6,0-.32.26-.59.59-.59s.6.27.6.59c0,.33-.27.6-.6.6Z" fill="#5138cc"/><path d="M24.122,18.118h-11.18c-.29,0-.52.24-.52.53v1.98c0,.3.23.53.52.53h11.18c.29,0,.53-.23.53-.53v-1.98c0-.29-.24-.53-.53-.53ZM20.862,20.228c-.33,0-.59-.26-.59-.59s.26-.59.59-.59.6.26.6.59-.27.59-.6.59Z" fill="#5138cc"/><rect x="15.357" y="11.959" width="3.163" height=".522" fill="#eae5ff"/><rect x="15.357" y="15.628" width="3.163" height=".522" fill="#eae5ff"/><rect x="15.275" y="19.378" width="3.163" height=".522" fill="#eae5ff"/><polygon points="10.798 17.691 14.108 11.959 7.489 11.959 10.798 17.691" fill="#5138cc"/><polygon points="7.57 11.719 8.059 10.598 13.415 10.598 13.978 11.719 7.57 11.719" fill="#5138cc"/><path d="M8.516,15.09c.485.573.825,1.228,1.011,1.957-.486-.573-.824-1.229-1.011-1.957h0Z" fill="#5138cc"/><circle cx="18.706" cy="24.787" r="1.321" fill="#5138cc"/><rect x="18.258" y="21.159" width=".709" height="2.666" fill="#5138cc"/></svg>