<?xml version="1.0" encoding="UTF-8"?>
<svg id="Layer_1" xmlns="http://www.w3.org/2000/svg" viewBox="0 0 83 83">
  <defs>
    <style>
      .cls-1 {
        fill: #4927b9;
      }

      .cls-2 {
        fill: #eae5ff;
      }
    </style>
  </defs>
  <circle class="cls-2" cx="41.5" cy="41.5" r="41.53"/>
  <g>
    <path class="cls-1" d="M24.98,17.6h33.04c1.61.28,2.61,1.22,3,2.8v42.19c-.75,2.78-2.77,2.91-5.34,2.8-.24-.73.3-4.14-.41-4.37-3.09-.64-1.45,2.46-1.93,4.37-.69-.02-1.39-.03-2.08-.05v-3.96c-.15-.5-1.98-.55-2.13,0v3.86l-.15.15h-1.93c-.68-2.91,1.04-4.81-1.93-4.37-.72.21-.15,3.62-.41,4.37-.69-.02-1.39-.03-2.08-.05-.13-.71.32-4.1-.36-4.32-3.09-.64-1.45,2.46-1.93,4.37-.69-.02-1.39-.03-2.08-.05v-3.96c-.15-.5-1.98-.55-2.13,0v3.86l-.15.15h-1.93c-.68-2.91,1.04-4.81-1.93-4.37-.72.21-.15,3.62-.41,4.37-.69-.02-1.39-.03-2.08-.05-.13-.71.32-4.1-.36-4.32-3.09-.64-1.45,2.46-1.93,4.37-2.59.12-4.57,0-5.34-2.8V20.39c.38-1.55,1.42-2.55,3-2.8ZM27.22,21.97c-1.06.15-1.19,1.94-.1,2.13,1.82.33,1.75-2.36.1-2.13ZM55.38,21.97c-1.08.17-1.13,1.91-.1,2.13,1.85.41,1.79-2.39.1-2.13ZM29.35,31.73c-.25.19-.51.37-.76.56-.28.63-.26,13.15-.1,13.83l.76.76h24.5c.22-.19.44-.37.66-.56.27-.63.24-13.05.1-13.72-.19-.25-.37-.51-.56-.76-1.13-.49-21.54.17-24.6-.1ZM27.11,54.5c-1.1.21-1.1,2.5.61,2.13,1.19-.26.91-2.42-.61-2.13ZM55.38,54.5c-1.08.17-1.13,1.91-.1,2.13,1.85.41,1.79-2.39.1-2.13Z"/>
    <path class="cls-1" d="M33.52,34.98c.4-.06,3.57-.16,3.61.36.77,3.74-3.89.11-3.2,2.9,3.61-.83,4.46,4.24,1.63,5.39-3.13-.18-4.11.8-3.81-1.78,1.23-1.11,3.85.73,3.2-1.47-4.18.78-4.05-4.96-1.42-5.39Z"/>
    <path class="cls-1" d="M40.03,34.98c.4-.06,3.57-.16,3.61.36.77,3.74-3.89.11-3.2,2.9,3.61-.83,4.46,4.24,1.63,5.39-3.13-.18-4.11.8-3.81-1.78,1.23-1.11,3.85.73,3.2-1.47-4.18.78-4.05-4.96-1.42-5.39Z"/>
    <path class="cls-1" d="M45.11,34.98c.76-.22,4.54-.35,5.64,1.47.76,1.25,1.13,5.54-1.07,6.76-1.2.67-4.67.44-4.83.25-.03-2.71-.07-5.42-.1-8.13.12-.12.24-.24.36-.36ZM47.04,37.11l-.15.15v4.17c2.35.69,2.58-1.62,2.24-3.35-.18-.93-1.61-1.18-2.08-.97Z"/>
  </g>
</svg>