<?xml version="1.0" encoding="UTF-8"?><svg id="a" xmlns="http://www.w3.org/2000/svg" width="70" height="70" viewBox="0 0 70 70"><rect x="1.152" y="1.152" width="67.696" height="67.696" rx="9.3" ry="9.3" fill="#fff" stroke-width="0"/><rect x="8" y="10.327" width="54" height="49.431" fill="none" stroke="#6b46f2" stroke-miterlimit="10" stroke-width="3"/><path d="M41.545,28.044h4.074l.054.831v3.136h-5.656c-.322,1.903-.617,3.753-.938,5.656h4.878l.054.831v3.136h-5.575l-.322,1.769-1.206-1.179-2.305,2.332.429.375,2.466,2.493c-.188,1.019-.348,2.01-.536,3.056h-4.262c.107-.751.214-1.474.348-2.171.295-1.957.616-3.887.938-5.843l.134-.804h-3.458l-1.447,8.845h-3.511l-.777-.054,1.287-7.988.134-.804h-4.074l-.67-.054v-3.913h5.414c.161-.983.322-1.948.482-2.895.107-.67.188-1.313.295-1.957l.188-.804h-4.074l-.697-.054v-3.913h5.388c.509-3.002.992-6.004,1.501-8.979h4.235l-.08.777-.08.348-.965,5.951c-.107.616-.188,1.233-.295,1.876h3.458c.482-2.975.992-5.951,1.474-8.953h4.262l-.08.751-1.367,8.202h.885ZM35.568,32.815l.161-.777h-3.485c-.322,1.876-.616,3.753-.938,5.629h3.485c.268-1.635.509-3.243.777-4.852Z" fill="#6b46f2" stroke-width="0"/><path d="M37.511,47.37l-2.466-2.493-.429-.375,2.305-2.332,1.206,1.179.724.724,1.501,1.394,3.163-3.056,1.287-1.26,3.458-3.458c.322-.295.59-.643.858-.938.831.804,1.555,1.555,2.305,2.332l-.402.456c-.138.102-.264.219-.375.348l-9.891,9.891c-.114.141-.212.294-.295.456h-.214c-.076-.157-.175-.302-.295-.429l-2.439-2.439Z" fill="#6b46f2" stroke-width="0"/><path d="M45.512,40.079,48.059,37.559c.21-.201.407-.416.59-.643l.268-.295.188-.214,2.68,2.707-.617.697-.107.107-.241.214-9.891,9.891-.161.241-.08.161-.107.161-.482-.08-.08-.08-.08-.161-.188-.241-1.876-1.85-.563-.563-.643-.643-1.823-1.85-.295-.241-.134-.107-.214-.188,2.68-2.707,1.421,1.313.724.751,1.313,1.233,3.002-2.895M37.685,47.236l.563.563,1.876,1.85c.086.087.159.186.214.295.056-.109.128-.208.214-.295l9.891-9.891.268-.241.107-.107.241-.268-1.93-1.957-.08.08c-.191.237-.397.46-.617.67-.831.858-1.689,1.689-2.546,2.546l-2.359,2.332-3.19,3.083-1.689-1.581-.724-.724-1.019-.992-1.93,1.93.241.214,1.823,1.85.643.643Z" fill="#fff" stroke-width="0"/></svg>