<?xml version="1.0" encoding="UTF-8"?>
<svg id="Layer_1" xmlns="http://www.w3.org/2000/svg" viewBox="0 0 70 70">
  <defs>
    <style>
      .cls-1 {
        fill: #4927b9;
      }

      .cls-2 {
        fill: #eae5ff;
      }
    </style>
  </defs>
  <rect class="cls-2" x=".15" y=".15" width="69.7" height="69.7" rx="10.83" ry="10.83"/>
  <g>
    <path class="cls-1" d="M34.68,8.43c.37-.14.84.05.95.44v7.43c-.16.5-1.1.5-1.26,0v-7.43c.11-.15.21-.29.32-.44Z"/>
    <path class="cls-1" d="M24.86,11.07c.23.11.46.21.69.32,1.09,1.89,2.18,3.78,3.28,5.67.58,1.45-.29,1.62-.88,1.13-.29-.24-3.69-6.18-3.65-6.55l.57-.57Z"/>
    <path class="cls-1" d="M44.89,11.07c.53-.07.9.39.69,1.07-1.18,2.02-2.35,4.03-3.53,6.05-3.08,1.09,1.44-4.43,2.39-6.8.15-.11.29-.21.44-.32Z"/>
    <path class="cls-1" d="M17.55,18.38c.39-.03,6.64,3.59,6.74,3.97.18.64-.35.94-.95.82-1.89-1.09-3.78-2.18-5.67-3.28-1.27-.94-.46-1.49-.13-1.51Z"/>
    <path class="cls-1" d="M52.33,18.38c.52-.02,1.08.79.38,1.26-2.02,1.18-4.03,2.35-6.05,3.53-.86.18-1.38-.48-.5-1.26,2.06-1.18,4.12-2.35,6.17-3.53Z"/>
    <path class="cls-1" d="M16.16,26.57c.88-.15,5.94,2.96,6.11,3.34.04.38.08.76.13,1.13-2.65,4.62-5.29,9.24-7.94,13.86-.42.5-.87.89-1.58.82-1.72-.97-3.44-1.93-5.17-2.9-.47-.45-.64-.93-.57-1.58,2.65-4.62,5.29-9.24,7.94-13.86.36-.27.71-.55,1.07-.82Z"/>
    <path class="cls-1" d="M53.21,26.57c.67-.11,1.28.31,1.7.82,2.65,4.62,5.29,9.24,7.94,13.86.07.64-.1,1.12-.57,1.58-1.72.97-3.44,1.93-5.17,2.9-.71.07-1.16-.32-1.58-.82-2.65-4.62-5.29-9.24-7.94-13.86.04-.38.08-.76.13-1.13,1.83-1.11,3.65-2.23,5.48-3.34Z"/>
    <path class="cls-1" d="M33.93,32.49c2.41-.3,7.89,2.05,13.23,0,2.21,3.84,4.41,7.69,6.62,11.53-1.2.61-2.39,1.22-3.59,1.83-1.95-1.07-12.24-7.4-13.23-7.56-1.57-.26-4.47.89-4.91,1.26-.69.57-1.56,4.75-4.16,4.91-2.27.15-.6-4.65-.95-6.62,1.88-1.6,4.46-5.04,6.99-5.36Z"/>
    <path class="cls-1" d="M22.71,32.62c2,.69,3.99,1.39,5.99,2.08-.92.92-1.85,1.85-2.77,2.77.21,3.49-1.59,8.31,2.08,8,3.31-.28,4.07-4.59,4.79-5.17.31-.25,2.77-1.25,4.03-1.01,4.2,2.39,8.4,4.79,12.6,7.18,2.53,1.23,1.18,3.64-.13,3.78-1.18.13-4.91-2.73-5.42-2.77-.51-.04-.8.53-.38,1.01.46.53,5.95,2.72,6.11,4.22.17,1.56-1.31,2.41-2.71,1.95-.9-.29-5.91-4.18-6.24-2.96-.23.87,4.26,2.55,4.91,3.4.97,1.26-.12,3.49-2.21,2.84-.88-.28-5.83-4.17-5.36-2.08.19.85,6.17,2.16,4.16,4.91-1.37,1.88-3.86-.68-5.29-1.26.83-2.27-.4-4.04-2.77-4.28,1.62-2.1-.2-4.69-2.71-4.47.35-2.65-2.72-4.5-4.79-2.65-.58-1.85-2.79-2.73-4.41-1.64-.71.88-1.43,1.76-2.14,2.65l-3.97-5.1c2.21-3.8,4.41-7.6,6.62-11.4Z"/>
    <path class="cls-1" d="M23.6,46.98c1.2-.12,2.31,1.15,2.08,2.33-.88,1.3-1.76,2.6-2.65,3.91-1.61,1.64-3.68.13-3.28-1.64.07-.3,2.88-4.5,3.84-4.6Z"/>
    <path class="cls-1" d="M28.13,48.37c1.32-.24,2.6,1.06,2.21,2.46-1.47,2.1-2.94,4.2-4.41,6.3-1.43,1.22-3.64-.17-3.02-2.02.14-.41,4.5-6.61,5.23-6.74Z"/>
    <path class="cls-1" d="M31.28,51.77c1.38-.33,2.8.99,2.33,2.46-1.37,1.87-2.73,3.74-4.1,5.61-1.43.61-2.97-.55-2.71-2.08.06-.37,3.85-5.84,4.47-5.99Z"/>
    <path class="cls-1" d="M33.93,56.31c.86-.12,2.05.55,2.21,1.45.18,1.04-1.56,4.12-3.34,3.84-3.14-.48-.18-5.1,1.13-5.29Z"/>
  </g>
</svg>