<?xml version="1.0" encoding="UTF-8"?><svg id="a" xmlns="http://www.w3.org/2000/svg" width="35" height="35" viewBox="0 0 35 35"><path d="M17.5.765h0c9.242,0,16.735,7.493,16.735,16.735h0c0,9.242-7.493,16.735-16.735,16.735h0C8.258,34.235.765,26.742.765,17.5h0C.765,8.258,8.258.765,17.5.765Z" fill="#eae5ff"/><path d="M7.775,24.994v-14.988q.029,0,.029-.029c.286-1.03.915-1.516,1.974-1.516h15.503c1.173,0,1.945.772,1.945,1.916v14.245c0,1.173-.772,1.916-1.945,1.916h-15.618c-.798.028-1.52-.472-1.773-1.23-.051-.1-.089-.206-.114-.315ZM9.005,13.295v11.356c-.035.346.217.655.563.69.051.005.102.004.153-.003h15.589c.346.033.653-.22.686-.566.004-.04.004-.08,0-.12v-14.245c0-.515-.2-.715-.744-.715h-15.589c-.33-.032-.624.21-.656.54-.003.03-.004.06-.002.089v1.773h15.761c.332.006.596.28.589.612-.005.257-.173.483-.418.561h-15.932v.029Z" fill="#5138cc"/><path d="M12.294,16.327l-1.001-.973c-.084-.088-.143-.196-.172-.315-.044-.188.052-.38.229-.458.171-.114.399-.09.543.057.172.172.315.343.486.486l.858.858c.197.158.23.446.072.643-.021.027-.045.051-.072.072l-1.287,1.287c-.141.229-.441.3-.669.159s-.3-.441-.159-.669c.036-.059.084-.109.141-.147.343-.315.686-.629,1.03-1.001Z" fill="#5138cc"/><path d="M15.24,18.157h-.915c-.253,0-.458-.204-.458-.457s.204-.458.457-.458h1.803c.253,0,.458.204.458.457s-.204.458-.457.458h-.888Z" fill="#5138cc"/><path d="M20.532,10.291c.572,0,.601.029.601.572s0,.629-.601.629-.601-.029-.601-.601.029-.601.601-.601Z" fill="#5138cc"/><path d="M22.334,10.291c.601,0,.629,0,.629.601s-.029.601-.601.601-.601-.029-.601-.629.029-.572.572-.572Z" fill="#5138cc"/><path d="M23.564,10.863c0-.543.029-.572.601-.572s.629,0,.629.601-.029.601-.601.601-.629-.029-.629-.629Z" fill="#5138cc"/><path d="M21.876,21.79h-1.516v1.287c.016.236-.162.441-.399.458,0,0-.001,0-.002,0-.237,0-.429-.191-.43-.428,0-.01,0-.02,0-.03v-3.318c-.016-.236.162-.441.399-.458,0,0,.001,0,.002,0,.22-.018.414.146.432.366.003.031.002.061-.003.091v1.173h1.516v-1.23c0-.237.192-.429.429-.429s.429.192.429.429v3.404c0,.237-.192.429-.429.429s-.429-.192-.429-.429v-1.316Z" fill="#5138cc"/><path d="M17.357,23.535c-.533-.012-1.039-.239-1.402-.629-.121-.107-.166-.276-.114-.429.056-.161.202-.273.372-.286.139-.008.274.044.372.143.234.234.556.359.887.343.183.004.359-.069.486-.2.112-.133.094-.332-.039-.443-.006-.005-.012-.01-.018-.014l-.315-.172-.887-.372c-.544-.214-.812-.828-.598-1.372.066-.168.173-.316.312-.43.418-.358.99-.477,1.516-.315.251.078.484.204.686.372.188.144.224.413.08.601-.007.01-.015.019-.023.028-.161.174-.433.184-.606.023-.008-.007-.016-.015-.023-.023-.269-.232-.648-.288-.973-.143-.118.046-.197.159-.2.286,0,.143.114.172.2.229l.915.343c.369.135.668.414.83.772.207.592-.064,1.245-.629,1.516-.261.117-.544.176-.83.172Z" fill="#5138cc"/><path d="M13.982,23.535c-.584.019-1.151-.197-1.573-.601-.19-.142-.228-.411-.086-.601s.411-.228.601-.086c.033.024.061.053.086.086.241.223.558.346.887.343.191.015.376-.072.486-.229.106-.068.137-.21.069-.316-.024-.037-.057-.066-.097-.084-.104-.083-.22-.151-.343-.2l-.887-.372c-.544-.214-.812-.828-.598-1.372.066-.168.173-.316.312-.43.297-.285.707-.421,1.116-.372.395.016.776.156,1.087.4.126.105.19.266.172.429-.024.159-.134.291-.286.343-.147.059-.316.025-.429-.086-.246-.252-.625-.321-.944-.172-.095.042-.174.112-.229.2-.057.114,0,.229.143.286l.944.372c.379.146.686.433.858.801.196.615-.116,1.276-.715,1.516l-.572.143Z" fill="#5138cc"/></svg>