<?xml version="1.0" encoding="UTF-8"?><svg id="a" xmlns="http://www.w3.org/2000/svg" width="35" height="35" viewBox="0 0 35 35"><path d="M17.5.765h0c9.242,0,16.735,7.493,16.735,16.735h0c0,9.242-7.493,16.735-16.735,16.735h0C8.258,34.235.765,26.742.765,17.5h0C.765,8.258,8.258.765,17.5.765Z" fill="#eae5ff"/><path d="M9.852,8.927c0-.202-.166-.367-.367-.367s-.367.166-.367.367v6.135h-.553l.921,1.588.916-1.588h-.548v-6.135Z" fill="#5138cc"/><path d="M8.016,12.501c0-.202-.166-.367-.367-.367s-.367.166-.367.367v6.135h-.553l.921,1.588.916-1.588h-.548v-6.135Z" fill="#5138cc"/><circle cx="17.882" cy="13.455" r="5.037" fill="none" stroke="#5138cc" stroke-miterlimit="10" stroke-width=".5"/><circle cx="17.882" cy="13.455" r="3.235" fill="none" stroke="#5138cc" stroke-miterlimit="10" stroke-width=".5"/><path d="M23.99,26.981c0,.202-.109.388-.279.502l-.052.036c-.409.259-.652.698-.647,1.169.005.145-.052.29-.166.388-.129.124-.305.197-.491.197h-5.054c-.362,0-.652-.279-.652-.626v-1.479c0-.088-.031-.176-.088-.248l-1.086-1.304c-.083-.098-.124-.217-.124-.341v-3.057c0-.238.171-.45.409-.517l.455-.145-.031.947c-.01.217.171.398.393.403.228.005.414-.16.424-.378l.243-7.18v-.026l.052-1.562c0-.326.274-.585.61-.585s.61.264.61.585l.285,6.875c.005.181.14.331.326.367l4.143.781c.429.072.745.429.745.848l-.026,4.35Z" fill="#5138cc"/><path d="M23.784,10.22c1.174,2.953.442,6.425-1.897,8.363-.477.438-1.081.805-1.621,1.119.511-.381,1.076-.776,1.536-1.234,2.225-2.043,2.885-5.229,1.983-8.249h0Z" fill="#5138cc"/></svg>