<?xml version="1.0" encoding="UTF-8"?>
<svg id="Screen" xmlns="http://www.w3.org/2000/svg" viewBox="0 0 35 35">
  <defs>
    <style>
      .cls-1, .cls-2 {
        fill: #eae5ff;
      }

      .cls-2, .cls-3 {
        fill-rule: evenodd;
      }

      .cls-3 {
        fill: #5138cc;
      }
    </style>
  </defs>
  <rect class="cls-1" x="1.04" y="1.04" width="32.92" height="32.92" rx="16.46" ry="16.46"/>
  <path class="cls-3" d="m17.5,8.85c-2.13,0-3.9,1.61-4.18,3.63h.83c.33-1.54,1.61-2.84,3.35-2.84,1.89,0,3.43,1.52,3.43,3.4v2.05h.79v-2.13c0-2.26-1.88-4.11-4.21-4.11Z"/>
  <path class="cls-3" d="m22.84,15.09v-2.13c0-2.9-2.4-5.23-5.34-5.23s-5.19,2.28-5.33,5.04c-.02.47.36.83.79.83h1.45c.43,0,.75-.32.8-.7.18-1.21,1.11-2.14,2.29-2.14,1.28,0,2.3,1.03,2.3,2.28v2.05h-10.42c-.86,0-1.55.69-1.55,1.55v9.07c0,.86.69,1.55,1.55,1.55h16.24c.86,0,1.55-.69,1.55-1.55v-9.07c0-.86-.69-1.55-1.55-1.55h-2.78Z"/>
  <path class="cls-3" d="m9.02,16.65c0-.2.16-.36.36-.36h16.24c.2,0,.36.16.36.36v9.07c0,.2-.16.36-.36.36H9.38c-.2,0-.36-.16-.36-.36v-9.07Z"/>
  <path class="cls-2" d="m21.56,18.91c.33,0,.6.27.6.6v2.75h1.31c.33,0,.6.27.6.6s-.27.6-.6.6h-1.91c-.33,0-.6-.27-.6-.6v-3.34c0-.33.27-.6.6-.6Z"/>
  <path class="cls-2" d="m11.65,20.42c0-.79.64-1.43,1.43-1.43h1.55c.33,0,.6.27.6.6s-.27.6-.6.6h-1.55c-.13,0-.24.11-.24.24s.11.24.24.24h.96c.79,0,1.43.64,1.43,1.43s-.64,1.43-1.43,1.43h-1.55c-.33,0-.6-.27-.6-.6s.27-.6.6-.6h1.55c.13,0,.24-.11.24-.24s-.11-.24-.24-.24h-.96c-.79,0-1.43-.64-1.43-1.43Z"/>
  <path class="cls-2" d="m17.38,18.98c-.79,0-1.43.64-1.43,1.43s.64,1.43,1.43,1.43h.96c.13,0,.24.11.24.24s-.11.24-.24.24h-1.55c-.33,0-.6.27-.6.6s.27.6.6.6h1.55c.79,0,1.43-.64,1.43-1.43s-.64-1.43-1.43-1.43h-.96c-.13,0-.24-.11-.24-.24s.11-.24.24-.24h1.55c.33,0,.6-.27.6-.6s-.27-.6-.6-.6h-1.55Z"/>
</svg>