<?xml version="1.0" encoding="UTF-8"?>
<svg id="Layer_1" xmlns="http://www.w3.org/2000/svg" viewBox="0 0 70 70">
  <defs>
    <style>
      .cls-1 {
        fill: #fff;
      }

      .cls-2 {
        fill: #5138cc;
      }
    </style>
  </defs>
  <g id="Character">
    <rect class="cls-2" x="-.26" width="70" height="70" rx="12.56" ry="12.56"/>
  </g>
  <g>
    <path class="cls-1" d="M23.4,11.77h22.58c.26.85-.53,3.81,1.06,3.48.99-.21.31-2.7.58-3.48,1.91.31,5.99-1.01,6.42,1.69v5.9c-.23,1.1-3.57.39-3.28,3.38.23,2.39,3.07,1.89,3.28,2.8v6c-.41,2.6-4.52,1.43-6.32,1.69-.57-.25.65-3.94-1.16-3.48-.9.23-.36,2.75-.58,3.48-4.12-.24-20.22.32-22.39,0-.85-.12-1.65-.83-1.79-1.69v-6c.21-.88,2.9-.46,3.18-2.71.06-.52-.1-1.3-.39-1.74-.93-1.44-2.56-.63-2.8-1.74v-5.9c.12-.8.79-1.56,1.59-1.69ZM46.57,16.89c-.8.22-.75,4.34-.1,4.64,1.77.82.91-3.36,1.11-4.21-.15-.4-.64-.54-1.01-.44ZM29.1,17.08c-.81.19-.77,1.38-.1,1.55h13.03c.66-.29.64-1.37-.1-1.55-.62-.15-12.21-.15-12.84,0ZM29.1,21.73c-.72.17-.86,1.35-.1,1.55h13.03c.66-.29.64-1.37-.1-1.55-.62-.15-12.21-.15-12.84,0ZM46.57,23.37c-.87.21-1.03,6.6,1.01,4.21-.24-.94.71-4.62-1.01-4.21ZM29.19,26.27c-.92.19-.85,1.37-.29,1.55h13.12c.75-.32.61-1.38-.19-1.55h-12.64Z"/>
    <path class="cls-1" d="M36.82,37.2c3.88-.04,4.61,4.37,1.64,6.58-2.66,1.98-6.18,1.74-9.26,2.32.46,1.46,1.57,2.59,3.18,2.51,1.68-.08,10.8-5.61,13.41-6.77,2.62-1.16,7.83-3.17,10.42-1.45,1.34.89,1.4,3.02.1,3.96-6.31,4-12.61,7.99-18.92,11.99-1.89,1.02-4.11,1.81-6.27,1.93-3.13.18-13.11-1.5-17.27-1.64-.29-.13-.77-.21-.92-.53-.26-.56-.22-11.68-.1-12.28.27-1.28,2.37.03,5.07-1.5,2.3-1.31,2.91-4.52,6.76-4.93,2.73.1,5.47.19,8.2.29,1.32-.16,2.64-.32,3.96-.48Z"/>
  </g>
</svg>