<?xml version="1.0" encoding="UTF-8"?><svg id="a" xmlns="http://www.w3.org/2000/svg" width="85" height="85" viewBox="0 0 85 85"><circle cx="42.5" cy="42.5" r="38.723" fill="#f6f2ff"/><path d="M26.701,57.457h-2.263c-1.664,0-3.014-1.35-3.014-3.014v-6.019c0-1.664,1.35-3.014,3.014-3.014h2.263c.418,0,.751.342.751.751v10.536c0,.418-.342.751-.751.751v.01ZM24.438,46.921c-.827,0-1.502.675-1.502,1.502v6.019c0,.827.675,1.502,1.502,1.502h1.502v-9.024s-1.502,0-1.502,0Z" fill="#4927b9"/><path d="M28.964,59.71c-1.664,0-3.014-1.35-3.014-3.014v-10.536c0-1.664,1.35-3.014,3.014-3.014s3.014,1.35,3.014,3.014v10.536c0,1.664-1.35,3.014-3.014,3.014ZM28.964,44.667c-.827,0-1.502.675-1.502,1.502v10.536c0,.827.675,1.502,1.502,1.502s1.502-.675,1.502-1.502v-10.536c0-.827-.675-1.502-1.502-1.502ZM60.562,57.457h-2.263c-.418,0-.751-.342-.751-.751v-10.536c0-.418.342-.751.751-.751h2.263c1.664,0,3.014,1.35,3.014,3.014v6.019c0,1.664-1.35,3.014-3.014,3.014v-.01ZM59.06,55.954h1.502c.827,0,1.502-.675,1.502-1.502v-6.019c0-.827-.675-1.502-1.502-1.502h-1.502v9.024Z" fill="#4927b9"/><path d="M56.036,59.71c-1.664,0-3.014-1.35-3.014-3.014v-10.536c0-1.664,1.35-3.014,3.014-3.014s3.014,1.35,3.014,3.014v10.536c0,1.664-1.35,3.014-3.014,3.014ZM56.036,44.667c-.827,0-1.502.675-1.502,1.502v10.536c0,.827.675,1.502,1.502,1.502s1.502-.675,1.502-1.502v-10.536c0-.827-.675-1.502-1.502-1.502ZM43.998,64.978h-3.014c-1.246,0-2.263-1.008-2.263-2.263s1.008-2.263,2.263-2.263h3.014c1.246,0,2.263,1.008,2.263,2.263s-1.008,2.263-2.263,2.263ZM40.983,61.964c-.418,0-.751.342-.751.751s.342.751.751.751h3.014c.418,0,.751-.342.751-.751s-.342-.751-.751-.751h-3.014Z" fill="#4927b9"/><path d="M56.036,63.476h-10.536c-.418,0-.751-.323-.751-.723s.342-.723.751-.723h10.536c2.082,0,3.766-1.626,3.766-3.632v-1.455c0-.399.342-.723.751-.723s.751.323.751.723v1.455c0,2.805-2.358,5.078-5.268,5.078h0ZM59.802,45.77c-.418,0-.751-.361-.751-.808v-5.629c0-.78-.048-1.55-.143-2.311-.057-.447.238-.846.656-.913.418-.057.799.257.846.704.095.837.143,1.683.143,2.52v5.629c0,.447-.342.808-.751.808ZM25.198,45.77c-.418,0-.751-.361-.751-.808v-5.629c0-.846.057-1.683.162-2.52.057-.447.437-.761.846-.704.418.057.713.466.656.913h0c-.105.77-.152,1.54-.162,2.311v5.629c0,.447-.342.808-.751.808Z" fill="#4927b9"/><path d="M59.65,36.537c-2.377-.038-4.507-1.464-5.449-3.651-2.843-6.466-10.393-9.395-16.86-6.542-2.967,1.303-5.325,3.699-6.599,6.675-.865,2.111-2.9,3.49-5.173,3.518h-.219c-.418,0-.751-.333-.761-.742v-.105c1.322-9.88,10.393-16.822,20.283-15.509,8.083,1.075,14.435,7.436,15.509,15.509.057.418-.238.789-.647.846h-.105.029-.01ZM42.495,21.493c-7.959,0-14.787,5.667-16.27,13.484,1.398-.266,2.577-1.227,3.119-2.539,3.09-7.265,11.487-10.641,18.742-7.55,1.683.723,3.214,1.75,4.507,3.043,1.265,1.246,2.282,2.729,3.014,4.346.571,1.341,1.759,2.33,3.176,2.653-.628-3.252-2.216-6.247-4.555-8.596-3.109-3.119-7.331-4.859-11.734-4.831v-.01Z" fill="#4927b9"/><g isolation="isolate"><path d="M37.879,41.558c0-.239.019-.455.055-.646.037-.191.102-.369.193-.534s.218-.32.378-.467.364-.288.611-.427c.215-.117.405-.22.568-.307.163-.088.301-.169.414-.244.113-.074.198-.15.256-.227.058-.077.086-.167.086-.268,0-.108-.029-.207-.086-.297-.058-.09-.139-.161-.245-.216-.105-.054-.236-.081-.394-.081-.126,0-.243.016-.351.047-.108.032-.208.076-.3.135-.092.058-.177.122-.256.192-.079.071-.15.146-.213.225l-.67-.772c.074-.073.172-.153.296-.24s.271-.168.441-.244c.17-.076.36-.14.567-.189s.43-.074.666-.074c.357,0,.663.057.915.171.252.114.445.272.58.475.134.202.201.439.201.71,0,.188-.035.354-.103.497-.068.145-.155.271-.26.381-.105.11-.22.208-.343.293-.124.086-.243.16-.359.225-.163.086-.31.164-.441.236s-.247.145-.347.217c-.1.072-.188.146-.264.221-.076.074-.144.16-.201.256h2.404v.954h-3.8Z" fill="#4927b9"/><path d="M44.485,42.559v-1.175h-2.302v-.938l2.641-3.39h.717v3.382h.694v.945h-.694v1.175h-1.056ZM43.239,40.439h1.364v-1.782l-1.364,1.782Z" fill="#4927b9"/></g><path d="M49.475,42.432s-.067,0-.095-.019c-.152-.057-.228-.219-.181-.371h0c.133-.361.228-.742.304-1.122.029-.162.181-.266.342-.228.162.029.266.181.228.342h0c-.076.409-.19.818-.323,1.208-.038.114-.152.19-.276.19Z" fill="#4927b9"/><path d="M47.64,45.352c-.162,0-.295-.133-.295-.295,0-.076.029-.152.086-.2.342-.342.647-.723.922-1.122.086-.133.266-.171.409-.076s.171.266.076.409c-.295.437-.618.837-.989,1.208-.057.057-.133.086-.209.086v-.01Z" fill="#4927b9"/><path d="M48.885,32.828c-.105-.048-.228-.029-.314.048l-.856.751c-3.252-3.119-8.425-3.014-11.544.238-3.119,3.252-3.014,8.425.238,11.544,2.577,2.472,6.457,2.986,9.585,1.265.143-.076.19-.257.114-.399s-.257-.19-.399-.114c-3.67,2.016-8.282.685-10.308-2.986-2.016-3.67-.685-8.282,2.986-10.308,2.891-1.598,6.485-1.132,8.881,1.141l-1.036.903c-.124.105-.133.295-.029.409.057.067.133.105.219.105h2.33c.162,0,.295-.133.295-.295v-2.044c0-.114-.067-.219-.171-.266l.01.01Z" fill="#4927b9"/><path d="M49.931,39.513c-.162,0-.285-.124-.295-.285-.01-.38-.057-.751-.124-1.122-.029-.162.076-.314.238-.342.152-.029.304.076.333.228.076.399.124.808.143,1.208,0,.162-.124.295-.285.304h-.01v.01Z" fill="#4927b9"/></svg>