<?xml version="1.0" encoding="UTF-8"?><svg id="a" xmlns="http://www.w3.org/2000/svg" width="85" height="85" viewBox="0 0 85 85"><circle cx="42.5" cy="42.5" r="41.53" fill="#f5f2ff" stroke-width="0"/><path d="M32.467,47.226c.182,1.725,1.317,2.724,2.633,3.496,1.549.872,3.268,1.399,5.039,1.544,2.751.382,5.554-.027,8.081-1.18.509-.243.995-.532,1.453-.863,1.042-.666,1.726-1.767,1.861-2.996l1.226.182c7.942,1.381,13.528,8.58,12.893,16.616-.227,3.087-1.634,5.357-4.676,6.401-.844.281-1.709.494-2.588.636-2.406.409-4.858.363-7.264.363h-21.473c-1.91.015-3.815-.198-5.675-.636-3.496-.908-5.402-3.132-5.675-6.764-.584-8.218,5.282-15.491,13.438-16.661l.726-.136Z" fill="#9a7cff" stroke-width="0"/><path d="M58.026,31.428c0,.545,0,1.09-.045,1.634-.11,1.557-1.179,2.88-2.678,3.314-.22.049-.415.179-.545.363l-1.725,1.68c-.16.134-.285.306-.363.499-.953,2.678-2.27,5.085-4.358,6.991s-5.675,3.359-9.17,2.134c-1.883-.699-3.534-1.91-4.767-3.496-1.733-2.179-2.944-4.726-3.541-7.445-.136-.454-.272-.59-.772-.59-1.998.045-3.541-1.09-3.95-2.86-.093-.387-.138-.783-.136-1.18,0-.908-.045-1.861.045-2.815s1.044-2.588,2.497-3.178c.227-.091.318-.182.318-.409-.045-5.675,3.904-10.305,9.125-11.894,5.902-1.816,12.394.59,15.435,5.72,1.116,1.815,1.698,3.908,1.68,6.038-.051.246.107.486.352.537.019.004.037.007.056.008,1.547.502,2.581,1.96,2.542,3.586v1.362h0ZM50.717,34.197c.045-.227.045-.454.091-.681.219-1.535.235-3.092.045-4.631-.073-.808-.372-1.579-.863-2.225-.262-.294-.684-.386-1.044-.227-1.963.894-4.069,1.432-6.22,1.589-2.678.136-5.221-.545-7.718-1.589-.331-.162-.731-.067-.953.227-.451.49-.737,1.109-.817,1.771-.363,1.68-.227,3.405-.045,5.13.04.209.055.423.045.636l-1.498-.681-.136.091c.182,1.044.318,2.134.59,3.178.817,3.087,2.134,5.902,4.676,7.99,2.542,2.088,5.312,2.588,8.353,1.18,1.658-.769,3.061-1.998,4.04-3.541.545-.817.999-1.68,1.498-2.542h-.272c-1.638.673-3.367,1.101-5.13,1.271-.5-.013-.992.129-1.407.409-.226.113-.474.175-.726.182h-2.225c-.96,0-1.746-.765-1.771-1.725,0-.953.772-1.725,1.725-1.726.015,0,.031,0,.046,0h2.225c.207-.027.416.021.59.136.545.409,1.18.227,1.771.136l.863-.136c1.832-.301,3.57-1.015,5.085-2.088.182-.136.409-.272.454-.454l.409-2.27-.136-.091-1.544.681ZM52.215,24.527c-.681-4.767-5.448-8.989-11.531-8.308-2.213.25-4.293,1.187-5.947,2.678-1.634,1.498-3.132,4.313-2.996,5.72,4.631-7.945,15.526-8.172,20.475-.091h0Z" fill="#9a7cff" stroke-width="0"/><path d="M59.751,39.736c-.045.045-.045.136-.091.182s.045.681.136.999l.227.091c.272.045.363.182.318.409v.409q0,.409-.409.59l-.182.182c-.136.318-.363.59-.045.953.318.363-.045.227-.091.318l-.409.454c-.182.182-.318.182-.545.045-.371-.153-.795.024-.948.395-.002.004-.004.009-.005.013-.045.227-.182.363-.409.318h-.409c-.318.045-.545-.045-.545-.409l-.136-.182c-.272-.045-.545-.409-.953-.091s-.227,0-.318-.045l-.363-.363c-.204-.096-.292-.339-.196-.544.025-.053.061-.1.105-.137.045-.091,0-.227,0-.318l-.136-.318c-.02-.167-.151-.298-.318-.318-.227,0-.363-.136-.318-.363v-.409q0-.454.409-.636c.409-.182.136-.091.182-.136l.136-.363c.092-.137.092-.317,0-.454-.182-.227-.136-.363.045-.545l.272-.227q.318-.363.726-.136h.182c.272-.182.681-.182.726-.636.02-.101.088-.185.182-.227h.908c.091,0,.182.182.227.318s.681.59.953.363c.129-.119.33-.111.449.018.02.022.037.046.05.073l.454.409.136.318ZM58.298,41.688c-.024-.684-.586-1.226-1.271-1.226-.676-.025-1.245.503-1.27,1.18,0,.015,0,.031,0,.046,0,.702.569,1.271,1.271,1.271s1.271-.569,1.271-1.271h0Z" fill="#9a7cff" stroke-width="0"/><path d="M69.83,42.641c-.045.091-.045.182-.091.272s0,.999.136,1.453.272.136.409.182.454.272.454.636v.545q0,.681-.636.953c-.118.036-.216.118-.272.227-.227.499-.545.953-.091,1.453s0,.363-.091.454l-.636.681c-.155.258-.49.341-.748.186-.024-.015-.048-.031-.069-.05-.55-.244-1.194.004-1.438.554-.005.012-.01.024-.015.036.011.276-.204.508-.48.518-.053.002-.105-.004-.156-.019h-.59c-.499.045-.817-.091-.863-.636s-.045-.227-.136-.227-.863-.681-1.453-.182-.363.045-.499-.045-.363-.409-.545-.545-.499-.636-.182-1.044c.081-.137.097-.303.045-.454-.045-.182-.136-.363-.182-.545s-.227-.409-.499-.409-.545-.227-.499-.59v-.59q0-.726.681-.953c.098-.069.177-.163.227-.272.091-.136.136-.363.227-.499.147-.21.128-.493-.045-.681-.204-.221-.19-.566.032-.77.019-.017.038-.033.059-.047l.363-.363q.499-.545,1.135-.227l.272.091c.409-.272,1.044-.227,1.09-.953.026-.148.13-.27.272-.318.469-.03.941-.015,1.407.045.136,0,.272.272.318.454s.999.908,1.453.59.545-.182.772.091l.636.681.227.318ZM67.605,45.592c0-1.053-.854-1.906-1.907-1.906s-1.906.854-1.906,1.907.854,1.906,1.907,1.906c.015,0,.03,0,.045,0,1.028,0,1.862-.833,1.862-1.861,0-.015,0-.031,0-.046Z" fill="#9a7cff" stroke-width="0"/></svg>