<?xml version="1.0" encoding="UTF-8"?><svg id="a" xmlns="http://www.w3.org/2000/svg" width="35" height="35" viewBox="0 0 35 35"><path d="M17.5.765h0c9.242,0,16.735,7.493,16.735,16.735h0c0,9.242-7.493,16.735-16.735,16.735h0C8.258,34.235.765,26.742.765,17.5h0C.765,8.258,8.258.765,17.5.765Z" fill="#eae5ff"/><path d="M13.386,19.115c.062.59.45.931.9,1.195.53.298,1.117.478,1.723.528.94.131,1.899-.009,2.763-.403.174-.083.34-.182.497-.295.356-.228.59-.604.636-1.024l.419.062c2.715.472,4.625,2.933,4.408,5.68-.078,1.055-.559,1.831-1.599,2.188-.289.096-.584.169-.885.217-.823.14-1.661.124-2.483.124h-7.341c-.653.005-1.304-.068-1.94-.217-1.195-.31-1.847-1.071-1.94-2.312-.2-2.809,1.806-5.296,4.594-5.696l.248-.046h0Z" fill="#5138cc"/><path d="M22.124,13.715c0,.186,0,.373-.015.559-.038.532-.403.985-.915,1.133-.075.017-.142.061-.186.124l-.59.574c-.055.046-.097.105-.124.171-.326.915-.776,1.738-1.49,2.39-.714.652-1.94,1.148-3.135.73-.644-.239-1.208-.653-1.63-1.195-.592-.745-1.006-1.616-1.211-2.545-.046-.155-.093-.202-.264-.202-.683.015-1.211-.373-1.35-.978-.032-.132-.047-.268-.046-.403,0-.31-.015-.636.015-.962s.357-.885.854-1.086c.078-.031.109-.062.109-.14-.015-1.94,1.335-3.523,3.119-4.066,2.018-.621,4.237.202,5.277,1.955.382.62.58,1.336.574,2.064-.017.084.037.166.12.184.006.001.013.002.019.003.529.172.882.67.869,1.226v.466h0ZM19.625,14.661c.015-.078.015-.155.031-.233.075-.525.08-1.057.015-1.583-.025-.276-.127-.54-.295-.761-.09-.101-.234-.132-.357-.078-.671.306-1.391.49-2.126.543-.915.046-1.785-.186-2.638-.543-.113-.055-.25-.023-.326.078-.154.168-.252.379-.279.605-.124.574-.078,1.164-.015,1.754.014.071.019.145.015.217l-.512-.233-.046.031c.062.357.109.73.202,1.086.279,1.055.73,2.018,1.599,2.731s1.816.885,2.856.403c.567-.263,1.046-.683,1.381-1.211.186-.279.342-.574.512-.869h-.093c-.56.23-1.151.376-1.754.435-.171-.004-.339.044-.481.14-.077.039-.162.06-.248.062h-.761c-.328,0-.597-.262-.605-.59,0-.326.264-.59.59-.59h.776c.071-.009.142.007.202.046.186.14.403.078.605.046l.295-.046c.626-.103,1.22-.347,1.738-.714.062-.046.14-.093.155-.155l.14-.776-.046-.031-.528.233h0ZM20.137,11.356c-.233-1.63-1.862-3.073-3.942-2.84-.757.085-1.468.406-2.033.915-.559.512-1.071,1.474-1.024,1.955,1.583-2.716,5.308-2.794,7-.031h0Z" fill="#5138cc"/><path d="M22.714,16.555c-.015.015-.015.046-.031.062s.015.233.046.342l.078.031c.093.015.124.062.109.14v.14c0,.093-.047.16-.14.202l-.062.062c-.046.109-.124.202-.015.326s-.015.078-.031.109l-.14.155c-.062.062-.109.062-.186.015-.127-.052-.272.008-.324.135,0,.001-.001.003-.002.004-.015.078-.062.124-.14.109h-.14c-.109.015-.186-.015-.186-.14l-.046-.062c-.093-.015-.186-.14-.326-.031s-.078,0-.109-.015l-.124-.124c-.07-.033-.1-.116-.067-.186.009-.018.021-.034.036-.047.015-.031,0-.078,0-.109l-.046-.109c-.007-.057-.052-.102-.109-.109-.078,0-.124-.046-.109-.124v-.14c0-.103.047-.176.14-.217.14-.062.046-.031.062-.046l.046-.124c.031-.047.031-.108,0-.155-.062-.078-.046-.124.015-.186l.093-.078c.072-.083.155-.098.248-.046h.062c.093-.062.233-.062.248-.217.007-.035.03-.063.062-.078h.31c.031,0,.062.062.078.109s.233.202.326.124c.044-.041.113-.038.153.006.007.008.013.016.017.025l.155.14.046.109h.001ZM22.217,17.222c-.008-.234-.2-.419-.435-.419-.231-.009-.426.172-.434.403v.016c0,.24.195.435.435.435s.435-.195.435-.435h0Z" fill="#5138cc"/><path d="M26.159,17.548c-.015.031-.015.062-.031.093s0,.342.046.497.093.046.14.062.155.093.155.217v.186c0,.155-.072.264-.217.326-.04.012-.074.04-.093.078-.078.171-.186.326-.031.497s0,.124-.031.155l-.217.233c-.053.088-.168.117-.256.064-.008-.005-.016-.011-.024-.017-.188-.083-.408.001-.492.189-.002.004-.003.008-.005.012.004.094-.07.174-.164.177-.018,0-.036-.001-.053-.006h-.202c-.171.015-.279-.031-.295-.217s-.015-.078-.046-.078-.295-.233-.497-.062-.124.015-.171-.015-.124-.14-.186-.186-.171-.217-.062-.357c.028-.047.033-.104.015-.155-.015-.062-.046-.124-.062-.186s-.078-.14-.171-.14-.186-.078-.171-.202v-.202c0-.165.078-.274.233-.326.034-.024.061-.056.078-.093.031-.046.046-.124.078-.171.05-.072.044-.169-.015-.233-.07-.076-.065-.193.011-.263.006-.006.013-.011.02-.016l.124-.124c.114-.124.243-.15.388-.078l.093.031c.14-.093.357-.078.373-.326.009-.051.044-.092.093-.109.16-.01.322-.005.481.015.046,0,.093.093.109.155s.342.31.497.202.186-.062.264.031l.217.233.078.109h0ZM25.399,18.557c0-.36-.292-.652-.652-.652s-.652.292-.652.652.292.652.652.652h.015c.351,0,.637-.285.637-.636v-.016h0Z" fill="#5138cc"/></svg>