<?xml version="1.0" encoding="UTF-8"?>
<svg id="Layer_1" xmlns="http://www.w3.org/2000/svg" viewBox="0 0 83 83">
  <defs>
    <style>
      .cls-1 {
        fill: #4927b9;
      }

      .cls-2 {
        fill: #eae5ff;
      }
    </style>
  </defs>
  <circle class="cls-2" cx="41.5" cy="41.5" r="41.53"/>
  <g>
    <path class="cls-1" d="M26.72,30.13c.04-.09.04-.21.09-.29,1.4-3.23,3.54-6.08,6.24-8.32,2.52-2.04,5.46-3.49,8.61-4.25,2.41-.59,4.89-.78,7.36-.54,2.33.19,4.61.73,6.78,1.63,3.63,1.42,6.86,3.71,9.41,6.66,2.07,2.36,3.63,5.09,4.61,8.07.96,2.75,1.41,5.66,1.34,8.57-.09,2.76-.69,5.48-1.79,8.03-2.37,5.5-6.24,9.66-11.36,12.7-3.32,2-7.02,3.29-10.86,3.78-3.54.44-7.14.18-10.57-.79-5.13-1.39-9.75-4.26-13.28-8.23-3.18-3.52-5.33-7.83-6.24-12.48-.14-.67-.26-1.37-.38-2.12h-4.32c-.16,0-.38.09-.54-.13s8.86-12.9,9.37-13.4l.29.33,4.49,6.37,3.16,4.49,1.46,2.04c-.16.33-.45.29-.71.29h-3.87l-.13.09c-.03.13-.03.25,0,.38.25,2.4,1.01,4.7,2.21,6.78,2.17,3.79,5.56,6.73,9.61,8.36,2.75,1.19,5.75,1.69,8.74,1.5,6-.37,11.6-3.13,15.56-7.65,2.52-2.69,4.15-6.09,4.66-9.73.33-2.26.25-4.55-.25-6.78-1.07-5.36-4.22-10.07-8.78-13.11-3.72-2.61-8.2-3.92-12.73-3.74-6.37.16-11.49,2.75-15.52,7.65-.88,1.12-1.66,2.32-2.33,3.58l-.25.38-.09-.09Z"/>
    <g>
      <path class="cls-1" d="M59.93,26.22l-11.36,13.31-1.92,2.24c-.68.83-1.92.97-2.75.28-.33-.26-.55-.63-.66-1.03-.25-.74,0-1.56.63-2.04l1.37-1.08,14.27-11.52.33-.25.09.09h-.01Z"/>
      <path class="cls-1" d="M45.04,21.23h1.92c.15,1.29.16,2.58.04,3.87-.66.04-1.3.04-1.95,0v-3.87Z"/>
      <path class="cls-1" d="M64.25,38.49v1.92h-3.87c-.09-.67,0-1.29-.04-1.92,1.3-.13,2.61-.13,3.91,0Z"/>
      <path class="cls-1" d="M58.27,52.98l-2.79-2.79,1.34-1.29,2.75,2.79-1.29,1.29h-.01Z"/>
      <path class="cls-1" d="M32.43,51.6l2.75-2.75,1.34,1.46-2.66,2.66c-.5-.43-.97-.88-1.41-1.37h-.01Z"/>
      <path class="cls-1" d="M38.13,22.97l1.88-.79c.5,1.21.96,2.37,1.5,3.62l-1.88.79-1.5-3.62Z"/>
      <path class="cls-1" d="M36.54,28.56l-1.41,1.41-2.75-2.71,1.41-1.46,2.75,2.75h0Z"/>
      <path class="cls-1" d="M32.43,44.11l.79,1.83-3.58,1.54-.79-1.83,3.58-1.54Z"/>
      <path class="cls-1" d="M39.42,56.43l-1.83-.83,1.63-3.54c.63.21,1.21.54,1.83.79l-1.63,3.58Z"/>
      <path class="cls-1" d="M58.9,45.74c.29-.63.5-1.16.74-1.79,1.25.42,2.41.96,3.66,1.46-.25.58-.45,1.21-.79,1.83l-3.62-1.5h.01Z"/>
      <path class="cls-1" d="M45.04,53.77h1.92c.11,1.27.14,2.55.04,3.83h-1.95v-3.83Z"/>
      <path class="cls-1" d="M54.43,23.22l-1.63,3.58-1.83-.83,1.63-3.58,1.83.83Z"/>
      <path class="cls-1" d="M62.43,31.34l.79,1.79c-1.21.63-2.37,1.05-3.62,1.58l-.79-1.83c1.16-.54,2.37-1.05,3.62-1.54Z"/>
      <path class="cls-1" d="M52.06,56.63c-.5-1.21-1-2.37-1.5-3.62l1.83-.79,1.5,3.62-1.83.79Z"/>
      <path class="cls-1" d="M28.73,33.42l.79-1.83,3.62,1.46-.74,1.88-3.66-1.5h-.01Z"/>
    </g>
  </g>
</svg>