<?xml version="1.0" encoding="UTF-8"?>
<svg id="Screen" xmlns="http://www.w3.org/2000/svg" viewBox="0 0 85 85">
  <defs>
    <style>
      .cls-1 {
        fill: #eae5ff;
      }

      .cls-2 {
        fill: #6232d7;
      }
    </style>
  </defs>
  <circle class="cls-1" cx="42.5" cy="42.5" r="41.53"/>
  <g>
    <path class="cls-2" d="m27.82,31.2c.04-.08.04-.21.08-.29,1.39-3.2,3.51-6.04,6.2-8.27,2.5-2.03,5.43-3.47,8.56-4.22,2.39-.59,4.87-.77,7.32-.54,2.32.19,4.59.73,6.74,1.61,3.61,1.41,6.81,3.68,9.34,6.61,2.05,2.34,3.61,5.07,4.59,8.02.95,2.74,1.4,5.62,1.32,8.52-.09,2.75-.69,5.45-1.78,7.98-2.36,5.46-6.2,9.59-11.29,12.61-3.3,1.99-6.97,3.27-10.79,3.76-3.52.44-7.09.18-10.5-.79-5.1-1.38-9.68-4.23-13.19-8.19-3.15-3.5-5.3-7.78-6.2-12.4-.14-.66-.26-1.36-.37-2.11h-4.3c-.17,0-.37.08-.54-.12s8.81-12.82,9.3-13.31l.29.33,4.46,6.32,3.14,4.46,1.45,2.03c-.17.33-.45.29-.7.29h-3.84l-.12.08c-.02.12-.02.25,0,.37.25,2.37,1,4.67,2.19,6.74,2.16,3.76,5.52,6.69,9.55,8.31,2.74,1.17,5.71,1.68,8.68,1.49,5.96-.37,11.53-3.11,15.46-7.61,2.5-2.67,4.12-6.05,4.63-9.67.33-2.24.25-4.53-.25-6.74-1.06-5.33-4.2-10.01-8.72-13.02-3.69-2.59-8.14-3.9-12.65-3.72-6.32.17-11.41,2.73-15.42,7.61-.88,1.11-1.66,2.3-2.32,3.56l-.25.37-.08-.08Z"/>
    <g>
      <path class="cls-2" d="m60.81,27.32l-11.29,13.23-1.9,2.23c-.68.83-1.9.96-2.73.28-.32-.26-.55-.62-.66-1.03-.25-.74,0-1.55.62-2.03l1.36-1.07,14.18-11.45.33-.25.08.08Z"/>
      <path class="cls-2" d="m46.01,22.36h1.9c.15,1.28.16,2.57.04,3.84-.65.04-1.3.04-1.94,0v-3.84Z"/>
      <path class="cls-2" d="m65.11,39.51v1.9h-3.84c-.08-.66,0-1.28-.04-1.9,1.29-.12,2.59-.12,3.89,0Z"/>
      <path class="cls-2" d="m59.16,53.9l-2.77-2.77,1.32-1.28,2.73,2.77-1.28,1.28Z"/>
      <path class="cls-2" d="m33.49,52.53l2.73-2.73,1.32,1.45-2.65,2.65c-.5-.42-.97-.88-1.41-1.36Z"/>
      <path class="cls-2" d="m39.15,24.09l1.86-.79c.5,1.2.95,2.36,1.49,3.6l-1.86.79-1.49-3.6Z"/>
      <path class="cls-2" d="m37.58,29.63l-1.41,1.41-2.73-2.69,1.41-1.45,2.73,2.73Z"/>
      <path class="cls-2" d="m33.49,45.09l.79,1.82-3.56,1.53-.79-1.82,3.56-1.53Z"/>
      <path class="cls-2" d="m40.43,57.33l-1.82-.83,1.61-3.51c.62.21,1.2.54,1.82.79l-1.61,3.56Z"/>
      <path class="cls-2" d="m59.78,46.7c.29-.62.5-1.16.74-1.78,1.24.41,2.4.95,3.64,1.45-.25.58-.45,1.2-.79,1.82l-3.6-1.49Z"/>
      <path class="cls-2" d="m46.01,54.68h1.9c.12,1.26.13,2.54.04,3.8h-1.94v-3.8Z"/>
      <path class="cls-2" d="m55.36,24.34l-1.61,3.56-1.82-.83,1.61-3.56,1.82.83Z"/>
      <path class="cls-2" d="m63.29,32.4l.79,1.78c-1.2.62-2.36,1.03-3.6,1.57l-.79-1.82c1.16-.54,2.36-1.03,3.6-1.53Z"/>
      <path class="cls-2" d="m53,57.54c-.5-1.2-.99-2.36-1.49-3.6l1.82-.79,1.49,3.6-1.82.79Z"/>
      <path class="cls-2" d="m29.81,34.47l.79-1.82,3.6,1.45-.74,1.86-3.64-1.49Z"/>
    </g>
  </g>
</svg>