<?xml version="1.0" encoding="UTF-8"?><svg id="a" xmlns="http://www.w3.org/2000/svg" width="35" height="35" viewBox="0 0 35 35"><path d="M17.5.765h0c9.242,0,16.735,7.493,16.735,16.735h0c0,9.242-7.493,16.735-16.735,16.735h0C8.258,34.235.765,26.742.765,17.5h0C.765,8.258,8.258.765,17.5.765Z" fill="#eae5ff"/><path d="M17.464,8.242c-3.185.021-5.751,2.437-5.73,5.393s5.85,11.985,5.85,11.985c0,0,5.709-9.11,5.682-12.066s-2.623-5.336-5.802-5.312ZM17.518,15.994c-1.526,0-2.773-1.13-2.782-2.545s1.226-2.572,2.728-2.572,2.77,1.13,2.779,2.548-1.205,2.56-2.731,2.56l.006.009Z" fill="#5138cc"/><ellipse cx="17.49" cy="25.033" rx="5.221" ry="1.725" fill="none" stroke="#5138cc" stroke-miterlimit="10"/></svg>