<svg width="64" height="64" viewBox="0 0 64 64" fill="none" xmlns="http://www.w3.org/2000/svg">
<rect width="64" height="64" rx="10" fill="#6B46F2"/>
<path d="M47.3177 20.1874C47.0389 19.8249 46.6826 19.5301 46.2752 19.3251C45.8678 19.1201 45.4198 19.01 44.9644 19.003H17.2203C16.4404 18.9699 15.6736 19.2125 15.0528 19.6887C14.4968 20.1702 14.1246 20.8314 14 21.5589V42.4425C14.0542 42.7206 14.1372 42.9922 14.2477 43.2529C14.482 43.7676 14.8567 44.2049 15.328 44.5139C15.7994 44.8229 16.3482 44.9909 16.9107 44.9984H44.7786C45.4901 45.0213 46.1884 44.8016 46.7603 44.375C47.1367 44.091 47.4438 43.7245 47.6584 43.3033C47.873 42.882 47.9894 42.4171 47.9989 41.9438V22.2446C48.0183 21.4997 47.7773 20.7716 47.3177 20.1874ZM44.407 21.0602L30.9685 34.5877L27.6243 31.2838L17.4061 21.0602H44.407ZM15.9817 22.4316L25.5188 31.9695L15.9817 41.5074V22.4316ZM17.468 43.0659L18.0254 42.5048C20.998 39.5125 23.9705 36.4579 27.005 33.4656L27.2528 33.6527L27.6243 34.089L30.2253 36.7073C30.3242 36.8253 30.4474 36.9202 30.5865 36.9853C30.7255 37.0504 30.8771 37.0841 31.0304 37.0841C31.1838 37.0841 31.3353 37.0504 31.4744 36.9853C31.6134 36.9202 31.7367 36.8253 31.8355 36.7073L32.0213 36.5203L34.7462 33.7773L34.9319 33.528C38.1522 36.7281 41.3106 39.9073 44.407 43.0659H17.468ZM45.9553 41.445L36.5421 32.0318L45.9553 22.5563V41.445Z" fill="#6B46F2"/>
<path d="M45 21L31.0642 35L27.5963 31.5806L17 21H45Z" fill="white"/>
<path d="M45 43H17L17.5793 42.4156C20.669 39.2987 23.7586 36.1169 26.9126 33L27.1701 33.1948L27.5563 33.6494L30.2598 36.3766C30.3625 36.4996 30.4906 36.5984 30.6351 36.6663C30.7797 36.7341 30.9371 36.7692 31.0966 36.7692C31.256 36.7692 31.4134 36.7341 31.558 36.6663C31.7025 36.5984 31.8306 36.4996 31.9333 36.3766L32.1264 36.1818L34.9586 33.3247L35.1517 33.0649C38.4988 36.3983 41.7816 39.71 45 43Z" fill="white"/>
<path d="M26 31.5L16 41V22L26 31.5Z" fill="white"/>
<path d="M46 22V41L37 31.5314L46 22Z" fill="white"/>
</svg>
