<svg width="80" height="81" viewBox="0 0 80 81" fill="none" xmlns="http://www.w3.org/2000/svg">
<rect y="0.89502" width="80" height="79.7203" rx="12" fill="#6B46F2"/>
<g clip-path="url(#clip0_1301_19)">
<path d="M28.1136 51.7933L24.2205 48.0434C23.8668 47.7024 23.3871 47.5108 22.8868 47.5107C22.3865 47.5106 21.9067 47.702 21.5528 48.0428C21.199 48.3836 21.0001 48.8458 21 49.3279C20.9999 49.8099 21.1985 50.2723 21.5522 50.6132L28.6656 57.4673C28.8408 57.6362 29.0488 57.7701 29.2777 57.8615C29.5066 57.953 29.752 58 29.9998 58C30.2476 58 30.4929 57.953 30.7219 57.8615C30.9508 57.7701 31.1588 57.6362 31.3339 57.4673L38.4474 50.6144C38.6226 50.4456 38.7616 50.2452 38.8564 50.0246C38.9512 49.8041 39 49.5676 39 49.3289C39 49.0902 38.9512 48.8538 38.8564 48.6332C38.7616 48.4126 38.6226 48.2122 38.4474 48.0434C38.2722 47.8746 38.0642 47.7407 37.8353 47.6493C37.6063 47.5579 37.361 47.5109 37.1132 47.5109C36.8654 47.5109 36.6201 47.5579 36.3912 47.6493C36.1623 47.7407 35.9543 47.8746 35.7791 48.0434L31.886 51.7933V37.8174C31.886 37.3354 31.6872 36.8731 31.3335 36.5323C30.9798 36.1915 30.5 36 29.9998 36C29.4995 36 29.0198 36.1915 28.666 36.5323C28.3123 36.8731 28.1136 37.3354 28.1136 37.8174V51.7933Z" fill="#F8F8F8"/>
</g>
<g clip-path="url(#clip1_1301_19)">
<path d="M47.1136 32.2067L43.2205 35.9566C42.8668 36.2976 42.3871 36.4892 41.8868 36.4893C41.3865 36.4894 40.9067 36.298 40.5528 35.9572C40.199 35.6164 40.0001 35.1542 40 34.6721C39.9999 34.1901 40.1985 33.7277 40.5522 33.3868L47.6656 26.5327C47.8408 26.3638 48.0488 26.2299 48.2777 26.1385C48.5066 26.047 48.752 26 48.9998 26C49.2476 26 49.4929 26.047 49.7219 26.1385C49.9508 26.2299 50.1588 26.3638 50.3339 26.5327L57.4474 33.3856C57.6226 33.5544 57.7616 33.7548 57.8564 33.9754C57.9512 34.1959 58 34.4324 58 34.6711C58 34.9098 57.9512 35.1462 57.8564 35.3668C57.7616 35.5874 57.6226 35.7878 57.4474 35.9566C57.2722 36.1254 57.0642 36.2593 56.8353 36.3507C56.6063 36.4421 56.361 36.4891 56.1132 36.4891C55.8654 36.4891 55.6201 36.4421 55.3912 36.3507C55.1623 36.2593 54.9543 36.1254 54.7791 35.9566L50.886 32.2067V46.1826C50.886 46.6646 50.6872 47.1269 50.3335 47.4677C49.9798 47.8085 49.5 48 48.9998 48C48.4995 48 48.0198 47.8085 47.666 47.4677C47.3123 47.1269 47.1136 46.6646 47.1136 46.1826V32.2067Z" fill="#F8F8F8"/>
</g>
<defs>
<clipPath id="clip0_1301_19">
<rect width="38" height="38" fill="white" transform="translate(11 28)"/>
</clipPath>
<clipPath id="clip1_1301_19">
<rect width="38" height="38" fill="white" transform="matrix(1 0 0 -1 30 56)"/>
</clipPath>
</defs>
</svg>
