<svg width="64" height="64" viewBox="0 0 64 64" fill="none" xmlns="http://www.w3.org/2000/svg">
<rect width="64" height="64" rx="10" fill="#6B46F2"/>
<path d="M17.7841 26.3636V38H15.3977L10.767 31.2841H10.6932V38H7.88068V26.3636H10.3011L14.8807 33.0682H14.9773V26.3636H17.7841ZM22.1946 26.3636L24.7969 34.8864H24.8935L27.4957 26.3636H30.6435L26.7173 38H22.973L19.0469 26.3636H22.1946ZM31.8963 26.3636H35.3793L38.3338 33.5682H38.4702L41.4247 26.3636H44.9077V38H42.169V30.8523H42.0724L39.277 37.9261H37.527L34.7315 30.8125H34.6349V38H31.8963V26.3636ZM50.7415 38.1648C49.8286 38.1648 49.0407 37.9848 48.3778 37.625C47.7188 37.2614 47.2112 36.7443 46.8551 36.0739C46.5028 35.3996 46.3267 34.5985 46.3267 33.6705C46.3267 32.7689 46.5047 31.9811 46.8608 31.3068C47.2169 30.6288 47.7188 30.1023 48.3665 29.7273C49.0142 29.3485 49.7775 29.1591 50.6562 29.1591C51.2775 29.1591 51.8456 29.2557 52.3608 29.4489C52.8759 29.642 53.321 29.928 53.696 30.3068C54.071 30.6856 54.3627 31.1534 54.571 31.7102C54.7794 32.2633 54.8835 32.8977 54.8835 33.6136V34.3068H47.2983V32.6932H52.2983C52.2945 32.3977 52.2244 32.1345 52.0881 31.9034C51.9517 31.6723 51.7642 31.4924 51.5256 31.3636C51.2907 31.2311 51.0199 31.1648 50.7131 31.1648C50.4025 31.1648 50.1241 31.2348 49.8778 31.375C49.6316 31.5114 49.4366 31.6989 49.2926 31.9375C49.1487 32.1723 49.0729 32.4394 49.0653 32.7386V34.3807C49.0653 34.7367 49.1354 35.0492 49.2756 35.3182C49.4157 35.5833 49.6146 35.7898 49.8722 35.9375C50.1297 36.0852 50.4366 36.1591 50.7926 36.1591C51.0388 36.1591 51.2623 36.125 51.4631 36.0568C51.6638 35.9886 51.8362 35.8883 51.9801 35.7557C52.1241 35.6231 52.232 35.4602 52.304 35.267L54.8551 35.3409C54.7491 35.9129 54.5161 36.411 54.1562 36.8352C53.8002 37.2557 53.3324 37.5833 52.7528 37.8182C52.1733 38.0492 51.5028 38.1648 50.7415 38.1648Z" fill="white"/>
</svg>
