<svg width="80" height="80" viewBox="0 0 80 80" fill="none" xmlns="http://www.w3.org/2000/svg">
<rect width="80" height="80" rx="12" fill="#6B46F2"/>
<path d="M28.1548 37.6378C28.098 37.0649 27.8542 36.6198 27.4233 36.3026C26.9924 35.9853 26.4077 35.8267 25.669 35.8267C25.1671 35.8267 24.7434 35.8977 24.3977 36.0398C24.0521 36.1771 23.7869 36.3688 23.6023 36.6151C23.4223 36.8613 23.3324 37.1406 23.3324 37.4531C23.3229 37.7135 23.3774 37.9408 23.4957 38.1349C23.6188 38.3291 23.7869 38.4972 24 38.6392C24.2131 38.7765 24.4593 38.8973 24.7386 39.0014C25.018 39.1009 25.3163 39.1861 25.6335 39.2571L26.9403 39.5696C27.5748 39.7116 28.1572 39.901 28.6875 40.1378C29.2178 40.3745 29.6771 40.6657 30.0653 41.0114C30.4536 41.357 30.7543 41.7642 30.9673 42.233C31.1851 42.7017 31.2964 43.2391 31.3011 43.8452C31.2964 44.7353 31.0691 45.5071 30.6193 46.1605C30.1742 46.8092 29.5303 47.3134 28.6875 47.6733C27.8494 48.0284 26.8385 48.206 25.6548 48.206C24.4806 48.206 23.4579 48.026 22.5866 47.6662C21.7202 47.3063 21.0431 46.7737 20.5554 46.0682C20.0724 45.358 19.8191 44.4796 19.7955 43.4332H22.7713C22.8045 43.9209 22.9441 44.3281 23.1903 44.6548C23.4413 44.9768 23.7751 45.2206 24.1918 45.3864C24.6132 45.5473 25.089 45.6278 25.6193 45.6278C26.1402 45.6278 26.5923 45.5521 26.9759 45.4006C27.3641 45.2491 27.6648 45.0384 27.8778 44.7685C28.0909 44.4986 28.1974 44.1884 28.1974 43.8381C28.1974 43.5114 28.1004 43.2367 27.9062 43.0142C27.7169 42.7917 27.4375 42.6023 27.0682 42.446C26.7036 42.2898 26.2562 42.1477 25.7259 42.0199L24.142 41.6222C22.9157 41.3239 21.9474 40.8575 21.2372 40.223C20.527 39.5885 20.1742 38.7339 20.179 37.6591C20.1742 36.7784 20.4086 36.009 20.8821 35.3509C21.3603 34.6927 22.0161 34.179 22.8494 33.8097C23.6828 33.4403 24.6297 33.2557 25.6903 33.2557C26.7699 33.2557 27.7121 33.4403 28.517 33.8097C29.3267 34.179 29.9564 34.6927 30.4062 35.3509C30.8561 36.009 31.0881 36.7713 31.1023 37.6378H28.1548ZM41.2603 37.6378C41.2035 37.0649 40.9596 36.6198 40.5288 36.3026C40.0979 35.9853 39.5131 35.8267 38.7745 35.8267C38.2726 35.8267 37.8488 35.8977 37.5032 36.0398C37.1576 36.1771 36.8924 36.3688 36.7077 36.6151C36.5278 36.8613 36.4379 37.1406 36.4379 37.4531C36.4284 37.7135 36.4828 37.9408 36.6012 38.1349C36.7243 38.3291 36.8924 38.4972 37.1055 38.6392C37.3185 38.7765 37.5647 38.8973 37.8441 39.0014C38.1235 39.1009 38.4218 39.1861 38.739 39.2571L40.0458 39.5696C40.6803 39.7116 41.2627 39.901 41.793 40.1378C42.3233 40.3745 42.7826 40.6657 43.1708 41.0114C43.5591 41.357 43.8597 41.7642 44.0728 42.233C44.2906 42.7017 44.4019 43.2391 44.4066 43.8452C44.4019 44.7353 44.1746 45.5071 43.7248 46.1605C43.2797 46.8092 42.6358 47.3134 41.793 47.6733C40.9549 48.0284 39.944 48.206 38.7603 48.206C37.5861 48.206 36.5633 48.026 35.6921 47.6662C34.8256 47.3063 34.1486 46.7737 33.6609 46.0682C33.1779 45.358 32.9246 44.4796 32.9009 43.4332H35.8768C35.9099 43.9209 36.0496 44.3281 36.2958 44.6548C36.5468 44.9768 36.8806 45.2206 37.2972 45.3864C37.7186 45.5473 38.1945 45.6278 38.7248 45.6278C39.2456 45.6278 39.6978 45.5521 40.0813 45.4006C40.4696 45.2491 40.7702 45.0384 40.9833 44.7685C41.1964 44.4986 41.3029 44.1884 41.3029 43.8381C41.3029 43.5114 41.2058 43.2367 41.0117 43.0142C40.8223 42.7917 40.543 42.6023 40.1737 42.446C39.8091 42.2898 39.3616 42.1477 38.8313 42.0199L37.2475 41.6222C36.0212 41.3239 35.0529 40.8575 34.3427 40.223C33.6325 39.5885 33.2797 38.7339 33.2844 37.6591C33.2797 36.7784 33.5141 36.009 33.9876 35.3509C34.4658 34.6927 35.1216 34.179 35.9549 33.8097C36.7882 33.4403 37.7352 33.2557 38.7958 33.2557C39.8754 33.2557 40.8176 33.4403 41.6225 33.8097C42.4322 34.179 43.0619 34.6927 43.5117 35.3509C43.9615 36.009 44.1935 36.7713 44.2077 37.6378H41.2603ZM46.4751 48V33.4545H49.5504V39.456H55.7933V33.4545H58.8615V48H55.7933V41.9915H49.5504V48H46.4751Z" fill="white"/>
</svg>
