<svg width="64" height="64" viewBox="0 0 64 64" fill="none" xmlns="http://www.w3.org/2000/svg">
<rect width="64" height="64" rx="10" fill="#6B46F2"/>
<path d="M23.5533 29.8523C23.5154 29.4356 23.3468 29.1117 23.0476 28.8807C22.7521 28.6458 22.3298 28.5284 21.7805 28.5284C21.4169 28.5284 21.1139 28.5758 20.8714 28.6705C20.629 28.7652 20.4472 28.8958 20.326 29.0625C20.2048 29.2254 20.1423 29.4129 20.1385 29.625C20.1309 29.7992 20.165 29.9527 20.2408 30.0852C20.3203 30.2178 20.4339 30.3352 20.5817 30.4375C20.7332 30.536 20.915 30.6231 21.1271 30.6989C21.3393 30.7746 21.5779 30.8409 21.843 30.8977L22.843 31.125C23.4188 31.25 23.9264 31.4167 24.3658 31.625C24.8089 31.8333 25.1802 32.0814 25.4794 32.3693C25.7824 32.6572 26.0116 32.9886 26.1669 33.3636C26.3222 33.7386 26.4018 34.1591 26.4055 34.625C26.4018 35.3598 26.2161 35.9905 25.8487 36.517C25.4813 37.0436 24.9529 37.447 24.2635 37.7273C23.5779 38.0076 22.7502 38.1477 21.7805 38.1477C20.8071 38.1477 19.9586 38.0019 19.2351 37.7102C18.5116 37.4186 17.9491 36.9754 17.5476 36.3807C17.1461 35.786 16.9396 35.0341 16.9283 34.125H19.6214C19.6442 34.5 19.7446 34.8125 19.9226 35.0625C20.1006 35.3125 20.3449 35.5019 20.6555 35.6307C20.9699 35.7595 21.3336 35.8239 21.7464 35.8239C22.1252 35.8239 22.4472 35.7727 22.7124 35.6705C22.9813 35.5682 23.1877 35.4261 23.3317 35.2443C23.4756 35.0625 23.5495 34.8542 23.5533 34.6193C23.5495 34.3996 23.4813 34.2121 23.3487 34.0568C23.2161 33.8977 23.0116 33.7614 22.7351 33.6477C22.4624 33.5303 22.1139 33.4223 21.6896 33.3239L20.4737 33.0398C19.4661 32.8087 18.6726 32.4356 18.093 31.9205C17.5135 31.4015 17.2256 30.7008 17.2294 29.8182C17.2256 29.0985 17.4188 28.4678 17.8089 27.9261C18.1991 27.3845 18.7389 26.9621 19.4283 26.6591C20.1177 26.3561 20.9036 26.2045 21.7862 26.2045C22.6877 26.2045 23.4699 26.358 24.1328 26.6648C24.7995 26.9678 25.3165 27.3939 25.6839 27.9432C26.0514 28.4924 26.2389 29.1288 26.2464 29.8523H23.5533ZM34.1158 29.8523C34.0779 29.4356 33.9093 29.1117 33.6101 28.8807C33.3146 28.6458 32.8923 28.5284 32.343 28.5284C31.9794 28.5284 31.6764 28.5758 31.4339 28.6705C31.1915 28.7652 31.0097 28.8958 30.8885 29.0625C30.7673 29.2254 30.7048 29.4129 30.701 29.625C30.6934 29.7992 30.7275 29.9527 30.8033 30.0852C30.8828 30.2178 30.9964 30.3352 31.1442 30.4375C31.2957 30.536 31.4775 30.6231 31.6896 30.6989C31.9018 30.7746 32.1404 30.8409 32.4055 30.8977L33.4055 31.125C33.9813 31.25 34.4889 31.4167 34.9283 31.625C35.3714 31.8333 35.7427 32.0814 36.0419 32.3693C36.3449 32.6572 36.5741 32.9886 36.7294 33.3636C36.8847 33.7386 36.9643 34.1591 36.968 34.625C36.9643 35.3598 36.7786 35.9905 36.4112 36.517C36.0438 37.0436 35.5154 37.447 34.826 37.7273C34.1404 38.0076 33.3127 38.1477 32.343 38.1477C31.3696 38.1477 30.5211 38.0019 29.7976 37.7102C29.0741 37.4186 28.5116 36.9754 28.1101 36.3807C27.7086 35.786 27.5021 35.0341 27.4908 34.125H30.1839C30.2067 34.5 30.3071 34.8125 30.4851 35.0625C30.6631 35.3125 30.9074 35.5019 31.218 35.6307C31.5324 35.7595 31.8961 35.8239 32.3089 35.8239C32.6877 35.8239 33.0097 35.7727 33.2749 35.6705C33.5438 35.5682 33.7502 35.4261 33.8942 35.2443C34.0381 35.0625 34.112 34.8542 34.1158 34.6193C34.112 34.3996 34.0438 34.2121 33.9112 34.0568C33.7786 33.8977 33.5741 33.7614 33.2976 33.6477C33.0249 33.5303 32.6764 33.4223 32.2521 33.3239L31.0362 33.0398C30.0286 32.8087 29.2351 32.4356 28.6555 31.9205C28.076 31.4015 27.7881 30.7008 27.7919 29.8182C27.7881 29.0985 27.9813 28.4678 28.3714 27.9261C28.7616 27.3845 29.3014 26.9621 29.9908 26.6591C30.6802 26.3561 31.4661 26.2045 32.3487 26.2045C33.2502 26.2045 34.0324 26.358 34.6953 26.6648C35.362 26.9678 35.879 27.3939 36.2464 27.9432C36.6139 28.4924 36.8014 29.1288 36.8089 29.8523H34.1158ZM38.3885 38V26.3636H41.201V35.7159H46.0419V38H38.3885Z" fill="white"/>
</svg>
