<svg width="80" height="81" viewBox="0 0 80 81" fill="none" xmlns="http://www.w3.org/2000/svg">
<rect y="0.89502" width="80" height="79.7203" rx="12" fill="#6B46F2"/>
<g clip-path="url(#clip0_1301_18)">
<path d="M24.5335 34.2448C23.1824 36.0316 22.2677 38.1094 21.8626 40.3125H19.2008C19.6554 37.3725 20.8743 34.6035 22.7354 32.2826L24.5335 34.2448ZM28.4027 30.6971L26.6046 28.735C29.4041 26.8654 32.6961 25.8699 36.0625 25.875V28.5C33.2485 28.5 30.6235 29.3046 28.4027 30.6971Z" fill="white"/>
<path d="M53.125 23.7933V42.9374C53.125 52.3612 45.4862 59.9999 36.0625 59.9999C27.5312 59.9999 20.4634 53.7393 19.2008 45.5624H21.8612C23.095 52.2824 28.9842 57.3749 36.0612 57.3749C44.0346 57.3749 50.4987 50.9109 50.4987 42.9374V23.7933L44.8641 29.4279L43.0082 27.572L51.8125 18.769L60.6154 27.572L58.7596 29.4279L53.125 23.7933ZM42.8402 36.7989L44.7722 38.576L34.8274 49.3844L28.4815 43.5543L30.2573 41.621L34.6726 45.6766L42.8402 36.7989Z" fill="white"/>
</g>
<defs>
<clipPath id="clip0_1301_18">
<rect width="42" height="42" fill="white" transform="translate(19 18)"/>
</clipPath>
</defs>
</svg>
