<svg width="80" height="80" viewBox="0 0 80 80" fill="none" xmlns="http://www.w3.org/2000/svg">
<rect width="80" height="80" rx="12" fill="#6B46F2"/>
<path d="M23.4304 32.4545V47H20.7741L14.446 37.8452H14.3395V47H11.2642V32.4545H13.9631L20.2415 41.6023H20.3693V32.4545H23.4304ZM28.5991 32.4545L32.1147 43.5057H32.2496L35.7724 32.4545H39.1815L34.1673 47H30.2042L25.1829 32.4545H28.5991ZM40.9322 32.4545H44.7248L48.7305 42.2273H48.9009L52.9066 32.4545H56.6992V47H53.7163V37.5327H53.5955L49.8313 46.929H47.8001L44.0359 37.4972H43.9151V47H40.9322V32.4545ZM64.1477 47.2131C63.0256 47.2131 62.0597 46.9858 61.25 46.5312C60.4451 46.072 59.8248 45.4233 59.3892 44.5852C58.9536 43.7424 58.7358 42.7457 58.7358 41.5952C58.7358 40.473 58.9536 39.4882 59.3892 38.6406C59.8248 37.7931 60.438 37.1326 61.2287 36.6591C62.0241 36.1856 62.9569 35.9489 64.027 35.9489C64.7467 35.9489 65.4167 36.0649 66.0369 36.2969C66.6619 36.5241 67.2064 36.8674 67.6705 37.3267C68.1392 37.786 68.5038 38.3636 68.7642 39.0597C69.0246 39.7509 69.1548 40.5606 69.1548 41.4886V42.3196H59.9432V40.4446H66.3068C66.3068 40.009 66.2121 39.6231 66.0227 39.2869C65.8333 38.9508 65.5705 38.688 65.2344 38.4986C64.9029 38.3045 64.517 38.2074 64.0767 38.2074C63.6174 38.2074 63.2102 38.3139 62.8551 38.527C62.5047 38.7353 62.2301 39.017 62.0312 39.3722C61.8324 39.7225 61.7306 40.1132 61.7259 40.544V42.3267C61.7259 42.8665 61.8253 43.3329 62.0241 43.7259C62.2277 44.1188 62.5142 44.4219 62.8835 44.6349C63.2528 44.848 63.6908 44.9545 64.1974 44.9545C64.5336 44.9545 64.8414 44.9072 65.1207 44.8125C65.4001 44.7178 65.6392 44.5758 65.8381 44.3864C66.0369 44.197 66.1884 43.965 66.2926 43.6903L69.0909 43.875C68.9489 44.5473 68.6577 45.1345 68.2173 45.6364C67.7817 46.1335 67.2183 46.5218 66.527 46.8011C65.8404 47.0758 65.0473 47.2131 64.1477 47.2131Z" fill="white"/>
</svg>
