<?xml version="1.0" encoding="UTF-8"?>
<svg id="Layer_1" data-name="Layer 1" xmlns="http://www.w3.org/2000/svg" viewBox="0 0 1273.29 270.99">
  <defs>
    <style>
      .cls-1 {
        fill: #86da2f;
      }

      .cls-2 {
        fill: #ffcb12;
      }

      .cls-3 {
        fill: #ff4649;
      }

      .cls-4 {
        fill: #24c2ff;
      }

      .cls-5 {
        fill: #0069da;
      }

      .cls-6 {
        fill: #082336;
      }
    </style>
  </defs>
  <path id="path4" class="cls-6" d="m402.83,206.86l-8.3-24.89h-55.3l-8.3,24.89h-29.62l48.19-138.25h33.98l48.58,138.25h-29.23,0Zm-54.9-50.56h37.92l-18.96-56.49-18.96,56.49Z"/>
  <path id="path6" class="cls-6" d="m444.7,206.86V62.68h25.68v144.18h-25.68Z"/>
  <path id="path8" class="cls-6" d="m602.7,105.34c11.45,0,20.15,3.55,26.86,11.06,6.72,7.51,10.27,17.38,10.27,29.62v60.83h-25.28v-59.26c0-5.92-1.58-10.66-4.34-13.83-2.77-3.16-7.11-4.74-12.24-4.74-5.92,0-10.27,1.98-13.43,5.92-3.16,3.95-4.74,9.48-4.74,16.59v55.3h-25.28v-59.26c0-5.92-1.58-10.66-4.34-13.83-2.77-3.16-7.11-4.74-12.24-4.74-5.53,0-10.27,1.98-13.83,5.92-3.16,3.95-4.74,9.48-4.74,16.59v55.3h-25.28v-98.75h25.28v10.27c5.92-8.69,15.01-13.43,27.65-13.43s20.94,4.74,26.86,14.22c5.92-9.09,15.8-13.83,28.83-13.83h0v.03Z"/>
  <path id="path10" class="cls-6" d="m736.62,108.11h25.28v98.75h-25.28v-11.85c-7.51,9.48-18.57,14.62-32.39,14.62-13.04,0-24.49-5.13-33.98-15.01-9.48-10.27-14.22-22.51-14.22-37.13s4.74-26.86,14.22-37.13c9.48-10.27,20.94-15.41,33.98-15.41,13.83,0,24.49,4.74,32.39,14.62v-11.45Zm-47.01,69.52c5.13,5.13,11.45,7.9,19.36,7.9s14.62-2.37,19.75-7.9c5.13-5.13,7.9-11.85,7.9-20.15s-2.77-15.01-7.9-19.75c-5.13-5.13-11.85-7.9-19.75-7.9s-14.22,2.77-19.36,7.9-7.51,11.85-7.51,19.75,2.37,15.01,7.51,20.15h0Z"/>
  <path id="path12" class="cls-6" d="m813.64,180.78h52.54v26.07h-79.79V68.6h27.26v112.18h-.01Z"/>
  <path id="path14" class="cls-6" d="m893.43,96.26c-4.34,0-7.9-1.58-11.06-4.34-3.16-3.16-4.74-6.72-4.74-11.06s1.58-7.9,4.74-11.06c3.16-3.16,6.72-4.74,11.06-4.74s7.9,1.58,11.06,4.74c3.16,3.16,4.74,6.72,4.74,11.06s-1.58,7.9-4.74,11.06c-3.16,2.77-6.72,4.34-11.06,4.34Zm-12.64,110.6v-98.75h25.68v98.75h-25.68Z"/>
  <path id="path16" class="cls-6" d="m984.28,105.34c10.66,0,19.75,3.55,26.86,11.06,7.11,7.11,10.66,17.38,10.66,30.02v60.43h-25.28v-57.67c0-6.72-1.98-11.45-5.53-15.01-3.55-3.55-8.3-5.53-14.22-5.53-6.72,0-11.85,1.98-15.8,6.32s-5.92,10.27-5.92,18.57v53.33h-25.28v-98.75h25.28v11.06c6.32-9.09,15.8-13.83,29.23-13.83h0Z"/>
  <path id="path18" class="cls-6" d="m1108.72,108.11h25.68v98.75h-25.68v-11.06c-6.32,9.09-15.8,13.83-29.23,13.83-10.66,0-19.75-3.55-26.86-11.06-7.11-7.11-10.27-17.38-10.27-30.02v-60.43h25.68v57.28c0,6.72,1.58,11.85,5.13,15.41s8.3,5.13,14.22,5.13c6.72,0,11.85-1.98,15.8-5.92,3.95-3.95,5.92-10.27,5.92-18.57v-53.33h-.4Z"/>
  <path id="path20" class="cls-6" d="m1248.54,206.86h-29.62l-21.33-30.02-21.73,30.02h-29.23l35.94-50.56-34.76-48.19h29.23l20.15,27.65,19.75-27.65h29.23l-34.76,48.19,37.13,50.56Z"/>
  <path id="path22" class="cls-1" d="m246.41,150.77c10.27-.79,18.57,5.92,19.36,16.19.79,10.66-6.72,19.36-16.98,20.15-9.87.79-18.57-6.72-19.36-16.59-.79-10.66,6.32-18.57,16.98-19.75h0Z"/>
  <path id="path24" class="cls-4" d="m121.58,234.91c0-10.27,7.9-18.17,17.38-18.17s18.57,8.69,18.57,18.57-7.9,17.77-16.98,18.17c-11.45,0-18.96-7.11-18.96-18.57Z"/>
  <path id="path26" class="cls-2" d="m149.62,119.56c-1.58.79-2.37-.4-2.77-1.58-14.62-27.26-10.27-61.62,15.41-82.16,6.72-5.53,19.36-6.72,24.89-1.19,2.37,1.98,2.77,4.34,3.16,7.11.79,5.92,1.98,11.85,5.92,16.59,4.34,5.13,9.87,7.11,16.19,6.72,5.53,0,11.06-.79,14.62,5.53,1.98,3.55,1.19,17.38-1.98,20.15-1.58,1.19-2.77.4-3.95,0-9.09-3.55-18.57-3.55-28.05-1.98-3.16.4-4.74-.4-4.74-3.95-.4-5.92-1.58-11.45-4.74-16.59-5.92-10.66-16.98-11.06-24.09-1.19-5.92,7.9-7.51,17.38-9.09,26.86-1.58,8.3-1.19,16.98-.79,25.68,0,0-.4,0,0,0h.01Z"/>
  <path id="path28" class="cls-1" d="m159.5,125.48c-.79-1.19-.4-2.37.79-3.16,22.51-20.54,56.09-24.49,82.16-4.34,6.72,5.53,11.06,16.98,7.51,23.7-1.58,2.77-3.55,3.95-5.92,4.74-5.53,2.37-10.66,4.74-14.22,9.87-3.55,5.13-4.34,11.06-2.77,17.38,1.19,5.13,3.16,10.66-1.98,15.41-2.77,2.77-16.19,5.13-19.75,2.77-1.58-1.19-1.19-2.37-.79-3.95,1.19-9.87-1.19-18.96-4.74-27.65-1.19-3.16-.79-4.74,2.37-5.53,5.53-1.58,10.66-4.34,14.62-8.3,8.69-8.3,6.72-18.96-4.74-23.7-9.09-3.95-18.57-3.16-27.65-2.37-8.69.4-16.98,2.77-24.89,5.13h0Z"/>
  <path id="path30" class="cls-4" d="m154.37,135.76c1.19-1.19,1.98-.79,3.16,0,26.07,15.8,39.5,47.01,27.65,77.43-3.16,7.9-13.43,15.8-20.94,13.83-3.16-.79-4.74-2.37-6.32-4.34-3.55-4.74-7.51-9.09-13.43-11.06-6.32-1.98-11.85-.79-17.38,2.37-4.74,2.77-9.48,6.32-15.41,2.77-3.55-1.98-9.48-14.22-8.3-18.17.79-1.58,2.37-1.58,3.95-1.58,9.87-1.58,17.77-6.32,25.28-12.64,2.37-1.98,4.34-1.98,6.32.79,3.16,4.74,7.11,8.69,12.24,11.45,10.27,5.92,20.15.79,21.33-11.06,1.19-9.87-2.37-18.57-5.53-27.26-3.55-7.9-7.9-15.41-12.64-22.51v-.02Z"/>
  <path id="path32" class="cls-5" d="m141.73,138.12c-1.58,7.9-5.13,15.41-9.87,22.12-14.22,21.33-34.76,30.02-60.04,27.65-9.09-.79-16.59-8.3-17.38-15.8-.4-3.16.4-5.53,2.37-7.9,2.77-3.55,5.13-6.72,6.32-11.06,2.37-8.69-.79-15.8-7.11-22.12-8.69-8.69-7.51-16.59,2.77-22.91,1.19-.79,2.77-1.58,4.34-2.37,2.37-1.19,4.34-1.19,5.13,1.58,3.55,9.09,10.66,15.8,18.57,21.33,2.77,2.37,2.77,3.95.4,6.72-4.74,5.13-7.51,11.45-7.9,18.57-.79,8.69,4.34,14.22,13.04,14.22,5.53,0,10.66-1.98,15.41-4.34,12.24-6.32,21.73-15.41,30.81-24.89,1.19-.4,1.58-1.19,3.16-.79v-.02Z"/>
  <path id="path34" class="cls-3" d="m76.95,55.17c.79,0,2.77.4,4.74.79,14.62,2.77,23.7-2.37,28.44-16.19,3.16-9.09,9.87-11.85,18.57-7.11.4,0,.4.4.79.4,9.09,5.13,9.09,5.92,3.55,13.83-4.74,6.32-7.11,13.43-8.3,20.94-.79,4.34-2.37,5.13-6.32,3.55-6.32-2.37-13.04-2.37-19.75,0-7.51,2.37-10.66,9.09-8.3,16.59,3.16,9.87,11.85,14.22,19.36,19.36s16.19,7.9,24.49,11.45c1.19.4,3.16.4,2.77,2.37-.4,1.19-1.98,1.19-3.55,1.19-17.77.79-34.76-1.98-48.58-13.83-13.04-10.66-22.51-23.7-20.94-41.87,1.19-5.92,5.53-10.27,13.04-11.45h.01Z"/>
  <path id="path36" class="cls-5" d="m44.55,166.18c-9.48,1.19-18.96-6.72-19.75-16.59-.79-9.48,7.11-18.96,16.19-19.75,10.27-1.19,19.75,5.92,20.54,15.41.4,9.09-5.53,20.15-16.98,20.94h0Z"/>
  <path id="path38" class="cls-2" d="m210.46,25.55c9.87-.79,19.36,7.11,20.15,16.98.79,9.48-7.11,18.57-16.59,19.36-10.27.79-19.36-6.72-20.15-16.59s6.32-18.96,16.59-19.75h0Z"/>
  <path id="path40" class="cls-3" d="m107.36,33.05c1.19,10.27-5.92,18.96-16.59,20.54-9.09,1.19-18.57-6.32-19.75-15.01-1.19-11.45,5.13-19.75,15.8-20.94,9.87-1.19,19.36,6.32,20.54,15.41Z"/>
</svg>