<?xml version="1.0" encoding="UTF-8"?>
<svg id="Layer_1" xmlns="http://www.w3.org/2000/svg" viewBox="0 0 70 70">
  <defs>
    <style>
      .cls-1 {
        fill: #fff;
      }

      .cls-2 {
        fill: #5138cc;
      }
    </style>
  </defs>
  <g id="Character">
    <rect class="cls-2" width="70" height="70" rx="12.56" ry="12.56"/>
  </g>
  <g>
    <path class="cls-1" d="M32.65,13.88c10.88-1.07,16.18,11.85,8.77,18.75-7.08,6.6-19,1.17-18.24-8.91.36-4.82,4.62-9.36,9.47-9.84Z"/>
    <path class="cls-1" d="M47.89,35.49c6.32-.27,10.4,6.62,7.16,12.05-1.54,2.59-4.92,4.18-7.9,3.65-1.66,1.63-3.33,3.26-4.99,4.9-1.88.03-3.76.06-5.63.09-1.77-.38-.82-4.79-1.06-6.14.19-1.17,4.05-4.27,4.99-5.36-.66-4.53,2.81-8.99,7.44-9.19ZM47.8,41.31c-2.4.41-2.05,4.59.83,4.25,2.61-.31,2.33-4.79-.83-4.25Z"/>
    <path class="cls-1" d="M31.54,37.25c2.63-.15,6.04,0,8.64.51-1.17,1.83-1.8,3.92-1.75,6.1-4.34,4.61-5.19,3.44-4.94,10.39h-16.9c-1.31-.19-2.39-1.4-2.72-2.63-.11-4.26-.28-6.64,3.19-9.56,3.57-3,9.94-4.55,14.5-4.8Z"/>
  </g>
</svg>