<?xml version="1.0" encoding="UTF-8"?>
<svg id="Layer_1" xmlns="http://www.w3.org/2000/svg" viewBox="0 0 70 70">
  <defs>
    <style>
      .cls-1, .cls-2 {
        fill: #fff;
      }

      .cls-3 {
        fill: #5138cc;
      }

      .cls-2 {
        stroke: #5138cc;
        stroke-miterlimit: 10;
      }
    </style>
  </defs>
  <g id="Character">
    <rect class="cls-3" y=".27" width="70" height="70" rx="12.56" ry="12.56"/>
  </g>
  <g>
    <path class="cls-1" d="M8.55,54.76V15.82c.47-2.13,1.82-3.45,3.98-3.82h44.94c2.18.39,3.52,1.69,3.98,3.87v38.84c-.28,1.77-1.85,3.52-3.67,3.77h-20.35c-2.71,1.04-5.76,1.58-8.68,1.65-.7.02-3.58.13-3.77-.57-.44-1.61,1.92-.89,3.77-.98,2.99-.15,8.01-.85,10.43-2.69,2.08-1.58,1.44-3.18,1.45-5.58-5.74,4.47-19.95,4.53-25.62,0-.02,1.29-.03,2.58-.05,3.87.88,1.81,3.17,2.75,5.01,3.36.72.24,2.77.38,2.94.98.66,2.28-4.1.05-4.8-.05-3.53-.51-8.1,1.66-9.56-3.72ZM12.63,13.55c-3.69.8-2.3,4.81-2.48,8.06,16.58-.02,33.16-.03,49.74-.05-.34-2.88,1.28-7.21-2.53-8.01H12.63ZM10.15,23.15c.17,4.98-.39,29.27-.05,31.45.37,2.36,3.16,2.57,5.06,2.27-.66-.62-1.61-1.55-1.76-2.48-.16-1.02-.17-19.64,0-20.66.62-3.79,8.8-5.43,11.93-5.63,4.26-.27,16.2.48,16.89,6.15v19.63c-.15,1.25-.93,2.22-1.81,3.05h17.15c1.01-.16,2.17-1.32,2.32-2.32.34-2.18-.22-26.47-.05-31.45H10.15ZM25.44,29.66c-5.53.36-15.05,3.74-8.16,7.54,5.04,2.78,16.19,2.8,21.18-.1,4.2-2.44,1.5-4.85-1.76-6.09-3.12-1.19-7.93-1.56-11.26-1.34ZM15.01,37.51c-.02,1.29-.03,2.58-.05,3.87,3.53,5.73,19.65,5.21,24.33,1.6,1.98-1.52,1.33-3.2,1.34-5.47-5.86,4.43-19.82,4.49-25.62,0ZM15.01,43.92c-.02,1.29-.03,2.58-.05,3.87,3.56,5.78,19.71,5.21,24.33,1.6,1.98-1.55,1.33-3.17,1.34-5.47-5.76,4.46-19.95,4.5-25.62,0Z"/>
    <path class="cls-3" d="M12.63,13.55h44.73c3.81.79,2.19,5.13,2.53,8.01-16.58.02-33.16.03-49.74.05.18-3.25-1.22-7.26,2.48-8.06ZM13.15,15.2c-2.07.35-1.78,4.44-.31,4.75h12.19c1.51-.31,1.57-4.16.1-4.65-1.69-.03-3.37-.07-5.06-.1-.22.19-.45.38-.67.57-.34,1.64,2.84.77,5.11.98v1.65h-11.16v-1.65h3.51c.58-.17.63-1.35-.21-1.55h-3.51ZM42.8,15.2c-3.05.22-2.81,5.42.83,4.75,2.61-.48,2.22-4.98-.83-4.75ZM49.2,15.2c-3.04.22-2.78,5.39.83,4.75,2.61-.46,2.24-4.98-.83-4.75ZM55.61,15.2c-2.64.19-2.81,4.32-.31,4.75,3.73.64,3.87-5.01.31-4.75Z"/>
    <path class="cls-1" d="M13.15,15.2h3.51c.84.2.78,1.38.21,1.55h-3.51v1.65h11.16v-1.65c-2.28-.22-5.45.66-5.11-.98.22-.19.45-.38.67-.57,1.69.03,3.37.07,5.06.1,1.47.49,1.4,4.34-.1,4.65h-12.19c-1.47-.31-1.76-4.41.31-4.75Z"/>
    <path class="cls-2" d="M42.8,15.2c3.04-.22,3.44,4.27.83,4.75-3.63.67-3.88-4.53-.83-4.75ZM42.9,16.75c-.99.1-.92,1.96.41,1.65.88-.2.6-1.76-.41-1.65Z"/>
    <path class="cls-2" d="M49.2,15.2c3.07-.23,3.44,4.29.83,4.75-3.6.63-3.87-4.53-.83-4.75ZM49.31,16.75c-.99.1-.92,1.96.41,1.65.89-.2.62-1.76-.41-1.65Z"/>
    <path class="cls-2" d="M55.61,15.2c3.56-.25,3.42,5.39-.31,4.75-2.5-.43-2.33-4.56.31-4.75ZM55.81,16.75c-1.15.04-.97,2.06.41,1.65.71-.21.55-1.68-.41-1.65Z"/>
    <path class="cls-1" d="M42.9,16.75c1.02-.11,1.29,1.45.41,1.65-1.33.31-1.4-1.55-.41-1.65Z"/>
    <path class="cls-1" d="M49.31,16.75c1.04-.11,1.3,1.45.41,1.65-1.33.31-1.4-1.55-.41-1.65Z"/>
    <path class="cls-1" d="M55.81,16.75c.96-.03,1.12,1.44.41,1.65-1.39.41-1.57-1.62-.41-1.65Z"/>
    <path class="cls-3" d="M10.15,23.15h49.69c-.17,4.98.39,29.27.05,31.45-.16,1.01-1.32,2.17-2.32,2.32h-17.15c.88-.83,1.66-1.79,1.81-3.05v-19.63c-.69-5.67-12.63-6.42-16.89-6.15-3.13.2-11.31,1.84-11.93,5.63-.17,1.02-.16,19.64,0,20.66.14.93,1.1,1.86,1.76,2.48-1.91.3-4.7.09-5.06-2.27-.34-2.18.22-26.47.05-31.45ZM49.2,24.91c-4.13.52-6.88,5.65-4.39,9.76,2.31,3.81,8.09,3.93,10.64.31,2.19-3.11.87-7.71-.57-6.97-1.02.52.47,1.77.15,4.08-.47,3.46-4.8,5.08-7.59,3.15-2.71-1.87-2.7-6.28.1-8.06,3.07-1.95,5.55.7,5.94-.67.41-1.42-2.9-1.77-4.29-1.6ZM49.93,28.11c-.64.19-.81,3.69.1,3.93.83-.03,1.65-.07,2.48-.1.74-.38.53-1.82-1.45-1.45-.22-.14.46-2.85-1.14-2.38Z"/>
    <path class="cls-1" d="M17.35,40.51c.96.34,1.93.69,2.89,1.03,1.13.37,3.12.21,2.84,1.5-.12.15-.24.31-.36.46-.58.31-5.74-1.22-5.94-1.91-.11-.4.13-1,.57-1.08Z"/>
    <path class="cls-1" d="M38.05,40.51c1.02-.2,1.21,1.36.41,1.55-1.13.27-1.32-1.37-.41-1.55Z"/>
    <path class="cls-1" d="M35.01,41.65c1.15-.19,1.24,1.86-.1,1.55-.7-.16-.59-1.44.1-1.55Z"/>
    <path class="cls-1" d="M17.18,46.91c1.07.38,2.13.76,3.2,1.14,1,.32,2.81.13,2.53,1.39-.12.15-.24.31-.36.46-.66.35-5.37-1.24-5.68-1.55-.53-.53-.2-1.36.31-1.45Z"/>
    <path class="cls-1" d="M38.05,46.91c1.17-.19,1.26,1.86-.1,1.55-.7-.16-.59-1.44.1-1.55Z"/>
    <path class="cls-1" d="M34.84,48.05c1.15-.19,1.24,1.86-.1,1.55-.7-.16-.59-1.44.1-1.55Z"/>
    <path class="cls-1" d="M17.28,53.32c.79.31,1.58.62,2.38.93,1.6.48,3.64.41,3.25,1.7-.36,1.21-5.81-.96-6.04-1.19-.53-.53-.22-1.41.41-1.45Z"/>
    <path class="cls-1" d="M38.05,53.32c.95-.15,1.28,1.36.41,1.55-1.24.27-1.24-1.41-.41-1.55Z"/>
    <path class="cls-1" d="M34.95,54.45c1.05-.05,1.14,1.84-.21,1.55-.76-.16-.58-1.51.21-1.55Z"/>
    <path class="cls-2" d="M58.3,25.21l-.12.25-.25.3-5.55,5.49-.18.25c-.25.25-.18.54.18.73.48.32,1,.61,1.53.86l2.32,1.41c.18.06.37.12.37.37s-.18.37-.37.48l-10.67,5.61-2.86,1.53h-.48c0-.11.05-.22.12-.3l.18-.18,5.49-5.49.18-.25c.21-.11.28-.37.16-.58-.06-.11-.16-.18-.29-.22l-3.78-2.2c-.18-.12-.48-.18-.43-.48s.25-.37.43-.48l13.41-7.07.3-.12.3.12h0v-.02Z"/>
  </g>
</svg>