<?xml version="1.0" encoding="UTF-8"?>
<svg id="Layer_1" xmlns="http://www.w3.org/2000/svg" viewBox="0 0 70 70">
  <defs>
    <style>
      .cls-1 {
        font-family: Poppins-Bold, Poppins;
        font-size: 11.03px;
        font-weight: 700;
      }

      .cls-1, .cls-2 {
        fill: #fff;
      }

      .cls-2, .cls-3 {
        stroke-width: 0px;
      }

      .cls-3 {
        fill: #5138cc;
      }
    </style>
  </defs>
  <g id="Character">
    <rect class="cls-3" width="70" height="70" rx="12.56" ry="12.56"/>
  </g>
  <path class="cls-3" d="M55.12,23.79l-20.12-8.89-20.12,8.89c-2.36,27.09,19.35,36.12,19.35,36.12h1.54s21.71-9.03,19.35-36.12Z"/>
  <path class="cls-2" d="M35.77,61.84h-1.54c-.25,0-.51-.05-.74-.15-.23-.1-22.99-9.9-20.53-38.07.06-.7.5-1.32,1.15-1.6l20.12-8.89c.5-.22,1.07-.22,1.56,0l20.12,8.89c.65.29,1.08.9,1.15,1.6,2.46,28.17-20.3,37.98-20.53,38.07-.24.1-.49.15-.74.15ZM34.64,57.97h.72c2.69-1.25,19.36-9.94,17.92-32.88l-18.28-8.08-18.28,8.08c-1.45,22.94,15.23,31.63,17.92,32.88Z"/>
  <circle class="cls-2" cx="46.17" cy="48.61" r="8.21" transform="translate(-9.84 11.76) rotate(-13.14)"/>
  <polygon class="cls-3" points="43.99 55.13 40 48.24 41.77 47.21 44.24 51.47 50.64 43.28 52.25 44.55 43.99 55.13"/>
  <text class="cls-1" transform="translate(20.3 36.91)"><tspan x="0" y="0">DDoS</tspan></text>
</svg>