<?xml version="1.0" encoding="UTF-8"?>
<svg id="Layer_1" xmlns="http://www.w3.org/2000/svg" viewBox="0 0 70 70">
  <defs>
    <style>
      .cls-1 {
        fill: #fff;
      }

      .cls-2 {
        fill: #5138cc;
      }
    </style>
  </defs>
  <g id="Character">
    <rect class="cls-2" x=".39" y=".27" width="70" height="70" rx="12.56" ry="12.56"/>
  </g>
  <g>
    <path class="cls-1" d="M58.83,14.52v1.21c-1.04,4.42-6.61,4.53-7.96.19h-8.29c-.69.66-1.91,3-2.79,3.17h-5.68c-.26-.51-.53-1.02-.79-1.54,2.03-.02,4.06-.03,6.1-.05.73-.83,1.8-2.98,2.89-3.17h8.66c1.15-4.36,6.82-4.15,7.87.19ZM54.69,14.33c-.74.12-.83,1.42-.09,1.58,1.37.31,1.37-1.79.09-1.58Z"/>
    <path class="cls-1" d="M20.16,12.94c.08.02.16.03.23.05-1.69,1.69-2.95,3.81-3.68,6.1-1.47-.02-2.95-.03-4.42-.05.61-1.3,1.83-2.87,2.93-3.77.98-.8,3.72-2.27,4.93-2.33Z"/>
    <path class="cls-1" d="M24.25,12.94c3.47.58,6.52,2.94,8.05,6.1-1.47.02-2.95.03-4.42.05-.71-2.32-2.07-4.33-3.63-6.14Z"/>
    <path class="cls-1" d="M22.3,13.22c1.59,1.7,3.24,3.58,3.82,5.86-2.56-.02-5.12-.03-7.68-.05.73-2.27,2.22-4.15,3.86-5.82Z"/>
    <path class="cls-1" d="M11.68,20.67h4.47l.14.14c-.42.87-.27,3.38-.37,3.72-.04.13-.94.61-.74,2.42l-.14.14c-1.13-.02-2.27-.03-3.4-.05-.61-2.07-.66-4.32.05-6.38Z"/>
    <path class="cls-1" d="M17.92,20.67h8.66c.37.15.42,2.64.51,3.12l-.14.14h-9.31c-.35-.15.15-2.81.28-3.26Z"/>
    <path class="cls-1" d="M28.44,20.67h4.47c1.17,4.47.74,3.03-4.19,3.26-.14-1.04-.28-2.08-.42-3.12l.14-.14Z"/>
    <path class="cls-1" d="M34.68,20.67h7.35l.14.14v1.4c-2.4.02-4.81.03-7.21.05-.09-.53-.19-1.06-.28-1.58Z"/>
    <path class="cls-1" d="M43.8,20.67c.51.02,1.02.03,1.54.05-.02.51-.03,1.02-.05,1.54-.51-.02-1.02-.03-1.54-.05.02-.51.03-1.02.05-1.54Z"/>
    <path class="cls-1" d="M46.97,20.67c.51.02,1.02.03,1.54.05-.02.51-.03,1.02-.05,1.54-.51-.02-1.02-.03-1.54-.05.02-.51.03-1.02.05-1.54Z"/>
    <path class="cls-1" d="M50.13,20.67c.51.02,1.02.03,1.54.05-.02.51-.03,1.02-.05,1.54-.51-.02-1.02-.03-1.54-.05.02-.51.03-1.02.05-1.54Z"/>
    <path class="cls-1" d="M17.27,25.51h33.89c.17.17.34.34.51.51v12.1h-1.58v-9.87c-.06-.28-.61-.97-.88-1.07-3.72.13-28.56-.5-29.98,0-.31.11-.82.76-.88,1.07v18.25c.22.7.81,1.15,1.54,1.26,2.17.31,17.4-.23,21.41,0,.02.48.03.96.05,1.44.27.6,3.6-.86,1.91,1.72h-5.03c-.02-.51-.03-1.02-.05-1.54-.51-.02-1.02-.03-1.54-.05-.02.51-.03,1.02-.05,1.54-.51.02-1.02.03-1.54.05-.02-.51-.03-1.02-.05-1.54-.51-.02-1.02-.03-1.54-.05-.02.51-.03,1.02-.05,1.54-.51.02-1.02.03-1.54.05-.02-.51-.03-1.02-.05-1.54-.51-.02-1.02-.03-1.54-.05-.03.53-.06,1.06-.09,1.58-1.82-.12-12.37.2-13.03-.09l-.42-.42v-24.39c.17-.17.34-.34.51-.51Z"/>
    <path class="cls-1" d="M12.34,28.67c.95.02,1.89.03,2.84.05-.02,1.19-.03,2.39-.05,3.58-.56-.06-3.12-3.46-2.79-3.63Z"/>
    <path class="cls-1" d="M19.97,28.67h28.49c.02,3.15.03,6.3.05,9.45-.25.03-.5.06-.74.09-.16.26.41,2.47-.61,2.37-.17-.02-1.68-1.02-2.05-.93l-2.28,2.28c.88,2.29,2.01,2.7-1.35,2.56l-.14.14c-.02.48-.03.96-.05,1.44h-21.32v-17.41ZM24.34,35c-.36.26-.71.53-1.07.79-.32.62-.31,4.35.09,4.93.6.87,4.08,1.11,5.4-.56,2.12-2.69-.55-5.9-4.42-5.17ZM32.44,35c-2.29.32-1.19,4.69-1.44,6.28h1.58c.08-1.55-.25-5.6.37-4.47.62,1.14.87,5.73,3.58,4.33,1.5-.77.67-4.61.88-6.1h-1.58v4.56c-.08.05-.16.09-.23.14-.56-.17-.6-5.11-3.17-4.75ZM40.36,35c-.99.18-1.53,1.36-1.35,2.28.34,1.77,6.81,2.62.05,2.47-.02.51-.03,1.02-.05,1.54.86.01,3.04.18,3.68-.05.99-.35,1.62-2.18.28-3.17-1.36-1.01-5.05-1.59.74-1.49.02-.51.03-1.02.05-1.54-1.13-.02-2.27-.03-3.4-.05Z"/>
    <path class="cls-1" d="M24.72,36.58c4.28-.7,4.2,3.99-.05,3.12.02-1.04.03-2.08.05-3.12Z"/>
    <path class="cls-1" d="M49.39,39.75c2.39-.14,1.08.18,1.82,1.44,1.13,1.95,3.29.31,3.49.33l.79.79c-.22.53-.43,1.06-.65,1.58-.08,1.33,1.16,2.35,2.42,2.23.13,2.54-.14,1.14-1.44,1.91-1.92,1.13-.3,3.3-.33,3.49l-.79.79c-.27.03-3.27-2.26-3.82,1.77h-1.49c-.71-4.05-3.64-1.74-3.91-1.77l-.79-.79c-.02-.15,1.16-1.32.37-2.79-.65-1.22-2.03-.87-2.14-1.12-.32-2.59.86-.82,1.95-2.23,1.15-1.49-.2-2.91-.19-3.07l.79-.79c.27-.03,3.2,2.29,3.91-1.77ZM49.57,43.75c-3.47.44-3.48,5.89,0,6.33,4.85.62,4.86-6.95,0-6.33Z"/>
    <path class="cls-1" d="M30.3,52.5h7.82c.02,1.04.03,2.08.05,3.12-2.62.02-5.24.03-7.87.05v-3.17Z"/>
    <path class="cls-1" d="M46.08,58.83h-23.83c.16-.85.45-1.24,1.26-1.58h21.41c.58.11,1.32.94,1.16,1.58Z"/>
  </g>
</svg>