<?xml version="1.0" encoding="UTF-8"?>
<svg id="Layer_1" xmlns="http://www.w3.org/2000/svg" viewBox="0 0 70 70">
  <defs>
    <style>
      .cls-1, .cls-2 {
        fill: #fff;
      }

      .cls-3 {
        fill: #5138cc;
      }

      .cls-2 {
        font-family: DMSans-Bold, 'DM Sans';
        font-size: 8.07px;
        font-variation-settings: 'opsz' 14, 'wght' 700;
        font-weight: 700;
        letter-spacing: .06em;
      }
    </style>
  </defs>
  <g id="Character">
    <rect class="cls-3" x=".39" y=".27" width="70" height="70" rx="12.56" ry="12.56"/>
  </g>
  <path class="cls-1" d="M31.58,9.11c13.27-.72,24.97,8.66,27.17,21.7,5.29,3.35,5.29,5.01,0,8.37-1.83,11.68-12.21,21.08-24.05,21.7-18.57.97-32.2-17.31-25.83-34.87,3.39-9.34,12.73-16.37,22.71-16.9ZM32.58,10.9c-3.22.4-6.12,6.03-6.86,8.87,4.97.02,9.93.04,14.9.06-.79-3.32-3.92-9.44-8.03-8.93ZM27.9,11.46c-1.3.41-2.6.82-3.91,1.23-3.46,1.4-7.11,4.16-9.43,7.09,3.07.02,6.14.04,9.21.06.97-3.02,2.27-6.03,4.52-8.31-.13-.02-.26-.04-.39-.06ZM38.16,11.46c2.11,2.41,3.53,5.31,4.46,8.37,3.07-.02,6.14-.04,9.21-.06-3.48-4.18-8.3-7.24-13.67-8.31ZM13.17,21.61c-.4.4-2.96,5.13-2.57,5.36,3.85-.02,7.7-.04,11.55-.06.35-1.77.71-3.53,1.06-5.3h-10.04ZM25.11,21.61c-.5,1.75-.91,3.54-1.12,5.36,6.16-.02,12.31-.04,18.47-.06-.39-1.77-.78-3.53-1.17-5.3h-16.18ZM43.18,21.61c.37,1.79.74,3.57,1.12,5.36.81.45.2-1.1.95-2.29.57-.91,1.91-1.42,2.96-1.28,1.36.18,6.59,4.84,8.31,5.63-.62-2.67-1.84-5.13-3.29-7.42h-10.04ZM47.42,25.18c-1.41.29-.59,3.38-.89,3.57H9.93c-1.14,4.04-1.07,8.37-.06,12.44,12.22.02,24.44.04,36.65.06.32.21-.7,3.93,1.45,3.57,4.17-3.01,8.33-6.03,12.5-9.04.54-.6.54-.96,0-1.56-4.17-3.01-8.33-6.03-12.5-9.04h-.56ZM56.46,40.91c-1.56.9-7.01,5.53-8.26,5.69-1.05.14-2.39-.37-2.96-1.28-.77-1.22-.12-2.75-.95-2.29-.39,1.77-.78,3.53-1.17,5.3,3.37.02,6.73.04,10.1.06,1.43-2.3,2.78-4.8,3.24-7.48ZM10.6,43.03c-.39.22,2.17,4.96,2.57,5.36,3.37-.02,6.73-.04,10.1-.06-.39-1.77-.78-3.53-1.17-5.3h-11.49ZM23.99,43.03c.2,1.81.62,3.6,1.12,5.36h16.18c.39-1.73.78-3.46,1.17-5.19-.02-.06-.04-.11-.06-.17h-18.41ZM14.62,50.18c3,4.11,8.59,7.55,13.67,8.31-2.24-2.28-3.55-5.29-4.52-8.31h-9.15ZM25.78,50.18c3.55,11.85,11.31,11.75,14.84,0h-14.84ZM42.63,50.18c-.93,3.06-2.36,5.96-4.46,8.37,5.37-1.08,10.19-4.14,13.67-8.31-3.07-.02-6.14-.04-9.21-.06Z"/>
  <text class="cls-2" transform="translate(21.73 37.3)"><tspan x="0" y="0">www</tspan></text>
</svg>