<?xml version="1.0" encoding="UTF-8"?>
<svg id="Layer_1" xmlns="http://www.w3.org/2000/svg" viewBox="0 0 70 70">
  <defs>
    <style>
      .cls-1 {
        fill: #fff;
      }

      .cls-2 {
        fill: none;
        stroke: #fff;
        stroke-linecap: round;
      }

      .cls-3 {
        fill: #5138cc;
      }
    </style>
  </defs>
  <g id="Character">
    <rect class="cls-3" x=".39" y=".27" width="70" height="70" rx="12.56" ry="12.56"/>
  </g>
  <path class="cls-2" d="M15.99,57.76h38.81c1.63,0,2.94-1.31,2.94-2.94V15.71c0-1.63-1.31-2.94-2.94-2.94H15.99c-1.63,0-2.94,1.31-2.94,2.94v39.11c0,1.63,1.31,2.94,2.94,2.94ZM13.04,21.59h44.69"/>
  <circle class="cls-1" cx="17.16" cy="17.48" r="1.18"/>
  <circle class="cls-1" cx="21.28" cy="17.48" r="1.18"/>
  <circle class="cls-1" cx="25.4" cy="17.48" r="1.18"/>
  <g>
    <circle class="cls-1" cx="21.84" cy="43.95" r="1.42"/>
    <circle class="cls-1" cx="26.83" cy="35.05" r="1.42"/>
    <circle class="cls-1" cx="32.52" cy="38.96" r="1.42"/>
    <path class="cls-2" d="M21.84,47.15v-1.51M21.84,30.77v11.53M26.83,47.15v-10.45M26.83,30.76v2.58M32.53,47.14v-6.57M32.53,30.76v6.47"/>
    <circle class="cls-1" cx="37.42" cy="43.95" r="1.42"/>
    <circle class="cls-1" cx="42.41" cy="35.05" r="1.42"/>
    <circle class="cls-1" cx="48.1" cy="38.96" r="1.42"/>
    <path class="cls-2" d="M37.42,47.16v-1.51M37.42,30.77v11.53M42.41,47.15v-10.45M42.41,30.77v2.58M48.11,47.14v-6.57M48.11,30.77v6.47"/>
  </g>
</svg>