<?xml version="1.0" encoding="UTF-8"?>
<svg id="Layer_1" xmlns="http://www.w3.org/2000/svg" viewBox="0 0 70 70">
  <defs>
    <style>
      .cls-1 {
        fill: #fff;
      }

      .cls-2 {
        fill: #5138cc;
      }
    </style>
  </defs>
  <g id="Character">
    <rect class="cls-2" x="0" width="70" height="70" rx="12.56" ry="12.56"/>
  </g>
  <g>
    <path class="cls-1" d="M46.16,13.46c7.99-.83,13.68,7.71,9.57,14.69-3.05,5.18-10.27,6.29-14.79,2.35-6.5-5.66-2.68-16.22,5.23-17.04ZM47,16.07c-2.68.11-5.5,2.18-6.33,4.76-2.51,7.78,7.51,12.73,12.23,6.69,3.71-4.74.05-11.68-5.91-11.45Z"/>
    <path class="cls-2" d="M47,16.07c5.96-.23,9.62,6.71,5.91,11.45-4.72,6.04-14.74,1.09-12.23-6.69.83-2.57,3.64-4.65,6.33-4.76Z"/>
    <path class="cls-1" d="M41.35,37.19h12.02c2.02.25,4.5,2.04,5.49,3.82,1.6,2.89,1.34,8.43-.73,11.08-2.62,3.34-6.33,3.06-10.19,2.98-.44-1.62-.87-3.24-1.31-4.86,2.23-.3,5.13.51,7.06-.89,2.41-1.76,2.23-7.05-.31-5.96-1.35.58.02,3.39-1.57,3.97-.84.31-4.59-.02-5.85.1-1.51-7.05-3.98-5.96-10.19-6.12.79-2.01,3.5-3.89,5.59-4.13Z"/>
    <path class="cls-1" d="M20.13,43.99c1.02-.14,19.58-.14,20.6,0,.54.08,1.3.45,1.62.89.64.89,3.63,14.21,4.5,16.62l-.16.16h-24.46c-1.34-4.97-2.68-9.93-4.03-14.9-.25-1.34.58-2.58,1.93-2.77Z"/>
    <path class="cls-1" d="M21.12,8.34c.1.07.2.14.3.21.21.31.22,2.6-.09,2.83-.18.04-.37.08-.55.12-.75-.13-.46-2.75-.33-2.95.1-.07.2-.14.3-.21h.37Z"/>
    <path class="cls-1" d="M16.53,10.41c.18.04.37.08.55.12.5.5.99.99,1.49,1.49.37.67-.28,1.15-.76.94-.56-.56-1.12-1.12-1.67-1.67-.17-.37.13-.83.4-.88Z"/>
    <path class="cls-1" d="M25.05,10.41c.47-.08.91.41.7.88-.56.56-1.12,1.12-1.67,1.67-.48.2-1.13-.28-.76-.94.58-.54,1.16-1.08,1.74-1.61Z"/>
    <path class="cls-1" d="M28.77,12.18c1.55-.21,2.82,1.09,2.53,2.65-.2,1.07-2.45,2.62-3.11,3.59,1.14.37,1.75,1.69,1.34,2.8,1.52.36,2.19,2.04,1.34,3.35,1.45.5,1.98,2.15,1.1,3.41-1.65,1.65-3.31,3.31-4.96,4.96-1.08.71-2.15,1.42-3.23,2.13-.33.33.4.31.09,1-.1.22-3.16,3.28-3.38,3.38-.14.02-.28.04-.43.06-.22-.03-3.11-2.87-3.2-3.08-.26-.6.22-1.15.82-.88.83.83,1.66,1.66,2.5,2.5l2.28-2.28c-2.87-2.87-5.75-5.75-8.62-8.62l-2.28,2.28c.83.83,1.66,1.66,2.5,2.5.26.57-.29,1.08-.88.82-1-1-2.01-2.01-3.01-3.01-.02-.16-.04-.32-.06-.49.05-.24,3.22-3.4,3.44-3.5.56-.25.8.24.85.24.16,0,1.35-1.45,1.61-2.22.5-1.5.49-6.4.73-7.37.11-.45.67-1,1.13-1.07,1.72-.26,3.06,2.59,3.01,4.05.03.01.06.02.09.03,2.27-2.27,4.55-4.55,6.82-6.82.32-.14.65-.28.97-.43ZM28.89,13.4l-.37.18c-2.58,2.58-5.16,5.16-7.73,7.73-1.29.57-.84-2.22-1.55-3.62-.15-.29-1.05-1.46-1.28-1.04-.17.32-.31,5.75-.67,7.13-.48,1.82-2.03,2.92-2.01,3.11,2.49,2.49,4.97,4.97,7.46,7.46.89-.57,1.79-1.14,2.68-1.71.56-.4,5.36-5.04,5.57-5.39.53-.86-.22-1.84-1.19-1.49-.3.11-.67.91-1.28.49-1-.68,1.36-1.93,1.49-2.65.14-.77-.49-1.36-1.25-1.19-.66.15-1.65,2.21-2.5,1.58-1.02-.76,2.02-2.56,2.16-3.26.17-.83-.64-1.48-1.43-1.13-.77.75-1.54,1.5-2.31,2.25-.63.19-1.06-.39-.76-.94,2.01-2.01,4.02-4.02,6.03-6.03.46-.79-.17-1.67-1.07-1.49Z"/>
    <path class="cls-1" d="M15.31,33.56c.85-.13.97,1.07.3,1.22-.9.21-1-1.11-.3-1.22Z"/>
  </g>
</svg>