<?xml version="1.0" encoding="UTF-8"?>
<svg id="Layer_1" xmlns="http://www.w3.org/2000/svg" viewBox="0 0 70 70">
  <defs>
    <style>
      .cls-1 {
        fill: #fff;
      }

      .cls-1, .cls-2 {
        stroke-width: 0px;
      }

      .cls-2 {
        fill: #5138cc;
      }
    </style>
  </defs>
  <g id="Character">
    <rect class="cls-2" width="70" height="70" rx="12.56" ry="12.56"/>
  </g>
  <g>
    <g>
      <path class="cls-1" d="M18.56,13.12c2.53.2,8.61.39,9.98,2.57.02,6.59.03,13.17.05,19.76-.07.37-.64.86-.95,1.05-2.42,1.47-9.14,1.75-12.03,1.66-2.24-.06-8.94-.5-10.05-2.57-.02-6.59-.03-13.17-.05-19.76.17-1.02,2.95-1.96,3.35-1.83.17.05.36.47,0,.68-.12.07-2.26.55-2.57,1.2-.44.93,3.3,1.73,3.89,1.83,4.05.75,11.52.75,15.46-.39,2.59-.75,3.13-1.6.2-2.49-3.21-.98-8.76-1.11-12.13-.88-1.08.11-2.15.23-3.23.34-.26-.08-.34-.6.15-.73,1.01-.11,2.02-.23,3.03-.34.68-.03,1.35-.07,2.03-.1h2.89ZM6.26,17.18c0,1.79-.02,3.57-.02,5.36.16.65,2.63,1.31,3.25,1.44,4.17.91,12,.92,16.09-.24.47-.13,2.15-.7,2.27-1.2,0-1.79-.02-3.57-.02-5.36-3.42,1.98-11.29,1.99-15.21,1.61-2.01-.19-4.61-.6-6.36-1.61ZM6.26,23.58c0,1.79-.02,3.57-.02,5.36.15.6,2.52,1.26,3.11,1.39,4.15.95,12.31.97,16.38-.24.42-.13,2.02-.72,2.13-1.15,0-1.79-.02-3.57-.02-5.36-2.08,1.16-5.35,1.56-7.73,1.71-3.61.23-10.7.1-13.84-1.71ZM6.26,29.99c0,1.77-.02,3.54-.02,5.31.16.66,2.54,1.3,3.15,1.44,3.73.84,9.9.87,13.69.29.83-.13,4.55-.84,4.77-1.74,0-1.77-.02-3.54-.02-5.31-1.52.84-3.56,1.24-5.28,1.47-4.12.53-12.59.57-16.29-1.47Z"/>
      <path class="cls-1" d="M23.58,19.77c2.2-.31,2.24,3.19-.05,2.84-1.48-.23-1.44-2.63.05-2.84ZM23.67,20.5c-.68.13-.68,1.24-.05,1.37,1.21.25,1.15-1.58.05-1.37Z"/>
      <path class="cls-1" d="M9.1,20.7c.88.16,1.76.33,2.64.49,2.07.26,4.22.32,6.31.29l2.79-.15c.26.07.36.63-.05.73l-2.64.15c-2.12.05-5.41-.09-7.48-.44-1.01-.17-2-.27-1.88-.81.11-.09.21-.18.32-.27Z"/>
      <path class="cls-1" d="M23.58,26.08c2.2-.31,2.24,3.19-.05,2.84-1.48-.23-1.44-2.63.05-2.84ZM23.67,26.81c-.68.13-.68,1.24-.05,1.37,1.21.25,1.15-1.58.05-1.37Z"/>
      <path class="cls-1" d="M9.05,27.01c.95.16,1.89.33,2.84.49,1.66.2,3.51.29,5.18.29,1.26-.05,2.51-.1,3.77-.15.35.09.32.65-.1.73-.52.03-1.04.07-1.57.1-1.59.08-4.22.03-5.82-.1-.69-.05-3.88-.45-4.3-.64-.45-.19-.28-.68,0-.73Z"/>
      <path class="cls-1" d="M23.67,32.39c2.21-.17,2.01,3.3-.2,2.84-1.5-.32-1.34-2.72.2-2.84ZM23.72,33.12c-.82.11-.71,1.46.15,1.42.94-.05.83-1.55-.15-1.42Z"/>
      <path class="cls-1" d="M9.05,33.41c1.24.2,2.48.39,3.72.59,1.52.07,3.03.13,4.55.2.21.06.32.53,0,.68-1.12-.02-2.25-.03-3.37-.05-.78-.05-4.38-.46-4.89-.68-.46-.21-.26-.69,0-.73Z"/>
      <path class="cls-1" d="M20.06,34.05c.56-.01,1.42-.07.83.68-.38,0-2.52.45-2.08-.42.12-.23.98-.26,1.25-.27Z"/>
    </g>
    <g>
      <path class="cls-1" d="M54.47,32.63c2.53.2,8.61.39,9.98,2.57.02,6.59.03,13.17.05,19.76-.07.37-.64.86-.95,1.05-2.42,1.47-9.14,1.75-12.03,1.66-2.24-.06-8.94-.5-10.05-2.57-.02-6.59-.03-13.17-.05-19.76.17-1.02,2.95-1.96,3.35-1.83.17.05.36.47,0,.68-.12.07-2.26.55-2.57,1.2-.44.93,3.3,1.73,3.89,1.83,4.05.75,11.52.75,15.46-.39,2.59-.75,3.13-1.6.2-2.49-3.21-.98-8.76-1.11-12.13-.88-1.08.11-2.15.23-3.23.34-.26-.08-.34-.6.15-.73,1.01-.11,2.02-.23,3.03-.34.68-.03,1.35-.07,2.03-.1h2.89ZM42.17,36.69c0,1.79-.02,3.57-.02,5.36.16.65,2.63,1.31,3.25,1.44,4.17.91,12,.92,16.09-.24.47-.13,2.15-.7,2.27-1.2,0-1.79-.02-3.57-.02-5.36-3.42,1.98-11.29,1.99-15.21,1.61-2.01-.19-4.61-.6-6.36-1.61ZM42.17,43.09c0,1.79-.02,3.57-.02,5.36.15.6,2.52,1.26,3.11,1.39,4.15.95,12.31.97,16.38-.24.42-.13,2.02-.72,2.13-1.15,0-1.79-.02-3.57-.02-5.36-2.08,1.16-5.35,1.56-7.73,1.71-3.61.23-10.7.1-13.84-1.71ZM42.17,49.5c0,1.77-.02,3.54-.02,5.31.16.66,2.54,1.3,3.15,1.44,3.73.84,9.9.87,13.69.29.83-.13,4.55-.84,4.77-1.74,0-1.77-.02-3.54-.02-5.31-1.52.84-3.56,1.24-5.28,1.47-4.12.53-12.59.57-16.29-1.47Z"/>
      <path class="cls-1" d="M59.48,39.28c2.2-.31,2.24,3.19-.05,2.84-1.48-.23-1.44-2.63.05-2.84ZM59.58,40.01c-.68.13-.68,1.24-.05,1.37,1.21.25,1.15-1.58.05-1.37Z"/>
      <path class="cls-1" d="M45,40.21c.88.16,1.76.33,2.64.49,2.07.26,4.22.32,6.31.29l2.79-.15c.26.07.36.63-.05.73-.88.05-1.76.1-2.64.15-2.12.05-5.41-.09-7.48-.44-1.01-.17-2-.27-1.88-.81.11-.09.21-.18.32-.27Z"/>
      <path class="cls-1" d="M59.48,45.59c2.2-.31,2.24,3.19-.05,2.84-1.48-.23-1.44-2.63.05-2.84ZM59.58,46.32c-.68.13-.68,1.24-.05,1.37,1.21.25,1.15-1.58.05-1.37Z"/>
      <path class="cls-1" d="M44.96,46.52c.95.16,1.89.33,2.84.49,1.66.2,3.51.29,5.18.29,1.26-.05,2.51-.1,3.77-.15.35.09.32.65-.1.73-.52.03-1.04.07-1.57.1-1.59.08-4.22.03-5.82-.1-.69-.05-3.88-.45-4.3-.64-.45-.19-.28-.68,0-.73Z"/>
      <path class="cls-1" d="M59.58,51.9c2.21-.17,2.01,3.3-.2,2.84-1.5-.32-1.34-2.72.2-2.84ZM59.63,52.63c-.82.11-.71,1.46.15,1.42.94-.05.83-1.55-.15-1.42Z"/>
      <path class="cls-1" d="M44.96,52.92c1.24.2,2.48.39,3.72.59,1.52.07,3.03.13,4.55.2.21.06.32.53,0,.68-1.12-.02-2.25-.03-3.37-.05-.78-.05-4.38-.46-4.89-.68-.46-.21-.26-.69,0-.73Z"/>
      <path class="cls-1" d="M55.96,53.56c.56-.01,1.42-.07.83.68-.38,0-2.52.45-2.08-.42.12-.23.98-.26,1.25-.27Z"/>
    </g>
    <path class="cls-1" d="M37.6,8.56c1.51-.25.83,2.15,1.01,2.96,8.25.49,14.98,7.71,12.9,16.12-1.64-5.84-6.86-10.04-12.9-10.5-.16.73.36,2.61-.6,2.85-.3.07-.62-.03-.84-.24-1.39-1.66-2.77-3.32-4.16-4.99-.2-.34-.2-.63,0-.97l4.05-4.84c.14-.14.34-.36.54-.39Z"/>
    <path class="cls-1" d="M18.75,42.39c1.64,5.84,6.86,10.04,12.9,10.5.16-.73-.36-2.61.6-2.85.3-.07.62.03.84.24,1.39,1.66,2.77,3.32,4.16,4.99.2.34.2.63,0,.97-1.44,1.71-2.89,3.41-4.33,5.12-1.84.62-1.09-1.86-1.27-2.85-8.25-.49-14.98-7.71-12.9-16.12Z"/>
  </g>
</svg>