<?xml version="1.0" encoding="UTF-8"?>
<svg id="Layer_1" xmlns="http://www.w3.org/2000/svg" viewBox="0 0 70 70">
  <defs>
    <style>
      .cls-1 {
        fill: #fff;
      }

      .cls-2 {
        fill: #5138cc;
      }
    </style>
  </defs>
  <g id="Character">
    <rect class="cls-2" x="0" width="70" height="70" rx="12.56" ry="12.56"/>
  </g>
  <g>
    <path class="cls-1" d="M35.72,23.26s0,0,0,0l-.76.82c.31,0,.7.06,1.01.13,0,0,0,0,.01,0,.22.05.44.12.65.21,0,0,0,0,.01.01.3.13.52.26.78.46.05.05.1.09.16.14.07.07.21.22.27.3.1.13.2.29.27.44l.07.17s0,0,.01.01c.17.42.23.94.21,1.39,0,0,0,0,0,0,0,.21-.02.41-.06.62,0,0,0,0,0,0-.02.15-.05.29-.08.44,0,0,0,0,0,0-.01.05-.02.11-.04.16,0-.07.02-.14.03-.21,0,0,0,0,0,0,.01-.11.03-.3.03-.42,0-.14,0-.29,0-.43-.01,0,0-.02,0-.04-.01-.18-.06-.45-.1-.62,0,0,0,0,0-.01-.06-.24-.14-.47-.25-.68,0,0,0,0-.01-.01-.18-.33-.37-.56-.67-.79-.08-.07-.17-.12-.27-.18,0,0,0,0,0,0-.07-.04-.15-.08-.23-.12,0,0,0,0,0,0-.22-.1-.4-.15-.63-.21,0,0,0,0,0,0-.42-.1-.9-.13-1.33-.12,0,0,.01.02.02.02l.43.38c.06.05.12.11.18.16.04.04.08.07.13.11l-.61-.2s0,0,0,0c-.1-.03-.21-.07-.31-.1,0,0,0,0,0,0-.11-.03-.21-.07-.32-.1h0c-.1-.04-.21-.07-.31-.11,0,0-.01,0-.02-.01-.21-.07-.41-.14-.62-.21h0c-.11-.04-.21-.08-.32-.12.17-.08.34-.15.51-.23h0c.16-.08.32-.15.48-.22.03-.01.06-.03.08-.04.16-.07.31-.14.47-.21,0,0,0,0,0,0,.15-.07.31-.14.46-.21.04-.02.08-.04.12-.06.15-.07.29-.13.44-.2,0,0,0,0,0,0,0,0,0,0,0,0,0,0,0,0,0,0l.13-.06Z"/>
    <path class="cls-1" d="M34.34,30.48s0,0,0,0l.76-.82c-.31,0-.7-.06-1.01-.13,0,0,0,0-.01,0-.22-.05-.44-.12-.65-.21,0,0,0,0-.01-.01-.3-.13-.52-.26-.78-.46-.05-.05-.1-.09-.16-.14-.07-.07-.21-.22-.27-.3-.1-.13-.2-.29-.27-.44l-.07-.17s0,0-.01-.01c-.17-.42-.23-.94-.21-1.39,0,0,0,0,0,0,0-.21.02-.41.06-.62,0,0,0,0,0,0,.02-.15.05-.29.08-.44,0,0,0,0,0,0,.01-.05.02-.11.04-.16,0,.07-.02.14-.03.21,0,0,0,0,0,0-.01.11-.03.3-.03.42,0,.14,0,.29,0,.43.01,0,0,.02,0,.04.01.18.06.45.1.62,0,0,0,0,0,.01.06.24.14.47.25.68,0,0,0,0,.01.01.18.33.37.56.67.79.08.07.17.12.27.18,0,0,0,0,0,0,.07.04.15.08.23.12,0,0,0,0,0,0,.22.1.4.15.63.21,0,0,0,0,0,0,.42.1.9.13,1.33.12,0,0-.01-.02-.02-.02l-.43-.38c-.06-.05-.12-.11-.18-.16-.04-.04-.08-.07-.13-.11l.61.2s0,0,0,0c.1.03.21.07.31.1,0,0,0,0,0,0,.11.03.21.07.32.1h0c.1.04.21.07.31.11,0,0,.01,0,.02.01.21.07.41.14.62.21h0c.11.04.21.08.32.12-.17.08-.34.15-.51.23h0c-.16.08-.32.15-.48.22-.03.01-.06.03-.08.04-.16.07-.31.14-.47.21,0,0,0,0,0,0-.15.07-.31.14-.46.21-.04.02-.08.04-.12.06-.15.07-.29.13-.44.2,0,0,0,0,0,0,0,0,0,0,0,0,0,0,0,0,0,0l-.13.06Z"/>
    <g>
      <path class="cls-1" d="M9.88,12.98h50.21c1.06.18,2.44,1.38,2.65,2.47v32.87c3.21-.76,2.22,5.7.91,7.12-.71.77-1.69,1.05-2.65,1.37-8.97-.5-47.54.66-52.04,0-1.1-.16-2.67-1.13-3.2-2.1-.73-1.34-1.5-7.3,1.46-6.39V15.45c.23-1.21,1.54-2.15,2.65-2.47ZM10.07,14.99l-.82.82c.03,10.86.06,21.73.09,32.59,17.13-.03,34.27-.06,51.4-.09V15.81c-.15-.21-.3-.43-.46-.64-6.48.16-47.78-.81-50.21-.18ZM29.24,50.42c.12.43.24.85.37,1.28h10.77c.12-.43.24-.85.37-1.28h-11.5ZM10.8,51.69c-.87.29-.5,2.06.73,1.64.87-.29.5-2.06-.73-1.64ZM14.63,51.69c-.87.24-.69,2.19.73,1.64.77-.3.44-1.97-.73-1.64ZM18.46,51.69c-.69.15-.9,1.38-.18,1.64,1.63.59,1.57-1.94.18-1.64ZM50.97,51.69c-.77.24-.71,2.2.73,1.64.8-.31.39-2-.73-1.64ZM54.8,51.69c-1.12.23-.57,2.19.73,1.64.65-.27.41-1.88-.73-1.64ZM58.64,51.69c-1.14.2-.69,2.06.55,1.64.72-.25.67-1.86-.55-1.64Z"/>
      <path class="cls-2" d="M10.07,14.99c2.43-.62,43.73.35,50.21.18.15.21.3.43.46.64v32.5c-17.13.03-34.27.06-51.4.09-.03-10.86-.06-21.73-.09-32.59l.82-.82ZM33.07,20.11c-1.45.36-1.32,3.04-1.64,3.1-2.59-3.26-5.85,1.37-5.93,1.73-.38,1.58,1.24,2.9,1.1,3.1-4.36-.16-4.41,7.05,0,6.94.15.21-1.42,1.47-1.1,2.92.94,1,1.89,2.01,2.83,3.01,1.19.54,2.25-.43,3.1-1.1.34.06.17,2.25,1.28,2.92,3.7.32,5.16,1.04,5.84-2.92,2.74,3.42,8.01-1.94,4.84-4.84,4.37.13,4.39-7.08,0-6.94,3.06-3.08-1.55-6.28-2.83-6.12-.67.43-1.34.85-2.01,1.28-.33-.06-.22-2.41-1.28-2.92-1.4-.06-2.8-.12-4.2-.18Z"/>
      <path class="cls-2" d="M29.24,50.42h11.5c-.12.43-.24.85-.37,1.28h-10.77c-.12-.43-.24-.85-.37-1.28Z"/>
      <path class="cls-2" d="M10.8,51.69c1.23-.42,1.6,1.35.73,1.64-1.23.42-1.6-1.35-.73-1.64Z"/>
      <path class="cls-2" d="M14.63,51.69c1.17-.33,1.5,1.35.73,1.64-1.42.55-1.6-1.4-.73-1.64Z"/>
      <path class="cls-2" d="M18.46,51.69c1.39-.3,1.45,2.23-.18,1.64-.72-.26-.51-1.5.18-1.64Z"/>
      <path class="cls-2" d="M50.97,51.69c1.12-.35,1.53,1.33.73,1.64-1.44.55-1.5-1.4-.73-1.64Z"/>
      <path class="cls-2" d="M54.8,51.69c1.14-.23,1.38,1.37.73,1.64-1.31.55-1.85-1.41-.73-1.64Z"/>
      <path class="cls-2" d="M58.64,51.69c1.22-.21,1.27,1.4.55,1.64-1.24.42-1.69-1.44-.55-1.64Z"/>
      <path class="cls-1" d="M23.83,23.75h.76l.31.73c.59.29,1.18.58,1.77.87.77.13.79-.77,1.63.31-.67,1.06-.14,1.16,0,1.53.33.9.17,1.23,1.25,1.53.2,1.34-.5.73-.9,1.32-.12.35-.23.7-.35,1.04-.12.19-.23.37-.35.56-.1.66.81.78-.24,1.56-1.18-.66-1.4.15-2.57.35-.34.21-.46.93-.56.97h-.76c-.12-.05-.17-.74-.56-.97-1.18-.2-1.39-1.01-2.57-.35-.98-.83-.31-.56-.24-1.56-.45-.59-.59-1.44-.7-1.6-.22-.33-.88-.44-.9-.49v-.83c.22-.08.44-.16.66-.24.35-.24.45-.89.59-1.29.12-.34.69-.5,0-1.53.85-1.08.86-.18,1.63-.31.08-.01,1.03-.6,1.53-.63.39-.23.44-.92.56-.97ZM24.04,25.77c-1.32.05-2.81,1.22-3.09,2.54-.79,3.73,3.84,5.58,5.91,2.92,1.75-2.26.03-5.57-2.82-5.46Z"/>
      <path class="cls-1" d="M45.38,23.75h.76c.12.05.17.74.56.97,1.18.2,1.39,1.01,2.57.35.98.83.31.56.24,1.56.45.59.59,1.44.7,1.6.22.33.88.44.9.49v.83c-.22.08-.44.16-.66.24-.31.61-.63,1.23-.94,1.84-.11.72.82.75-.24,1.56-1.18-.66-1.4.15-2.57.35-.39.23-.44.92-.56.97h-.76l-.31-.73c-.17-.23-1.89-.92-2.19-.87-.21.09-.42.19-.63.28-.2-.2-.39-.39-.59-.59.12-.23.23-.46.35-.7.02-.21-.73-1.98-.94-2.12-.22-.08-.44-.16-.66-.24v-.83c.22-.08.44-.16.66-.24.34-.24.45-.89.59-1.29.12-.19.23-.37.35-.56.1-.66-.81-.78.24-1.56,1.18.66,1.4-.15,2.57-.35.34-.21.46-.93.56-.97ZM45.59,25.77c-1.33.05-2.81,1.22-3.09,2.54-.79,3.73,3.84,5.59,5.91,2.92,1.75-2.26.03-5.57-2.82-5.46Z"/>
      <path class="cls-1" d="M24.04,26.88c3.35-.21,3.03,5.17-.35,4.45-2.44-.52-2.14-4.29.35-4.45Z"/>
      <path class="cls-1" d="M45.59,26.88c3.34-.21,3.02,5.17-.35,4.45-2.44-.52-2.13-4.29.35-4.45Z"/>
      <path class="cls-1" d="M18.13,36.33h33.72c.55-.08.42,2.73.38,2.89l-.45.45h-15.16c1.52,2.33,3.04,4.66,4.55,6.99.16.41.06.67-.31.87h-11.75c-.39-.1-.43-.56-.31-.87,1.53-2.32,3.06-4.64,4.59-6.95-5.06-.01-10.13-.02-15.19-.03-.09-.05-.19-.09-.28-.14-.19-.17-.44-3.08.21-3.2ZM18.89,37.45v1.11c10.74-.01,21.48-.02,32.23-.03-.01-.36-.02-.72-.03-1.08H18.89ZM34.75,39.67c-1.47,2.24-2.94,4.47-4.41,6.71,3.09.01,6.19.02,9.28.03-1.45-2.24-2.9-4.47-4.35-6.71-.17-.01-.35-.02-.52-.03Z"/>
      <path class="cls-1" d="M18.89,37.45h32.19c.01.36.02.72.03,1.08-10.74.01-21.48.02-32.23.03v-1.11Z"/>
      <path class="cls-1" d="M34.75,39.67c.17.01.35.02.52.03,1.45,2.24,2.9,4.47,4.35,6.71-3.09-.01-6.19-.02-9.28-.03,1.47-2.24,2.94-4.47,4.41-6.71Z"/>
      <path class="cls-1" d="M29.88,49.54c.43-.27,8.98.21,10.22,0,.01.24.02.49.03.73-3.42.01-6.84.02-10.26.03v-.76Z"/>
    </g>
  </g>
</svg>