<?xml version="1.0" encoding="UTF-8"?>
<svg id="Screen" xmlns="http://www.w3.org/2000/svg" viewBox="0 0 70 70">
  <defs>
    <style>
      .cls-1 {
        fill: #fff;
      }

      .cls-2 {
        stroke: #fff;
        stroke-miterlimit: 10;
      }

      .cls-2, .cls-3 {
        fill: #5138cc;
      }

      .cls-4 {
        fill: #e7e3fd;
      }
    </style>
  </defs>
  <g id="Character">
    <rect class="cls-3" x="1.32" y="1.32" width="67.36" height="67.36" rx="12.09" ry="12.09"/>
    <g>
      <path class="cls-2" d="m55.15,55.21H14.85c-1.91,0-3.47-1.55-3.47-3.47h0v-31.89c0-1.91,1.55-3.47,3.47-3.47h40.29c1.91,0,3.47,1.55,3.47,3.47h0v31.89c0,1.91-1.55,3.47-3.47,3.47h0Z"/>
      <path class="cls-1" d="m27.44,29.48c-.16.14-.25.32-.25.55s.11.41.31.54.68.29,1.42.47,1.32.46,1.72.82c.41.37.61.9.61,1.59s-.26,1.27-.78,1.7-1.22.65-2.08.65c-1.23,0-2.35-.46-3.34-1.37l1.04-1.28c.84.74,1.62,1.1,2.34,1.1.32,0,.57-.07.75-.2s.27-.33.27-.56-.1-.43-.29-.56c-.2-.14-.58-.28-1.15-.42-.91-.21-1.58-.5-1.99-.84-.43-.34-.63-.89-.63-1.63s.27-1.32.8-1.72,1.19-.6,1.99-.6c.52,0,1.05.09,1.56.27.52.18.97.43,1.37.76l-.88,1.28c-.68-.52-1.38-.77-2.1-.77-.29,0-.52.07-.69.2h0Zm7.13,0c-.16.14-.25.32-.25.55s.11.41.31.54.68.29,1.42.47,1.32.46,1.72.82c.41.37.61.9.61,1.59s-.26,1.27-.78,1.7-1.22.65-2.07.65c-1.23,0-2.35-.46-3.34-1.37l1.04-1.28c.84.74,1.62,1.1,2.34,1.1.32,0,.57-.07.75-.2.18-.14.27-.33.27-.56s-.1-.43-.29-.56c-.2-.14-.58-.28-1.15-.42-.91-.21-1.58-.5-1.99-.84s-.63-.89-.63-1.63.26-1.32.8-1.72c.53-.4,1.19-.6,1.99-.6.52,0,1.05.09,1.56.27.52.18.97.43,1.37.76l-.88,1.28c-.68-.52-1.38-.77-2.1-.77-.29,0-.52.07-.69.2h0Zm5.3,6.26v-7.81h1.74v6.25h3.33v1.55h-5.08,0Z"/>
      <path class="cls-1" d="m58.61,23.3v-3.45c0-1.91-1.55-3.47-3.46-3.47H14.85c-1.91,0-3.47,1.55-3.47,3.47v3.45h47.23Z"/>
      <circle class="cls-3" cx="54.02" cy="19.85" r="1.32"/>
      <circle class="cls-3" cx="49.97" cy="19.85" r="1.32"/>
      <g>
        <path class="cls-2" d="m52.48,49.58l2.42,10.85-4.89-2.67v-8.17h2.47Z"/>
        <path class="cls-2" d="m47.54,49.58l-2.42,10.85,4.89-2.67v-8.17h-2.47Z"/>
        <path class="cls-2" d="m55.96,48.52c0,1.92-1.56,3.48-3.48,3.48h0c-1.36,1.37-3.56,1.37-4.93,0h0c-1.92,0-3.48-1.57-3.48-3.49h0c-1.36-1.37-1.36-3.57,0-4.93v-.02c0-1.92,1.56-3.48,3.48-3.48h.02c1.36-1.36,3.56-1.36,4.92,0h0c1.92,0,3.48,1.56,3.48,3.48,1.37,1.37,1.37,3.58,0,4.94h0l-.02.02Z"/>
        <circle class="cls-4" cx="50" cy="46.05" r="3.52"/>
      </g>
      <path class="cls-4" d="m18.92,43.28h13.07v1.54h-13.07v-1.54Zm0,2.98h13.07v1.54h-13.07v-1.54Zm0,2.98h7.7v1.54h-7.7v-1.54Z"/>
    </g>
  </g>
</svg>