<?xml version="1.0" encoding="UTF-8"?>
<svg id="Layer_1" xmlns="http://www.w3.org/2000/svg" viewBox="0 0 70 70">
  <defs>
    <style>
      .cls-1 {
        fill: #fff;
      }

      .cls-2 {
        fill: #5138cc;
      }
    </style>
  </defs>
  <g id="Character">
    <rect class="cls-2" x=".39" y=".27" width="70" height="70" rx="12.56" ry="12.56"/>
  </g>
  <g>
    <path class="cls-1" d="M34.95,12.18c3.93,3.83,8.41,4.68,13.78,4.02,1.91,4.83.77,13.22-1.2,17.94-2.28,5.47-6.8,10-12.3,12.2-5.59-1.55-10.58-6.93-12.78-12.2-1.98-4.75-3.1-13.1-1.2-17.94,5.1.66,10.07-.17,13.69-4.02ZM34.67,14.66c-.46.11-3.07,2.88-8.61,3.35-2.82.24-3.8-.99-4.07,2.06-.77,8.67,2.61,18.57,10.29,23.21,2.62,1.58,2.99,1.62,5.93-.29,5.81-3.76,9.04-10.39,9.71-17.18.11-1.11.44-7.49-.62-7.8-4.01.19-7.04-.36-10.53-2.3-.66-.36-1.31-1.25-2.11-1.05Z"/>
    <path class="cls-2" d="M34.67,14.66c.8-.2,1.45.69,2.11,1.05,3.49,1.93,6.51,2.48,10.53,2.3,1.06.31.73,6.69.62,7.8-.67,6.78-3.9,13.41-9.71,17.18-2.94,1.91-3.31,1.87-5.93.29-7.68-4.64-11.06-14.54-10.29-23.21.27-3.05,1.25-1.82,4.07-2.06,5.54-.47,8.16-3.24,8.61-3.35ZM34.95,16.48c-3.22,2.32-7.24,3.33-11.2,3.16-.79,7.35,1.26,15.51,6.99,20.48.7.61,3.72,2.82,4.5,2.68,8.78-4.45,11.93-13.75,11.01-23.16-4.02.21-7.98-.93-11.29-3.16Z"/>
    <path class="cls-1" d="M34.95,16.48c3.31,2.23,7.27,3.37,11.29,3.16.92,9.41-2.22,18.71-11.01,23.16-.77.14-3.8-2.07-4.5-2.68-5.73-4.97-7.77-13.13-6.99-20.48,3.96.17,7.97-.84,11.2-3.16ZM34.86,20.21c-3.57.09-4.33,3.84-3.97,6.75-.82.3-1.5,1.13-1.63,2.01v5.45c.14.98,1.06,2,2.06,2.15h7.37c1-.15,1.92-1.17,2.06-2.15v-5.45c-.5-3.6-5.93-1.53-8.23-2.3-.27-2.16.17-5.37,3.11-4.74,2.01.43,1.63,2.88,2.3,3.16.87.36,1.54-.47.91-2.25-.55-1.54-2.34-2.67-3.97-2.63Z"/>
    <path class="cls-2" d="M34.86,20.21c1.63-.04,3.42,1.09,3.97,2.63.63,1.78-.04,2.61-.91,2.25-.67-.28-.29-2.73-2.3-3.16-2.94-.63-3.38,2.57-3.11,4.74,2.3.77,7.73-1.31,8.23,2.3v5.45c-.14.98-1.06,2-2.06,2.15h-7.37c-1-.15-1.92-1.17-2.06-2.15v-5.45c.12-.88.8-1.71,1.63-2.01-.36-2.91.4-6.66,3.97-6.75ZM31.41,28.44c-.18.24-.35.48-.53.72v5.07c.14.21.29.41.43.62.32.16,6.78.19,7.18.1.18-.14.35-.29.53-.43.03-1.79.06-3.57.1-5.36-.18-.24-.35-.48-.53-.72h-7.18Z"/>
    <path class="cls-1" d="M17.34,23.56c.46.02.93.03,1.39.05.1,8.06,3.44,16.15,9.9,21.1.99.76,4.81,3.08,5.84,3.25,1.99.33,6.78-3.03,8.33-4.4,5.61-5,8.37-12.51,8.47-19.95.95-.24,2.28.04,2.49,1.15v26.51c-12.49.02-24.98.03-37.47.05-.02-8.85-.03-17.7-.05-26.56.08-.4.69-1.11,1.1-1.2Z"/>
    <path class="cls-1" d="M31.41,28.44h7.18c.18.24.35.48.53.72-.03,1.79-.06,3.57-.1,5.36-.18.14-.35.29-.53.43-.4.1-6.85.06-7.18-.1-.14-.21-.29-.41-.43-.62v-5.07c.18-.24.35-.48.53-.72ZM34.76,30.07c-.94.2-.9,2.83.57,2.39.72-.21.86-2.69-.57-2.39Z"/>
    <path class="cls-2" d="M34.76,30.07c1.44-.3,1.3,2.18.57,2.39-1.47.44-1.51-2.2-.57-2.39Z"/>
    <path class="cls-1" d="M12.18,52.94h15.41c-.1,1.47.61,3.02,2.2,3.25,3.6-.03,7.21-.06,10.81-.1,1.38-.36,1.88-1.88,1.82-3.16h15.41c.1,2.19.46,4.14-2.01,4.88H14.19c-2.47-.74-2.11-2.69-2.01-4.88Z"/>
    <path class="cls-1" d="M29.31,52.94h11.39c.15.61.07,1.47-.67,1.63h-10.05c-.73-.15-.82-1.01-.67-1.63Z"/>
  </g>
</svg>