<?xml version="1.0" encoding="UTF-8"?>
<svg id="Layer_1" xmlns="http://www.w3.org/2000/svg" viewBox="0 0 70 70">
  <defs>
    <style>
      .cls-1 {
        fill: #fff;
      }

      .cls-2 {
        fill: #5138cc;
      }
    </style>
  </defs>
  <g id="Character">
    <rect class="cls-2" x=".39" y=".27" width="70" height="70" rx="12.56" ry="12.56"/>
  </g>
  <g>
    <path class="cls-1" d="M9.88,12.98h50.21c1.06.18,2.44,1.38,2.65,2.47v32.87c3.21-.76,2.22,5.7.91,7.12-.71.77-1.69,1.05-2.65,1.37-8.97-.5-47.54.66-52.04,0-1.1-.16-2.67-1.13-3.2-2.1-.73-1.34-1.5-7.3,1.46-6.39V15.45c.23-1.21,1.54-2.15,2.65-2.47ZM10.07,14.99l-.82.82c.03,10.86.06,21.73.09,32.59,17.13-.03,34.27-.06,51.4-.09V15.81c-.15-.21-.3-.43-.46-.64-6.48.16-47.78-.81-50.21-.18ZM29.24,50.42c.12.43.24.85.37,1.28h10.77c.12-.43.24-.85.37-1.28h-11.5ZM10.8,51.69c-.87.29-.5,2.06.73,1.64.87-.29.5-2.06-.73-1.64ZM14.63,51.69c-.87.24-.69,2.19.73,1.64.77-.3.44-1.97-.73-1.64ZM18.46,51.69c-.69.15-.9,1.38-.18,1.64,1.63.59,1.57-1.94.18-1.64ZM50.97,51.69c-.77.24-.71,2.2.73,1.64.8-.31.39-2-.73-1.64ZM54.8,51.69c-1.12.23-.57,2.19.73,1.64.65-.27.41-1.88-.73-1.64ZM58.64,51.69c-1.14.2-.69,2.06.55,1.64.72-.25.67-1.86-.55-1.64Z"/>
    <path class="cls-2" d="M10.07,14.99c2.43-.62,43.73.35,50.21.18.15.21.3.43.46.64v32.5c-17.13.03-34.27.06-51.4.09-.03-10.86-.06-21.73-.09-32.59l.82-.82ZM33.07,20.11c-1.45.36-1.32,3.04-1.64,3.1-2.59-3.26-5.85,1.37-5.93,1.73-.38,1.58,1.24,2.9,1.1,3.1-4.36-.16-4.41,7.05,0,6.94.15.21-1.42,1.47-1.1,2.92.94,1,1.89,2.01,2.83,3.01,1.19.54,2.25-.43,3.1-1.1.34.06.17,2.25,1.28,2.92,3.7.32,5.16,1.04,5.84-2.92,2.74,3.42,8.01-1.94,4.84-4.84,4.37.13,4.39-7.08,0-6.94,3.06-3.08-1.55-6.28-2.83-6.12-.67.43-1.34.85-2.01,1.28-.33-.06-.22-2.41-1.28-2.92-1.4-.06-2.8-.12-4.2-.18Z"/>
    <path class="cls-2" d="M29.24,50.42h11.5c-.12.43-.24.85-.37,1.28h-10.77c-.12-.43-.24-.85-.37-1.28Z"/>
    <path class="cls-2" d="M10.8,51.69c1.23-.42,1.6,1.35.73,1.64-1.23.42-1.6-1.35-.73-1.64Z"/>
    <path class="cls-2" d="M14.63,51.69c1.17-.33,1.5,1.35.73,1.64-1.42.55-1.6-1.4-.73-1.64Z"/>
    <path class="cls-2" d="M18.46,51.69c1.39-.3,1.45,2.23-.18,1.64-.72-.26-.51-1.5.18-1.64Z"/>
    <path class="cls-2" d="M50.97,51.69c1.12-.35,1.53,1.33.73,1.64-1.44.55-1.5-1.4-.73-1.64Z"/>
    <path class="cls-2" d="M54.8,51.69c1.14-.23,1.38,1.37.73,1.64-1.31.55-1.85-1.41-.73-1.64Z"/>
    <path class="cls-2" d="M58.64,51.69c1.22-.21,1.27,1.4.55,1.64-1.24.42-1.69-1.44-.55-1.64Z"/>
    <path class="cls-1" d="M34.95,19.79c7.19,0,12.67,6.46,11.61,13.55-.5,3.38-2.83,6.71-5.79,8.38-.73.41-2.17,1.22-2.36.37-.83-2.19-1.66-4.38-2.49-6.57-.24-.89,1.47-.69,2.29-2.49,1.61-3.53-2.73-6.7-5.6-4.2-1.53,1.33-1.6,3.8-.15,5.22.8.79,1.71.68,1.57,1.47-.83,2.19-1.66,4.38-2.49,6.57-.25.64-.8.36-1.27.17-2.46-.99-4.85-3.45-5.94-5.84-3.54-7.74,2.14-16.63,10.62-16.64Z"/>
  </g>
</svg>