<?xml version="1.0" encoding="UTF-8"?>
<svg id="Layer_1" xmlns="http://www.w3.org/2000/svg" viewBox="0 0 70 70">
  <defs>
    <style>
      .cls-1 {
        stroke: #fff;
        stroke-miterlimit: 10;
      }

      .cls-1, .cls-2 {
        fill: #5138cc;
      }

      .cls-3 {
        fill: #fff;
      }

      .cls-3, .cls-4, .cls-2 {
        stroke-width: 0px;
      }

      .cls-4 {
        fill: #e7e3fd;
      }
    </style>
  </defs>
  <g id="Character">
    <rect class="cls-2" x=".39" y=".27" width="70" height="70" rx="12.56" ry="12.56"/>
  </g>
  <g>
    <g>
      <path class="cls-1" d="M35.92,37.74l1.99,8.92-4.02-2.19v-6.71h2.03,0Z"/>
      <path class="cls-1" d="M31.86,37.74l-1.99,8.92,4.02-2.19v-6.71h-2.03Z"/>
      <path class="cls-1" d="M38.78,36.87c0,1.58-1.28,2.86-2.86,2.86h0c-1.12,1.13-2.93,1.13-4.05,0h0c-1.58,0-2.86-1.29-2.86-2.87h0c-1.12-1.13-1.12-2.93,0-4.05v-.02c0-1.58,1.28-2.86,2.86-2.86h.02c1.12-1.12,2.93-1.12,4.04,0h0c1.58,0,2.86,1.28,2.86,2.86,1.13,1.13,1.13,2.94,0,4.06h0l-.02.02h0Z"/>
      <circle class="cls-4" cx="33.88" cy="34.84" r="2.89"/>
    </g>
    <path class="cls-3" d="M13.35,50.45l-.62.26c-.51.26-.77.18-1.06-.29s-.62-.95-.88-1.46-.22-.77.22-.99c.48-.17.73-.69.59-1.17-.04-.29-.04-.59,0-.88.09-.34-.08-.69-.4-.84-.7-.4-.73-.62-.29-1.28.23-.44.49-.87.77-1.28.33-.51.55-.59,1.1-.29.38.23.86.2,1.21-.07.26-.19.54-.35.84-.48.37-.1.62-.46.59-.84,0-.66.18-.84.84-.84h1.72c.59,0,.77.18.77.73-.04.44.24.85.66.99.29.1.57.24.81.44.33.28.81.31,1.17.07.59-.29.81-.22,1.13.29l.88,1.46c.26.48.22.73-.26.99-.46.19-.7.7-.55,1.17.04.16.04.32,0,.48-.11.62-.04,1.1.66,1.39s.4.48.22.84-.66,1.13-1.02,1.68-.55.44-.99.18c-.41-.26-.95-.22-1.32.11-.24.17-.49.31-.77.4-.37.14-.62.49-.62.88,0,.66-.18.81-.81.81h-1.68c-.66,0-.84-.15-.84-.77.04-.39-.21-.76-.59-.88-.32-.16-.62-.34-.92-.55l-.55-.26ZM17.08,43.93c-1.39-.02-2.54,1.09-2.56,2.49-.02,1.39,1.09,2.54,2.49,2.56,1.39.02,2.54-1.09,2.56-2.49,0-.01,0-.02,0-.04.02-1.37-1.08-2.51-2.45-2.53-.01,0-.02,0-.04,0Z"/>
    <path class="cls-3" d="M47.87,45.2l-1.57-1.21c2.93-4.35,9.95-4.56,13.1,0l-.68.58-.84.58c-1.2-1.54-3.03-2.44-4.98-2.46-1.98-.02-3.85.92-5.03,2.51Z"/>
    <path class="cls-3" d="M51.11,47.61l-1.52-1.15c1.36-2.15,4.87-2.31,6.55-.05l-1.57,1.21c-1.15-1.05-2.31-1-3.46,0Z"/>
    <path class="cls-3" d="M52.9,48.87c.55.05.97.5,1,1.05-.05.57-.53,1-1.1,1-.54-.05-.95-.51-.94-1.05.03-.56.49-1,1.05-1Z"/>
    <path class="cls-3" d="M35.17,15.43h1.22c.97,0,1.76.77,1.79,1.74.05,1.08.05,2.12,0,3.2-.03.24-.17.45-.38.56-2.01,1.26-4.56,1.28-6.59.05-.28-.15-.44-.44-.42-.75.05-.94,0-1.88,0-2.82s.75-1.98,1.98-1.98h.85c-.43-.42-.82-.88-1.18-1.37-.33-.52-.37-1.18-.09-1.74.37-.92,1.27-1.52,2.26-1.51,1.01.07,1.86.77,2.12,1.74.28,1.04-.14,1.98-1.55,2.87Z"/>
    <path class="cls-3" d="M34.5,59.18c-.32,0-.63,0-.94-.02-.13,0-.23-.12-.22-.25,0-.13.1-.23.25-.22.63.03,1.26.03,1.88,0,.13-.01.24.09.25.22,0,.13-.09.24-.22.25-.33.02-.65.02-.98.02ZM31.67,58.98s-.02,0-.03,0c-.63-.09-1.27-.21-1.89-.36-.13-.03-.2-.16-.17-.28.03-.13.15-.21.28-.17.61.15,1.23.26,1.85.35.13.02.22.14.2.27-.02.12-.12.2-.23.2ZM37.37,58.98c-.11,0-.22-.08-.23-.2-.02-.13.07-.25.2-.27.62-.09,1.24-.21,1.85-.36.13-.03.25.05.28.17.03.13-.05.25-.17.28-.62.15-1.26.27-1.89.36-.01,0-.02,0-.03,0ZM27.97,58.09s-.05,0-.08-.01c-.61-.21-1.21-.45-1.79-.71-.12-.05-.17-.19-.12-.31.05-.12.19-.17.31-.12.57.26,1.16.49,1.75.7.12.04.19.18.15.3-.03.1-.13.16-.22.16ZM41.07,58.08c-.1,0-.19-.06-.22-.16-.04-.12.02-.26.15-.3.59-.2,1.18-.44,1.75-.7.12-.05.26,0,.31.12.05.12,0,.26-.12.31-.58.27-1.19.51-1.79.72-.03,0-.05.01-.08.01ZM24.5,56.52s-.08-.01-.12-.03c-.55-.32-1.1-.67-1.62-1.04-.11-.08-.13-.22-.06-.33.08-.11.22-.13.33-.06.51.36,1.04.71,1.59,1.02.11.06.15.21.09.32-.04.08-.12.12-.2.12ZM44.53,56.49c-.08,0-.16-.04-.2-.12-.07-.11-.03-.26.09-.32.54-.31,1.08-.66,1.58-1.02.11-.08.25-.05.33.05.08.11.05.25-.05.33-.52.37-1.07.72-1.62,1.05-.04.02-.08.03-.12.03ZM47.63,54.28c-.07,0-.13-.03-.18-.08-.09-.1-.07-.25.02-.33.47-.41.93-.85,1.36-1.3.09-.09.24-.1.33,0,.09.09.1.24,0,.33-.44.46-.91.91-1.39,1.33-.04.04-.1.06-.15.06ZM14.55,37.28s-.01,0-.02,0c-.13-.01-.22-.13-.21-.26.06-.64.15-1.28.27-1.91.02-.13.15-.21.27-.19.13.02.21.15.19.27-.12.61-.2,1.24-.26,1.87-.01.12-.11.21-.23.21ZM54.44,37.16c-.12,0-.22-.09-.23-.21-.06-.62-.15-1.25-.27-1.86-.03-.13.06-.25.19-.28.13-.03.25.06.28.19.12.63.22,1.27.28,1.91.01.13-.08.24-.21.26,0,0-.02,0-.02,0ZM15.26,33.54s-.04,0-.07,0c-.12-.04-.2-.17-.16-.29.18-.62.39-1.23.63-1.82.05-.12.19-.18.31-.13.12.05.18.18.13.31-.23.58-.44,1.18-.61,1.78-.03.1-.12.17-.23.17ZM53.71,33.42c-.1,0-.2-.07-.23-.17-.18-.6-.39-1.2-.62-1.78-.05-.12,0-.26.13-.31.12-.05.26,0,.31.13.24.59.46,1.21.64,1.82.04.12-.03.26-.16.29-.02,0-.05,0-.07,0ZM16.66,30.01s-.07,0-.11-.03c-.12-.06-.16-.2-.1-.32.29-.57.62-1.13.96-1.67.07-.11.22-.14.33-.07.11.07.14.22.07.33-.34.53-.65,1.07-.94,1.63-.04.08-.12.13-.21.13ZM52.28,29.89c-.08,0-.17-.05-.21-.13-.29-.55-.61-1.1-.95-1.63-.07-.11-.04-.25.07-.33.11-.07.25-.04.33.07.35.54.68,1.1.97,1.67.06.12.02.26-.1.32-.03.02-.07.03-.11.03ZM18.72,26.8c-.05,0-.1-.02-.15-.05-.1-.08-.12-.23-.04-.33.39-.5.82-.99,1.26-1.46.09-.09.24-.1.33,0,.09.09.1.24,0,.33-.43.45-.84.93-1.23,1.43-.05.06-.12.09-.19.09ZM50.21,26.7c-.07,0-.14-.03-.18-.09-.39-.49-.81-.97-1.24-1.42-.09-.09-.09-.24,0-.33.09-.09.24-.09.33,0,.44.46.87.95,1.27,1.45.08.1.06.25-.04.33-.04.03-.09.05-.15.05ZM21.34,24.04c-.07,0-.13-.03-.18-.08-.09-.1-.08-.25.02-.33.48-.42.99-.82,1.51-1.2.1-.08.25-.05.33.05.08.11.05.25-.05.33-.51.37-1.01.76-1.48,1.17-.04.04-.1.06-.15.06ZM47.57,23.95c-.05,0-.11-.02-.15-.06-.47-.41-.97-.8-1.48-1.16-.11-.08-.13-.22-.06-.33.08-.11.22-.13.33-.06.52.37,1.03.77,1.52,1.19.1.09.11.23.02.33-.05.05-.11.08-.18.08ZM24.43,21.82c-.08,0-.16-.04-.2-.12-.07-.11-.03-.26.08-.32.56-.32,1.13-.62,1.71-.89.12-.05.26,0,.31.12.05.12,0,.26-.12.31-.57.26-1.13.55-1.67.87-.04.02-.08.03-.12.03ZM44.46,21.75s-.08-.01-.12-.03c-.54-.31-1.11-.6-1.68-.86-.12-.05-.17-.19-.12-.31.05-.12.2-.17.31-.12.58.26,1.16.56,1.72.88.11.06.15.21.09.32-.04.08-.12.12-.2.12ZM27.89,20.22c-.1,0-.19-.06-.22-.16-.04-.12.02-.26.14-.3.6-.21,1.23-.4,1.85-.55.13-.03.25.05.28.17.03.13-.05.25-.17.28-.61.15-1.22.33-1.81.53-.03,0-.05.01-.08.01ZM40.99,20.18s-.05,0-.08-.01c-.59-.2-1.2-.38-1.81-.52-.13-.03-.2-.16-.17-.28.03-.13.15-.2.28-.17.62.15,1.24.33,1.85.54.12.04.19.18.15.3-.03.1-.13.16-.22.16Z"/>
  </g>
</svg>