<?xml version="1.0" encoding="UTF-8"?>
<svg id="Layer_1" xmlns="http://www.w3.org/2000/svg" viewBox="0 0 70 70">
  <defs>
    <style>
      .cls-1 {
        fill: #fff;
      }

      .cls-2 {
        fill: #5138cc;
      }
    </style>
  </defs>
  <g id="Character">
    <rect class="cls-2" x=".39" y=".27" width="70" height="70" rx="12.56" ry="12.56"/>
  </g>
  <g>
    <path class="cls-1" d="M60.73,16.09v35.58c-.18.17-.37.34-.55.5h-19.6c-.33.21.83,3.91-2.51,4.32-3.02.37-22-.21-27.04-.1-.82-.37-1.61-1.01-1.76-1.96v-6.13c.29-1.74,2.25-2.12,3.72-2.01v-3.32c-.12-.18-3.01.43-3.62-1.71-.03-2.14-.07-4.29-.1-6.43.16-1.04,1.14-1.92,2.16-2.06,4.21-.02,8.41-.03,12.62-.05v-16.49c.15-.22.3-.44.45-.65,4.85.06,33.64-.41,35.38-.1.41.07.62.27.85.6ZM25.8,17.09l-.15.15v15.48c4.24.02,8.48.03,12.72.05.76.11,1.7.82,1.96,1.56.27.76.31,6.04.1,6.84-.59,2.24-3.5,1.62-3.62,1.81v3.32c.2.31,4.2-1.15,3.72,4.22,6.18.02,12.36.03,18.55.05.02-11.14.03-22.28.05-33.42-11.11-.02-22.22-.03-33.32-.05ZM11.53,34.38c-.22.22-.44.44-.65.65v5.63c.22.22.44.44.65.65h26.74c.15-.12.3-.23.45-.35.31-.46.32-5.78,0-6.23-.18-.12-.37-.23-.55-.35H11.53ZM14.64,42.93v3.42c6.85-.02,13.7-.03,20.56-.05-.02-1.12-.03-2.24-.05-3.37H14.64ZM11.43,47.95c-1.05.26-.35,4.59-.55,6.28.15.18.3.37.45.55,3.74-.02,25.42.35,26.74.1.22-.12.44-.23.65-.35.27-.36.31-5.67.1-6.13-.18-.15-.37-.3-.55-.45-3.59.25-25.54-.32-26.84,0Z"/>
    <path class="cls-1" d="M44.2,21.01c.51-.15,10.14-.15,10.66,0,.12.12.23.23.35.35.24.47.23,10.04.1,10.55-.21.84-1.43.71-1.61.1-.02-2.76-.03-5.53-.05-8.29-3.15,3.15-6.3,6.3-9.45,9.45-.72.33-1.37-.34-1.16-1.06.19-.64,8.47-8.12,9.45-9.45-1.48-.23-7.54.17-8.29-.15-.69-.3-.5-1.36,0-1.51Z"/>
    <path class="cls-1" d="M14.34,37.1h14.37c.68.18.79,1.41-.3,1.61h-13.77c-.85-.17-1.04-1.16-.3-1.61Z"/>
    <path class="cls-1" d="M33.24,37.1c.66-.2,3.27-.17,2.56,1.16-.35.66-3.29.82-3.02-.6.15-.18.3-.37.45-.55Z"/>
    <path class="cls-1" d="M14.54,50.57c.69-.15,13.39-.17,14.07,0,.74.18.81,1.33.1,1.61h-14.27c-.73-.19-.77-1.42.1-1.61Z"/>
    <path class="cls-1" d="M33.44,50.57c.72-.17,2.57-.14,2.46.95-.1.96-3.5,1.11-3.12-.4.22-.18.44-.37.65-.55Z"/>
  </g>
</svg>