<?xml version="1.0" encoding="UTF-8"?>
<svg id="Layer_1" xmlns="http://www.w3.org/2000/svg" viewBox="0 0 70 70">
  <defs>
    <style>
      .cls-1 {
        fill: #fff;
      }

      .cls-2 {
        fill: #5138cc;
      }
    </style>
  </defs>
  <g id="Character">
    <rect class="cls-2" x=".39" y=".27" width="70" height="70" rx="12.56" ry="12.56"/>
  </g>
  <g>
    <path class="cls-1" d="M36.37,9.96c5.41-.51,10.93,2.68,12.61,7.98,1.08,3.41-.1,5.42,1,5.55.39.05,3.19-.66,5.7,1.48,3,2.56,3.15,7.38.21,10.04,0-1.21-.44-2.61-1.79-2.85h-16.04c-.02-1.85-.04-3.7-.05-5.55-.15-.47-1.09-.53-1.27.32v12.9c.24,1.16,1.94.47,2.11.74-1.28,1.64-2.57,3.28-3.85,4.92-1.25-1.64-2.5-3.28-3.75-4.92.17-.27,1.87.42,2.11-.74v-12.9c-.18-.85-1.11-.78-1.27-.32-.02,1.85-.04,3.7-.05,5.55H16c-1.21.19-1.52,1.4-1.69,1.37-5.81-6.9.07-17.02,8.97-15.65.84.13,2.57.98,2.95.74.3-.19.82-3.39,3.8-5.92,1.67-1.42,4.15-2.55,6.33-2.75Z"/>
    <path class="cls-1" d="M16,33.43c5.36.02,10.73.04,16.09.05-.02.55-.04,1.09-.05,1.64h-14.46c-.09.09-.18.18-.26.26-.52.86.21,17.6-.16,20.04-.55-.02-1.09-.04-1.64-.05v-21.36c.16-.19.32-.39.47-.58Z"/>
    <path class="cls-1" d="M38.05,33.43h16.04c.12.12.25.25.37.37.02,7.21.04,14.42.05,21.62-.55-.02-1.09-.04-1.64-.05-.28-2.42.41-19.13-.11-19.98l-.26-.26h-14.46v-1.69Z"/>
    <path class="cls-1" d="M18.53,36.28h13.4l.16.16v2.75c-.58.24-2.85-.36-2.85.63,0,.38,3.99,5.47,4.54,6.13.72.87,1.09,1.64,1.79.95,1.76-2.36,3.52-4.72,5.28-7.08,0-.99-2.27-.4-2.85-.63v-2.75l.16-.16h13.4c.02,6.36.04,12.72.05,19.09-4.17.02-8.34.04-12.51.05-.73.3-.79,1.21-1.27,1.8h-5.7c-.57-.48-.57-1.63-1.37-1.8h-12.24v-19.14ZM23.81,44c-.55.11-1.02.82-1.11,1.32v5.5c.1.7.75,1.74,1.42,1.96,1.15.38,18.38-.07,21.42.11.69-.11,1.55-.86,1.74-1.53.04-2.01.07-4.02.11-6.03-.32-2.06-3.73-1.35-4.12-.95-.79.82-.23,2.99-.47,4.07h-15.51c-.02-1.07-.04-2.15-.05-3.22-.24-1.42-2.31-1.44-3.43-1.22Z"/>
    <path class="cls-1" d="M23.81,44c1.11-.23,3.19-.2,3.43,1.22.02,1.07.04,2.15.05,3.22h15.51c.25-1.08-.32-3.26.47-4.07.38-.39,3.8-1.11,4.12.95-.04,2.01-.07,4.02-.11,6.03-.19.67-1.05,1.42-1.74,1.53-3.05-.18-20.27.27-21.42-.11-.67-.22-1.33-1.25-1.42-1.96v-5.5c.08-.51.56-1.21,1.11-1.32ZM24.12,45.17l-.16.16v5.71c.26.23.53.46.79.69h20.58c.26-.23.53-.46.79-.69v-5.71c-3.6-1.06-1.08,1.82-2.37,4.28h-17.41c-.67-.22-.25-3.69-.37-4.39-.62-.02-1.23-.04-1.85-.05Z"/>
    <path class="cls-2" d="M24.12,45.17c.62.02,1.23.04,1.85.05.12.7-.3,4.17.37,4.39h17.41c1.29-2.46-1.23-5.34,2.37-4.28v5.71c-.26.23-.53.46-.79.69h-20.58c-.26-.23-.53-.46-.79-.69v-5.71l.16-.16Z"/>
    <path class="cls-1" d="M12.09,56.69h18.26c.35.56.7,1.13,1.06,1.69h7.07c.35-.56.7-1.13,1.06-1.69h18.36c-.09,1.08.02,3.02-1.37,3.28-5.82-.31-40.84.4-42.95,0-1.42-.27-1.36-2.14-1.48-3.28Z"/>
  </g>
</svg>