<?xml version="1.0" encoding="UTF-8"?>
<svg id="Layer_1" xmlns="http://www.w3.org/2000/svg" viewBox="0 0 70 70">
  <defs>
    <style>
      .cls-1 {
        fill: #fff;
      }

      .cls-2 {
        fill: #5138cc;
      }
    </style>
  </defs>
  <g id="Character">
    <rect class="cls-2" x=".39" y=".27" width="70" height="70" rx="12.56" ry="12.56"/>
  </g>
  <g>
    <path class="cls-1" d="M17.89,11.25h34.5c1.66.35,2.66,1.32,3.07,2.97v34.8c-1.07,4.27-5.59,2.5-9.1,2.87-1.27,2.35-2.92,4.29-4.93,6.03-2.34,2.03-4.86,4.19-8.15,3.12-2.25-.74-8.37-6.44-9.35-9.15-3.51-.36-8.03,1.4-9.1-2.87.3-5.58-.39-32.32,0-34.9.21-1.39,1.67-2.67,3.07-2.87ZM18.7,15.67c-.66.2-.43,1.43.91,1.11.91-.22.43-1.5-.91-1.11ZM22.62,15.67c-.71.21-.36,1.42.91,1.11.91-.23.42-1.5-.91-1.11ZM26.64,15.67c-.91.24-.36,1.4.8,1.11.84-.21.54-1.47-.8-1.11ZM42.44,15.67c-.65.17-.58.97.1,1.11h8.95c.58-.15.58-.96.1-1.11h-9.15ZM15.88,21.21c.16,4.64-.38,25.27-.05,27.51.49,3.3,5.32,1.89,7.64,2.11-1.82-3.21-2.66-11.79-.91-14.79.99-1.69,3.04-2.97,4.98-3.17h15.19c1.92.2,4,1.49,4.98,3.17,1.75,3,.91,11.57-.91,14.79,2.32-.22,7.16,1.19,7.64-2.11.33-2.23-.21-22.88-.05-27.51H15.88ZM27.15,33.98c-1.6.22-3.53,1.85-4.07,3.37-.56,1.58-.35,7.33,0,9.15.52,2.76,2.21,6.11,4.02,8.25.95,1.12,5.29,4.9,6.49,5.28,2.79.89,4.93-1,6.94-2.72,2.75-2.35,5.11-5.4,6.19-8.9.72-2.36,1.23-8.57.6-10.76-.47-1.65-2.46-3.44-4.17-3.67h-15.99Z"/>
    <path class="cls-2" d="M18.7,15.67c1.33-.39,1.81.88.91,1.11-1.33.32-1.57-.91-.91-1.11Z"/>
    <path class="cls-2" d="M22.62,15.67c1.33-.39,1.82.88.91,1.11-1.26.32-1.61-.9-.91-1.11Z"/>
    <path class="cls-2" d="M26.64,15.67c1.34-.36,1.65.9.8,1.11-1.17.29-1.72-.86-.8-1.11Z"/>
    <path class="cls-2" d="M42.44,15.67h9.15c.48.14.48.95-.1,1.11h-8.95c-.68-.14-.75-.93-.1-1.11Z"/>
    <path class="cls-2" d="M15.88,21.21h38.52c-.16,4.63.38,25.28.05,27.51-.49,3.31-5.32,1.89-7.64,2.11,1.82-3.21,2.66-11.78.91-14.79-.98-1.67-3.06-2.97-4.98-3.17h-15.19c-1.93.2-3.99,1.48-4.98,3.17-1.76,3-.91,11.58.91,14.79-2.32-.22-7.16,1.19-7.64-2.11-.33-2.24.21-22.87.05-27.51ZM29.06,24.12c-.77.15-1.4,1.21-1.36,1.96.12,2.17,2.82,1.27,3.02,2.31.34,1.8-3.17.23-3.02,1.61.07.67,2.6.63,3.37.05.57-.43.79-1.27.65-1.96-.34-1.77-2.72-1-2.92-1.91-.39-1.77,2.66-.64,2.92-1.31.38-1.02-2.05-.88-2.67-.75ZM34.49,24.12c-.55.11-1.28.92-1.36,1.46-.4,2.86,3.17,1.56,3.02,3.12-.12,1.23-2.48.24-2.92.91-.8,1.22,3.59,1.43,3.92-.6.5-3.09-3.48-1.5-2.92-3.42.29-.99,3.39.19,2.92-1.21-.11-.34-2.26-.33-2.67-.25ZM38.81,24.12c-.08.08-.17.17-.25.25v5.73c.17.58,3.56.37,3.77.25.45-.26.22-.9-.2-1.01-.85-.02-1.71-.03-2.56-.05-.21-2.09.58-5.65-.75-5.18Z"/>
    <path class="cls-1" d="M29.06,24.12c.61-.12,3.05-.27,2.67.75-.25.67-3.31-.46-2.92,1.31.2.92,2.58.14,2.92,1.91.13.69-.09,1.53-.65,1.96-.77.58-3.3.62-3.37-.05-.15-1.38,3.36.2,3.02-1.61-.2-1.04-2.9-.14-3.02-2.31-.04-.75.59-1.81,1.36-1.96Z"/>
    <path class="cls-1" d="M34.49,24.12c.41-.08,2.55-.09,2.67.25.47,1.39-2.63.22-2.92,1.21-.57,1.92,3.42.33,2.92,3.42-.33,2.04-4.72,1.82-3.92.6.44-.67,2.79.32,2.92-.91.15-1.55-3.42-.25-3.02-3.12.08-.53.81-1.35,1.36-1.46Z"/>
    <path class="cls-1" d="M38.81,24.12c1.34-.47.54,3.09.75,5.18.85.02,1.71.03,2.56.05.42.11.65.74.2,1.01-.21.12-3.6.33-3.77-.25v-5.73c.08-.08.17-.17.25-.25Z"/>
    <path class="cls-1" d="M27.15,33.98h15.99c1.71.23,3.7,2.02,4.17,3.67.63,2.2.12,8.4-.6,10.76-1.07,3.5-3.44,6.56-6.19,8.9-2.01,1.72-4.15,3.61-6.94,2.72-1.19-.38-5.53-4.16-6.49-5.28-1.81-2.14-3.5-5.49-4.02-8.25-.35-1.83-.56-7.57,0-9.15.54-1.51,2.48-3.15,4.07-3.37ZM27.65,36.9c-.88.15-1.83,1.19-1.96,2.06v4.83c.24,3.42,1.72,6.93,4.02,9.45.59.65,4.53,3.98,5.08,4.07.93.16,1.88-.77,2.62-1.31,3.75-2.76,6.54-6.58,7.09-11.32.12-1.03.22-5.36,0-6.14-.19-.68-1.19-1.54-1.86-1.66h-14.99Z"/>
    <path class="cls-2" d="M27.65,36.9h14.99c.67.12,1.67.98,1.86,1.66.22.78.12,5.11,0,6.14-.55,4.74-3.35,8.55-7.09,11.32-.74.54-1.69,1.47-2.62,1.31-.55-.1-4.49-3.42-5.08-4.07-2.3-2.53-3.78-6.04-4.02-9.45v-4.83c.14-.87,1.08-1.91,1.96-2.06ZM34.49,39.11c-2.64.23-5.28,2.73-5.58,5.38-.74,6.57,7.52,9.64,11.27,4.63,3.24-4.34-.31-10.48-5.68-10.01Z"/>
    <path class="cls-1" d="M34.49,39.11c5.37-.48,8.92,5.67,5.68,10.01-3.74,5.01-12,1.94-11.27-4.63.3-2.66,2.94-5.15,5.58-5.38ZM34.19,40.22c-1.7.23-3.63,2.03-4.07,3.67-1.23,4.55,3.57,8.34,7.69,5.98,4.66-2.66,2.51-10.5-3.62-9.66Z"/>
    <path class="cls-2" d="M34.19,40.22c6.13-.85,8.28,7,3.62,9.66-4.13,2.35-8.92-1.44-7.69-5.98.44-1.64,2.37-3.44,4.07-3.67ZM37.2,43.13l-3.22,3.22c-.42-.36-1.07-1.41-1.56-.65-.33.51,1.11,2.15,1.96,1.76,1.16-1.16,2.31-2.31,3.47-3.47.23-.51-.16-.99-.65-.85Z"/>
    <path class="cls-1" d="M37.2,43.13c.49-.13.89.34.65.85-1.16,1.16-2.31,2.31-3.47,3.47-.85.39-2.29-1.25-1.96-1.76.49-.76,1.14.29,1.56.65l3.22-3.22Z"/>
  </g>
</svg>