<?xml version="1.0" encoding="UTF-8"?>
<svg id="Layer_1" xmlns="http://www.w3.org/2000/svg" viewBox="0 0 70 70">
  <defs>
    <style>
      .cls-1 {
        fill: #fff;
      }

      .cls-2 {
        fill: #5138cc;
      }
    </style>
  </defs>
  <g id="Character">
    <rect class="cls-2" x="0" width="70" height="70" rx="12.56" ry="12.56"/>
  </g>
  <g>
    <path class="cls-1" d="M62.37,38.15c-.03,9.88-8.07,17.87-17.96,17.84-9.88-.03-17.87-8.07-17.84-17.96.03-9.88,8.07-17.87,17.96-17.84.21,0,.42,0,.63.01,9.63.37,17.24,8.3,17.21,17.94ZM44.52,24.38c-7.58-.05-13.76,6.05-13.81,13.63-.05,7.58,6.05,13.76,13.63,13.81,7.58.05,13.76-6.05,13.81-13.63,0-.02,0-.03,0-.05.03-7.56-6.07-13.72-13.63-13.77Z"/>
    <path class="cls-1" d="M27.54,28.56h.69c-2.8,5.19-3.4,10.55-1.38,16.06,2.02,5.51,6.01,9.22,11.56,11.33H13.41c-.6.07-1.18-.27-1.42-.83-.41-.76-.13-1.7.63-2.11.19-.1.39-.16.61-.18h11.52c.94.05,1.74-.66,1.79-1.6,0,0,0,0,0,0,.05-.97-.68-1.81-1.65-1.88h-9.18c-.91-.09-1.57-.9-1.48-1.81.07-.71.59-1.3,1.29-1.45h6.88c.84-.03,1.49-.72,1.47-1.56-.03-.84-.72-1.49-1.56-1.47h-12.07c-1.04.06-2-.55-2.39-1.51-.59-1.32.01-2.87,1.33-3.45.29-.13.6-.2.92-.22h9.04c1.03.04,1.93-.68,2.11-1.7.23-1.15-.51-2.27-1.65-2.52h-2.98c-1.27,0-2.29-1.03-2.29-2.29,0-.02,0-.03,0-.05,0-1.27,1.02-2.32,2.29-2.34.18.02.37.02.55,0h9.5c.41,0,.78,0,.87-.41Z"/>
    <path class="cls-1" d="M39.88,16.72v-2.57c.41-.14,7.53-.18,9.09-.09.15.88.19,1.77.09,2.66h-9.18Z"/>
    <path class="cls-1" d="M30.25,22.27l-2.06,2.06-1.38-1.47,2.06-1.97,1.38,1.38Z"/>
    <path class="cls-1" d="M60.81,24.38l-.32-.28-1.74-1.7c.5-.5.96-1.01,1.51-1.51l.96.96,1.06.96-.78.78-.69.78Z"/>
    <path class="cls-1" d="M43.88,17.73h1.15c.07.5.07,1.01,0,1.51h-1.06c-.08-.5-.11-1.01-.09-1.51Z"/>
    <path class="cls-1" d="M59.34,24.25l-1.01,1.01-.6-.5,1.06-1.01.55.5Z"/>
    <path class="cls-1" d="M30.71,25.3l-1.01-1.01.5-.55.96,1.06-.46.5Z"/>
    <path class="cls-1" d="M57.23,38.1c0,7.05-5.71,12.76-12.76,12.76-7.05,0-12.76-5.71-12.76-12.76s5.71-12.76,12.76-12.76c.02,0,.03,0,.05,0,7.02,0,12.71,5.69,12.71,12.71,0,.02,0,.03,0,.05ZM46.81,36.09l.37-.46,4.08-4.86.28-.37c.1-.2.07-.44-.09-.6-.18-.13-.42-.13-.6,0l-.41.5c-1.38,1.61-2.75,3.21-4.08,4.86l-.23.32c-1.79-.87-3.44-.23-4.18,1.01-.84,1.23-.6,2.9.55,3.85,1.12,1.01,2.81,1.03,3.95.05,1.01-.87,1.61-2.57.37-4.31ZM44.93,47.7h0v-.96c0-.32-.14-.46-.37-.5-.28-.03-.52.18-.55.45,0,0,0,0,0,0v1.97c.05.32.28.5.5.46s.41-.18.41-.5v-.92ZM44.93,28.56h0v-1.01c.03-.23-.14-.43-.36-.46-.02,0-.03,0-.05,0-.28-.05-.46.14-.5.46v1.88c-.03.25.16.48.41.5.03,0,.06,0,.1,0,.28,0,.41-.14.41-.5v-.87ZM34.93,37.65h-.92c-.32,0-.55.18-.55.46.05.26.29.44.55.41h1.88c.23.03.43-.13.46-.36,0-.03,0-.07,0-.1,0-.23-.18-.41-.5-.41h-.92ZM54.06,37.65h-.92c-.37,0-.55.18-.55.46s.18.41.5.41h1.93c.23.03.43-.13.46-.36,0-.03,0-.07,0-.1,0-.23-.18-.41-.5-.41h-.92Z"/>
    <path class="cls-1" d="M46.54,38.06c.05,1.14-.83,2.1-1.97,2.16-.02,0-.03,0-.05,0-1.16-.02-2.09-.96-2.11-2.11-.03-1.14.88-2.08,2.02-2.11.02,0,.03,0,.05,0,1.11-.03,2.04.86,2.06,1.97,0,.03,0,.06,0,.09Z"/>
  </g>
</svg>