<?xml version="1.0" encoding="UTF-8"?>
<svg id="Layer_1" xmlns="http://www.w3.org/2000/svg" viewBox="0 0 70 70">
  <defs>
    <style>
      .cls-1 {
        fill: #fff;
      }

      .cls-2 {
        fill: #5138cc;
      }
    </style>
  </defs>
  <g id="Character">
    <rect class="cls-2" width="70" height="70" rx="12.56" ry="12.56"/>
  </g>
  <g>
    <path class="cls-1" d="M54.39,15.93h-3.15v2.15c.95.21,4.29-.69,4.22,1.08,0,0,0,22.63,0,22.63H14.53v-22.63c-.08-1.78,3.45-.86,4.4-1.08v-2.15c-2.48-.11-6.61-.31-6.55,3.23,0,0,0,28.01,0,28.01-.23,8.01,12.64,4.77,17.24,5.39v4.31h-2.15v2.15h16.16v-2.15h-3.23v-4.31c4.63-.66,17.44,2.65,17.24-5.39,0,0,0-28.01,0-28.01,0-1.79-1.45-3.23-3.23-3.23ZM38.23,56.87h-6.46v-4.31h6.46v4.31ZM52.24,50.41H17.76c-3.49.06-3.38-3.99-3.23-6.46h40.94c.14,2.47.26,6.52-3.23,6.46ZM31.77,46.1h6.46v2.15h-6.46v-2.15ZM35,39.63c18.32-.08,18.32-27.93,0-28.01-18.32.08-18.32,27.93,0,28.01ZM23.86,29.62c1.63.93,3.4,1.57,5.24,1.91.34,1.84.98,3.61,1.91,5.24-3.33-1.2-5.95-3.82-7.14-7.14ZM28.74,22.08c-.27,2.39-.27,4.81,0,7.2-7.34-1.85-7.37-5.47,0-7.25v.05ZM35,13.77c1.34,0,2.77,2.15,3.6,5.59-2.39-.27-4.81-.27-7.2,0,.83-3.44,2.26-5.59,3.6-5.59ZM35,21.32c1.35,0,2.69.09,4.03.28.37,2.67.37,5.39,0,8.06-2.67.37-5.39.37-8.06,0-.37-2.67-.37-5.39,0-8.06,1.34-.19,2.68-.28,4.03-.28ZM46.85,25.63c0,1.34-2.15,2.77-5.59,3.6.27-2.39.27-4.81,0-7.2,3.44.83,5.59,2.26,5.59,3.6ZM35,37.48c-1.34,0-2.77-2.15-3.6-5.59,2.39.27,4.81.27,7.2,0-.83,3.44-2.26,5.59-3.6,5.59ZM39,36.77c.93-1.63,1.57-3.4,1.91-5.24,1.84-.34,3.61-.98,5.24-1.91-1.2,3.33-3.82,5.95-7.14,7.14ZM46.14,21.68c-1.63-.93-3.4-1.57-5.24-1.91-.34-1.84-.98-3.61-1.91-5.24,3.31,1.19,6,3.81,7.14,7.14ZM31,14.49c-.93,1.63-1.57,3.4-1.91,5.24-1.84.34-3.61.98-5.24,1.91,1.2-3.33,3.82-5.95,7.14-7.14Z"/>
    <circle class="cls-2" cx="35" cy="25.63" r="14.65"/>
    <rect x="34.89" y="14.82" width=".5" height=".65"/>
    <rect x="34.89" y="36.34" width=".5" height=".65"/>
    <rect x="40.94" y="16.91" width=".65" height=".51" transform="translate(3.29 40.72) rotate(-54.4)"/>
    <rect x="28.42" y="34.41" width=".65" height=".51" transform="translate(-16.17 37.86) rotate(-54.4)"/>
    <rect x="44.89" y="22.09" width=".65" height=".51" transform="translate(-4.69 15.07) rotate(-18)"/>
    <rect x="24.42" y="28.77" width=".65" height=".51" transform="translate(-7.76 9.07) rotate(-18)"/>
    <rect x="44.98" y="28.61" width=".5" height=".65" transform="translate(3.91 63.23) rotate(-72.3)"/>
    <rect x="24.52" y="22.04" width=".5" height=".65" transform="translate(-4.07 39.16) rotate(-72.3)"/>
    <rect x="41.04" y="34.07" width=".5" height=".65" transform="translate(-12.24 29.71) rotate(-34.8)"/>
    <rect class="cls-1" x="34.89" y="34.08" width=".5" height="1.36"/>
    <rect class="cls-1" x="34.89" y="31.86" width=".5" height="1.36"/>
    <rect class="cls-1" x="34.89" y="18.55" width=".5" height="1.36"/>
    <rect class="cls-1" x="34.89" y="16.34" width=".5" height="1.36"/>
    <rect class="cls-1" x="38.11" y="20.3" width="1.36" height=".51" transform="translate(-.5 40.13) rotate(-54.4)"/>
    <rect class="cls-1" x="39.44" y="18.47" width="1.36" height=".51" transform="translate(1.54 40.44) rotate(-54.4)"/>
    <rect class="cls-1" x="29.07" y="32.88" width="1.36" height=".51" transform="translate(-14.51 38.03) rotate(-54.4)"/>
    <rect class="cls-1" x="30.47" y="31.07" width="1.37" height=".51" transform="translate(-12.45 38.42) rotate(-54.4)"/>
    <rect class="cls-1" x="42.75" y="22.71" width="1.37" height=".51" transform="translate(-4.97 14.55) rotate(-18)"/>
    <rect class="cls-1" x="40.66" y="23.4" width="1.37" height=".51" transform="translate(-5.29 13.93) rotate(-18)"/>
    <rect class="cls-1" x="27.96" y="27.5" width="1.37" height=".51" transform="translate(-7.17 10.21) rotate(-18)"/>
    <rect class="cls-1" x="25.87" y="28.19" width="1.37" height=".51" transform="translate(-7.49 9.6) rotate(-18)"/>
    <rect class="cls-1" x="41.08" y="27" width=".5" height="1.36" transform="translate(2.4 58.64) rotate(-72.3)"/>
    <rect class="cls-1" x="28.39" y="22.94" width=".5" height="1.36" transform="translate(-2.58 43.72) rotate(-72.3)"/>
    <rect class="cls-1" x="26.27" y="22.28" width=".5" height="1.36" transform="translate(-3.41 41.24) rotate(-72.3)"/>
    <rect class="cls-1" x="43.19" y="27.69" width=".5" height="1.36" transform="translate(3.2 61.13) rotate(-72.3)"/>
    <rect class="cls-1" x="31.09" y="19.42" width=".5" height="1.36" transform="translate(-5.87 21.48) rotate(-34.8)"/>
    <rect class="cls-1" x="38.67" y="30.34" width=".5" height="1.36" transform="translate(-10.74 27.76) rotate(-34.8)"/>
    <rect class="cls-1" x="39.93" y="32.21" width=".5" height="1.36" transform="translate(-11.59 28.82) rotate(-34.8)"/>
    <rect class="cls-1" x="29.81" y="17.63" width=".5" height="1.36" transform="translate(-5.07 20.43) rotate(-34.8)"/>
    <rect x="28.69" y="16.41" width=".5" height=".65" transform="translate(-4.37 19.51) rotate(-34.8)"/>
    <path class="cls-1" d="M40.21,26.4l-.72-.22-.11-.13v-.7c0-.06.05-.11.11-.11h0l.72-.24c.2-.09.26-.2.2-.39l-.37-1.09c-.07-.24-.17-.3-.41-.24l-.67.24c-.11,0-.15,0-.2-.09-.1-.19-.22-.35-.37-.5-.05-.05-.05-.14,0-.2l.41-.59c.13-.2.13-.35-.07-.46l-.87-.63c-.26-.2-.39-.15-.57.09l-.44.61-.7-.22c-.13-.04-.17-.09-.17-.2.02-.22.02-.45,0-.67,0-.22-.07-.35-.3-.35h-1.09c-.19-.03-.36.11-.39.3v.88l-.81.26-.13-.15-.39-.54c-.09-.13-.26-.17-.39-.08,0,0-.02.01-.02.02l-.98.7c-.2.15-.2.3-.04.5l.48.63-.44.61c-.05.06-.12.09-.2.09l-.7-.24c-.14-.07-.3,0-.37.13,0,.02-.02.04-.02.07l-.35,1.09c-.09.24-.04.35.2.44l.65.24c.13,0,.13.02.13.15v.65c0,.09,0,.13-.09.13l-.7.22c-.16.03-.27.19-.24.35v.02h0c.13.39.28.78.39,1.13.04.16.2.26.36.22,0,0,.02,0,.02,0h.04l.65-.2s.11,0,.15,0l.48.65-.52.67c-.11.13-.09.32.04.43h0s.04,0,.04,0l.89.7c.24.15.35.11.54-.13.16-.19.31-.39.44-.61l.74.22c.11.04.11.09.11.17v.74c-.01.15.09.28.24.3h1.24c.24,0,.3-.13.3-.35.02-.23.02-.46,0-.7,0-.09.04-.13.13-.17l.61-.2c.07-.02.14,0,.2.04.13.22.28.43.44.63.07.13.22.19.35.12,0,0,.02,0,.02-.01l.07-.04.94-.7c.2-.11.2-.26.07-.46l-.41-.59v-.15l.37-.54c.04-.09.09-.09.2-.09l.63.24c.28.09.39,0,.46-.24l.37-1.09c.07-.2,0-.3-.2-.39h.01ZM35.11,27.72c-1.12,0-2.02-.9-2.02-2.02s.9-2.02,2.02-2.02,2.02.9,2.02,2.02-.9,2.02-2.02,2.02h0Z"/>
    <path class="cls-1" d="M35.11,24.96c-.39.03-.71.34-.74.74,0,.41.33.74.74.74h0c.38.03.71-.27.74-.65h0v-.09c0-.41-.33-.74-.74-.74h0Z"/>
    <circle class="cls-1" cx="35.11" cy="14.82" r="1.09"/>
    <circle class="cls-1" cx="41.34" cy="16.88" r="1.09"/>
    <circle class="cls-1" cx="45.6" cy="22.21" r="1.09"/>
    <circle class="cls-1" cx="45.64" cy="29" r="1.09"/>
    <circle class="cls-1" cx="35.11" cy="36.97" r="1.09"/>
    <circle class="cls-1" cx="28.51" cy="34.95" r="1.09"/>
    <circle class="cls-1" cx="24.4" cy="29.2" r="1.09"/>
    <circle class="cls-1" cx="24.36" cy="22.21" r="1.09"/>
    <circle class="cls-1" cx="28.75" cy="16.45" r="1.09"/>
    <circle class="cls-1" cx="41.51" cy="34.67" r="1.09"/>
  </g>
</svg>