<?xml version="1.0" encoding="UTF-8"?>
<svg id="Layer_1" data-name="Layer 1" xmlns="http://www.w3.org/2000/svg" viewBox="0 0 1280 270.99">
  <defs>
    <style>
      .cls-1 {
        fill: #10b981;
      }
    </style>
  </defs>
  <path d="m973.3,83.36c14.03-2.48,13.78,19.58,0,17.09-8.39-1.51-8.66-15.56,0-17.09Z"/>
  <g>
    <g>
      <path class="cls-1" d="m237.3,217.16s.09-.09.12-.13c-23.2,27.53-57.96,45.03-96.8,45.03-19.23,0-37.45-4.29-53.78-11.95.3.07.45.11.45.11l91.66-90.31,58.33,57.26Z"/>
      <path class="cls-1" d="m267.18,135.5c0,14.66-2.49,28.74-7.08,41.83l-81.67-81.4L49.99,223.83c-22.24-22.8-35.93-53.97-35.93-88.33,0-69.9,56.66-126.56,126.56-126.56s126.55,56.66,126.55,126.56Z"/>
    </g>
    <path d="m651.44,77.52c.21.07.42.13.63.21.07,24.52.14,49.05.21,73.57,12.94-12.51,25.88-25.01,38.83-37.52,8.97.07,17.95.13,26.92.21-14.05,13.76-28.11,27.51-42.16,41.27,14.82,16.19,29.63,32.38,44.46,48.56h-30.06c-12.52-13.62-25.05-27.23-37.57-40.86-.21.07-.42.13-.63.21v40.43h-23.38v-120.89c7.58-1.74,15.17-3.47,22.75-5.21v.02Z"/>
    <path d="m317.9,82.53c16.91.88,52.18-1.34,65.96.41,40.43,5.15,48.26,54.69,11.48,71.49,8.84,16.47,17.67,32.93,26.51,49.4h-27.97c-7.93-15.43-15.87-30.85-23.79-46.26h-27.13c-.07,15.35-.14,30.71-.21,46.06h-25.05c.07-40.36.14-80.73.21-121.09h-.01Zm25.05,21.67v32.51c9.02-.7,32.95,1.28,39.66-.83,12.24-3.85,14.63-21.1,4.17-28.35-8.49-5.87-32.75-2.37-43.83-3.34h0Z"/>
    <path d="m866.84,82.53c4.38.07,8.77.13,13.15.21v109.21c24.01.07,48.01.13,72.01.21v11.67c-28.46-.07-56.91-.13-85.37-.21.07-40.36.14-80.73.21-121.09h0Z"/>
    <path d="m466.51,112.12c36.14-3.5,64.69,29.59,51.14,64.4-13.7,35.19-66.25,39.3-86.41,7.09-18.17-29.02,1.36-68.2,35.27-71.49Zm3.34,20.42c-10.38.91-20.29,10.96-21.92,21.05-4.4,27.3,27.13,42.02,43.41,22.93,14.78-17.32,2.34-46.07-21.49-43.98Z"/>
    <path d="m573.37,112.12c15.78-1.54,32.34,4.11,43.2,15.63.19,1.21-12.57,13.59-14.4,15.63-11.16-13.72-34.08-15.34-43.2,1.46-14.05,25.85,15.54,56.11,43.2,30.22,4.66,4.79,9.33,9.58,13.98,14.38-29.63,32.5-85.9,13.3-84.33-32.51.77-22.43,18.98-42.61,41.54-44.81h.01Z"/>
    <path d="m719.91,113.79h25.46l.63.63c7.31,20.22,14.61,40.43,21.92,60.65,8.56-20.36,17.11-40.71,25.68-61.07h25.46c-15.17,35.29-30.33,70.58-45.5,105.87-10.53,18.46-25.42,24.11-46.34,20.01v-20.01c14.58,2.15,22.1-1.29,27.55-15-11.27-28.9-22.55-57.81-33.82-86.71-.35-1.46-.7-2.92-1.04-4.38h0Z"/>
  </g>
  <path d="m1039.67,115.46c19.64-1.65,36.01,10.19,37.78,30.22-.07,19.38-.14,38.76-.21,58.15-4.25-.07-8.49-.13-12.74-.21v-57.1c-2.87-24.11-37.21-26.08-48.01-6.67v63.78h-12.94v-86.29c4.25-.07,8.49-.13,12.74-.21.14,3.34.28,6.67.42,10.01,5.72-6.46,14.31-10.94,22.96-11.67h-.01Z"/>
  <path d="m969.12,117.12c4.25.07,8.49.13,12.74.21-.07,28.83-.14,57.66-.21,86.49-4.25-.07-8.49-.13-12.74-.21.07-28.83.14-57.66.21-86.49Z"/>
  <path d="m1097.7,117.12c4.25.07,8.49.13,12.74.21v56.69c2.76,24.18,36.04,26.84,47.59,7.92.14-21.54.28-43.07.42-64.61h12.94c-.07,28.83-.14,57.66-.21,86.49h-12.52c-.14-3.19-.28-6.39-.42-9.58-18.71,20.46-56.28,12.91-60.32-16.47-1.59-11.52.18-45.83-.21-60.65h-.02Z"/>
  <path d="m1185.37,117.12h14.61c8.21,10.84,16.42,21.68,24.63,32.51,8.35-10.84,16.7-21.68,25.05-32.51,4.8.07,9.6.13,14.4.21-10.57,14.03-21.15,28.07-31.73,42.1,11.2,14.8,22.4,29.59,33.6,44.39h-14.61c-8.9-11.67-17.82-23.34-26.72-35.01-8.9,11.67-17.82,23.34-26.72,35.01-4.8-.07-9.6-.13-14.4-.21,11.27-14.72,22.55-29.46,33.82-44.18-10.72-13.89-21.43-27.79-32.15-41.68.07-.21.14-.41.21-.63h.01Z"/>
</svg>