<?xml version="1.0" encoding="UTF-8"?>
<svg id="Layer_1" data-name="Layer 1" xmlns="http://www.w3.org/2000/svg" viewBox="0 0 1280 329.69">
  <defs>
    <style>
      .cls-1 {
        fill: #ffb515;
      }

      .cls-2 {
        fill: #ff6309;
      }

      .cls-3 {
        fill: #c90016;
      }
    </style>
  </defs>
  <circle class="cls-2" cx="71.71" cy="164.86" r="30.72"/>
  <circle class="cls-1" cx="292.03" cy="292.03" r="30.73"/>
  <circle class="cls-3" cx="292" cy="37.65" r="30.72"/>
  <path class="cls-2" d="m218.59,88.84c38.26,0,70,28.41,75.26,65.24h52.64c-2.39-28.94-14.39-55.91-34.45-77.19-12.85,6.54-28.65,6.67-42.07-1.08-13.43-7.76-21.22-21.51-21.97-35.92-9.64-2.25-19.51-3.38-29.42-3.37-19.21,0-37.77,4.19-54.65,12.14l26.36,45.65c8.99-3.62,18.6-5.48,28.3-5.47h0Z"/>
  <path class="cls-1" d="m142.56,164.86c0-24.22,11.38-45.83,29.08-59.76l-26.35-45.64c-6.24,4.36-12.09,9.26-17.47,14.65-15.25,15.25-26.18,33.66-32.2,53.75,12.12,7.85,20.15,21.48,20.15,37.01s-8.03,29.15-20.15,37c6.02,20.09,16.95,38.5,32.2,53.75,5.38,5.38,11.22,10.28,17.46,14.64l26.35-45.65c-17.69-13.93-29.07-35.54-29.07-59.75h0Z"/>
  <path class="cls-3" d="m293.85,175.62c-5.24,36.84-36.99,65.27-75.26,65.27-10,0-19.56-1.95-28.31-5.47l-26.36,45.65c16.88,7.95,35.45,12.15,54.66,12.15,10.04,0,19.9-1.16,29.44-3.38.73-14.43,8.53-28.21,21.97-35.97,13.42-7.75,29.23-7.63,42.08-1.07,20.04-21.28,32.03-48.25,34.41-77.18h-52.63Z"/>
  <path d="m538.01,164.36v-59.14c0-8.96-7.17-16.13-16.13-16.13s-16.13,7.17-16.13,16.13v59.14c0,21.5-8.96,28.67-25.09,28.67s-25.09-7.17-25.09-28.67v-59.14c0-8.96-7.17-16.13-16.13-16.13s-16.13,7.17-16.13,16.13v59.14c0,43.01,25.09,60.93,57.34,60.93s57.35-17.92,57.35-60.93m150.54,0c0-60.93-25.08-75.27-57.34-75.27-16.13,0-25.09,7.17-25.09,7.17v-41.22c0-21.5-32.26-21.5-32.26,0v109.31c0,43.01,25.09,60.93,57.35,60.93s57.34-17.92,57.34-60.93m-82.43-3.57c0-37.63,17.92-41.22,25.09-41.22,10.75,0,25.08,8.96,25.08,41.22,0,21.5-8.96,35.84-25.08,35.84s-25.09-14.34-25.09-35.84m632.9,3.58v-59.14c0-8.96-7.17-16.13-16.13-16.13s-16.13,7.17-16.13,16.13v59.14c0,21.5-8.96,28.67-25.09,28.67s-25.09-7.17-25.09-28.67v-59.14c.04-8.87-7.13-16.09-16-16.13h-.13c-8.87-.04-16.09,7.12-16.13,15.99v59.28c0,43.01,25.08,60.93,57.34,60.93s57.34-17.92,57.34-60.93m-407.28,0v-59.14c0-8.96-7.17-16.13-16.13-16.13s-16.13,7.17-16.13,16.13v59.14c0,21.5-8.96,28.67-25.09,28.67s-25.09-7.17-25.09-28.67v-59.14c0-8.96-7.17-16.13-16.13-16.13s-16.13,7.17-16.13,16.13v59.14c0,43.01,25.09,60.93,57.34,60.93s57.35-17.92,57.35-60.93m189.29-75.26c-19.71,0-19.71,28.67,0,28.67h5.38v62.36c0,34.05,8.42,45.16,37.45,45.16,13.98,0,34.4-2.51,34.4-16.85,0-8.96-8.24-11.29-10.57-11.29-5.02,0-10.22,2.15-15.95,2.15-10.04,0-13.08-5.01-13.08-21.86v-59.67h14.34c19.71,0,19.71-28.67,0-28.67h-14.34v-34.05c0-21.5-32.25-21.5-32.25,0v34.05h-5.37m-155.93,60.92v59.14c-.04,8.87,7.12,16.09,16,16.13h.13c8.87.04,16.09-7.13,16.13-16v-59.27c0-21.5,8.96-28.67,25.09-28.67s25.09,7.17,25.09,28.67v59.14c0,8.96,7.17,16.13,16.13,16.13s16.13-7.17,16.13-16.13v-59.14c0-43.01-25.09-60.93-57.34-60.93s-57.34,17.92-57.34,60.93"/>
</svg>