<?xml version="1.0" encoding="UTF-8"?>
<svg id="Layer_1" xmlns="http://www.w3.org/2000/svg" viewBox="0 0 70 70">
  <defs>
    <style>
      .cls-1 {
        fill: #fff;
      }

      .cls-2 {
        fill: #5138cc;
      }
    </style>
  </defs>
  <g id="Character">
    <rect class="cls-2" width="70" height="70" rx="12.56" ry="12.56"/>
  </g>
  <g>
    <path class="cls-1" d="M15.34,24.87h30.22l4.93-.08h2.45c.66,0,1.53-.12,2.07.29.32.21.55.54.62.91,0,.29.04.54.04.83,0,7.34-.04,14.64-.04,21.97,0,.54-.04,1.12-.08,1.66.05.41-.25.78-.66.83-.02,0-.03,0-.05,0l-1,.08-4.27.08h-31.3l-3.15-.12c-.43-.02-.77-.39-.75-.83,0,0,0,0,0,0-.03-.33-.05-.66-.04-1-.04-6.67-.08-13.39-.08-20.07,0-1.08.04-2.16.08-3.28,0-.3.12-.58.33-.79.19-.21.41-.38.66-.5ZM52.99,48.84v-21.27H17v21.27h35.99Z"/>
    <path class="cls-1" d="M59.29,54.72c-.06.55-.26,1.08-.58,1.53-.43.62-1.06,1.07-1.78,1.29-.38.09-.77.12-1.16.08h-25.21c-2.94,0-5.85.04-8.79,0-1.78,0-3.52.04-5.31,0l-2.61-.08c-.7-.04-1.37-.08-1.95-.58-.91-.72-1.37-1.88-1.2-3.03,0-.57.46-1.04,1.03-1.04.04,0,.09,0,.13,0l3.52-.08h12.44c.17,0,.31.12.33.29.04.31.21.6.46.79h12.35c.41-.02.76-.31.87-.7.08-.33.08-.37.46-.37h15.71c.21-.02.42.01.62.08.55.43.81,1.14.66,1.82Z"/>
    <path class="cls-1" d="M49.59,46.39h-7.3c.25-2.69-.54-4.98-2.61-6.76-1.31-1.14-2.99-1.76-4.73-1.74-2.15-.04-4.2.91-5.56,2.57-1.41,1.61-2.06,3.76-1.78,5.89h-7.34v-1.99c.02-.27.22-.5.5-.54l1.53-.21h.37c.58.04.87-.29,1-.83s.21-1,.29-1.49c0-.14-.05-.28-.17-.37-.44-.37-.89-.71-1.37-1.04l-.54-.46c-.12-.12-.17-.29-.12-.46.25-.66.6-1.27,1.04-1.82.21-.29.37-.33.7-.17.66.24,1.31.52,1.95.83.2.11.44.05.58-.12l1.41-1.29c.14-.14.18-.36.08-.54-.29-.62-.58-1.24-.83-1.91s-.21-.62.25-.95,1.04-.58,1.58-.87c.18-.14.44-.1.58.08h0l.66.87.83,1.12c.08.12.23.17.37.12l1.87-.46c.22-.09.37-.3.37-.54.08-.5.12-1.04.17-1.53l.12-.75c.02-.24.22-.42.46-.41h2.11c.19,0,.35.14.37.33.04.7.17,1.45.21,2.2,0,.27.16.52.41.62l1.74.5c.27.06.55-.05.7-.29l.83-1.16c.17-.22.35-.42.54-.62.09-.16.29-.22.45-.13,0,0,0,0,0,0l1.87,1.04c.2.14.27.4.17.62-.29.58-.54,1.2-.83,1.78-.22.39-.14.88.21,1.16l1.12,1.04c.17.15.42.18.62.08l1.78-.79c.58-.25.66-.25,1,.29s.58,1.04.87,1.58c.13.19.07.45-.12.57,0,0,0,0,0,0l-1.2.87-.54.41c-.28.19-.4.55-.29.87.12.46.29.95.41,1.45.06.29.32.5.62.5l2.2.25c.21.04.37.12.37.33v2.24Z"/>
    <path class="cls-1" d="M40.84,46.39h-2.94c.16-1.03-.24-2.07-1.04-2.74-1.25-1.06-3.12-.91-4.19.33-.56.67-.81,1.54-.7,2.4h-2.94v-.83c0-.11.09-.21.21-.21l.62-.08h.12c.2.02.39-.12.41-.33,0-.01,0-.03,0-.04l.12-.58c-.01-.06-.04-.12-.08-.17l-.54-.41-.21-.17c-.08-.04-.08-.12-.08-.21.11-.25.25-.48.41-.7.12-.12.17-.17.29-.08l.79.33c.08.04.18.03.25-.04l.58-.5c.04-.08.04-.17,0-.25-.09-.26-.2-.51-.33-.75-.08-.21-.08-.25.12-.37l.62-.37c.08-.04.18-.03.25.04l.25.33.33.46c.04.08.08.08.17.08l.75-.21c.08-.05.13-.12.17-.21.04-.21.04-.41.08-.62,0-.1,0-.2.04-.29,0-.12.04-.17.17-.17h.87c.07,0,.12.06.12.12h0c.05.3.08.61.08.91.02.1.08.19.17.25l.7.21c.11,0,.22-.04.29-.12l.33-.5.21-.25c.08-.08.12-.08.21-.04l.75.41c.08.04.12.12.04.25-.07.24-.17.48-.29.7-.11.14-.09.34.04.46l.5.46c.06.05.15.05.21,0l.75-.29q.25-.12.41.08l.33.66c.04.08.03.18-.04.25l-.5.33-.21.17c-.11.07-.16.21-.12.33.04.21.12.41.17.62s.12.17.25.21l.91.08c.07,0,.12.06.12.12h0s0,.91,0,.91Z"/>
    <path class="cls-1" d="M40.28,17.17v2.73c-.12.96-.95,1.96-1.8,2.15-.39.09-6.56.07-6.94-.02-.81-.19-1.6-1.16-1.74-2.06-.17-1.06-.13-3.27.55-4.12.89-1.11,1.89.26.9,1.11-.25.5-.27,2.72.03,3.19.09.15.44.41.59.44.32.06,6.14.08,6.45-.03,1.01-.34.53-2.33.65-3.21-.16-.62-.8-.84-.45-1.58.1-.21.44-.36.64-.35.49.04,1.07,1.23,1.12,1.74Z"/>
    <path class="cls-1" d="M37.45,15.95v.29c-.04.2-2.01,2.19-2.2,2.23h-.41c-.17-.04-2.16-2.04-2.19-2.2-.11-.53.32-.95.84-.84.26.06.61.63.88.76v-3.24c.14-.84,1.21-.68,1.32-.12v3.37c.1.21.65-1.04,1.41-.71.12.16.23.32.35.47Z"/>
  </g>
</svg>