<?xml version="1.0" encoding="UTF-8"?>
<svg id="Layer_1" xmlns="http://www.w3.org/2000/svg" viewBox="0 0 70 70">
  <defs>
    <style>
      .cls-1 {
        fill: #fff;
      }

      .cls-2 {
        fill: #5138cc;
      }
    </style>
  </defs>
  <g id="Character">
    <rect class="cls-2" x=".39" y=".27" width="70" height="70" rx="12.56" ry="12.56"/>
  </g>
  <g>
    <path class="cls-1" d="M43.8,38.76c1.95-.03,3.82,1.39,4.32,3.27.04.17.24,1.17.1,1.23h-4.38l-.06-.06c0-1.48.01-2.96.02-4.44Z"/>
    <path class="cls-1" d="M42.59,39.86c.06,0,.12.01.18.02,0,1.49.01,2.99.02,4.48,1.48,0,2.96.01,4.44.02.03,3.64-4.2,5.76-7.14,3.58-2.33-1.72-2.39-5.25-.16-7.08.64-.52,1.83-1.03,2.66-1.02Z"/>
  </g>
  <path class="cls-1" d="M32.43,26.56h-16.25c-.31,0-.61-.05-.9-.16-.57-.25-.94-.8-.95-1.42-.11-1.42,0-2.85,0-4.22s-.21-2.64.11-3.85c.25-.67.92-1.1,1.64-1.06h32.72c1.48,0,1.74,1.69,1.74,2.85s-.11,3.43-.11,5.17v.9c.01.44-.14.88-.42,1.21-.32.39-.81.61-1.32.58h-16.25ZM19.03,23.45c1.22.06,2.26-.88,2.32-2.11,0-.05,0-.11,0-.16-.19-1.27-1.38-2.14-2.64-1.95-1,.15-1.79.94-1.95,1.95-.03,1.22.94,2.24,2.16,2.27.04,0,.07,0,.11,0ZM26,18.96c-1.32-.16-2.27,1.06-2.32,2.16-.03,1.28.99,2.35,2.27,2.37,0,0,0,0,0,0,1.25.03,2.29-.96,2.32-2.22,0,0,0,0,0,0,.06-1.22-.88-2.26-2.11-2.32-.05,0-.11,0-.16,0ZM41.35,21.28h0c0-.69,0-1.32-.05-1.95s-.11-.53-.37-.53-.42.16-.42.47c0,1.27,0,2.59.05,3.85,0,.32.11.42.37.47s.37-.16.42-.53v-1.79ZM46.89,21.12h0v2.01c.05.32.16.47.42.47s.37-.16.37-.47,0-.16,0-.26v-3.32c.03-.16.03-.32,0-.47-.08-.13-.22-.21-.37-.21-.11-.05-.26.11-.37.21s-.05.21-.05.32v1.74ZM37.39,21.18v1.74c0,.11-.05.26,0,.37s.21.26.37.26.32,0,.32-.21c.07-.17.1-.35.11-.53v-3.22c0-.2-.04-.39-.11-.58-.05-.11-.21-.21-.32-.16-.14,0-.26.09-.32.21-.04.12-.06.24-.05.37v1.74ZM43.83,18.8c-.12,1.58-.1,3.17.05,4.75.53,0,.58,0,.58-.47v-3.91c0-.11-.05-.21-.05-.32l-.58-.05Z"/>
  <path class="cls-1" d="M50.38,35.21l-2.69-1.69c0-.79.05-1.64,0-2.53s0-.42-.32-.74c-.29.03-.5.29-.48.58,0,0,0,0,0,0v2.37l-2.37-.53c0-.11-.05-.32-.05-.47v-1.48c0-.26-.11-.42-.32-.42-.17-.03-.34.08-.37.25,0,.04,0,.08,0,.12v1.95l-2.37.11c-.05-.14-.07-.28-.05-.42-.05-.49-.05-.99,0-1.48.01-.27-.16-.51-.42-.58-.29.1-.46.39-.42.69.05.63,0,1.27,0,1.95l-2.27.84c0-.21-.05-.37-.05-.53v-2.11c0-.2-.04-.39-.11-.58-.1-.13-.26-.21-.42-.21-.11.08-.21.19-.26.32-.03.19-.03.39,0,.58v3.06c-1.57.96-2.89,2.28-3.85,3.85h-17.26c-.31,0-.61-.05-.9-.16-1.42-.47-1.06-2.64-1.11-3.8s0-3.22.11-4.86.47-1.95,1.69-1.95h27.23c1.79,0,3.59.05,5.44,0,.87-.06,1.63.6,1.69,1.47,0,.07,0,.15,0,.22v5.91c0,.11-.05.16-.05.26ZM26,35c1.27.19,2.45-.68,2.64-1.95.19-1.27-.68-2.45-1.95-2.64-.23-.04-.47-.04-.7,0-1.27-.19-2.45.68-2.64,1.95-.19,1.27.68,2.45,1.95,2.64.23.04.47.04.7,0ZM21.35,32.79c.09-1.22-.83-2.28-2.05-2.37-.07,0-.15,0-.22,0-1.25-.03-2.29.96-2.32,2.22,0,0,0,0,0,0,0,1.29,1.03,2.35,2.32,2.37,1.23,0,2.24-.98,2.27-2.22Z"/>
  <path class="cls-1" d="M33.17,48.67l-.11-.16-.42-1.11c-.24-.66-.4-1.36-.47-2.06-.14-.73-.18-1.48-.11-2.22.05-.73.16-1.45.32-2.16.19-.68.42-1.35.69-2.01v-.11h-14.41c-.74-.05-1.53.11-2.32,0h-.26c-.93.03-1.69.76-1.74,1.69-.09,1.67-.07,3.35.05,5.01v2.27c-.03.68.34,1.33.95,1.64h.53c1.16.21,13.67.05,14.09,0h3.75c-.16-.16-.42-.53-.53-.79ZM25.94,41.92c1.29,0,2.35,1.03,2.37,2.32-.03,1.24-1.03,2.24-2.27,2.27-1.27,0-2.32-1-2.37-2.27.05-1.24,1.03-2.24,2.27-2.32ZM19.14,41.92c1.26.22,2.11,1.42,1.89,2.69-.17,1-.98,1.78-2,1.91-1.24-.03-2.24-1.03-2.27-2.27.03-1.29,1.08-2.32,2.37-2.32Z"/>
  <path class="cls-2" d="M49.02,52.29l2.21-2.11,1.15.67c1.98,1.23,3.89,2.57,5.71,4.03.4.34.75.72,1.06,1.15.42.55.42,1.32,0,1.87-.51.88-1.33,1.53-2.3,1.82-.83.34-1.76.28-2.54-.14-.21-.13-.41-.29-.58-.48-1.53-1.86-2.93-3.84-4.17-5.9l-.53-.91Z"/>
  <path d="M41.35,21.28v1.79c-.05.37-.16.53-.42.53s-.37-.16-.37-.47c-.05-1.27-.05-2.59-.05-3.85,0-.32.16-.47.42-.47s.37.16.37.53.05,1.27.05,1.95Z"/>
  <path d="M46.89,21.12v-1.74c0-.11,0-.26.05-.32s.26-.26.37-.21c.15,0,.29.08.37.21.03.16.03.32,0,.47v3.32c0,.11.05.16,0,.26s-.11.42-.37.47-.37-.16-.42-.47c0,0,0-2.01,0-2.01Z"/>
  <path d="M37.39,21.18v-1.74c0-.13,0-.25.05-.37.06-.12.18-.2.32-.21.11-.05.26.05.32.16.07.19.1.38.11.58v3.22c0,.18-.04.36-.11.53,0,.21-.16.26-.32.21s-.26-.16-.37-.26,0-.26,0-.37v-1.74Z"/>
  <path class="cls-1" d="M56.11,48.55c-.31-.05-.36-.36-.26-.67.42-1.39.61-2.85.56-4.3,0-.14,0-.28.05-.41.05-.1.15-.26.26-.26.12,0,.24.05.31.15.1.12.15.26.15.41.02,1.49-.17,2.97-.56,4.41-.05.26-.15.67-.51.67Z"/>
  <path class="cls-1" d="M55.75,39.79c.05-.61.61-.56.77.1l.31,1.13c.05.1.05.2.1.26s-.05.61-.31.67-.36-.15-.46-.46l-.31-1.23c0-.15-.1-.36-.1-.46Z"/>
  <path class="cls-2" d="M37.76,18.7h0c.32,0,.58.26.58.58v3.89c0,.32-.26.58-.58.58h0c-.32,0-.58-.26-.58-.58v-3.89c0-.32.26-.58.58-.58Z"/>
  <path class="cls-2" d="M40.93,18.7h0c.32,0,.58.26.58.58v3.89c0,.32-.26.58-.58.58h0c-.32,0-.58-.26-.58-.58v-3.89c0-.32.26-.58.58-.58Z"/>
  <path class="cls-2" d="M44.2,18.7h0c.32,0,.58.26.58.58v3.89c0,.32-.26.58-.58.58h0c-.32,0-.58-.26-.58-.58v-3.89c0-.32.26-.58.58-.58Z"/>
  <path class="cls-2" d="M47.32,18.7h0c.32,0,.58.26.58.58v3.89c0,.32-.26.58-.58.58h0c-.32,0-.58-.26-.58-.58v-3.89c0-.32.26-.58.58-.58Z"/>
  <path class="cls-2" d="M37.76,30.2h0c.32,0,.58.26.58.58v3.89c0,.32-.26.58-.58.58h0c-.32,0-.58-.26-.58-.58v-3.89c0-.32.26-.58.58-.58Z"/>
  <path class="cls-2" d="M40.93,30.2h0c.32,0,.58.26.58.58v3.89c0,.32-.26.58-.58.58h0c-.32,0-.58-.26-.58-.58v-3.89c0-.32.26-.58.58-.58Z"/>
  <path class="cls-2" d="M44.2,30.2h0c.32,0,.58.26.58.58v3.89c0,.32-.26.58-.58.58h0c-.32,0-.58-.26-.58-.58v-3.89c0-.32.26-.58.58-.58Z"/>
  <path class="cls-2" d="M47.32,30.2h0c.32,0,.58.26.58.58v3.89c0,.32-.26.58-.58.58h0c-.32,0-.58-.26-.58-.58v-3.89c0-.32.26-.58.58-.58Z"/>
  <path class="cls-1" d="M59.05,54.4c-1.99-1.64-4.09-3.15-6.28-4.51-.35-.28-.72-.53-1.1-.77l.1-.14-.62.67.14.14h0c.19-.19,1.97,1.15,2.21,1.34,1.54,1.01,3.02,2.06,4.46,3.21.47.32.87.73,1.2,1.2.38.6.39,1.35.05,1.97-.52.86-1.34,1.49-2.3,1.77-.82.33-1.75.3-2.54-.1-.45-.28-.82-.66-1.1-1.1-.8-.97-1.54-2-2.21-3.07l-1.01-1.54c-.37-.52-.7-1.07-1.01-1.63l-.53.53c1.39,2.26,2.91,4.44,4.56,6.52.38.49.82.94,1.3,1.34,1,.8,2.36,1,3.55.53,1.06-.34,1.89-1.18,2.21-2.25.48-1.58.24-2.97-1.06-4.13Z"/>
  <path class="cls-1" d="M50.65,36.8c-.25-.28-.52-.54-.82-.77-.73-.64-1.55-1.16-2.45-1.54l-.72-.29c-.69-.26-1.42-.42-2.16-.48l-.67-.1h-.53c-.56,0-1.12.05-1.68.14l-.77.14c-.71.18-1.4.44-2.06.77l-.77.43c-1.47.88-2.69,2.12-3.55,3.6l-.38.77c-.64,1.35-.97,2.82-.96,4.32,0,1.51.33,3,.96,4.37l.1.14c.34.68.76,1.33,1.25,1.92l.1.14h.05c1.93,2.25,4.75,3.55,7.72,3.55.52,0,1.03-.05,1.54-.14h.19c1.25-.25,2.45-.71,3.55-1.34h.05l.48-.34.38-.29c.54-.4,1.04-.85,1.49-1.34l.48-.67c.09-.06.16-.14.19-.24l.19-.29c2.5-3.94,2-9.08-1.2-12.47h0ZM43.31,36.99c3.76,0,6.81,3.05,6.81,6.81s-3.05,6.81-6.81,6.81-6.81-3.05-6.81-6.81h0c0-3.76,3.05-6.81,6.81-6.81Z"/>
</svg>