<?xml version="1.0" encoding="UTF-8"?>
<svg id="Layer_1" data-name="Layer 1" xmlns="http://www.w3.org/2000/svg" viewBox="0 0 1280 270.99">
  <defs>
    <style>
      .cls-1 {
        fill: #00adef;
      }
    </style>
  </defs>
  <path class="cls-1" d="m151.76,130.37V25.96l-108.69,15.4v89.01h108.69Zm10.27,0h142.92V4.56l-142.92,20.54v105.27h0Zm-10.27,10.27H43.07v89.86l108.69,14.54v-104.41h0Zm10.27.01v106.12l142.92,19.68v-125.81h-142.92Z"/>
  <path class="cls-1" d="m587.37,57.62l-44.5,156.61h-21.39l-32.52-114.68c-.85-4.28-1.71-9.41-2.56-16.26h-.86l-2.56,15.41-32.52,114.68h-21.4l-45.36-155.76h19.68l33.38,120.67c1.71,5.14,2.57,10.27,2.57,15.4h.85c0-4.28,1.71-9.42,3.42-15.4l35.09-120.67h17.97l33.38,121.53c.86,4.28,1.71,9.42,2.57,14.55,0-3.42,1.71-8.55,2.57-15.4l32.52-120.67h19.68-.01Zm35.95,7.69c0,3.42-.86,5.99-3.42,8.56-2.57,2.57-5.14,3.42-8.56,3.42s-5.99-.86-8.56-3.42c-2.57-2.57-3.42-5.14-3.42-8.56s.85-5.99,3.42-8.56,5.14-3.42,8.56-3.42,5.99.86,8.56,3.42c1.71,2.57,3.42,5.14,3.42,8.56Zm-3.43,148.92h-17.97v-112.11h17.97v112.11Zm119.81,0h-17.97v-64.19c0-23.96-8.56-35.94-25.68-35.94-8.56,0-16.26,3.42-22.25,10.27-5.99,6.85-8.56,15.4-8.56,25.67v64.19h-17.97v-112.11h17.97v18.83h.86c8.56-14.55,20.54-21.39,36.8-21.39,11.98,0,21.39,4.28,28.24,11.98s9.41,19.68,9.41,34.23v68.47h-.86.01Zm124.95-.01h-17.97v-18.83h-.85c-8.56,14.55-21.4,21.39-38.51,21.39-14.55,0-25.67-5.13-34.23-15.4s-12.84-23.96-12.84-41.08c0-18.82,4.28-33.37,13.69-44.5s21.4-17.11,37.65-17.11c15.41,0,26.53,5.99,33.38,17.97h.86V48.21h17.97v166.03h.85Zm-17.97-50.5v-16.26c0-9.42-3.42-17.12-9.41-23.11s-13.69-9.41-22.25-9.41c-11.13,0-19.68,4.28-25.68,11.98-5.99,7.7-9.42,18.83-9.42,33.37,0,12.84,2.57,23.11,8.56,30.81s13.69,11.12,23.96,11.12,17.97-3.42,23.96-11.12c6.84-6.85,10.27-16.26,10.27-27.38h0Zm150.62-5.99c0,17.97-5.13,32.52-15.4,42.79-10.27,11.13-23.97,16.26-41.08,16.26s-29.95-5.13-39.37-15.4c-10.27-10.27-14.55-24.82-14.55-41.93,0-18.82,5.14-33.37,15.41-43.65,10.27-11.13,23.97-16.26,41.94-16.26,16.26,0,29.95,5.13,39.36,15.4,8.56,10.27,13.69,24.81,13.69,42.79h0Zm-18.83.85c0-13.69-3.42-24.82-9.41-32.52-5.99-7.7-15.41-11.13-26.53-11.13s-20.54,4.28-27.39,11.13c-6.85,7.7-10.27,18.83-10.27,32.52s3.42,23.97,10.27,31.67c6.85,7.7,16.26,11.13,27.39,11.13,11.98,0,20.54-3.42,26.53-11.13,6.84-6.85,9.41-17.97,9.41-31.67h0Zm182.3-56.48l-33.38,112.11h-18.83l-23.11-80.45c-.85-2.57-1.71-5.99-1.71-10.27h-.86c0,2.57-.85,5.99-2.57,10.27l-24.82,80.45h-17.97l-34.23-112.11h18.82l23.11,84.73c.85,2.57.85,5.99,1.71,10.27h.85c0-2.57.86-5.99,1.71-10.27l25.68-83.87h16.26l23.11,84.73c.85,2.57.85,5.99,1.71,10.27h.86c0-3.42.85-6.85,1.71-10.27l23.11-84.73h18.82v-.86h.02Zm76.16,82.16c0,9.42-3.43,17.97-11.12,23.97-7.71,5.99-17.12,9.41-29.96,9.41-10.27,0-19.68-2.57-27.39-6.84v-19.68c8.56,6.85,18.83,11.13,29.1,11.13,14.54,0,21.39-5.14,21.39-15.4,0-4.28-1.71-7.7-4.28-10.27-2.57-2.57-9.42-5.99-18.83-11.13-10.27-4.28-17.12-8.56-21.4-13.69s-5.99-11.12-5.99-19.68c0-9.42,3.43-17.12,11.13-23.11s17.12-9.42,28.24-9.42c8.56,0,17.12,1.71,23.96,5.13v17.97c-7.7-5.13-15.4-7.7-25.67-7.7-5.99,0-10.27,1.71-14.55,4.28-3.42,2.57-5.13,6.85-5.13,11.13,0,5.14,1.71,8.56,4.28,11.13,2.57,2.57,8.55,5.99,17.12,9.41,10.26,4.28,17.97,9.41,22.25,14.55,5.13,5.13,6.84,11.12,6.84,18.82h.01Z"/>
</svg>