<svg width="80" height="80" viewBox="0 0 80 80" fill="none" xmlns="http://www.w3.org/2000/svg">
<rect width="80" height="80" rx="12" fill="#6B46F2"/>
<path d="M19.5488 32.6V29.4C19.5488 28.72 19.8344 28.48 20.528 28.48C22.6904 28.44 24.8528 28.44 27.056 28.48C27.7088 28.48 27.9944 28.76 27.9944 29.44V35.76C27.9944 36.48 27.7088 36.72 26.9744 36.72H20.6096C19.7936 36.72 19.5488 36.48 19.5488 35.68V32.6ZM21.14 30V35.2H26.444V30H21.14Z" fill="#6B46F2"/>
<path d="M23.792 50.28H20.528C19.8344 50.28 19.5488 50 19.5488 49.32V43C19.5488 42.28 19.8344 42 20.528 42H27.0152C27.7088 42 27.9944 42.28 27.9944 43V49.32C27.9944 50 27.7088 50.28 26.9744 50.28H23.792ZM21.14 48.72H26.4032V43.52H21.14V48.72Z" fill="#6B46F2"/>
<path d="M27.2191 51.8V53.24H20.3647V51.8H27.2191Z" fill="#6B46F2"/>
<path d="M30.3198 53.24V51.76H37.1334V53.24H30.3198Z" fill="#6B46F2"/>
<path d="M55.6161 53.24C55.6242 54.1356 55.3607 55.0134 54.859 55.762C54.3574 56.5105 53.6402 57.0961 52.7985 57.4444C51.9568 57.7926 51.0286 57.8878 50.1316 57.718C49.2346 57.5481 48.4092 57.1208 47.7604 56.4903C47.1115 55.8598 46.6684 55.0545 46.4871 54.1766C46.3059 53.2988 46.3948 52.3879 46.7425 51.5596C47.0902 50.7314 47.6811 50.0231 48.4401 49.5246C49.1992 49.0262 50.0921 48.76 51.0057 48.76C52.2182 48.7703 53.3787 49.2443 54.2399 50.0811C55.1011 50.918 55.5949 52.0514 55.6161 53.24ZM51.0057 50.28C50.4005 50.28 49.8089 50.456 49.3057 50.7856C48.8025 51.1152 48.4103 51.5838 48.1787 52.132C47.9471 52.6801 47.8865 53.2833 48.0045 53.8653C48.1226 54.4472 48.414 54.9818 48.842 55.4013C49.2699 55.8209 49.8152 56.1066 50.4088 56.2224C51.0023 56.3381 51.6176 56.2787 52.1767 56.0516C52.7359 55.8246 53.2138 55.4401 53.55 54.9467C53.8863 54.4534 54.0657 53.8734 54.0657 53.28C54.0657 52.4844 53.7433 51.7213 53.1695 51.1587C52.5956 50.5961 51.8173 50.28 51.0057 50.28Z" fill="#6B46F2"/>
<path d="M21.1401 30H26.4441V35.2H21.1401V30Z" fill="#6B46F2"/>
<path d="M21.1401 48.72V43.52H26.4033V48.72H21.1401Z" fill="#6B46F2"/>
<path d="M23 42.6074V37.3231H25.7228C26.1238 37.3548 26.5236 37.2475 26.8543 37.0195C27.1851 36.7914 27.4266 36.4566 27.538 36.0716C27.7797 35.2842 28.0832 34.5171 28.4456 33.7771C28.6683 33.4515 28.7563 33.053 28.6913 32.6644C28.6262 32.2758 28.4132 31.9272 28.0965 31.6912L26.0719 29.953L30.0513 25.9898L31.8665 28.0757C32.106 28.3435 32.429 28.5235 32.7835 28.5865C33.138 28.6496 33.5036 28.5921 33.8214 28.4233L36.2649 27.3804C36.6161 27.2975 36.9242 27.0885 37.1303 26.7934C37.3364 26.4984 37.426 26.1379 37.3819 25.7812V23H42.6181C42.6181 23.9039 42.6879 24.8078 42.6181 25.7812C42.5921 26.1449 42.6974 26.5058 42.915 26.7991C43.1326 27.0923 43.4482 27.2984 43.8049 27.3804L46.1786 28.3538C46.5055 28.5756 46.9057 28.6632 47.2959 28.5984C47.6861 28.5337 48.0361 28.3215 48.2731 28.0061C48.8316 27.3108 49.46 26.6851 49.9487 26.1288L53.8583 30.092L51.9733 31.6912C51.664 31.9151 51.4497 32.2458 51.3722 32.6187C51.2947 32.9916 51.3597 33.3798 51.5544 33.7076C51.9749 34.5345 52.3252 35.395 52.6016 36.2802C52.71 36.5911 52.9207 36.8564 53.1995 37.0331C53.4783 37.2098 53.8089 37.2875 54.1376 37.2536H57V42.6074H54.2772C53.8966 42.5876 53.5199 42.6924 53.2048 42.9058C52.8896 43.1193 52.6533 43.4296 52.5318 43.7894C52.2483 44.6168 51.9221 45.429 51.5544 46.2229C51.3718 46.536 51.3066 46.9036 51.3706 47.2601C51.4345 47.6165 51.6233 47.9389 51.9035 48.1697L53.9281 49.9775L49.9487 53.8712C49.3901 53.2454 48.8316 52.5501 48.1335 51.8548C47.4353 51.1595 47.0164 51.229 46.2485 51.5072C45.4343 51.9087 44.5947 52.2571 43.7351 52.5501C43.3857 52.6597 43.0845 52.8849 42.8813 53.1884C42.6781 53.4919 42.5852 53.8555 42.6181 54.2188C42.6879 55.1227 42.6181 56.0266 42.6181 57H37.3819V54.2188C37.4429 53.8413 37.3527 53.455 37.1308 53.143C36.9089 52.831 36.5729 52.6181 36.1951 52.5501L34.6591 51.9939C32.6345 51.09 32.6345 51.09 31.1684 52.6196C30.7584 53.0519 30.3848 53.517 30.0513 54.0102L26.2813 50.047C26.8263 49.4102 27.4091 48.8066 28.0267 48.2393C28.3465 47.9912 28.5651 47.6361 28.6422 47.2398C28.7192 46.8435 28.6493 46.4328 28.4456 46.0838C28.0965 45.2495 27.7474 44.4847 27.4682 43.6503C27.3847 43.3052 27.172 43.0049 26.8734 42.811C26.5749 42.6171 26.2132 42.5443 25.8624 42.6074H23ZM47.924 39.8957C47.9102 38.3419 47.4339 36.827 46.5556 35.5427C45.6773 34.2584 44.4363 33.2623 42.9895 32.6804C41.5427 32.0985 39.9552 31.9569 38.4276 32.2735C36.9001 32.5902 35.5011 33.3508 34.4076 34.4593C33.3141 35.5677 32.5752 36.9742 32.2844 38.5009C31.9935 40.0276 32.1638 41.6059 32.7736 43.0362C33.3834 44.4665 34.4054 45.6846 35.7103 46.5365C37.0152 47.3884 38.5445 47.8358 40.1047 47.8221C41.1407 47.813 42.1648 47.6008 43.1185 47.1975C44.0722 46.7942 44.9367 46.2078 45.6628 45.4718C46.3889 44.7358 46.9623 43.8645 47.3503 42.9077C47.7383 41.951 47.9332 40.9275 47.924 39.8957Z" fill="white"/>
<path d="M40 35C40.9889 35 41.9556 35.2932 42.7778 35.8427C43.6001 36.3921 44.241 37.173 44.6194 38.0866C44.9978 39.0002 45.0969 40.0055 44.9039 40.9755C44.711 41.9454 44.2348 42.8363 43.5355 43.5355C42.8363 44.2348 41.9454 44.711 40.9755 44.9039C40.0055 45.0969 39.0002 44.9978 38.0866 44.6194C37.173 44.241 36.3921 43.6001 35.8427 42.7778C35.2932 41.9556 35 40.9889 35 40C35.0173 38.6793 35.5496 37.4175 36.4836 36.4836C37.4175 35.5496 38.6793 35.0173 40 35Z" fill="white"/>
</svg>
