<svg width="80" height="80" viewBox="0 0 80 80" fill="none" xmlns="http://www.w3.org/2000/svg">
<rect width="80" height="80" rx="12" fill="#6B46F2"/>
<g clip-path="url(#clip0_1301_5)">
<path d="M28.1136 49.7933L24.2205 46.0434C23.8668 45.7024 23.3871 45.5108 22.8868 45.5107C22.3865 45.5106 21.9067 45.702 21.5528 46.0428C21.199 46.3836 21.0001 46.8458 21 47.3279C20.9999 47.8099 21.1985 48.2723 21.5522 48.6132L28.6656 55.4673C28.8408 55.6362 29.0488 55.7701 29.2777 55.8615C29.5066 55.953 29.752 56 29.9998 56C30.2476 56 30.4929 55.953 30.7219 55.8615C30.9508 55.7701 31.1588 55.6362 31.3339 55.4673L38.4474 48.6144C38.6226 48.4456 38.7616 48.2452 38.8564 48.0246C38.9512 47.8041 39 47.5676 39 47.3289C39 47.0902 38.9512 46.8538 38.8564 46.6332C38.7616 46.4126 38.6226 46.2122 38.4474 46.0434C38.2722 45.8746 38.0642 45.7407 37.8353 45.6493C37.6063 45.5579 37.361 45.5109 37.1132 45.5109C36.8654 45.5109 36.6201 45.5579 36.3912 45.6493C36.1623 45.7407 35.9543 45.8746 35.7791 46.0434L31.886 49.7933V35.8174C31.886 35.3354 31.6872 34.8731 31.3335 34.5323C30.9798 34.1915 30.5 34 29.9998 34C29.4995 34 29.0198 34.1915 28.666 34.5323C28.3123 34.8731 28.1136 35.3354 28.1136 35.8174V49.7933Z" fill="white"/>
</g>
<g clip-path="url(#clip1_1301_5)">
<path d="M47.1136 30.2067L43.2205 33.9566C42.8668 34.2976 42.3871 34.4892 41.8868 34.4893C41.3865 34.4894 40.9067 34.298 40.5528 33.9572C40.199 33.6164 40.0001 33.1542 40 32.6721C39.9999 32.1901 40.1985 31.7277 40.5522 31.3868L47.6656 24.5327C47.8408 24.3638 48.0488 24.2299 48.2777 24.1385C48.5066 24.047 48.752 24 48.9998 24C49.2476 24 49.4929 24.047 49.7219 24.1385C49.9508 24.2299 50.1588 24.3638 50.3339 24.5327L57.4474 31.3856C57.6226 31.5544 57.7616 31.7548 57.8564 31.9754C57.9512 32.1959 58 32.4324 58 32.6711C58 32.9098 57.9512 33.1462 57.8564 33.3668C57.7616 33.5874 57.6226 33.7878 57.4474 33.9566C57.2722 34.1254 57.0642 34.2593 56.8353 34.3507C56.6063 34.4421 56.361 34.4891 56.1132 34.4891C55.8654 34.4891 55.6201 34.4421 55.3912 34.3507C55.1623 34.2593 54.9543 34.1254 54.7791 33.9566L50.886 30.2067V44.1826C50.886 44.6646 50.6872 45.1269 50.3335 45.4677C49.9798 45.8085 49.5 46 48.9998 46C48.4995 46 48.0198 45.8085 47.666 45.4677C47.3123 45.1269 47.1136 44.6646 47.1136 44.1826V30.2067Z" fill="white"/>
</g>
<defs>
<clipPath id="clip0_1301_5">
<rect width="38" height="38" fill="white" transform="translate(11 26)"/>
</clipPath>
<clipPath id="clip1_1301_5">
<rect width="38" height="38" fill="white" transform="matrix(1 0 0 -1 30 54)"/>
</clipPath>
</defs>
</svg>
