<svg width="80" height="80" viewBox="0 0 80 80" fill="none" xmlns="http://www.w3.org/2000/svg">
<rect width="80" height="80" rx="12" fill="#6B46F2"/>
<path d="M47.7153 32.7199H52.3361L52.3969 33.5466V36.6666H45.9825C45.6177 38.5599 45.2833 40.3999 44.9185 42.2932H50.4513L50.5121 43.1199V46.2399H44.1889L43.8241 47.9999L42.4561 46.8266L39.8417 49.1466L40.3281 49.5199L43.1249 51.9999C42.9121 53.0132 42.7297 53.9999 42.5169 55.0399H37.6833C37.8049 54.2932 37.9265 53.5732 38.0785 52.8799C38.4129 50.9332 38.7777 49.0132 39.1425 47.0666L39.2945 46.2666H35.3729L33.7313 55.0666H29.7489L28.8673 55.0132L30.3265 47.0666L30.4785 46.2666H25.8577L25.0977 46.2132V42.3199H31.2385C31.4209 41.3421 31.6033 40.3821 31.7857 39.4399C31.9073 38.7732 31.9985 38.1332 32.1201 37.4932L32.3329 36.6932H27.7121L26.9217 36.6399V32.7466H33.0321C33.6097 29.7599 34.1569 26.7732 34.7345 23.8132H39.5377L39.4465 24.5866L39.3553 24.9332L38.2609 30.8532C38.1393 31.4666 38.0481 32.0799 37.9265 32.7199H41.8481C42.3953 29.7599 42.9729 26.7999 43.5201 23.8132H48.3537L48.2625 24.5599L46.7121 32.7199H47.7153ZM40.9361 37.4666L41.1185 36.6932H37.1665C36.8017 38.5599 36.4673 40.4266 36.1025 42.2932H40.0545C40.3585 40.6666 40.6321 39.0666 40.9361 37.4666Z" fill="white"/>
<path d="M33.9745 55.3066H28.5329L30.1441 46.56H25.7665L24.7937 46.5066V42.0533H30.9649L31.1169 41.3866L31.4817 39.3866C31.5729 38.9333 31.6337 38.48 31.7249 38.0533L31.8161 37.44L31.9377 36.9333H27.5905L26.6177 36.88V32.48H32.7889L34.4913 23.5466H39.8721L39.7505 24.64C39.7505 24.6933 39.7201 24.72 39.7201 24.7733C39.6823 24.8396 39.6615 24.9125 39.6593 24.9866C39.2945 26.96 38.9297 28.9333 38.5345 30.9066C38.4737 31.3333 38.3825 31.7333 38.3217 32.16L38.2609 32.4533H41.6049L43.2769 23.5466H48.6881L48.5665 24.5866L47.0769 32.4533H52.6097L52.7009 33.52V36.9066H46.2257L45.2529 42.0266H50.7553L50.8161 43.12V46.5066H44.4321L44.0369 48.5066L42.4561 47.2L40.2673 49.12L40.5409 49.3333L42.6081 51.1733L43.4593 51.92L42.7601 55.3066H37.3185L38.9297 46.5333H35.6161L33.9745 55.3066ZM29.2321 54.7733H33.4577L35.0993 46H39.6289L39.4161 47.0933L38.0177 54.7733H42.2737L42.7905 52.0533L42.1825 51.52L40.1153 49.68L39.7809 49.44L39.6289 49.3333L39.3857 49.1466L42.4257 46.4533L43.6417 47.44L43.9457 45.9466H50.2081V42.56H44.5537L45.7393 36.4H52.0929V33.5466L52.0321 32.9866H46.3473L47.9889 24.5333V24.08H43.7937L42.0913 32.9866H37.5617L37.7137 32.08C37.8049 31.6533 37.8657 31.2533 37.9569 30.8266L39.0513 24.88L39.1425 24.6133C39.1411 24.5989 39.1431 24.5843 39.1483 24.5706C39.1535 24.5568 39.1619 24.5441 39.1729 24.5333V24.08H34.9777L33.3057 33.0133H27.2257V36.4H32.6977L32.4241 37.5466L32.3025 38.1333C32.2417 38.56 32.1505 39.0133 32.0897 39.4666C32.0289 39.92 31.8161 40.8 31.6945 41.4933L31.4817 42.5866H25.4017V45.9733H30.8433L30.6305 47.0933L29.2321 54.7733ZM40.2977 42.56H35.7377L36.9233 36.4266H41.4529L41.2401 37.52L40.2977 42.56ZM36.4673 42.0266H39.7809L40.7537 36.96H37.4097L36.4673 42.0266Z" fill="white"/>
<path d="M43.1248 51.9999L40.328 49.5199L39.8416 49.1466L42.456 46.8266L43.824 47.9999L44.6448 48.7199L46.3472 50.1066L49.9344 47.0666L51.3936 45.8133L55.3152 42.3733C55.68 42.0799 55.984 41.7333 56.288 41.4399C57.2304 42.2399 58.0512 42.9866 58.9024 43.7599L58.4464 44.2133C58.2902 44.3146 58.1475 44.4309 58.0208 44.5599L46.8032 54.3999C46.6743 54.5406 46.5623 54.6925 46.4688 54.8533H46.2256C46.1395 54.697 46.0267 54.5531 45.8912 54.4266L43.1248 51.9999Z" fill="white"/>
<path d="M46.6207 55.1467L46.0735 55.0667L45.9823 54.9867L45.8911 54.8267L45.6783 54.5867L43.5503 52.7467L42.9119 52.1867L42.1823 51.5467L40.1151 49.7067L39.7807 49.4667L39.6287 49.36L39.3855 49.1734L42.4255 46.48L44.0367 47.7867L44.8575 48.5334L46.3471 49.76L49.7519 46.88L52.2143 44.6934C53.1871 43.8667 54.1599 43.04 55.1023 42.1867C55.3408 41.9863 55.5643 41.7726 55.7711 41.5467L56.0751 41.2534L56.2879 41.04L59.3279 43.7334L58.6287 44.4267L58.5071 44.5334L58.2335 44.7467L47.0159 54.5867L46.8335 54.8267L46.7423 54.9867L46.6207 55.1467ZM43.3375 51.8134L43.9759 52.3734L46.1039 54.2134C46.2018 54.2995 46.2839 54.3985 46.3471 54.5067C46.4103 54.3985 46.4924 54.2995 46.5903 54.2134L57.8079 44.3734L58.1119 44.1334L58.2335 44.0267L58.5071 43.76L56.3183 41.8134L56.2271 41.8934C56.0108 42.1287 55.7772 42.3514 55.5279 42.56C54.5855 43.4134 53.6127 44.24 52.6399 45.0934L49.9647 47.4134L46.3471 50.48L44.4319 48.9067L43.6111 48.1867L42.4559 47.2L40.2671 49.12L40.5407 49.3334L42.6079 51.1734L43.3375 51.8134Z" fill="white"/>
</svg>
