<svg width="80" height="81" viewBox="0 0 80 81" fill="none" xmlns="http://www.w3.org/2000/svg">
<rect y="0.89502" width="80" height="79.7203" rx="12" fill="#6B46F2"/>
<path d="M30.1548 37.6378C30.098 37.0649 29.8542 36.6198 29.4233 36.3026C28.9924 35.9853 28.4077 35.8267 27.669 35.8267C27.1671 35.8267 26.7434 35.8977 26.3977 36.0398C26.0521 36.1771 25.7869 36.3688 25.6023 36.6151C25.4223 36.8613 25.3324 37.1406 25.3324 37.4531C25.3229 37.7135 25.3774 37.9408 25.4957 38.1349C25.6188 38.3291 25.7869 38.4972 26 38.6392C26.2131 38.7765 26.4593 38.8973 26.7386 39.0014C27.018 39.1009 27.3163 39.1861 27.6335 39.2571L28.9403 39.5696C29.5748 39.7116 30.1572 39.901 30.6875 40.1378C31.2178 40.3745 31.6771 40.6657 32.0653 41.0114C32.4536 41.357 32.7543 41.7642 32.9673 42.233C33.1851 42.7017 33.2964 43.2391 33.3011 43.8452C33.2964 44.7353 33.0691 45.5071 32.6193 46.1605C32.1742 46.8092 31.5303 47.3134 30.6875 47.6733C29.8494 48.0284 28.8385 48.206 27.6548 48.206C26.4806 48.206 25.4579 48.026 24.5866 47.6662C23.7202 47.3063 23.0431 46.7737 22.5554 46.0682C22.0724 45.358 21.8191 44.4796 21.7955 43.4332H24.7713C24.8045 43.9209 24.9441 44.3281 25.1903 44.6548C25.4413 44.9768 25.7751 45.2206 26.1918 45.3864C26.6132 45.5473 27.089 45.6278 27.6193 45.6278C28.1402 45.6278 28.5923 45.5521 28.9759 45.4006C29.3641 45.2491 29.6648 45.0384 29.8778 44.7685C30.0909 44.4986 30.1974 44.1884 30.1974 43.8381C30.1974 43.5114 30.1004 43.2367 29.9062 43.0142C29.7169 42.7917 29.4375 42.6023 29.0682 42.446C28.7036 42.2898 28.2562 42.1477 27.7259 42.0199L26.142 41.6222C24.9157 41.3239 23.9474 40.8575 23.2372 40.223C22.527 39.5885 22.1742 38.7339 22.179 37.6591C22.1742 36.7784 22.4086 36.009 22.8821 35.3509C23.3603 34.6927 24.0161 34.179 24.8494 33.8097C25.6828 33.4403 26.6297 33.2557 27.6903 33.2557C28.7699 33.2557 29.7121 33.4403 30.517 33.8097C31.3267 34.179 31.9564 34.6927 32.4062 35.3509C32.8561 36.009 33.0881 36.7713 33.1023 37.6378H30.1548ZM43.2603 37.6378C43.2035 37.0649 42.9596 36.6198 42.5288 36.3026C42.0979 35.9853 41.5131 35.8267 40.7745 35.8267C40.2726 35.8267 39.8488 35.8977 39.5032 36.0398C39.1576 36.1771 38.8924 36.3688 38.7077 36.6151C38.5278 36.8613 38.4379 37.1406 38.4379 37.4531C38.4284 37.7135 38.4828 37.9408 38.6012 38.1349C38.7243 38.3291 38.8924 38.4972 39.1055 38.6392C39.3185 38.7765 39.5647 38.8973 39.8441 39.0014C40.1235 39.1009 40.4218 39.1861 40.739 39.2571L42.0458 39.5696C42.6803 39.7116 43.2627 39.901 43.793 40.1378C44.3233 40.3745 44.7826 40.6657 45.1708 41.0114C45.5591 41.357 45.8597 41.7642 46.0728 42.233C46.2906 42.7017 46.4019 43.2391 46.4066 43.8452C46.4019 44.7353 46.1746 45.5071 45.7248 46.1605C45.2797 46.8092 44.6358 47.3134 43.793 47.6733C42.9549 48.0284 41.944 48.206 40.7603 48.206C39.5861 48.206 38.5633 48.026 37.6921 47.6662C36.8256 47.3063 36.1486 46.7737 35.6609 46.0682C35.1779 45.358 34.9246 44.4796 34.9009 43.4332H37.8768C37.9099 43.9209 38.0496 44.3281 38.2958 44.6548C38.5468 44.9768 38.8806 45.2206 39.2972 45.3864C39.7186 45.5473 40.1945 45.6278 40.7248 45.6278C41.2456 45.6278 41.6978 45.5521 42.0813 45.4006C42.4696 45.2491 42.7702 45.0384 42.9833 44.7685C43.1964 44.4986 43.3029 44.1884 43.3029 43.8381C43.3029 43.5114 43.2058 43.2367 43.0117 43.0142C42.8223 42.7917 42.543 42.6023 42.1737 42.446C41.8091 42.2898 41.3616 42.1477 40.8313 42.0199L39.2475 41.6222C38.0212 41.3239 37.0529 40.8575 36.3427 40.223C35.6325 39.5885 35.2797 38.7339 35.2844 37.6591C35.2797 36.7784 35.5141 36.009 35.9876 35.3509C36.4658 34.6927 37.1216 34.179 37.9549 33.8097C38.7882 33.4403 39.7352 33.2557 40.7958 33.2557C41.8754 33.2557 42.8176 33.4403 43.6225 33.8097C44.4322 34.179 45.0619 34.6927 45.5117 35.3509C45.9615 36.009 46.1935 36.7713 46.2077 37.6378H43.2603ZM48.4751 48V33.4545H51.5504V45.4645H57.7862V48H48.4751Z" fill="white"/>
</svg>
