<svg width="22" height="22" viewBox="0 0 22 22" fill="none" xmlns="http://www.w3.org/2000/svg">
<rect width="22" height="22" rx="5" fill="#F2EFFF"/>
<path d="M11.5 6.025V7.035C13.475 7.28 15 8.96 15 11C15 12.605 14.04 14 12.64 14.64L11.5 13.5V16H14L13.39 15.39C14.955 14.535 16 12.88 16 11C16 8.41 14.025 6.275 11.5 6.025ZM10.5 6C9.525 6.1 8.6 6.48 7.84 7.105L8.55 7.815C9.11755 7.37749 9.78992 7.09648 10.5 7V6ZM7.1 7.84C6.48 8.6 6.1 9.525 6 10.5H7C7.095 9.79 7.375 9.115 7.815 8.55L7.1 7.84ZM8 9V10H9.5V10.5H9C8.45 10.5 8 10.95 8 11.5V13H10.5V12H9V11.5H9.5C10.055 11.5 10.5 11.055 10.5 10.5V10C10.5 9.73478 10.3946 9.48043 10.2071 9.29289C10.0196 9.10536 9.76522 9 9.5 9H8ZM11 9V11.5H12.5V13H13.5V11.5H14V10.5H13.5V9H12.5V10.5H12V9H11ZM6 11.5C6.1 12.475 6.485 13.4 7.11 14.16L7.82 13.45C7.381 12.8828 7.09828 12.2105 7 11.5H6ZM8.555 14.185L7.84 14.895C8.59969 15.5153 9.52443 15.8994 10.5 16V15C9.79084 14.9057 9.11954 14.6244 8.555 14.185Z" fill="#6B46F2"/>
</svg>
