<svg width="35" height="35" viewBox="0 0 35 35" fill="none" xmlns="http://www.w3.org/2000/svg">
<g clip-path="url(#clip0_347_24)">
<mask id="mask0_347_24" style="mask-type:luminance" maskUnits="userSpaceOnUse" x="0" y="0" width="35" height="35">
<path d="M35 0H0V35H35V0Z" fill="white"/>
</mask>
<g mask="url(#mask0_347_24)">
<path d="M27.2824 -0.245117H7.92736C3.47181 -0.245117 -0.140137 3.36683 -0.140137 7.82238V27.1774C-0.140137 31.6329 3.47181 35.2449 7.92736 35.2449H27.2824C31.7379 35.2449 35.3499 31.6329 35.3499 27.1774V7.82238C35.3499 3.36683 31.7379 -0.245117 27.2824 -0.245117Z" fill="#F2EFFF"/>
</g>
<path d="M7.95686 26.7119H6.54399C5.50115 26.7119 4.66016 25.8709 4.66016 24.828V21.0772C4.66016 20.0344 5.50115 19.1934 6.54399 19.1934H7.95686C8.20916 19.1934 8.42782 19.412 8.42782 19.6643V26.2409C8.42782 26.4932 8.20916 26.7119 7.95686 26.7119ZM6.54399 20.1185C6.02257 20.1185 5.60207 20.539 5.60207 21.0604V24.8112C5.60207 25.3326 6.02257 25.7531 6.54399 25.7531H7.4859V20.1016H6.54399V20.1185Z" fill="#6B46F2"/>
<path d="M9.37016 28.125C8.32732 28.125 7.48633 27.284 7.48633 26.2412V19.6646C7.48633 18.6218 8.32732 17.7808 9.37016 17.7808C10.413 17.7808 11.254 18.6218 11.254 19.6646V26.2412C11.254 27.284 10.413 28.125 9.37016 28.125ZM9.37016 18.7227C8.84874 18.7227 8.42824 19.1432 8.42824 19.6646V26.2412C8.42824 26.7626 8.84874 27.1831 9.37016 27.1831C9.89158 27.1831 10.3121 26.7626 10.3121 26.2412V19.6646C10.3121 19.1432 9.89158 18.7227 9.37016 18.7227ZM29.1167 26.7121H27.7039C27.4516 26.7121 27.2329 26.4935 27.2329 26.2412V19.6646C27.2329 19.4123 27.4516 19.1936 27.7039 19.1936H29.1167C30.1596 19.1936 31.0006 20.0346 31.0006 21.0775V24.8283C31.0006 25.8711 30.1596 26.7121 29.1167 26.7121ZM28.1748 25.7702H29.1167C29.6382 25.7702 30.0587 25.3497 30.0587 24.8283V21.0775C30.0587 20.556 29.6382 20.1356 29.1167 20.1356H28.1748V25.787V25.7702ZM9.37016 28.3941C8.32732 28.3941 7.48633 27.5531 7.48633 26.5103V19.9337C7.48633 18.8909 8.32732 18.0499 9.37016 18.0499C10.413 18.0499 11.254 18.8909 11.254 19.9337V26.5103C11.254 27.5531 10.413 28.3941 9.37016 28.3941Z" fill="#6B46F2"/>
<path d="M26.2908 28.1243C25.248 28.1243 24.407 27.2833 24.407 26.2404V19.6638C24.407 18.621 25.248 17.78 26.2908 17.78C27.3336 17.78 28.1746 18.621 28.1746 19.6638V26.2404C28.1746 27.2833 27.3336 28.1243 26.2908 28.1243ZM26.2908 18.7219C25.7694 18.7219 25.3489 19.1424 25.3489 19.6638V26.2404C25.3489 26.7618 25.7694 27.1823 26.2908 27.1823C26.8122 27.1823 27.2327 26.7618 27.2327 26.2404V19.6638C27.2327 19.1424 26.8122 18.7219 26.2908 18.7219ZM18.7723 31.421H16.8885C16.1147 31.421 15.4756 30.7986 15.4756 30.0081C15.4756 29.2176 16.0979 28.5952 16.8885 28.5952H18.7723C19.546 28.5952 20.1852 29.2176 20.1852 30.0081C20.1852 30.7986 19.5628 31.421 18.7723 31.421ZM16.8885 29.5371C16.6362 29.5371 16.4175 29.7558 16.4175 30.0081C16.4175 30.2604 16.6362 30.479 16.8885 30.479H18.7723C19.0246 30.479 19.2432 30.2604 19.2432 30.0081C19.2432 29.7558 19.0246 29.5371 18.7723 29.5371H16.8885ZM26.2908 28.1074C25.248 28.1074 24.407 27.2664 24.407 26.2236V19.647C24.407 18.6042 25.248 17.7632 26.2908 17.7632C27.3336 17.7632 28.1746 18.6042 28.1746 19.647V26.2236C28.1746 27.2664 27.3336 28.1074 26.2908 28.1074ZM18.7891 31.421H16.9053C16.1316 31.421 15.4924 30.7986 15.4924 30.0081C15.4924 29.2176 16.1147 28.5952 16.9053 28.5952H18.7891C19.5628 28.5952 20.202 29.2176 20.202 30.0081C20.202 30.7986 19.5796 31.421 18.7891 31.421Z" fill="#6B46F2"/>
<path d="M26.2903 30.4626H19.7137C19.4614 30.4626 19.2428 30.2607 19.2428 30.0084C19.2428 29.7561 19.4614 29.5543 19.7137 29.5543H26.2903C27.5854 29.5543 28.6451 28.5451 28.6451 27.2836V26.3753C28.6451 26.123 28.8638 25.9212 29.1161 25.9212C29.3684 25.9212 29.587 26.123 29.587 26.3753V27.2836C29.587 29.0329 28.1237 30.4626 26.2903 30.4626ZM28.6451 19.395C28.3928 19.395 28.1741 19.1764 28.1741 18.8905V15.3751C28.1741 14.8873 28.1405 14.4164 28.09 13.9286C28.0564 13.6595 28.2414 13.3903 28.4937 13.3567C28.746 13.3231 28.9983 13.5249 29.032 13.794C29.0824 14.3154 29.1161 14.8368 29.1161 15.3751V18.8905C29.1161 19.1596 28.8974 19.395 28.6451 19.395ZM7.0315 19.395C6.77921 19.395 6.56055 19.1764 6.56055 18.8905V15.3751C6.56055 14.8537 6.59419 14.3154 6.66147 13.794C6.69511 13.5249 6.93059 13.3231 7.1997 13.3567C7.452 13.3903 7.63702 13.6426 7.60338 13.9286C7.5361 14.4164 7.50246 14.8873 7.50246 15.3751V18.8905C7.50246 19.1596 7.2838 19.395 7.0315 19.395Z" fill="#6B46F2"/>
<path d="M28.5443 13.6258C27.0642 13.6089 25.7354 12.7175 25.1467 11.3551C23.3638 7.31829 18.6542 5.48492 14.6174 7.26783C12.7673 8.07519 11.2871 9.57216 10.4966 11.4392C9.95833 12.7511 8.68001 13.6258 7.26714 13.6258H7.13258C6.88028 13.6258 6.66162 13.4239 6.66162 13.1548V13.0875C7.4858 6.91461 13.1541 2.57507 19.327 3.39925C24.373 4.07205 28.3425 8.04155 29.0153 13.0875C29.0489 13.3398 28.8639 13.5753 28.6116 13.6089H28.5443H28.5612L28.5443 13.6258ZM17.8301 4.22343C12.8514 4.22343 8.59591 7.75561 7.67082 12.6502C8.54545 12.482 9.28553 11.8933 9.62193 11.0691C11.5562 6.52776 16.804 4.42526 21.3454 6.35956C22.3883 6.81369 23.347 7.45285 24.1543 8.26021C24.9449 9.03392 25.584 9.95902 26.0382 10.9682C26.3914 11.8092 27.1315 12.4147 28.0229 12.6334C27.6361 10.5982 26.6269 8.73116 25.1804 7.26783C23.2292 5.31672 20.6053 4.22343 17.8469 4.24025L17.8301 4.22343ZM28.7798 13.6258C27.2997 13.6089 25.9709 12.7175 25.3822 11.3551C23.5993 7.31829 18.8897 5.48492 14.8529 7.26783C13.0027 8.07519 11.5226 9.57216 10.732 11.4392C10.1938 12.7511 8.91549 13.6258 7.50262 13.6258H7.36806C7.11576 13.6258 6.8971 13.4239 6.8971 13.1548V13.0875C7.72128 6.91461 13.3896 2.57507 19.5625 3.39925C24.6085 4.07205 28.578 8.04155 29.2508 13.0875C29.2844 13.3398 29.0994 13.5753 28.8471 13.6089H28.7798H28.7966L28.7798 13.6258Z" fill="#6B46F2"/>
<path d="M14.8427 17.314V16.9944L16.043 15.6804C16.1839 15.5266 16.2999 15.3928 16.391 15.2792C16.4822 15.1643 16.5496 15.0566 16.5934 14.956C16.6384 14.8542 16.6609 14.7477 16.6609 14.6364C16.6609 14.5086 16.6301 14.3979 16.5686 14.3044C16.5082 14.2109 16.4254 14.1387 16.32 14.0878C16.2147 14.0369 16.0963 14.0114 15.9649 14.0114C15.8252 14.0114 15.7033 14.0404 15.5991 14.0984C15.4961 14.1552 15.4162 14.2351 15.3594 14.3381C15.3038 14.4411 15.276 14.5618 15.276 14.7003H14.8569C14.8569 14.4873 14.9061 14.3002 15.0043 14.1392C15.1026 13.9783 15.2363 13.8528 15.4056 13.7628C15.576 13.6729 15.7672 13.6279 15.9791 13.6279C16.1922 13.6279 16.381 13.6729 16.5455 13.7628C16.71 13.8528 16.8391 13.9741 16.9326 14.1268C17.0261 14.2795 17.0728 14.4494 17.0728 14.6364C17.0728 14.7702 17.0486 14.901 17 15.0288C16.9527 15.1555 16.8698 15.2969 16.7515 15.4532C16.6343 15.6082 16.4715 15.7976 16.2632 16.0214L15.4464 16.8949V16.9233H17.1368V17.314H14.8427ZM17.7067 16.5682V16.206L19.3047 13.6776H19.5675V14.2387H19.39L18.1826 16.1492V16.1776H20.3346V16.5682H17.7067ZM19.4184 17.314V16.4581V16.2895V13.6776H19.8374V17.314H19.4184Z" fill="#6B46F2"/>
<path d="M22.1865 17.3093C22.1865 17.3093 22.1529 17.3093 22.1193 17.3093C22.0183 17.2756 21.9679 17.1747 22.0183 17.0738C22.1024 16.8383 22.1697 16.6196 22.2034 16.3673C22.2202 16.2664 22.3211 16.1991 22.422 16.216C22.5229 16.2328 22.5902 16.3337 22.5734 16.4346C22.5229 16.6869 22.4556 16.9392 22.3715 17.1915C22.3379 17.2588 22.2706 17.3093 22.2034 17.3093H22.1865Z" fill="#6B46F2"/>
<path d="M21.0429 19.1425C20.942 19.1425 20.8579 19.0584 20.8579 18.9574C20.8579 18.907 20.8747 18.8565 20.9084 18.8229C21.127 18.6042 21.312 18.3687 21.4802 18.1164C21.5307 18.0323 21.6484 18.0155 21.7325 18.066C21.8166 18.1164 21.8335 18.2342 21.783 18.3183C21.598 18.5874 21.3961 18.8397 21.1607 19.0752C21.127 19.1088 21.0766 19.1256 21.0261 19.1256L21.0429 19.1425Z" fill="#6B46F2"/>
<path d="M21.8166 11.321C21.8166 11.321 21.682 11.3042 21.6147 11.3546L21.0765 11.8256C19.0413 9.87447 15.8118 9.94175 13.8607 11.977C11.9096 14.0122 11.9769 17.2416 14.0121 19.1927C15.61 20.7401 18.0489 21.0597 20 19.9832C20.0841 19.9328 20.1177 19.815 20.0673 19.7309C20.0168 19.6468 19.8991 19.6132 19.815 19.6637C17.5275 20.9252 14.6345 20.0842 13.373 17.7967C12.1115 15.5091 12.9525 12.6161 15.24 11.3546C17.0565 10.3622 19.2936 10.6482 20.7905 12.0779L20.1514 12.6329C20.1514 12.6329 20.0673 12.818 20.1346 12.8852C20.1682 12.9189 20.2187 12.9525 20.2691 12.9525H21.7325C21.8334 12.9525 21.9175 12.8684 21.9175 12.7675V11.4892C21.9175 11.4892 21.867 11.3546 21.8166 11.321Z" fill="#6B46F2"/>
<path d="M22.4724 15.4924C22.3715 15.4924 22.2874 15.4083 22.2874 15.3242C22.2874 15.0887 22.2537 14.8532 22.2033 14.6177C22.1864 14.5168 22.2537 14.4327 22.3546 14.3991C22.4556 14.3823 22.5397 14.4495 22.5733 14.5336C22.6238 14.7859 22.6574 15.0382 22.6574 15.2905C22.6574 15.3915 22.5733 15.4756 22.4892 15.4756H22.4724V15.4924Z" fill="#6B46F2"/>
</g>
<defs>
<clipPath id="clip0_347_24">
<rect width="35" height="35" fill="white"/>
</clipPath>
</defs>
</svg>
