<?xml version="1.0" encoding="UTF-8"?>
<svg id="Layer_1" xmlns="http://www.w3.org/2000/svg" viewBox="0 0 70 70">
  <defs>
    <style>
      .cls-1, .cls-2 {
        fill: #fff;
      }

      .cls-2 {
        font-family: Raleway-Bold, Raleway;
        font-size: 8.29px;
        font-weight: 700;
      }

      .cls-2, .cls-3 {
        isolation: isolate;
      }

      .cls-4 {
        fill: #5138cc;
      }
    </style>
  </defs>
  <g id="Character">
    <rect class="cls-4" x=".72" y="-.12" width="70" height="70" rx="12.56" ry="12.56"/>
  </g>
  <g>
    <path class="cls-1" d="M18.39,50.73h-2.38c-1.75,0-3.17-1.42-3.17-3.17v-6.33c0-1.75,1.42-3.17,3.17-3.17h2.38c.44,0,.79.36.79.79v11.08c0,.44-.36.79-.79.79h0ZM16.01,39.65c-.87,0-1.58.71-1.58,1.58v6.33c0,.87.71,1.58,1.58,1.58h1.58v-9.49s-1.58,0-1.58,0Z"/>
    <path class="cls-1" d="M20.77,53.1c-1.75,0-3.17-1.42-3.17-3.17v-11.08c0-1.75,1.42-3.17,3.17-3.17s3.17,1.42,3.17,3.17v11.08c0,1.75-1.42,3.17-3.17,3.17ZM20.77,37.28c-.87,0-1.58.71-1.58,1.58v11.08c0,.87.71,1.58,1.58,1.58s1.58-.71,1.58-1.58v-11.08c0-.87-.71-1.58-1.58-1.58ZM54,50.73h-2.38c-.44,0-.79-.36-.79-.79v-11.08c0-.44.36-.79.79-.79h2.38c1.75,0,3.17,1.42,3.17,3.17v6.33c0,1.75-1.42,3.17-3.17,3.17h0ZM52.41,49.15h1.58c.87,0,1.58-.71,1.58-1.58v-6.33c0-.87-.71-1.58-1.58-1.58h-1.58v9.49Z"/>
    <path class="cls-1" d="M49.23,53.1c-1.75,0-3.17-1.42-3.17-3.17v-11.08c0-1.75,1.42-3.17,3.17-3.17s3.17,1.42,3.17,3.17v11.08c0,1.75-1.42,3.17-3.17,3.17ZM49.23,37.28c-.87,0-1.58.71-1.58,1.58v11.08c0,.87.71,1.58,1.58,1.58s1.58-.71,1.58-1.58v-11.08c0-.87-.71-1.58-1.58-1.58ZM36.57,58.64h-3.17c-1.31,0-2.38-1.06-2.38-2.38s1.06-2.38,2.38-2.38h3.17c1.31,0,2.38,1.06,2.38,2.38s-1.06,2.38-2.38,2.38ZM33.4,55.47c-.44,0-.79.36-.79.79s.36.79.79.79h3.17c.44,0,.79-.36.79-.79s-.36-.79-.79-.79h-3.17Z"/>
    <path class="cls-1" d="M49.23,57.06h-11.08c-.44,0-.79-.34-.79-.76s.36-.76.79-.76h11.08c2.19,0,3.96-1.71,3.96-3.82v-1.53c0-.42.36-.76.79-.76s.79.34.79.76v1.53c0,2.95-2.48,5.34-5.54,5.34h0ZM53.19,38.44c-.44,0-.79-.38-.79-.85v-5.92c0-.82-.05-1.63-.15-2.43-.06-.47.25-.89.69-.96.44-.06.84.27.89.74.1.88.15,1.77.15,2.65v5.92c0,.47-.36.85-.79.85ZM16.8,38.44c-.44,0-.79-.38-.79-.85v-5.92c0-.89.06-1.77.17-2.65.06-.47.46-.8.89-.74.44.06.75.49.69.96h0c-.11.81-.16,1.62-.17,2.43v5.92c0,.47-.36.85-.79.85Z"/>
    <path class="cls-1" d="M53.04,28.73c-2.5-.04-4.74-1.54-5.73-3.84-2.99-6.8-10.93-9.88-17.73-6.88-3.12,1.37-5.6,3.89-6.94,7.02-.91,2.22-3.05,3.67-5.44,3.7h-.23c-.44,0-.79-.35-.8-.78v-.11c1.39-10.39,10.93-17.69,21.33-16.31,8.5,1.13,15.18,7.82,16.31,16.31.06.44-.25.83-.68.89h-.11.03,0ZM35,12.91c-8.37,0-15.55,5.96-17.11,14.18,1.47-.28,2.71-1.29,3.28-2.67,3.25-7.64,12.08-11.19,19.71-7.94,1.77.76,3.38,1.84,4.74,3.2,1.33,1.31,2.4,2.87,3.17,4.57.6,1.41,1.85,2.45,3.34,2.79-.66-3.42-2.33-6.57-4.79-9.04-3.27-3.28-7.71-5.11-12.34-5.08h0Z"/>
    <g class="cls-3">
      <text class="cls-2" transform="translate(29.83 34.01)"><tspan x="0" y="0">24</tspan></text>
    </g>
    <g>
      <path class="cls-1" d="M42.34,34.93s-.07,0-.1-.02c-.16-.06-.24-.23-.19-.39h0c.14-.38.24-.78.32-1.18.03-.17.19-.28.36-.24.17.03.28.19.24.36h0c-.08.43-.2.86-.34,1.27-.04.12-.16.2-.29.2Z"/>
      <path class="cls-1" d="M40.41,38c-.17,0-.31-.14-.31-.31,0-.08.03-.16.09-.21.36-.36.68-.76.97-1.18.09-.14.28-.18.43-.08s.18.28.08.43c-.31.46-.65.88-1.04,1.27-.06.06-.14.09-.22.09h0Z"/>
      <path class="cls-1" d="M41.71,24.83c-.11-.05-.24-.03-.33.05l-.9.79c-3.42-3.28-8.86-3.17-12.14.25-3.28,3.42-3.17,8.86.25,12.14,2.71,2.6,6.79,3.14,10.08,1.33.15-.08.2-.27.12-.42s-.27-.2-.42-.12c-3.86,2.12-8.71.72-10.84-3.14-2.12-3.86-.72-8.71,3.14-10.84,3.04-1.68,6.82-1.19,9.34,1.2l-1.09.95c-.13.11-.14.31-.03.43.06.07.14.11.23.11h2.45c.17,0,.31-.14.31-.31v-2.15c0-.12-.07-.23-.18-.28h.01Z"/>
      <path class="cls-1" d="M42.82,31.86c-.17,0-.3-.13-.31-.3,0-.4-.06-.79-.13-1.18-.03-.17.08-.33.25-.36.16-.03.32.08.35.24.08.42.13.85.15,1.27,0,.17-.13.31-.3.32h0Z"/>
    </g>
  </g>
</svg>