<?xml version="1.0" encoding="UTF-8"?>
<svg id="Layer_1" xmlns="http://www.w3.org/2000/svg" viewBox="0 0 70 70">
  <defs>
    <style>
      .cls-1 {
        fill: #fff;
      }

      .cls-2 {
        fill: #5138cc;
      }
    </style>
  </defs>
  <g id="Character">
    <rect class="cls-2" width="70" height="70" rx="12.56" ry="12.56"/>
  </g>
  <g>
    <path class="cls-1" d="M11.83,38.35c0-8.63,0-17.25,0-25.88.22-.52.64-.64,1.18-.64,14.66,0,29.32,0,43.98,0,.93,0,1.19.26,1.19,1.18,0,8.26,0,16.53,0,24.79,0,.16-.01.32-.02.51h-.67c-15.01,0-30.02,0-45.02,0-.21,0-.42.02-.63.03ZM35.01,13.49c-6.34-.02-11.56,5.17-11.6,11.56-.04,6.37,5.17,11.59,11.57,11.6,6.37.01,11.56-5.15,11.6-11.54.04-6.36-5.18-11.6-11.57-11.62Z"/>
    <path class="cls-1" d="M11.83,39.98c.17,0,.33,0,.5,0,15.08,0,30.17,0,45.25,0,.18,0,.36,0,.57,0,0,.89.03,1.76-.01,2.63-.02.37-.31.61-.7.65-.13.01-.27.02-.41.02-14.68,0-29.35,0-44.03,0-.51,0-.91-.12-1.17-.58v-2.71Z"/>
    <path class="cls-1" d="M26.22,58.17c.33-1,.67-2,.99-3,.08-.24.19-.37.45-.41,4.52-.73,6.49-6.2,3.25-9.69,0-.01-.02-.03-.05-.08h8.17c-.37.65-.85,1.3-1.14,2.03-1.32,3.4.76,7.07,4.36,7.74.32.06.48.18.57.51.3.98.64,1.94.96,2.91h-17.56Z"/>
    <path class="cls-2" d="M35.01,13.49c6.39.02,11.61,5.26,11.57,11.62-.04,6.39-5.22,11.55-11.6,11.54-6.41-.01-11.61-5.24-11.57-11.6.04-6.38,5.26-11.58,11.6-11.56ZM30.79,34.04c1.09.5,2.17.82,3.35.89.02-.26.04-.49.06-.72h1.6c.01.25.02.47.04.72,1.19-.07,2.28-.39,3.36-.89-.12-.23-.22-.44-.35-.68.48-.28.94-.54,1.41-.81.15.24.28.44.47.74.85-.85,1.65-1.65,2.48-2.49-.31-.2-.51-.33-.73-.48.27-.47.53-.93.8-1.4.23.12.44.22.69.35.5-1.08.81-2.17.89-3.35-.27-.02-.49-.04-.73-.06v-1.6c.26-.02.49-.03.74-.05-.11-1.19-.39-2.28-.91-3.35-.24.13-.44.23-.67.36-.28-.49-.54-.94-.81-1.4.23-.15.43-.28.65-.42-.68-.97-1.48-1.79-2.46-2.45-.15.23-.27.43-.41.64-.49-.29-.94-.55-1.4-.81.13-.25.23-.44.36-.68-1.07-.51-2.17-.81-3.36-.9-.02.26-.03.5-.05.75h-1.6c-.02-.26-.03-.5-.05-.76-1.19.12-2.29.39-3.35.92.12.24.23.43.35.67-.47.27-.94.54-1.41.81-.15-.24-.27-.43-.41-.65-.98.67-1.79,1.49-2.46,2.46.22.14.42.27.65.42-.27.47-.53.92-.81,1.39-.23-.12-.44-.23-.68-.35-.5,1.08-.81,2.17-.89,3.35.27.02.49.03.73.05v1.6c-.26.02-.49.04-.74.06.11,1.19.39,2.29.91,3.34.24-.12.45-.23.68-.35.27.48.53.93.8,1.4-.22.14-.42.27-.64.42.68.98,1.49,1.79,2.46,2.46.15-.23.27-.43.41-.65.48.28.93.54,1.4.81-.12.23-.22.43-.35.68Z"/>
    <path class="cls-1" d="M30.79,34.04c.13-.25.23-.44.35-.68-.47-.27-.92-.54-1.4-.81-.14.22-.26.42-.41.65-.97-.67-1.78-1.47-2.46-2.46.22-.15.42-.27.64-.42-.27-.47-.53-.92-.8-1.4-.23.12-.44.23-.68.35-.51-1.06-.8-2.15-.91-3.34.25-.02.48-.04.74-.06v-1.6c-.24-.02-.46-.03-.73-.05.08-1.18.39-2.27.89-3.35.24.12.45.23.68.35.27-.47.54-.92.81-1.39-.23-.15-.43-.28-.65-.42.68-.97,1.48-1.78,2.46-2.46.14.22.26.41.41.65.47-.27.93-.54,1.41-.81-.12-.24-.23-.44-.35-.67,1.06-.53,2.17-.8,3.35-.92.02.26.03.5.05.76h1.6c.02-.25.03-.49.05-.75,1.19.1,2.29.39,3.36.9-.12.23-.23.43-.36.68.46.27.91.53,1.4.81.14-.22.27-.41.41-.64.98.66,1.78,1.48,2.46,2.45-.21.14-.41.27-.65.42.27.47.53.92.81,1.4.23-.12.44-.23.67-.36.52,1.06.8,2.16.91,3.35-.25.02-.48.03-.74.05v1.6c.24.02.46.04.73.06-.08,1.18-.39,2.27-.89,3.35-.25-.13-.46-.23-.69-.35-.27.47-.53.93-.8,1.4.22.14.42.27.73.48-.84.84-1.64,1.64-2.48,2.49-.19-.3-.32-.5-.47-.74-.46.27-.92.53-1.41.81.13.25.23.46.35.68-1.08.5-2.16.82-3.36.89-.01-.25-.02-.47-.04-.72h-1.6c-.02.23-.04.46-.06.72-1.18-.07-2.27-.39-3.35-.89ZM32.5,24.24c-.79,0-1.54,0-2.29,0-.68,0-.99.33-.99,1.01,0,.98,0,1.96,0,2.94,0,.71.31,1.02,1.02,1.02.95,0,1.9,0,2.85,0,.69,0,1.08-.3,1.08-.82,0-.52-.38-.82-1.07-.82-.57,0-1.15,0-1.72,0-.16,0-.32,0-.49,0v-1.67c.8,0,1.56.01,2.33,0,.62-.01.95-.3.96-.9.02-1.05.02-2.11,0-3.16-.01-.56-.32-.87-.88-.88-1.07-.02-2.14-.02-3.21,0-.52,0-.86.35-.87.8-.01.46.35.82.88.84.53.02,1.05,0,1.58,0,.27,0,.53,0,.82,0v1.65ZM39.15,25.9c0,.22,0,.39,0,.55,0,.63-.01,1.27,0,1.9.01.51.36.86.81.86.45,0,.79-.34.83-.85,0-.09,0-.18,0-.27,0-2,0-4.01,0-6.01,0-.15,0-.3-.03-.45-.09-.42-.43-.68-.84-.67-.41.02-.73.31-.76.75-.03.31-.01.63-.01.95,0,.52,0,1.04,0,1.56h-1.67c0-.44,0-.84,0-1.25,0-.45.01-.91-.04-1.35-.04-.39-.31-.61-.7-.65-.41-.04-.71.14-.84.53-.06.17-.07.35-.07.53,0,.87,0,1.75,0,2.62,0,1.01.23,1.24,1.26,1.24.67,0,1.35,0,2.07,0Z"/>
    <path class="cls-2" d="M32.5,24.24v-1.65c-.29,0-.55,0-.82,0-.53,0-1.06.02-1.58,0-.53-.02-.89-.38-.88-.84,0-.45.35-.79.87-.8,1.07-.02,2.14-.02,3.21,0,.56,0,.87.32.88.88.02,1.05.02,2.11,0,3.16-.01.6-.33.89-.96.9-.77.01-1.53,0-2.33,0v1.67c.17,0,.33,0,.49,0,.57,0,1.15,0,1.72,0,.69,0,1.08.3,1.07.82,0,.52-.4.82-1.08.82-.95,0-1.9,0-2.85,0-.71,0-1.02-.31-1.02-1.02,0-.98,0-1.96,0-2.94,0-.68.31-1,.99-1.01.75-.01,1.5,0,2.29,0Z"/>
    <path class="cls-2" d="M39.15,25.9c-.72,0-1.39,0-2.07,0-1.02,0-1.26-.23-1.26-1.24,0-.87,0-1.75,0-2.62,0-.18.01-.37.07-.53.13-.39.43-.57.84-.53.39.04.66.26.7.65.05.45.03.9.04,1.35,0,.4,0,.81,0,1.25h1.67c0-.51,0-1.04,0-1.56,0-.32-.01-.63.01-.95.03-.43.35-.73.76-.75.42-.02.76.24.84.67.03.15.03.3.03.45,0,2,0,4.01,0,6.01,0,.09,0,.18,0,.27-.04.5-.38.85-.83.85-.45,0-.79-.35-.81-.86-.02-.63,0-1.27,0-1.9,0-.16,0-.32,0-.55Z"/>
  </g>
</svg>