<?xml version="1.0" encoding="UTF-8"?>
<svg id="Layer_1" xmlns="http://www.w3.org/2000/svg" viewBox="0 0 70 70">
  <defs>
    <style>
      .cls-1 {
        fill: #fff;
      }

      .cls-2 {
        fill: #5138cc;
      }
    </style>
  </defs>
  <g id="Character">
    <rect class="cls-2" width="70" height="70" rx="12.56" ry="12.56"/>
  </g>
  <g>
    <path class="cls-1" d="M52.12,9.73c.61-.05,1.23.43,1.34,1.02v7.21c-.26,1.3-2.11,1.3-2.37,0v-7.21c.08-.42.59-.98,1.02-1.02Z"/>
    <path class="cls-1" d="M18.66,12.1c.5-.11,1.31.12,1.45.7v7.64c-.24,1.01-2.01,1.09-2.26-.11v-7.42l.81-.81Z"/>
    <path class="cls-1" d="M35.12,14.36c12.57-.92,18.55,14.81,9.04,22.49-8.72,7.04-21.93-.13-20.5-11.57.7-5.64,5.77-10.51,11.46-10.92ZM35.76,18.99c-.8.22-.74,1.57-.7,2.21-2.22.51-3.7,2.89-2.37,4.95,1.14,1.76,5.43,2.1,5.27,3.44l-.81.81c-1.89.84-3.05-1.02-4.2-.75-1.23.28-1.34,2.36,2.04,3.12-.33,3.03,2.74,3.04,2.31.05,2.09-.74,3.77-2.75,2.47-4.95-1.24-2.11-7-2.39-4.9-4.14,1.94-1.62,4.38,1.86,5.22-.05.67-1.51-1.75-2.21-2.8-2.58.18-1.12-.11-2.49-1.56-2.1Z"/>
    <path class="cls-1" d="M56.53,14.36c.63-.14,1.36.35,1.45.7v7.75c-.24,1-2.03.9-2.26-.11v-7.53l.81-.81Z"/>
    <path class="cls-1" d="M14.03,18.99c.73-.17,1.42.29,1.56,1.02v7.1c-.25,1.33-2.12,1.35-2.37,0v-7.1c.06-.32.47-.94.81-1.02Z"/>
    <path class="cls-1" d="M54.59,26.95c.43,0,1.04.49,1.13.91v11.19c.9-.49,1.77-2.36,2.96-1.56.56.38.57,1.12.27,1.67-.14.26-3.79,3.9-4.25,3.93-.25-.07-.5-.14-.75-.22-1.31-1.34-2.62-2.69-3.93-4.03-.3-1.27.98-2.64,3.44.22v-11.3c.09-.36.79-.81,1.13-.81Z"/>
    <path class="cls-1" d="M11.88,43.95h4.3c.41.09.84.62.91,1.02v13.66c-.07.34-.59.95-.91,1.02h-4.3c-.28-.06-.85-.63-.91-.91-.15-.68-.15-13.2,0-13.88.07-.32.59-.85.91-.91Z"/>
    <path class="cls-1" d="M28.34,43.95h1.94c3.69,1.18,7.39,2.37,11.08,3.55,1.34.71,1.07,2.43.22,2.91-1.39.77-7.34-1.54-8.39-.75-.5.37-.68,1.62.43,2.04,2.12.39,4.23.79,6.35,1.18,1.15.08,2.35-.05,3.23-.86,2.29-.13,13.78-2.25,14.74-2.04,1.1.23,1.93,2.2.32,3.23-7.03,2.33-14.06,4.66-21.09,6.99-4.47.74-8.55-4.31-12.8-4.09-1.65.29-3.3.57-4.95.86-.02-3.35-.04-6.71-.05-10.06,2.99-.99,5.99-1.97,8.98-2.96Z"/>
  </g>
</svg>