<?xml version="1.0" encoding="UTF-8"?>
<svg id="Layer_1" xmlns="http://www.w3.org/2000/svg" viewBox="0 0 70 70">
  <defs>
    <style>
      .cls-1 {
        fill: #eae5ff;
      }

      .cls-2 {
        fill: #5138cc;
      }
    </style>
  </defs>
  <g id="Character">
    <rect class="cls-2" x="-.07" y="-.18" width="70" height="70" rx="12.56" ry="12.56"/>
  </g>
  <g>
    <path class="cls-1" d="M34.98,46.14c0,.27,0,.47,0,.68,0,3.1,0,6.21,0,9.31,0,1.49-.54,2.23-1.95,2.71-3.36,1.13-7.04-.41-8.59-3.62-.17-.35-.36-.47-.73-.5-4.69-.48-8.06-3.68-8.74-8.35-.12-.83-.02-1.69.02-2.54.02-.33-.02-.52-.32-.72-5.98-3.86-5.98-12.36,0-16.2.3-.19.37-.39.32-.72-.79-5.37,3.11-10.35,8.51-10.86.52-.05.79-.23,1.04-.71,1.57-3.09,5.21-4.54,8.49-3.44,1.41.47,1.95,1.22,1.95,2.7,0,3.1,0,6.21,0,9.31,0,.2,0,.41,0,.68.35,0,.66.02.96,0,.29-.02.44.1.52.38.23.74.46,1.49.73,2.22.07.18.25.36.42.46.62.38,1.24.75,1.88,1.09.19.1.45.16.65.13.75-.12,1.5-.28,2.24-.46.32-.08.48.01.63.28.56,1,1.13,1.99,1.72,2.97.15.25.13.43-.07.64-.52.56-1.04,1.12-1.52,1.71-.14.16-.22.42-.22.64-.03.73-.03,1.45,0,2.18,0,.22.08.47.22.64.49.59,1,1.15,1.52,1.71.2.21.23.38.07.64-.58.98-1.15,1.97-1.72,2.97-.15.26-.3.36-.62.28-.74-.18-1.49-.34-2.24-.46-.22-.04-.49.05-.7.16-.61.32-1.21.67-1.79,1.04-.2.13-.4.32-.48.53-.26.66-.48,1.34-.67,2.02-.11.4-.3.59-.73.53-.24-.03-.48,0-.81,0ZM23.73,16.78c-.26.04-.49.07-.71.1-4.09.67-7.1,4.72-6.59,8.82.14,1.15.49,2.22,1.06,3.23.34.6,0,1.24-.62,1.17-.25-.03-.54-.24-.68-.46-.3-.45-.51-.96-.78-1.48-2.6,1.82-3.88,4.25-3.69,7.36.16,2.69,1.44,4.78,3.7,6.28.31-.58.56-1.12.86-1.62.22-.36.59-.42.96-.24.39.19.46.54.34.93-.04.13-.13.25-.19.37-1.38,2.63-1.39,5.27.04,7.86,1.35,2.44,3.5,3.76,6.26,4.11.03-.08.06-.13.06-.18,0-1.6.02-3.19,0-4.79,0-.17-.14-.37-.27-.51-.47-.5-.99-.97-1.45-1.48-.43-.48-.42-.92-.06-1.23.36-.3.81-.21,1.2.28,1.16,1.43,2.63,2.39,4.43,2.84.56.14.83.52.71.96-.11.44-.52.64-1.08.48-.64-.18-1.27-.4-2.02-.64,0,1.13,0,2.2,0,3.28.04,3.78,3.87,6.44,7.43,5.16.68-.24.81-.42.81-1.15,0-3.19,0-6.38,0-9.58,0-.17-.02-.33-.03-.52-.3,0-.55-.03-.78,0-.43.06-.62-.13-.73-.53-.19-.68-.41-1.36-.66-2.02-.08-.21-.28-.41-.48-.54-.6-.38-1.22-.73-1.84-1.06-.18-.1-.41-.16-.61-.13-.75.13-1.5.27-2.24.46-.37.09-.53-.03-.7-.33-.53-.95-1.07-1.9-1.64-2.83-.21-.34-.15-.54.1-.81.5-.52.99-1.07,1.46-1.63.14-.16.21-.42.22-.64.03-.71.03-1.42,0-2.13-.01-.25-.11-.54-.26-.73-.47-.58-1-1.11-1.47-1.68-.11-.13-.16-.43-.09-.57.56-1.04,1.15-2.06,1.77-3.06.08-.14.37-.25.53-.23.79.13,1.56.32,2.34.46.18.03.4-.03.56-.12.65-.36,1.3-.73,1.93-1.12.17-.11.35-.28.42-.47.26-.7.49-1.41.69-2.12.1-.37.29-.51.67-.47.27.03.54,0,.82,0,.01-.17.03-.28.03-.38,0-3.28,0-6.56,0-9.84,0-.54-.25-.82-.73-1-3.23-1.24-6.95.89-7.41,4.33-.17,1.23-.08,2.49-.1,3.74,0,.11.03.22.05.33.7-.22,1.35-.45,2.01-.64.53-.15.92.05,1.04.48.12.43-.13.82-.65.95-1.85.46-3.36,1.44-4.54,2.93-.33.42-.79.49-1.13.21-.35-.28-.38-.74-.02-1.15.46-.52.96-1,1.44-1.5.12-.13.3-.29.3-.44.02-1.68.01-3.36.01-5.11ZM34,39.9c-.18-.72-.44-.98-.94-.9-.55.08-1.09.18-1.63.32-.58.15-.79.69-.45,1.17.33.47.69.91,1.07,1.34.33.37.89.37,1.12-.05.2-.36.44-.35.76-.34,4.9.17,8.24-4.88,6.11-9.23-.27-.56-.63-.74-1.06-.55-.46.2-.57.61-.3,1.19.37.79.53,1.61.48,2.47-.14,2.64-2.59,4.84-5.17,4.59ZM34.45,30.07c.15.75.42,1.03.95.94.55-.09,1.09-.21,1.62-.36.58-.16.78-.7.43-1.17-.34-.46-.7-.9-1.09-1.32-.35-.38-.87-.34-1.15.1-.16.25-.33.27-.58.29-.71.04-1.43.04-2.11.22-3.88,1.01-5.88,5.45-4.1,9.03.19.38.43.64.88.57.53-.08.76-.6.5-1.17-.5-1.05-.65-2.15-.4-3.29.5-2.33,2.81-4.1,5.07-3.84Z"/>
    <path class="cls-1" d="M40.15,26.72c-.42-.26-.82-.5-1.26-.77.13-.18.23-.33.35-.47,1.87-2.39,3.74-4.78,5.62-7.16.23-.29.28-.5.08-.86-.74-1.29-.42-2.9.71-3.86,1.1-.93,2.74-.96,3.89-.06,1.15.9,1.52,2.47.88,3.79-.63,1.3-2.11,2.02-3.52,1.64-.46-.13-.67,0-.93.34-1.8,2.33-3.63,4.64-5.44,6.96-.12.15-.24.29-.37.46Z"/>
    <path class="cls-1" d="M38.88,44.06c.44-.27.83-.51,1.26-.78.13.16.25.3.36.44,1.83,2.33,3.66,4.66,5.48,7,.25.32.45.45.89.32,1.43-.4,2.92.33,3.55,1.66.63,1.33.25,2.88-.92,3.78-1.16.89-2.8.84-3.89-.1-1.12-.97-1.42-2.6-.67-3.87.2-.35.13-.54-.08-.81-1.87-2.37-3.72-4.74-5.58-7.11-.12-.16-.24-.32-.39-.52Z"/>
    <path class="cls-1" d="M44.4,35.74v-1.48c.19,0,.39,0,.59,0,2.7,0,5.41,0,8.11,0,.41,0,.63-.09.8-.51.56-1.37,2.02-2.08,3.5-1.78,1.41.29,2.42,1.58,2.41,3.05-.01,1.45-1.03,2.71-2.42,2.99-1.49.3-2.96-.44-3.51-1.84-.14-.36-.32-.45-.68-.45-2.74.01-5.48,0-8.22,0-.19,0-.37,0-.58,0Z"/>
    <path class="cls-1" d="M45.06,41.32c.31-.53.52-.95.78-1.33.08-.11.29-.18.44-.18,1.07-.01,2.15,0,3.22-.01.43,0,.71.17.95.52.74,1.09,1.5,2.16,2.24,3.25.19.27.34.37.7.29,1.82-.38,3.43.74,3.74,2.55.29,1.67-.92,3.29-2.68,3.52-1.24.17-2.26-.31-2.94-1.36-.7-1.08-.75-2.22-.06-3.33.23-.36.21-.58-.03-.9-.56-.75-1.12-1.5-1.59-2.31-.35-.59-.77-.77-1.43-.73-.9.06-1.8.01-2.7.01h-.65Z"/>
    <path class="cls-1" d="M45.06,28.68c1.09,0,2.05-.07,2.99.02.93.09,1.55-.18,2-1.04.4-.74.94-1.41,1.44-2.1.19-.26.22-.44.03-.73-.81-1.22-.68-2.75.28-3.79.96-1.04,2.46-1.31,3.71-.67,1.21.63,1.88,1.99,1.62,3.31-.29,1.44-1.43,2.44-2.9,2.54-.17.01-.36.03-.51-.04-.62-.27-.91.06-1.22.54-.64.99-1.34,1.94-2,2.91-.27.4-.6.57-1.09.56-1-.02-2.01-.02-3.02,0-.34,0-.54-.1-.69-.41-.16-.34-.37-.66-.64-1.11Z"/>
  </g>
</svg>