<?xml version="1.0" encoding="UTF-8"?>
<svg id="Layer_1" xmlns="http://www.w3.org/2000/svg" viewBox="0 0 32 32">
  <defs>
    <style>
      .cls-1 {
        font-family: Poppins-Bold, Poppins;
        font-size: 2.67px;
        font-weight: 700;
      }

      .cls-1, .cls-2 {
        fill: #fff;
      }

      .cls-3 {
        fill: #6b46f2;
      }
    </style>
  </defs>
  <rect class="cls-2" width="32" height="32" rx="7.27" ry="7.27"/>
  <g>
    <g>
      <path class="cls-3" d="M10.74,5.34h1.4l.07.07c0,.74.02,1.48.02,2.22h2.99c.02-.76.03-1.53.05-2.29.49,0,.98.02,1.47.02,0,.76.02,1.51.02,2.27h2.99c0-.74.02-1.48.02-2.22l.07-.07h1.4l.07.07v2.2c1.78.15,2.91,1.29,3.06,3.06h2.2l.07.07v1.4l-.07.07c-.74,0-1.48.02-2.22.02v2.99c.76.02,1.53.03,2.29.05,0,.49-.02.98-.02,1.47-.76,0-1.51.02-2.27.02v2.99c.74,0,1.48.02,2.22.02l.07.07v1.4l-.07.07h-2.2c-.15,1.78-1.29,2.91-3.06,3.06v2.2l-.07.07h-1.4l-.07-.07c0-.74-.02-1.48-.02-2.22h-2.99c-.02.76-.03,1.53-.05,2.29-.49,0-.98-.02-1.47-.02,0-.76-.02-1.51-.02-2.27h-2.99c0,.74-.02,1.48-.02,2.22l-.07.07h-1.4l-.07-.07v-2.2c-1.77-.15-2.92-1.29-3.06-3.06h-2.2l-.07-.07v-1.4l.07-.07c.74,0,1.48-.02,2.22-.02v-2.99c-.76-.02-1.53-.03-2.29-.05,0-.49.02-.98.02-1.47.76,0,1.51-.02,2.27-.02v-2.99c-.74,0-1.48-.02-2.22-.02l-.07-.07v-1.4l.07-.07h2.2c.14-1.78,1.3-2.91,3.06-3.06v-2.2l.07-.07ZM12.75,10.67c-1.06.12-1.96,1.02-2.08,2.08v6.5c.12,1.06,1.02,1.96,2.08,2.08h6.5c1.07-.12,1.96-1.01,2.08-2.08v-6.5c-.12-1.07-1.01-1.96-2.08-2.08h-6.5Z"/>
      <path class="cls-3" d="M12.75,12.21c.32-.07,6.18-.07,6.5,0,.2.04.5.39.54.58v6.4c-.04.2-.34.54-.54.58-.32.07-6.18.07-6.5,0-.16-.03-.5-.38-.54-.54-.07-.32-.07-6.18,0-6.5.03-.16.38-.5.54-.54Z"/>
    </g>
    <text class="cls-1" transform="translate(12.83 16.76)"><tspan x="0" y="0">AMD</tspan></text>
  </g>
</svg>