<svg width="12" height="6" viewBox="0 0 12 6" fill="none" xmlns="http://www.w3.org/2000/svg">
<g clip-path="url(#clip0_1_2)">
<path d="M10.25 0.156913L5.91206 4.76792C5.81741 4.86904 5.68965 4.92577 5.55651 4.92577C5.42337 4.92577 5.2956 4.86904 5.20095 4.76792L0.862062 0.157913C0.766596 0.0573118 0.638499 0.00100041 0.505118 0.00100041C0.371737 0.00100041 0.243639 0.0573118 0.148173 0.157913C0.101277 0.20729 0.0640061 0.266306 0.0385582 0.331483C0.0131104 0.396659 0 0.466678 0 0.537413C0 0.608147 0.0131104 0.678166 0.0385582 0.743343C0.0640061 0.80852 0.101277 0.867536 0.148173 0.916913L4.48521 5.52692C4.77088 5.82984 5.15523 5.99956 5.55558 5.99956C5.95593 5.99956 6.34028 5.82984 6.62595 5.52692L10.963 0.916913C11.01 0.86752 11.0474 0.808443 11.0729 0.743173C11.0985 0.677904 11.1116 0.607768 11.1116 0.536913C11.1116 0.466058 11.0985 0.395922 11.0729 0.330652C11.0474 0.265383 11.01 0.206306 10.963 0.156913C10.8675 0.0563119 10.7394 0 10.606 0C10.4727 0 10.3455 0.0563119 10.25 0.156913Z" fill="white"/>
</g>
<defs>
<clipPath id="clip0_1_2">
<rect width="12" height="6" fill="white"/>
</clipPath>
</defs>
</svg>
