<svg width="12" height="6" viewBox="0 0 12 6" fill="none" xmlns="http://www.w3.org/2000/svg">
<path d="M10.25 0.157127L5.91206 4.76813C5.81741 4.86925 5.68965 4.92598 5.55651 4.92598C5.42337 4.92598 5.2956 4.86925 5.20095 4.76813L0.862062 0.158127C0.766596 0.0575254 0.638499 0.00121403 0.505118 0.00121403C0.371737 0.00121403 0.243639 0.0575254 0.148173 0.158127C0.101277 0.207504 0.0640061 0.26652 0.0385582 0.331697C0.0131104 0.396873 0 0.466892 0 0.537627C0 0.608361 0.0131104 0.67838 0.0385582 0.743557C0.0640061 0.808734 0.101277 0.86775 0.148173 0.917127L4.48521 5.52713C4.77088 5.83005 5.15523 5.99977 5.55558 5.99977C5.95593 5.99977 6.34028 5.83005 6.62595 5.52713L10.963 0.917127C11.01 0.867734 11.0474 0.808657 11.0729 0.743387C11.0985 0.678118 11.1116 0.607982 11.1116 0.537127C11.1116 0.466272 11.0985 0.396136 11.0729 0.330866C11.0474 0.265597 11.01 0.20652 10.963 0.157127C10.8675 0.0565255 10.7394 0.000213623 10.606 0.000213623C10.4727 0.000213623 10.3455 0.0565255 10.25 0.157127Z" fill="#121212"/>
</svg>
