<svg width="454" height="85" viewBox="0 0 454 85" fill="none" xmlns="http://www.w3.org/2000/svg">
<path d="M58.9772 1H4C1.79086 1 0 2.79086 0 5V33.2748C0 35.4839 1.79086 37.2748 4 37.2748H58.9772C61.1863 37.2748 62.9772 35.4839 62.9772 33.2748V5C62.9772 2.79086 61.1863 1 58.9772 1Z" fill="white"/>
<path d="M131.737 1H76.7598C74.5506 1 72.7598 2.79086 72.7598 5V33.2748C72.7598 35.4839 74.5506 37.2748 76.7598 37.2748H131.737C133.946 37.2748 135.737 35.4839 135.737 33.2748V5C135.737 2.79086 133.946 1 131.737 1Z" fill="white"/>
<path d="M204.65 0H149.673C147.464 0 145.673 1.79086 145.673 4V32.2748C145.673 34.4839 147.464 36.2748 149.673 36.2748H204.65C206.859 36.2748 208.65 34.4839 208.65 32.2748V4C208.65 1.79086 206.859 0 204.65 0Z" fill="white"/>
<path d="M277.41 0H222.433C220.223 0 218.433 1.79086 218.433 4V32.2748C218.433 34.4839 220.223 36.2748 222.433 36.2748H277.41C279.619 36.2748 281.41 34.4839 281.41 32.2748V4C281.41 1.79086 279.619 0 277.41 0Z" fill="white"/>
<path d="M350.323 0H295.346C293.137 0 291.346 1.79086 291.346 4V32.2748C291.346 34.4839 293.137 36.2748 295.346 36.2748H350.323C352.532 36.2748 354.323 34.4839 354.323 32.2748V4C354.323 1.79086 352.532 0 350.323 0Z" fill="white"/>
<path d="M58.9772 47.8701H4C1.79086 47.8701 0 49.661 0 51.8701V80.1449C0 82.3541 1.79086 84.1449 4 84.1449H58.9772C61.1863 84.1449 62.9772 82.3541 62.9772 80.1449V51.8701C62.9772 49.661 61.1863 47.8701 58.9772 47.8701Z" fill="white"/>
<path d="M131.737 47.8701H76.7598C74.5506 47.8701 72.7598 49.661 72.7598 51.8701V80.1449C72.7598 82.3541 74.5506 84.1449 76.7598 84.1449H131.737C133.946 84.1449 135.737 82.3541 135.737 80.1449V51.8701C135.737 49.661 133.946 47.8701 131.737 47.8701Z" fill="white"/>
<path d="M204.65 46.8701H149.673C147.464 46.8701 145.673 48.661 145.673 50.8701V79.1449C145.673 81.3541 147.464 83.1449 149.673 83.1449H204.65C206.859 83.1449 208.65 81.3541 208.65 79.1449V50.8701C208.65 48.661 206.859 46.8701 204.65 46.8701Z" fill="white"/>
<path d="M277.41 46.8701H222.433C220.223 46.8701 218.433 48.661 218.433 50.8701V79.1449C218.433 81.3541 220.223 83.1449 222.433 83.1449H277.41C279.619 83.1449 281.41 81.3541 281.41 79.1449V50.8701C281.41 48.661 279.619 46.8701 277.41 46.8701Z" fill="white"/>
<path d="M350.323 46.8701H295.346C293.137 46.8701 291.346 48.661 291.346 50.8701V79.1449C291.346 81.3541 293.137 83.1449 295.346 83.1449H350.323C352.532 83.1449 354.323 81.3541 354.323 79.1449V50.8701C354.323 48.661 352.532 46.8701 350.323 46.8701Z" fill="white"/>
<path d="M25.3744 26.648H21.7058L23.9987 12.2969H27.6672L25.3744 26.648Z" fill="#0458A0"/>
<path d="M38.8258 12.6023C37.8097 12.1789 36.7166 11.971 35.6158 11.9916C31.7944 11.9916 29.1958 13.9764 29.1958 16.7245C29.1958 19.4726 31.0301 19.9306 32.5587 20.6939C34.0872 21.4573 34.3929 21.9153 34.3929 22.526C34.3929 23.1367 33.323 23.9 32.253 23.9C31.0401 23.8972 29.8418 23.637 28.7372 23.1367L28.1258 22.8313L27.6672 26.1901C28.9938 26.6612 30.3869 26.9188 31.7944 26.9535C35.7687 26.9535 38.3672 24.9687 38.3672 21.9153C38.3672 18.8619 37.2972 19.0145 35.1572 18.0985C33.0172 17.1825 33.1701 16.8771 33.1701 16.2664C33.1701 15.6558 33.7815 15.0451 35.3101 15.0451C36.2412 15.0975 37.1638 15.2511 38.0615 15.5031L38.3672 15.8084L38.8258 12.6023Z" fill="#0458A0"/>
<path d="M43.8701 21.6097L45.3987 17.4876C45.2458 17.6402 45.7044 16.7242 45.8572 16.1135V17.3349L46.7744 21.6097H43.8701ZM48.4558 12.2967H45.5515C45.1337 12.265 44.7165 12.3661 44.3596 12.5854C44.0027 12.8048 43.7244 13.1312 43.5644 13.5181L38.0615 26.6479H42.0358L42.8001 24.5105H47.5387L47.9972 26.6479H51.513L48.4558 12.2967Z" fill="#0458A0"/>
<path d="M18.4959 12.2969L14.8273 22.0679L14.5216 20.0831C13.5398 17.5524 11.7008 15.4455 9.32446 14.1289L12.6873 26.648H16.6616L22.4702 12.2969H18.4959Z" fill="#0458A0"/>
<path d="M11.4644 12.2969H5.50293V12.6023C7.52549 13.0103 9.41788 13.9049 11.0161 15.2085C12.6142 16.5121 13.87 18.1854 14.6744 20.0832L13.2986 13.5183C13.2243 13.1405 13.0097 12.8046 12.6978 12.5781C12.386 12.3516 12 12.2512 11.6172 12.2969H11.4644Z" fill="#FAA71B"/>
<path d="M334.604 24.4279H332.312L335.522 12.5195H337.967L334.604 24.4279Z" fill="#67696D"/>
<path d="M333.381 12.8249L332.617 12.5195H319.471L318.86 14.8096H330.783L330.171 17.405H318.249L316.261 24.4279H318.554L319.93 19.6951H330.63L331.547 19.3898L332.159 18.4737L333.534 13.7409C333.571 13.4273 333.518 13.1098 333.381 12.8249Z" fill="#67696D"/>
<path d="M314.886 23.6646C314.799 23.8804 314.652 24.0669 314.462 24.2021C314.273 24.3373 314.048 24.4157 313.816 24.4279H301.587C301.445 24.44 301.301 24.4187 301.169 24.3657C301.036 24.3127 300.918 24.2294 300.823 24.1226C300.718 23.9974 300.648 23.8464 300.622 23.6853C300.595 23.5243 300.611 23.359 300.67 23.2066L303.727 12.5195H306.02L303.421 22.1379H312.899L315.497 12.5195H317.943L314.886 23.6646Z" fill="#67696D"/>
<path d="M342.094 12.5195L344.999 18.4737L338.731 24.4279L342.094 12.5195Z" fill="#2A813F"/>
<path d="M339.954 12.5195L343.012 18.4737L336.592 24.4279L339.954 12.5195Z" fill="#E86724"/>
<path d="M53.4998 61.1523L56.2512 66.6485L50.4426 72.2974L53.4998 61.1523Z" fill="#078C45"/>
<path d="M51.5127 61.1523L54.417 66.6485L48.4556 72.2974L51.5127 61.1523Z" fill="#F47A20"/>
<path d="M6.72559 70.3126L9.47701 60.2363H13.9099C14.8709 60.0973 15.8497 60.3145 16.6613 60.847C17.2727 61.305 17.2727 62.0684 16.967 63.1371C16.807 63.688 16.548 64.2053 16.2027 64.6638L14.827 65.5798C15.2856 65.7325 15.5913 65.8852 15.7442 66.3432C15.9075 66.839 15.9075 67.3741 15.7442 67.8699L15.4384 69.2439C15.2856 69.702 15.2856 69.8546 15.4384 69.8546V70.3126H12.3813V69.5493C12.3813 69.3966 12.3813 69.2439 12.5342 69.2439V68.1752C12.64 67.829 12.6915 67.4685 12.687 67.1065C12.5629 66.996 12.4176 66.912 12.2599 66.8595C12.1022 66.807 11.9355 66.7872 11.7699 66.8012H10.547L9.62987 70.3126H6.72559ZM11.1584 64.5111H13.6042C13.7509 64.4478 13.8741 64.34 13.9564 64.2031C14.0387 64.0662 14.0758 63.9069 14.0627 63.7478C14.1496 63.6394 14.1969 63.5048 14.1969 63.3661C14.1969 63.2273 14.1496 63.0927 14.0627 62.9844H11.7699L11.1584 64.5111Z" fill="#28387E"/>
<path d="M25.2212 62.832L23.234 70.3129H20.7883L21.094 69.0916L19.7183 70.1603L18.3426 70.4656L17.2726 70.1603C16.9577 70.0459 16.6892 69.8313 16.5083 69.5496C16.5083 69.2442 16.3555 68.9389 16.3555 68.6336C16.4087 67.9529 16.5633 67.284 16.814 66.6488L17.884 62.832H20.6355L19.5655 66.6488C19.4558 67.0465 19.4043 67.4578 19.4126 67.8702C19.4838 67.965 19.5761 68.042 19.6822 68.095C19.7884 68.1479 19.9054 68.1755 20.024 68.1755C20.2031 68.182 20.3809 68.1434 20.5411 68.0634C20.7014 67.9834 20.8389 67.8645 20.9412 67.7175C21.2469 67.5649 21.3998 67.1068 21.5526 66.6488L22.6226 62.832H25.2212Z" fill="#28387E"/>
<path d="M24.3042 70.3127L27.0556 60.2363H32.8642L33.9342 60.6943C34.3228 61.0009 34.5929 61.4325 34.6985 61.9157C34.7111 62.4795 34.6598 63.0429 34.5456 63.5951C34.2621 64.6107 33.6756 65.516 32.8642 66.1905C31.9798 66.6949 30.9783 66.9581 29.9599 66.9539H28.1256L27.3613 70.3127H24.3042ZM28.8899 64.6638H31.1828L31.6413 63.9005C31.7942 63.4424 31.7942 63.1371 31.4885 62.9844H29.3485L28.8899 64.6638Z" fill="#28387E"/>
<path d="M37.7555 70.313V69.5496L36.3797 70.313H35.004C34.6949 70.363 34.378 70.3331 34.0837 70.2262C33.7894 70.1193 33.5274 69.939 33.3226 69.7023C33.0169 69.3969 33.0169 68.7862 33.1697 68.0229C33.339 67.3639 33.7137 66.7757 34.2397 66.3435C35.0523 65.9334 35.9329 65.6747 36.8383 65.5801H37.4497C38.3669 65.4275 38.8255 65.2748 38.9783 64.8168C38.9853 64.7341 38.9754 64.6508 38.9491 64.572C38.9228 64.4933 38.8808 64.4207 38.8255 64.3588H37.4497L36.9912 64.9694H34.3926C34.5748 64.1541 35.0684 63.442 35.7683 62.9847C36.6905 62.6043 37.6751 62.3972 38.6726 62.374H40.2012L41.2712 62.832L41.7297 63.7481C41.738 64.1604 41.6866 64.5718 41.5769 64.9694L40.354 69.0916V69.5496H40.5069V69.8549L37.7555 70.313ZM38.3669 66.9542L37.2969 67.2595C37.0276 67.2865 36.7667 67.3681 36.5301 67.4994C36.2936 67.6306 36.0864 67.8088 35.9212 68.0229C35.9212 68.3282 35.9212 68.4809 36.074 68.6336H36.5326L37.6026 68.3282C37.7924 68.186 37.9465 68.0016 38.0527 67.7896C38.1588 67.5776 38.214 67.3439 38.214 67.1068C38.2546 67.1068 38.2934 67.0908 38.3221 67.0621C38.3508 67.0335 38.3669 66.9947 38.3669 66.9542Z" fill="#28387E"/>
<path d="M40.5068 73.2137L41.1183 70.9236H42.494C42.6468 70.9236 42.7997 70.771 42.7997 70.4656V69.7023L42.494 62.832H45.2454V67.2595L47.5383 62.832H50.1368L45.8568 70.1603C45.5899 70.7723 45.2289 71.3389 44.7868 71.8397L44.1754 72.603C43.9402 72.868 43.6117 73.0321 43.2583 73.061H40.5068" fill="#28387E"/>
<path d="M199.326 62.9009C199.181 62.2956 198.824 61.7622 198.319 61.3979C197.814 61.0336 197.195 60.8626 196.574 60.9161C196.171 60.8921 195.767 60.9624 195.396 61.1214C195.024 61.2804 194.695 61.5238 194.434 61.8322C193.87 61.2569 193.101 60.9276 192.294 60.9161C191.577 60.8523 190.864 61.0715 190.307 61.5268C190.307 61.4667 190.295 61.4071 190.272 61.3516C190.249 61.296 190.215 61.2455 190.173 61.203C190.13 61.1604 190.08 61.1267 190.024 61.1037C189.968 61.0807 189.909 61.0688 189.849 61.0688H187.861C187.74 61.0688 187.623 61.1171 187.537 61.203C187.451 61.2889 187.403 61.4054 187.403 61.5268V72.3665C187.403 72.488 187.451 72.6045 187.537 72.6904C187.623 72.7763 187.74 72.8245 187.861 72.8245H189.849C189.97 72.8245 190.087 72.7763 190.173 72.6904C190.259 72.6045 190.307 72.488 190.307 72.3665V64.4276C190.307 64.2656 190.372 64.1103 190.486 63.9958C190.601 63.8812 190.756 63.8169 190.919 63.8169H191.377C191.53 63.8169 191.683 63.8169 191.683 63.9696C191.683 64.1222 191.989 64.2749 191.989 64.4276V72.2138C191.989 72.3353 192.037 72.4518 192.123 72.5377C192.209 72.6236 192.326 72.6719 192.447 72.6719H194.434C194.556 72.6719 194.673 72.6236 194.759 72.5377C194.845 72.4518 194.893 72.3353 194.893 72.2138V64.4276C194.935 64.1991 195.041 63.9873 195.199 63.8169H195.963C196.421 63.9696 196.727 64.2749 196.727 64.5803V72.3665C196.727 72.5192 196.88 72.8245 197.033 72.8245H199.173C199.326 72.8245 199.479 72.5192 199.479 72.3665V63.9696C199.479 63.3589 199.479 63.0535 199.326 62.9009Z" fill="#58C1EE"/>
<path d="M185.874 60.9157H184.804V59.0837C184.804 58.931 184.499 58.7783 184.346 58.7783H184.193C182.97 59.0837 183.276 60.7631 180.983 60.9157H180.677C180.371 61.0175 180.219 61.1702 180.219 61.3737V63.3585C180.219 63.4799 180.267 63.5964 180.353 63.6823C180.439 63.7682 180.555 63.8165 180.677 63.8165H181.9V72.2134C181.9 72.3349 181.948 72.4514 182.034 72.5373C182.12 72.6232 182.237 72.6714 182.358 72.6714H184.346C184.467 72.6714 184.584 72.6232 184.67 72.5373C184.756 72.4514 184.804 72.3349 184.804 72.2134V63.8165H185.874C185.996 63.8165 186.112 63.7682 186.198 63.6823C186.284 63.5964 186.333 63.4799 186.333 63.3585V61.3737C186.333 61.2523 186.284 61.1358 186.198 61.0499C186.112 60.964 185.996 60.9157 185.874 60.9157Z" fill="#58C1EE"/>
<path d="M178.69 60.916H176.703C176.581 60.916 176.465 60.9643 176.379 61.0502C176.293 61.1361 176.244 61.2526 176.244 61.374V65.4962C176.244 65.5563 176.232 65.6159 176.209 65.6714C176.186 65.727 176.153 65.7775 176.11 65.82C176.067 65.8626 176.017 65.8963 175.961 65.9193C175.906 65.9423 175.846 65.9542 175.786 65.9542H175.021C174.9 65.9542 174.783 65.9059 174.697 65.82C174.611 65.7341 174.563 65.6176 174.563 65.4962V61.374C174.525 61.2688 174.464 61.1732 174.385 61.094C174.305 61.0149 174.21 60.9541 174.104 60.916H172.117C172.057 60.916 171.997 60.9279 171.942 60.9509C171.886 60.9739 171.835 61.0076 171.793 61.0502C171.75 61.0927 171.717 61.1432 171.693 61.1988C171.67 61.2543 171.659 61.3139 171.659 61.374V65.9542C171.636 66.3409 171.696 66.728 171.834 67.0899C171.973 67.4519 172.186 67.7806 172.46 68.0545C172.734 68.3285 173.063 68.5414 173.426 68.6793C173.788 68.8172 174.176 68.8771 174.563 68.8549H175.939C176.091 68.8549 176.244 69.0076 176.244 69.313C176.244 69.6183 176.091 69.771 175.939 69.771H172.881C172.729 69.771 172.576 69.9236 172.576 70.229V72.2137C172.576 72.5191 172.729 72.6717 172.881 72.6717H176.244C176.631 72.6939 177.019 72.634 177.381 72.4961C177.744 72.3582 178.073 72.1452 178.347 71.8713C178.621 71.5974 178.835 71.2687 178.973 70.9067C179.111 70.5448 179.171 70.1577 179.149 69.771V61.374C179.149 61.3139 179.137 61.2543 179.114 61.1988C179.091 61.1432 179.057 61.0927 179.014 61.0502C178.972 61.0076 178.921 60.9739 178.865 60.9509C178.81 60.9279 178.75 60.916 178.69 60.916Z" fill="#233366"/>
<path d="M159.43 64.5801V65.8015C159.43 65.923 159.382 66.0395 159.296 66.1254C159.21 66.2113 159.093 66.2595 158.971 66.2595H157.596V63.8168H158.971C159.077 63.8549 159.172 63.9156 159.252 63.9948C159.331 64.0739 159.392 64.1695 159.43 64.2748V64.5801ZM159.583 60.916H155.15C154.997 60.916 154.844 61.2214 154.844 61.374V63.3588V72.2137C154.844 72.5191 154.997 72.6717 155.15 72.6717H157.29C157.443 72.6717 157.596 72.5191 157.596 72.2137V69.1603H159.583C159.95 69.1826 160.318 69.1268 160.662 68.9965C161.006 68.8663 161.318 68.6647 161.578 68.4049C161.838 68.1451 162.04 67.8332 162.17 67.4896C162.301 67.1461 162.357 66.7789 162.334 66.4122V63.6641C162.334 62.9353 162.044 62.2363 161.528 61.7209C161.012 61.2055 160.313 60.916 159.583 60.916Z" fill="#233366"/>
<path d="M167.684 69.3123V69.6176L167.226 69.9229H166.308C166.203 69.8848 166.107 69.8241 166.028 69.7449C165.949 69.6658 165.888 69.5702 165.85 69.4649V69.0069V68.0909C165.85 68.0307 165.862 67.9712 165.885 67.9156C165.908 67.86 165.942 67.8095 165.984 67.767C166.027 67.7245 166.077 67.6907 166.133 67.6677C166.189 67.6447 166.248 67.6329 166.308 67.6329H167.226C167.347 67.6329 167.464 67.6811 167.55 67.767C167.636 67.8529 167.684 67.9694 167.684 68.0909V69.3123ZM167.378 60.9153H164.627C164.505 60.9153 164.389 60.9636 164.303 61.0495C164.217 61.1354 164.168 61.2518 164.168 61.3733V62.1367V63.2054C164.168 63.3269 164.217 63.4434 164.303 63.5292C164.389 63.6151 164.505 63.6634 164.627 63.6634H167.226C167.347 63.6634 167.464 63.7117 167.55 63.7975C167.636 63.8834 167.684 63.9999 167.684 64.1214V64.4268C167.684 64.5794 167.531 64.7321 167.226 64.7321H166.003C165.617 64.689 165.226 64.728 164.856 64.8467C164.486 64.9653 164.145 65.1609 163.856 65.4205C163.568 65.6801 163.337 65.9979 163.18 66.3529C163.023 66.7079 162.943 67.0921 162.946 67.4802V69.7703C162.945 70.1444 163.021 70.5146 163.169 70.8584C163.316 71.2022 163.533 71.5122 163.805 71.7695C164.077 72.0268 164.398 72.2259 164.75 72.3547C165.102 72.4834 165.476 72.5391 165.85 72.5184H169.366C169.679 72.4852 169.971 72.3458 170.193 72.1236C170.416 71.9013 170.555 71.6096 170.588 71.297V63.9687C170.643 63.5413 170.596 63.1069 170.452 62.7009C170.307 62.2948 170.069 61.9283 169.757 61.6311C169.444 61.3339 169.066 61.1143 168.653 60.9899C168.24 60.8656 167.803 60.84 167.378 60.9153Z" fill="#233366"/>
<path d="M236.164 62.5945C236.172 63.1077 236.05 63.6146 235.809 64.0682C235.569 64.5219 235.218 64.9077 234.789 65.1899C233.746 65.9985 232.434 66.3806 231.12 66.2586H230.203L229.591 69.1594H227.146L229.286 60.1517H234.024C234.248 60.1428 234.472 60.1787 234.682 60.2573C234.892 60.336 235.084 60.4558 235.247 60.6098L236.011 61.3731C236.173 61.7587 236.226 62.1811 236.164 62.5945ZM233.719 62.8998C233.732 62.7407 233.695 62.5814 233.612 62.4445C233.53 62.3075 233.407 62.1998 233.26 62.1365L232.19 61.8311H231.273L230.661 64.5792H231.426C232.021 64.6126 232.611 64.4518 233.107 64.1212C233.307 63.9885 233.468 63.806 233.576 63.5917C233.683 63.3775 233.732 63.139 233.719 62.8998Z" fill="#123984"/>
<path d="M240.444 68.3967L239.986 68.702L239.527 69.0074L238.763 69.3127H237.999C237.758 69.3336 237.515 69.3067 237.284 69.2334C237.054 69.1602 236.84 69.0422 236.655 68.8861C236.47 68.73 236.318 68.5389 236.208 68.3239C236.098 68.1089 236.031 67.8742 236.011 67.6333C236.022 67.1395 236.182 66.6604 236.47 66.2593L237.54 65.3432L239.221 64.8852H241.361C241.361 64.7667 241.334 64.6498 241.281 64.5438C241.228 64.4378 241.151 64.3456 241.056 64.2745H238.61L237.693 64.5799H237.387L237.693 63.0531L238.916 62.7478H240.597C241.389 62.685 242.183 62.8435 242.89 63.2058C243.12 63.3552 243.31 63.5585 243.443 63.798C243.576 64.0375 243.649 64.3059 243.654 64.5799V65.1906L242.584 69.7707H240.444V68.3967ZM241.056 65.9539H239.069C238.916 66.1066 238.61 66.2593 238.61 66.4119C238.515 66.483 238.438 66.5752 238.385 66.6812C238.332 66.7872 238.304 66.9041 238.304 67.0226C238.304 67.1753 238.457 67.328 238.61 67.4806H239.986L240.75 67.1753L241.056 65.9539Z" fill="#123984"/>
<path d="M247.017 71.6027H244.572L246.406 69.0073L245.183 62.4424H247.476L248.087 66.8699L250.686 62.4424H252.979L247.017 71.6027Z" fill="#123984"/>
<path d="M261.691 62.5958C261.699 63.109 261.577 63.6159 261.336 64.0695C261.096 64.5232 260.745 64.909 260.316 65.1912C259.26 65.9737 257.959 66.3528 256.647 66.2599H255.73L254.966 69.1607H252.673L254.813 60.153H259.551C259.752 60.1466 259.952 60.1843 260.137 60.2634C260.322 60.3426 260.487 60.4612 260.621 60.6111C260.799 60.6713 260.96 60.7715 261.093 60.9038C261.225 61.0362 261.325 61.1972 261.386 61.3744C261.608 61.7417 261.715 62.1672 261.691 62.5958ZM259.246 62.9011C259.259 62.742 259.222 62.5827 259.139 62.4458C259.057 62.3088 258.934 62.2011 258.787 62.1378L257.717 61.8324H256.647L256.036 64.5805H256.953C257.548 64.6139 258.138 64.4531 258.634 64.1225C258.988 63.8093 259.207 63.3717 259.246 62.9011Z" fill="#009DE2"/>
<path d="M265.971 68.3966L265.513 68.7019L264.901 69.0073L264.29 69.3126H263.525C263.277 69.3337 263.027 69.3039 262.79 69.2252C262.554 69.1464 262.336 69.0203 262.15 68.8546C261.95 68.7219 261.789 68.5394 261.681 68.3251C261.574 68.1109 261.525 67.8724 261.538 67.6332C261.549 67.1394 261.708 66.6604 261.997 66.2592C262.285 65.8818 262.649 65.5696 263.067 65.3431L264.748 64.8851H266.888C266.888 64.5798 266.735 64.4271 266.43 64.2744H264.137L263.067 64.5798H262.914L263.22 63.0531L264.443 62.7477H265.971C266.811 62.7063 267.649 62.8632 268.417 63.2057C268.647 63.3551 268.837 63.5584 268.97 63.7979C269.103 64.0374 269.176 64.3059 269.181 64.5798C269.093 64.6581 269.038 64.7675 269.028 64.8851V65.1905L267.958 69.7706H265.818L265.971 68.3966ZM266.583 65.9538H264.595L263.984 66.4118C263.831 66.5645 263.831 66.7172 263.831 67.0225C263.831 67.3279 263.831 67.3279 264.137 67.4805H265.513L266.277 67.1752L266.583 65.9538Z" fill="#009DE2"/>
<path d="M274.379 59.6943L272.239 69.16H269.946L272.086 59.6943H274.379Z" fill="#009DE2"/>
<path d="M203.759 12.3662H148.73V24.6716H203.759V12.3662Z" fill="#232F67"/>
<path d="M167.226 12.6719H149.036V24.3513H167.226V12.6719Z" fill="white"/>
<path d="M156.373 22.9845H155.303L152.399 18.4043V22.9845H151.176V16.5723H152.399L155.303 21.1524V16.5723H156.373V22.9845Z" fill="#232F67"/>
<path d="M159.736 22.1372C159.097 22.112 158.493 21.838 158.054 21.3739C157.817 21.1693 157.637 20.9076 157.53 20.6137C157.423 20.3197 157.393 20.0032 157.443 19.6945C157.454 19.2699 157.558 18.8529 157.749 18.4731C157.808 18.277 157.906 18.0948 158.037 17.9375C158.169 17.7801 158.33 17.6507 158.513 17.5571L159.583 17.2517C159.869 17.2141 160.159 17.2505 160.427 17.3574C160.695 17.4644 160.93 17.6383 161.111 17.8624C161.333 18.1102 161.501 18.4005 161.606 18.7155C161.711 19.0305 161.751 19.3636 161.723 19.6945V20.1525H158.513C158.542 20.5054 158.706 20.8336 158.971 21.0685L159.889 21.3739C160.126 21.3739 160.36 21.3187 160.572 21.2127C160.784 21.1067 160.969 20.9528 161.111 20.7632L161.57 21.3739C161.389 21.6556 161.121 21.8701 160.806 21.9845L159.736 22.1372ZM159.583 18.0151C159.277 18.0151 159.124 18.0151 158.971 18.3204C158.819 18.6258 158.666 18.7784 158.513 19.0838H160.653C160.643 18.7551 160.537 18.4366 160.347 18.1677L159.583 18.0151Z" fill="#232F67"/>
<path d="M163.863 16.0303V17.099H164.78V18.015H163.863V20.6104C163.863 20.9158 164.016 20.9158 164.016 21.0684H164.78V21.8318H164.016C163.251 21.8318 162.793 21.3738 162.793 20.4578V18.015H162.029V17.099H162.793V16.0303H163.863Z" fill="#232F67"/>
<path d="M170.436 21.9845V15.5723H172.576L174.257 15.8776C174.469 16.0345 174.637 16.2435 174.744 16.4842C174.851 16.725 174.894 16.9894 174.869 17.2517C174.858 17.5337 174.75 17.8035 174.563 18.015L173.951 18.6257L174.716 19.0837C174.91 19.4068 175.016 19.7755 175.022 20.1524C175.047 20.4147 175.004 20.6791 174.897 20.9198C174.79 21.1606 174.622 21.3696 174.41 21.5265C173.925 21.8802 173.326 22.0432 172.729 21.9845H170.436ZM171.506 18.1677H173.493C173.68 17.9562 173.788 17.6864 173.799 17.4043C173.799 17.2858 173.771 17.1689 173.718 17.0629C173.665 16.9569 173.588 16.8647 173.493 16.7936C173.369 16.6832 173.224 16.5991 173.066 16.5466C172.908 16.4941 172.741 16.4743 172.576 16.4883H171.506V18.1677ZM171.506 19.0837V21.0684H172.729C173.187 21.0684 173.34 21.0684 173.646 20.7631C173.741 20.692 173.818 20.5998 173.871 20.4938C173.924 20.3878 173.951 20.2709 173.951 20.1524C173.979 20.0061 173.97 19.8553 173.926 19.7132C173.882 19.571 173.804 19.4417 173.698 19.3364C173.593 19.2312 173.464 19.1532 173.321 19.1091C173.179 19.0651 173.028 19.0564 172.881 19.0837H171.506Z" fill="white"/>
<path d="M178.69 21.9848C178.69 21.8321 178.537 21.8321 178.537 21.5268C178.224 21.8801 177.786 22.0989 177.314 22.1375C177.09 22.1464 176.867 22.1105 176.657 22.0319C176.447 21.9532 176.254 21.8334 176.091 21.6794C175.938 21.5256 175.819 21.3408 175.743 21.1374C175.666 20.934 175.634 20.7166 175.649 20.4998C175.663 20.283 175.724 20.0719 175.826 19.8804C175.929 19.6889 176.072 19.5215 176.244 19.3894L177.773 19.084H178.537V18.7787C178.537 18.6602 178.51 18.5433 178.457 18.4373C178.403 18.3313 178.326 18.2391 178.231 18.168L177.62 17.8626L177.009 18.168C176.856 18.168 176.856 18.3207 176.856 18.626H175.786C175.739 18.3614 175.793 18.0889 175.939 17.8626C176.119 17.5809 176.388 17.3663 176.703 17.252H177.773L179.149 17.71C179.311 17.8671 179.436 18.0581 179.515 18.2693C179.594 18.4805 179.626 18.7066 179.607 18.9313V21.0687C179.572 21.4321 179.625 21.7985 179.76 22.1375H178.69V21.9848ZM177.467 21.2214H178.079L178.537 20.7634V19.8474H177.926C177.76 19.8333 177.593 19.8532 177.436 19.9057C177.278 19.9582 177.133 20.0422 177.009 20.1527C176.914 20.2238 176.837 20.316 176.784 20.422C176.731 20.528 176.703 20.6449 176.703 20.7634C176.696 20.8461 176.706 20.9294 176.732 21.0081C176.758 21.0869 176.8 21.1595 176.856 21.2214H177.467Z" fill="white"/>
<path d="M181.442 17.0988V17.7095C181.638 17.5045 181.876 17.344 182.14 17.2386C182.403 17.1333 182.686 17.0856 182.97 17.0988C183.184 17.0978 183.397 17.1417 183.593 17.2278C183.789 17.3139 183.965 17.4402 184.109 17.5986C184.253 17.7569 184.362 17.9438 184.429 18.147C184.497 18.3502 184.52 18.5653 184.499 18.7782V21.9843H183.429V18.9309C183.418 18.6488 183.31 18.3791 183.123 18.1675H182.512C182.411 18.1454 182.307 18.1437 182.206 18.1626C182.105 18.1816 182.008 18.2207 181.923 18.2778C181.837 18.3348 181.764 18.4085 181.707 18.4945C181.651 18.5805 181.613 18.677 181.594 18.7782V22.137H180.372V17.0988H181.442Z" fill="white"/>
<path d="M186.792 19.9998L186.333 20.4578V21.9845H185.263V15.1143H186.333V19.0837L186.639 18.6257L188.014 17.099H189.39L187.556 19.2364L189.543 21.9845H188.32L186.792 19.9998Z" fill="white"/>
<path d="M189.849 15.8783C189.849 15.7256 189.849 15.5729 190.001 15.5729C190.154 15.5729 190.154 15.2676 190.46 15.2676L190.919 15.5729V15.8783C190.919 16.0309 190.766 16.1836 190.766 16.3363H190.307C190.001 16.3363 189.849 16.3363 189.849 16.1836C189.823 16.0835 189.823 15.9784 189.849 15.8783ZM190.919 21.9851H189.849V17.0996H190.919V21.9851Z" fill="white"/>
<path d="M192.906 17.0989V17.7096C193.063 17.4979 193.272 17.3304 193.513 17.2234C193.754 17.1164 194.019 17.0735 194.281 17.0989C195.351 17.0989 195.81 17.7096 195.81 18.7783V21.9844H194.74V18.931C194.787 18.6664 194.732 18.3938 194.587 18.1676H193.823C193.624 18.1564 193.428 18.2099 193.262 18.32C193.097 18.4301 192.972 18.591 192.906 18.7783V22.1371H191.836V17.0989H192.906Z" fill="white"/>
<path d="M196.421 19.5418C196.393 19.211 196.433 18.8779 196.538 18.5629C196.643 18.2479 196.812 17.9576 197.033 17.7098C197.19 17.4981 197.399 17.3306 197.64 17.2236C197.881 17.1165 198.146 17.0737 198.409 17.0991C198.65 17.0677 198.896 17.109 199.113 17.2178C199.331 17.3266 199.512 17.4979 199.631 17.7098V17.2518H200.549V21.8319C200.573 22.1164 200.53 22.4026 200.424 22.6676C200.318 22.9327 200.151 23.1693 199.937 23.3586C199.521 23.7442 198.976 23.9618 198.409 23.9693L197.339 23.664C197.024 23.5496 196.755 23.335 196.574 23.0533L197.033 22.4426C197.175 22.6322 197.36 22.7861 197.572 22.8921C197.784 22.9981 198.018 23.0533 198.256 23.0533L199.173 22.748C199.36 22.5364 199.468 22.2667 199.479 21.9846V21.5266C199.346 21.726 199.163 21.8873 198.949 21.9944C198.734 22.1015 198.495 22.1508 198.256 22.1373C197.981 22.1318 197.713 22.0593 197.473 21.9263C197.233 21.7932 197.03 21.6036 196.88 21.3739C196.686 21.1142 196.545 20.8185 196.466 20.5039C196.388 20.1894 196.372 19.8623 196.421 19.5418ZM197.491 19.6945C197.497 20.0714 197.603 20.4402 197.797 20.7632C197.899 20.9102 198.037 21.0291 198.197 21.1091C198.357 21.1891 198.535 21.2277 198.714 21.2212C198.815 21.2434 198.919 21.2451 199.02 21.2261C199.121 21.2072 199.217 21.168 199.303 21.111C199.389 21.054 199.462 20.9802 199.518 20.8942C199.575 20.8082 199.613 20.7118 199.631 20.6106V18.4731C199.542 18.3143 199.406 18.1858 199.243 18.1042C199.08 18.0226 198.895 17.9916 198.714 18.0151L197.797 18.3205C197.59 18.7485 197.485 19.219 197.491 19.6945Z" fill="white"/>
<path d="M92.3256 31.5336V30.0069C92.353 29.8606 92.3443 29.7098 92.3002 29.5676C92.2561 29.4254 92.178 29.2961 92.0726 29.1909C91.9672 29.0856 91.8378 29.0076 91.6954 28.9636C91.5531 28.9196 91.4021 28.9108 91.2556 28.9382C90.9499 28.9382 90.4913 28.9382 90.4913 29.3962C90.2561 29.1312 89.9276 28.9671 89.5742 28.9382H88.1985V31.6863H88.8099V30.3122C88.8099 29.8542 89.1156 29.5489 89.2685 29.5489C89.4437 29.5845 89.6009 29.6805 89.7126 29.82C89.8243 29.9594 89.8835 30.1336 89.8799 30.3122V31.6863H90.4913V30.3122C90.4913 29.8542 90.6442 29.5489 90.9499 29.5489C91.1251 29.5845 91.2823 29.6805 91.394 29.82C91.5057 29.9594 91.5649 30.1336 91.5613 30.3122V31.6863H92.3256V31.5336ZM100.733 29.0908H99.9685V28.3275H99.5099V29.0908H98.8985V29.7015H99.5099V30.7702C99.5099 31.3809 99.6628 31.8389 100.274 31.8389C100.417 31.851 100.56 31.8297 100.693 31.7767C100.825 31.7237 100.944 31.6404 101.038 31.5336L100.733 31.0756H100.274C99.9685 31.0756 99.9685 30.7702 99.9685 30.4649V29.3962H100.733V29.0908ZM105.777 28.9382H104.401V31.6863H104.86V30.3122C104.856 30.1336 104.916 29.9594 105.027 29.82C105.139 29.6805 105.296 29.5845 105.471 29.5489H105.777V28.9382ZM98.2871 29.0908H97.217C96.7585 29.0908 96.1471 29.2435 96.1471 29.8542C96.1471 30.0567 96.2276 30.2508 96.3709 30.394C96.5142 30.5371 96.7086 30.6176 96.9113 30.6176H97.217C97.5228 30.6176 97.8285 30.6176 97.8285 30.9229C97.8285 31.2282 97.5228 31.2282 97.217 31.2282C96.9113 31.2282 96.4528 31.2282 96.4528 30.9229L96.1471 31.5336H97.217C98.1342 31.5336 98.2871 31.3809 98.2871 30.7702C98.2871 30.1595 98.1342 30.0069 97.5228 30.0069H97.217C96.9113 30.0069 96.7585 30.0069 96.7585 29.7015C96.7585 29.3962 96.9113 29.3962 97.217 29.3962C97.3832 29.3716 97.5528 29.3865 97.7121 29.4395C97.8714 29.4926 98.016 29.5823 98.1342 29.7015V29.0908H98.2871ZM113.726 28.9382H112.35V31.6863H112.808V30.3122C112.805 30.1336 112.864 29.9594 112.976 29.82C113.088 29.6805 113.245 29.5845 113.42 29.5489H113.726V28.9382ZM106.236 30.1595C106.21 30.3459 106.229 30.5356 106.289 30.7138C106.349 30.892 106.45 31.0539 106.583 31.1869C106.716 31.3199 106.878 31.4203 107.056 31.4805C107.235 31.5406 107.425 31.5588 107.611 31.5336H108.528L108.223 30.9229C108.105 31.0421 107.96 31.1319 107.801 31.1849C107.641 31.238 107.472 31.2528 107.306 31.2282C106.847 31.2282 106.541 30.9229 106.541 30.3122C106.541 30.1098 106.622 29.9156 106.765 29.7724C106.909 29.6293 107.103 29.5489 107.306 29.5489C107.472 29.5243 107.641 29.5391 107.801 29.5922C107.96 29.6452 108.105 29.735 108.223 29.8542L108.528 29.2435H107.611C107.438 29.2217 107.263 29.2372 107.096 29.2887C106.93 29.3403 106.776 29.4268 106.646 29.5424C106.516 29.6581 106.412 29.8002 106.341 29.9593C106.27 30.1184 106.234 30.2908 106.236 30.4649V30.1595ZM111.738 30.1595V29.0908H111.127V29.3962C110.974 29.0908 110.668 29.0908 110.363 29.0908C109.998 29.0908 109.648 29.2356 109.39 29.4933C109.132 29.751 108.987 30.1005 108.987 30.4649C108.962 30.6513 108.98 30.8409 109.04 31.0191C109.1 31.1973 109.201 31.3592 109.334 31.4922C109.467 31.6252 109.629 31.7257 109.808 31.7858C109.986 31.846 110.176 31.8641 110.363 31.8389C110.668 31.8389 110.974 31.8389 111.127 31.5336V31.8389H111.738V30.1595ZM109.598 30.1595C109.598 29.7015 109.751 29.3962 110.363 29.3962C110.974 29.3962 111.127 29.7015 111.127 30.1595C111.127 30.6176 110.974 31.0756 110.363 31.0756C109.751 31.0756 109.598 30.7702 109.598 30.1595ZM102.72 28.9382C102.547 28.9164 102.371 28.9318 102.205 28.9834C102.038 29.0349 101.885 29.1214 101.755 29.2371C101.624 29.3528 101.52 29.4949 101.45 29.654C101.379 29.8131 101.343 29.9855 101.344 30.1595C101.319 30.3459 101.337 30.5356 101.397 30.7138C101.458 30.892 101.558 31.0539 101.691 31.1869C101.824 31.3199 101.987 31.4203 102.165 31.4805C102.343 31.5406 102.533 31.5588 102.72 31.5336H103.79L103.484 31.2282C103.331 31.5336 103.026 31.5336 102.72 31.5336C102.414 31.5336 101.956 31.2282 101.956 30.9229H103.79V30.6176C103.79 29.5489 103.484 29.0908 102.72 29.0908V28.9382ZM102.72 29.3962C102.8 29.3962 102.88 29.412 102.954 29.4427C103.028 29.4734 103.095 29.5183 103.152 29.5751C103.209 29.6318 103.254 29.6991 103.285 29.7732C103.316 29.8473 103.331 29.9267 103.331 30.0069H101.956C101.956 29.7015 102.108 29.3962 102.72 29.3962ZM116.936 30.1595V27.7168H116.324V29.0908H115.56C115.387 29.0691 115.211 29.0845 115.045 29.136C114.878 29.1876 114.725 29.2741 114.595 29.3898C114.464 29.5054 114.36 29.6476 114.29 29.8067C114.219 29.9658 114.183 30.1381 114.184 30.3122C114.159 30.4986 114.177 30.6883 114.237 30.8665C114.298 31.0447 114.398 31.2066 114.531 31.3395C114.664 31.4725 114.827 31.573 115.005 31.6332C115.183 31.6933 115.373 31.7115 115.56 31.6863H116.936V30.3122V30.1595ZM114.796 30.1595C114.796 29.7015 114.948 29.3962 115.56 29.3962C116.171 29.3962 116.324 29.7015 116.324 30.1595C116.324 30.6176 116.171 31.0756 115.56 31.0756C114.948 31.0756 114.796 30.7702 114.796 30.1595ZM95.6885 30.1595V29.0908H95.0771V29.3962C94.9823 29.2893 94.8638 29.2061 94.7311 29.1531C94.5984 29.1 94.4552 29.0787 94.3128 29.0908C94.1262 29.0656 93.9363 29.0838 93.7578 29.144C93.5794 29.2041 93.4173 29.3046 93.2842 29.4376C93.151 29.5705 93.0504 29.7324 92.9902 29.9106C92.93 30.0888 92.9118 30.2785 92.9371 30.4649C92.9118 30.6513 92.93 30.8409 92.9902 31.0191C93.0504 31.1973 93.151 31.3592 93.2842 31.4922C93.4173 31.6252 93.5794 31.7257 93.7578 31.7858C93.9363 31.846 94.1262 31.8641 94.3128 31.8389C94.4552 31.851 94.5984 31.8297 94.7311 31.7767C94.8638 31.7237 94.9823 31.6404 95.0771 31.5336V31.8389H95.6885V30.1595ZM93.3956 30.1595C93.3956 29.7015 93.7013 29.3962 94.3128 29.3962C94.5155 29.3962 94.7099 29.4766 94.8532 29.6198C94.9965 29.7629 95.0771 29.9571 95.0771 30.1595C95.0771 30.7702 94.7713 31.0756 94.3128 31.0756C94.1864 31.1048 94.0546 31.1015 93.9298 31.0658C93.8051 31.0302 93.6915 30.9634 93.5997 30.8717C93.508 30.7801 93.4411 30.6666 93.4054 30.542C93.3697 30.4174 93.3663 30.2858 93.3956 30.1595Z" fill="white"/>
<path d="M106.694 9.24414H98.2871V24.8014H106.694V9.24414Z" fill="#F26122"/>
<path d="M98.5928 16.8774C98.5616 15.3908 98.8932 13.919 99.559 12.589C100.225 11.259 101.205 10.1109 102.414 9.24385C100.731 7.86961 98.6265 7.11497 96.4528 7.10645C93.8582 7.10645 91.3699 8.13589 89.5352 9.9683C87.7006 11.8007 86.6699 14.286 86.6699 16.8774C86.6699 19.4689 87.7006 21.9542 89.5352 23.7866C91.3699 25.619 93.8582 26.6484 96.4528 26.6484C98.6265 26.6399 100.731 25.8853 102.414 24.511C101.257 23.5954 100.315 22.4373 99.6543 21.1183C98.994 19.7993 98.6317 18.3516 98.5928 16.8774Z" fill="#EA1D25"/>
<path d="M118.617 16.8774C118.617 18.1735 118.359 19.4567 117.858 20.6522C117.357 21.8478 116.623 22.9318 115.698 23.8411C114.773 24.7505 113.677 25.467 112.472 25.9489C111.267 26.4309 109.979 26.6687 108.681 26.6484C106.508 26.6399 104.403 25.8853 102.72 24.511C103.855 23.5753 104.781 22.4127 105.439 21.0981C106.097 19.7834 106.473 18.3457 106.541 16.8774C106.573 15.3908 106.241 13.919 105.575 12.589C104.909 11.259 103.929 10.1109 102.72 9.24385C104.403 7.86961 106.508 7.11497 108.681 7.10645C111.29 7.10614 113.795 8.13068 115.654 9.95883C117.512 11.787 118.577 14.2721 118.617 16.8774Z" fill="#F69E1E"/>
<path d="M248.24 26.5642C249.382 25.5474 250.296 24.3008 250.922 22.9063C251.548 21.5118 251.871 20.0008 251.871 18.4726C251.871 16.9445 251.548 15.4335 250.922 14.039C250.296 12.6445 249.382 11.3979 248.24 10.381C247.27 9.43695 246.122 8.69445 244.862 8.19653C243.603 7.6986 242.257 7.45516 240.903 7.48028C237.984 7.48028 235.185 8.6384 233.121 10.6999C231.057 12.7613 229.897 15.5573 229.897 18.4726C229.897 21.388 231.057 24.184 233.121 26.2454C235.185 28.3069 237.984 29.465 240.903 29.465C242.257 29.4901 243.603 29.2467 244.862 28.7488C246.122 28.2508 247.27 27.5083 248.24 26.5642Z" fill="#2F67B2"/>
<path d="M248.24 26.5641C249.382 25.5472 250.296 24.3006 250.922 22.9061C251.548 21.5116 251.871 20.0007 251.871 18.4725C251.871 16.9443 251.548 15.4334 250.922 14.0388C250.296 12.6443 249.382 11.3977 248.24 10.3809" fill="#2F67B2"/>
<path d="M248.24 26.5641C249.382 25.5472 250.296 24.3006 250.922 22.9061C251.548 21.5116 251.871 20.0007 251.871 18.4725C251.871 16.9443 251.548 15.4334 250.922 14.0388C250.296 12.6443 249.382 11.3977 248.24 10.3809" stroke="#2F67B2" stroke-width="0.25"/>
<path d="M255.73 7.47995C252.954 7.4544 250.273 8.49251 248.24 10.3807C247.846 10.6975 247.487 11.0558 247.17 11.4494H249.463L250.227 12.6708H246.406L245.641 13.7395H250.839L251.297 14.9609H245.183C245.152 15.3826 245.049 15.7958 244.877 16.1822H251.603C251.78 16.9337 251.882 17.7008 251.909 18.4723C251.941 19.6718 251.733 20.8656 251.297 21.9838H245.183L245.641 23.0525H250.839C250.697 23.4878 250.491 23.8995 250.227 24.2738H246.406C246.604 24.7136 246.861 25.1244 247.17 25.4952H249.463L248.24 26.5639C249.557 27.7731 251.149 28.6436 252.878 29.0999C254.607 29.5563 256.422 29.5848 258.165 29.1829C259.908 28.7811 261.526 27.9611 262.88 26.7938C264.234 25.6266 265.283 24.1473 265.936 22.484C266.589 20.8208 266.826 19.0236 266.627 17.2483C266.427 15.4729 265.798 13.7727 264.793 12.295C263.788 10.8173 262.437 9.60649 260.858 8.7675C259.279 7.9285 257.519 7.48657 255.73 7.47995Z" fill="#CB2026"/>
<path d="M265.513 24.5798H265.666C265.666 24.5393 265.65 24.5004 265.621 24.4718C265.592 24.4432 265.554 24.4271 265.513 24.4271V24.5798ZM265.513 24.7324H265.36V24.4271H265.513V24.7324ZM265.513 24.8851L265.819 24.5798C265.819 24.5194 265.801 24.4603 265.767 24.4101C265.734 24.3599 265.686 24.3208 265.63 24.2977C265.574 24.2745 265.513 24.2685 265.453 24.2803C265.394 24.2921 265.34 24.3211 265.297 24.3638C265.254 24.4065 265.225 24.461 265.213 24.5202C265.201 24.5794 265.207 24.6408 265.231 24.6966C265.254 24.7524 265.293 24.8001 265.343 24.8336C265.393 24.8672 265.453 24.8851 265.513 24.8851ZM265.207 24.5798C265.207 24.4988 265.24 24.4211 265.297 24.3638C265.354 24.3066 265.432 24.2744 265.513 24.2744C265.594 24.2744 265.672 24.3066 265.729 24.3638C265.787 24.4211 265.819 24.4988 265.819 24.5798L265.513 24.8851C265.432 24.8851 265.354 24.8529 265.297 24.7957C265.24 24.7384 265.207 24.6607 265.207 24.5798Z" fill="#231F20"/>
<path d="M239.222 21.5258H237.846L238.61 17.251L236.776 21.5258H235.553V17.251L234.636 21.5258H233.413L234.483 15.877H236.623V19.3884L238.152 15.877H240.445L239.375 21.5258" fill="#231F20"/>
<path d="M254.507 21.3735H253.437C252.826 21.3735 252.367 21.0681 252.367 20.4574V19.2361L253.131 15.7246H254.354V16.7933H255.119V17.862H254.354L254.049 19.8467H253.896C253.896 20.1521 254.049 20.1521 254.507 20.1521H254.813V21.0681" fill="#231F20"/>
<path d="M249.004 18.473C249.004 18.931 249.31 19.389 250.074 19.6944C250.839 19.9997 250.686 19.9997 250.686 20.1524C250.686 20.3051 250.533 20.6104 249.922 20.6104H248.699V21.5264H250.074C251.603 21.5264 252.214 21.0684 252.214 19.9997C252.214 18.931 251.909 19.0837 251.297 18.7783C250.686 18.473 250.686 18.473 250.686 18.3203C250.686 18.1677 250.839 18.015 251.297 18.015H252.214L252.52 16.9463H251.297C249.769 16.9463 249.157 17.557 249.157 18.473" fill="#231F20"/>
<path d="M242.737 19.5411H242.431C241.667 19.5411 241.208 19.6937 241.208 20.1517C241.208 20.2732 241.257 20.3897 241.343 20.4756C241.429 20.5615 241.545 20.6098 241.667 20.6098C241.951 20.6098 242.223 20.4972 242.424 20.2967C242.624 20.0963 242.737 19.8245 242.737 19.5411ZM243.654 21.5258H242.431V21.0678C241.983 21.3768 241.448 21.537 240.903 21.5258C240.736 21.5519 240.566 21.5383 240.406 21.4861C240.245 21.434 240.1 21.3447 239.98 21.2257C239.861 21.1066 239.772 20.9611 239.72 20.801C239.667 20.6409 239.654 20.4708 239.68 20.3044C239.68 19.2357 240.597 18.625 242.126 18.625H242.584C242.737 18.4724 242.737 18.4724 242.737 18.3197C242.737 18.167 242.431 17.8617 241.82 17.8617H240.291L240.597 16.793H242.126C243.348 16.793 243.96 17.251 243.96 18.0143C243.972 18.3269 243.92 18.6387 243.807 18.9304V20.6098H243.654V20.9151" fill="#231F20"/>
<path d="M247.476 18.7781V18.4728C247.476 18.3108 247.411 18.1555 247.297 18.041C247.182 17.9265 247.026 17.8621 246.864 17.8621C246.457 17.8621 246.151 18.1675 245.947 18.7781H247.476ZM248.087 21.3736H246.711C245.183 21.3736 244.419 20.7629 244.419 19.3888C244.376 19.0559 244.403 18.7177 244.497 18.3955C244.591 18.0733 244.751 17.7739 244.966 17.5161C245.181 17.2582 245.447 17.0474 245.747 16.8968C246.048 16.7462 246.376 16.659 246.711 16.6407C246.945 16.6195 247.18 16.6471 247.402 16.7219C247.624 16.7968 247.828 16.9171 248 17.0752C248.173 17.2333 248.311 17.4257 248.405 17.6401C248.499 17.8545 248.547 18.0861 248.546 18.3201C248.561 18.7328 248.51 19.1453 248.393 19.5415H245.794C245.641 19.5415 245.641 19.5415 245.641 19.6942C245.641 19.8469 246.1 20.4575 246.864 20.4575L248.393 20.1522L248.087 21.2209" fill="#231F20"/>
<path d="M261.386 18.9309C261.389 18.7122 261.314 18.4997 261.173 18.3317C261.033 18.1637 260.837 18.0513 260.622 18.0149C260.44 18.0338 260.265 18.0885 260.105 18.1758C259.945 18.263 259.805 18.381 259.691 18.5231C259.577 18.6651 259.493 18.8282 259.443 19.0031C259.392 19.1779 259.378 19.361 259.399 19.5416C259.399 20.1523 259.704 20.6103 260.163 20.6103C260.438 20.5278 260.685 20.3694 260.874 20.1534C261.063 19.9373 261.188 19.6724 261.233 19.3889C261.233 19.2362 261.386 19.0836 261.386 18.9309ZM262.762 19.3889C262.685 20.0503 262.356 20.6568 261.844 21.083C261.332 21.5092 260.675 21.7226 260.01 21.679C259.723 21.702 259.435 21.6625 259.165 21.5633C258.895 21.464 258.649 21.3073 258.446 21.1041C258.242 20.9008 258.085 20.6558 257.986 20.386C257.887 20.1162 257.847 19.8281 257.87 19.5416C257.848 19.1749 257.904 18.8076 258.034 18.4641C258.164 18.1206 258.366 17.8087 258.626 17.5489C258.887 17.2891 259.199 17.0875 259.543 16.9572C259.887 16.827 260.254 16.7712 260.622 16.7935C260.908 16.7705 261.197 16.8099 261.467 16.9092C261.737 17.0085 261.982 17.1652 262.186 17.3684C262.389 17.5717 262.546 17.8167 262.646 18.0865C262.745 18.3562 262.785 18.6444 262.762 18.9309V19.3889Z" fill="#231F20"/>
<path d="M263.22 20.915H263.067V20.6097H263.22V20.915ZM263.22 21.0677L263.526 20.7624C263.526 20.6097 263.373 20.6097 263.22 20.6097C263.067 20.6097 262.914 20.6097 262.914 20.7624C262.914 20.8434 262.947 20.921 263.004 20.9783C263.061 21.0355 263.139 21.0677 263.22 21.0677ZM262.914 20.7624C262.914 20.6814 262.947 20.6037 263.004 20.5465C263.061 20.4892 263.139 20.457 263.22 20.457C263.301 20.457 263.379 20.4892 263.436 20.5465C263.494 20.6037 263.526 20.6814 263.526 20.7624C263.526 21.0677 263.373 21.2204 263.22 21.2204C263.067 21.2204 262.914 21.0677 262.914 20.7624Z" fill="white"/>
<path d="M239.527 21.2211H238.152L238.916 16.9463L237.082 21.2211H235.859L235.553 16.9463L234.789 21.2211H233.566L234.636 15.5723H236.776V19.0837L238.304 15.5723H240.444L239.374 21.2211" fill="white"/>
<path d="M254.813 21.0684H253.896C253.131 21.0684 252.826 20.7631 252.826 20.1524V19.0837L253.437 15.5723H254.813L254.507 16.641H255.271V17.7097H254.507L254.201 19.6944C254.201 19.8471 254.354 19.9997 254.66 19.9997H254.966V20.9158" fill="white"/>
<path d="M258.329 18.0147L258.634 17.2513H258.176C257.717 17.2513 257.412 17.404 256.953 18.0147V17.0986H255.577L254.813 21.6788H256.036C256.342 20.6101 256.342 19.9994 256.494 19.5414C256.647 19.0834 257.259 18.32 257.717 18.4727H257.87L258.176 18.1673" fill="#231F20"/>
<path d="M258.787 16.6406H258.329C258.096 16.6529 257.872 16.7312 257.682 16.8664C257.493 17.0017 257.346 17.1882 257.259 17.404V16.6406H256.036L255.271 21.2208H256.647C257.106 18.4727 257.259 17.862 258.023 17.862C258.023 17.9025 258.039 17.9413 258.068 17.97C258.096 17.9986 258.135 18.0147 258.176 18.0147H258.329L258.787 16.6406Z" fill="white"/>
<path d="M249.463 18.0143C249.468 18.3071 249.557 18.5923 249.719 18.8359C249.882 19.0795 250.111 19.2713 250.38 19.3884C250.992 19.5411 251.144 19.6937 251.144 19.8464C251.144 19.9991 250.839 20.3044 250.38 20.3044L249.004 19.9991V21.0678H250.533C251.909 21.0678 252.673 20.6098 252.673 19.5411C252.673 18.4724 252.367 18.625 251.603 18.3197C250.839 18.0143 250.992 18.0144 250.992 17.8617C250.992 17.709 251.144 17.4037 251.603 17.4037H252.673V16.335H251.45C249.922 16.335 249.463 17.0983 249.463 17.8617" fill="white"/>
<path d="M243.043 19.2361H242.737C241.973 19.2361 241.514 19.5414 241.514 19.9994C241.514 20.1209 241.563 20.2374 241.649 20.3233C241.735 20.4092 241.851 20.4574 241.973 20.4574C242.584 20.4574 242.89 19.9994 243.043 19.3887V19.2361ZM243.96 21.2208H242.89V20.7628C242.681 20.9405 242.437 21.0729 242.174 21.1518C241.911 21.2306 241.634 21.2541 241.362 21.2208C241.037 21.2208 240.726 21.0921 240.497 20.8631C240.268 20.634 240.139 20.3233 240.139 19.9994C240.139 18.9307 241.056 18.32 242.584 18.32H243.196V18.0147C243.196 17.7093 242.89 17.5567 242.279 17.5567H240.903V16.488L242.584 16.1826C243.654 16.1826 244.266 16.6406 244.266 17.5567V18.4727L243.96 20.1521V20.4574" fill="white"/>
<path d="M247.781 18.3198C247.781 18.2396 247.766 18.1602 247.735 18.0861C247.704 18.012 247.659 17.9447 247.602 17.888C247.546 17.8313 247.478 17.7863 247.404 17.7556C247.33 17.7249 247.25 17.7091 247.17 17.7091C246.951 17.7061 246.738 17.7813 246.57 17.9214C246.402 18.0614 246.289 18.2568 246.253 18.4725L247.781 18.3198ZM248.393 21.0679H247.017C245.489 21.0679 244.724 20.4572 244.724 19.0832C244.704 18.7422 244.75 18.4005 244.862 18.0777C244.974 17.7549 245.149 17.4573 245.376 17.202C245.603 16.9467 245.879 16.7387 246.186 16.5899C246.494 16.4411 246.829 16.3545 247.17 16.3351C247.403 16.3138 247.638 16.3415 247.86 16.4163C248.082 16.4911 248.286 16.6114 248.459 16.7695C248.632 16.9277 248.769 17.1201 248.863 17.3345C248.957 17.5489 249.005 17.7805 249.004 18.0145C249.004 18.3198 248.851 18.6252 248.851 19.0832H246.1C246.1 19.6939 246.406 19.9992 247.323 19.9992L248.699 19.6939L248.393 20.7626" fill="white"/>
<path d="M261.691 18.6252C261.691 18.0145 261.386 17.5565 260.927 17.5565C260.469 17.5565 259.704 18.4726 259.704 19.2359C259.675 19.3622 259.678 19.4938 259.714 19.6184C259.75 19.743 259.817 19.8565 259.908 19.9481C260 20.0397 260.114 20.1065 260.238 20.1422C260.363 20.1779 260.495 20.1812 260.621 20.152C260.878 20.115 261.112 19.9863 261.281 19.7897C261.45 19.5931 261.541 19.3421 261.539 19.0832C261.594 19.0213 261.636 18.9487 261.662 18.87C261.688 18.7912 261.698 18.7079 261.691 18.6252ZM263.067 19.0832C263.048 19.4043 262.965 19.7183 262.824 20.0072C262.682 20.2962 262.485 20.5545 262.244 20.7673C262.003 20.9801 261.721 21.1431 261.417 21.2471C261.112 21.3511 260.79 21.394 260.469 21.3733C260.17 21.421 259.864 21.4 259.575 21.3118C259.286 21.2236 259.02 21.0706 258.799 20.8644C258.578 20.6583 258.407 20.4044 258.299 20.1222C258.191 19.84 258.149 19.5368 258.176 19.2359C258.153 18.8692 258.209 18.502 258.34 18.1585C258.47 17.815 258.672 17.503 258.932 17.2432C259.192 16.9835 259.504 16.7818 259.848 16.6516C260.192 16.5214 260.56 16.4655 260.927 16.4878C261.214 16.4648 261.502 16.5043 261.773 16.6035C262.043 16.7028 262.288 16.8595 262.492 17.0628C262.695 17.266 262.852 17.511 262.951 17.7808C263.051 18.0506 263.09 18.3387 263.067 18.6252V19.0832Z" fill="white"/>
<path d="M103.484 66.4954V71.0756H101.956V59.9305H105.777C106.68 59.9108 107.556 60.2388 108.223 60.8466C108.874 61.4977 109.256 62.3697 109.293 63.2893C109.279 63.7235 109.177 64.1504 108.993 64.5441C108.809 64.9378 108.547 65.29 108.223 65.5794C107.556 66.1871 106.68 66.5151 105.777 66.4954H103.484ZM103.484 61.3046V65.1214H105.777C106.026 65.1424 106.276 65.1127 106.512 65.0339C106.749 64.9552 106.967 64.8291 107.153 64.6634C107.529 64.3139 107.755 63.8324 107.784 63.3201C107.812 62.8077 107.641 62.3042 107.306 61.9153H107.153C106.996 61.7036 106.787 61.536 106.546 61.429C106.305 61.322 106.04 61.2791 105.777 61.3046H103.484Z" fill="#606469"/>
<path d="M112.503 63.1366C113.455 63.0931 114.387 63.4217 115.101 64.0527C115.378 64.3625 115.588 64.7253 115.72 65.1191C115.851 65.5128 115.901 65.9292 115.866 66.3428V71.0756H114.643V70.0069H114.49C114.229 70.3743 113.886 70.676 113.488 70.888C113.09 71.1 112.648 71.2165 112.197 71.2282C111.806 71.2712 111.41 71.2248 111.039 71.0926C110.668 70.9604 110.333 70.7457 110.057 70.4649C109.751 70.2802 109.512 70.0031 109.375 69.6737C109.238 69.3443 109.209 68.9797 109.293 68.6328C109.248 68.2873 109.295 67.9361 109.429 67.6145C109.563 67.2929 109.78 67.0123 110.057 66.8008C110.76 66.2728 111.624 66.0032 112.503 66.0374C113.242 66.0267 113.973 66.1833 114.643 66.4954V66.1901C114.604 65.7195 114.385 65.2819 114.031 64.9687C113.52 64.5956 112.885 64.4349 112.257 64.5203C111.63 64.6057 111.061 64.9306 110.668 65.4267L109.446 64.6634C109.802 64.1893 110.263 63.8046 110.794 63.5396C111.324 63.2746 111.91 63.1366 112.503 63.1366ZM110.668 68.6328C110.662 68.8336 110.7 69.0334 110.779 69.218C110.858 69.4027 110.977 69.5677 111.127 69.7015L112.197 70.0069C112.804 69.9666 113.387 69.7548 113.878 69.3962C114.343 68.9577 114.618 68.3549 114.643 67.7168C114.04 67.3714 113.349 67.212 112.656 67.2588C112.161 67.269 111.682 67.4287 111.28 67.7168C111.104 67.7997 110.955 67.9288 110.847 68.0901C110.739 68.2515 110.678 68.4391 110.668 68.6328Z" fill="#606469"/>
<path d="M123.814 63.4424L119.076 74.4347H117.547L119.229 70.6179L116.171 63.4424H117.7L119.993 68.9386L122.286 63.4424H123.814Z" fill="#606469"/>
<path d="M97.6758 65.5801C97.6998 65.1168 97.6482 64.6528 97.523 64.2061H91.5615V66.8015H94.9244C94.9062 67.1889 94.7827 67.5641 94.5673 67.8869C94.3519 68.2096 94.0526 68.4677 93.7015 68.6335V70.3129H95.8415C97.0222 69.0188 97.6764 67.3309 97.6758 65.5801Z" fill="#557EBF"/>
<path d="M91.5615 71.8393C93.1245 71.8549 94.642 71.3136 95.8415 70.3126L93.7015 68.6332C93.0839 69.0851 92.3249 69.3017 91.5615 69.2439C90.7591 69.2317 89.9793 68.9773 89.3245 68.514C88.6696 68.0508 88.1706 67.4004 87.8929 66.6484H85.9058V68.3278C86.4229 69.3848 87.2277 70.2749 88.228 70.8959C89.2283 71.517 90.3836 71.8439 91.5615 71.8393Z" fill="#36A852"/>
<path d="M88.0457 66.6485C87.7387 65.8631 87.7387 64.9912 88.0457 64.2058V62.5264H85.9057C85.4491 63.4253 85.2112 64.4191 85.2112 65.4271C85.2112 66.4351 85.4491 67.4289 85.9057 68.3279L88.0457 66.6485Z" fill="#F9BC15"/>
<path d="M91.5615 61.6111C92.4642 61.5914 93.34 61.9194 94.0072 62.5271L95.8415 60.6951C94.6638 59.6388 93.1441 59.0425 91.5615 59.0157C90.3836 59.011 89.2283 59.338 88.228 59.959C87.2277 60.5801 86.4229 61.4701 85.9058 62.5271L88.0458 64.2065C88.2754 63.4544 88.7411 62.796 89.3742 62.3286C90.0074 61.8612 90.7742 61.6097 91.5615 61.6111Z" fill="#EA4535"/>
<path d="M308.16 56.4883H337.967V66.4119L336.591 67.9387L337.967 69.16V74.9616H308.16V65.4959L309.077 64.8852L308.16 64.2745V56.4883Z" fill="#306FB7"/>
<path d="M313.969 71.6029V66.8701H318.86L319.471 67.6335L319.93 66.8701H337.967V71.2976C337.691 71.4732 337.376 71.5781 337.05 71.6029H326.961L326.35 70.8396V71.6029H324.516V70.3816H322.987V71.4503H319.93L319.471 70.6869L318.86 71.4503L313.969 71.6029Z" fill="white"/>
<path d="M308.16 63.3581L309.23 60.7627H311.217L311.828 62.2894V60.7627H314.274L314.58 61.8314L315.038 60.7627H325.738V61.2207C326.192 60.9206 326.723 60.7612 327.267 60.7627H330.783L331.394 62.1368V60.7627H333.534L333.993 61.5261V60.7627H335.98V65.4955H333.993L333.534 64.5795V65.4955H330.477L330.171 64.7322H329.407L329.101 65.4955H327.114C326.597 65.4651 326.108 65.2481 325.738 64.8848V65.4955H322.834L322.223 64.7322V65.4955H310.911L310.606 64.7322H309.841L309.536 65.4955H308.16V63.3581Z" fill="white"/>
<path d="M309.688 61.374L308.16 64.8855H309.077L309.383 64.1221H311.064V64.8855H312.134L310.606 61.374H309.688ZM310.147 62.1374L310.606 63.3588H309.688L310.147 62.1374Z" fill="#306FB7"/>
<path d="M312.44 64.8855V61.374H313.816L314.58 63.6641L315.344 61.374H316.72V64.8855H315.956V62.2901L315.039 64.8855H314.274L313.204 62.2901V64.8855H312.44Z" fill="#306FB7"/>
<path d="M317.331 64.8855V61.374H320.236V62.1374H318.248V62.7481H320.236V63.5114H318.248V64.1221H320.236V64.8855H317.331Z" fill="#306FB7"/>
<path d="M320.694 61.374V64.8855H321.611V63.6641H322.07L323.14 64.8855H324.21L322.987 63.5114C323.243 63.4745 323.478 63.3457 323.647 63.1492C323.815 62.9526 323.907 62.7016 323.904 62.4427C323.904 61.6794 323.446 61.374 322.681 61.374H320.694ZM321.611 62.1374H322.681C322.834 62.1374 323.14 62.2901 323.14 62.4427C323.14 62.5642 323.091 62.6807 323.005 62.7666C322.919 62.8525 322.803 62.9007 322.681 62.9007H321.611V62.1374Z" fill="#306FB7"/>
<path d="M325.28 64.8855H324.363V61.374H325.28V64.8855Z" fill="#306FB7"/>
<path d="M327.42 64.8856H327.114C326.197 64.8856 325.585 64.1222 325.585 63.0535C325.584 62.8195 325.632 62.5879 325.726 62.3735C325.82 62.1591 325.958 61.9667 326.131 61.8086C326.303 61.6505 326.507 61.5302 326.729 61.4553C326.951 61.3805 327.186 61.3529 327.42 61.3741H328.337V62.1375H327.42C327.177 62.1375 326.943 62.234 326.771 62.4058C326.599 62.5776 326.503 62.8106 326.503 63.0535C326.503 63.8169 326.961 64.1222 327.42 64.1222H327.725L327.42 64.8856Z" fill="#306FB7"/>
<path d="M329.254 61.374L327.726 64.8855H328.796V64.1221H330.477L330.783 64.8855H331.7L330.324 61.374H329.254ZM329.866 62.1374L330.324 63.3588H329.254L329.866 62.1374Z" fill="#306FB7"/>
<path d="M332.006 64.8855V61.374H333.076L334.604 63.5114V61.374H335.521V64.8855H334.298L332.923 62.5954V64.8855H332.006Z" fill="#306FB7"/>
<path d="M314.58 70.9919V67.4805H317.331V68.2438H315.344V68.8545H317.331V69.6179H315.344V70.2286H317.331V70.9919H314.58Z" fill="#306FB7"/>
<path d="M328.643 70.9919V67.4805H331.394V68.2438H329.407V68.8545H331.394V69.6179H329.407V70.2286H331.394V70.9919H328.643Z" fill="#306FB7"/>
<path d="M317.484 70.9919L318.86 69.3125L317.484 67.4805H318.554L319.471 68.5492L320.236 67.4805H321.306L319.93 69.3125L321.306 70.9919H320.236L319.471 69.9232L318.554 70.9919H317.484Z" fill="#306FB7"/>
<path d="M321.458 67.4807V70.9921H322.376V69.9234H323.293C323.466 69.9452 323.641 69.9298 323.808 69.8782C323.974 69.8267 324.128 69.7402 324.258 69.6245C324.388 69.5088 324.492 69.3667 324.563 69.2076C324.634 69.0485 324.67 68.8761 324.669 68.7021C324.695 68.5357 324.681 68.3656 324.629 68.2055C324.577 68.0454 324.487 67.8998 324.368 67.7808C324.249 67.6617 324.103 67.5725 323.943 67.5203C323.783 67.4682 323.612 67.4546 323.446 67.4807H321.458ZM322.376 68.244H323.293C323.414 68.244 323.531 68.2923 323.617 68.3782C323.703 68.4641 323.751 68.5806 323.751 68.7021C323.751 68.8235 323.703 68.94 323.617 69.0259C323.531 69.1118 323.414 69.1601 323.293 69.1601H322.376V68.244Z" fill="#306FB7"/>
<path d="M324.974 67.4805V70.9919H325.891V69.7705H326.35L327.267 70.9919H328.337L327.267 69.7705C327.524 69.7336 327.758 69.6049 327.927 69.4083C328.095 69.2117 328.187 68.9607 328.184 68.7018C328.184 68.5414 328.152 68.3826 328.091 68.2344C328.03 68.0863 327.94 67.9516 327.826 67.8382C327.712 67.7248 327.578 67.6348 327.429 67.5734C327.281 67.5121 327.122 67.4805 326.961 67.4805H324.974ZM325.891 68.2438H326.961C327.114 68.2438 327.267 68.3965 327.267 68.7018C327.267 68.7828 327.235 68.8605 327.177 68.9178C327.12 68.975 327.042 69.0072 326.961 69.0072H325.891V68.2438Z" fill="#306FB7"/>
<path d="M331.853 70.9918V70.2285H333.687C333.768 70.2285 333.846 70.1963 333.903 70.139C333.961 70.0818 333.993 70.0041 333.993 69.9231C333.993 69.8421 333.961 69.7645 333.903 69.7072C333.846 69.6499 333.768 69.6178 333.687 69.6178H332.77C332.486 69.6178 332.214 69.5052 332.013 69.3048C331.813 69.1043 331.7 68.8325 331.7 68.5491C331.719 68.3882 331.77 68.2326 331.849 68.0915C331.929 67.9504 332.036 67.8265 332.164 67.727C332.292 67.6275 332.438 67.5545 332.595 67.5122C332.751 67.4698 332.915 67.459 333.076 67.4804H334.91L334.451 68.2437H332.923C332.842 68.2437 332.764 68.2759 332.707 68.3332C332.649 68.3904 332.617 68.4681 332.617 68.5491C332.617 68.6301 332.649 68.7077 332.707 68.765C332.764 68.8223 332.842 68.8544 332.923 68.8544H333.84C333.986 68.8271 334.137 68.8358 334.28 68.8798C334.422 68.9239 334.552 69.0019 334.657 69.1071C334.762 69.2124 334.84 69.3417 334.884 69.4839C334.929 69.626 334.937 69.7768 334.91 69.9231C334.912 70.0773 334.88 70.23 334.817 70.3707C334.754 70.5114 334.661 70.6368 334.545 70.7384C334.428 70.8399 334.292 70.9151 334.144 70.9589C333.996 71.0026 333.84 71.0139 333.687 70.9918H331.853Z" fill="#306FB7"/>
<path d="M335.063 70.9918V70.2285H336.897C336.978 70.2285 337.056 70.1963 337.113 70.139C337.171 70.0818 337.203 70.0041 337.203 69.9231C337.203 69.8421 337.171 69.7645 337.113 69.7072C337.056 69.6499 336.978 69.6178 336.897 69.6178H335.98C335.696 69.6178 335.424 69.5052 335.223 69.3048C335.023 69.1043 334.91 68.8325 334.91 68.5491C334.929 68.3882 334.979 68.2326 335.059 68.0915C335.139 67.9504 335.246 67.8265 335.374 67.727C335.502 67.6275 335.648 67.5545 335.805 67.5122C335.961 67.4698 336.125 67.459 336.286 67.4804H338.12L337.661 68.2437H336.286C335.98 68.2437 335.827 68.3964 335.827 68.5491C335.827 68.6301 335.859 68.7077 335.917 68.765C335.974 68.8223 336.052 68.8544 336.133 68.8544H337.05C337.196 68.8271 337.347 68.8358 337.49 68.8798C337.632 68.9239 337.762 69.0019 337.867 69.1071C337.972 69.2124 338.05 69.3417 338.094 69.4839C338.139 69.626 338.147 69.7768 338.12 69.9231C338.122 70.0773 338.09 70.23 338.027 70.3707C337.964 70.5114 337.871 70.6368 337.755 70.7384C337.638 70.8399 337.502 70.9151 337.354 70.9589C337.206 71.0026 337.05 71.0139 336.897 70.9918H335.063Z" fill="#306FB7"/>
<path d="M449.344 48.4157C450.096 48.4157 450.817 48.714 451.349 49.245C451.88 49.776 452.179 50.4961 452.179 51.2471V78.4992C452.179 79.2501 451.88 79.9703 451.349 80.5013C450.817 81.0323 450.096 81.3306 449.344 81.3306H367.252C366.5 81.3306 365.779 81.0323 365.248 80.5013C364.716 79.9703 364.417 79.2501 364.417 78.4992V51.2471C364.417 50.4961 364.716 49.776 365.248 49.245C365.779 48.714 366.5 48.4157 367.252 48.4157H449.344ZM449.344 47H367.252C366.124 47 365.043 47.4475 364.245 48.2439C363.448 49.0404 363 50.1207 363 51.2471V78.4992C363 79.6256 363.448 80.7058 364.245 81.5023C365.043 82.2988 366.124 82.7463 367.252 82.7463H449.344C450.472 82.7463 451.553 82.2988 452.351 81.5023C453.148 80.7058 453.596 79.6256 453.596 78.4992V51.2471C453.596 50.1207 453.148 49.0404 452.351 48.2439C451.553 47.4475 450.472 47 449.344 47Z" fill="white"/>
<path d="M401.035 55.6124C401.068 55.9712 401.01 56.3328 400.866 56.663C400.721 56.9932 400.495 57.2813 400.208 57.4999C399.577 58.013 398.775 58.2662 397.964 58.2078H397.137V61.1572H395.837V53.2529H398.082C398.874 53.2013 399.662 53.4083 400.326 53.8427C400.574 54.0622 400.767 54.3364 400.89 54.6437C401.013 54.9509 401.063 55.2826 401.035 55.6124ZM397.137 57.146H397.845C398.102 57.1752 398.362 57.1481 398.606 57.0666C398.851 56.9851 399.075 56.8511 399.263 56.6741C399.403 56.5506 399.517 56.4005 399.599 56.2326C399.681 56.0647 399.729 55.8823 399.74 55.6959C399.751 55.5095 399.725 55.3227 399.663 55.1464C399.602 54.9701 399.506 54.8077 399.381 54.6686C398.991 54.4272 398.54 54.3042 398.082 54.3146H397.137V57.146Z" fill="white"/>
<path d="M405.641 55.0225H406.35V56.2023H405.641C405.172 56.2334 404.721 56.3971 404.342 56.6742C404.1 57.0632 403.977 57.5141 403.987 57.9719V61.1572H402.688V55.1405H403.633L403.869 56.2023C404.081 55.8703 404.364 55.5885 404.696 55.3764C404.822 55.2575 404.97 55.1649 405.133 55.1041C405.295 55.0433 405.468 55.0156 405.641 55.0225Z" fill="white"/>
<path d="M407.531 53.6065C407.512 53.4026 407.553 53.1977 407.649 53.0166H408.712C408.856 53.1801 408.94 53.3885 408.948 53.6065C408.924 53.7857 408.841 53.952 408.713 54.0799C408.585 54.2078 408.419 54.2901 408.239 54.3143L407.649 54.0784C407.531 53.9604 407.531 53.8424 407.531 53.6065ZM408.83 61.1568H407.531V55.1401H408.83V61.1568Z" fill="white"/>
<path d="M412.137 61.1563L409.893 55.1396H411.31L412.492 58.6789C412.707 59.1211 412.828 59.6032 412.846 60.0946L413.318 58.6789L414.5 55.1396H415.917L413.555 61.1563H412.137Z" fill="white"/>
<path d="M420.642 61.1561L420.288 60.3303C420.074 60.6304 419.79 60.8735 419.461 61.0381L418.28 61.2741C418.027 61.2915 417.773 61.2547 417.536 61.166C417.299 61.0773 417.084 60.9389 416.904 60.76C416.725 60.5811 416.587 60.3659 416.498 60.129C416.409 59.892 416.372 59.6388 416.39 59.3865C416.362 59.1238 416.414 58.8589 416.541 58.627C416.668 58.3951 416.862 58.2073 417.098 58.0887C417.726 57.6711 418.471 57.4645 419.225 57.4989H420.288V57.1449C420.293 56.9898 420.263 56.8354 420.202 56.6928C420.141 56.5501 420.049 56.4225 419.933 56.3191L419.106 56.0832H418.28L417.453 56.4371L416.98 55.4933L418.043 55.1394H419.225C419.816 55.0836 420.406 55.2521 420.878 55.6113C421.102 55.7932 421.274 56.0305 421.378 56.2996C421.482 56.5686 421.513 56.8601 421.469 57.1449V61.1561H420.642ZM418.634 60.2123C419.055 60.221 419.468 60.0972 419.815 59.8584C419.943 59.7147 420.041 59.5465 420.102 59.3639C420.163 59.1814 420.186 58.9883 420.169 58.7966V58.2067H419.461L418.161 58.4427C418.046 58.5461 417.954 58.6736 417.893 58.8163C417.831 58.959 417.802 59.1133 417.807 59.2685C417.807 59.5044 417.807 59.7404 418.043 59.8584C418.28 59.9763 418.398 60.2123 418.634 60.2123Z" fill="white"/>
<path d="M425.839 61.2746C425.448 61.2846 425.058 61.2168 424.693 61.075C424.328 60.9333 423.995 60.7204 423.713 60.4488C423.219 59.8087 422.968 59.0146 423.004 58.2073C422.952 57.777 423 57.3405 423.143 56.9314C423.286 56.5224 423.522 56.1516 423.831 55.8478C424.094 55.5503 424.424 55.32 424.794 55.1763C425.164 55.0326 425.563 54.9796 425.957 55.022C426.528 55.0137 427.094 55.1347 427.611 55.3759L427.257 56.4377L425.957 56.0837C424.894 56.0837 424.422 56.7916 424.422 58.2073C424.379 58.7054 424.503 59.2038 424.776 59.623C424.91 59.8097 425.088 59.9609 425.294 60.0637C425.5 60.1665 425.727 60.2177 425.957 60.2128C426.5 60.184 427.028 60.0219 427.493 59.7409V60.9207L426.784 61.1566L425.839 61.2746Z" fill="white"/>
<path d="M428.083 55.1396H429.501L430.682 58.5609C430.895 58.962 431.016 59.4052 431.036 59.8586H431.155C431.214 59.6265 431.254 59.3897 431.273 59.1508L432.69 55.1396H433.989L431.391 61.9822C431.281 62.4917 430.997 62.9472 430.587 63.2702C430.178 63.5931 429.668 63.7634 429.147 63.7518H428.32V62.808H428.91C429.218 62.8131 429.517 62.7092 429.755 62.5148C429.993 62.3204 430.154 62.0481 430.21 61.7462L430.446 61.1563L428.083 55.1396Z" fill="white"/>
<path d="M400.916 69.4153C400.931 69.7719 400.863 70.1271 400.72 70.454C400.577 70.781 400.361 71.0712 400.09 71.3029C399.412 71.8138 398.574 72.065 397.727 72.0108H396.782V75.0781H395.837V67.1738H397.845C399.972 67.1738 400.916 67.8817 400.916 69.4153ZM396.782 71.185H397.609C398.233 71.2043 398.849 71.0402 399.381 70.7131C399.576 70.5839 399.736 70.4086 399.846 70.2028C399.957 69.9969 400.015 69.7669 400.015 69.5333C400.015 69.2997 399.957 69.0697 399.846 68.8639C399.736 68.658 399.576 68.4827 399.381 68.3536C398.94 68.0219 398.397 67.855 397.845 67.8817H396.782V71.185Z" fill="white"/>
<path d="M405.287 69.0614H405.995V69.8872H405.287C404.835 69.9356 404.415 70.145 404.105 70.4771C403.773 70.9175 403.606 71.4601 403.633 72.0108V75.1961H402.688V69.0614H403.515V70.2411C403.695 69.8544 403.982 69.527 404.342 69.2973C404.614 69.0993 404.953 69.0147 405.287 69.0614Z" fill="white"/>
<path d="M412.373 72.129C412.41 72.9363 412.158 73.7304 411.665 74.3705C411.118 74.8808 410.404 75.1745 409.657 75.1963C409.159 75.2231 408.665 75.0998 408.239 74.8424C407.794 74.5413 407.429 74.1363 407.176 73.6626C407.021 73.1661 406.941 72.6491 406.94 72.129C406.886 71.2831 407.137 70.4458 407.649 69.7695C407.914 69.5166 408.231 69.3227 408.577 69.2007C408.923 69.0787 409.291 69.0313 409.657 69.0616C410.004 69.0407 410.351 69.0929 410.677 69.2149C411.002 69.3368 411.299 69.5258 411.546 69.7695C411.836 70.0868 412.059 70.4593 412.201 70.8648C412.343 71.2703 412.402 71.7003 412.373 72.129ZM407.885 72.129C407.846 72.7018 407.969 73.274 408.239 73.7806C408.615 74.157 409.125 74.3692 409.657 74.3705C410.15 74.351 410.617 74.1393 410.956 73.7806C411.334 73.2727 411.503 72.6395 411.428 72.011C411.484 71.4207 411.316 70.8311 410.956 70.3594C410.792 70.1454 410.575 69.9783 410.326 69.8747C410.077 69.7712 409.806 69.7349 409.538 69.7695C409.289 69.7442 409.037 69.7855 408.809 69.8892C408.581 69.9928 408.384 70.155 408.239 70.3594C407.959 70.9049 407.836 71.5177 407.885 72.129Z" fill="white"/>
<path d="M415.917 74.3702H416.744V75.0781H415.799C414.736 75.0781 414.145 74.4882 414.145 73.3085V69.7692H413.2V69.4153L414.145 69.0614L414.499 67.7637H415.09V69.0614H416.744V69.7692H415.09V73.3085C415.09 73.6624 415.09 74.0163 415.326 74.1343C415.563 74.2523 415.681 74.3702 415.917 74.3702Z" fill="white"/>
<path d="M420.642 75.0779C420.258 75.1104 419.871 75.0644 419.506 74.9427C419.14 74.821 418.803 74.6262 418.516 74.37C418.022 73.7299 417.771 72.9358 417.807 72.1285C417.773 71.285 418.022 70.4543 418.516 69.769C418.758 69.5098 419.05 69.3028 419.375 69.1608C419.7 69.0188 420.051 68.9447 420.406 68.9432C420.746 68.9292 421.084 68.9969 421.392 69.1406C421.701 69.2843 421.97 69.4998 422.177 69.769C422.586 70.3116 422.795 70.9783 422.768 71.6566V72.2465H418.634C418.659 72.8081 418.867 73.3463 419.225 73.7802C419.6 74.1566 420.11 74.3687 420.642 74.37C421.295 74.3252 421.935 74.1655 422.532 73.8981V74.724L421.587 75.0779H420.642ZM420.288 69.769C420.085 69.7494 419.88 69.7825 419.694 69.8652C419.508 69.9479 419.346 70.0773 419.225 70.2409C418.892 70.5978 418.684 71.0534 418.634 71.5386H421.823C421.862 71.3 421.839 71.0555 421.756 70.8283C421.673 70.6012 421.534 70.399 421.351 70.2409C421.229 70.0773 421.068 69.9479 420.881 69.8652C420.695 69.7825 420.491 69.7494 420.288 69.769Z" fill="white"/>
<path d="M426.784 75.078C426.048 75.1117 425.328 74.8578 424.776 74.3702C424.282 73.7301 424.031 72.936 424.067 72.1287C424.013 71.2828 424.265 70.4456 424.776 69.7692C425.04 69.5065 425.353 69.2983 425.698 69.1566C426.042 69.0149 426.411 68.9425 426.784 68.9434H427.729L428.32 69.1793L428.083 69.8872L427.493 69.6512H426.784C425.603 69.6512 425.012 70.477 425.012 71.8927C424.956 72.483 425.125 73.0727 425.485 73.5444C425.721 74.0163 426.193 74.1342 426.784 74.1342L428.32 73.8983V74.6061C427.861 74.9022 427.33 75.0655 426.784 75.078Z" fill="white"/>
<path d="M431.745 74.3702H432.572V75.0781H431.627C430.564 75.0781 429.973 74.4882 429.973 73.3085V69.7692H429.146V69.4153L429.973 69.0614L430.328 67.7637H430.918V69.0614H432.572V69.7692H430.918V73.3085C430.918 73.6624 430.918 74.0163 431.154 74.1343C431.391 74.2523 431.391 74.3702 431.745 74.3702Z" fill="white"/>
<path d="M436.352 75.0781C435.616 75.1117 434.895 74.8579 434.344 74.3703C434.057 74.0749 433.835 73.7229 433.693 73.3368C433.55 72.9508 433.49 72.5393 433.517 72.1287C433.482 71.2852 433.732 70.4545 434.225 69.7692C434.729 69.2667 435.404 68.9719 436.115 68.9434C436.458 68.9066 436.804 68.9642 437.116 69.1097C437.429 69.2553 437.695 69.4833 437.887 69.7692C438.131 70.0167 438.32 70.3126 438.442 70.6378C438.564 70.963 438.617 71.3102 438.596 71.6568V72.2467H434.462C434.446 72.5295 434.491 72.8124 434.593 73.0767C434.694 73.3411 434.851 73.5809 435.052 73.7804C435.223 73.9859 435.441 74.1469 435.688 74.2496C435.935 74.3523 436.203 74.3937 436.47 74.3703C437.12 74.3124 437.758 74.1532 438.36 73.8984V74.7242L437.415 75.0781H436.352ZM436.115 69.7692C435.896 69.759 435.677 69.7959 435.474 69.8773C435.27 69.9587 435.086 70.0828 434.934 70.2411C434.636 70.6091 434.47 71.0658 434.462 71.5389H437.651C437.663 71.0622 437.494 70.5986 437.178 70.2411C437.057 70.0776 436.895 69.9481 436.709 69.8654C436.523 69.7827 436.318 69.7496 436.115 69.7692Z" fill="white"/>
<path d="M444.265 74.2523C444.039 74.5309 443.75 74.7513 443.421 74.895C443.092 75.0387 442.734 75.1015 442.375 75.0781C442.045 75.1062 441.713 75.0568 441.406 74.9339C441.098 74.811 440.823 74.618 440.604 74.3703C440.11 73.7302 439.859 72.9361 439.895 72.1288C439.841 71.2829 440.092 70.4457 440.604 69.7693C440.811 69.5001 441.081 69.2846 441.389 69.1409C441.697 68.9972 442.035 68.9295 442.375 68.9435C442.744 68.9337 443.109 69.0147 443.439 69.1793C443.768 69.3439 444.052 69.5871 444.265 69.8873V66.584H445.092V74.9602H444.383L444.265 74.2523ZM442.494 74.3703C442.732 74.409 442.977 74.3859 443.205 74.3033C443.432 74.2207 443.635 74.0813 443.793 73.8984C444.076 73.3967 444.2 72.8205 444.147 72.2468C444.196 71.6355 444.073 71.0227 443.793 70.4771C443.627 70.2985 443.426 70.1559 443.202 70.0584C442.979 69.961 442.737 69.9106 442.494 69.9106C442.25 69.9106 442.008 69.961 441.785 70.0584C441.561 70.1559 441.36 70.2985 441.194 70.4771C440.939 71.0312 440.818 71.6373 440.84 72.2468C440.808 72.8569 440.93 73.4653 441.194 74.0164C441.374 74.1631 441.582 74.2705 441.806 74.3314C442.03 74.3924 442.264 74.4057 442.494 74.3703Z" fill="white"/>
<path d="M381.309 66.3477C380.933 66.3477 380.573 66.4968 380.307 66.7623C380.041 67.0278 379.892 67.3879 379.892 67.7633C379.91 68.0015 379.983 68.2322 380.106 68.4371C380.229 68.6419 380.398 68.8151 380.6 68.9431V70.4768C380.6 70.6645 380.675 70.8445 380.808 70.9773C380.941 71.11 381.121 71.1846 381.309 71.1846C381.497 71.1846 381.677 71.11 381.81 70.9773C381.943 70.8445 382.018 70.6645 382.018 70.4768V68.9431C382.235 68.8326 382.416 68.6633 382.541 68.4547C382.667 68.2461 382.731 68.0066 382.726 67.7633C382.726 67.3879 382.577 67.0278 382.311 66.7623C382.045 66.4968 381.685 66.3477 381.309 66.3477Z" fill="white"/>
<path d="M388.159 62.3356H387.333V59.6222C387.333 58.832 387.177 58.0497 386.874 57.3197C386.571 56.5897 386.128 55.9264 385.568 55.3677C385.009 54.809 384.345 54.3658 383.614 54.0635C382.883 53.7611 382.1 53.6055 381.309 53.6055C380.517 53.6055 379.734 53.7611 379.003 54.0635C378.272 54.3658 377.608 54.809 377.049 55.3677C376.49 55.9264 376.046 56.5897 375.743 57.3197C375.44 58.0497 375.285 58.832 375.285 59.6222V62.3356H374.458C373.915 62.3658 373.404 62.6028 373.03 62.9978C372.657 63.3928 372.449 63.9158 372.45 64.4591V73.0712C372.45 73.6032 372.661 74.1133 373.038 74.4894C373.414 74.8655 373.925 75.0768 374.458 75.0768H388.277C388.81 75.0768 389.321 74.8655 389.697 74.4894C390.074 74.1133 390.285 73.6032 390.285 73.0712V64.4591C390.285 63.8959 390.061 63.3558 389.663 62.9575C389.264 62.5593 388.723 62.3356 388.159 62.3356ZM376.82 62.3356V59.6222C376.82 58.4332 377.293 57.2929 378.135 56.4522C378.976 55.6115 380.118 55.1391 381.309 55.1391C382.51 55.1387 383.664 55.6073 384.525 56.4448C385.385 57.2823 385.884 58.4225 385.915 59.6222V62.3356H376.82ZM388.75 64.4591V73.0712C388.75 73.1332 388.738 73.1946 388.714 73.2518C388.69 73.3091 388.655 73.3611 388.612 73.4049C388.568 73.4488 388.516 73.4835 388.458 73.5072C388.401 73.5309 388.34 73.5431 388.277 73.5431H374.458C374.32 73.5459 374.185 73.5002 374.077 73.414C373.969 73.3278 373.895 73.2065 373.867 73.0712V64.4591C373.867 64.3027 373.929 64.1526 374.04 64.042C374.151 63.9314 374.301 63.8692 374.458 63.8692H388.159C388.316 63.8692 388.466 63.9314 388.577 64.042C388.688 64.1526 388.75 64.3027 388.75 64.4591Z" fill="white"/>
<path d="M449.344 1.41569C449.716 1.41569 450.085 1.48893 450.429 1.63122C450.773 1.77351 451.085 1.98207 451.349 2.24499C451.612 2.50791 451.821 2.82003 451.963 3.16355C452.106 3.50707 452.179 3.87525 452.179 4.24708V31.7351C452.179 32.1069 452.106 32.4751 451.963 32.8186C451.821 33.1622 451.612 33.4743 451.349 33.7372C451.085 34.0001 450.773 34.2087 450.429 34.351C450.085 34.4933 449.716 34.5665 449.344 34.5665H367.252C366.88 34.5665 366.511 34.4933 366.167 34.351C365.823 34.2087 365.511 34.0001 365.248 33.7372C364.984 33.4743 364.776 33.1622 364.633 32.8186C364.491 32.4751 364.417 32.1069 364.417 31.7351V4.24708C364.417 3.49615 364.716 2.77598 365.248 2.24499C365.779 1.714 366.5 1.41569 367.252 1.41569H449.344ZM449.344 0H367.252C366.124 0 365.043 0.447456 364.245 1.24394C363.448 2.04042 363 3.12068 363 4.24708V31.7351C363 32.8615 363.448 33.9418 364.245 34.7383C365.043 35.5347 366.124 35.9822 367.252 35.9822H449.344C450.472 35.9822 451.553 35.5347 452.351 34.7383C453.148 33.9418 453.596 32.8615 453.596 31.7351V4.24708C453.596 3.12068 453.148 2.04042 452.351 1.24394C451.553 0.447456 450.472 0 449.344 0Z" fill="white"/>
<path d="M389.931 12.2165L381.545 7.7335C381.437 7.67138 381.315 7.63867 381.19 7.63867C381.066 7.63867 380.944 7.67138 380.836 7.7335L372.686 12.2165C372.55 12.2806 372.435 12.3803 372.351 12.505C372.268 12.6297 372.22 12.7747 372.213 12.9244V17.9973C372.225 20.4164 372.933 22.7811 374.253 24.8098C375.572 26.8386 377.447 28.446 379.655 29.4408L380.836 29.9127H381.427L382.608 29.3228C384.865 28.3835 386.79 26.7927 388.137 24.754C389.484 22.7154 390.191 20.3216 390.167 17.8793V12.9244C390.207 12.8645 390.233 12.7963 390.243 12.7249C390.253 12.6536 390.246 12.5809 390.223 12.5126C390.2 12.4443 390.162 12.3821 390.111 12.3308C390.061 12.2794 389.999 12.2404 389.931 12.2165ZM382.017 28.0251L381.19 28.497L380.364 28.0251C378.395 27.1892 376.718 25.7919 375.541 24.0081C374.365 22.2243 373.741 20.1334 373.749 17.9973V13.3963L381.19 9.38515L388.75 13.3963V17.9973C388.742 20.13 388.113 22.2143 386.938 23.9953C385.763 25.7762 384.094 27.1766 382.135 28.0251H382.017Z" fill="white"/>
<path d="M385.914 16.5813C385.891 16.3304 385.81 16.0883 385.678 15.8734C385.612 15.7981 385.53 15.7378 385.438 15.6965C385.347 15.6552 385.247 15.6338 385.147 15.6338C385.046 15.6338 384.947 15.6552 384.855 15.6965C384.763 15.7378 384.682 15.7981 384.615 15.8734L380.127 19.5306L378.473 17.5251C378.407 17.4498 378.325 17.3894 378.233 17.3481C378.141 17.3068 378.042 17.2854 377.942 17.2854C377.841 17.2854 377.742 17.3068 377.65 17.3481C377.558 17.3894 377.477 17.4498 377.41 17.5251C377.174 17.5251 377.056 17.761 377.056 17.997C377.064 18.215 377.147 18.4234 377.292 18.5868L379.418 21.1823C379.6 21.3871 379.854 21.5139 380.127 21.5362H380.599L385.678 17.2891L385.914 16.5813Z" fill="white"/>
<path d="M400.325 13.3955C400.335 13.7058 400.277 14.0145 400.154 14.2999C400.032 14.5852 399.848 14.8403 399.616 15.0471C398.989 15.4648 398.244 15.6714 397.49 15.637C396.751 15.6915 396.011 15.5274 395.364 15.1651V13.9854C395.699 14.1554 396.057 14.2747 396.427 14.3393L397.608 14.5752C398.032 14.6023 398.451 14.4768 398.79 14.2213C398.913 14.1239 399.01 13.9974 399.072 13.8532C399.133 13.709 399.158 13.5517 399.144 13.3955C399.122 13.1227 398.995 12.8692 398.79 12.6876L397.372 11.9798C396.759 11.8011 396.22 11.4286 395.837 10.918C395.595 10.529 395.472 10.0781 395.482 9.62031C395.463 9.32593 395.518 9.03142 395.642 8.76357C395.765 8.49572 395.954 8.26302 396.191 8.08664C396.449 7.86397 396.749 7.69669 397.075 7.5952C397.4 7.49371 397.742 7.4602 398.081 7.49677C398.854 7.49279 399.619 7.65367 400.325 7.96867L399.853 9.03044C399.251 8.77561 398.614 8.61638 397.963 8.55854C397.789 8.54416 397.614 8.56844 397.451 8.62964C397.287 8.69083 397.139 8.78742 397.018 8.91247C396.904 8.99139 396.812 9.09755 396.75 9.22123C396.688 9.3449 396.659 9.48213 396.664 9.62031C396.664 9.85626 396.782 9.97424 396.782 10.0922C396.876 10.3017 397.044 10.4695 397.254 10.5641L398.317 11.036L399.616 11.7439L400.207 12.4517C400.314 12.7542 400.354 13.0761 400.325 13.3955Z" fill="white"/>
<path d="M404.459 15.6374C404.067 15.6543 403.675 15.5897 403.309 15.4475C402.943 15.3054 402.611 15.0888 402.333 14.8116C402.046 14.5162 401.824 14.1642 401.682 13.7782C401.54 13.3921 401.48 12.9806 401.506 12.5701C401.471 11.7266 401.721 10.8958 402.215 10.2106C402.761 9.70025 403.475 9.40661 404.223 9.38477C404.915 9.40131 405.581 9.65073 406.113 10.0926C406.601 10.6437 406.855 11.3631 406.821 12.0982V12.806H402.805C402.767 13.0446 402.79 13.2892 402.872 13.5163C402.955 13.7435 403.095 13.9457 403.278 14.1037C403.424 14.2689 403.607 14.3975 403.812 14.4795C404.017 14.5614 404.239 14.5943 404.459 14.5756H405.522L406.467 14.3397V15.2835L405.522 15.6374H404.459ZM404.341 10.3286C404.157 10.3286 403.977 10.3712 403.813 10.4531C403.649 10.535 403.506 10.6539 403.396 10.8005C403.232 10.9217 403.103 11.0832 403.02 11.2692C402.937 11.4553 402.904 11.6596 402.923 11.8622H405.64C405.656 11.6762 405.635 11.4888 405.579 11.3108C405.522 11.1329 405.431 10.9679 405.31 10.8253C405.189 10.6828 405.042 10.5655 404.875 10.4802C404.709 10.395 404.527 10.3434 404.341 10.3286Z" fill="white"/>
<path d="M410.837 15.6374C410.443 15.6797 410.044 15.6268 409.674 15.4831C409.304 15.3394 408.974 15.1091 408.711 14.8116C408.249 14.1552 408.002 13.3723 408.003 12.5701C407.982 11.7093 408.276 10.8704 408.829 10.2106C409.111 9.93899 409.444 9.7261 409.809 9.58433C410.174 9.44255 410.564 9.37472 410.955 9.38476C411.526 9.37648 412.092 9.49747 412.609 9.73868L412.255 10.8005L410.955 10.4465C409.892 10.4465 409.42 11.1544 409.42 12.5701C409.384 13.105 409.507 13.6387 409.774 14.1037C410.096 14.4017 410.517 14.5698 410.955 14.5756C411.541 14.5857 412.117 14.4214 412.609 14.1037V15.2835L411.782 15.5194L410.837 15.6374Z" fill="white"/>
<path d="M418.279 15.5196L418.043 14.6938C417.863 15.0227 417.569 15.2745 417.216 15.4017L416.153 15.6376C415.55 15.6386 414.966 15.43 414.5 15.0477C414.31 14.8205 414.17 14.5562 414.089 14.2718C414.007 13.9873 413.986 13.6891 414.027 13.3961V9.50293H415.326V13.1601C415.321 13.5276 415.402 13.8912 415.563 14.2219C415.684 14.347 415.832 14.4435 415.995 14.5047C416.159 14.5659 416.334 14.5902 416.508 14.5758C416.728 14.5945 416.949 14.5616 417.154 14.4797C417.359 14.3977 417.542 14.2691 417.689 14.1039C417.971 13.6448 418.095 13.1064 418.043 12.5703V9.50293H419.342V15.5196H418.279Z" fill="white"/>
<path d="M424.185 9.38477H424.894V10.5645H424.303C423.864 10.5703 423.444 10.7385 423.122 11.0364C422.96 11.21 422.835 11.4144 422.754 11.6373C422.672 11.8603 422.637 12.0972 422.649 12.3341V15.5194H421.35V9.50274H422.295L422.531 10.5645C422.744 10.2326 423.026 9.95075 423.358 9.73868C423.583 9.52614 423.876 9.40064 424.185 9.38477Z" fill="white"/>
<path d="M428.791 15.6369C428.38 15.6632 427.968 15.6033 427.582 15.4611C427.195 15.3188 426.843 15.0974 426.547 14.8111C426.011 14.1874 425.717 13.3917 425.72 12.5696C425.72 11.7121 426.011 10.88 426.547 10.2101C426.789 9.95085 427.081 9.74386 427.406 9.60183C427.731 9.45981 428.082 9.38576 428.437 9.38425C428.793 9.36561 429.15 9.424 429.481 9.55543C429.813 9.68687 430.112 9.88825 430.359 10.1458C430.606 10.4034 430.794 10.7111 430.911 11.048C431.027 11.3848 431.07 11.7429 431.036 12.0977V12.8055H427.02C427.062 13.2715 427.225 13.7186 427.492 14.1032C427.662 14.2709 427.866 14.3998 428.09 14.4813C428.314 14.5628 428.553 14.5948 428.791 14.5751H429.736L430.799 14.3392V15.283L429.854 15.6369H428.791ZM428.437 10.328C428.251 10.3429 428.069 10.3944 427.903 10.4797C427.736 10.565 427.588 10.6822 427.468 10.8248C427.347 10.9673 427.256 11.1324 427.199 11.3103C427.142 11.4883 427.121 11.6757 427.138 11.8617H429.854C429.828 11.4836 429.706 11.1182 429.5 10.7999C429.221 10.5095 428.84 10.34 428.437 10.328Z" fill="white"/>
<path d="M399.262 22.2445C398.862 22.2498 398.468 22.3362 398.102 22.4985C397.737 22.6607 397.408 22.8954 397.136 23.1883C396.604 23.8541 396.35 24.6995 396.427 25.5478C396.373 26.3937 396.624 27.2309 397.136 27.9073C397.393 28.2188 397.718 28.4663 398.087 28.6301C398.456 28.794 398.859 28.8696 399.262 28.8511L401.152 28.4972V29.323C400.51 29.5638 399.829 29.6838 399.144 29.6769C398.641 29.7106 398.136 29.6329 397.667 29.4493C397.197 29.2658 396.774 28.9809 396.427 28.6151C396.073 28.1927 395.807 27.7037 395.644 27.1769C395.482 26.6501 395.427 26.0962 395.482 25.5478C395.441 24.81 395.604 24.0751 395.955 23.4243C396.218 22.8208 396.675 22.3225 397.254 22.0086C397.864 21.6623 398.561 21.4985 399.262 21.5367C399.987 21.5178 400.709 21.6379 401.388 21.8906L401.034 22.7164C400.5 22.3955 399.885 22.2319 399.262 22.2445Z" fill="white"/>
<path d="M406.94 29.5586V25.6655C406.958 25.475 406.934 25.2829 406.869 25.1028C406.804 24.9228 406.701 24.7592 406.565 24.6239C406.43 24.4886 406.266 24.3849 406.086 24.3203C405.905 24.2556 405.713 24.2315 405.522 24.2498C405.284 24.2111 405.039 24.2342 404.811 24.3168C404.584 24.3994 404.381 24.5388 404.223 24.7217C403.863 25.1934 403.695 25.783 403.751 26.3733V29.5586H402.924V21.0645H403.751V24.3677C403.967 24.0707 404.25 23.8283 404.577 23.6599L405.641 23.4239C406.232 23.3681 406.822 23.5366 407.294 23.8958C407.696 24.3501 407.908 24.9416 407.885 25.5475V29.4406H406.94V29.5586Z" fill="white"/>
<path d="M412.255 29.677C411.882 29.678 411.513 29.6055 411.168 29.4638C410.824 29.3221 410.511 29.1139 410.247 28.8512C409.753 28.2111 409.502 27.417 409.538 26.6097C409.48 25.7996 409.733 24.9978 410.247 24.3682C410.46 24.068 410.744 23.8249 411.074 23.6603C411.403 23.4957 411.768 23.4146 412.137 23.4244C412.462 23.3967 412.788 23.4591 413.08 23.6048C413.372 23.7505 413.617 23.9739 413.79 24.2502C414.034 24.4977 414.223 24.7936 414.346 25.1188C414.468 25.444 414.52 25.7911 414.499 26.1378V26.7277H410.365C410.39 27.2893 410.597 27.8275 410.955 28.2614C411.331 28.6378 411.841 28.8499 412.373 28.8512C413.019 28.849 413.66 28.729 414.263 28.4973V29.2051L413.318 29.5591L412.255 29.677ZM412.019 24.2502C411.816 24.2306 411.611 24.2637 411.425 24.3464C411.239 24.4291 411.077 24.5585 410.955 24.7221C410.596 25.061 410.384 25.5268 410.365 26.0198H413.554C413.593 25.7812 413.57 25.5367 413.487 25.3095C413.404 25.0824 413.265 24.8802 413.082 24.7221C412.96 24.5585 412.799 24.4291 412.612 24.3464C412.426 24.2637 412.221 24.2306 412.019 24.2502Z" fill="white"/>
<path d="M418.515 29.6765C418.142 29.6774 417.773 29.6049 417.429 29.4632C417.084 29.3215 416.771 29.1134 416.507 28.8507C416.013 28.2105 415.762 27.4165 415.798 26.6092C415.744 25.7633 415.995 24.926 416.507 24.2497C416.771 23.987 417.084 23.7788 417.429 23.6371C417.773 23.4954 418.142 23.4229 418.515 23.4238H419.342L420.051 23.6598L419.814 24.3676H418.515C417.334 24.3676 416.743 25.1935 416.743 26.6092C416.721 27.2186 416.842 27.8248 417.098 28.3788C417.256 28.5678 417.455 28.7188 417.68 28.8209C417.905 28.923 418.15 28.9735 418.397 28.9686C418.93 28.976 419.457 28.8545 419.932 28.6147V29.4405C419.494 29.6571 419 29.7392 418.515 29.6765Z" fill="white"/>
<path d="M422.413 26.4913L423.122 25.6655L425.012 23.5419H426.193L423.712 26.1374L426.311 29.5586H425.248L423.122 26.7272L422.413 27.3171V29.5586H421.468V21.0645H422.413V26.4913Z" fill="white"/>
<path d="M432.571 26.4912C432.626 27.3371 432.374 28.1743 431.863 28.8507C431.607 29.1248 431.296 29.3406 430.949 29.4831C430.603 29.6257 430.229 29.6916 429.855 29.6765C429.361 29.6697 428.876 29.5485 428.437 29.3226C428.059 28.984 427.74 28.5854 427.492 28.1428C427.214 27.5176 427.1 26.8316 427.162 26.1502C427.225 25.4688 427.46 24.8145 427.847 24.2497C428.393 23.7393 429.107 23.4457 429.855 23.4238C430.227 23.4229 430.596 23.4954 430.941 23.6371C431.286 23.7788 431.599 23.987 431.863 24.2497C432.357 24.8898 432.608 25.6839 432.571 26.4912ZM428.083 26.4912C428.008 27.1197 428.177 27.7529 428.555 28.2608C428.721 28.4395 428.922 28.582 429.146 28.6795C429.369 28.777 429.611 28.8273 429.855 28.8273C430.099 28.8273 430.34 28.777 430.564 28.6795C430.787 28.582 430.988 28.4395 431.154 28.2608C431.532 27.7529 431.701 27.1197 431.626 26.4912C431.682 25.9009 431.514 25.3112 431.154 24.8395C430.918 24.3676 430.445 24.2497 429.855 24.2497C429.264 24.2497 428.792 24.3676 428.555 24.8395C428.196 25.3112 428.027 25.9009 428.083 26.4912Z" fill="white"/>
<path d="M435.17 23.542V27.4351C435.165 27.8026 435.246 28.1662 435.406 28.4969C435.55 28.625 435.719 28.7224 435.902 28.7833C436.084 28.8441 436.278 28.8671 436.47 28.8508C436.726 28.8725 436.983 28.8419 437.227 28.7607C437.471 28.6796 437.695 28.5497 437.887 28.3789C438.158 27.8724 438.28 27.3001 438.241 26.7273V23.542H439.186V29.5587H438.478L438.241 28.7329C438.099 29.0471 437.847 29.2988 437.533 29.4407L436.351 29.6767C436.077 29.7078 435.799 29.682 435.534 29.6008C435.27 29.5196 435.026 29.3848 434.816 29.2048C434.414 28.7505 434.202 28.159 434.225 27.5531V23.542H435.17Z" fill="white"/>
<path d="M443.084 28.0781H443.911V28.7859H443.084C442.842 28.8271 442.594 28.8098 442.36 28.7354C442.126 28.6611 441.914 28.5318 441.74 28.3585C441.567 28.1852 441.437 27.9729 441.363 27.7394C441.288 27.5058 441.271 27.2579 441.312 27.0163V23.4771H440.485V23.0052L441.312 22.6512L441.667 21.3535H442.257V22.7692H443.911V23.4771H442.257V27.0163C442.262 27.3076 442.343 27.5925 442.493 27.8421L443.084 28.0781Z" fill="white"/>
</svg>
