<svg width="22" height="22" viewBox="0 0 22 22" fill="none" xmlns="http://www.w3.org/2000/svg">
<rect width="22" height="22" rx="5" fill="#F2EFFF"/>
<path d="M8.5625 8C8.41332 8 8.27024 8.05926 8.16475 8.16475C8.05926 8.27024 8 8.41332 8 8.5625V11.1875C8 11.498 8.252 11.75 8.5625 11.75H13.4375C13.5867 11.75 13.7298 11.6907 13.8352 11.5852C13.9407 11.4798 14 11.3367 14 11.1875V8.5625C14 8.41332 13.9407 8.27024 13.8352 8.16475C13.7298 8.05926 13.5867 8 13.4375 8H8.5625ZM8.75 11V8.75H13.25V11H8.75ZM8.75 6.875C8.75 6.97446 8.71049 7.06984 8.64016 7.14016C8.56984 7.21049 8.47446 7.25 8.375 7.25C8.27554 7.25 8.18016 7.21049 8.10984 7.14016C8.03951 7.06984 8 6.97446 8 6.875C8 6.77554 8.03951 6.68016 8.10984 6.60984C8.18016 6.53951 8.27554 6.5 8.375 6.5C8.47446 6.5 8.56984 6.53951 8.64016 6.60984C8.71049 6.68016 8.75 6.77554 8.75 6.875ZM14 6.875C14 6.97446 13.9605 7.06984 13.8902 7.14016C13.8198 7.21049 13.7245 7.25 13.625 7.25C13.5255 7.25 13.4302 7.21049 13.3598 7.14016C13.2895 7.06984 13.25 6.97446 13.25 6.875C13.25 6.77554 13.2895 6.68016 13.3598 6.60984C13.4302 6.53951 13.5255 6.5 13.625 6.5C13.7245 6.5 13.8198 6.53951 13.8902 6.60984C13.9605 6.68016 14 6.77554 14 6.875ZM8.375 13.25C8.47446 13.25 8.56984 13.2105 8.64016 13.1402C8.71049 13.0698 8.75 12.9745 8.75 12.875C8.75 12.7755 8.71049 12.6802 8.64016 12.6098C8.56984 12.5395 8.47446 12.5 8.375 12.5C8.27554 12.5 8.18016 12.5395 8.10984 12.6098C8.03951 12.6802 8 12.7755 8 12.875C8 12.9745 8.03951 13.0698 8.10984 13.1402C8.18016 13.2105 8.27554 13.25 8.375 13.25ZM13.625 13.25C13.7245 13.25 13.8198 13.2105 13.8902 13.1402C13.9605 13.0698 14 12.9745 14 12.875C14 12.7755 13.9605 12.6802 13.8902 12.6098C13.8198 12.5395 13.7245 12.5 13.625 12.5C13.5255 12.5 13.4302 12.5395 13.3598 12.6098C13.2895 12.6802 13.25 12.7755 13.25 12.875C13.25 12.9745 13.2895 13.0698 13.3598 13.1402C13.4302 13.2105 13.5255 13.25 13.625 13.25Z" fill="#6B46F2"/>
<path d="M6.5 6.5C6.5 6.10218 6.65804 5.72064 6.93934 5.43934C7.22064 5.15804 7.60218 5 8 5H14C14.3978 5 14.7794 5.15804 15.0607 5.43934C15.342 5.72064 15.5 6.10218 15.5 6.5V15.5C15.5 15.8978 15.342 16.2794 15.0607 16.5607C14.7794 16.842 14.3978 17 14 17H8C7.60218 17 7.22064 16.842 6.93934 16.5607C6.65804 16.2794 6.5 15.8978 6.5 15.5V6.5ZM14.75 15.5V6.5C14.75 6.30109 14.671 6.11032 14.5303 5.96967C14.3897 5.82902 14.1989 5.75 14 5.75H8C7.80109 5.75 7.61032 5.82902 7.46967 5.96967C7.32902 6.11032 7.25 6.30109 7.25 6.5V15.5C7.25 15.6989 7.32902 15.8897 7.46967 16.0303C7.61032 16.171 7.80109 16.25 8 16.25V14.75C8 14.5511 8.07902 14.3603 8.21967 14.2197C8.36032 14.079 8.55109 14 8.75 14H13.25C13.4489 14 13.6397 14.079 13.7803 14.2197C13.921 14.3603 14 14.5511 14 14.75V16.25C14.1989 16.25 14.3897 16.171 14.5303 16.0303C14.671 15.8897 14.75 15.6989 14.75 15.5ZM9.3125 16.25V14.75H8.75V16.25H9.3125ZM10.625 16.25V14.75H10.0625V16.25H10.625ZM11.9375 16.25V14.75H11.375V16.25H11.9375ZM13.25 14.75H12.6875V16.25H13.25V14.75Z" fill="#6B46F2"/>
</svg>
