<?xml version="1.0" encoding="UTF-8"?>
<svg xmlns="http://www.w3.org/2000/svg" xmlns:xlink="http://www.w3.org/1999/xlink" width="22.5pt" height="22.5pt" viewBox="0 0 22.5 22.5" version="1.1">
<g id="surface2">
<path style=" stroke:none;fill-rule:nonzero;fill:rgb(94.901961%,93.72549%,100%);fill-opacity:1;" d="M 5.097656 -0.15625 L 17.539062 -0.15625 C 20.402344 -0.15625 22.726562 2.707031 22.726562 5.03125 L 22.726562 17.472656 C 22.726562 20.335938 20.40625 22.660156 17.539062 22.660156 L 5.097656 22.660156 C 2.234375 22.660156 -0.0898438 19.796875 -0.0898438 17.472656 L -0.0898438 5.03125 C -0.0898438 2.167969 2.230469 -0.15625 5.097656 -0.15625 Z M 5.097656 -0.15625 "/>
<path style=" stroke:none;fill-rule:nonzero;fill:rgb(41.960784%,27.45098%,94.901961%);fill-opacity:1;" d="M 12.261719 3.65625 C 14.21875 3.824219 16.007812 5.109375 16.683594 6.964844 C 19.101562 8.066406 19.597656 11.296875 17.617188 13.027344 C 16.941406 13.625 15.445312 14.230469 15.613281 13.453125 C 15.667969 13.183594 16.367188 13.25 17.109375 12.664062 C 18.570312 11.503906 18.640625 9.234375 17.234375 8.007812 C 16.90625 7.804688 16.570312 7.601562 16.246094 7.398438 C 15.257812 4.496094 11.769531 3.269531 9.226562 5.101562 C 7.539062 6.316406 7.460938 8.09375 7.371094 8.261719 C 7.203125 8.597656 6.71875 8.226562 5.839844 8.542969 C 4.085938 9.183594 3.65625 11.691406 5.242188 12.839844 C 6.007812 13.390625 6.695312 13.144531 6.558594 13.683594 C 6.445312 14.167969 5.164062 13.558594 4.703125 13.167969 C 4.105469 12.660156 3.757812 11.917969 3.644531 11.152344 L 3.644531 10.589844 C 3.835938 8.9375 5.175781 7.765625 6.851562 7.789062 C 7.257812 5.539062 9.269531 3.804688 11.542969 3.648438 L 12.25 3.648438 Z M 12.261719 3.65625 "/>
<path style=" stroke:none;fill-rule:nonzero;fill:rgb(41.960784%,27.45098%,94.901961%);fill-opacity:1;" d="M 8.683594 8.574219 L 13.8125 8.574219 C 15.09375 8.730469 15.566406 10.429688 14.542969 11.230469 C 15.285156 11.9375 15.320312 12.917969 14.542969 13.605469 C 15.160156 14.179688 15.320312 15.058594 14.777344 15.742188 C 14.070312 16.632812 12.574219 16.179688 11.558594 16.292969 C 11.558594 16.5625 11.558594 16.832031 11.546875 17.113281 C 12.808594 17.722656 11.828125 19.316406 10.792969 18.734375 C 10.152344 18.375 10.265625 17.351562 10.960938 17.113281 C 10.960938 16.84375 10.960938 16.574219 10.949219 16.292969 C 9.960938 16.191406 8.464844 16.621094 7.765625 15.777344 C 7.203125 15.101562 7.339844 14.15625 8 13.617188 C 7.191406 13 7.234375 11.882812 8 11.242188 C 6.929688 10.488281 7.414062 8.746094 8.699219 8.585938 Z M 8.742188 9.167969 C 7.753906 9.3125 7.761719 10.800781 8.742188 10.945312 L 13.757812 10.945312 C 14.757812 10.800781 14.746094 9.304688 13.757812 9.167969 Z M 8.742188 11.542969 C 7.753906 11.6875 7.761719 13.175781 8.742188 13.320312 L 13.757812 13.320312 C 14.757812 13.175781 14.746094 11.679688 13.757812 11.542969 Z M 8.742188 13.917969 C 7.761719 14.054688 7.742188 15.558594 8.777344 15.695312 L 13.761719 15.695312 C 14.761719 15.550781 14.75 14.054688 13.761719 13.917969 Z M 11.203125 17.652344 C 10.855469 17.699219 10.898438 18.292969 11.292969 18.25 C 11.640625 18.203125 11.597656 17.609375 11.203125 17.652344 Z M 11.203125 17.652344 "/>
<path style=" stroke:none;fill-rule:nonzero;fill:rgb(41.960784%,27.45098%,94.901961%);fill-opacity:1;" d="M 8.953125 9.730469 L 11.472656 9.730469 C 11.71875 9.796875 11.753906 10.257812 11.347656 10.328125 L 9.0625 10.328125 C 8.65625 10.261719 8.746094 9.789062 8.9375 9.730469 Z M 8.953125 9.730469 "/>
<path style=" stroke:none;fill-rule:nonzero;fill:rgb(41.960784%,27.45098%,94.901961%);fill-opacity:1;" d="M 12.328125 9.730469 C 12.835938 9.605469 12.84375 10.417969 12.328125 10.292969 C 12.070312 10.238281 12.082031 9.785156 12.328125 9.730469 Z M 12.328125 9.730469 "/>
<path style=" stroke:none;fill-rule:nonzero;fill:rgb(41.960784%,27.45098%,94.901961%);fill-opacity:1;" d="M 13.375 9.730469 C 13.792969 9.628906 13.890625 10.191406 13.578125 10.292969 C 13.160156 10.4375 13.039062 9.808594 13.375 9.730469 Z M 13.375 9.730469 "/>
<path style=" stroke:none;fill-rule:nonzero;fill:rgb(41.960784%,27.45098%,94.901961%);fill-opacity:1;" d="M 8.953125 12.105469 L 11.472656 12.105469 C 11.71875 12.171875 11.753906 12.632812 11.347656 12.703125 L 9.0625 12.703125 C 8.65625 12.636719 8.746094 12.164062 8.9375 12.105469 Z M 8.953125 12.105469 "/>
<path style=" stroke:none;fill-rule:nonzero;fill:rgb(41.960784%,27.45098%,94.901961%);fill-opacity:1;" d="M 12.328125 12.105469 C 12.835938 11.980469 12.84375 12.792969 12.328125 12.667969 C 12.070312 12.613281 12.082031 12.160156 12.328125 12.105469 Z M 12.328125 12.105469 "/>
<path style=" stroke:none;fill-rule:nonzero;fill:rgb(41.960784%,27.45098%,94.901961%);fill-opacity:1;" d="M 13.375 12.105469 C 13.800781 12.003906 13.871094 12.589844 13.578125 12.667969 C 13.128906 12.78125 13.0625 12.171875 13.375 12.105469 Z M 13.375 12.105469 "/>
<path style=" stroke:none;fill-rule:nonzero;fill:rgb(41.960784%,27.45098%,94.901961%);fill-opacity:1;" d="M 8.953125 14.480469 L 11.472656 14.480469 C 11.71875 14.546875 11.753906 15.007812 11.347656 15.078125 L 9.0625 15.078125 C 8.65625 15.011719 8.746094 14.539062 8.9375 14.480469 Z M 8.953125 14.480469 "/>
<path style=" stroke:none;fill-rule:nonzero;fill:rgb(41.960784%,27.45098%,94.901961%);fill-opacity:1;" d="M 12.328125 14.480469 C 12.835938 14.355469 12.84375 15.167969 12.328125 15.042969 C 12.070312 14.988281 12.082031 14.535156 12.328125 14.480469 Z M 12.328125 14.480469 "/>
<path style=" stroke:none;fill-rule:nonzero;fill:rgb(41.960784%,27.45098%,94.901961%);fill-opacity:1;" d="M 13.375 14.480469 C 13.800781 14.378906 13.871094 14.964844 13.578125 15.042969 C 13.128906 15.15625 13.0625 14.546875 13.375 14.480469 Z M 13.375 14.480469 "/>
<path style=" stroke:none;fill-rule:nonzero;fill:rgb(41.960784%,27.45098%,94.901961%);fill-opacity:1;" d="M 3.65625 18.011719 L 3.65625 17.886719 C 3.710938 17.820312 3.769531 17.75 3.824219 17.683594 C 4.070312 17.570312 8.605469 17.707031 9.3125 17.648438 C 9.605469 17.75 9.59375 18.175781 9.3125 18.246094 L 3.914062 18.246094 C 3.777344 18.199219 3.722656 18.132812 3.667969 18.011719 Z M 3.65625 18.011719 "/>
<path style=" stroke:none;fill-rule:nonzero;fill:rgb(41.960784%,27.45098%,94.901961%);fill-opacity:1;" d="M 11.203125 17.652344 C 11.597656 17.605469 11.640625 18.203125 11.292969 18.25 C 10.898438 18.296875 10.855469 17.699219 11.203125 17.652344 Z M 11.203125 17.652344 "/>
<path style=" stroke:none;fill-rule:nonzero;fill:rgb(41.960784%,27.45098%,94.901961%);fill-opacity:1;" d="M 13.164062 17.652344 L 18.597656 17.652344 C 18.933594 17.777344 18.933594 18.113281 18.597656 18.25 L 13.164062 18.25 C 12.871094 18.183594 12.894531 17.722656 13.164062 17.652344 Z M 13.164062 17.652344 "/>
</g>
</svg>
