<svg width="70" height="70" viewBox="0 0 70 70" fill="none" xmlns="http://www.w3.org/2000/svg">
<path d="M57.663 1.1521H12.337C6.15967 1.1521 1.15198 6.15979 1.15198 12.3371V57.6631C1.15198 63.8404 6.15967 68.8481 12.337 68.8481H57.663C63.8403 68.8481 68.848 63.8404 68.848 57.6631V12.3371C68.848 6.15979 63.8403 1.1521 57.663 1.1521Z" fill="white"/>
<path d="M15.4835 17.2546H55.4738C56.3209 17.3958 57.4151 18.3665 57.5739 19.2489V45.9326C60.1329 45.3149 59.3387 50.5564 58.2975 51.7212C57.7327 52.3388 56.9562 52.5683 56.1974 52.833C49.0499 52.4271 18.3424 53.3624 14.7599 52.833C13.8775 52.7094 12.6421 51.9153 12.2186 51.1211C11.6362 50.027 11.0185 45.1914 13.3833 45.9326V19.2489C13.5598 18.2606 14.6011 17.5017 15.4835 17.2546ZM15.6246 18.8783L14.9717 19.5489C14.9893 28.3729 15.0246 37.1969 15.0423 46.0209C28.6842 46.0032 42.3261 45.9679 55.9679 45.9503V19.5489C55.8444 19.3724 55.7209 19.1959 55.5973 19.0371C50.4441 19.1783 17.5483 18.3841 15.607 18.8959L15.6246 18.8783ZM30.8902 47.6445C30.9784 47.9974 31.0843 48.3327 31.1725 48.6857H39.7494C39.8377 48.3327 39.9436 47.9974 40.0318 47.6445H30.8725H30.8902ZM16.207 48.6857C15.5188 48.9151 15.8011 50.3623 16.7894 50.027C17.4777 49.7975 17.1953 48.3504 16.207 48.6857ZM19.2601 48.6857C18.5719 48.8798 18.713 50.4682 19.8425 50.027C20.4602 49.7799 20.1955 48.421 19.2601 48.6857ZM22.3132 48.6857C21.7661 48.8092 21.5897 49.8152 22.172 50.027C23.478 50.5034 23.4251 48.4563 22.3132 48.6857ZM48.1852 48.6857C47.5675 48.8798 47.6204 50.4682 48.7676 50.027C49.4029 49.7799 49.0852 48.4033 48.1852 48.6857ZM51.2559 48.6857C50.3735 48.8798 50.7971 50.4682 51.8383 50.027C52.3501 49.7975 52.156 48.5092 51.2559 48.6857ZM54.309 48.6857C53.3913 48.8445 53.7619 50.3623 54.7502 50.027C55.3326 49.8328 55.2797 48.5269 54.309 48.6857Z" fill="#6B46F2"/>
<path d="M30.8902 47.6445H40.0495C39.9613 47.9975 39.8554 48.3328 39.7671 48.6858H31.1902C31.102 48.3328 30.9961 47.9975 30.9078 47.6445H30.8902Z" fill="#EAE5FF"/>
<path d="M16.207 48.6857C17.1953 48.3504 17.4777 49.7799 16.7894 50.0269C15.8011 50.3622 15.5188 48.9327 16.207 48.6857Z" fill="#EAE5FF"/>
<path d="M19.2602 48.6856C20.1955 48.4209 20.4602 49.7798 19.8425 50.0269C18.7131 50.4681 18.5719 48.8974 19.2602 48.6856Z" fill="#EAE5FF"/>
<path d="M22.3133 48.6859C23.4251 48.4388 23.4604 50.5036 22.1721 50.0271C21.5897 49.8154 21.7662 48.8094 22.3133 48.6859Z" fill="#EAE5FF"/>
<path d="M48.1852 48.6861C49.0853 48.4037 49.4029 49.7626 48.7676 50.0273C47.6205 50.4685 47.5675 48.8979 48.1852 48.6861Z" fill="#EAE5FF"/>
<path d="M51.2559 48.6856C52.156 48.4915 52.3501 49.7974 51.8383 50.0269C50.7971 50.4681 50.3735 48.8797 51.2559 48.6856Z" fill="#EAE5FF"/>
<path d="M54.309 48.6855C55.2797 48.5091 55.315 49.815 54.7502 50.0268C53.762 50.3621 53.409 48.862 54.309 48.6855Z" fill="#EAE5FF"/>
<path d="M31.402 46.9385C31.7373 46.7091 38.5494 47.115 39.5377 46.9385C39.5377 47.1326 39.5553 47.3268 39.573 47.5385C36.8552 47.5385 34.1374 47.5562 31.402 47.5738V46.9562V46.9385Z" fill="#4927B9"/>
<path d="M48.6794 34.7791H51.1324C51.9266 34.832 52.6854 35.2026 53.2149 35.8026C53.7267 36.3674 54.0267 37.1792 53.9914 37.9557C53.9738 38.3616 53.8149 38.944 53.6384 39.3146C53.1796 40.2852 52.2266 40.9206 51.1501 41.0264C50.4442 41.0264 49.7382 41.0264 49.0323 41.0264C49.1559 40.5676 49.2794 40.0911 49.4029 39.6322C49.4735 39.4205 49.6147 39.2087 49.8265 39.1028C50.2677 38.8734 50.8501 39.1558 51.3795 38.8734C51.8383 38.6263 52.0501 38.0792 51.8913 37.5851C51.7501 37.1439 51.3618 36.8439 50.903 36.8086H49.6853C49.1911 38.6793 48.6794 40.5499 48.1852 42.4206C48.0793 42.7736 47.7793 43.0383 47.4087 43.0736C47.0734 43.0913 46.3145 43.056 45.9263 43.0736C46.6145 40.497 47.3028 37.9204 47.9911 35.3438C48.1146 35.0438 48.3793 34.832 48.697 34.7967L48.6794 34.7791Z" fill="#6B46F2"/>
<path d="M41.6202 40.0913V39.9678C41.6202 39.9678 41.6202 39.8619 41.6202 39.8089C41.6202 39.5795 41.6908 39.3148 41.7437 39.103C42.1143 37.7794 43.2085 36.9147 44.5674 36.8264H47.0381C46.9146 37.3029 46.791 37.7794 46.6675 38.2559C46.5616 38.5559 46.2792 38.7853 45.9616 38.8383C45.6792 38.8736 44.938 38.8206 44.638 38.8383C44.1438 38.8736 43.7203 39.3324 43.6673 39.8089C43.6144 40.2678 43.8791 40.7443 44.3027 40.9384C44.6733 41.0972 45.0792 40.9913 45.4321 41.0266C45.6792 41.0443 45.838 41.2384 45.8028 41.4855C45.6616 41.9973 45.5204 42.5267 45.3792 43.0385C44.9909 43.0385 44.6027 43.0738 44.2144 43.0209C42.9085 42.8444 41.8496 41.7679 41.6555 40.4619L41.6202 40.0736V40.0913Z" fill="#6B46F2"/>
<path d="M17.16 34.0908V30.5965H18.9601C19.5072 30.6318 20.0013 30.2965 20.1601 29.7671C20.319 29.2553 20.5131 28.7435 20.7602 28.2493C21.0602 27.8081 20.9719 27.1905 20.5307 26.8728L19.2071 25.7257L21.819 23.1138L23.0191 24.4903C23.3368 24.8609 23.8662 24.9492 24.3074 24.7197L25.9134 24.0315C26.3899 23.9256 26.7075 23.4667 26.6546 22.9726V21.1372H30.0959C30.0959 21.7372 30.1489 22.3373 30.0959 22.9726C30.0607 23.4667 30.396 23.9256 30.8725 24.0315L32.4431 24.6668C32.8843 24.9668 33.502 24.8786 33.8197 24.4374C34.1903 23.9785 34.5962 23.5726 34.9139 23.202L37.4905 25.8139L36.2551 26.8728C35.8315 27.1728 35.708 27.7552 35.9727 28.1964C36.2551 28.7435 36.4845 29.3082 36.661 29.8906C36.8022 30.3142 37.2257 30.5789 37.6669 30.5259H39.5553V34.0555H37.7552C37.2434 34.0202 36.7669 34.3556 36.6081 34.832C36.4139 35.3791 36.2022 35.9086 35.9727 36.438C35.7257 36.8616 35.8139 37.4087 36.2022 37.7263L37.5258 38.9264L34.9139 41.503C34.5432 41.0971 34.1726 40.6382 33.7138 40.1794C33.2549 39.7205 32.9726 39.7735 32.4784 39.95C31.949 40.2147 31.3843 40.4441 30.8195 40.6382C30.343 40.7794 30.043 41.2383 30.0783 41.7324C30.1312 42.3324 30.0783 42.9325 30.0783 43.5678H26.6369V41.7324C26.7252 41.2206 26.3722 40.7265 25.8604 40.6382L24.8545 40.2676C23.9721 39.8676 23.2074 40.0029 22.5603 40.6735C22.2955 40.9559 22.0485 41.2736 21.819 41.5912L19.3307 38.9793C19.6836 38.5558 20.0719 38.1675 20.4778 37.7793C20.919 37.4439 21.0249 36.8263 20.7602 36.3498C20.5307 35.8027 20.3013 35.2909 20.1248 34.7438C20.0189 34.2673 19.5425 33.9673 19.066 34.0555H17.1776L17.16 34.0908ZM33.555 32.2907C33.5373 29.4318 31.1901 27.1199 28.3135 27.1375C25.4545 27.1552 23.1426 29.5024 23.1603 32.379C23.1779 35.2379 25.5251 37.5498 28.4017 37.5322C31.2607 37.5145 33.5726 35.1674 33.555 32.2907Z" fill="#6B46F2"/>
<path d="M28.1017 38.0262C31.2402 38.0262 33.7844 35.482 33.7844 32.3435C33.7844 29.2051 31.2402 26.6609 28.1017 26.6609C24.9633 26.6609 22.4191 29.2051 22.4191 32.3435C22.4191 35.482 24.9633 38.0262 28.1017 38.0262Z" fill="#6B46F2"/>
<path d="M27.4135 31.0904L26.7076 33.7376C26.6723 33.8964 26.6017 34.0376 26.5135 34.1788C26.4252 34.3023 26.3193 34.4259 26.1958 34.5141C26.0723 34.6024 25.9311 34.6906 25.7899 34.7259C25.6487 34.7612 25.4722 34.8141 25.3134 34.8141H21.4132L22.4015 31.0904C22.4015 31.0904 22.4544 30.9669 22.5074 30.9316C22.5603 30.8963 22.6309 30.861 22.7015 30.861H23.231C23.231 30.861 23.3545 30.8786 23.3721 30.9316C23.4074 30.9669 23.4251 31.0375 23.4074 31.0904L22.6662 33.8435H23.6722L24.4134 31.0728C24.4134 31.0728 24.4663 30.9492 24.5193 30.9139C24.5722 30.8786 24.6428 30.8433 24.7134 30.8433H25.2428C25.2428 30.8433 25.3487 30.861 25.384 30.9139C25.4193 30.9492 25.4193 31.0198 25.4193 31.0728L24.6781 33.8258H25.2781C25.384 33.8258 25.5075 33.7905 25.5958 33.72C25.684 33.6494 25.7546 33.5435 25.7899 33.4376L26.4252 31.0551C26.4252 31.0551 26.4782 30.9316 26.5311 30.8963C26.5841 30.861 26.6547 30.8257 26.7253 30.8257H27.2547C27.2547 30.8257 27.3606 30.8433 27.3959 30.8963C27.4135 30.9669 27.4135 31.0198 27.3959 31.0728L27.4135 31.0904Z" fill="white"/>
<path d="M28.1018 33.3142L27.7665 34.5848C27.7665 34.5848 27.7135 34.7083 27.6606 34.7436C27.6076 34.7789 27.537 34.8142 27.4664 34.8142H26.937C26.937 34.8142 26.8311 34.7966 26.7958 34.7436C26.7605 34.7083 26.7429 34.6378 26.7605 34.5848L27.6959 31.0905C27.6959 31.0905 27.7488 30.967 27.8018 30.9317C27.8547 30.8964 27.9253 30.8611 27.9959 30.8611H28.7547L28.3665 32.3612H29.6019L29.9372 31.0905C29.9372 31.0905 29.9901 30.967 30.043 30.9317C30.096 30.8964 30.1666 30.8611 30.2372 30.8611H31.0137L30.0078 34.5848C30.0078 34.5848 29.9548 34.7083 29.9019 34.7436C29.8489 34.7789 29.7783 34.8142 29.7077 34.8142H29.1783C29.0724 34.8142 28.9842 34.726 29.0018 34.6201C29.0018 34.6201 29.0018 34.6025 29.0018 34.5848L29.3371 33.3318H28.0841L28.1018 33.3142Z" fill="white"/>
<path d="M30.2901 34.5672L31.296 30.8611H34.4197C34.6491 30.8611 34.8786 30.914 35.0727 31.0199C35.2668 31.1258 35.4256 31.2493 35.5668 31.4258C35.6904 31.6023 35.7962 31.7964 35.8492 32.0082C35.9021 32.2376 35.8845 32.4671 35.8315 32.6788L35.3198 34.5672C35.3198 34.5672 35.2668 34.6907 35.2139 34.726C35.1609 34.7613 35.0903 34.7966 35.0197 34.7966H34.4903C34.3844 34.7966 34.2962 34.726 34.2962 34.6201C34.2962 34.6025 34.2962 34.5848 34.2962 34.5672L34.8256 32.5729C34.8256 32.5729 34.8433 32.3965 34.8256 32.2906C34.808 32.2023 34.7727 32.1141 34.7197 32.0435C34.6668 31.9729 34.5962 31.92 34.5256 31.867C34.4374 31.8317 34.3491 31.7964 34.2609 31.7964H34.0314L33.2902 34.5672C33.2902 34.5672 33.2373 34.6907 33.1843 34.726C33.1314 34.7613 33.0608 34.7966 32.9902 34.7966H32.4608C32.4608 34.7966 32.3549 34.7789 32.3196 34.726C32.2843 34.6731 32.2843 34.6201 32.2843 34.5672L33.0255 31.8141H32.0196L31.2784 34.5848C31.2784 34.5848 31.2254 34.7083 31.1725 34.7436C31.1195 34.7789 31.0489 34.8142 30.9783 34.8142H30.4489C30.4489 34.8142 30.3254 34.7966 30.3077 34.7436C30.2724 34.6907 30.2724 34.6201 30.3077 34.5672H30.2901Z" fill="white"/>
</svg>
