<svg width="35" height="35" viewBox="0 0 35 35" fill="none" xmlns="http://www.w3.org/2000/svg">
<g clip-path="url(#clip0_347_24)">
<mask id="mask0_347_24" style="mask-type:luminance" maskUnits="userSpaceOnUse" x="0" y="0" width="35" height="35">
<path d="M35 0H0V35H35V0Z" fill="white"/>
</mask>
<g mask="url(#mask0_347_24)">
<path d="M27.2824 -0.245117H7.92736C3.47181 -0.245117 -0.140137 3.36683 -0.140137 7.82238V27.1774C-0.140137 31.6329 3.47181 35.2449 7.92736 35.2449H27.2824C31.7379 35.2449 35.3499 31.6329 35.3499 27.1774V7.82238C35.3499 3.36683 31.7379 -0.245117 27.2824 -0.245117Z" fill="#F2EFFF"/>
</g>
<path d="M9.32 27.13H26.68C27.41 27.13 28 26.54 28 25.81V8.32C28 7.59 27.41 7 26.68 7H9.32C8.59 7 8 7.59 8 8.32V25.81C8 26.54 8.59 27.13 9.32 27.13ZM8 10.95H27.99Z" fill="#6B46F2"/>
<path d="M10.1799 9.64008C10.4726 9.64008 10.7099 9.40279 10.7099 9.11008C10.7099 8.81737 10.4726 8.58008 10.1799 8.58008C9.88719 8.58008 9.6499 8.81737 9.6499 9.11008C9.6499 9.40279 9.88719 9.64008 10.1799 9.64008Z" fill="#EAE5FF"/>
<path d="M12.0202 9.64008C12.3129 9.64008 12.5502 9.40279 12.5502 9.11008C12.5502 8.81737 12.3129 8.58008 12.0202 8.58008C11.7275 8.58008 11.4902 8.81737 11.4902 9.11008C11.4902 9.40279 11.7275 9.64008 12.0202 9.64008Z" fill="#EAE5FF"/>
<path d="M13.8601 9.64008C14.1528 9.64008 14.3901 9.40279 14.3901 9.11008C14.3901 8.81737 14.1528 8.58008 13.8601 8.58008C13.5674 8.58008 13.3301 8.81737 13.3301 9.11008C13.3301 9.40279 13.5674 9.64008 13.8601 9.64008Z" fill="#EAE5FF"/>
<path d="M18.8198 18.25C19.2451 18.25 19.5898 17.9052 19.5898 17.48C19.5898 17.0547 19.2451 16.71 18.8198 16.71C18.3945 16.71 18.0498 17.0547 18.0498 17.48C18.0498 17.9052 18.3945 18.25 18.8198 18.25Z" fill="#EAE5FF"/>
<path d="M23.6201 20.77C24.0454 20.77 24.3901 20.4252 24.3901 20C24.3901 19.5747 24.0454 19.23 23.6201 19.23C23.1948 19.23 22.8501 19.5747 22.8501 20C22.8501 20.4252 23.1948 20.77 23.6201 20.77Z" fill="#EAE5FF"/>
<path d="M21.5102 24C21.9355 24 22.2802 23.6552 22.2802 23.23C22.2802 22.8047 21.9355 22.46 21.5102 22.46C21.085 22.46 20.7402 22.8047 20.7402 23.23C20.7402 23.6552 21.085 24 21.5102 24Z" fill="#EAE5FF"/>
<path d="M25.9299 23.43H22.4399C22.3299 23.43 22.2499 23.34 22.2499 23.24C22.2499 23.14 22.3399 23.05 22.4399 23.05H25.9299C26.0399 23.05 26.1199 23.14 26.1199 23.24C26.1199 23.34 26.0299 23.43 25.9299 23.43ZM20.6399 23.43H17.0999C16.9899 23.43 16.9099 23.34 16.9099 23.24C16.9099 23.14 16.9999 23.05 17.0999 23.05H20.6399C20.7499 23.05 20.8299 23.14 20.8299 23.24C20.8299 23.34 20.7399 23.43 20.6399 23.43ZM25.9299 20.36H24.5399C24.4299 20.36 24.3499 20.27 24.3499 20.17C24.3499 20.07 24.4399 19.98 24.5399 19.98H25.9299C26.0399 19.98 26.1199 20.07 26.1199 20.17C26.1199 20.27 26.0299 20.36 25.9299 20.36ZM22.7299 20.36H17.0899C16.9799 20.36 16.8999 20.27 16.8999 20.17C16.8999 20.07 16.9899 19.98 17.0899 19.98H22.7299C22.8399 19.98 22.9199 20.07 22.9199 20.17C22.9199 20.27 22.8299 20.36 22.7299 20.36ZM25.9299 17.67H19.7099C19.5999 17.67 19.5199 17.58 19.5199 17.48C19.5199 17.38 19.6099 17.29 19.7099 17.29H25.9299C26.0399 17.29 26.1199 17.38 26.1199 17.48C26.1199 17.58 26.0299 17.67 25.9299 17.67ZM17.9099 17.67H17.0999C16.9899 17.67 16.9099 17.58 16.9099 17.48C16.9099 17.38 16.9999 17.29 17.0999 17.29H17.9099C18.0199 17.29 18.0999 17.38 18.0999 17.48C18.0999 17.58 18.0099 17.67 17.9099 17.67Z" fill="#EAE5FF"/>
<path d="M9.56982 21.5801V20.7101H10.0198C10.1598 20.7201 10.2798 20.6301 10.3198 20.5001C10.3598 20.3701 10.4098 20.2401 10.4698 20.1201C10.5498 20.0101 10.5198 19.8601 10.4098 19.7801L10.0798 19.4901L10.7298 18.8401L11.0298 19.1801C11.1098 19.2701 11.2398 19.2901 11.3498 19.2401L11.7498 19.0701C11.8698 19.0401 11.9498 18.9301 11.9298 18.8101V18.3501H12.7898C12.7898 18.5001 12.7998 18.6501 12.7898 18.8101C12.7898 18.9301 12.8598 19.0501 12.9798 19.0701L13.3698 19.2301C13.4798 19.3101 13.6298 19.2801 13.7098 19.1701C13.7998 19.0601 13.8998 18.9501 13.9798 18.8601L14.6198 19.5101L14.3098 19.7701C14.2098 19.8501 14.1798 19.9901 14.2398 20.1001C14.3098 20.2401 14.3698 20.3801 14.4098 20.5201C14.4498 20.6301 14.5498 20.6901 14.6598 20.6801H15.1298V21.5601H14.6798C14.5498 21.5601 14.4398 21.6301 14.3898 21.7501C14.3398 21.8901 14.2898 22.0201 14.2298 22.1501C14.1698 22.2601 14.1898 22.3901 14.2898 22.4701L14.6198 22.7701L13.9698 23.4101C13.8798 23.3101 13.7898 23.1901 13.6698 23.0801C13.5498 22.9701 13.4898 22.9801 13.3598 23.0201C13.2298 23.0901 13.0898 23.1401 12.9498 23.1901C12.8298 23.2301 12.7598 23.3401 12.7698 23.4601C12.7798 23.6101 12.7698 23.7601 12.7698 23.9201H11.9098V23.4601C11.9298 23.3301 11.8398 23.2101 11.7198 23.1901L11.4698 23.1001C11.2498 23.0001 11.0598 23.0334 10.8998 23.2001C10.8298 23.2701 10.7698 23.3501 10.7198 23.4301L10.0998 22.7801C10.1898 22.6801 10.2798 22.5801 10.3898 22.4801C10.4998 22.4001 10.5298 22.2401 10.4598 22.1301C10.3998 21.9901 10.3498 21.8701 10.2998 21.7301C10.2698 21.6101 10.1598 21.5401 10.0398 21.5601H9.56982V21.5801ZM13.6498 21.1301C13.6498 20.4201 13.0598 19.8401 12.3498 19.8501C11.6398 19.8601 11.0598 20.4401 11.0698 21.1501C11.0698 21.8601 11.6598 22.4401 12.3698 22.4301C13.0798 22.4301 13.6598 21.8401 13.6498 21.1301Z" fill="#EAE5FF"/>
<path d="M20.2602 14.23V13.75H20.5102C20.5802 13.75 20.6502 13.71 20.6702 13.64C20.6902 13.57 20.7202 13.5 20.7502 13.43C20.7902 13.37 20.7802 13.29 20.7202 13.24L20.5402 13.08L20.9002 12.72L21.0602 12.91C21.0602 12.91 21.1802 12.97 21.2402 12.94L21.4602 12.85C21.5302 12.83 21.5702 12.77 21.5602 12.71V12.46H22.0302C22.0302 12.54 22.0302 12.62 22.0302 12.71C22.0302 12.78 22.0702 12.84 22.1402 12.85L22.3502 12.94C22.4102 12.98 22.4902 12.97 22.5402 12.91C22.5902 12.85 22.6502 12.79 22.6902 12.74L23.0402 13.1L22.8702 13.24C22.8102 13.28 22.8002 13.36 22.8302 13.42C22.8702 13.49 22.9002 13.57 22.9202 13.65C22.9402 13.71 23.0002 13.74 23.0602 13.74H23.3202V14.23H23.0702C23.0002 14.23 22.9302 14.27 22.9102 14.34C22.8802 14.42 22.8502 14.49 22.8202 14.56C22.7902 14.62 22.8002 14.69 22.8502 14.74L23.0302 14.9L22.6702 15.25C22.6202 15.19 22.5702 15.13 22.5102 15.07C22.4502 15.01 22.4102 15.01 22.3402 15.04C22.2702 15.08 22.1902 15.11 22.1102 15.13C22.0502 15.15 22.0002 15.21 22.0102 15.28C22.0102 15.36 22.0102 15.44 22.0102 15.53H21.5402V15.28C21.5502 15.21 21.5002 15.14 21.4302 15.13L21.2902 15.08C21.1702 15.0266 21.0636 15.0466 20.9702 15.14C20.9702 15.14 20.9002 15.22 20.8702 15.27L20.5302 14.91C20.5802 14.85 20.6302 14.8 20.6902 14.75C20.7502 14.7 20.7702 14.62 20.7302 14.55C20.7002 14.47 20.6702 14.41 20.6402 14.33C20.6202 14.27 20.5602 14.22 20.5002 14.24H20.2402L20.2602 14.23ZM22.5102 13.99C22.5102 13.6 22.1802 13.28 21.7902 13.28C21.4002 13.28 21.0802 13.61 21.0802 14C21.0802 14.39 21.4102 14.71 21.8002 14.71C22.1902 14.71 22.5102 14.38 22.5102 13.99Z" fill="#EAE5FF"/>
<path d="M12.3199 12.9302H13.1599C13.4299 12.9502 13.6899 13.0802 13.8699 13.2802C14.0399 13.4702 14.1499 13.7502 14.1299 14.0102C14.1299 14.1502 14.0699 14.3502 14.0099 14.4702C13.8499 14.8002 13.5299 15.0202 13.1599 15.0502C12.9199 15.0502 12.6799 15.0502 12.4399 15.0502C12.4799 14.8902 12.5199 14.7302 12.5699 14.5702C12.5899 14.5002 12.6399 14.4302 12.7099 14.3902C12.8599 14.3102 13.0599 14.4102 13.2399 14.3102C13.3899 14.2202 13.4699 14.0402 13.4199 13.8702C13.3699 13.7202 13.2399 13.6102 13.0799 13.6002H12.6599C12.4899 14.2402 12.3199 14.8802 12.1499 15.5202C12.1199 15.6402 12.0099 15.7302 11.8899 15.7402C11.7799 15.7402 11.5099 15.7402 11.3799 15.7402C11.6199 14.8602 11.8499 13.9802 12.0899 13.1002C12.1299 13.0002 12.2199 12.9302 12.3299 12.9102L12.3199 12.9302Z" fill="#EAE5FF"/>
<path d="M9.91016 14.7399V14.6999C9.91016 14.6999 9.91016 14.6699 9.91016 14.6499C9.91016 14.5699 9.93016 14.4799 9.95016 14.4099C10.0702 13.9599 10.4502 13.6599 10.9102 13.6299H11.7502C11.7102 13.7899 11.6602 13.9599 11.6202 14.1199C11.5802 14.2199 11.4902 14.2999 11.3802 14.3199C11.2802 14.3299 11.0302 14.3199 10.9302 14.3199C10.7602 14.3299 10.6202 14.4899 10.6002 14.6499C10.5802 14.8099 10.6702 14.9699 10.8202 15.0399C10.9402 15.0999 11.0802 15.0599 11.2102 15.0699C11.2902 15.0699 11.3502 15.1399 11.3402 15.2299C11.2902 15.4099 11.2402 15.5799 11.1902 15.7599C11.0602 15.7599 10.9202 15.7599 10.7902 15.7599C10.3402 15.6999 9.98016 15.3299 9.92016 14.8899V14.7599L9.91016 14.7399Z" fill="#EAE5FF"/>
<path d="M27.99 10.52H8V11.07H27.99V10.52Z" fill="#EAE5FF"/>
</g>
<defs>
<clipPath id="clip0_347_24">
<rect width="35" height="35" fill="white"/>
</clipPath>
</defs>
</svg>
