<?xml version="1.0" encoding="UTF-8"?>
<svg id="Layer_1" xmlns="http://www.w3.org/2000/svg" viewBox="0 0 32 32">
  <defs>
    <style>
      .cls-1 {
        fill: #fff;
      }

      .cls-2 {
        fill: #6b46f2;
      }
    </style>
  </defs>
  <rect class="cls-1" width="32" height="32" rx="7.27" ry="7.27"/>
  <g>
    <path class="cls-2" d="M15.25,3.71c.29.01.5.11.56.41-.02,1.2-.03,2.41-.05,3.61-.09.07-.18.15-.27.22-.26.09-2.33-.02-4.49,1.56-5.4,3.96-3.86,12.83,3.17,14.39.37.08,1.44.04,1.59.37.02,1.2.03,2.41.05,3.61-.13.68-1.45.36-1.66.1-.27-.34-.26-1.53-.46-2.02-1.24-.27-2.42-.75-3.46-1.46-.52.33-1.39,1.25-2,1.12-.16-.03-2.2-1.61-2.02-2.46.36-.54.72-1.07,1.07-1.61-.67-1.05-1.16-2.19-1.41-3.41-.64-.14-1.28-.28-1.93-.41-.63-.37-.43-2.84-.27-3.15.3-.56,1.65-.4,2.19-.68.25-1.22.75-2.37,1.41-3.41-.25-.63-1.22-1.35-1.07-2.05.07-.33,1.71-1.96,2.02-2.02.61-.13,1.48.79,2,1.12,1.02-.68,2.16-1.2,3.37-1.41.44-.2.04-2.2,1.02-2.34.21-.02.42-.03.63-.05Z"/>
    <path class="cls-2" d="M19.3,4.59c1.59-.29,2.22,1.87.71,2.46-.05,3.49.64,4.06-3.34,3.88v-.83c.48-.09,2.37.23,2.51-.32v-2.73c-1.16-.38-1.07-2.25.12-2.46Z"/>
    <path class="cls-2" d="M23.54,8.39c1.54-.26,2.23,1.81.71,2.46-.11,1.01.47,3.21-1,3.44-2.2,0-4.41-.02-6.61-.02,0-.27.02-.54.02-.8.9-.06,6.22.1,6.54-.05.42-.2.13-2.07.22-2.56-1.36-.57-.88-2.29.12-2.46Z"/>
    <path class="cls-2" d="M15.2,9.66c.28,0,.54.04.61.37v11.95c-.09.78-2.27,0-2.76-.22-4.09-1.9-4.85-7.57-1.46-10.54.83-.73,2.5-1.54,3.61-1.56Z"/>
    <path class="cls-2" d="M16.67,11.76h4.29c.46.1.42.78-.05.88h-4.24v-.88Z"/>
    <path class="cls-2" d="M28.5,15.76v.49c-.37,1.26-1.92,1.41-2.46.2h-9.36c0-.28-.02-.57-.02-.85,3.13,0,6.26-.02,9.39-.02.54-1.21,2.09-1.07,2.46.2Z"/>
    <path class="cls-2" d="M16.67,17.71h6.58c1.46.23.89,2.41,1,3.44,1.88.92.31,3.22-1.15,2.27-.74-.48-.75-1.86.32-2.27-.09-.49.2-2.36-.22-2.56-.31-.15-5.64.01-6.54-.05v-.83Z"/>
    <path class="cls-2" d="M16.67,19.37h4.24c.48.1.51.78.05.88h-4.29v-.88Z"/>
    <path class="cls-2" d="M16.67,21.08c3.98-.19,3.29.4,3.34,3.88,1.58.64.81,2.9-.85,2.41-.9-.26-1.25-1.86.02-2.41-.1-3.54.72-2.97-2.51-3v-.88Z"/>
  </g>
</svg>