<?xml version="1.0" encoding="UTF-8"?>
<svg id="Layer_1" xmlns="http://www.w3.org/2000/svg" viewBox="0 0 70 70">
  <defs>
    <style>
      .cls-1 {
        fill: #fff;
      }

      .cls-2 {
        fill: #5138cc;
      }
    </style>
  </defs>
  <g id="Character">
    <path class="cls-2" d="M12.69-.12h45.34c7.01,0,12.69,5.63,12.69,12.56v44.87c0,6.94-5.68,12.56-12.69,12.56H12.69c-7.01,0-12.69-5.63-12.69-12.56V12.44C0,5.5,5.68-.12,12.69-.12Z"/>
  </g>
  <g>
    <path class="cls-1" d="M43.75,11.12c.59.33.74.45,1.03,1.07-.26,4.64.34,32.55,0,34.23-.08.39-.68.99-1.07,1.07h-7.28c-.02,1.04-.03,2.08-.05,3.12,1.26.4,2.25,1.41,2.66,2.66h5.97c.41-1.26,1.36-2.17,2.57-2.66v-2.98c.92-.02,1.83-.03,2.75-.05.02,1.01.03,2.02.05,3.03,1.26.4,2.25,1.41,2.66,2.66,1.34.26,5.51-.75,5.83,1.07.47,2.7-4.34,1.44-5.83,1.73-1.57,3.73-6.45,3.74-8.02,0h-5.97c-1.57,3.73-6.45,3.74-8.02,0h-6.06c-1.58,3.74-6.46,3.73-8.02,0-1.7-.3-5.09.81-5.83-1.03v-.75c.74-1.83,4.13-.72,5.83-1.03.41-1.25,1.4-2.24,2.66-2.66.02-1.01.03-2.02.05-3.03.92.02,1.83.03,2.75.05v2.98c1.2.49,2.16,1.4,2.57,2.66h6.06c.41-1.26,1.36-2.17,2.57-2.66-.02-1.04-.03-2.08-.05-3.12h-7.28c-.39-.08-.99-.68-1.07-1.07-.34-1.68.26-29.59,0-34.23.29-.62.44-.75,1.03-1.07h17.54ZM29.99,16.81c-1.39.29-1.39,2.51,0,2.8h10.07c1.4-.28,1.4-2.52,0-2.8h-10.07ZM29.99,22.41c-1.39.29-1.39,2.51,0,2.8h10.07c1.4-.28,1.4-2.52,0-2.8h-10.07ZM29.99,28c-1.39.29-1.39,2.51,0,2.8h9.98c1.4-.28,1.4-2.52,0-2.8h-9.98ZM29.99,33.6c-1.39.29-1.39,2.51,0,2.8h9.98c1.4-.28,1.4-2.52,0-2.8h-9.98ZM34.66,39.2c-1.64.32-1.29,3.14.65,2.8,1.64-.28,1.29-3.18-.65-2.8Z"/>
    <path class="cls-1" d="M11.1,43.77V15.04c.22-.41.59-.93,1.07-1.03,3.4.02,6.81.03,10.21.05v5.5c-1.82.02-3.64.03-5.46.05-.92.19-1.51,1.62-.65,2.43.79.74,4.76.21,6.06.37.02.92.03,1.83.05,2.75-1.82.02-3.64.03-5.46.05-.92.19-1.51,1.62-.65,2.43.79.74,4.76.21,6.06.37.02.92.03,1.83.05,2.75-1.82.02-3.64.03-5.46.05-.92.19-1.51,1.62-.65,2.43.79.74,4.76.21,6.06.37.02.92.03,1.83.05,2.75-1.82.02-3.64.03-5.46.05-.67.14-1.2,1.02-1.07,1.73.33,1.9,5.12.72,6.53,1.12v5.5c-3.4.02-6.81.03-10.21.05-.48-.1-.85-.62-1.07-1.03Z"/>
    <path class="cls-1" d="M47.62,14.01h10.17c.39.08.99.68,1.07,1.07v28.64c-.19.44-.59.98-1.07,1.07-3.4-.02-6.81-.03-10.21-.05v-5.5c1.42-.4,6.2.79,6.53-1.12.49-2.85-4.99-1.31-6.53-1.77.02-.92.03-1.83.05-2.75,1.41-.3,6.16.8,6.48-1.07.49-2.85-4.99-1.31-6.53-1.77.02-.92.03-1.83.05-2.75,1.41-.3,6.16.8,6.48-1.07.49-2.85-4.99-1.31-6.53-1.77.02-.92.03-1.83.05-2.75,1.41-.3,6.16.8,6.48-1.07.49-2.85-4.99-1.31-6.53-1.77.02-1.85.03-3.7.05-5.55Z"/>
  </g>
</svg>