<svg width="70" height="70" viewBox="0 0 70 70" fill="none" xmlns="http://www.w3.org/2000/svg">
<path d="M57.6629 1.15234H12.3369C6.15953 1.15234 1.15186 6.16003 1.15186 12.3373V57.6633C1.15186 63.8406 6.15953 68.8483 12.3369 68.8483H57.6629C63.8402 68.8483 68.8479 63.8406 68.8479 57.6633V12.3373C68.8479 6.16003 63.8402 1.15234 57.6629 1.15234Z" fill="white"/>
<path d="M36.4231 60.5575H33.661C11.6833 58.8287 3.99313 31.148 22.0959 18.4503C27.1034 7.18325 42.9607 7.18325 47.9683 18.4503C66.071 31.1281 58.361 58.8287 36.4231 60.5575ZM33.8994 11.5748C30.9982 11.7934 27.7194 13.4427 25.7522 15.5689C22.235 19.3842 21.8375 24.9482 23.8843 29.5981C25.315 32.8371 32.4289 40.7061 35.0917 44.0643C37.8737 40.1696 44.9876 32.8967 46.4978 28.9026C50.0548 19.5034 43.1793 10.8793 33.8994 11.5748ZM21.2613 21.0534C20.9036 21.3316 18.5588 23.4976 18.6979 23.7162C19.5126 24.0341 20.3075 24.3322 21.1222 24.6501C20.844 23.4578 21.2017 22.2457 21.2613 21.0534ZM48.8029 21.0534C48.8625 22.2457 49.2202 23.4578 48.942 24.6501C49.7567 24.3322 50.5515 24.0341 51.3663 23.7162C51.5054 23.4976 49.1606 21.3117 48.8029 21.0534ZM17.605 25.0078C15.1409 28.366 13.7102 32.5191 13.6108 36.712C17.2075 36.712 20.8241 36.7517 24.4208 36.7517C24.8977 32.9762 24.3413 33.8306 23.2881 31.8634C22.3939 30.1942 21.6388 28.4256 21.3209 26.5379C20.0889 26.0212 18.8568 25.5244 17.6248 25.0078H17.605ZM52.2605 25.0078C51.0881 25.5244 49.9157 26.0212 48.7631 26.5379C48.4054 29.9557 45.6036 33.3537 45.5042 33.7511C45.544 34.7646 45.6036 35.7581 45.6433 36.7716C49.24 36.7716 52.8566 36.7318 56.4533 36.7318C56.3738 34.3672 55.9168 31.9429 55.0623 29.7173C54.7841 29.0019 52.8566 24.9879 52.2406 25.0277L52.2605 25.0078ZM26.09 35.6787C25.6528 37.2286 26.9246 36.8113 26.9246 36.6126C26.6464 36.2947 26.3682 35.9966 26.09 35.6787ZM43.9741 35.6787C42.2851 37.2088 43.9741 36.8113 44.0139 36.712C44.0139 36.3742 43.9741 36.0165 43.9741 35.6787ZM13.6506 38.3414C13.6108 42.3952 15.2005 46.747 17.605 49.986C20.1286 48.8533 22.7516 47.9989 25.4541 47.363C24.8182 44.3823 24.5798 41.3618 24.4208 38.3215H13.6506V38.3414ZM26.09 38.3414C26.0503 41.3022 26.4079 44.2631 27.0836 47.1245C32.3494 46.2502 37.7544 46.3694 43.0402 47.0848C43.6165 44.2034 44.0338 41.2824 43.9741 38.3414H41.8082C40.8941 39.1959 35.7872 46.0316 35.2904 46.1508H34.7936C34.2968 46.0515 29.1899 39.1959 28.2758 38.3414H26.1099H26.09ZM45.6433 38.3414C45.4844 41.3817 45.2459 44.4022 44.61 47.3828C47.3125 47.9989 49.9355 48.8533 52.4592 50.0059C54.9232 46.6675 56.3341 42.574 56.4533 38.401C52.8566 38.401 49.24 38.3613 45.6433 38.3613V38.3414ZM32.111 48.1181C30.5412 48.2969 28.9912 48.4758 27.4214 48.6546C31.0181 62.4055 39.0262 62.3857 42.6229 48.6546C39.2647 48.1777 35.509 47.9392 32.111 48.1181ZM25.4939 49.0123C24.8778 48.9924 18.9165 50.9199 18.678 51.2776C21.4799 54.9538 25.8913 57.4576 30.4219 58.4909C28.0771 55.7089 26.7855 52.4699 25.7721 49.0123H25.474H25.4939ZM44.2722 49.0123C43.2985 52.45 41.9671 55.7487 39.6223 58.4909C44.2126 57.4775 48.4253 54.9339 51.4259 51.3372C49.1606 50.2443 46.7561 49.4296 44.2722 49.0123Z" fill="#6B46F2"/>
<path d="M36.0052 10.0845C43.7749 10.5415 50.4119 17.8144 49.6766 25.6636C49.1004 31.7839 39.6416 41.7196 34.9918 45.7932C30.4015 41.6202 20.9626 31.8634 20.3864 25.6636C19.6511 17.7945 26.2881 10.5216 34.0578 10.0845H36.0052ZM34.2366 14.1978C27.5202 14.6946 23.0491 22.3252 26.5266 28.6641C29.7656 34.5659 38.1314 35.4005 42.5031 30.2737C48.0671 23.736 43.0197 13.5421 34.2366 14.1978Z" fill="#6B46F2"/>
<path d="M36.6617 18.3116C37.6752 18.2718 39.5828 18.3314 40.4969 18.6692C44.4314 20.0602 43.6763 27.0549 37.0194 26.1408L36.9201 26.2402C36.9201 27.6511 36.9002 29.0619 36.8803 30.4529H34.2971C34.2971 26.5184 34.2772 22.564 34.2573 18.6295L36.6617 18.3116ZM37.238 20.398L36.9201 20.4974V23.9749C41.2321 24.9287 41.252 19.5635 37.238 20.3782V20.398Z" fill="#6B46F2"/>
<path d="M29.2096 18.3911H31.7928L31.8922 18.4905C31.8922 22.4846 31.8723 26.4589 31.8524 30.453C30.9384 30.453 30.0243 30.4331 29.0903 30.4132V18.4905L29.1897 18.3911H29.2096Z" fill="#6B46F2"/>
</svg>
