<?xml version="1.0" encoding="UTF-8"?>
<svg id="Layer_1" xmlns="http://www.w3.org/2000/svg" viewBox="0 0 20 20">
  <defs>
    <style>
      .cls-1 {
        fill: #f2efff;
      }

      .cls-2 {
        fill: #6b46f2;
      }
    </style>
  </defs>
  <rect class="cls-1" x="-.08" y="-.14" width="20.28" height="20.28" rx="4.61" ry="4.61"/>
  <g>
    <path class="cls-2" d="M10.45,18.21h-.9C2.42,17.64-.08,8.66,5.8,4.53c1.63-3.66,6.78-3.66,8.4,0,5.88,4.12,3.38,13.11-3.75,13.68ZM9.63,2.31c-.94.07-2.01.6-2.65,1.3-1.14,1.24-1.27,3.04-.61,4.55.46,1.05,2.78,3.6,3.64,4.7.9-1.26,3.21-3.63,3.7-4.92,1.15-3.05-1.08-5.85-4.09-5.63ZM5.53,5.38c-.12.09-.88.8-.83.87.26.1.52.2.79.3-.09-.39.03-.78.05-1.17ZM14.47,5.38c.02.39.14.78.05,1.17.26-.1.52-.2.79-.3.05-.07-.72-.78-.83-.87ZM4.34,6.67c-.8,1.09-1.26,2.44-1.3,3.8,1.17,0,2.34.01,3.51.02.15-1.23-.03-.95-.37-1.59-.29-.54-.53-1.12-.64-1.73-.4-.17-.8-.33-1.2-.5ZM15.6,6.67c-.38.17-.76.33-1.14.5-.12,1.11-1.03,2.21-1.06,2.34.02.33.03.65.05.98,1.17,0,2.34-.01,3.51-.02-.03-.77-.17-1.56-.45-2.28-.09-.23-.72-1.53-.91-1.52ZM7.1,10.13c-.14.5.27.37.27.3-.09-.1-.18-.2-.27-.3ZM12.9,10.13c-.55.5,0,.37.02.34,0-.11-.01-.22-.02-.34ZM3.06,10.99c0,1.32.5,2.73,1.28,3.78.82-.37,1.67-.64,2.55-.85-.2-.97-.28-1.95-.34-2.93h-3.49ZM7.1,10.99c-.01.96.1,1.92.32,2.85,1.71-.28,3.46-.25,5.18-.02.19-.93.32-1.88.3-2.84h-.71c-.29.28-1.95,2.5-2.12,2.53h-.16c-.16-.03-1.82-2.26-2.12-2.53h-.71ZM13.45,10.99c-.05.99-.13,1.97-.34,2.93.88.2,1.73.48,2.55.85.8-1.08,1.26-2.42,1.3-3.77-1.17,0-2.34-.01-3.51-.02ZM9.05,14.17c-.51.06-1.02.12-1.52.18,1.17,4.46,3.77,4.46,4.94,0-1.09-.16-2.31-.23-3.41-.18ZM6.91,14.46c-.2,0-2.14.62-2.21.74.91,1.19,2.34,2,3.82,2.34-.76-.91-1.18-1.95-1.51-3.08h-.1ZM13,14.46c-.32,1.12-.75,2.19-1.51,3.08,1.49-.33,2.86-1.15,3.83-2.32-.73-.36-1.52-.62-2.32-.75Z"/>
    <path class="cls-2" d="M10.32,1.82c2.52.15,4.68,2.51,4.44,5.06-.19,1.99-3.26,5.22-4.77,6.53-1.49-1.36-4.55-4.53-4.74-6.53-.24-2.55,1.91-4.92,4.44-5.06h.63ZM9.74,3.15c-2.18.16-3.63,2.64-2.5,4.7,1.05,1.92,3.77,2.19,5.19.52,1.81-2.12.17-5.43-2.68-5.22Z"/>
    <path class="cls-2" d="M10.53,4.49c.33-.01.95,0,1.25.11,1.28.45,1.03,2.72-1.13,2.42l-.03.03c0,.46,0,.91-.01,1.37h-.84c0-1.28,0-2.56-.01-3.84l.78-.1ZM10.71,5.17l-.1.03v1.13c1.4.31,1.41-1.43.1-1.17Z"/>
    <path class="cls-2" d="M8.11,4.51h.84l.03.03c0,1.29,0,2.59-.01,3.88-.3,0-.6,0-.89-.01v-3.87l.03-.03Z"/>
  </g>
</svg>