<svg width="35" height="35" viewBox="0 0 35 35" fill="none" xmlns="http://www.w3.org/2000/svg">
<g clip-path="url(#clip0_323_8)">
<path d="M27.2824 -0.245117H7.92736C3.47181 -0.245117 -0.140137 3.36683 -0.140137 7.82238V27.1774C-0.140137 31.6329 3.47181 35.2449 7.92736 35.2449H27.2824C31.7379 35.2449 35.3499 31.6329 35.3499 27.1774V7.82238C35.3499 3.36683 31.7379 -0.245117 27.2824 -0.245117Z" fill="#F2EFFF"/>
<path d="M18.2875 31.8673H16.7125C4.23496 30.8698 -0.140035 15.1548 10.15 7.92729C13.0025 1.52229 22.015 1.52229 24.85 7.92729C35.14 15.1373 30.765 30.8698 18.2875 31.8673ZM16.8525 4.04228C15.2075 4.16478 13.335 5.09228 12.215 6.31728C10.22 8.48728 9.99246 11.6373 11.1475 14.2798C11.9525 16.1173 16.0125 20.5798 17.5175 22.5048C19.0925 20.2998 23.135 16.1523 23.9925 13.8948C26.005 8.55728 22.1025 3.65728 16.835 4.04228H16.8525ZM9.67747 9.41479C9.46747 9.57229 8.13746 10.8148 8.22496 10.9373C8.67996 11.1123 9.13496 11.2873 9.60746 11.4623C9.44996 10.7798 9.65996 10.0973 9.69496 9.41479H9.67747ZM25.3225 9.41479C25.3575 10.0973 25.5675 10.7798 25.41 11.4623C25.865 11.2873 26.32 11.1123 26.7925 10.9373C26.88 10.8148 25.5325 9.57229 25.34 9.41479H25.3225ZM7.59497 11.6723C6.19497 13.5798 5.38996 15.9423 5.31996 18.3223C7.36746 18.3223 9.41497 18.3398 11.4625 18.3573C11.725 16.2048 11.41 16.6948 10.815 15.5748C10.3075 14.6298 9.88746 13.6148 9.69496 12.5473C8.99496 12.2498 8.29497 11.9698 7.59497 11.6723ZM27.3 11.6723C26.635 11.9698 25.97 12.2498 25.305 12.5473C25.095 14.4898 23.5025 16.4148 23.45 16.6423C23.485 17.2198 23.5025 17.7798 23.5375 18.3573C25.585 18.3573 27.6325 18.3398 29.68 18.3223C29.6275 16.9748 29.3825 15.5923 28.8925 14.3323C28.735 13.9298 27.6325 11.6548 27.3 11.6723ZM12.425 17.7273C12.18 18.6023 12.8975 18.3748 12.8975 18.2523C12.74 18.0773 12.5825 17.9023 12.425 17.7273ZM22.575 17.7273C21.6125 18.6023 22.575 18.3748 22.61 18.3223C22.61 18.1298 22.5925 17.9373 22.575 17.7273ZM5.35496 19.2323C5.35496 21.5423 6.22997 24.0098 7.59497 25.8473C9.02997 25.1998 10.5175 24.7273 12.0575 24.3598C11.7075 22.6623 11.5675 20.9473 11.4625 19.2323H5.35496ZM12.425 19.2323C12.4075 20.9123 12.6 22.5923 12.985 24.2198C15.9775 23.7298 19.04 23.7823 22.05 24.1848C22.3825 22.5573 22.61 20.8948 22.575 19.2148H21.3325C20.825 19.7048 17.92 23.5898 17.6225 23.6423H17.3425C17.0625 23.5898 14.1575 19.6873 13.6325 19.2148H12.39L12.425 19.2323ZM23.5375 19.2323C23.45 20.9648 23.31 22.6798 22.9425 24.3598C24.4825 24.7098 25.97 25.1998 27.405 25.8473C28.805 23.9573 29.61 21.6123 29.68 19.2498C27.6325 19.2498 25.585 19.2323 23.5375 19.2148V19.2323ZM15.8375 24.7973C14.945 24.9023 14.0525 25.0073 13.1775 25.1123C15.225 32.9173 19.775 32.9173 21.8225 25.1123C19.915 24.8323 17.78 24.7098 15.855 24.7973H15.8375ZM12.0925 25.3048C11.7425 25.3048 8.34746 26.3898 8.22496 26.5998C9.81746 28.6823 12.32 30.0998 14.91 30.6948C13.58 29.1023 12.845 27.2823 12.2675 25.3048H12.0925ZM22.75 25.3048C22.19 27.2648 21.4375 29.1373 20.1075 30.6948C22.715 30.1173 25.1125 28.6823 26.81 26.6348C25.5325 26.0048 24.15 25.5498 22.75 25.3223V25.3048Z" fill="#6B46F2"/>
<path d="M18.0599 3.18457C22.4699 3.44707 26.2499 7.57707 25.8299 12.0396C25.4974 15.5221 20.1249 21.1746 17.4824 23.4671C14.8749 21.0871 9.51987 15.5396 9.18737 12.0396C8.76737 7.57707 12.5299 3.42957 16.9574 3.18457H18.0599ZM17.0449 5.51207C13.2299 5.79207 10.6924 10.1321 12.6699 13.7371C14.5074 17.0971 19.2674 17.5696 21.7524 14.6471C24.9199 10.9371 22.0499 5.14457 17.0624 5.51207H17.0449Z" fill="#6B46F2"/>
<path d="M18.4276 7.85734C19.0051 7.83984 20.0901 7.85734 20.6151 8.04984C22.8551 8.83734 22.4176 12.8098 18.6376 12.2848L18.5851 12.3373C18.5851 13.1423 18.5851 13.9298 18.5676 14.7348H17.0976C17.0976 12.4948 17.0976 10.2548 17.0801 8.01484L18.4451 7.83984L18.4276 7.85734ZM18.7426 9.04734L18.5676 9.09984V11.0773C21.0176 11.6198 21.0351 8.57484 18.7426 9.02984V9.04734Z" fill="#6B46F2"/>
<path d="M14.1926 7.89209H15.6626L15.7151 7.94459C15.7151 10.2021 15.7151 12.4771 15.6976 14.7346C15.1726 14.7346 14.6476 14.7346 14.1401 14.7171V7.94459L14.1926 7.89209Z" fill="#6B46F2"/>
</g>
<defs>
<clipPath id="clip0_323_8">
<rect width="35" height="35" fill="white"/>
</clipPath>
</defs>
</svg>
