<svg width="70" height="70" viewBox="0 0 70 70" fill="none" xmlns="http://www.w3.org/2000/svg">
<path d="M57.6629 1.15234H12.3369C6.15954 1.15234 1.15186 6.16003 1.15186 12.3373V57.6633C1.15186 63.8406 6.15954 68.8483 12.3369 68.8483H57.6629C63.8402 68.8483 68.8479 63.8406 68.8479 57.6633V12.3373C68.8479 6.16003 63.8402 1.15234 57.6629 1.15234Z" fill="white"/>
<path d="M35.9826 60.0002H33.2205C11.2429 58.2714 3.55273 30.5908 21.6554 17.8931C26.663 6.62613 42.5202 6.62613 47.5277 17.8931C65.6304 30.5709 57.9204 58.2714 35.9826 60.0002ZM33.4589 11.0177C30.5577 11.2362 27.279 12.8856 25.3117 15.0118C21.7945 18.8271 21.3971 24.391 23.4438 29.0409C24.8745 32.2799 31.9884 40.1489 34.6512 43.5071C37.4332 39.6124 44.5471 32.3395 46.0573 28.3454C49.6142 18.9463 42.7388 10.3222 33.4589 11.0177ZM20.8208 20.4962C20.4631 20.7744 18.1183 22.9404 18.2574 23.159C19.0722 23.4769 19.867 23.775 20.6817 24.0929C20.4035 22.9007 20.7612 21.6885 20.8208 20.4962ZM48.3623 20.4962C48.4219 21.6885 48.7796 22.9007 48.5014 24.0929C49.3162 23.775 50.111 23.4769 50.9257 23.159C51.0648 22.9404 48.72 20.7546 48.3623 20.4962ZM17.1645 24.4506C14.7005 27.8088 13.2698 31.9619 13.1704 36.1548C16.7671 36.1548 20.3837 36.1945 23.9803 36.1945C24.4573 32.419 23.9009 33.2734 22.8477 31.3062C21.9535 29.637 21.1984 27.8685 20.8804 25.9807C19.6484 25.464 18.4164 24.9673 17.1844 24.4506H17.1645ZM51.8199 24.4506C50.6475 24.9673 49.4751 25.464 48.3226 25.9807C47.9649 29.3985 45.1631 32.7965 45.0637 33.1939C45.1035 34.2074 45.1631 35.2009 45.2028 36.2144C48.7995 36.2144 52.4161 36.1746 56.0128 36.1746C55.9333 33.81 55.4762 31.3857 54.6218 29.1601C54.3436 28.4447 52.4161 24.4307 51.8001 24.4705L51.8199 24.4506ZM25.6495 35.1215C25.2124 36.6714 26.4841 36.2541 26.4841 36.0554C26.2059 35.7375 25.9277 35.4394 25.6495 35.1215ZM43.5336 35.1215C41.8446 36.6515 43.5336 36.2541 43.5734 36.1548C43.5734 35.817 43.5336 35.4593 43.5336 35.1215ZM13.2101 37.7842C13.1704 41.8379 14.7601 46.1897 17.1645 49.4287C19.6882 48.2961 22.3112 47.4416 25.0136 46.8057C24.3778 43.8251 24.1393 40.8046 23.9803 37.7643H13.2101V37.7842ZM25.6495 37.7842C25.6098 40.745 25.9675 43.7058 26.6431 46.5673C31.909 45.6929 37.3139 45.8122 42.5997 46.5275C43.1759 43.6462 43.5932 40.7251 43.5336 37.7842H41.3677C40.4536 38.6387 35.3467 45.4744 34.8499 45.5936H34.3531C33.8563 45.4942 28.7494 38.6387 27.8354 37.7842H25.6694H25.6495ZM45.2028 37.7842C45.0438 40.8245 44.8054 43.8449 44.1695 46.8256C46.872 47.4416 49.495 48.2961 52.0186 49.4486C54.4827 46.1102 55.8935 42.0168 56.0128 37.8438C52.4161 37.8438 48.7995 37.8041 45.2028 37.8041V37.7842ZM31.6705 47.5608C30.1007 47.7397 28.5507 47.9185 26.9809 48.0974C30.5776 61.8483 38.5857 61.8284 42.1824 48.0974C38.8241 47.6205 35.0685 47.382 31.6705 47.5608ZM25.0534 48.455C24.4374 48.4352 18.476 50.3627 18.2376 50.7204C21.0394 54.3965 25.4508 56.9003 29.9815 57.9336C27.6366 55.1517 26.345 51.9126 25.3316 48.455H25.0335H25.0534ZM43.8317 48.455C42.858 51.8928 41.5266 55.1914 39.1818 57.9336C43.7721 56.9202 47.9848 54.3767 50.9853 50.78C48.72 49.6871 46.3156 48.8723 43.8317 48.455Z" fill="#6B46F2"/>
<path d="M35.5647 9.52734C43.3344 9.98438 49.9713 17.2573 49.2361 25.1064C48.6598 31.2267 39.2011 41.1623 34.5513 45.2359C29.961 41.063 20.5222 31.3062 19.9459 25.1064C19.2107 17.2374 25.8477 9.96451 33.6173 9.52734H35.5647ZM33.7962 13.6407C27.0797 14.1375 22.6087 21.768 26.0861 28.1069C29.3251 34.0087 37.6909 34.8433 42.0626 29.7165C47.6265 23.1789 42.5793 12.9849 33.7962 13.6407Z" fill="#6B46F2"/>
<path d="M36.2208 17.7544C37.2343 17.7147 39.1419 17.7743 40.056 18.1121C43.9905 19.5031 43.2354 26.4978 36.5785 25.5837L36.4792 25.683C36.4792 27.0939 36.4593 28.5048 36.4394 29.8957H33.8561C33.8561 25.9612 33.8363 22.0069 33.8164 18.0724L36.2208 17.7544ZM36.7971 19.8409L36.4792 19.9403V23.4177C40.7912 24.3715 40.8111 19.0063 36.7971 19.821V19.8409Z" fill="#6B46F2"/>
<path d="M28.7691 17.834H31.3524L31.4517 17.9333C31.4517 21.9275 31.4319 25.9017 31.412 29.8958C30.4979 29.8958 29.5838 29.8759 28.6499 29.8561V17.9333L28.7493 17.834H28.7691Z" fill="#6B46F2"/>
</svg>
