<?xml version="1.0" encoding="UTF-8"?>
<svg id="Layer_1" xmlns="http://www.w3.org/2000/svg" viewBox="0 0 70 70">
  <defs>
    <style>
      .cls-1 {
        fill: #fff;
      }

      .cls-2 {
        fill: #5138cc;
      }
    </style>
  </defs>
  <g id="Character">
    <rect class="cls-2" width="70" height="70" rx="12.56" ry="12.56"/>
  </g>
  <g>
    <path class="cls-1" d="M36.36,59.85h-2.72c-21.58-1.71-29.16-28.92-11.36-41.4,4.92-11.07,20.51-11.07,25.43,0,17.8,12.47,10.22,39.69-11.36,41.4ZM33.88,11.71c-2.86.22-6.07,1.83-8.01,3.93-3.45,3.75-3.85,9.21-1.84,13.78,1.4,3.19,8.41,10.91,11.02,14.22,2.74-3.82,9.73-10.98,11.21-14.9,3.49-9.24-3.27-17.72-12.38-17.03ZM21.46,21.02c-.36.27-2.66,2.41-2.52,2.62.79.31,1.59.61,2.38.92-.27-1.17.09-2.37.15-3.54ZM48.54,21.02c.06,1.17.41,2.37.15,3.54.79-.31,1.59-.61,2.38-.92.14-.21-2.17-2.35-2.52-2.62ZM17.87,24.91c-2.43,3.3-3.82,7.39-3.93,11.5,3.54.02,7.09.03,10.63.05.47-3.71-.09-2.86-1.12-4.8-.87-1.65-1.62-3.39-1.94-5.24-1.21-.5-2.43-1-3.64-1.5ZM51.94,24.91c-1.15.5-2.3,1-3.45,1.5-.35,3.37-3.11,6.7-3.2,7.09.05.99.1,1.97.15,2.96,3.54-.02,7.09-.03,10.63-.05-.08-2.33-.53-4.71-1.36-6.89-.26-.69-2.18-4.64-2.77-4.61ZM26.22,35.39c-.44,1.52.83,1.12.83.92-.28-.31-.55-.61-.83-.92ZM43.78,35.39c-1.65,1.5-.01,1.11.05,1.02-.02-.34-.03-.68-.05-1.02ZM13.99,38.01c-.03,3.99,1.52,8.25,3.88,11.45,2.49-1.12,5.06-1.95,7.72-2.57-.62-2.92-.86-5.9-1.02-8.88h-10.58ZM26.22,38.01c-.03,2.91.31,5.82.97,8.64,5.18-.86,10.49-.75,15.68-.05.57-2.82.98-5.7.92-8.59h-2.14c-.89.83-5.92,7.57-6.41,7.67h-.49c-.49-.1-5.51-6.84-6.41-7.67h-2.14ZM45.43,38.01c-.17,2.98-.4,5.96-1.02,8.88,2.66.61,5.23,1.45,7.72,2.57,2.42-3.28,3.8-7.31,3.93-11.4-3.54-.02-7.09-.03-10.63-.05ZM32.14,47.62c-1.54.18-3.07.36-4.61.53,3.54,13.51,11.4,13.5,14.95,0-3.3-.48-7-.7-10.34-.53ZM25.63,48.49c-.61-.02-6.47,1.88-6.7,2.23,2.76,3.61,7.09,6.07,11.55,7.09-2.31-2.74-3.58-5.91-4.56-9.32h-.29ZM44.08,48.49c-.96,3.38-2.27,6.62-4.56,9.32,4.51-1,8.65-3.49,11.6-7.04-2.22-1.08-4.59-1.87-7.04-2.28Z"/>
    <path class="cls-1" d="M35.96,10.23c7.64.44,14.17,7.59,13.44,15.32-.57,6.02-9.87,15.79-14.43,19.78-4.51-4.11-13.79-13.7-14.36-19.78-.73-7.73,5.8-14.88,13.44-15.32h1.92ZM34.21,14.28c-6.6.49-10.99,7.98-7.58,14.22,3.18,5.8,11.41,6.62,15.7,1.58,5.46-6.42.5-16.44-8.12-15.8Z"/>
    <path class="cls-1" d="M36.61,18.32c1-.04,2.86.02,3.77.34,3.87,1.36,3.13,8.24-3.43,7.34l-.1.1c-.01,1.38-.02,2.76-.03,4.15h-2.54c-.01-3.87-.02-7.75-.03-11.62.79-.1,1.58-.21,2.37-.31ZM37.16,20.38l-.31.1v3.43c4.25.94,4.25-4.33.31-3.53Z"/>
    <path class="cls-1" d="M29.28,18.39h2.54l.1.1c-.01,3.92-.02,7.84-.03,11.76-.9-.01-1.81-.02-2.71-.03v-11.72l.1-.1Z"/>
  </g>
</svg>