<?xml version="1.0" encoding="UTF-8"?>
<svg id="Layer_1" xmlns="http://www.w3.org/2000/svg" viewBox="0 0 70 70">
  <defs>
    <style>
      .cls-1 {
        fill: #eae5ff;
      }

      .cls-2 {
        fill: #5138cc;
      }
    </style>
  </defs>
  <g id="Character">
    <rect class="cls-2" x="-.07" y="-.18" width="70" height="70" rx="12.56" ry="12.56"/>
  </g>
  <g>
    <path class="cls-1" d="M61.26,52.33c-.31.92-.98,1.34-1.91,1.44-.49.05-.97.17-1.54.27.3.64.57,1.24.84,1.84.38.82.35,1.63-.13,2.4-1.01,1.59-3.34,1.49-4.22-.2-.33-.63-.61-1.29-.93-1.97-.52.43-.99.81-1.46,1.21-.6.51-1.27.67-2,.32-.7-.34-.99-.94-.98-1.72.02-.97,0-1.94,0-3h-.73c-11.49,0-22.97,0-34.46,0-2.32,0-4.07-1.14-4.73-3.13-.16-.49-.26-1.04-.26-1.56-.01-10.99-.02-21.98,0-32.97,0-2.66,2.02-4.67,4.68-4.67,13.31,0,26.63,0,39.94,0,2.59,0,4.55,1.92,4.68,4.53,0,.2,0,.41,0,.62,0,10.73,0,21.47,0,32.2,0,.38.1.63.4.86.57.44,1.13.89,1.64,1.39.42.4.78.88,1.16,1.32v.82ZM56.31,46.99v-28.59H10.46c0,.19-.02.34-.02.49,0,9.71,0,19.41,0,29.12,0,2,1.2,3.19,3.19,3.19,11.57,0,23.14,0,34.71,0h.6c0-.24,0-.42,0-.61,0-2.03-.01-4.07,0-6.1.01-1.12.94-1.9,2.02-1.69.38.08.75.32,1.06.57,1.42,1.17,2.82,2.36,4.3,3.61ZM56.34,16.63c0-.55.02-1.04,0-1.54-.06-1.23-.67-2.11-1.8-2.56-.48-.19-1.03-.24-1.55-.24-13.05-.01-26.11-.01-39.16,0-.27,0-.55,0-.82.04-1.2.13-2.25,1.02-2.47,2.2-.13.68-.09,1.39-.13,2.11h45.94ZM50.67,44.45v11.6c.81-.64,1.55-1.24,2.3-1.82.67-.53,1.18-.41,1.55.36.4.85.79,1.7,1.2,2.55.09.19.25.44.41.48.25.06.59.03.8-.1.33-.21.32-.58.17-.92-.4-.87-.8-1.73-1.2-2.6-.38-.83-.13-1.3.77-1.46.94-.17,1.89-.35,2.94-.54-3.01-2.54-5.92-4.99-8.95-7.54Z"/>
    <path class="cls-1" d="M28.39,39.29c.12.45.21.82.32,1.17.15.46.5.6.96.6,1.47,0,2.94,0,4.41,0,2.89,0,5.77,0,8.66,0,.19,0,.38,0,.56.05.41.12.64.4.62.83-.01.4-.23.68-.62.78-.18.05-.37.05-.56.05-4.31,0-8.61,0-12.92,0-1.58,0-2.43-.66-2.84-2.19-1.29-4.81-2.58-9.62-3.87-14.43-.19-.72-.25-.77-.97-.77-.32,0-.65.01-.97-.02-.44-.04-.75-.41-.72-.84.02-.45.27-.76.72-.8.58-.04,1.17-.07,1.74.02.86.13,1.45.66,1.72,1.5.16.49.3.98.4,1.48.07.38.23.48.61.48,2.41-.02,4.82,0,7.23,0,3.81,0,7.62,0,11.43,0,1.1,0,1.9.65,2.05,1.69.04.31,0,.65-.08.96-.59,2.26-1.2,4.52-1.8,6.77-.46,1.71-1.72,2.67-3.48,2.67-3.96,0-7.93,0-11.89,0h-.69ZM36.04,32.4c.99,0,1.92,0,2.85-.01.09,0,.25-.14.27-.23.16-1.07.29-2.15.44-3.24h-3.56v3.48ZM34.29,32.38v-3.46h-3.54c.16,1.18.31,2.32.47,3.46h3.07ZM25.61,28.9c.31,1.15.59,2.23.89,3.31.02.08.17.18.25.18.9.01,1.79,0,2.75,0-.17-1.21-.32-2.35-.48-3.5h-3.42ZM40.85,32.4c.94,0,1.84.01,2.74-.01.11,0,.27-.18.31-.31.25-.88.48-1.77.72-2.66.09-.34,0-.53-.38-.53-.87,0-1.74,0-2.61.01-.12,0-.32.16-.34.26-.16,1.06-.29,2.12-.44,3.24ZM36.05,37.52c.05.03.08.05.11.05.48,0,.96.01,1.43.01.82,0,.83,0,.95-.8.13-.88.23-1.77.35-2.66h-2.85v3.4ZM34.3,34.12h-2.84c.16,1.17.31,2.3.46,3.43h2.38v-3.43ZM29.74,34.12h-2.74c.32,1.18.63,2.32.93,3.43h2.28c-.16-1.17-.31-2.29-.47-3.43ZM40.15,37.55c.93.08,1.89.19,2.36-.73.42-.82.59-1.78.89-2.72h-2.79c-.15,1.14-.31,2.26-.47,3.45Z"/>
    <path class="cls-1" d="M32.03,43.27c1.11-.01,2.03.89,2.03,2,0,1.1-.92,2.03-2.02,2.02-1.09,0-1.98-.89-1.99-1.98-.02-1.13.85-2.03,1.98-2.04ZM32.48,45.23c-.22-.13-.34-.26-.44-.25-.11.02-.2.18-.29.29.11.09.21.23.32.24.1,0,.21-.14.41-.28Z"/>
    <path class="cls-1" d="M39.63,43.26c1.12,0,2.02.92,2,2.03-.02,1.09-.92,1.98-2,1.99-1.1.01-2.02-.91-2.03-2.01,0-1.11.9-2.01,2.02-2.01ZM39.64,44.85c-.15.18-.3.28-.3.39,0,.1.17.26.27.27.1,0,.28-.15.29-.24.01-.1-.13-.22-.26-.41Z"/>
    <path class="cls-1" d="M17.92,13.68c1.38,0,2.76,0,4.15,0,.65,0,1.03.31,1.02.82-.01.48-.38.78-1.01.78-2.75,0-5.5,0-8.24,0-.67,0-1.03-.29-1.04-.8,0-.51.37-.8,1.03-.8,1.37,0,2.73,0,4.1,0Z"/>
    <path class="cls-1" d="M50.5,14.5c-.01.48-.39.83-.87.81-.47-.02-.82-.4-.8-.88.02-.46.38-.79.84-.78.48,0,.83.37.82.85Z"/>
    <path class="cls-1" d="M47.01,14.49c0,.48-.39.84-.86.82-.47-.01-.82-.39-.8-.88.02-.46.37-.79.83-.79.48,0,.84.37.83.85Z"/>
    <path class="cls-1" d="M53.16,13.64c.48,0,.84.37.83.85,0,.46-.35.81-.81.82-.48.01-.85-.35-.85-.83,0-.48.35-.84.84-.84Z"/>
    <path class="cls-1" d="M36.04,32.4v-3.48h3.56c-.14,1.09-.28,2.17-.44,3.24-.01.09-.17.23-.27.23-.93.02-1.87.01-2.85.01Z"/>
    <path class="cls-1" d="M34.29,32.38h-3.07c-.16-1.15-.31-2.28-.47-3.46h3.54v3.46Z"/>
    <path class="cls-1" d="M25.61,28.9h3.42c.16,1.15.31,2.28.48,3.5-.96,0-1.86,0-2.75,0-.09,0-.23-.1-.25-.18-.3-1.08-.59-2.16-.89-3.31Z"/>
    <path class="cls-1" d="M40.85,32.4c.15-1.12.28-2.19.44-3.24.02-.11.22-.26.34-.26.87-.02,1.74-.01,2.61-.01.38,0,.47.2.38.53-.24.89-.46,1.78-.72,2.66-.04.13-.2.31-.31.31-.9.03-1.8.01-2.74.01Z"/>
    <path class="cls-1" d="M36.05,37.52v-3.4h2.85c-.12.89-.22,1.77-.35,2.66-.12.81-.13.81-.95.8-.48,0-.96,0-1.43-.01-.03,0-.06-.03-.11-.05Z"/>
    <path class="cls-1" d="M34.3,34.12v3.43h-2.38c-.15-1.13-.31-2.26-.46-3.43h2.84Z"/>
    <path class="cls-1" d="M29.74,34.12c.16,1.14.31,2.27.47,3.43h-2.28c-.3-1.11-.61-2.25-.93-3.43h2.74Z"/>
    <path class="cls-1" d="M40.15,37.55c.16-1.19.31-2.32.47-3.45h2.79c-.3.94-.47,1.89-.89,2.72-.47.92-1.43.81-2.36.73Z"/>
    <path class="cls-1" d="M32.48,45.23c-.2.14-.31.29-.41.28-.11,0-.22-.15-.32-.24.1-.1.18-.26.29-.29.1-.02.23.12.44.25Z"/>
    <path class="cls-1" d="M39.64,44.85c.13.19.28.31.26.41-.01.1-.19.25-.29.24-.1,0-.27-.17-.27-.27,0-.1.15-.21.3-.39Z"/>
  </g>
</svg>