<svg width="35" height="35" viewBox="0 0 35 35" fill="none" xmlns="http://www.w3.org/2000/svg">
<g clip-path="url(#clip0_347_24)">
<mask id="mask0_347_24" style="mask-type:luminance" maskUnits="userSpaceOnUse" x="0" y="0" width="35" height="35">
<path d="M35 0H0V35H35V0Z" fill="white"/>
</mask>
<g mask="url(#mask0_347_24)">
<path d="M27.2824 -0.245117H7.92736C3.47181 -0.245117 -0.140137 3.36683 -0.140137 7.82238V27.1774C-0.140137 31.6329 3.47181 35.2449 7.92736 35.2449H27.2824C31.7379 35.2449 35.3499 31.6329 35.3499 27.1774V7.82238C35.3499 3.36683 31.7379 -0.245117 27.2824 -0.245117Z" fill="#F2EFFF"/>
</g>
<path d="M24 18.891V17.0949H22.7172C22.5947 16.4471 22.3379 15.8371 21.9715 15.2989L22.8644 14.3943L21.5934 13.1236L20.7017 14.0163C20.1516 13.6488 19.5402 13.3933 18.8935 13.2708V12H17.0971V13.2837C16.4492 13.4062 15.839 13.663 15.3007 14.0292L14.396 13.1247L13.125 14.3955L14.0167 15.3C13.6503 15.8371 13.3935 16.4483 13.271 17.0961H12V18.8921H13.2828C13.4053 19.5399 13.6609 20.15 14.0285 20.7L13.1238 21.5915L14.3948 22.8753L15.2995 21.9708C15.8378 22.35 16.448 22.5938 17.0959 22.7163V24H18.8923V22.7163C19.5402 22.5938 20.1504 22.337 20.7005 21.9708L21.5922 22.8623L22.875 21.5915L21.9704 20.7C22.3497 20.15 22.5935 19.5387 22.716 18.8921H23.9988L24 18.891ZM17.9994 20.992C16.3373 20.992 14.9932 19.6482 14.9932 17.9982C14.9932 16.3364 16.3373 14.9926 17.9994 14.9926C19.6497 14.9926 20.9938 16.3364 20.9938 17.9982C20.9938 19.6482 19.6497 20.992 17.9994 20.992Z" fill="#6B46F2"/>
<path d="M23 12L26 9" stroke="#6B46F2" stroke-miterlimit="10"/>
<path d="M24 9H26V11" fill="#6B46F2"/>
<path d="M24 9H26V11" stroke="#6B46F2" stroke-miterlimit="10"/>
<path d="M12 12L9 9" stroke="#6B46F2" stroke-miterlimit="10"/>
<path d="M11 9H9V11" fill="#6B46F2"/>
<path d="M11 9H9V11" stroke="#6B46F2" stroke-miterlimit="10"/>
<path d="M23 23L26 26" stroke="#6B46F2" stroke-miterlimit="10"/>
<path d="M24 26H26V24" fill="#6B46F2"/>
<path d="M24 26H26V24" stroke="#6B46F2" stroke-miterlimit="10"/>
<path d="M12 23L9 26" stroke="#6B46F2" stroke-miterlimit="10"/>
<path d="M11 26H9V24" fill="#6B46F2"/>
<path d="M11 26H9V24" stroke="#6B46F2" stroke-miterlimit="10"/>
</g>
<defs>
<clipPath id="clip0_347_24">
<rect width="35" height="35" fill="white"/>
</clipPath>
</defs>
</svg>
