<svg width="35" height="35" viewBox="0 0 35 35" fill="none" xmlns="http://www.w3.org/2000/svg">
<g clip-path="url(#clip0_356_318)">
<mask id="mask0_356_318" style="mask-type:luminance" maskUnits="userSpaceOnUse" x="0" y="0" width="35" height="35">
<path d="M35 0H0V35H35V0Z" fill="white"/>
</mask>
<g mask="url(#mask0_356_318)">
<path d="M27.2824 -0.245117H7.92736C3.47181 -0.245117 -0.140137 3.36683 -0.140137 7.82238V27.1774C-0.140137 31.6329 3.47181 35.2449 7.92736 35.2449H27.2824C31.7379 35.2449 35.3499 31.6329 35.3499 27.1774V7.82238C35.3499 3.36683 31.7379 -0.245117 27.2824 -0.245117Z" fill="#F2EFFF"/>
</g>
<path d="M12.3476 15.8543C13.6061 15.8543 14.6263 14.8341 14.6263 13.5756C14.6263 12.3171 13.6061 11.2969 12.3476 11.2969C11.0891 11.2969 10.0688 12.3171 10.0688 13.5756C10.0688 14.8341 11.0891 15.8543 12.3476 15.8543Z" fill="#6B46F2"/>
<path d="M23.2922 21.2762C24.2469 21.2762 25.0209 20.5023 25.0209 19.5475C25.0209 18.5928 24.2469 17.8188 23.2922 17.8188C22.3374 17.8188 21.5635 18.5928 21.5635 19.5475C21.5635 20.5023 22.3374 21.2762 23.2922 21.2762Z" fill="#6B46F2"/>
<path d="M18.3195 27.9998C19.3176 27.9998 20.1267 27.1907 20.1267 26.1925C20.1267 25.1944 19.3176 24.3853 18.3195 24.3853C17.3213 24.3853 16.5122 25.1944 16.5122 26.1925C16.5122 27.1907 17.3213 27.9998 18.3195 27.9998Z" fill="#6B46F2"/>
<path d="M8.51953 13.5752H10.3268M28.1189 13.5752H14.323M8.51953 19.5358H21.7092M28.1189 19.5358H23.9431M8.51953 26.3608H17.6008M28.1189 26.3608H19.5203" stroke="#6B46F2" stroke-miterlimit="10"/>
<path d="M12.3475 17.8636C15.9743 17.8636 18.9143 14.9235 18.9143 11.2968C18.9143 7.67003 15.9743 4.72998 12.3475 4.72998C8.72081 4.72998 5.78076 7.67003 5.78076 11.2968C5.78076 14.9235 8.72081 17.8636 12.3475 17.8636Z" fill="#EAE5FF"/>
<path d="M12.2017 5.66162C12.2017 5.66162 12.269 5.71775 12.3139 5.7402C12.3925 5.85245 12.3925 6.68312 12.2802 6.7617C12.2129 6.77292 12.1455 6.79537 12.0782 6.8066C11.8088 6.7617 11.9098 5.80755 11.9547 5.7402C11.9884 5.71775 12.0221 5.68407 12.067 5.66162H12.2017Z" fill="#6B46F2"/>
<path d="M10.5517 6.41357C10.619 6.4248 10.6864 6.44725 10.7537 6.45848L11.2925 6.99729C11.4272 7.24424 11.1915 7.41262 11.0231 7.33405L10.417 6.72788C10.3608 6.59318 10.4619 6.4248 10.5629 6.41357H10.5517Z" fill="#6B46F2"/>
<path d="M13.627 6.41426C13.7954 6.38059 13.9526 6.56019 13.8852 6.72857L13.279 7.33473C13.1107 7.40209 12.8749 7.23371 13.0096 6.99798C13.2229 6.80715 13.425 6.60509 13.6383 6.41426H13.627Z" fill="#6B46F2"/>
<path d="M14.9744 7.05321C15.5357 6.97464 15.9959 7.4461 15.8837 8.00736C15.8163 8.40025 14.9969 8.95028 14.7611 9.30949C15.1765 9.4442 15.3897 9.91566 15.2438 10.3198C15.7939 10.4545 16.0408 11.0606 15.7265 11.5321C16.2541 11.7117 16.4449 12.3066 16.1194 12.7669L14.3233 14.5629C13.9305 14.8211 13.5488 15.0793 13.1559 15.3375C13.0324 15.4609 13.3018 15.4497 13.1896 15.6967C13.1559 15.7753 12.0446 16.8866 11.966 16.9202C11.9099 16.9202 11.865 16.9315 11.8089 16.9427C11.7303 16.9427 10.6864 15.91 10.6527 15.8314C10.5629 15.6181 10.7313 15.416 10.9445 15.5171C11.2476 15.8202 11.5395 16.112 11.8538 16.4263L12.6732 15.6069L9.5526 12.4862L8.73316 13.3057L9.64241 14.2149C9.73221 14.417 9.54138 14.6078 9.3281 14.5068L8.23925 13.4179C8.23925 13.3618 8.22802 13.3057 8.2168 13.2383C8.23925 13.1485 9.38423 12.0036 9.4628 11.9699C9.66486 11.8801 9.75466 12.0597 9.76589 12.0597C9.82201 12.0597 10.2598 11.5321 10.3496 11.2515C10.5292 10.7127 10.5292 8.93906 10.619 8.59108C10.6639 8.4227 10.866 8.23187 11.0231 8.19819C11.6405 8.10839 12.1344 9.12989 12.112 9.65748C12.112 9.65748 12.1344 9.65748 12.1456 9.65748C12.9651 8.83803 13.7958 8.00736 14.6152 7.18792C14.7275 7.13179 14.8509 7.08689 14.9632 7.03076L14.9744 7.05321ZM15.0193 7.491L14.8846 7.55835L12.0895 10.3534C11.6181 10.5555 11.7864 9.54522 11.5283 9.04009C11.4721 8.93906 11.1466 8.5125 11.068 8.66965C11.0119 8.7819 10.9558 10.7463 10.8211 11.2515C10.6527 11.9138 10.0914 12.3066 10.0914 12.374L12.7855 15.0681C13.111 14.866 13.4365 14.6527 13.7509 14.4507C13.9529 14.3047 15.6928 12.6322 15.7602 12.4975C15.951 12.1832 15.6816 11.8352 15.3336 11.9587C15.2214 12.0036 15.0867 12.2842 14.8734 12.1383C14.5142 11.8913 15.3673 11.4423 15.4122 11.1841C15.4683 10.9035 15.2326 10.6902 14.9632 10.7576C14.7275 10.8137 14.3682 11.5545 14.0539 11.33C13.6835 11.0606 14.7836 10.4096 14.8397 10.1514C14.8958 9.84831 14.604 9.61258 14.3233 9.74728C14.0427 10.0167 13.7621 10.2861 13.4927 10.5555C13.2682 10.6229 13.111 10.4096 13.2233 10.2187L15.401 8.04104C15.5694 7.76041 15.3448 7.43487 15.0081 7.50222L15.0193 7.491Z" fill="#6B46F2"/>
</g>
<defs>
<clipPath id="clip0_356_318">
<rect width="35" height="35" fill="white"/>
</clipPath>
</defs>
</svg>
