<svg width="22" height="22" viewBox="0 0 22 22" fill="none" xmlns="http://www.w3.org/2000/svg">
<rect width="22" height="22" rx="5" fill="#F2EFFF"/>
<g clip-path="url(#clip0_1251_3)">
<mask id="path-2-inside-1_1251_3" fill="white">
<path d="M13.25 16.25H8.75C8.3375 16.25 8 15.9125 8 15.5V14.375H8.75V15.5H13.25V14.375H14V15.5C14 15.9125 13.6625 16.25 13.25 16.25ZM10.625 10.55V14.375H11.375V10.55L12.35 11.525L12.875 11L11 9.125L9.125 11L9.65 11.525L10.625 10.55Z"/>
</mask>
<path d="M13.25 16.25H8.75C8.3375 16.25 8 15.9125 8 15.5V14.375H8.75V15.5H13.25V14.375H14V15.5C14 15.9125 13.6625 16.25 13.25 16.25ZM10.625 10.55V14.375H11.375V10.55L12.35 11.525L12.875 11L11 9.125L9.125 11L9.65 11.525L10.625 10.55Z" fill="#6B46F2"/>
<path d="M8 14.375V-2.625H-9V14.375H8ZM8.75 14.375H25.75V-2.625H8.75V14.375ZM8.75 15.5H-8.25V32.5H8.75V15.5ZM13.25 15.5V32.5H30.25V15.5H13.25ZM13.25 14.375V-2.625H-3.75V14.375H13.25ZM14 14.375H31V-2.625H14V14.375ZM10.625 10.55H27.625V-30.4916L-1.39581 -1.47082L10.625 10.55ZM10.625 14.375H-6.375V31.375H10.625V14.375ZM11.375 14.375V31.375H28.375V14.375H11.375ZM11.375 10.55L23.3958 -1.47082L-5.625 -30.4916V10.55H11.375ZM12.35 11.525L0.329187 23.5458L12.35 35.5666L24.3708 23.5458L12.35 11.525ZM12.875 11L24.8958 23.0208L36.9166 11L24.8958 -1.02081L12.875 11ZM11 9.125L23.0208 -2.89581L11 -14.9166L-1.02081 -2.89581L11 9.125ZM9.125 11L-2.89581 -1.02081L-14.9166 11L-2.89581 23.0208L9.125 11ZM9.65 11.525L-2.37082 23.5458L9.65 35.5666L21.6708 23.5458L9.65 11.525ZM13.25 -0.75H8.75V33.25H13.25V-0.75ZM8.75 -0.75C17.7263 -0.75 25 6.52366 25 15.5H-9C-9 25.3013 -1.05134 33.25 8.75 33.25V-0.75ZM25 15.5V14.375H-9V15.5H25ZM8 31.375H8.75V-2.625H8V31.375ZM-8.25 14.375V15.5H25.75V14.375H-8.25ZM8.75 32.5H13.25V-1.5H8.75V32.5ZM30.25 15.5V14.375H-3.75V15.5H30.25ZM13.25 31.375H14V-2.625H13.25V31.375ZM-3 14.375V15.5H31V14.375H-3ZM-3 15.5C-3 6.52366 4.27366 -0.75 13.25 -0.75V33.25C23.0513 33.25 31 25.3013 31 15.5H-3ZM-6.375 10.55V14.375H27.625V10.55H-6.375ZM10.625 31.375H11.375V-2.625H10.625V31.375ZM28.375 14.375V10.55H-5.625V14.375H28.375ZM-0.645813 22.5708L0.329187 23.5458L24.3708 -0.495817L23.3958 -1.47082L-0.645813 22.5708ZM24.3708 23.5458L24.8958 23.0208L0.854185 -1.02081L0.329185 -0.495815L24.3708 23.5458ZM24.8958 -1.02081L23.0208 -2.89581L-1.02081 21.1458L0.854185 23.0208L24.8958 -1.02081ZM-1.02081 -2.89581L-2.89581 -1.02081L21.1458 23.0208L23.0208 21.1458L-1.02081 -2.89581ZM-2.89581 23.0208L-2.37082 23.5458L21.6708 -0.495815L21.1458 -1.02081L-2.89581 23.0208ZM21.6708 23.5458L22.6458 22.5708L-1.39581 -1.47082L-2.37081 -0.495817L21.6708 23.5458Z" fill="#6B46F2" mask="url(#path-2-inside-1_1251_3)"/>
<path d="M9.5 6.9742V6.59186C9.79568 6.29243 10.1222 6.02358 10.4745 5.7905C10.6458 5.76382 10.8213 5.75 11 5.75C11.2047 5.75 11.4051 5.76812 11.5997 5.80291C11.9237 6.0242 12.2252 6.27608 12.5 6.55436V6.9714C12.0725 6.67302 11.5529 6.5 11 6.5C10.4471 6.5 9.92748 6.67302 9.5 6.9742Z" fill="#6B46F2" stroke="#6B46F2" stroke-width="17"/>
</g>
<defs>
<clipPath id="clip0_1251_3">
<rect width="12" height="12" fill="white" transform="translate(5 5)"/>
</clipPath>
</defs>
</svg>
