<svg width="35" height="35" viewBox="0 0 35 35" fill="none" xmlns="http://www.w3.org/2000/svg">
<g clip-path="url(#clip0_347_24)">
<mask id="mask0_347_24" style="mask-type:luminance" maskUnits="userSpaceOnUse" x="0" y="0" width="35" height="35">
<path d="M35 0H0V35H35V0Z" fill="white"/>
</mask>
<g mask="url(#mask0_347_24)">
<path d="M27.2824 -0.245117H7.92736C3.47181 -0.245117 -0.140137 3.36683 -0.140137 7.82238V27.1774C-0.140137 31.6329 3.47181 35.2449 7.92736 35.2449H27.2824C31.7379 35.2449 35.3499 31.6329 35.3499 27.1774V7.82238C35.3499 3.36683 31.7379 -0.245117 27.2824 -0.245117Z" fill="#F2EFFF"/>
</g>
<path d="M13.1951 22.597L6 28.6282V16.581L13.1951 22.597ZM17.4274 6L6.1965 15.7496L17.4274 25.1515L28.6584 15.7496L17.4274 6ZM20.3448 16.0821C20.2843 16.2787 20.2087 16.46 20.1331 16.6414C20.0425 16.8228 19.9215 16.974 19.8006 17.11C19.6646 17.2461 19.5134 17.3519 19.332 17.4274C19.1506 17.503 18.9541 17.5333 18.7274 17.5333C18.6065 17.5333 18.5007 17.5181 18.3948 17.4879C18.289 17.4577 18.1983 17.4123 18.1228 17.367C18.0472 17.3065 17.9716 17.2461 17.9111 17.1554C17.8507 17.0798 17.8205 16.974 17.8053 16.8682C17.6844 16.9891 17.5786 17.0798 17.4577 17.1705C17.3519 17.2461 17.2461 17.3216 17.1251 17.3821C17.0193 17.4426 16.9135 17.4728 16.8077 17.4879C16.7019 17.5181 16.6112 17.5181 16.5054 17.5181C16.3693 17.5181 16.2635 17.5181 16.1728 17.4879C16.067 17.4577 15.9915 17.4274 15.9159 17.3821C15.8403 17.3367 15.7798 17.2763 15.7194 17.2007C15.6589 17.1251 15.6136 17.0496 15.5833 16.9589C15.5531 16.8682 15.5229 16.7775 15.5078 16.6717C15.4926 16.5659 15.4775 16.4449 15.4775 16.324C15.4775 16.2031 15.4775 16.0519 15.5078 15.8856C15.538 15.7194 15.5682 15.5531 15.6136 15.3717C15.6589 15.1903 15.7194 15.0241 15.8101 14.8578C15.8856 14.6915 15.9915 14.5404 16.1124 14.4043C16.2333 14.2683 16.3845 14.1625 16.5507 14.0718C16.717 13.9962 16.9135 13.9508 17.1402 13.9508C17.2309 13.9508 17.3216 13.9508 17.4123 13.9811C17.503 14.0113 17.5786 14.0415 17.6542 14.0869C17.7298 14.1322 17.8053 14.1927 17.8809 14.2683C17.9565 14.3438 18.0321 14.4194 18.1076 14.5252L18.1832 14.1322C18.1832 14.1322 18.2135 14.0566 18.2588 14.0415C18.3042 14.0264 18.3797 14.0113 18.4855 14.0113C18.546 14.0113 18.5913 14.0113 18.6216 14.0113C18.6518 14.0113 18.6972 14.0113 18.7123 14.0415C18.7425 14.0415 18.7425 14.0718 18.7576 14.0718C18.7727 14.0718 18.7576 14.102 18.7576 14.1322L18.3646 16.1728C18.3193 16.4298 18.3344 16.6263 18.3948 16.7472C18.4704 16.8682 18.6065 16.9286 18.803 16.9286C18.9239 16.9286 19.0297 16.8984 19.1355 16.8379C19.2413 16.7775 19.3169 16.7019 19.3925 16.5961C19.4681 16.4903 19.5285 16.3693 19.589 16.2333C19.6343 16.0973 19.6797 15.9461 19.7099 15.795C19.7401 15.6438 19.7704 15.4775 19.7855 15.3264C19.8006 15.1601 19.8157 15.0089 19.8157 14.8578C19.8157 14.6008 19.7855 14.359 19.7099 14.1171C19.6494 13.8904 19.5134 13.6788 19.3622 13.5125C19.196 13.3311 18.9692 13.1951 18.682 13.0892C18.3948 12.9834 18.0472 12.9381 17.6239 12.9381C17.2763 12.9381 16.9589 12.9683 16.6868 13.0439C16.4147 13.1195 16.1728 13.2253 15.9612 13.3613C15.7496 13.4974 15.5682 13.6485 15.4171 13.8148C15.2659 13.9811 15.145 14.1625 15.0392 14.359C14.9334 14.5555 14.8578 14.752 14.7973 14.9636C14.7369 15.1601 14.6915 15.3566 14.6613 15.5531C14.631 15.7496 14.6008 15.9159 14.6008 16.0973C14.6008 16.2635 14.5857 16.3996 14.5857 16.5205C14.5857 16.853 14.6159 17.1554 14.6915 17.4274C14.7671 17.6995 14.9031 17.9414 15.0845 18.1379C15.281 18.3344 15.5229 18.4855 15.8403 18.6065C16.1577 18.7274 16.5507 18.7727 17.0344 18.7727C17.2461 18.7727 17.4426 18.7727 17.6239 18.7425C17.8053 18.7123 17.9565 18.6972 18.0774 18.6669C18.2135 18.6367 18.3042 18.6065 18.3948 18.5913C18.4855 18.5762 18.5309 18.5611 18.5611 18.5611C18.5762 18.5611 18.5913 18.5611 18.6065 18.5762C18.6216 18.5762 18.6367 18.6065 18.6367 18.6216C18.6367 18.6367 18.6518 18.6669 18.6518 18.6972C18.6518 18.7274 18.6518 18.7727 18.6518 18.8332V18.939C18.6518 18.939 18.6518 18.9844 18.6518 19.0146C18.6518 19.0448 18.6367 19.0599 18.6216 19.0751C18.6216 19.0902 18.5913 19.1053 18.5762 19.1204C18.5611 19.1355 18.5007 19.1506 18.4251 19.1809C18.3495 19.2111 18.2286 19.2413 18.0774 19.2716C17.9263 19.3018 17.76 19.332 17.5786 19.3471C17.3821 19.3622 17.1705 19.3774 16.9437 19.3774C16.3845 19.3774 15.9159 19.3169 15.538 19.1809C15.1601 19.0448 14.8427 18.8634 14.6008 18.6216C14.359 18.3797 14.1927 18.0774 14.0718 17.7449C13.966 17.3972 13.9055 17.0193 13.9055 16.5961C13.9055 16.4449 13.9055 16.2635 13.9357 16.067C13.9508 15.8705 13.9811 15.6589 14.0264 15.4171C14.0718 15.1903 14.1322 14.9485 14.2229 14.7217C14.3136 14.495 14.4194 14.2532 14.5555 14.0264C14.6915 13.7997 14.8427 13.5881 15.0392 13.3916C15.2206 13.1951 15.4473 13.0137 15.7043 12.8625C15.9612 12.7114 16.2484 12.5904 16.581 12.5149C16.9135 12.4393 17.2914 12.3788 17.6995 12.3788C18.1832 12.3788 18.6065 12.4393 18.9692 12.5602C19.3169 12.666 19.6192 12.8474 19.8459 13.059C20.0727 13.2706 20.2541 13.5276 20.3599 13.845C20.4657 14.1625 20.5262 14.495 20.5262 14.8729C20.5262 15.0694 20.511 15.281 20.4959 15.4926C20.4657 15.7043 20.4203 15.9008 20.375 16.1124L20.3448 16.0821Z" fill="#6B46F2"/>
<path d="M28.2049 29.0666H6.66504L13.7845 23.111L17.1855 25.9679C17.3216 26.0888 17.5332 26.0888 17.6692 25.9679L21.0703 23.111L28.1897 29.0666H28.2049ZM28.87 16.5811V28.6282L21.6749 22.5971L28.87 16.5811Z" fill="#6B46F2"/>
<path d="M20.3294 13.8149C20.2236 13.5125 20.0422 13.2405 19.8155 13.0288C19.5887 12.8172 19.2864 12.6509 18.9387 12.53C18.5911 12.4091 18.1678 12.3486 17.669 12.3486C17.2458 12.3486 16.883 12.394 16.5505 12.4847C16.2179 12.5754 15.9307 12.6963 15.6738 12.8323C15.4168 12.9835 15.1901 13.1649 15.0087 13.3614C14.8122 13.5579 14.661 13.7695 14.525 13.9962C14.3889 14.223 14.2831 14.4497 14.1924 14.6916C14.1169 14.9334 14.0413 15.1601 13.9959 15.3869C13.9506 15.6136 13.9203 15.8252 13.9052 16.0369C13.8901 16.2334 13.875 16.4147 13.875 16.5659C13.875 16.9891 13.9355 17.367 14.0413 17.7147C14.1471 18.0624 14.3285 18.3496 14.5703 18.5914C14.8122 18.8333 15.1296 19.0298 15.5075 19.1507C15.9005 19.2867 16.3691 19.3472 16.9132 19.3472C17.14 19.3472 17.3516 19.3472 17.5481 19.317C17.7446 19.2867 17.9109 19.2716 18.0469 19.2414C18.183 19.2111 18.3039 19.1809 18.3946 19.1507C18.4702 19.1205 18.5306 19.1053 18.5457 19.0902C18.5609 19.0751 18.576 19.06 18.5911 19.0449C18.5911 19.0298 18.6062 19.0146 18.6213 18.9844C18.6213 18.9542 18.6213 18.9391 18.6213 18.9088V18.803C18.6213 18.803 18.6213 18.7123 18.6213 18.667C18.6213 18.6367 18.6213 18.6065 18.6062 18.5914C18.5911 18.5763 18.5911 18.5612 18.576 18.5461C18.5609 18.5309 18.5457 18.5309 18.5306 18.5309C18.5004 18.5309 18.455 18.5461 18.3644 18.5612C18.2888 18.5914 18.183 18.6216 18.0469 18.6367C17.9109 18.667 17.7597 18.6972 17.5935 18.7123C17.4121 18.7426 17.2156 18.7426 17.0039 18.7426C16.5202 18.7426 16.1272 18.6821 15.8098 18.5763C15.4924 18.4705 15.2354 18.3042 15.054 18.1077C14.8726 17.9112 14.7366 17.6693 14.661 17.3973C14.5854 17.1252 14.5552 16.8229 14.5552 16.4903C14.5552 16.3694 14.5552 16.2334 14.5703 16.0671C14.5703 15.9008 14.6006 15.7194 14.6308 15.5229C14.661 15.3415 14.7064 15.145 14.7668 14.9334C14.8273 14.7218 14.9029 14.5253 15.0087 14.3288C15.1145 14.1323 15.2354 13.9509 15.3866 13.7846C15.5377 13.6183 15.7191 13.4521 15.9307 13.3312C16.1423 13.1951 16.3842 13.0893 16.6563 13.0137C16.9284 12.9381 17.2458 12.9079 17.5935 12.9079C18.0167 12.9079 18.3795 12.9684 18.6516 13.0591C18.9387 13.1649 19.1655 13.3009 19.3318 13.4823C19.498 13.6637 19.619 13.8602 19.6794 14.0869C19.755 14.3288 19.7852 14.5706 19.7852 14.8276C19.7852 14.9788 19.7852 15.1299 19.755 15.2962C19.7248 15.4625 19.7248 15.6136 19.6794 15.7648C19.6492 15.9159 19.6038 16.0671 19.5585 16.2031C19.498 16.3392 19.4527 16.4601 19.362 16.5659C19.2864 16.6717 19.1957 16.7473 19.105 16.8078C19.0143 16.8682 18.8934 16.8984 18.7725 16.8984C18.576 16.8984 18.4399 16.838 18.3644 16.7171C18.2888 16.5961 18.2888 16.3996 18.3341 16.1427L18.7271 14.102V14.0416C18.7271 14.0416 18.6969 14.0114 18.6818 14.0114C18.6515 14.0114 18.6213 13.9811 18.5911 13.9811C18.5609 13.9811 18.5155 13.9811 18.455 13.9811C18.3492 13.9811 18.2585 13.9811 18.2283 14.0114C18.183 14.0416 18.1527 14.0718 18.1527 14.102L18.0772 14.4951C18.0016 14.4044 17.926 14.3288 17.8504 14.2381C17.7748 14.1625 17.6993 14.102 17.6237 14.0567C17.5481 14.0114 17.4574 13.9811 17.3818 13.9509C17.2911 13.9207 17.2004 13.9207 17.1098 13.9207C16.883 13.9207 16.6865 13.966 16.5202 14.0416C16.354 14.1172 16.2028 14.2381 16.0819 14.3741C15.961 14.5102 15.8552 14.6613 15.7796 14.8276C15.704 14.9939 15.6284 15.1601 15.5831 15.3415C15.5377 15.5229 15.5075 15.6892 15.4773 15.8555C15.4621 16.0217 15.447 16.1729 15.447 16.2938C15.447 16.4147 15.447 16.5357 15.4773 16.6415C15.4924 16.7473 15.5226 16.838 15.5528 16.9287C15.5831 17.0194 15.6284 17.095 15.6889 17.1705C15.7493 17.2461 15.8098 17.3066 15.8854 17.3519C15.961 17.3973 16.0517 17.4275 16.1423 17.4577C16.233 17.488 16.354 17.488 16.4749 17.488C16.5807 17.488 16.6714 17.488 16.7772 17.4577C16.883 17.4275 16.9888 17.3973 17.0946 17.3519C17.2004 17.2915 17.3063 17.231 17.4272 17.1403C17.533 17.0496 17.6539 16.9438 17.7748 16.838C17.8051 16.9438 17.8353 17.0496 17.8807 17.1252C17.9411 17.2008 18.0016 17.2763 18.0923 17.3368C18.1678 17.3973 18.2585 17.4275 18.3644 17.4577C18.4702 17.488 18.576 17.5031 18.6969 17.5031C18.9236 17.5031 19.1353 17.4728 19.3015 17.3973C19.4829 17.3217 19.6341 17.2159 19.7701 17.0798C19.9062 16.9438 20.012 16.7926 20.1027 16.6113C20.1933 16.4299 20.2689 16.2485 20.3143 16.052C20.3747 15.8555 20.4201 15.6438 20.4352 15.4322C20.4654 15.2206 20.4654 15.009 20.4654 14.8125C20.4654 14.4346 20.405 14.102 20.2992 13.7846L20.3294 13.8149ZM17.6993 16.2938C17.5935 16.3996 17.4876 16.5054 17.3818 16.5961C17.2911 16.6717 17.2004 16.7473 17.1249 16.8078C17.0493 16.8682 16.9586 16.8984 16.883 16.9136C16.8074 16.9438 16.747 16.9438 16.6714 16.9438C16.49 16.9438 16.354 16.8833 16.2784 16.7624C16.2028 16.6415 16.1575 16.4752 16.1575 16.2636C16.1575 16.1729 16.1575 16.0671 16.1726 15.9462C16.1877 15.8252 16.2028 15.7043 16.2482 15.5683C16.2784 15.4473 16.3237 15.3264 16.3842 15.1904C16.4447 15.0543 16.49 14.9636 16.5807 14.8578C16.6563 14.752 16.747 14.6764 16.8377 14.616C16.9284 14.5555 17.0493 14.5253 17.1702 14.5253C17.3214 14.5253 17.4574 14.5706 17.5783 14.6764C17.6993 14.7823 17.8051 14.9183 17.926 15.1148L17.7144 16.2787L17.6993 16.2938Z" fill="white"/>
<path d="M17.9116 15.13L17.7 16.2939C17.5942 16.3997 17.4884 16.5055 17.3826 16.5962C17.2919 16.6718 17.2012 16.7474 17.1256 16.8079C17.05 16.8683 16.9593 16.8986 16.8838 16.9137C16.8082 16.9439 16.7477 16.9439 16.6721 16.9439C16.4907 16.9439 16.3547 16.8834 16.2791 16.7625C16.2036 16.6416 16.1582 16.4753 16.1582 16.2637C16.1582 16.173 16.1582 16.0672 16.1733 15.9463C16.1884 15.8253 16.2036 15.7044 16.2489 15.5684C16.2791 15.4474 16.3245 15.3265 16.3849 15.1905C16.4454 15.0544 16.4907 14.9637 16.5814 14.8579C16.657 14.7521 16.7477 14.6765 16.8384 14.6161C16.9291 14.5556 17.05 14.5254 17.171 14.5254C17.3221 14.5254 17.4582 14.5707 17.5791 14.6765C17.7 14.7824 17.8058 14.9184 17.9267 15.1149L17.9116 15.13Z" fill="#6B46F2"/>
</g>
<defs>
<clipPath id="clip0_347_24">
<rect width="35" height="35" fill="white"/>
</clipPath>
</defs>
</svg>
