<?xml version="1.0" encoding="UTF-8"?>
<svg id="Layer_1" xmlns="http://www.w3.org/2000/svg" viewBox="0 0 70 70">
  <defs>
    <style>
      .cls-1 {
        fill: #fff;
      }

      .cls-2 {
        fill: #eae5ff;
      }

      .cls-3 {
        fill: #5138cc;
      }
    </style>
  </defs>
  <g id="Character">
    <rect class="cls-3" x="-.07" y="-.18" width="70" height="70" rx="12.56" ry="12.56"/>
  </g>
  <g>
    <path class="cls-3" d="M58.24,31.67c0-.07-.01-.15-.05-.2,0-.03-.03-.05-.05-.08-.03-.06-.07-.11-.12-.17,0,0,0-.01-.01-.01l-22.53-19.56c-.27-.24-.68-.24-.96,0L12,31.2s0,.01-.01.01c-.05.05-.09.11-.14.17-.01.02-.03.05-.05.07-.03.08-.05.17-.05.25,0,.02-.01.03-.01.05v26.07s.02.07.02.09c0,.05.01.1.03.15.02.05.05.09.07.14.02.03.03.07.05.09l.02.02s.11.09.18.14c.02,0,.03.03.06.03.09.05.19.07.29.07h45.06c.11,0,.2-.02.29-.07.02,0,.03-.03.06-.03.07-.05.14-.09.18-.14l.02-.02s.03-.06.05-.09c.02-.05.05-.08.07-.14.01-.05.02-.1.03-.15,0-.03.01-.06.01-.09v-26.06h0s-.01-.07-.02-.1h.02ZM35.01,13.15l21.41,18.59-21.41,17.93L13.59,31.75s21.41-18.59,21.41-18.59ZM13.2,33.3l13.72,11.48-13.72,11.49v-22.97ZM14.47,57.1l13.58-11.37,6.49,5.43c.27.23.65.23.92,0l6.49-5.43,13.58,11.37H14.47ZM56.8,56.28l-13.71-11.49,13.71-11.48v22.97Z"/>
    <path class="cls-2" d="M26.92,44.78l-13.72,11.49v-22.97l13.72,11.48ZM35.01,13.14L13.59,31.73l21.41,17.93,21.41-17.93-21.41-18.59ZM40.55,32.34c-.1.37-.25.73-.42,1.07-.17.34-.39.63-.64.88-.25.26-.55.45-.89.6-.34.15-.72.21-1.16.21-.24,0-.44-.03-.64-.08-.19-.06-.37-.14-.52-.24-.15-.1-.28-.24-.39-.39-.1-.16-.17-.35-.21-.55-.23.23-.44.42-.65.59-.21.16-.42.29-.63.39-.2.1-.39.17-.6.21-.19.05-.38.07-.58.07-.25,0-.46-.02-.64-.07-.19-.05-.35-.12-.5-.21-.15-.09-.27-.21-.37-.35s-.19-.29-.25-.45c-.07-.17-.11-.35-.15-.55-.03-.21-.05-.43-.05-.67s.02-.52.06-.83c.05-.32.11-.64.19-.98.09-.34.21-.65.37-.98.16-.32.35-.6.59-.86.24-.25.52-.45.85-.62.32-.15.7-.24,1.13-.24.18,0,.35.02.52.07.17.05.33.11.47.2.15.09.29.2.44.34.14.14.28.29.44.48l.15-.74c.02-.08.07-.14.15-.18.08-.03.23-.06.44-.06.1,0,.19,0,.25.02.07,0,.14.02.17.05.05.02.07.05.08.07s.01.07,0,.1l-.76,3.9c-.09.5-.07.86.07,1.09.14.24.39.35.78.35.24,0,.44-.06.62-.17.19-.11.35-.27.5-.47.15-.19.26-.43.36-.69.09-.27.17-.54.24-.83.07-.29.11-.6.14-.9.03-.3.05-.6.05-.88,0-.5-.07-.96-.2-1.41-.12-.44-.36-.83-.68-1.16-.32-.34-.76-.61-1.3-.81-.54-.19-1.22-.29-2.03-.29-.67,0-1.26.07-1.78.21-.52.15-.98.35-1.38.6-.39.25-.74.54-1.03.87s-.52.68-.72,1.05-.35.74-.47,1.14c-.11.38-.21.76-.27,1.12-.07.36-.11.7-.12,1.03-.02.32-.03.58-.03.8,0,.63.07,1.21.21,1.73s.39.97.76,1.35c.36.38.83.68,1.43.88s1.35.32,2.27.32c.42,0,.79-.02,1.13-.07s.62-.09.87-.15c.25-.05.44-.1.6-.15s.26-.07.32-.07c.03,0,.07.01.09.03.03.02.05.05.06.09s.03.09.03.16.01.15.01.25v.19s0,.09-.02.14c0,.05-.03.08-.05.11-.02.03-.05.07-.08.09-.03.03-.14.07-.29.12s-.37.11-.65.17-.6.1-.96.15c-.37.03-.78.06-1.22.06-1.06,0-1.95-.12-2.68-.37-.73-.25-1.33-.6-1.79-1.06s-.79-1.03-1-1.67c-.2-.65-.3-1.38-.3-2.18,0-.29.01-.64.05-1.01.03-.38.09-.79.17-1.23.09-.44.21-.88.37-1.33s.36-.89.62-1.32.55-.85.92-1.22c.35-.38.78-.72,1.27-1,.48-.28,1.05-.51,1.68-.68.63-.16,1.34-.25,2.14-.25.94,0,1.74.11,2.41.34.68.21,1.23.54,1.67.95.44.42.77.9.98,1.49s.33,1.24.33,1.95c0,.38-.03.78-.07,1.18-.05.39-.14.79-.24,1.17h.01Z"/>
    <path class="cls-2" d="M55.54,57.1H14.47l13.58-11.37,6.49,5.43c.27.23.65.23.92,0l6.49-5.43s13.58,11.37,13.58,11.37ZM56.8,33.3v22.97l-13.71-11.49,13.71-11.48Z"/>
    <path class="cls-3" d="M40.53,28.04c-.21-.59-.54-1.08-.98-1.49s-1-.72-1.67-.95c-.68-.23-1.48-.34-2.41-.34-.8,0-1.51.09-2.14.25-.64.17-1.2.39-1.68.68-.5.29-.92.62-1.27,1-.36.37-.67.79-.92,1.22s-.45.87-.62,1.32c-.16.45-.28.89-.37,1.33s-.15.85-.17,1.23c-.03.37-.05.72-.05,1.01,0,.8.1,1.53.3,2.18.21.65.54,1.21,1,1.67s1.06.82,1.79,1.06c.74.25,1.63.37,2.68.37.44,0,.85-.02,1.22-.06.37-.05.69-.09.96-.15s.5-.11.65-.17c.16-.05.26-.09.29-.12s.06-.06.08-.09c.01-.03.03-.07.05-.11.01-.05.02-.09.02-.14v-.19c0-.09,0-.18-.01-.25,0-.07-.01-.11-.03-.16s-.03-.07-.06-.09-.06-.03-.09-.03c-.06,0-.16.03-.32.07-.15.05-.35.1-.6.15-.25.06-.54.11-.87.15-.34.05-.71.07-1.13.07-.91,0-1.67-.1-2.27-.32s-1.08-.51-1.43-.88-.61-.82-.76-1.35c-.15-.52-.21-1.09-.21-1.73,0-.23,0-.5.03-.8.01-.32.06-.65.12-1.03.06-.35.15-.73.27-1.12.12-.39.27-.77.47-1.14s.44-.72.72-1.05.62-.62,1.03-.87c.39-.25.86-.45,1.38-.6.52-.15,1.12-.21,1.78-.21.81,0,1.49.1,2.03.29.54.2.98.47,1.3.81.33.34.55.72.68,1.16.14.45.2.91.2,1.41,0,.28-.01.58-.05.88s-.07.61-.14.9c-.06.29-.14.56-.24.83-.1.26-.21.5-.36.69-.14.2-.3.35-.5.47-.18.11-.39.17-.62.17-.38,0-.64-.11-.78-.35-.14-.24-.16-.6-.07-1.09l.76-3.9v-.1s-.05-.06-.08-.07c-.06-.02-.11-.05-.17-.05-.07-.01-.15-.02-.25-.02-.21,0-.36.02-.44.06-.08.05-.14.1-.15.18l-.15.74c-.14-.17-.28-.33-.44-.48-.15-.14-.29-.25-.44-.34s-.32-.16-.47-.2c-.17-.05-.34-.07-.52-.07-.44,0-.81.08-1.13.24-.33.16-.6.36-.85.62-.24.25-.43.54-.59.86s-.28.64-.37.98-.15.65-.19.98c-.03.32-.06.6-.06.83s.01.45.05.67c.03.2.08.38.15.55s.15.32.25.45c.1.14.23.25.37.35.15.09.32.16.5.21.18.05.39.07.64.07.19,0,.37-.02.58-.07.19-.05.39-.11.6-.21.21-.1.42-.24.63-.39.21-.17.43-.36.65-.59.05.21.11.39.21.55.11.16.24.29.39.39.15.11.33.18.52.24.2.05.42.08.64.08.44,0,.82-.07,1.16-.21.34-.15.64-.34.89-.6.25-.25.47-.55.64-.88.17-.34.32-.7.42-1.07.11-.38.19-.78.24-1.17.05-.41.07-.8.07-1.18,0-.72-.11-1.36-.33-1.95h-.01ZM35.52,32.75c-.21.21-.42.42-.6.58-.17.16-.35.29-.5.39-.16.1-.32.17-.45.21-.14.05-.27.07-.42.07-.35,0-.61-.11-.76-.34-.15-.23-.23-.54-.23-.96,0-.17.01-.37.03-.61.03-.24.07-.46.14-.71.07-.24.15-.47.25-.71s.21-.44.36-.62c.14-.19.3-.34.5-.45s.41-.17.64-.17c.29,0,.54.09.78.28.23.19.44.47.65.83l-.41,2.21h0Z"/>
    <path class="cls-1" d="M35.93,30.54l-.41,2.21c-.21.21-.42.42-.6.58-.17.16-.35.29-.5.39-.16.1-.32.17-.45.21-.14.05-.27.07-.42.07-.35,0-.61-.11-.76-.34-.15-.23-.23-.54-.23-.96,0-.17.01-.37.03-.61.03-.24.07-.46.14-.71.07-.24.15-.47.25-.71s.21-.44.36-.62c.14-.19.3-.34.5-.45s.41-.17.64-.17c.29,0,.54.09.78.28.23.19.44.47.65.83h0Z"/>
  </g>
</svg>