<?xml version="1.0" encoding="UTF-8"?>
<svg id="Layer_1" xmlns="http://www.w3.org/2000/svg" viewBox="0 0 70 70">
  <defs>
    <style>
      .cls-1 {
        fill: #fff;
      }

      .cls-2 {
        fill: #5138cc;
      }
    </style>
  </defs>
  <g id="Character">
    <rect class="cls-2" width="70" height="70" rx="12.56" ry="12.56"/>
  </g>
  <g>
    <path class="cls-1" d="M34.33,18.48c4.91-.21,9.72,2.15,12.58,6.09,4.7,6.47,3.32,15.43-2.96,20.28-6.62,5.11-16.11,3.6-20.92-3.17-6.96-9.81.27-22.74,11.3-23.2ZM33.76,19.98c-3.91.3-7.69,2.71-9.8,5.95.15.21,4.36-.21,4.67-.11.3.1.3.77.07.93l-1.82.32c1.63,4.74,3.26,9.48,4.88,14.22.96-2.91,1.92-5.82,2.89-8.73-.67-1.81-1.33-3.61-2-5.42l-.18-.18c-.41-.02-1.63,0-1.75-.46-.06-.23.05-.61.32-.68,1.52.05,3.04.1,4.56.14,1.15,0,3.23-.51,3.24.32.02.88-1.94.48-2,.86,1.58,4.67,3.16,9.34,4.74,14.01.58-1.89,2.29-6.53,2.39-8.09.27-4.21-3.67-5.97-2-8.63.69-1.09,1.86-.97,1.92-1.07-2.94-2.54-6.24-3.69-10.16-3.39ZM46.66,26.89c.09,1.47.04,2.67-.32,4.1-1.53,4.53-3.07,9.05-4.6,13.58,6.13-3.59,8.34-11.39,4.92-17.68ZM22.92,27.82c-2.98,6.39-.07,14.28,6.27,17.25l-.32-1.18c-1.98-5.36-3.97-10.72-5.95-16.07ZM35.26,34.38c-1.35,3.82-2.76,7.7-3.92,11.55,2.63.74,5.52.71,8.09-.25-1.39-3.77-2.78-7.53-4.17-11.3Z"/>
    <path class="cls-1" d="M33.79,10.88c9.51-.46,18.21,5.02,22.02,13.66,4.2-.21,7.99,3.34,8.42,7.48v6.24c-.49,5.02-5.22,8.54-10.18,7.59-3.6,5.18-8.85,8.93-15.19,9.89-3.35,6.76-11.47,2.34-9.36-3.36,1.44-3.89,7.43-4.05,9.01-.18,19.2-3.79,20.58-29.01,4.36-36.15-15.53-6.83-31.49,8.24-25.73,24.2.64,1.76,2.83,4.11.06,5.24-4.42,1.81-10.05-1.22-11.13-5.83-.42-1.79-.39-7.55.12-9.3.96-3.31,4.6-6.05,8.07-5.83,3.32-7.68,11.11-13.25,19.55-13.66Z"/>
  </g>
</svg>