<?xml version="1.0" encoding="UTF-8"?>
<svg id="Layer_1" xmlns="http://www.w3.org/2000/svg" viewBox="0 0 20 20">
  <defs>
    <style>
      .cls-1 {
        fill: #f2efff;
      }

      .cls-2 {
        fill: #6b46f2;
      }
    </style>
  </defs>
  <rect class="cls-1" x="-.08" y="-.14" width="20.28" height="20.28" rx="4.61" ry="4.61"/>
  <g>
    <path class="cls-2" d="M14.84,16.22H3.49c-.45,0-.87-.12-1.21-.34l-.03-.02c-.85-.56-1.34-1.56-1.31-2.67.02-1.01.34-1.77.95-2.28.78-.64,1.81-.66,2.3-.63.66-2.71,3.02-2.82,3.82-2.78.49-1.74,1.25-2.89,2.29-3.41,1.1-.56,2.08-.18,2.12-.16.15.06.22.23.16.38-.06.15-.23.22-.38.16h0s-.79-.3-1.65.14c-.92.47-1.6,1.57-2.04,3.27-.04.15-.18.24-.33.22-.12-.02-2.9-.44-3.47,2.55-.03.16-.18.26-.34.23-.01,0-1.29-.21-2.11.47-.47.39-.72,1.01-.74,1.83-.02.91.38,1.72,1.06,2.17.27.18.58.26.91.26h11.35c1.17,0,2.22-.54,2.81-1.45.33-.5.49-1.07.49-1.68,0-.16.13-.29.29-.29s.29.13.29.29c0,.73-.2,1.4-.59,2-.7,1.07-1.93,1.72-3.31,1.72Z"/>
    <path class="cls-2" d="M10.03,8.76c.11-.97.54-1.85,1.18-2.51l.73.73.34-.34-.72-.72c.69-.57,1.55-.93,2.5-.98v1.19h.48v-1.19c.95.05,1.81.41,2.5.98l-.69.69.34.34.7-.7c.64.67,1.08,1.54,1.18,2.51h-1v.48h1.03c0,1.04-.37,1.99-.98,2.73l-.82-.82-.34.34.83.83h0s.33.35.33.35c.9-.87,1.45-2.08,1.45-3.43,0-2.63-2.14-4.77-4.77-4.77s-4.77,2.14-4.77,4.77c0,1.31.53,2.5,1.38,3.36l.34-.34h0s.72-.72.72-.72l-.34-.34-.7.7c-.58-.73-.92-1.65-.92-2.66h.97v-.48h-.94Z"/>
    <path class="cls-2" d="M14.98,11.3c-.09.04-.18.04-.27.02l-3.09-1.3c-.46-.14-.34-.61.13-.54l3.34.19c.09.01.18.06.24.13l.41.57c.06.25.04.36-.14.6l-.62.33h0Z"/>
  </g>
</svg>