<svg width="22" height="22" viewBox="0 0 22 22" fill="none" xmlns="http://www.w3.org/2000/svg">
<rect width="22" height="22" rx="5" fill="#F2EFFF"/>
<path d="M13.9137 16L13.7554 15.1667C13.6499 15.1204 13.551 15.0719 13.4589 15.0211C13.3667 14.9704 13.2721 14.9078 13.1751 14.8333L12.4101 15.0833L11.8825 14.1389L12.4892 13.5833C12.4716 13.4722 12.4628 13.3519 12.4628 13.2222C12.4628 13.0926 12.4716 12.9722 12.4892 12.8611L11.8825 12.3056L12.4101 11.3611L13.1751 11.6111C13.2718 11.537 13.3664 11.4746 13.4589 11.4239C13.5514 11.3731 13.6502 11.3244 13.7554 11.2778L13.9137 10.4444H14.9688L15.1271 11.2778C15.2326 11.3241 15.3316 11.3728 15.4241 11.4239C15.5166 11.475 15.6111 11.5374 15.7074 11.6111L16.4724 11.3611L17 12.3056L16.3933 12.8611C16.4109 12.9722 16.4197 13.0926 16.4197 13.2222C16.4197 13.3519 16.4109 13.4722 16.3933 13.5833L17 14.1389L16.4724 15.0833L15.7074 14.8333C15.6107 14.9074 15.5163 14.97 15.4241 15.0211C15.332 15.0722 15.233 15.1207 15.1271 15.1667L14.9688 16H13.9137ZM14.4412 14.3333C14.7314 14.3333 14.9799 14.2246 15.1867 14.0072C15.3935 13.7898 15.4968 13.5281 15.4964 13.2222C15.4964 12.9167 15.3932 12.6552 15.1867 12.4378C14.9803 12.2204 14.7318 12.1115 14.4412 12.1111C14.1511 12.1111 13.9028 12.22 13.6963 12.4378C13.4898 12.6556 13.3864 12.917 13.3861 13.2222C13.3861 13.5278 13.4895 13.7894 13.6963 14.0072C13.9031 14.225 14.1514 14.3337 14.4412 14.3333ZM7.05516 13.7778V7.11111V9.5V9.33333V13.7778ZM6 14.8889V6H10.2206L11.2758 7.11111H16.5516V10.0417C16.3933 9.9213 16.2262 9.81722 16.0504 9.72944C15.8745 9.64167 15.6898 9.56519 15.4964 9.5V8.22222H10.8405L9.78537 7.11111H7.05516V13.7778H10.7878C10.8141 13.9722 10.856 14.162 10.9133 14.3472C10.9707 14.5324 11.0387 14.713 11.1175 14.8889H6Z" fill="#6B46F2"/>
</svg>
