<?xml version="1.0" encoding="UTF-8"?>
<svg id="Layer_1" xmlns="http://www.w3.org/2000/svg" viewBox="0 0 70 70">
  <defs>
    <style>
      .cls-1 {
        fill: #eae5ff;
      }

      .cls-2 {
        fill: #5138cc;
      }
    </style>
  </defs>
  <g id="Character">
    <rect class="cls-2" x="-.07" y="-.18" width="70" height="70" rx="12.56" ry="12.56"/>
  </g>
  <g>
    <path class="cls-1" d="M45.97,56.38h-3.26v-4.84h-15.42v4.84h-3.26c-.3,0-.54.24-.54.54s.24.54.54.54h21.94c.3,0,.54-.24.54-.54s-.24-.54-.54-.54ZM35.81,20.77c-3.69,0-6.67,2.99-6.67,6.67s2.99,6.67,6.67,6.67,6.67-2.99,6.67-6.67-2.99-6.67-6.67-6.67ZM35.81,26.9c1.04,0,1.88.85,1.88,1.88,0,.85-.57,1.56-1.34,1.8v.35c0,.3-.24.54-.54.54s-.54-.24-.54-.54v-.35c-.77-.23-1.34-.95-1.34-1.8,0-.3.24-.54.54-.54s.54.24.54.54c0,.44.36.8.8.8s.8-.36.8-.8-.36-.8-.8-.8c-1.04,0-1.88-.85-1.88-1.88,0-.85.57-1.56,1.34-1.8v-.35c0-.3.24-.54.54-.54s.54.24.54.54v.35c.77.23,1.34.95,1.34,1.8,0,.3-.24.54-.54.54s-.54-.24-.54-.54c0-.44-.36-.8-.8-.8s-.8.36-.8.8.36.8.8.8Z"/>
    <path class="cls-1" d="M55.86,12.54H14.14c-1.07,0-1.95.87-1.95,1.95v27.91h45.62V14.48c0-1.07-.87-1.95-1.95-1.95ZM22.01,35.86h-4.27l.91.91c.21.21.21.55,0,.77s-.55.21-.77,0l-1.84-1.84c-.21-.21-.21-.55,0-.77l1.84-1.84c.21-.21.55-.21.77,0s.21.55,0,.77l-.92.92h4.27c.3,0,.54.24.54.54s-.24.54-.54.54ZM47.45,28.5c0,.3-.2.56-.49.62l-1.75.43c-.25,1.1-.68,2.11-1.26,3.04l.95,1.54c.15.25.11.58-.09.79l-1.51,1.5c-.21.21-.53.25-.78.09l-1.55-.94c-.92.58-1.94,1.02-3.03,1.26l-.43,1.76c-.07.28-.32.48-.62.48h-2.13c-.3,0-.56-.2-.62-.48l-.43-1.76c-1.1-.24-2.12-.67-3.04-1.26l-1.54.94c-.25.16-.58.12-.79-.09l-1.5-1.5c-.21-.21-.25-.53-.09-.79l.94-1.54c-.58-.92-1.02-1.94-1.26-3.04l-1.76-.43c-.29-.06-.48-.32-.48-.62v-2.13c0-.3.19-.55.48-.62l1.76-.43c.24-1.09.67-2.11,1.25-3.03l-.93-1.55c-.16-.25-.12-.57.09-.78l1.5-1.51c.21-.21.53-.25.79-.09l1.54.94c.92-.58,1.94-1.01,3.04-1.26l.43-1.75c.06-.29.33-.49.62-.49h2.13c.3,0,.55.2.62.49l.43,1.75c1.09.25,2.11.67,3.03,1.26l1.55-.94c.25-.15.57-.12.78.09l1.51,1.51c.21.21.25.53.09.78l-.94,1.55c.58.92,1.01,1.94,1.26,3.03l1.75.43c.29.07.49.33.49.62,0,0,0,2.13,0,2.13ZM53.94,19.99l-1.84,1.84c-.21.21-.55.21-.77,0s-.21-.55,0-.77l.91-.91h-4.27c-.3,0-.54-.24-.54-.54s.24-.54.54-.54h4.27l-.91-.91c-.21-.21-.21-.55,0-.77s.55-.21.77,0l1.84,1.84c.21.21.21.56,0,.77ZM12.19,48.51c0,1.07.87,1.94,1.94,1.94h41.73c1.07,0,1.94-.87,1.94-1.94v-5.04H12.19v5.04ZM21.59,45.63c.74,0,1.33.6,1.33,1.33s-.59,1.33-1.33,1.33-1.33-.6-1.33-1.33.6-1.33,1.33-1.33ZM16.93,45.63c.74,0,1.33.6,1.33,1.33s-.59,1.33-1.33,1.33-1.33-.6-1.33-1.33.6-1.33,1.33-1.33Z"/>
  </g>
</svg>