<svg width="35" height="26" viewBox="0 0 35 26" fill="none" xmlns="http://www.w3.org/2000/svg">
<path d="M0.851562 22C0.851563 23.0609 1.24177 24.0783 1.93635 24.8284C2.63093 25.5786 3.57298 26 4.55527 26H30.4812C31.4635 26 32.4055 25.5786 33.1001 24.8284C33.7947 24.0783 34.1849 23.0609 34.1849 22V17H0.851562V22Z" fill="#138808"/>
<path d="M34.1849 9V4C34.1849 2.93913 33.7947 1.92172 33.1001 1.17157C32.4055 0.421427 31.4635 0 30.4812 0H4.55527C3.57298 0 2.63093 0.421427 1.93635 1.17157C1.24177 1.92172 0.851563 2.93913 0.851562 4L0.851563 9H34.1849Z" fill="#FF9933"/>
<path d="M0.851562 8.66699H34.1849V17.334H0.851562V8.66699Z" fill="#F7F7F7"/>
<path d="M17.5186 17C19.5641 17 21.2223 15.2091 21.2223 13C21.2223 10.7909 19.5641 9 17.5186 9C15.4731 9 13.8149 10.7909 13.8149 13C13.8149 15.2091 15.4731 17 17.5186 17Z" fill="#000080"/>
<path d="M17.5186 16.375C19.2444 16.375 20.6436 14.864 20.6436 13C20.6436 11.136 19.2444 9.625 17.5186 9.625C15.7927 9.625 14.3936 11.136 14.3936 13C14.3936 14.864 15.7927 16.375 17.5186 16.375Z" fill="#F7F7F7"/>
<path d="M17.6112 11.75L17.5186 12.4L17.426 11.75L17.5186 9.79999L17.6112 11.75ZM16.752 9.90899L17.1297 11.818L17.3751 12.42L17.3084 11.767L16.752 9.90899ZM16.0371 10.229L16.8594 11.967L17.2408 12.48L17.0205 11.867L16.0371 10.229ZM15.4233 10.737L16.6344 12.187L17.126 12.576L16.7658 12.045L15.4233 10.737ZM14.9529 11.4L16.4696 12.462L17.0371 12.7L16.5621 12.288L14.9529 11.4ZM14.6566 12.172L16.377 12.773L16.9816 12.845L16.4242 12.58L14.6566 12.172ZM14.5557 13L16.3612 13.1L16.9631 13L16.3612 12.9L14.5557 13ZM14.6566 13.828L16.4242 13.42L16.9816 13.155L16.377 13.227L14.6566 13.828ZM14.9529 14.6L16.5621 13.712L17.0371 13.3L16.4696 13.538L14.9529 14.6ZM15.4233 15.263L16.7658 13.955L17.126 13.424L16.6344 13.813L15.4233 15.263ZM16.0371 15.771L17.0205 14.133L17.2408 13.52L16.8594 14.033L16.0371 15.771ZM16.752 16.091L17.3084 14.233L17.3751 13.58L17.1297 14.182L16.752 16.091ZM17.5186 16.2L17.6112 14.25L17.5186 13.6L17.426 14.25L17.5186 16.2ZM18.2853 16.091L17.9075 14.182L17.6621 13.58L17.7288 14.233L18.2853 16.091ZM19.0001 15.771L18.1779 14.033L17.7964 13.52L18.0168 14.133L19.0001 15.771ZM19.614 15.263L18.4029 13.813L17.9112 13.424L18.2714 13.955L19.614 15.263ZM20.0844 14.6L18.5677 13.538L18.0001 13.3L18.4751 13.712L20.0844 14.6ZM20.3807 13.828L18.6603 13.227L18.0557 13.155L18.6131 13.42L20.3807 13.828ZM20.4816 13L18.676 12.9L18.0742 13L18.676 13.1L20.4816 13ZM20.3807 12.172L18.6131 12.58L18.0557 12.845L18.6603 12.773L20.3807 12.172ZM20.0844 11.4L18.4751 12.288L18.0001 12.7L18.5677 12.462L20.0844 11.4ZM19.614 10.737L18.2714 12.045L17.9112 12.576L18.4029 12.187L19.614 10.737ZM19.0001 10.229L18.0168 11.867L17.7964 12.48L18.1779 11.967L19.0001 10.229ZM18.2853 9.90899L17.7288 11.767L17.6621 12.42L17.9075 11.818L18.2853 9.90899Z" fill="#6666B3"/>
<path d="M17.1111 9.85898C17.2134 9.85898 17.2963 9.76944 17.2963 9.65899C17.2963 9.54853 17.2134 9.45898 17.1111 9.45898C17.0088 9.45898 16.9259 9.54853 16.9259 9.65899C16.9259 9.76944 17.0088 9.85898 17.1111 9.85898Z" fill="#000080"/>
<path d="M16.3241 10.087C16.4264 10.087 16.5093 9.99744 16.5093 9.88698C16.5093 9.77652 16.4264 9.68698 16.3241 9.68698C16.2218 9.68698 16.1389 9.77652 16.1389 9.88698C16.1389 9.99744 16.2218 10.087 16.3241 10.087Z" fill="#000080"/>
<path d="M15.6185 10.526C15.7208 10.526 15.8037 10.4364 15.8037 10.326C15.8037 10.2155 15.7208 10.126 15.6185 10.126C15.5163 10.126 15.4333 10.2155 15.4333 10.326C15.4333 10.4364 15.5163 10.526 15.6185 10.526Z" fill="#000080"/>
<path d="M15.0426 11.148C15.1449 11.148 15.2278 11.0584 15.2278 10.948C15.2278 10.8375 15.1449 10.748 15.0426 10.748C14.9403 10.748 14.8574 10.8375 14.8574 10.948C14.8574 11.0584 14.9403 11.148 15.0426 11.148Z" fill="#000080"/>
<path d="M14.6361 11.91C14.7384 11.91 14.8213 11.8204 14.8213 11.71C14.8213 11.5995 14.7384 11.51 14.6361 11.51C14.5338 11.51 14.4509 11.5995 14.4509 11.71C14.4509 11.8204 14.5338 11.91 14.6361 11.91Z" fill="#000080"/>
<path d="M14.4249 12.76C14.5272 12.76 14.6101 12.6704 14.6101 12.56C14.6101 12.4495 14.5272 12.36 14.4249 12.36C14.3227 12.36 14.2397 12.4495 14.2397 12.56C14.2397 12.6704 14.3227 12.76 14.4249 12.76Z" fill="#000080"/>
<path d="M14.4249 13.64C14.5272 13.64 14.6101 13.5504 14.6101 13.44C14.6101 13.3295 14.5272 13.24 14.4249 13.24C14.3227 13.24 14.2397 13.3295 14.2397 13.44C14.2397 13.5504 14.3227 13.64 14.4249 13.64Z" fill="#000080"/>
<path d="M14.6361 14.49C14.7384 14.49 14.8213 14.4005 14.8213 14.29C14.8213 14.1795 14.7384 14.09 14.6361 14.09C14.5338 14.09 14.4509 14.1795 14.4509 14.29C14.4509 14.4005 14.5338 14.49 14.6361 14.49Z" fill="#000080"/>
<path d="M15.0426 15.252C15.1449 15.252 15.2278 15.1624 15.2278 15.052C15.2278 14.9415 15.1449 14.852 15.0426 14.852C14.9403 14.852 14.8574 14.9415 14.8574 15.052C14.8574 15.1624 14.9403 15.252 15.0426 15.252Z" fill="#000080"/>
<path d="M15.6185 15.874C15.7208 15.874 15.8037 15.7845 15.8037 15.674C15.8037 15.5635 15.7208 15.474 15.6185 15.474C15.5163 15.474 15.4333 15.5635 15.4333 15.674C15.4333 15.7845 15.5163 15.874 15.6185 15.874Z" fill="#000080"/>
<path d="M16.3241 16.313C16.4264 16.313 16.5093 16.2235 16.5093 16.113C16.5093 16.0025 16.4264 15.913 16.3241 15.913C16.2218 15.913 16.1389 16.0025 16.1389 16.113C16.1389 16.2235 16.2218 16.313 16.3241 16.313Z" fill="#000080"/>
<path d="M17.1111 16.541C17.2134 16.541 17.2963 16.4514 17.2963 16.341C17.2963 16.2305 17.2134 16.141 17.1111 16.141C17.0088 16.141 16.9259 16.2305 16.9259 16.341C16.9259 16.4514 17.0088 16.541 17.1111 16.541Z" fill="#000080"/>
<path d="M17.9259 16.541C18.0282 16.541 18.1111 16.4514 18.1111 16.341C18.1111 16.2305 18.0282 16.141 17.9259 16.141C17.8236 16.141 17.7407 16.2305 17.7407 16.341C17.7407 16.4514 17.8236 16.541 17.9259 16.541Z" fill="#000080"/>
<path d="M18.7129 16.313C18.8152 16.313 18.8981 16.2235 18.8981 16.113C18.8981 16.0025 18.8152 15.913 18.7129 15.913C18.6106 15.913 18.5277 16.0025 18.5277 16.113C18.5277 16.2235 18.6106 16.313 18.7129 16.313Z" fill="#000080"/>
<path d="M19.4185 15.874C19.5207 15.874 19.6036 15.7845 19.6036 15.674C19.6036 15.5635 19.5207 15.474 19.4185 15.474C19.3162 15.474 19.2333 15.5635 19.2333 15.674C19.2333 15.7845 19.3162 15.874 19.4185 15.874Z" fill="#000080"/>
<path d="M19.9944 15.252C20.0967 15.252 20.1796 15.1624 20.1796 15.052C20.1796 14.9415 20.0967 14.852 19.9944 14.852C19.8921 14.852 19.8092 14.9415 19.8092 15.052C19.8092 15.1624 19.8921 15.252 19.9944 15.252Z" fill="#000080"/>
<path d="M20.4009 14.49C20.5032 14.49 20.5861 14.4005 20.5861 14.29C20.5861 14.1795 20.5032 14.09 20.4009 14.09C20.2986 14.09 20.2157 14.1795 20.2157 14.29C20.2157 14.4005 20.2986 14.49 20.4009 14.49Z" fill="#000080"/>
<path d="M20.6121 13.64C20.7143 13.64 20.7972 13.5504 20.7972 13.44C20.7972 13.3295 20.7143 13.24 20.6121 13.24C20.5098 13.24 20.4269 13.3295 20.4269 13.44C20.4269 13.5504 20.5098 13.64 20.6121 13.64Z" fill="#000080"/>
<path d="M20.6121 12.76C20.7143 12.76 20.7972 12.6704 20.7972 12.56C20.7972 12.4495 20.7143 12.36 20.6121 12.36C20.5098 12.36 20.4269 12.4495 20.4269 12.56C20.4269 12.6704 20.5098 12.76 20.6121 12.76Z" fill="#000080"/>
<path d="M20.4009 11.91C20.5032 11.91 20.5861 11.8204 20.5861 11.71C20.5861 11.5995 20.5032 11.51 20.4009 11.51C20.2986 11.51 20.2157 11.5995 20.2157 11.71C20.2157 11.8204 20.2986 11.91 20.4009 11.91Z" fill="#000080"/>
<path d="M19.9944 11.148C20.0967 11.148 20.1796 11.0584 20.1796 10.948C20.1796 10.8375 20.0967 10.748 19.9944 10.748C19.8921 10.748 19.8092 10.8375 19.8092 10.948C19.8092 11.0584 19.8921 11.148 19.9944 11.148Z" fill="#000080"/>
<path d="M19.4185 10.526C19.5207 10.526 19.6036 10.4364 19.6036 10.326C19.6036 10.2155 19.5207 10.126 19.4185 10.126C19.3162 10.126 19.2333 10.2155 19.2333 10.326C19.2333 10.4364 19.3162 10.526 19.4185 10.526Z" fill="#000080"/>
<path d="M18.7129 10.087C18.8152 10.087 18.8981 9.99744 18.8981 9.88698C18.8981 9.77652 18.8152 9.68698 18.7129 9.68698C18.6106 9.68698 18.5277 9.77652 18.5277 9.88698C18.5277 9.99744 18.6106 10.087 18.7129 10.087Z" fill="#000080"/>
<path d="M17.9259 9.85898C18.0282 9.85898 18.1111 9.76944 18.1111 9.65899C18.1111 9.54853 18.0282 9.45898 17.9259 9.45898C17.8236 9.45898 17.7407 9.54853 17.7407 9.65899C17.7407 9.76944 17.8236 9.85898 17.9259 9.85898Z" fill="#000080"/>
<path d="M17.5185 13.9C17.9788 13.9 18.3518 13.497 18.3518 13C18.3518 12.5029 17.9788 12.1 17.5185 12.1C17.0583 12.1 16.6852 12.5029 16.6852 13C16.6852 13.497 17.0583 13.9 17.5185 13.9Z" fill="#000080"/>
</svg>
