<svg width="266" height="131" viewBox="0 0 266 131" fill="none" xmlns="http://www.w3.org/2000/svg">
<path d="M52.8312 52.8311C34.7153 63.893 31.0914 90.9763 20.0295 72.8604C8.96757 54.7445 14.6859 31.0913 32.8018 20.0294C50.9177 8.96745 74.571 14.6858 85.6329 32.8017C96.6948 50.9176 70.9471 41.7691 52.8312 52.8311Z" fill="white" fill-opacity="0.21"/>
<path d="M76.6946 60.5022H71.5055C71.5055 52.0674 63.6059 45.1981 53.8763 45.1981C44.1466 45.1981 36.247 52.0674 36.247 60.5022H31.0579C31.0579 49.2636 41.2972 40.1045 53.8763 40.1045C66.4553 40.1045 76.6946 49.1935 76.6946 60.5022Z" fill="white"/>
<path d="M33.6756 70.3392C32.5275 70.307 31.4142 69.9339 30.4753 69.2666C29.5364 68.5994 28.8135 67.6676 28.3971 66.5879C27.9807 65.5082 27.8894 64.3287 28.1345 63.1969C28.3796 62.0651 28.9503 61.0314 29.7751 60.2252C30.5999 59.419 31.6422 58.8761 32.7715 58.6645C33.9007 58.4529 35.0668 58.582 36.1237 59.0356C37.1806 59.4892 38.0813 60.2472 38.7131 61.2147C39.3449 62.1821 39.6797 63.3161 39.6756 64.4745C39.6635 65.257 39.4987 66.0294 39.1906 66.7476C38.8826 67.4658 38.4372 68.1158 37.8801 68.6604C37.3229 69.205 36.6648 69.6335 35.9434 69.9216C35.222 70.2096 34.4514 70.3515 33.6756 70.3392ZM33.6756 62.4184C33.1349 62.4184 32.6164 62.635 32.2341 63.0206C31.8518 63.4062 31.637 63.9292 31.637 64.4745C31.637 65.0198 31.8518 65.5428 32.2341 65.9284C32.6164 66.314 33.1349 66.5307 33.6756 66.5307C34.2163 66.5307 34.7348 66.314 35.1171 65.9284C35.4994 65.5428 35.7142 65.0198 35.7142 64.4745C35.7142 63.9292 35.4994 63.4062 35.1171 63.0206C34.7348 62.635 34.2163 62.4184 33.6756 62.4184Z" fill="white"/>
<path d="M74.1 70.3371C72.9475 70.3233 71.8248 69.9656 70.8735 69.3092C69.9222 68.6529 69.1848 67.7271 68.7543 66.6488C68.3238 65.5704 68.2194 64.3876 68.4543 63.2494C68.6893 62.1113 69.253 61.0688 70.0744 60.2533C70.8958 59.4378 71.9383 58.8858 73.0702 58.6669C74.2022 58.4479 75.3731 58.5719 76.4354 59.0231C77.4977 59.4743 78.4037 60.2326 79.0394 61.2024C79.675 62.1721 80.0118 63.31 80.0073 64.4725C79.9771 66.0345 79.3421 67.5226 78.2382 68.6185C77.1343 69.7145 75.649 70.3313 74.1 70.3371ZM74.1 62.4163C73.699 62.4255 73.3095 62.5539 72.9804 62.7854C72.6513 63.0168 72.3972 63.341 72.25 63.7175C72.1028 64.0939 72.0689 64.5058 72.1528 64.9015C72.2366 65.2972 72.4343 65.6592 72.7212 65.9421C73.008 66.225 73.3713 66.4162 73.7654 66.4918C74.1595 66.5675 74.567 66.5241 74.9368 66.3672C75.3067 66.2103 75.6223 65.9468 75.8444 65.6098C76.0664 65.2728 76.1849 64.8771 76.185 64.4725C76.1819 64.1994 76.1256 63.9296 76.0192 63.6784C75.9128 63.4273 75.7584 63.1998 75.5648 63.0089C75.3712 62.8179 75.1422 62.6673 74.8908 62.5657C74.6395 62.464 74.3708 62.4133 74.1 62.4163Z" fill="white"/>
<path d="M75.9071 89.9653C74.7645 89.9331 73.6567 89.562 72.7221 88.8984C71.7874 88.2347 71.0674 87.308 70.6521 86.2339C70.2368 85.1599 70.1445 83.9862 70.3868 82.8595C70.6292 81.7329 71.1954 80.7033 72.0146 79.8994C72.8339 79.0955 73.8699 78.5529 74.9932 78.3396C76.1165 78.1262 77.2772 78.2515 78.3303 78.6998C79.3834 79.1481 80.2821 79.8995 80.9141 80.8601C81.5461 81.8206 81.8835 82.9478 81.8839 84.1006C81.8595 85.6768 81.2168 87.1789 80.0966 88.2781C78.9764 89.3774 77.4699 89.984 75.9071 89.9653ZM75.9071 82.0445C75.506 82.0537 75.1165 82.1821 74.7874 82.4135C74.4583 82.645 74.2043 82.9692 74.0571 83.3456C73.9098 83.7221 73.876 84.1339 73.9598 84.5297C74.0436 84.9254 74.2414 85.2874 74.5282 85.5703C74.8151 85.8532 75.1783 86.0444 75.5725 86.12C75.9666 86.1956 76.3741 86.1523 76.7439 85.9954C77.1137 85.8385 77.4294 85.575 77.6514 85.238C77.8735 84.9009 77.9919 84.5053 77.992 84.1006C77.989 83.8276 77.9327 83.5577 77.8263 83.3066C77.7199 83.0555 77.5654 82.828 77.3718 82.637C77.1782 82.4461 76.9492 82.2955 76.6979 82.1938C76.4466 82.0922 76.1779 82.0414 75.9071 82.0445Z" fill="white"/>
<path d="M36.5713 76.8796V72.744L43.3589 72.5571L58.3472 72.2533L73.6367 71.9262C78.2699 71.9262 83.9223 72.9309 87.7447 70.0103C93.8373 65.3373 90.9879 56.7856 84.9648 53.6547C84.4575 53.4256 83.9184 53.2759 83.3663 53.2108C83.042 53.2108 80.0768 53.0005 80.0768 53.0005L77.2506 49.3555H78.849C89.459 47.7901 98.6327 59.239 93.8605 69.0523C93.1135 70.6142 92.0388 71.9937 90.7108 73.0951C89.3827 74.1965 87.8332 74.9935 86.1694 75.431C83.194 76.0065 80.1596 76.2106 77.1347 76.0385C73.9842 76.0385 70.8336 76.2488 67.6599 76.2955L50.9341 76.5759L38.4477 76.7861L36.5713 76.8796Z" fill="white"/>
<path d="M71.4824 85.9236H37.9614C33.8147 85.9236 30.3398 83.5871 30.3398 79.6384C30.3525 78.6171 30.5812 77.6103 31.0107 76.6853C31.4402 75.7604 32.0606 74.9386 32.8305 74.275C33.6003 73.6114 34.5017 73.1212 35.4744 72.8373C36.4472 72.5534 37.4689 72.4824 38.4711 72.6288L38.3089 76.8345C37.7838 76.8637 37.2763 77.0355 36.8399 77.3316C36.4036 77.6277 36.0547 78.0372 35.8302 78.5168C35.7775 78.8258 35.7871 79.1424 35.8584 79.4476C35.9296 79.7527 36.061 80.0404 36.2447 80.2933C36.4284 80.5462 36.6608 80.7592 36.9278 80.9196C37.1949 81.0801 37.4913 81.1847 37.7992 81.2272H71.3666L71.4824 85.9236Z" fill="white"/>
<path d="M50.9575 37.3004C54.0373 35.2686 57.5263 33.9526 61.1721 33.4475C64.818 32.9423 68.5296 33.2608 72.0385 34.3798C75.7545 35.5714 79.0468 37.8269 81.5146 40.8718C83.9825 43.9168 85.5193 47.6197 85.938 51.5298C85.938 52.4878 84.8955 51.7167 85.104 52.6747C85.7295 52.5579 90.826 55.8991 90.7796 55.2215C89.853 43.9829 86.3781 37.6977 79.4515 32.8144C70.1852 26.2955 53.9691 28.5853 46.3707 36.249C45.8842 36.7631 45.4209 37.2771 44.9807 37.8145" fill="white"/>
<path d="M40.2336 107.323L29.9319 119.049V124.828H24.4444V119.004L13.7837 107.323H20.73L24.9157 112.169C25.4656 112.798 26.9245 114.417 27.3397 114.923C27.6763 114.428 28.2823 113.709 29.584 112.146L33.5566 107.301L40.2336 107.323Z" fill="white"/>
<path d="M64.0912 116.059C64.0912 122.31 59.8044 125.109 51.3207 125.109C42.837 125.109 38.5391 122.31 38.5391 116.115C38.5391 109.92 42.8034 107.121 51.3207 107.121C59.8381 107.121 64.0912 109.808 64.0912 116.059ZM58.7047 116.059C58.7047 112.293 56.7521 111.562 51.3207 111.562C45.8894 111.562 43.9255 112.259 43.9255 116.059C43.9255 119.859 45.8894 120.556 51.3207 120.556C56.7521 120.556 58.7047 119.825 58.7047 116.059Z" fill="white"/>
<path d="M88.8691 117.183C88.8691 122.429 85.2407 125.071 77.9839 125.109C69.5675 125.109 65.9429 122.467 65.9429 117.239V107.323H71.3294V117.183C71.3294 119.769 72.4515 120.612 77.9839 120.612C82.1248 120.612 83.4377 119.645 83.4377 117.183V107.323H88.8691V117.183Z" fill="white"/>
<path d="M107.464 114.306C111.728 114.306 114.017 115.902 114.017 119.095C114.017 122.738 111.851 124.829 106.521 124.829H90.2493L93.7393 120.332H106.947C108.159 120.332 108.799 119.972 108.799 119.061C108.799 118.151 108.215 117.847 106.947 117.847H97.4425C92.9537 117.847 90.8777 115.835 90.8777 112.833C90.8777 109.528 93.1221 107.392 98.3851 107.392H113.557L110.19 111.889H98.0372C96.8365 111.889 96.1856 112.203 96.1856 113.103C96.1856 114.002 96.7916 114.317 98.0372 114.317L107.464 114.306Z" fill="white"/>
<path d="M135.911 107.323L132.41 111.888H126.159V124.828H120.75V111.888H112.558L116.059 107.391L135.911 107.323Z" fill="white"/>
<path d="M149.546 120.365C149.074 119.735 148.334 118.656 147.761 117.824L144.63 113.192L136.427 124.817H130.02L141.241 108.987C141.618 108.394 142.136 107.904 142.749 107.562C143.363 107.22 144.052 107.038 144.754 107.031C145.446 107.038 146.126 107.222 146.727 107.567C147.328 107.911 147.831 108.404 148.188 108.999L159.073 124.828H152.755L149.546 120.365Z" fill="white"/>
<path d="M182.829 119.757C182.829 122.658 181.247 124.861 175.726 124.861H160.374V114.136H175.816C176.601 114.136 177.331 113.844 177.331 112.922C177.331 112 176.579 111.798 175.816 111.798H165.783V114.676H160.33V107.323H175.591C179.766 107.323 182.448 108.942 182.448 112.169C182.492 112.957 182.28 113.739 181.843 114.396C181.406 115.052 180.767 115.549 180.024 115.811C180.872 116.047 181.614 116.567 182.125 117.286C182.636 118.004 182.885 118.877 182.829 119.757ZM165.806 117.981V120.398H175.816C177.016 120.398 177.477 119.993 177.477 119.184C177.477 118.375 176.938 117.947 175.816 117.947L165.806 117.981Z" fill="white"/>
<path d="M203.87 120.364L200.369 124.861H184.905V107.323H190.314V120.364H203.87Z" fill="white"/>
<path d="M225.271 120.364L221.803 124.861H204.993V107.323H225.192L221.724 111.888H210.413V113.99H224.249L221.141 117.959H210.413V120.376L225.271 120.364Z" fill="white"/>
</svg>
