<svg width="70" height="70" viewBox="0 0 70 70" fill="none" xmlns="http://www.w3.org/2000/svg">
<path d="M57.663 1.1521H12.337C6.15967 1.1521 1.15198 6.15979 1.15198 12.3371V57.6631C1.15198 63.8404 6.15967 68.8481 12.337 68.8481H57.663C63.8403 68.8481 68.848 63.8404 68.848 57.6631V12.3371C68.848 6.15979 63.8403 1.1521 57.663 1.1521Z" fill="white"/>
<path d="M33.3877 14.6201H9.88051C9.59761 14.6201 9.36829 14.8494 9.36829 15.1323V30.9746C9.36829 31.2574 9.59761 31.4868 9.88051 31.4868H33.3877C33.6706 31.4868 33.8999 31.2574 33.8999 30.9746V15.1323C33.8999 14.8494 33.6706 14.6201 33.3877 14.6201Z" fill="#6B46F2"/>
<path d="M33.0584 16.9617H10.283V30.5721H33.0584V16.9617Z" fill="white"/>
<path d="M17.198 18.6262H12.8807C12.4159 18.6262 12.0392 19.003 12.0392 19.4677V22.2301C12.0392 22.6948 12.4159 23.0716 12.8807 23.0716H17.198C17.6627 23.0716 18.0395 22.6948 18.0395 22.2301V19.4677C18.0395 19.003 17.6627 18.6262 17.198 18.6262Z" fill="#6B46F2"/>
<path d="M23.8202 18.6262H19.5944C19.1499 18.6262 18.7895 18.9866 18.7895 19.4311V22.2666C18.7895 22.7112 19.1499 23.0716 19.5944 23.0716H23.8202C24.2648 23.0716 24.6251 22.7112 24.6251 22.2666V19.4311C24.6251 18.9866 24.2648 18.6262 23.8202 18.6262Z" fill="#6B46F2"/>
<path d="M30.4242 18.6262H26.1983C25.7538 18.6262 25.3934 18.9866 25.3934 19.4311V22.2666C25.3934 22.7112 25.7538 23.0716 26.1983 23.0716H30.4242C30.8687 23.0716 31.2291 22.7112 31.2291 22.2666V19.4311C31.2291 18.9866 30.8687 18.6262 30.4242 18.6262Z" fill="#6B46F2"/>
<path d="M30.662 24.8647H17.1614C16.8583 24.8647 16.6125 25.1105 16.6125 25.4136V25.5599C16.6125 25.863 16.8583 26.1087 17.1614 26.1087H30.662C30.9651 26.1087 31.2108 25.863 31.2108 25.5599V25.4136C31.2108 25.1105 30.9651 24.8647 30.662 24.8647Z" fill="#6B46F2"/>
<path d="M15.1857 24.8647H12.4782C12.2358 24.8647 12.0392 25.0613 12.0392 25.3038V25.6697C12.0392 25.9121 12.2358 26.1087 12.4782 26.1087H15.1857C15.4282 26.1087 15.6247 25.9121 15.6247 25.6697V25.3038C15.6247 25.0613 15.4282 24.8647 15.1857 24.8647Z" fill="#6B46F2"/>
<path d="M30.662 26.6758H17.1614C16.8583 26.6758 16.6125 26.9215 16.6125 27.2246V27.3709C16.6125 27.674 16.8583 27.9197 17.1614 27.9197H30.662C30.9651 27.9197 31.2108 27.674 31.2108 27.3709V27.2246C31.2108 26.9215 30.9651 26.6758 30.662 26.6758Z" fill="#6B46F2"/>
<path d="M15.1857 26.6758H12.4782C12.2358 26.6758 12.0392 26.8723 12.0392 27.1148V27.4807C12.0392 27.7232 12.2358 27.9197 12.4782 27.9197H15.1857C15.4282 27.9197 15.6247 27.7232 15.6247 27.4807V27.1148C15.6247 26.8723 15.4282 26.6758 15.1857 26.6758Z" fill="#6B46F2"/>
<path d="M10.8684 16.3214C11.1108 16.3214 11.3074 16.1249 11.3074 15.8824C11.3074 15.6399 11.1108 15.4434 10.8684 15.4434C10.6259 15.4434 10.4293 15.6399 10.4293 15.8824C10.4293 16.1249 10.6259 16.3214 10.8684 16.3214Z" fill="white"/>
<path d="M12.0391 16.3214C12.2816 16.3214 12.4781 16.1249 12.4781 15.8824C12.4781 15.6399 12.2816 15.4434 12.0391 15.4434C11.7966 15.4434 11.6 15.6399 11.6 15.8824C11.6 16.1249 11.7966 16.3214 12.0391 16.3214Z" fill="white"/>
<path d="M13.2649 16.3214C13.5073 16.3214 13.7039 16.1249 13.7039 15.8824C13.7039 15.6399 13.5073 15.4434 13.2649 15.4434C13.0224 15.4434 12.8258 15.6399 12.8258 15.8824C12.8258 16.1249 13.0224 16.3214 13.2649 16.3214Z" fill="white"/>
<path d="M60.1695 39.1333H36.6623C36.3794 39.1333 36.1501 39.3626 36.1501 39.6455V55.4877C36.1501 55.7706 36.3794 56 36.6623 56H60.1695C60.4524 56 60.6817 55.7706 60.6817 55.4877V39.6455C60.6817 39.3626 60.4524 39.1333 60.1695 39.1333Z" fill="#6B46F2"/>
<path d="M59.8402 41.4749H37.0648V55.0852H59.8402V41.4749Z" fill="white"/>
<path d="M43.9796 43.1399H39.6624C39.1976 43.1399 38.8209 43.5166 38.8209 43.9814V46.7437C38.8209 47.2085 39.1976 47.5852 39.6624 47.5852H43.9796C44.4444 47.5852 44.8211 47.2085 44.8211 46.7437V43.9814C44.8211 43.5166 44.4444 43.1399 43.9796 43.1399Z" fill="#6B46F2"/>
<path d="M50.5837 43.1399H46.3579C45.9134 43.1399 45.553 43.5003 45.553 43.9448V46.7803C45.553 47.2249 45.9134 47.5852 46.3579 47.5852H50.5837C51.0282 47.5852 51.3886 47.2249 51.3886 46.7803V43.9448C51.3886 43.5003 51.0282 43.1399 50.5837 43.1399Z" fill="#6B46F2"/>
<path d="M57.1876 43.1399H52.9618C52.5173 43.1399 52.1569 43.5003 52.1569 43.9448V46.7803C52.1569 47.2249 52.5173 47.5852 52.9618 47.5852H57.1876C57.6322 47.5852 57.9926 47.2249 57.9926 46.7803V43.9448C57.9926 43.5003 57.6322 43.1399 57.1876 43.1399Z" fill="#6B46F2"/>
<path d="M57.4437 49.3779H43.943C43.6399 49.3779 43.3942 49.6236 43.3942 49.9267V50.0731C43.3942 50.3762 43.6399 50.6219 43.943 50.6219H57.4437C57.7468 50.6219 57.9925 50.3762 57.9925 50.0731V49.9267C57.9925 49.6236 57.7468 49.3779 57.4437 49.3779Z" fill="#6B46F2"/>
<path d="M41.9674 49.3779H39.2599C39.0174 49.3779 38.8209 49.5745 38.8209 49.817V50.1828C38.8209 50.4253 39.0174 50.6219 39.2599 50.6219H41.9674C42.2098 50.6219 42.4064 50.4253 42.4064 50.1828V49.817C42.4064 49.5745 42.2098 49.3779 41.9674 49.3779Z" fill="#6B46F2"/>
<path d="M57.4437 51.189H43.943C43.6399 51.189 43.3942 51.4347 43.3942 51.7378V51.8841C43.3942 52.1872 43.6399 52.4329 43.943 52.4329H57.4437C57.7468 52.4329 57.9925 52.1872 57.9925 51.8841V51.7378C57.9925 51.4347 57.7468 51.189 57.4437 51.189Z" fill="#6B46F2"/>
<path d="M41.9674 51.189H39.2599C39.0174 51.189 38.8209 51.3855 38.8209 51.628V51.9939C38.8209 52.2364 39.0174 52.4329 39.2599 52.4329H41.9674C42.2098 52.4329 42.4064 52.2364 42.4064 51.9939V51.628C42.4064 51.3855 42.2098 51.189 41.9674 51.189Z" fill="#6B46F2"/>
<path d="M37.6319 40.8349C37.8743 40.8349 38.0709 40.6383 38.0709 40.3958C38.0709 40.1534 37.8743 39.9568 37.6319 39.9568C37.3894 39.9568 37.1928 40.1534 37.1928 40.3958C37.1928 40.6383 37.3894 40.8349 37.6319 40.8349Z" fill="white"/>
<path d="M38.8209 40.8349C39.0634 40.8349 39.2599 40.6383 39.2599 40.3958C39.2599 40.1534 39.0634 39.9568 38.8209 39.9568C38.5784 39.9568 38.3818 40.1534 38.3818 40.3958C38.3818 40.6383 38.5784 40.8349 38.8209 40.8349Z" fill="white"/>
<path d="M40.0466 40.8349C40.2891 40.8349 40.4856 40.6383 40.4856 40.3958C40.4856 40.1534 40.2891 39.9568 40.0466 39.9568C39.8041 39.9568 39.6075 40.1534 39.6075 40.3958C39.6075 40.6383 39.8041 40.8349 40.0466 40.8349Z" fill="white"/>
<path d="M48.7909 28.084C48.5531 28.706 48.3335 29.3097 48.0774 29.9682L47.3274 31.9805L46.8335 33.2611C46.7237 33.5538 46.4127 33.7184 46.1017 33.6087C46.0103 33.5721 45.9371 33.5172 45.8639 33.4623L45.0041 32.4928L42.7357 29.95C42.5711 29.7487 42.4064 29.5658 42.2235 29.3829C42.0954 29.2182 42.1137 28.9804 42.2784 28.834C42.315 28.8158 42.3333 28.7975 42.3515 28.7792L42.5162 28.7243L43.5772 28.5413H43.7419V28.1755L43.6687 27.4071L43.5955 27.0047C43.5589 26.7669 43.4857 26.5291 43.4126 26.2912C43.3028 25.9254 43.1748 25.5778 43.0467 25.2119C42.9369 24.9558 42.8089 24.718 42.6808 24.4802C42.2967 23.7301 41.821 23.0167 41.2539 22.3764C41.0161 22.102 40.76 21.8276 40.5222 21.5715C40.4307 21.48 40.4307 21.352 40.5039 21.2605C40.5588 21.169 40.6502 21.1325 40.7417 21.169C40.7417 21.169 40.76 21.169 40.7783 21.1873L41.8576 21.7179L42.2601 21.9923C42.9369 22.413 43.5589 22.9252 44.1443 23.474C45.0407 24.3155 45.7907 25.3034 46.3761 26.3827C46.5956 26.7852 46.7786 27.2242 46.9249 27.6633C46.9615 27.7364 46.9981 27.8096 47.0164 27.9011H47.181L48.2055 27.6998C48.4067 27.6267 48.6079 27.6998 48.736 27.8828L48.7909 28.084Z" fill="#6B46F2"/>
<path d="M22.375 43.1761L22.2286 43.2309L21.1859 43.6517C21.0761 43.6883 20.9481 43.6883 20.8383 43.6334C20.692 43.5602 20.6005 43.3956 20.6371 43.2492L20.7652 42.4443C20.9298 41.3833 21.0944 40.3223 21.2591 39.2612L21.4786 37.8526C21.5335 37.5417 21.8079 37.3221 22.1189 37.3587C22.1555 37.3587 22.1738 37.3587 22.2103 37.377L22.3933 37.4868C22.9238 37.8709 23.4543 38.2368 23.9665 38.6393L26.6923 40.6516L26.7837 40.7247C26.9484 40.8711 26.9667 41.1089 26.8203 41.2735C26.7837 41.3101 26.7471 41.3467 26.7106 41.365L26.5093 41.4382L25.5946 41.8223L25.4483 41.8772C25.4666 41.987 25.4849 42.0967 25.5215 42.2065C25.5946 42.4809 25.6861 42.7736 25.7959 43.0297C25.869 43.2127 25.9422 43.3773 26.0154 43.5602C26.2532 44.1456 26.5825 44.6944 26.9667 45.1884C27.5155 45.9384 28.1557 46.6153 28.8875 47.1824C29.2351 47.475 29.6375 47.7312 30.0217 48.0056C30.0949 48.0604 30.1314 48.1336 30.1497 48.2068C30.1497 48.3348 30.0583 48.4446 29.9485 48.4446H29.857C29.5643 48.3897 29.2716 48.3166 28.9972 48.2251C28.7228 48.1336 28.4484 48.0421 28.1923 47.9324C27.4972 47.658 26.8386 47.3287 26.2166 46.9262C25.6129 46.5787 25.0641 46.1579 24.5336 45.7006C23.8568 45.1152 23.2714 44.4566 22.7591 43.7066C22.6494 43.5236 22.5213 43.3407 22.375 43.1395V43.1761Z" fill="#6B46F2"/>
</svg>
