<svg width="70" height="70" viewBox="0 0 70 70" fill="none" xmlns="http://www.w3.org/2000/svg">
<path d="M57.663 1.15198H12.337C6.15967 1.15198 1.15198 6.15967 1.15198 12.337V57.663C1.15198 63.8403 6.15967 68.848 12.337 68.848H57.663C63.8403 68.848 68.848 63.8403 68.848 57.663V12.337C68.848 6.15967 63.8403 1.15198 57.663 1.15198Z" fill="white"/>
<path d="M33.9535 13.5501C48.4914 12.7798 59.6694 26.0557 56.4406 40.2822C56.2931 40.905 55.5391 43.6586 54.9491 43.7733C53.2937 44.0847 54.5721 41.7082 54.7196 41.1017C55.1458 39.4299 55.4736 37.7254 55.4899 35.988C48.9831 35.988 42.4927 36.0208 35.9859 36.0372V55.4921C37.084 55.3938 38.1821 55.2791 39.2802 55.1807C41.4437 54.771 43.7219 53.3287 43.935 54.5087C44.2136 56.0166 37.7396 56.9345 36.5595 57C20.9398 57.7867 9.43407 42.4129 14.9083 27.6292C17.8094 19.8111 25.5946 13.9927 33.9535 13.5501ZM34.1338 15.0908C33.5765 15.1236 32.0031 15.9923 31.5114 16.3528C29.1021 18.1393 27.0533 22.3188 26.3485 25.2198C28.889 26.4491 31.6917 27.2194 34.5435 27.2522V15.14C34.4124 15.14 34.2649 15.1072 34.1338 15.0908ZM36.035 15.0908C36.035 19.1391 36.0022 23.2039 35.9859 27.2522L39.6572 26.8424C40.28 26.7113 44.1809 25.4985 44.23 25.0723C42.9188 21.1551 40.5751 15.812 36.035 15.0744V15.0908ZM29.7904 15.73L26.8075 16.8118C24.9554 17.664 22.0871 19.5981 20.7923 21.2043C22.038 22.4991 23.4639 23.5808 25.0046 24.4987C26.0371 21.2698 27.4958 18.0738 30.0199 15.7628C29.938 15.7628 29.8724 15.73 29.7904 15.7136V15.73ZM40.5587 15.73C43.0008 18.1393 44.5414 21.2534 45.5412 24.4987C47.0655 23.5808 48.5078 22.4827 49.7535 21.2043C47.3441 18.5327 44.0497 16.6479 40.5751 15.73H40.5587ZM19.7598 22.2368C16.8915 25.6624 15.1378 30.0385 15.0558 34.5457C17.8749 34.5457 20.694 34.5129 23.5131 34.4966C23.5786 31.6283 23.9064 28.7765 24.5948 25.9902C22.8739 24.892 21.1857 23.7119 19.7598 22.2368ZM50.786 22.2368C49.3437 23.7119 47.6883 24.892 45.951 25.9902C46.6394 28.7765 46.9672 31.6283 47.0327 34.4966C49.8518 34.4966 52.6709 34.5293 55.4899 34.5457C55.3916 30.0385 53.6379 25.6624 50.786 22.2368ZM26.0044 26.6785C25.6274 26.7933 24.7915 33.6934 25.0046 34.5457C28.1842 34.5457 31.3639 34.5129 34.5435 34.4966C34.5435 32.5789 34.5108 30.6613 34.4944 28.7437C31.5442 28.5962 28.6595 27.9078 25.988 26.6621L26.0044 26.6785ZM44.4595 26.6785C41.8535 27.9733 38.9524 28.5962 36.0514 28.7601C36.0514 30.6777 36.0186 32.5953 36.0023 34.5129C39.1819 34.5129 42.3616 34.5457 45.5412 34.5621C45.6068 31.9561 45.1643 29.3665 44.6889 26.826C44.607 26.7769 44.5414 26.7277 44.4595 26.6949V26.6785ZM15.0558 35.988C15.1378 40.4953 16.8915 44.8714 19.7598 48.2969C21.2021 46.8218 22.8575 45.6254 24.5948 44.5436C23.9064 41.7573 23.5786 38.9055 23.5131 36.0372C20.694 36.0372 17.8749 36.0044 15.0558 35.988ZM25.0046 35.988C24.7915 36.8731 25.611 43.7569 26.0044 43.8552C28.6923 42.5768 31.5933 41.9704 34.5599 41.7245C34.5599 39.8069 34.5271 37.8893 34.5108 35.9717H25.0046V35.988ZM34.0518 43.2324C32.2981 43.2324 27.8236 44.3306 26.3158 45.4451C27.627 49.3623 29.9707 54.7054 34.5108 55.443C34.5108 51.3946 34.5435 47.3299 34.5599 43.2816C34.396 43.2816 34.2321 43.2488 34.0682 43.2324H34.0518ZM25.0046 46.0351C24.3817 46.2974 20.7432 49.0181 20.7923 49.4278C23.3164 51.9847 26.4797 53.9187 29.9707 54.8038C27.5286 52.3944 25.988 49.2803 24.9882 46.0351H25.0046Z" fill="#6B46F2"/>
<path d="M40.1982 38.8891C43.7548 39.7413 47.3114 40.5772 50.8681 41.4295C53.6216 42.4457 52.1956 44.1503 50.278 45.1828C52.4743 47.1496 54.6869 49.1 56.8832 51.0668C56.916 51.2471 56.9487 51.4274 56.9815 51.6077C56.9324 51.9847 52.0645 56.9017 51.6876 56.9836C51.4745 56.9508 51.2614 56.9181 51.0483 56.8853C49.0815 54.689 47.1311 52.4764 45.1643 50.2801C44.6399 51.3946 42.9025 53.4762 41.7716 51.7716C41.3127 51.0832 39.4606 42.1998 38.8706 40.4625C38.8214 39.7741 39.4934 38.9382 40.1818 38.8727L40.1982 38.8891ZM40.4768 40.4297C41.3127 43.888 42.1322 47.3299 42.9681 50.7882C43.7056 50.3621 44.3448 48.2805 45.2791 48.3953C45.7708 48.4608 50.6058 54.4268 51.5237 55.1807C52.7529 53.9351 53.9658 52.6731 55.195 51.4274C52.9988 49.4934 50.7861 47.5594 48.5898 45.6417C47.8359 44.5108 50.2616 43.7405 50.8517 43.0193C47.3934 42.1671 43.9515 41.2984 40.4932 40.4461L40.4768 40.4297Z" fill="#6B46F2"/>
<path d="M40.4768 40.4298C43.9351 41.2821 47.377 42.1508 50.8353 43.0031C50.2453 43.7242 47.8196 44.4946 48.5735 45.6255C50.7698 47.5595 52.9824 49.4935 55.1787 51.4111C53.9494 52.6568 52.7366 53.9188 51.5073 55.1644C50.5895 54.4105 45.7544 48.4445 45.2627 48.379C44.3449 48.2643 43.6893 50.3458 42.9517 50.7719C42.1158 47.3136 41.2963 43.8717 40.4604 40.4135L40.4768 40.4298Z" fill="#6B46F2"/>
</svg>
