<svg width="35" height="35" viewBox="0 0 35 35" fill="none" xmlns="http://www.w3.org/2000/svg">
<g clip-path="url(#clip0_347_24)">
<mask id="mask0_347_24" style="mask-type:luminance" maskUnits="userSpaceOnUse" x="0" y="0" width="35" height="35">
<path d="M35 0H0V35H35V0Z" fill="white"/>
</mask>
<g mask="url(#mask0_347_24)">
<path d="M27.2824 -0.245117H7.92736C3.47181 -0.245117 -0.140137 3.36683 -0.140137 7.82238V27.1774C-0.140137 31.6329 3.47181 35.2449 7.92736 35.2449H27.2824C31.7379 35.2449 35.3499 31.6329 35.3499 27.1774V7.82238C35.3499 3.36683 31.7379 -0.245117 27.2824 -0.245117Z" fill="#F2EFFF"/>
</g>
<path d="M17.1734 4.82129H17.6325C19.0437 5.34835 27.3577 7.71163 27.8167 8.01767C28.7008 8.61274 28.2248 10.2789 28.3438 11.2311H27.5277C27.4597 10.755 27.6637 8.95278 27.4087 8.73175C24.1103 7.69463 20.8289 6.67451 17.5305 5.63739H17.2755C14.0451 6.64051 10.8317 7.62662 7.60131 8.62974C7.4993 8.71475 7.38028 8.81676 7.27827 8.90177V12.0471C7.5503 12.0471 7.82233 12.0812 8.09437 12.0982V12.9143C7.61831 13.0843 5.79909 12.6762 5.66308 13.2203C5.57807 13.5603 5.57807 19.9701 5.66308 20.3101C5.76509 20.4121 5.8841 20.5312 5.98612 20.6332C13.637 20.6332 21.2709 20.5992 28.9218 20.5822C28.9899 20.4972 29.0749 20.3951 29.1429 20.3101V13.2203C29.0749 13.1353 28.9899 13.0333 28.9218 12.9483C22.2401 12.9483 15.5753 12.9483 8.89346 12.9313C8.97847 12.3872 8.70644 10.1769 9.06348 9.9219C11.7838 9.0718 14.5041 8.2387 17.2075 7.38859C17.3945 7.38859 17.5815 7.4226 17.7685 7.4396C20.3868 8.2557 23.0051 9.05479 25.6235 9.87089C26.1845 10.1769 25.7595 11.5201 25.9295 12.0982C26.9666 12.2512 29.5169 11.6051 29.908 12.9313C30.01 13.2883 30.027 20.1061 29.959 20.4802C29.7039 21.9423 27.3577 21.3473 26.3375 21.4663C25.5894 22.9114 24.6713 24.2716 23.5832 25.4957C24.7563 25.4957 25.9295 25.4957 27.1026 25.5128V26.3288H22.8011C22.189 26.8559 21.577 27.4 20.9479 27.927C23.0051 27.927 25.0454 27.927 27.1026 27.944V28.7601H19.7067C19.2817 29.0492 17.6665 30.0353 17.2755 29.9673C16.5444 29.5592 15.8303 29.1512 15.0992 28.7601C12.6339 28.7601 10.1516 28.7601 7.68632 28.7431C7.68632 28.4881 7.68632 28.2161 7.70332 27.961C9.76056 27.961 11.8008 27.961 13.8581 27.944C13.246 27.417 12.6339 26.8729 12.0048 26.3459C10.5597 26.3459 9.11449 26.3459 7.66932 26.3288C7.66932 26.0738 7.66932 25.8018 7.68632 25.5468C8.85946 25.5468 10.0326 25.5468 11.2057 25.5298C10.8317 25.2067 9.04648 22.7924 9.02948 22.5884C9.01248 22.4184 9.65855 22.0783 9.74356 22.1293C11.4948 25.1897 14.2321 27.655 17.4115 29.1342C20.7949 27.519 23.5832 24.8327 25.3854 21.5683C25.3854 21.5513 25.3854 21.5173 25.3684 21.5003H23.5492C22.3931 23.3705 20.7609 25.1727 18.9417 26.4139C18.6186 26.6349 17.5985 27.332 17.2755 27.281C16.6804 26.9069 16.1023 26.5329 15.5072 26.1588C13.807 24.9177 12.3789 23.2855 11.2567 21.5003H5.93511C5.52706 21.4493 5.017 21.0752 4.89799 20.6672C4.79597 20.3101 4.79597 13.5433 4.84698 13.1693C4.96599 12.3702 5.74809 12.1152 6.46217 12.0982C6.64919 10.823 5.8841 8.42572 7.29527 7.91566C10.5937 6.89554 13.8751 5.89242 17.1734 4.8723V4.82129ZM17.2585 8.22169C14.7422 9.00379 12.2259 9.76888 9.70956 10.551V12.0642C14.8272 12.0642 19.9618 12.0642 25.0794 12.0471C25.0794 11.5541 25.0794 11.044 25.0624 10.551C22.5461 9.76888 20.0298 9.00379 17.5135 8.22169H17.2585ZM12.2599 21.4323C13.535 23.4385 15.3372 25.0877 17.3775 26.2948C19.4857 25.1557 21.2199 23.4215 22.5631 21.4663C19.1287 21.4663 15.6943 21.4663 12.2599 21.4493V21.4323Z" fill="#6B46F2"/>
<path d="M17.2589 8.22168H17.5139C20.0302 9.00377 22.5465 9.76886 25.0628 10.551C25.0628 11.044 25.0628 11.5541 25.0798 12.0471C19.9622 12.0471 14.8276 12.0471 9.70996 12.0641V10.551C12.2263 9.76886 14.7426 9.00377 17.2589 8.22168ZM15.3886 10.4489C15.3886 10.721 15.3886 11.01 15.3716 11.282C15.6267 11.282 15.8987 11.282 16.1537 11.299C16.1537 11.027 16.1537 10.738 16.1707 10.4659C15.9157 10.4659 15.6437 10.4659 15.3886 10.4489ZM17.0208 10.4489C17.0208 10.721 17.0208 11.01 17.0038 11.282C17.2589 11.282 17.5309 11.282 17.7859 11.299C17.7859 11.027 17.7859 10.738 17.8029 10.4659C17.5479 10.4659 17.2759 10.4659 17.0208 10.4489ZM18.636 10.4489C18.636 10.721 18.636 11.01 18.619 11.282C18.8741 11.282 19.1461 11.282 19.4011 11.299C19.4011 11.027 19.4011 10.738 19.4181 10.4659C19.1631 10.4659 18.8911 10.4659 18.636 10.4489Z" fill="#6B46F2"/>
<path d="M12.5998 14.4442C13.3479 14.4272 14.606 14.9713 14.147 15.5834C13.7389 16.1444 12.8888 14.9713 12.1407 15.4644C11.9707 15.5834 11.9197 15.8214 12.0217 15.9914C12.2767 16.4675 14.691 16.0934 14.3 17.9637C13.9259 19.7489 10.4065 19.0008 11.0526 17.8617C11.3416 17.3516 11.9877 18.0827 12.3958 18.1337C13.2629 18.2527 13.6879 17.6576 13.1609 17.3176C12.7868 17.0796 10.7806 17.2326 11.0526 15.5154C11.1546 14.8523 11.9877 14.4442 12.5998 14.4272V14.4442Z" fill="#6B46F2"/>
<path d="M17.4625 14.4448C17.9725 14.4448 19.3667 14.8019 19.0096 15.533C18.6866 16.213 17.9895 15.0909 17.1054 15.4139C16.7654 15.533 16.7144 15.924 17.0034 16.128C17.4455 16.4341 19.4177 16.213 19.1627 17.9302C18.8906 19.7495 15.3372 19.0524 15.8643 17.9302C16.1533 17.3182 16.8334 18.1003 17.2074 18.1513C17.5645 18.2023 18.4656 18.0493 18.1936 17.5222C17.9385 17.0291 16.2043 17.3692 15.9153 16.213C15.6602 15.1929 16.4933 14.4788 17.4625 14.4618V14.4448Z" fill="#6B46F2"/>
<path d="M21.1689 14.5467C21.3899 14.4787 21.798 14.6147 21.849 14.8698V18.0661C21.968 18.2362 24.1952 17.6921 23.7702 18.7292L23.5492 18.9502C23.4132 19.0182 21.1349 19.1373 20.9479 18.7802C20.8629 18.6102 20.8458 15.0738 20.8969 14.8868C20.9819 14.7847 21.0839 14.6657 21.1689 14.5637V14.5467Z" fill="#6B46F2"/>
<path d="M12.2603 21.432C15.6947 21.432 19.1291 21.432 22.5635 21.449C21.2203 23.4043 19.4861 25.1555 17.3779 26.2776C15.3376 25.0705 13.5354 23.4213 12.2603 21.415V21.432Z" fill="#6B46F2"/>
</g>
<defs>
<clipPath id="clip0_347_24">
<rect width="35" height="35" fill="white"/>
</clipPath>
</defs>
</svg>
