<svg width="35" height="35" viewBox="0 0 35 35" fill="none" xmlns="http://www.w3.org/2000/svg">
<g clip-path="url(#clip0_347_24)">
<mask id="mask0_347_24" style="mask-type:luminance" maskUnits="userSpaceOnUse" x="0" y="0" width="35" height="35">
<path d="M35 0H0V35H35V0Z" fill="white"/>
</mask>
<g mask="url(#mask0_347_24)">
<path d="M27.2824 -0.245117H7.92736C3.47181 -0.245117 -0.140137 3.36683 -0.140137 7.82238V27.1774C-0.140137 31.6329 3.47181 35.2449 7.92736 35.2449H27.2824C31.7379 35.2449 35.3499 31.6329 35.3499 27.1774V7.82238C35.3499 3.36683 31.7379 -0.245117 27.2824 -0.245117Z" fill="#F2EFFF"/>
</g>
<path fill-rule="evenodd" clip-rule="evenodd" d="M6.85852 26.4596H10.6799C11.3319 26.4596 11.8323 25.944 11.8323 25.292C11.8323 24.6399 11.3168 24.1243 10.6799 24.1243H4.43226C3.7802 24.1243 3.27979 23.6088 3.27979 22.9567C3.27979 22.3046 3.79537 21.7891 4.43226 21.7891H17.3218C17.9738 21.7891 18.4742 22.3046 18.4742 22.9567C18.4742 23.5784 18.0345 24.0637 17.4127 24.1243H16.6242C16.0176 24.1243 15.5021 24.6399 15.5021 25.292C15.5021 25.9137 16.0176 26.4596 16.6242 26.4596H17.4127H17.3066C17.9586 26.4596 18.4591 26.9752 18.4591 27.6272C18.4591 28.249 17.9435 28.7949 17.3066 28.7949H6.85852C6.20646 28.7949 5.70604 28.249 5.70604 27.6272C5.70604 26.9752 6.22162 26.4596 6.85852 26.4596Z" fill="#DED7FF"/>
<path fill-rule="evenodd" clip-rule="evenodd" d="M15.0773 28.7647H16.9122C17.5642 28.7647 18.0646 28.2492 18.0646 27.6274C18.0646 26.9754 17.5491 26.4598 16.9122 26.4598H15.0773C14.4707 26.4598 13.9248 25.9139 13.9248 25.2921C13.9248 24.6401 14.4707 24.1245 15.0773 24.1245H29.8775C30.484 24.1245 30.9996 24.6401 30.9996 25.2921C30.9996 25.9139 30.484 26.4598 29.8775 26.4598H24.9946C24.3426 26.4598 23.8422 26.9754 23.8422 27.6274C23.8422 28.2492 24.3577 28.7647 24.9946 28.7647H25.5709C26.2229 28.7647 26.7233 29.3106 26.7233 29.9324C26.7233 30.5844 26.2078 31.1 25.5709 31.1H15.0621C14.4556 31.1 13.9097 30.5844 13.9097 29.9324C13.9097 29.3106 14.4556 28.7647 15.0621 28.7647H15.0773Z" fill="#DED7FF"/>
<path d="M12.4083 7.94434H9.6333C9.6333 16.0268 9.67879 21.7892 17.4731 27.1269C25.2827 21.774 25.3282 16.0268 25.3282 7.94434H22.1589" fill="#6B46F2"/>
<path d="M17.4886 27.3088C17.4886 27.3088 17.4128 27.3088 17.3825 27.2784C13.7431 24.7915 11.5443 22.0316 10.4676 18.6197C9.4668 15.4352 9.4668 11.9627 9.4668 7.94418C9.4668 7.85319 9.54262 7.76221 9.64877 7.76221H12.4238C12.5148 7.76221 12.6058 7.83803 12.6058 7.94418C12.6058 8.05033 12.5299 8.12615 12.4238 8.12615H9.83074C9.83074 15.966 9.89139 21.6525 17.5038 26.9145C25.1162 21.6525 25.1768 15.966 25.1768 8.12615H22.1895C22.0985 8.12615 22.0075 8.05033 22.0075 7.94418C22.0075 7.83803 22.0833 7.76221 22.1895 7.76221H25.3588C25.4498 7.76221 25.5408 7.83803 25.5408 7.94418C25.5408 11.9627 25.5408 15.4352 24.5399 18.6197C23.4633 22.0316 21.2645 24.7763 17.6251 27.2784C17.5948 27.2936 17.5644 27.3088 17.5189 27.3088H17.4886Z" fill="white"/>
<path d="M10.8008 7.9447V5.85205H24.13V7.9447" fill="#6B46F2"/>
<path d="M24.1304 8.12651C24.0394 8.12651 23.9484 8.05069 23.9484 7.94454V6.0187H10.9679V7.94454C10.9679 8.03552 10.8921 8.12651 10.786 8.12651C10.6798 8.12651 10.604 8.05069 10.604 7.94454V5.85189C10.604 5.76091 10.6798 5.66992 10.786 5.66992H24.1152C24.2062 5.66992 24.2972 5.74574 24.2972 5.85189V7.94454C24.2972 8.03552 24.2214 8.12651 24.1152 8.12651H24.1304Z" fill="white"/>
<path d="M19.9754 12.9947H15.0016C14.5163 12.9947 14.1221 13.3889 14.1221 13.8742V17.0435C14.1221 18.3324 15.1836 19.3787 16.4573 19.3787H18.6106C19.8389 19.3787 20.8398 18.3779 20.8398 17.1345V13.859C20.8398 13.3738 20.4455 12.9795 19.9603 12.9795L19.9754 12.9947Z" fill="#E7E3FD"/>
<path d="M18.6105 19.5454H16.4572C15.0621 19.5454 13.9399 18.4081 13.9399 17.0282V13.8589C13.9399 13.2826 14.41 12.7974 15.0014 12.7974H19.9753C20.5515 12.7974 21.0367 13.2675 21.0367 13.8589V17.1343C21.0367 18.4687 19.9601 19.5454 18.6257 19.5454H18.6105ZM15.0014 13.1765C14.6223 13.1765 14.3039 13.4949 14.3039 13.874V17.0433C14.3039 18.2413 15.2744 19.2118 16.4723 19.2118H18.6257C19.763 19.2118 20.688 18.2868 20.688 17.1495V13.874C20.688 13.4949 20.3695 13.1765 19.9904 13.1765H15.0014Z" fill="#E7E3FD"/>
<path d="M15.29 12.9186H19.7028V11.387C19.7028 10.5379 19.0204 9.85547 18.1712 9.85547H16.8216C15.9724 9.85547 15.29 10.5379 15.29 11.387V12.9186Z" fill="#6B46F2"/>
<path d="M19.6875 13.1004H15.2747C15.1838 13.1004 15.0928 13.0246 15.0928 12.9185V11.3869C15.0928 10.4467 15.8661 9.67334 16.8063 9.67334H18.1559C19.0961 9.67334 19.8695 10.4467 19.8695 11.3869V12.9185C19.8695 13.0094 19.7937 13.1004 19.6875 13.1004ZM15.4567 12.7365H19.5055V11.3717C19.5055 10.6287 18.899 10.0221 18.1559 10.0221H16.8063C16.0633 10.0221 15.4567 10.6287 15.4567 11.3717V12.7365Z" fill="#E7E3FD"/>
<path d="M17.8672 18.0287H17.109C16.9726 18.0287 16.8664 17.9225 16.8664 17.786V16.6942C16.4721 16.4668 16.2144 16.0573 16.2144 15.5872C16.2144 14.8897 16.7754 14.3286 17.473 14.3286C18.1705 14.3286 18.7316 14.8897 18.7316 15.5872C18.7316 16.0573 18.4738 16.4668 18.0795 16.6942V17.786C18.0795 17.9225 17.9734 18.0287 17.8369 18.0287H17.8672ZM17.382 17.1795H17.5791V16.4516C17.5791 16.4516 17.6246 16.3151 17.6853 16.2848C17.9127 16.1938 18.0492 15.9815 18.0492 15.754C18.0492 15.4356 17.7914 15.1778 17.473 15.1778C17.1545 15.1778 16.8967 15.4356 16.8967 15.754C16.8967 15.9967 17.0332 16.209 17.2607 16.2848C17.3213 16.3151 17.3668 16.3758 17.3668 16.4516V17.1795H17.382Z" fill="#5138CC"/>
</g>
<defs>
<clipPath id="clip0_347_24">
<rect width="35" height="35" fill="white"/>
</clipPath>
</defs>
</svg>
