<svg width="35" height="35" viewBox="0 0 35 35" fill="none" xmlns="http://www.w3.org/2000/svg">
<g clip-path="url(#clip0_347_24)">
<mask id="mask0_347_24" style="mask-type:luminance" maskUnits="userSpaceOnUse" x="0" y="0" width="35" height="35">
<path d="M35 0H0V35H35V0Z" fill="white"/>
</mask>
<g mask="url(#mask0_347_24)">
<path d="M27.2824 -0.245117H7.92736C3.47181 -0.245117 -0.140137 3.36683 -0.140137 7.82238V27.1774C-0.140137 31.6329 3.47181 35.2449 7.92736 35.2449H27.2824C31.7379 35.2449 35.3499 31.6329 35.3499 27.1774V7.82238C35.3499 3.36683 31.7379 -0.245117 27.2824 -0.245117Z" fill="#F2EFFF"/>
</g>
<path d="M17.7096 4.95732H18.1861C19.6482 5.51589 28.2733 7.94734 28.7333 8.25948C29.6533 8.86734 29.1604 10.6088 29.2918 11.5945H28.454C28.3883 11.1016 28.6018 9.22878 28.3226 8.99877C24.9054 7.93091 21.5046 6.86304 18.0875 5.79518H17.8246C14.4896 6.83019 11.1381 7.86519 7.80312 8.9002C7.68812 8.99877 7.57312 9.09735 7.45812 9.19592V12.4488C7.73741 12.4652 8.01669 12.4817 8.29598 12.4981V13.3359C7.80312 13.5002 5.91382 13.0895 5.78239 13.6481C5.70025 14.0095 5.70025 20.6467 5.78239 20.9917C5.89739 21.1067 6.01239 21.2217 6.12739 21.3367C14.0625 21.3203 21.9811 21.3039 29.9161 21.2874C29.9983 21.1889 30.0804 21.0903 30.1461 20.9917V13.6481C30.064 13.5495 29.9819 13.4509 29.9161 13.3524C22.9997 13.3524 16.0668 13.3359 9.15027 13.3195C9.23242 12.7445 8.95313 10.4609 9.33099 10.1981C12.1403 9.32735 14.966 8.4402 17.7753 7.56948C17.9725 7.58591 18.1532 7.60234 18.3503 7.61876C21.0611 8.45663 23.7718 9.29449 26.4825 10.1324C27.0575 10.4445 26.6304 11.8409 26.7947 12.4488C27.8625 12.5967 30.524 11.9395 30.9183 13.3195C31.0333 13.6974 31.0333 20.7617 30.9676 21.1396C30.7047 22.6674 28.2733 22.0432 27.2218 22.1582C26.4497 23.6696 25.4968 25.066 24.3632 26.331C25.579 26.331 26.7947 26.3475 28.0104 26.3639V27.2018H23.5418C22.9011 27.7603 22.2604 28.3025 21.6196 28.8611C23.7389 28.8611 25.8747 28.8775 27.994 28.8939V29.7318H20.3218C19.8782 30.0275 18.2025 31.0625 17.8082 30.9968C17.0525 30.5696 16.2968 30.1589 15.5575 29.7318C12.9946 29.7318 10.4317 29.7153 7.86884 29.6989C7.86884 29.4196 7.88526 29.1568 7.90169 28.8775C10.021 28.8775 12.1567 28.8611 14.276 28.8446C13.6353 28.2861 12.9946 27.7439 12.3539 27.1853C10.8589 27.1853 9.36385 27.1689 7.86884 27.1525C7.86884 26.8732 7.88526 26.6103 7.90169 26.331C9.11742 26.331 10.3331 26.3146 11.5489 26.2982C11.1546 25.9696 9.31456 23.456 9.29813 23.2589C9.2817 23.0782 9.93885 22.7167 10.0374 22.7824C11.8446 25.9532 14.6867 28.5161 17.9889 30.0604C21.4882 28.3846 24.3797 25.6082 26.2525 22.2074C26.2525 22.1746 26.2361 22.1582 26.2197 22.1253H24.3304C23.1311 24.0639 21.4389 25.9368 19.5496 27.2182C19.2046 27.4482 18.1532 28.1711 17.8246 28.1053C17.2168 27.7275 16.5925 27.3332 15.9846 26.9553C14.2103 25.6575 12.7317 23.9817 11.5817 22.1253H6.06168C5.63453 22.0596 5.10882 21.6981 4.97739 21.2546C4.87881 20.8767 4.86239 13.8617 4.9281 13.4838C5.05953 12.6624 5.86454 12.3831 6.60383 12.3831C6.80097 11.0688 6.01239 8.57163 7.47455 8.04591C10.8917 6.99447 14.2925 5.94304 17.7096 4.8916V4.95732ZM17.8082 8.48948C15.196 9.29449 12.6003 10.0995 9.98814 10.9045V12.4817C15.2946 12.4817 20.6175 12.4652 25.924 12.4488C25.924 11.9395 25.9075 11.4138 25.8911 10.9045C23.2789 10.0995 20.6832 9.29449 18.0711 8.48948H17.8082ZM12.6167 22.191C13.931 24.2775 15.8039 25.986 17.9232 27.2346C20.1082 26.0518 21.8989 24.2446 23.3118 22.2239C19.7468 22.2239 16.1818 22.2074 12.6332 22.191H12.6167Z" fill="#6B46F2"/>
<path d="M17.8083 8.48926H18.0712C20.6834 9.29426 23.2791 10.0993 25.8913 10.9043C25.8913 11.4136 25.9077 11.9393 25.9241 12.4486C20.6176 12.4486 15.2947 12.465 9.98828 12.4814V10.9043C12.6004 10.0993 15.1962 9.29426 17.8083 8.48926ZM15.8698 10.7893C15.8698 11.085 15.8533 11.3643 15.8369 11.66C16.1162 11.66 16.379 11.6764 16.6583 11.6929C16.6583 11.3971 16.6748 11.1178 16.6912 10.8221C16.4119 10.8221 16.149 10.8057 15.8698 10.7893ZM17.5455 10.7893C17.5455 11.085 17.529 11.3643 17.5126 11.66C17.7919 11.66 18.0548 11.6764 18.3341 11.6929C18.3341 11.3971 18.3505 11.1178 18.3669 10.8221C18.0876 10.8221 17.8248 10.8057 17.5455 10.7893ZM19.2212 10.7893C19.2212 11.085 19.2048 11.3643 19.1883 11.66C19.4676 11.66 19.7305 11.6764 20.0098 11.6929C20.0098 11.3971 20.0262 11.1178 20.0426 10.8221C19.7634 10.8221 19.5005 10.8057 19.2212 10.7893Z" fill="#6B46F2"/>
<path d="M12.9786 14.9457C13.7507 14.9128 15.0486 15.4878 14.5722 16.1285C14.145 16.7035 13.2743 15.4878 12.5022 15.9971C12.3214 16.1121 12.2722 16.3585 12.3707 16.5557C12.6336 17.0486 15.1308 16.6707 14.7365 18.6093C14.3586 20.4493 10.695 19.6771 11.3686 18.5107C11.6807 17.9686 12.3379 18.7407 12.765 18.8064C13.6522 18.9214 14.0957 18.3136 13.5536 17.9686C13.1757 17.7221 11.0893 17.87 11.3686 16.1121C11.4836 15.4221 12.3379 15.0114 12.9622 14.9785L12.9786 14.9457Z" fill="#6B46F2"/>
<path d="M18.0216 14.9463C18.5473 14.9463 19.993 15.3241 19.6152 16.0799C19.2866 16.7699 18.5473 15.6199 17.6437 15.9484C17.2987 16.0799 17.233 16.4742 17.5452 16.6877C18.0052 17.0163 20.0423 16.7699 19.7795 18.5442C19.4837 20.417 15.8037 19.7106 16.3623 18.5442C16.658 17.9035 17.3644 18.7249 17.7587 18.7742C18.1202 18.8235 19.073 18.6592 18.7773 18.117C18.5145 17.6077 16.7237 17.9527 16.4116 16.7534C16.1487 15.6856 17.0194 14.9627 18.0052 14.9463H18.0216Z" fill="#6B46F2"/>
<path d="M21.8501 15.0444C22.0801 14.9786 22.4908 15.1265 22.5565 15.3894V18.6915C22.6715 18.8722 24.9879 18.3137 24.5444 19.3815L24.3144 19.6115C24.1665 19.6772 21.8008 19.8087 21.6036 19.4308C21.5051 19.2501 21.5051 15.6029 21.5543 15.3894C21.6529 15.2744 21.7515 15.1594 21.8501 15.0444Z" fill="#6B46F2"/>
<path d="M12.6165 22.1904C16.1816 22.1904 19.7466 22.2069 23.2952 22.2233C21.8987 24.2604 20.0916 26.0676 17.9066 27.234C15.7873 25.9855 13.9144 24.2769 12.6001 22.1904H12.6165Z" fill="#6B46F2"/>
</g>
<defs>
<clipPath id="clip0_347_24">
<rect width="35" height="35" fill="white"/>
</clipPath>
</defs>
</svg>
