<svg width="70" height="70" viewBox="0 0 70 70" fill="none" xmlns="http://www.w3.org/2000/svg">
<path d="M57.663 1.15198H12.337C6.15967 1.15198 1.15198 6.15967 1.15198 12.337V57.663C1.15198 63.8403 6.15967 68.848 12.337 68.848H57.663C63.8403 68.848 68.848 63.8403 68.848 57.663V12.337C68.848 6.15967 63.8403 1.15198 57.663 1.15198Z" fill="white"/>
<path d="M33.6252 17.62H13.5264C13.2846 17.62 13.0885 17.8161 13.0885 18.0579V31.6031C13.0885 31.8449 13.2846 32.041 13.5264 32.041H33.6252C33.867 32.041 34.0631 31.8449 34.0631 31.6031V18.0579C34.0631 17.8161 33.867 17.62 33.6252 17.62Z" fill="#6B46F2"/>
<path d="M33.3437 19.6221H13.8706V31.259H33.3437V19.6221Z" fill="white"/>
<path d="M19.7828 21.0453H16.0916C15.6942 21.0453 15.3721 21.3674 15.3721 21.7648V24.1266C15.3721 24.5239 15.6942 24.8461 16.0916 24.8461H19.7828C20.1802 24.8461 20.5023 24.5239 20.5023 24.1266V21.7648C20.5023 21.3674 20.1802 21.0453 19.7828 21.0453Z" fill="#6B46F2"/>
<path d="M25.445 21.0453H21.8319C21.4518 21.0453 21.1437 21.3534 21.1437 21.7335V24.1579C21.1437 24.5379 21.4518 24.8461 21.8319 24.8461H25.445C25.825 24.8461 26.1332 24.5379 26.1332 24.1579V21.7335C26.1332 21.3534 25.825 21.0453 25.445 21.0453Z" fill="#6B46F2"/>
<path d="M31.0913 21.0453H27.4782C27.0982 21.0453 26.79 21.3534 26.79 21.7335V24.1579C26.79 24.5379 27.0982 24.8461 27.4782 24.8461H31.0913C31.4714 24.8461 31.7795 24.5379 31.7795 24.1579V21.7335C31.7795 21.3534 31.4714 21.0453 31.0913 21.0453Z" fill="#6B46F2"/>
<path d="M31.2945 26.3789H19.7515C19.4923 26.3789 19.2822 26.589 19.2822 26.8481V26.9733C19.2822 27.2324 19.4923 27.4425 19.7515 27.4425H31.2945C31.5537 27.4425 31.7638 27.2324 31.7638 26.9733V26.8481C31.7638 26.589 31.5537 26.3789 31.2945 26.3789Z" fill="#6B46F2"/>
<path d="M18.0623 26.3789H15.7475C15.5401 26.3789 15.3721 26.547 15.3721 26.7543V27.0671C15.3721 27.2744 15.5401 27.4425 15.7475 27.4425H18.0623C18.2696 27.4425 18.4377 27.2744 18.4377 27.0671V26.7543C18.4377 26.547 18.2696 26.3789 18.0623 26.3789Z" fill="#6B46F2"/>
<path d="M31.2945 27.9274H19.7515C19.4923 27.9274 19.2822 28.1375 19.2822 28.3966V28.5217C19.2822 28.7809 19.4923 28.991 19.7515 28.991H31.2945C31.5537 28.991 31.7638 28.7809 31.7638 28.5217V28.3966C31.7638 28.1375 31.5537 27.9274 31.2945 27.9274Z" fill="#6B46F2"/>
<path d="M18.0623 27.9274H15.7475C15.5401 27.9274 15.3721 28.0954 15.3721 28.3028V28.6156C15.3721 28.8229 15.5401 28.991 15.7475 28.991H18.0623C18.2696 28.991 18.4377 28.8229 18.4377 28.6156V28.3028C18.4377 28.0954 18.2696 27.9274 18.0623 27.9274Z" fill="#6B46F2"/>
<path d="M14.371 19.0745C14.5783 19.0745 14.7464 18.9064 14.7464 18.6991C14.7464 18.4918 14.5783 18.3237 14.371 18.3237C14.1637 18.3237 13.9956 18.4918 13.9956 18.6991C13.9956 18.9064 14.1637 19.0745 14.371 19.0745Z" fill="white"/>
<path d="M15.3721 19.0745C15.5794 19.0745 15.7475 18.9064 15.7475 18.6991C15.7475 18.4918 15.5794 18.3237 15.3721 18.3237C15.1648 18.3237 14.9967 18.4918 14.9967 18.6991C14.9967 18.9064 15.1648 19.0745 15.3721 19.0745Z" fill="white"/>
<path d="M16.4201 19.0745C16.6274 19.0745 16.7954 18.9064 16.7954 18.6991C16.7954 18.4918 16.6274 18.3237 16.4201 18.3237C16.2127 18.3237 16.0447 18.4918 16.0447 18.6991C16.0447 18.9064 16.2127 19.0745 16.4201 19.0745Z" fill="white"/>
<path d="M56.5236 38.579H36.4249C36.183 38.579 35.9869 38.7751 35.9869 39.0169V52.5621C35.9869 52.8039 36.183 53 36.4249 53H56.5236C56.7655 53 56.9616 52.8039 56.9616 52.5621V39.0169C56.9616 38.7751 56.7655 38.579 56.5236 38.579Z" fill="#6B46F2"/>
<path d="M56.2421 40.5811H36.769V52.218H56.2421V40.5811Z" fill="white"/>
<path d="M42.6813 42.0043H38.99C38.5926 42.0043 38.2705 42.3264 38.2705 42.7238V45.0856C38.2705 45.4829 38.5926 45.805 38.99 45.805H42.6813C43.0786 45.805 43.4008 45.4829 43.4008 45.0856V42.7238C43.4008 42.3264 43.0786 42.0043 42.6813 42.0043Z" fill="#6B46F2"/>
<path d="M48.3278 42.0043H44.7147C44.3346 42.0043 44.0265 42.3124 44.0265 42.6925V45.1168C44.0265 45.4969 44.3346 45.805 44.7147 45.805H48.3278C48.7079 45.805 49.016 45.4969 49.016 45.1168V42.6925C49.016 42.3124 48.7079 42.0043 48.3278 42.0043Z" fill="#6B46F2"/>
<path d="M53.9741 42.0043H50.3611C49.981 42.0043 49.6729 42.3124 49.6729 42.6925V45.1168C49.6729 45.4969 49.981 45.805 50.3611 45.805H53.9741C54.3542 45.805 54.6623 45.4969 54.6623 45.1168V42.6925C54.6623 42.3124 54.3542 42.0043 53.9741 42.0043Z" fill="#6B46F2"/>
<path d="M54.1931 47.3379H42.65C42.3909 47.3379 42.1808 47.548 42.1808 47.8071V47.9322C42.1808 48.1914 42.3909 48.4015 42.65 48.4015H54.1931C54.4522 48.4015 54.6623 48.1914 54.6623 47.9322V47.8071C54.6623 47.548 54.4522 47.3379 54.1931 47.3379Z" fill="#6B46F2"/>
<path d="M40.9608 47.3379H38.6459C38.4386 47.3379 38.2705 47.506 38.2705 47.7133V48.0261C38.2705 48.2334 38.4386 48.4015 38.6459 48.4015H40.9608C41.1681 48.4015 41.3362 48.2334 41.3362 48.0261V47.7133C41.3362 47.506 41.1681 47.3379 40.9608 47.3379Z" fill="#6B46F2"/>
<path d="M54.1931 48.8864H42.65C42.3909 48.8864 42.1808 49.0964 42.1808 49.3556V49.4807C42.1808 49.7399 42.3909 49.9499 42.65 49.9499H54.1931C54.4522 49.9499 54.6623 49.7399 54.6623 49.4807V49.3556C54.6623 49.0964 54.4522 48.8864 54.1931 48.8864Z" fill="#6B46F2"/>
<path d="M40.9608 48.8864H38.6459C38.4386 48.8864 38.2705 49.0544 38.2705 49.2617V49.5746C38.2705 49.7819 38.4386 49.9499 38.6459 49.9499H40.9608C41.1681 49.9499 41.3362 49.7819 41.3362 49.5746V49.2617C41.3362 49.0544 41.1681 48.8864 40.9608 48.8864Z" fill="#6B46F2"/>
<path d="M37.2538 40.0336C37.4611 40.0336 37.6292 39.8655 37.6292 39.6582C37.6292 39.4509 37.4611 39.2828 37.2538 39.2828C37.0465 39.2828 36.8784 39.4509 36.8784 39.6582C36.8784 39.8655 37.0465 40.0336 37.2538 40.0336Z" fill="white"/>
<path d="M38.2705 40.0336C38.4778 40.0336 38.6459 39.8655 38.6459 39.6582C38.6459 39.4509 38.4778 39.2828 38.2705 39.2828C38.0632 39.2828 37.8951 39.4509 37.8951 39.6582C37.8951 39.8655 38.0632 40.0336 38.2705 40.0336Z" fill="white"/>
<path d="M39.3185 40.0336C39.5258 40.0336 39.6939 39.8655 39.6939 39.6582C39.6939 39.4509 39.5258 39.2828 39.3185 39.2828C39.1112 39.2828 38.9431 39.4509 38.9431 39.6582C38.9431 39.8655 39.1112 40.0336 39.3185 40.0336Z" fill="white"/>
<path d="M46.7948 29.1318C46.5915 29.6636 46.4038 30.1798 46.1848 30.7428L45.5435 32.4634L45.1212 33.5582C45.0274 33.8085 44.7615 33.9493 44.4956 33.8554C44.4174 33.8241 44.3548 33.7772 44.2923 33.7303L43.5571 32.9013L41.6176 30.7272C41.4769 30.5551 41.3361 30.3987 41.1797 30.2423C41.0702 30.1016 41.0858 29.8982 41.2266 29.7731C41.2579 29.7575 41.2735 29.7418 41.2892 29.7262L41.43 29.6792L42.3371 29.5228H42.4779V29.21L42.4153 28.5531L42.3528 28.209C42.3215 28.0057 42.2589 27.8023 42.1964 27.599C42.1025 27.2862 41.993 26.989 41.8835 26.6762C41.7897 26.4572 41.6802 26.2539 41.5707 26.0505C41.2423 25.4093 40.8356 24.7993 40.3507 24.2518C40.1474 24.0172 39.9284 23.7826 39.7251 23.5636C39.6469 23.4854 39.6469 23.3759 39.7094 23.2977C39.7564 23.2195 39.8346 23.1882 39.9128 23.2195C39.9128 23.2195 39.9284 23.2195 39.9441 23.2351L40.8669 23.6887L41.211 23.9234C41.7897 24.2831 42.3215 24.721 42.822 25.1903C43.5884 25.9098 44.2297 26.7544 44.7302 27.6772C44.9179 28.0213 45.0743 28.3967 45.1994 28.7721C45.2307 28.8346 45.262 28.8972 45.2776 28.9754H45.4184L46.2943 28.8034C46.4664 28.7408 46.6384 28.8034 46.7479 28.9598L46.7948 29.1318Z" fill="#6B46F2"/>
<path d="M24.2093 42.0357L24.0842 42.0826L23.1927 42.4424C23.0988 42.4737 22.9893 42.4737 22.8955 42.4267C22.7704 42.3642 22.6922 42.2234 22.7235 42.0983L22.8329 41.4101C22.9737 40.5029 23.1145 39.5957 23.2552 38.6885L23.4429 37.4842C23.4899 37.2183 23.7245 37.0306 23.9904 37.0619C24.0217 37.0619 24.0373 37.0619 24.0686 37.0775L24.225 37.1714C24.6786 37.4998 25.1322 37.8126 25.5701 38.1567L27.9006 39.8773L27.9788 39.9398C28.1196 40.065 28.1352 40.2683 28.0101 40.4091C27.9788 40.4403 27.9476 40.4716 27.9163 40.4873L27.7442 40.5498L26.9622 40.8783L26.837 40.9252C26.8527 41.0191 26.8683 41.1129 26.8996 41.2067C26.9622 41.4414 27.0404 41.6916 27.1342 41.9106C27.1968 42.067 27.2593 42.2078 27.3219 42.3642C27.5252 42.8647 27.8068 43.3339 28.1352 43.7562C28.6045 44.3975 29.1519 44.9762 29.7776 45.4611C30.0747 45.7114 30.4188 45.9303 30.7473 46.165C30.8099 46.2119 30.8411 46.2744 30.8568 46.337C30.8568 46.4465 30.7786 46.5403 30.6847 46.5403H30.6065C30.3563 46.4934 30.106 46.4308 29.8714 46.3526C29.6368 46.2744 29.4022 46.1962 29.1832 46.1024C28.5888 45.8678 28.0258 45.5862 27.494 45.2421C26.9778 44.945 26.5086 44.5852 26.055 44.1942C25.4763 43.6937 24.9758 43.1306 24.5378 42.4893C24.444 42.3329 24.3345 42.1765 24.2093 42.0044V42.0357Z" fill="#6B46F2"/>
</svg>
