<svg width="22" height="22" viewBox="0 0 22 22" fill="none" xmlns="http://www.w3.org/2000/svg">
<rect width="22" height="22" rx="5" fill="#F2EFFF"/>
<g clip-path="url(#clip0_1251_38)">
<path d="M13.25 16.25H8.75C8.3375 16.25 8 15.9125 8 15.5V14.375H8.75V15.5H13.25V14.375H14V15.5C14 15.9125 13.6625 16.25 13.25 16.25ZM10.625 10.55V14.375H11.375V10.55L12.35 11.525L12.875 11L11 9.125L9.125 11L9.65 11.525L10.625 10.55Z" fill="#6B46F2"/>
<path d="M14.3 8.4125C13.9625 6.875 12.6125 5.75 11 5.75C9.3875 5.75 8.0375 6.875 7.7 8.4125C6.575 8.6375 5.75 9.65 5.75 10.8125C5.75 12.1625 6.8375 13.25 8.1875 13.25H9.5V12.5H8.1875C7.25 12.5 6.5 11.75 6.5 10.8125C6.5 9.95 7.175 9.2 8.0375 9.125H8.375L8.4125 8.825C8.5625 7.475 9.6875 6.5 11 6.5C12.3125 6.5 13.4375 7.475 13.5875 8.7875L13.625 9.125L13.925 9.1625C14.7875 9.2375 15.4625 9.9875 15.4625 10.85C15.4625 11.7875 14.7125 12.5375 13.775 12.5375H12.5V13.2875H13.8125C15.1625 13.2875 16.25 12.2 16.25 10.85C16.25 9.65 15.425 8.6375 14.3 8.4125Z" fill="#6B46F2"/>
</g>
<defs>
<clipPath id="clip0_1251_38">
<rect width="12" height="12" fill="white" transform="translate(5 5)"/>
</clipPath>
</defs>
</svg>
