<svg width="70" height="70" viewBox="0 0 70 70" fill="none" xmlns="http://www.w3.org/2000/svg">
<path d="M57.663 1.1521H12.337C6.15967 1.1521 1.15198 6.15979 1.15198 12.3371V57.6631C1.15198 63.8404 6.15967 68.8481 12.337 68.8481H57.663C63.8403 68.8481 68.848 63.8404 68.848 57.6631V12.3371C68.848 6.15979 63.8403 1.1521 57.663 1.1521Z" fill="white"/>
<path fill-rule="evenodd" clip-rule="evenodd" d="M16.6989 50.8683H23.5531C24.7227 50.8683 25.6202 49.9435 25.6202 48.774C25.6202 47.6044 24.6955 46.6796 23.5531 46.6796H12.347C11.1775 46.6796 10.2799 45.7549 10.2799 44.5853C10.2799 43.4157 11.2047 42.491 12.347 42.491H35.4663C36.6359 42.491 37.5335 43.4157 37.5335 44.5853C37.5335 45.7005 36.7447 46.5708 35.6295 46.6796H34.2152C33.1272 46.6796 32.2024 47.6044 32.2024 48.774C32.2024 49.8891 33.1272 50.8683 34.2152 50.8683H35.6295H35.4391C36.6087 50.8683 37.5063 51.7931 37.5063 52.9626C37.5063 54.0778 36.5815 55.057 35.4391 55.057H16.6989C15.5293 55.057 14.6318 54.0778 14.6318 52.9626C14.6318 51.7931 15.5565 50.8683 16.6989 50.8683Z" fill="#DED7FF"/>
<path fill-rule="evenodd" clip-rule="evenodd" d="M31.4409 55.0026H34.732C35.9016 55.0026 36.7991 54.0779 36.7991 52.9627C36.7991 51.7931 35.8744 50.8684 34.732 50.8684H31.4409C30.3529 50.8684 29.3738 49.8892 29.3738 48.774C29.3738 47.6045 30.3529 46.6797 31.4409 46.6797H57.9873C59.0752 46.6797 60 47.6045 60 48.774C60 49.8892 59.0752 50.8684 57.9873 50.8684H49.2291C48.0596 50.8684 47.162 51.7931 47.162 52.9627C47.162 54.0779 48.0868 55.0026 49.2291 55.0026H50.2627C51.4323 55.0026 52.3298 55.9818 52.3298 57.097C52.3298 58.2665 51.4051 59.1913 50.2627 59.1913H31.4137C30.3257 59.1913 29.3466 58.2665 29.3466 57.097C29.3466 55.9818 30.3257 55.0026 31.4137 55.0026H31.4409Z" fill="#DED7FF"/>
<path d="M26.6538 17.6582H21.6763C21.6763 32.1554 21.7579 42.491 35.7383 52.0651C49.7459 42.4638 49.8275 32.1554 49.8275 17.6582H44.1428" fill="#6B46F2"/>
<path d="M35.7656 52.3915C35.7656 52.3915 35.6296 52.3915 35.5752 52.3371C29.0474 47.8764 25.1035 42.9262 23.1723 36.8064C21.3772 31.0946 21.3772 24.866 21.3772 17.6582C21.3772 17.495 21.5132 17.3318 21.7036 17.3318H26.681C26.8442 17.3318 27.0074 17.4678 27.0074 17.6582C27.0074 17.8486 26.8714 17.9846 26.681 17.9846H22.03C22.03 32.0465 22.1388 42.2462 35.7928 51.6843C49.4467 42.2462 49.5555 32.0465 49.5555 17.9846H44.1973C44.0341 17.9846 43.8709 17.8486 43.8709 17.6582C43.8709 17.4678 44.0069 17.3318 44.1973 17.3318H49.8819C50.0451 17.3318 50.2083 17.4678 50.2083 17.6582C50.2083 24.866 50.2083 31.0946 48.4132 36.8064C46.482 42.9262 42.5381 47.8492 36.0103 52.3371C35.9559 52.3643 35.9015 52.3915 35.82 52.3915H35.7656Z" fill="white"/>
<path d="M23.7708 17.6585V13.905H47.6789V17.6585" fill="#6B46F2"/>
<path d="M47.6788 17.9849C47.5156 17.9849 47.3524 17.8489 47.3524 17.6585V14.2042H24.07V17.6585C24.07 17.8217 23.934 17.9849 23.7436 17.9849C23.5532 17.9849 23.4172 17.8489 23.4172 17.6585V13.905C23.4172 13.7418 23.5532 13.5786 23.7436 13.5786H47.6516C47.8148 13.5786 47.978 13.7146 47.978 13.905V17.6585C47.978 17.8217 47.842 17.9849 47.6516 17.9849H47.6788Z" fill="white"/>
<path d="M40.2262 26.7159H31.3049C30.4345 26.7159 29.7274 27.4231 29.7274 28.2935V33.9781C29.7274 36.29 31.6313 38.1668 33.916 38.1668H37.7783C39.9814 38.1668 41.7766 36.3716 41.7766 34.1413V28.2663C41.7766 27.3959 41.0694 26.6887 40.199 26.6887L40.2262 26.7159Z" fill="#E7E3FD"/>
<path d="M37.7783 38.4657H33.9161C31.4137 38.4657 29.401 36.4258 29.401 33.9506V28.266C29.401 27.2324 30.2442 26.3621 31.3049 26.3621H40.2263C41.2598 26.3621 42.1302 27.2052 42.1302 28.266V34.141C42.1302 36.5345 40.1991 38.4657 37.8055 38.4657H37.7783ZM31.3049 27.042C30.625 27.042 30.0538 27.6132 30.0538 28.2932V33.9778C30.0538 36.1266 31.7945 37.8673 33.9433 37.8673H37.8055C39.8455 37.8673 41.5046 36.2082 41.5046 34.1682V28.2932C41.5046 27.6132 40.9334 27.042 40.2535 27.042H31.3049Z" fill="#E7E3FD"/>
<path d="M31.8215 26.5799H39.7365V23.8328C39.7365 22.3097 38.5125 21.0857 36.9894 21.0857H34.5686C33.0455 21.0857 31.8215 22.3097 31.8215 23.8328V26.5799Z" fill="#6B46F2"/>
<path d="M39.7093 26.906H31.7943C31.6312 26.906 31.468 26.77 31.468 26.5797V23.8325C31.468 22.1462 32.8551 20.759 34.5415 20.759H36.9622C38.6485 20.759 40.0357 22.1462 40.0357 23.8325V26.5797C40.0357 26.7428 39.8997 26.906 39.7093 26.906ZM32.1207 26.2533H39.3829V23.8053C39.3829 22.4726 38.2949 21.3846 36.9622 21.3846H34.5415C33.2087 21.3846 32.1207 22.4726 32.1207 23.8053V26.2533Z" fill="#E7E3FD"/>
<path d="M36.4456 35.746H35.0856C34.8409 35.746 34.6505 35.5556 34.6505 35.3108V33.3524C33.9433 32.9445 33.4809 32.2101 33.4809 31.3669C33.4809 30.1157 34.4873 29.1094 35.7384 29.1094C36.9896 29.1094 37.996 30.1157 37.996 31.3669C37.996 32.2101 37.5336 32.9445 36.8264 33.3524V35.3108C36.8264 35.5556 36.636 35.746 36.3912 35.746H36.4456ZM35.5752 34.2228H35.9288V32.9173C35.9288 32.9173 36.0104 32.6725 36.1192 32.6181C36.5272 32.4549 36.772 32.0741 36.772 31.6661C36.772 31.0949 36.3096 30.6325 35.7384 30.6325C35.1672 30.6325 34.7049 31.0949 34.7049 31.6661C34.7049 32.1013 34.9497 32.4821 35.3576 32.6181C35.4664 32.6725 35.548 32.7813 35.548 32.9173V34.2228H35.5752Z" fill="#5138CC"/>
</svg>
