<svg width="70" height="70" viewBox="0 0 70 70" fill="none" xmlns="http://www.w3.org/2000/svg">
<path d="M57.663 1.1521H12.337C6.15967 1.1521 1.15198 6.15979 1.15198 12.3371V57.6631C1.15198 63.8404 6.15967 68.8481 12.337 68.8481H57.663C63.8403 68.8481 68.848 63.8404 68.848 57.6631V12.3371C68.848 6.15979 63.8403 1.1521 57.663 1.1521Z" fill="white"/>
<path d="M34.9009 12.512H35.7294C38.2955 13.4819 53.3491 17.7453 54.1573 18.2909C55.7738 19.3618 54.9049 22.3927 55.1272 24.1103H53.6521C53.5309 23.2616 53.8946 19.9882 53.4299 19.5639C47.4691 17.7049 41.5083 15.8258 35.5475 13.9668H35.0828C29.2432 15.7651 23.4036 17.5635 17.5641 19.382C17.362 19.5437 17.16 19.7255 16.9781 19.8872V25.5651C17.4631 25.6055 17.948 25.6257 18.4532 25.6661V27.1412C17.5843 27.424 14.2907 26.6966 14.0482 27.6867C13.8866 28.3131 13.9068 39.8912 14.0482 40.5176C14.2503 40.7196 14.4524 40.9217 14.6342 41.1036C28.4754 41.0631 42.3165 41.0429 56.1779 41.0025C56.3193 40.8409 56.4608 40.659 56.582 40.4974V27.6665C56.4406 27.5049 56.2991 27.323 56.1779 27.1614C44.0947 27.1614 32.0114 27.121 19.908 27.121C20.0696 26.1309 19.5645 22.1098 20.2313 21.6653C25.1616 20.1297 30.0717 18.6142 35.0019 17.0785C35.3454 17.1189 35.6687 17.1392 36.0122 17.1796C40.7405 18.6546 45.4889 20.1094 50.2171 21.5845C51.2274 22.1503 50.4596 24.5548 50.7627 25.6257C52.6216 25.8884 57.269 24.7366 57.956 27.1412C58.1379 27.7878 58.1581 40.1337 58.0571 40.8005C57.5923 43.4677 53.3491 42.3563 51.5103 42.5786C50.1565 45.2054 48.4794 47.6705 46.5194 49.873C48.641 49.873 50.7627 49.9134 52.8843 49.9134V51.3885H45.0848C43.9734 52.3583 42.8621 53.308 41.7306 54.2779C45.4485 54.2779 49.1664 54.3183 52.8641 54.3183V55.7934H39.4675C38.6996 56.2985 35.7496 58.0969 35.0626 57.9958C33.7492 57.2684 32.4358 56.5208 31.1224 55.7934C26.6366 55.7934 22.1711 55.753 17.6853 55.753C17.6853 55.2882 17.7257 54.8033 17.7257 54.3385C21.4437 54.3385 25.1616 54.2981 28.8593 54.2981C27.748 53.3282 26.6366 52.3786 25.5051 51.4087C22.8985 51.4087 20.2717 51.3682 17.6651 51.3682C17.6651 50.9035 17.7055 50.4186 17.7055 49.9538C19.8272 49.9538 21.9488 49.9134 24.0704 49.9134C23.3834 49.3274 20.1707 44.9427 20.1303 44.5992C20.0899 44.2759 21.2618 43.6697 21.4235 43.7708C24.5958 49.3072 29.5261 53.793 35.305 56.4602C41.4275 53.5303 46.4588 48.6808 49.7524 42.7605C49.7524 42.72 49.712 42.6594 49.712 42.619H46.4184C44.3169 45.9934 41.3669 49.2668 38.0733 51.5097C37.4873 51.9138 35.6283 53.1666 35.0423 53.0656C33.9714 52.3988 32.9005 51.7118 31.8296 51.045C28.7381 48.7819 26.1517 45.8318 24.1311 42.619H14.513C13.7653 42.518 12.8561 41.8714 12.6338 41.1036C12.452 40.457 12.4317 28.2121 12.5328 27.5251C12.755 26.0904 14.1695 25.6055 15.4627 25.6055C15.8062 23.302 14.4322 18.9577 16.9781 18.0484C22.9389 16.2097 28.8997 14.3709 34.8605 12.5524L34.9009 12.512ZM35.103 18.6546C30.5566 20.069 25.99 21.4633 21.4437 22.8777V25.6257C30.7182 25.6257 39.9928 25.5853 49.2674 25.5853C49.2674 24.676 49.227 23.787 49.227 22.8777C44.6806 21.4633 40.1141 20.069 35.5677 18.6546H35.103ZM26.0102 42.5786C28.3137 46.2157 31.5669 49.2062 35.2646 51.3885C39.0836 49.3274 42.2155 46.1753 44.6604 42.6392C38.437 42.6392 32.2135 42.5988 26.0102 42.5988V42.5786Z" fill="#6B46F2"/>
<path d="M35.103 18.6548H35.5677C40.1141 20.0692 44.6807 21.4634 49.227 22.8779C49.227 23.7871 49.2674 24.6762 49.2674 25.5855C39.9928 25.5855 30.7183 25.6259 21.4437 25.6259V22.8779C25.99 21.4634 30.5566 20.0692 35.103 18.6548ZM31.7084 22.6758C31.7084 23.1809 31.6679 23.6861 31.6679 24.1912C32.1327 24.1912 32.6176 24.2317 33.0824 24.2317C33.0824 23.7265 33.1228 23.2214 33.1228 22.7162C32.658 22.7162 32.1731 22.6758 31.7084 22.6758ZM34.6382 22.6758C34.6382 23.1809 34.5978 23.6861 34.5978 24.1912C35.0626 24.1912 35.5475 24.2317 36.0122 24.2317C36.0122 23.7265 36.0527 23.2214 36.0527 22.7162C35.5879 22.7162 35.103 22.6758 34.6382 22.6758ZM37.5681 22.6758C37.5681 23.1809 37.5277 23.6861 37.5277 24.1912C37.9924 24.1912 38.4774 24.2317 38.9421 24.2317C38.9421 23.7265 38.9825 23.2214 38.9825 22.7162C38.5178 22.7162 38.0329 22.6758 37.5681 22.6758Z" fill="#6B46F2"/>
<path d="M26.6568 29.9297C28.0106 29.8893 30.2737 30.8793 29.4453 31.9907C28.6976 33.001 27.1822 30.8793 25.8284 31.7684C25.5051 31.9705 25.4243 32.3948 25.6061 32.7383C26.0708 33.587 30.4354 32.9404 29.7281 36.3148C29.0613 39.5478 22.6762 38.1939 23.8684 36.1329C24.3937 35.2034 25.5657 36.5371 26.2931 36.6381C27.849 36.8401 28.6168 35.7894 27.6671 35.163C27.0003 34.7387 23.3632 35.0014 23.8684 31.9099C24.0704 30.6975 25.5455 29.9701 26.6568 29.9297Z" fill="#6B46F2"/>
<path d="M35.4667 29.9299C36.3962 29.9299 38.9018 30.5765 38.2552 31.9101C37.6692 33.1225 36.3962 31.1019 34.8201 31.6879C34.2139 31.9101 34.1129 32.6173 34.6383 32.9811C35.4465 33.5468 39.0028 33.1427 38.538 36.2342C38.0329 39.5076 31.6074 38.275 32.5773 36.2342C33.1026 35.1229 34.315 36.5373 35.002 36.6384C35.6486 36.7394 37.2853 36.4565 36.7801 35.4866C36.3154 34.5975 33.1834 35.2037 32.6581 33.1023C32.1933 31.2433 33.7088 29.9703 35.4465 29.9299H35.4667Z" fill="#6B46F2"/>
<path d="M42.1549 30.1113C42.559 29.9901 43.2864 30.2326 43.3875 30.6973V36.4762C43.5895 36.7995 47.6308 35.8094 46.8629 37.6684L46.4588 38.0725C46.1961 38.1938 42.0741 38.416 41.7306 37.7492C41.5689 37.4259 41.5487 31.061 41.6296 30.6973C41.7912 30.4952 41.9731 30.2932 42.1347 30.1113H42.1549Z" fill="#6B46F2"/>
<path d="M26.0103 42.5788C32.2337 42.5788 38.4572 42.6192 44.6605 42.6192C42.2155 46.1553 39.0836 49.3276 35.2646 51.3684C31.5669 49.1862 28.2935 46.2159 26.0103 42.5586V42.5788Z" fill="#6B46F2"/>
</svg>
