<svg width="35" height="35" viewBox="0 0 35 35" fill="none" xmlns="http://www.w3.org/2000/svg">
<g clip-path="url(#clip0_347_24)">
<mask id="mask0_347_24" style="mask-type:luminance" maskUnits="userSpaceOnUse" x="0" y="0" width="35" height="35">
<path d="M35 0H0V35H35V0Z" fill="white"/>
</mask>
<g mask="url(#mask0_347_24)">
<path d="M27.2824 -0.245117H7.92736C3.47181 -0.245117 -0.140137 3.36683 -0.140137 7.82238V27.1774C-0.140137 31.6329 3.47181 35.2449 7.92736 35.2449H27.2824C31.7379 35.2449 35.3499 31.6329 35.3499 27.1774V7.82238C35.3499 3.36683 31.7379 -0.245117 27.2824 -0.245117Z" fill="#F2EFFF"/>
</g>
<path d="M6 8V27.18H29.2564V8H6ZM28.3066 26.2218H6.95816V12.5807H28.315V26.2218H28.3066ZM6.95816 11.6309V8.95816H28.315V11.6309H6.95816Z" fill="#6B46F2"/>
<path d="M21.4904 9.79004H20.0195V10.7398H21.4904V9.79004Z" fill="#6B46F2"/>
<path d="M24.3478 9.79004H22.877V10.7398H24.3478V9.79004Z" fill="#6B46F2"/>
<path d="M27.214 9.79004H25.7432V10.7398H27.214V9.79004Z" fill="#6B46F2"/>
<path d="M17.2707 21.7671H17.0186V25.045H17.2707V21.7671Z" fill="#6B46F2"/>
<path d="M17.5484 24.9698C20.6399 24.9698 23.146 22.4636 23.146 19.3721C23.146 16.2806 20.6399 13.7744 17.5484 13.7744C14.4568 13.7744 11.9507 16.2806 11.9507 19.3721C11.9507 22.4636 14.4568 24.9698 17.5484 24.9698Z" stroke="#6B46F2" stroke-width="0.25" stroke-miterlimit="10"/>
<path d="M17.5484 25.0959C14.3882 25.0959 11.8247 22.524 11.8247 19.3722C11.8247 16.2203 14.3966 13.6484 17.5484 13.6484C20.7003 13.6484 23.2722 16.2203 23.2722 19.3722C23.2722 22.524 20.7003 25.0959 17.5484 25.0959ZM17.5484 13.8922C14.5311 13.8922 12.0769 16.3464 12.0769 19.3638C12.0769 22.3811 14.5311 24.8354 17.5484 24.8354C20.5658 24.8354 23.02 22.3811 23.02 19.3638C23.02 16.3464 20.5658 13.8922 17.5484 13.8922Z" stroke="#6B46F2" stroke-width="0.25" stroke-miterlimit="10"/>
<path d="M17.5905 13.8584H17.3384V17.0859H17.5905V13.8584Z" fill="#6B46F2"/>
<path d="M16.6238 25.0281C12.5558 17.6906 16.607 13.774 16.649 13.7319L16.8255 13.9168C16.8255 13.9168 12.8836 17.7411 16.8507 24.9021L16.6322 25.0281H16.6238Z" fill="#6B46F2"/>
<path d="M15.4384 24.7003C10.925 17.8755 14.7996 14.3622 14.8417 14.3286L15.0098 14.5219C15.0098 14.5219 11.2696 17.9343 15.6485 24.5658L15.4384 24.7087V24.7003Z" fill="#6B46F2"/>
<path d="M22.8685 18.0272C22.8685 18.0272 19.0107 14.4131 12.4549 17.2624L12.354 17.027C19.0695 14.1105 23.003 17.8087 23.045 17.8423L22.8685 18.0272Z" fill="#6B46F2"/>
<path d="M17.5652 23.8347C16.2456 23.8347 14.6991 23.5321 12.9341 22.6748L13.0433 22.4479C19.0024 25.3392 22.4316 21.8007 22.4737 21.7671L22.6586 21.9436C22.6586 21.9436 20.8263 23.8431 17.5652 23.8431V23.8347Z" fill="#6B46F2"/>
<path d="M18.4141 24.9277L18.204 24.7932C22.3728 18.3382 17.7501 13.9677 17.6997 13.9256L17.8762 13.7407C17.9266 13.7827 22.7006 18.2962 18.4225 24.9361L18.4141 24.9277Z" fill="#6B46F2"/>
<path d="M20.0278 24.5155L19.826 24.3642C24.4235 18.3883 19.5739 14.3708 19.3638 14.2027L19.5235 14.001C19.5739 14.043 24.7765 18.3379 20.0278 24.5155Z" fill="#6B46F2"/>
<path d="M17.6407 22.2976C20.3825 22.2038 22.5644 20.9393 22.5143 19.4733C22.4641 18.0073 20.2008 16.895 17.459 16.9888C14.7173 17.0826 12.5353 18.3471 12.5855 19.8131C12.6356 21.2791 14.8989 22.3914 17.6407 22.2976Z" fill="#F2EFFF"/>
<path d="M16.1785 18.8846C16.1785 18.8846 16.1785 18.9098 16.1785 18.9266C16.1785 18.9435 16.1785 18.9687 16.1617 19.0023L15.7583 20.3639C15.7583 20.3639 15.7415 20.3975 15.7331 20.4059C15.7247 20.4227 15.7079 20.4311 15.691 20.4311C15.6742 20.4311 15.649 20.4395 15.6154 20.4479C15.5229 20.4479 15.4389 20.4479 15.3464 20.4479C15.3128 20.4479 15.2876 20.4479 15.2624 20.4311C15.2456 20.4311 15.2288 20.4143 15.2204 20.4059C15.212 20.3975 15.2036 20.3807 15.2036 20.3639L14.9514 19.4478V19.4309L14.943 19.4478L14.7077 20.3639C14.7077 20.3639 14.6993 20.3975 14.6909 20.4059C14.6825 20.4227 14.6656 20.4311 14.6488 20.4311C14.632 20.4311 14.5984 20.4395 14.5648 20.4479C14.4723 20.4479 14.3883 20.4479 14.2958 20.4479C14.2622 20.4479 14.237 20.4479 14.2202 20.4311C14.2034 20.4143 14.1866 20.4143 14.1782 20.4059C14.1698 20.3975 14.1614 20.3807 14.1614 20.3639L13.7663 19.0023C13.7663 19.0023 13.7495 18.9435 13.7495 18.9266C13.7495 18.9098 13.7495 18.893 13.7495 18.8846C13.7495 18.8762 13.7495 18.8594 13.7495 18.8594C13.7495 18.8594 13.7663 18.8426 13.7831 18.8426C13.7999 18.8426 13.8252 18.8426 13.8504 18.8342H14.0605C14.0605 18.8342 14.1109 18.8342 14.1277 18.8426C14.1445 18.8426 14.1529 18.8594 14.1614 18.8678C14.1698 18.8762 14.1698 18.893 14.1782 18.9014L14.4723 20.0109V20.0277L14.4807 20.0109L14.7581 18.9014C14.7581 18.9014 14.7581 18.8762 14.7749 18.8678C14.7749 18.8678 14.7917 18.851 14.8085 18.8426C14.8253 18.8426 14.8421 18.8426 14.8674 18.8342H14.9682C14.9682 18.8342 15.0439 18.8342 15.0691 18.8342C15.0943 18.8342 15.1111 18.8342 15.1279 18.8426C15.1447 18.8426 15.1531 18.851 15.1615 18.8594C15.1615 18.8594 15.1699 18.8762 15.1783 18.8846L15.4809 20.0025V20.0193L15.4893 20.0025L15.7751 18.893C15.7751 18.893 15.7751 18.8678 15.7919 18.8594C15.7919 18.8594 15.8087 18.8426 15.8255 18.8342C15.8423 18.8342 15.8675 18.8342 15.8928 18.8258H16.0945C16.0945 18.8258 16.1365 18.8258 16.1533 18.8342C16.1701 18.8342 16.1785 18.8426 16.1869 18.851C16.1869 18.851 16.1869 18.8678 16.1869 18.8762H16.2037L16.1785 18.8846ZM18.7756 18.8846C18.7756 18.8846 18.7756 18.9098 18.7756 18.9266C18.7756 18.9435 18.7756 18.9687 18.7588 19.0023L18.3554 20.3639C18.3554 20.3639 18.3386 20.3975 18.3302 20.4059C18.3218 20.4227 18.305 20.4311 18.2882 20.4311C18.2714 20.4311 18.2461 20.4395 18.2125 20.4479C18.1201 20.4479 18.036 20.4479 17.9436 20.4479C17.9099 20.4479 17.8847 20.4479 17.8595 20.4311C17.8427 20.4311 17.8259 20.4143 17.8175 20.4059C17.8091 20.3891 17.8007 20.3807 17.8007 20.3639L17.5485 19.4478V19.4309L17.5401 19.4478L17.3048 20.3639C17.3048 20.3639 17.2964 20.3975 17.288 20.4059C17.2796 20.4227 17.2628 20.4311 17.246 20.4311C17.2291 20.4311 17.1955 20.4395 17.1619 20.4479C17.0695 20.4479 16.9854 20.4479 16.8929 20.4479C16.8593 20.4479 16.8341 20.4479 16.8173 20.4311C16.8005 20.4143 16.7837 20.4143 16.7753 20.4059C16.7669 20.3975 16.7585 20.3807 16.7585 20.3639L16.3634 19.0023C16.3634 19.0023 16.3466 18.9435 16.3466 18.9266C16.3466 18.9098 16.3466 18.893 16.3466 18.8846C16.3466 18.8762 16.3466 18.8594 16.3466 18.8594C16.3466 18.8594 16.3634 18.8426 16.3802 18.8426C16.3971 18.8426 16.4223 18.8426 16.4475 18.8342H16.6576C16.6576 18.8342 16.708 18.8342 16.7248 18.8426C16.7417 18.8426 16.7501 18.8594 16.7585 18.8678C16.7585 18.8678 16.7669 18.893 16.7753 18.9014L17.0695 20.0109V20.0277L17.0779 20.0109L17.3552 18.9014C17.3552 18.9014 17.3552 18.8762 17.372 18.8678C17.372 18.8678 17.3888 18.851 17.4056 18.8426C17.4225 18.8426 17.4393 18.8426 17.4645 18.8342H17.5653C17.5653 18.8342 17.641 18.8342 17.6662 18.8342C17.6914 18.8342 17.7082 18.8342 17.725 18.8426C17.7418 18.8426 17.7502 18.851 17.7587 18.8594C17.7587 18.8594 17.7671 18.8762 17.7755 18.8846L18.078 20.0025V20.0193L18.0864 19.9941L18.3722 18.8846C18.3722 18.8846 18.3722 18.8594 18.389 18.851C18.389 18.851 18.4058 18.8342 18.4226 18.8258C18.4395 18.8258 18.4647 18.8258 18.4899 18.8174H18.6916C18.6916 18.8174 18.7336 18.8174 18.7504 18.8258C18.7672 18.8258 18.7756 18.8342 18.7841 18.8426C18.7841 18.8426 18.7841 18.8594 18.7841 18.8678H18.8009L18.7756 18.8846Z" fill="#6B46F2"/>
<path d="M21.3807 18.8845C21.3807 18.8845 21.3807 18.9097 21.3807 18.9265C21.3807 18.9434 21.3807 18.9686 21.3639 19.0022L20.9604 20.3638C20.9604 20.3638 20.9436 20.3974 20.9352 20.4058C20.9268 20.4226 20.91 20.431 20.8932 20.431C20.8764 20.431 20.8512 20.4394 20.8176 20.4478C20.7251 20.4478 20.641 20.4478 20.5486 20.4478C20.515 20.4478 20.4898 20.4478 20.4645 20.431C20.4477 20.431 20.4309 20.4142 20.4225 20.4058C20.4141 20.389 20.4057 20.3806 20.4057 20.3638L20.1536 19.4476V19.4308L20.1452 19.4476L19.9098 20.3638C19.9098 20.3638 19.9014 20.3974 19.893 20.4058C19.8846 20.4226 19.8678 20.431 19.851 20.431C19.8342 20.431 19.8006 20.4394 19.7669 20.4478C19.6745 20.4478 19.5904 20.4478 19.498 20.4478C19.4644 20.4478 19.4391 20.4478 19.4223 20.431C19.4055 20.4142 19.3887 20.4142 19.3803 20.4058C19.3719 20.389 19.3635 20.3806 19.3635 20.3638L18.9685 19.0022C18.9685 19.0022 18.9517 18.9434 18.9517 18.9265C18.9517 18.9097 18.9517 18.8929 18.9517 18.8845C18.9517 18.8761 18.9517 18.8593 18.9517 18.8593C18.9517 18.8593 18.9685 18.8425 18.9853 18.8425C19.0021 18.8425 19.0273 18.8425 19.0525 18.8341H19.2626C19.2626 18.8341 19.3131 18.8341 19.3299 18.8425C19.3467 18.8425 19.3551 18.8593 19.3635 18.8677C19.3635 18.8677 19.3719 18.8929 19.3803 18.9013L19.6745 20.0108V20.0276L19.6829 20.0108L19.9602 18.9013C19.9602 18.9013 19.9603 18.8761 19.9771 18.8677C19.9771 18.8677 19.9939 18.8509 20.0107 18.8425C20.0275 18.8425 20.0443 18.8425 20.0695 18.8341H20.1704C20.1704 18.8341 20.246 18.8341 20.2712 18.8341C20.2964 18.8341 20.3133 18.8341 20.3301 18.8425C20.3469 18.8425 20.3553 18.8509 20.3637 18.8593C20.3637 18.8593 20.3721 18.8761 20.3805 18.8845L20.6831 20.0024V20.0192L20.6915 20.0024L20.9772 18.8929C20.9772 18.8929 20.9772 18.8677 20.9941 18.8593C20.9941 18.8593 21.0109 18.8425 21.0277 18.8341C21.0445 18.8341 21.0697 18.8341 21.0949 18.8257H21.2966C21.2966 18.8257 21.3387 18.8257 21.3555 18.8341C21.3723 18.8341 21.3807 18.8425 21.3891 18.8509C21.3891 18.8509 21.3891 18.8677 21.3891 18.8761H21.4059L21.3807 18.8845Z" fill="#6B46F2"/>
</g>
<defs>
<clipPath id="clip0_347_24">
<rect width="35" height="35" fill="white"/>
</clipPath>
</defs>
</svg>
