<svg width="35" height="35" viewBox="0 0 35 35" fill="none" xmlns="http://www.w3.org/2000/svg">
<g clip-path="url(#clip0_347_24)">
<mask id="mask0_347_24" style="mask-type:luminance" maskUnits="userSpaceOnUse" x="0" y="0" width="35" height="35">
<path d="M35 0H0V35H35V0Z" fill="white"/>
</mask>
<g mask="url(#mask0_347_24)">
<path d="M27.2824 -0.245117H7.92736C3.47181 -0.245117 -0.140137 3.36683 -0.140137 7.82238V27.1774C-0.140137 31.6329 3.47181 35.2449 7.92736 35.2449H27.2824C31.7379 35.2449 35.3499 31.6329 35.3499 27.1774V7.82238C35.3499 3.36683 31.7379 -0.245117 27.2824 -0.245117Z" fill="#F2EFFF"/>
</g>
<path d="M17.0526 7.62305H5.0324C4.88884 7.62305 4.77246 7.73943 4.77246 7.88299V15.9861C4.77246 16.1296 4.88884 16.246 5.0324 16.246H17.0526C17.1961 16.246 17.3125 16.1296 17.3125 15.9861V7.88299C17.3125 7.73943 17.1961 7.62305 17.0526 7.62305Z" fill="#6B46F2"/>
<path d="M16.8825 8.82422H5.23877V15.7889H16.8825V8.82422Z" fill="white"/>
<path d="M8.76988 9.6665H6.58277C6.3402 9.6665 6.14355 9.86315 6.14355 10.1057V11.504C6.14355 11.7466 6.3402 11.9433 6.58277 11.9433H8.76988C9.01245 11.9433 9.2091 11.7466 9.2091 11.504V10.1057C9.2091 9.86315 9.01245 9.6665 8.76988 9.6665Z" fill="#6B46F2"/>
<path d="M12.1585 9.6665H9.99826C9.77054 9.6665 9.58594 9.85111 9.58594 10.0788V11.5309C9.58594 11.7586 9.77054 11.9433 9.99826 11.9433H12.1585C12.3862 11.9433 12.5708 11.7586 12.5708 11.5309V10.0788C12.5708 9.85111 12.3862 9.6665 12.1585 9.6665Z" fill="#6B46F2"/>
<path d="M15.5379 9.6665H13.3777C13.1499 9.6665 12.9653 9.85111 12.9653 10.0788V11.5309C12.9653 11.7586 13.1499 11.9433 13.3777 11.9433H15.5379C15.7656 11.9433 15.9502 11.7586 15.9502 11.5309V10.0788C15.9502 9.85111 15.7656 9.6665 15.5379 9.6665Z" fill="#6B46F2"/>
<path d="M15.6634 12.8579H8.75248C8.59902 12.8579 8.47461 12.9823 8.47461 13.1358V13.2165C8.47461 13.3699 8.59902 13.4943 8.75248 13.4943H15.6634C15.8169 13.4943 15.9413 13.3699 15.9413 13.2165V13.1358C15.9413 12.9823 15.8169 12.8579 15.6634 12.8579Z" fill="#6B46F2"/>
<path d="M7.757 12.8579H6.36764C6.24388 12.8579 6.14355 12.9582 6.14355 13.082V13.2702C6.14355 13.394 6.24388 13.4943 6.36764 13.4943H7.757C7.88076 13.4943 7.98109 13.394 7.98109 13.2702V13.082C7.98109 12.9582 7.88076 12.8579 7.757 12.8579Z" fill="#6B46F2"/>
<path d="M15.6634 13.79H8.75248C8.59902 13.79 8.47461 13.9144 8.47461 14.0679V14.1486C8.47461 14.302 8.59902 14.4265 8.75248 14.4265H15.6634C15.8169 14.4265 15.9413 14.302 15.9413 14.1486V14.0679C15.9413 13.9144 15.8169 13.79 15.6634 13.79Z" fill="#6B46F2"/>
<path d="M7.757 13.79H6.36764C6.24388 13.79 6.14355 13.8904 6.14355 14.0141V14.2024C6.14355 14.3261 6.24388 14.4265 6.36764 14.4265H7.757C7.88076 14.4265 7.98109 14.3261 7.98109 14.2024V14.0141C7.98109 13.8904 7.88076 13.79 7.757 13.79Z" fill="#6B46F2"/>
<path d="M5.53464 8.49261C5.6584 8.49261 5.75873 8.39228 5.75873 8.26852C5.75873 8.14476 5.6584 8.04443 5.53464 8.04443C5.41088 8.04443 5.31055 8.14476 5.31055 8.26852C5.31055 8.39228 5.41088 8.49261 5.53464 8.49261Z" fill="white"/>
<path d="M6.14401 8.49261C6.26777 8.49261 6.3681 8.39228 6.3681 8.26852C6.3681 8.14476 6.26777 8.04443 6.14401 8.04443C6.02025 8.04443 5.91992 8.14476 5.91992 8.26852C5.91992 8.39228 6.02025 8.49261 6.14401 8.49261Z" fill="white"/>
<path d="M6.76266 8.49261C6.88642 8.49261 6.98675 8.39228 6.98675 8.26852C6.98675 8.14476 6.88642 8.04443 6.76266 8.04443C6.6389 8.04443 6.53857 8.14476 6.53857 8.26852C6.53857 8.39228 6.6389 8.49261 6.76266 8.49261Z" fill="white"/>
<path d="M30.7401 20.1538H18.7199C18.5763 20.1538 18.46 20.2702 18.46 20.4138V28.5168C18.46 28.6604 18.5763 28.7768 18.7199 28.7768H30.7401C30.8836 28.7768 31 28.6604 31 28.5168V20.4138C31 20.2702 30.8836 20.1538 30.7401 20.1538Z" fill="#6B46F2"/>
<path d="M30.5787 21.3555H18.9351V28.3202H30.5787V21.3555Z" fill="white"/>
<path d="M22.4579 22.1978H20.2708C20.0282 22.1978 19.8315 22.3944 19.8315 22.637V24.0353C19.8315 24.2779 20.0282 24.4745 20.2708 24.4745H22.4579C22.7004 24.4745 22.8971 24.2779 22.8971 24.0353V22.637C22.8971 22.3944 22.7004 22.1978 22.4579 22.1978Z" fill="#6B46F2"/>
<path d="M25.8548 22.1978H23.6946C23.4668 22.1978 23.2822 22.3824 23.2822 22.6101V24.0622C23.2822 24.2899 23.4668 24.4745 23.6946 24.4745H25.8548C26.0825 24.4745 26.2671 24.2899 26.2671 24.0622V22.6101C26.2671 22.3824 26.0825 22.1978 25.8548 22.1978Z" fill="#6B46F2"/>
<path d="M29.2254 22.1978H27.0652C26.8374 22.1978 26.6528 22.3824 26.6528 22.6101V24.0622C26.6528 24.2899 26.8374 24.4745 27.0652 24.4745H29.2254C29.4531 24.4745 29.6377 24.2899 29.6377 24.0622V22.6101C29.6377 22.3824 29.4531 22.1978 29.2254 22.1978Z" fill="#6B46F2"/>
<path d="M29.3602 25.3887H22.4493C22.2958 25.3887 22.1714 25.5131 22.1714 25.6665V25.7472C22.1714 25.9007 22.2958 26.0251 22.4493 26.0251H29.3602C29.5136 26.0251 29.638 25.9007 29.638 25.7472V25.6665C29.638 25.5131 29.5136 25.3887 29.3602 25.3887Z" fill="#6B46F2"/>
<path d="M21.445 25.3887H20.0556C19.9319 25.3887 19.8315 25.489 19.8315 25.6128V25.801C19.8315 25.9248 19.9319 26.0251 20.0556 26.0251H21.445C21.5687 26.0251 21.6691 25.9248 21.6691 25.801V25.6128C21.6691 25.489 21.5687 25.3887 21.445 25.3887Z" fill="#6B46F2"/>
<path d="M29.3602 26.3208H22.4493C22.2958 26.3208 22.1714 26.4452 22.1714 26.5987V26.6793C22.1714 26.8328 22.2958 26.9572 22.4493 26.9572H29.3602C29.5136 26.9572 29.638 26.8328 29.638 26.6793V26.5987C29.638 26.4452 29.5136 26.3208 29.3602 26.3208Z" fill="#6B46F2"/>
<path d="M21.445 26.3208H20.0556C19.9319 26.3208 19.8315 26.4211 19.8315 26.5449V26.7331C19.8315 26.8569 19.9319 26.9572 20.0556 26.9572H21.445C21.5687 26.9572 21.6691 26.8569 21.6691 26.7331V26.5449C21.6691 26.4211 21.5687 26.3208 21.445 26.3208Z" fill="#6B46F2"/>
<path d="M19.2309 21.0239C19.3547 21.0239 19.455 20.9235 19.455 20.7998C19.455 20.676 19.3547 20.5757 19.2309 20.5757C19.1072 20.5757 19.0068 20.676 19.0068 20.7998C19.0068 20.9235 19.1072 21.0239 19.2309 21.0239Z" fill="white"/>
<path d="M19.8315 21.0239C19.9553 21.0239 20.0556 20.9235 20.0556 20.7998C20.0556 20.676 19.9553 20.5757 19.8315 20.5757C19.7078 20.5757 19.6074 20.676 19.6074 20.7998C19.6074 20.9235 19.7078 21.0239 19.8315 21.0239Z" fill="white"/>
<path d="M20.459 21.0239C20.5827 21.0239 20.683 20.9235 20.683 20.7998C20.683 20.676 20.5827 20.5757 20.459 20.5757C20.3352 20.5757 20.2349 20.676 20.2349 20.7998C20.2349 20.9235 20.3352 21.0239 20.459 21.0239Z" fill="white"/>
<path d="M24.9317 14.4979C24.8152 14.8116 24.6986 15.1253 24.5642 15.457L24.1787 16.4878L23.9278 17.1421C23.874 17.2945 23.7037 17.3752 23.5513 17.3214C23.5065 17.3035 23.4617 17.2766 23.4348 17.2407L22.9866 16.7477L21.8213 15.448C21.7407 15.3404 21.651 15.2508 21.5614 15.1522C21.4986 15.0626 21.5076 14.946 21.5883 14.8743C21.6062 14.8654 21.6152 14.8564 21.6241 14.8474L21.7048 14.8205L22.2426 14.7219H22.3233V14.5337L22.2874 14.1393L22.2516 13.9331C22.2337 13.8077 22.1978 13.6911 22.153 13.5656C22.0992 13.3774 22.0365 13.1981 21.9647 13.0189C21.911 12.8934 21.8482 12.7679 21.7765 12.6424C21.5793 12.257 21.3373 11.8895 21.0505 11.5668C20.9339 11.4323 20.7995 11.2889 20.674 11.1544C20.6292 11.1096 20.6292 11.0379 20.665 10.9931C20.6919 10.9483 20.7457 10.9303 20.7905 10.9483C20.7905 10.9483 20.7995 10.9483 20.8084 10.9572L21.3552 11.2261L21.5614 11.3606C21.902 11.5847 22.2336 11.8357 22.5205 12.1225C22.9776 12.5528 23.3631 13.0547 23.6589 13.6105C23.7754 13.8166 23.865 14.0407 23.9367 14.2648C23.9547 14.3007 23.9726 14.3455 23.9815 14.3813H24.0622L24.5911 14.2738C24.6897 14.2379 24.7972 14.2738 24.86 14.3724L24.8869 14.4799L24.9317 14.4979Z" fill="#6B46F2"/>
<path d="M11.4232 22.2252L11.3425 22.2521L10.8136 22.4762C10.7599 22.4941 10.6882 22.4941 10.6344 22.4673C10.5537 22.4314 10.5178 22.3507 10.5358 22.2701L10.5985 21.8577C10.6882 21.311 10.7688 20.7642 10.8495 20.2264L10.9571 19.5093C10.984 19.3479 11.1274 19.2404 11.2887 19.2583C11.3066 19.2583 11.3156 19.2583 11.3335 19.2673L11.4321 19.321C11.701 19.5182 11.9789 19.7065 12.2389 19.9126L13.6372 20.9434L13.682 20.9793C13.7627 21.051 13.7716 21.1765 13.6999 21.2572C13.682 21.2751 13.6641 21.293 13.6461 21.302L13.5475 21.3378L13.0814 21.535L13.0008 21.5619C13.0097 21.6157 13.0187 21.6785 13.0366 21.7322C13.0725 21.8757 13.1262 22.0191 13.18 22.1535C13.2159 22.2432 13.2517 22.3328 13.2966 22.4224C13.422 22.7182 13.5834 22.9961 13.7806 23.256C14.0585 23.6415 14.3901 23.9821 14.7576 24.2779C14.9369 24.4303 15.1431 24.5558 15.3403 24.6992C15.3761 24.7261 15.394 24.7619 15.403 24.7978C15.403 24.8605 15.3582 24.9143 15.2954 24.9233H15.2506C15.0982 24.8964 14.9548 24.8605 14.8114 24.8157C14.668 24.7709 14.5335 24.7261 14.3991 24.6633C14.0495 24.5289 13.7089 24.3496 13.3862 24.1524C13.0814 23.9731 12.7946 23.758 12.5257 23.525C12.1851 23.2292 11.8803 22.8885 11.6204 22.5031C11.5666 22.4135 11.5038 22.3149 11.4232 22.2073V22.2252Z" fill="#6B46F2"/>
</g>
<defs>
<clipPath id="clip0_347_24">
<rect width="35" height="35" fill="white"/>
</clipPath>
</defs>
</svg>
