<svg width="70" height="70" viewBox="0 0 70 70" fill="none" xmlns="http://www.w3.org/2000/svg">
<path d="M57.663 1.1521H12.337C6.15967 1.1521 1.15198 6.15979 1.15198 12.3371V57.6631C1.15198 63.8404 6.15967 68.8481 12.337 68.8481H57.663C63.8403 68.8481 68.848 63.8404 68.848 57.6631V12.3371C68.848 6.15979 63.8403 1.1521 57.663 1.1521Z" fill="white"/>
<path d="M33.0038 10.0375C44.614 9.43889 55.0994 17.6567 56.714 29.1581C56.1153 29.0311 55.5167 28.9041 54.918 28.7771C54.5371 26.3462 53.5756 24.0605 52.342 21.9561H45.5755C45.775 22.8088 45.9746 23.6614 46.1741 24.5321C46.2648 25.3848 46.1015 24.6591 44.3237 24.641C44.0879 23.7521 43.8521 22.8632 43.6162 21.9561H35.3077C35.2895 24.1875 35.2714 26.4369 35.2533 28.6683C35.1626 28.8678 33.6024 29.1581 33.5117 28.9948C33.4936 26.6365 33.4755 24.2963 33.4573 21.938C30.6636 21.9561 27.888 21.9743 25.0943 21.9924C24.1147 25.1671 23.6612 28.4869 23.5705 31.8248C25.4027 31.8429 27.2531 31.8611 29.0854 31.8792C29.1035 32.4416 29.1216 33.004 29.1398 33.5663C27.2894 33.6026 25.4209 33.6389 23.5705 33.6752C23.6794 37.0131 24.0785 40.4055 25.1488 43.562H30.5003C30.6455 44.1425 30.7906 44.723 30.9357 45.3035H25.8018C26.5456 48.1154 29.5389 52.4692 32.3507 53.3944C34.1467 53.993 34.7997 53.0315 35.7431 55.4624C18.5273 56.3695 6.40919 38.7728 13.8107 22.9902C14.1735 22.2101 16.1146 18.8178 16.7132 18.5638C17.4933 18.2191 18.3822 19.0354 17.6928 20.1965H23.8063C24.8041 17.4572 26.2372 14.9356 28.1783 12.7587C24.532 13.3936 20.7587 17.0218 20.3051 17.1306C19.5069 17.3121 18.872 16.5501 19.2711 15.7701C20.2326 15.0263 21.194 14.2825 22.1737 13.5387C25.2576 11.5977 29.3393 10.2371 32.9857 10.0375H33.0038ZM33.1126 11.9061C32.3144 12.2689 31.5162 12.6317 30.6999 12.9945C28.6681 14.3914 26.4368 17.8019 25.7837 20.2146C28.3597 20.1965 30.9176 20.1783 33.4936 20.1602V11.9605C33.3666 11.9423 33.2396 11.9242 33.1126 11.9061ZM35.2895 11.9061C35.2714 14.6635 35.2533 17.4028 35.2351 20.1602C37.8111 20.1783 40.369 20.1965 42.945 20.2146C41.8928 16.8767 39.0447 12.4503 35.2895 11.9061ZM40.5323 12.7768C42.4552 14.9537 43.9428 17.4572 44.9042 20.2146C46.9542 20.1965 49.0222 20.1783 51.0722 20.1602C48.5324 16.7134 44.6684 13.9378 40.5323 12.7768ZM16.3867 21.9561C14.5545 24.9312 13.5749 28.3599 13.3753 31.8429C16.169 31.8611 18.9446 31.8792 21.7383 31.8974C21.9015 28.5594 22.3006 25.2215 23.2077 22.0106C20.9401 21.9924 18.6543 21.9743 16.3867 21.9561ZM13.4297 33.657C13.4842 37.1582 14.627 40.5324 16.3323 43.5438C18.5999 43.562 20.8857 43.5801 23.1533 43.5983C22.4458 40.351 21.7927 37.0675 21.7927 33.7115C18.999 33.6933 16.2234 33.6752 13.4297 33.657ZM17.6928 45.3398C19.8335 48.6596 24.3687 51.8524 28.2327 52.7231C26.1647 50.6732 24.8404 48.0428 23.8063 45.3398H17.6928Z" fill="#6B46F2"/>
<path d="M44.6866 27.3076H45.0131C48.7864 29.7748 53.1221 31.6252 57.6936 31.8973C57.7843 31.988 57.875 32.0787 57.9657 32.1694C57.5485 42.0199 55.172 54.8093 45.0131 58.9998C34.6909 55.5893 32.0061 41.7297 31.7339 32.1694L32.0061 31.8973C36.5232 31.607 40.9495 29.7748 44.6866 27.3076ZM44.7954 29.5027C41.4393 31.607 37.666 33.0039 33.7657 33.6569C33.8564 40.75 36.6864 52.6142 43.3804 56.2787C44.8136 57.0587 45.1582 57.1676 47.317 55.6256C53.4124 51.2718 55.6074 40.7863 56.0065 33.7114C52.0336 33.022 48.2603 31.5526 44.8136 29.5027H44.7954Z" fill="#6B46F2"/>
<path d="M44.6866 31.5708H45.0132C47.825 33.2579 50.9452 34.3826 54.138 35.1264C53.3398 42.2921 51.6164 51.163 44.9043 55.0633C38.301 51.6709 36.0697 41.9293 35.6161 35.072C38.809 34.4189 41.8748 33.2035 44.6866 31.5708ZM39.1173 34.5278C37.9563 34.7455 37.2488 36.1242 37.4302 37.2126C37.8293 39.5709 41.0221 38.4099 40.7138 39.5165C40.5142 40.1877 37.9926 39.3351 37.5391 40.1696C36.5413 42.0744 41.004 41.8748 41.9111 40.8227C42.292 40.3873 42.5278 39.5165 42.4553 38.9723C42.1106 36.487 38.8634 37.6662 39.1718 36.5596C39.3895 35.8158 42.6911 37.0312 42.4553 35.2534C42.3283 34.3282 39.8248 34.4189 39.1173 34.5459V34.5278ZM44.3601 34.5278C43.1991 34.7455 42.4916 36.1242 42.673 37.2126C43.0721 39.5709 46.2649 38.4099 45.9565 39.5165C45.7569 40.1877 43.2353 39.3351 42.7818 40.1696C41.7841 42.0744 46.2467 41.8748 47.1538 40.8227C47.5347 40.3873 47.7706 39.5165 47.698 38.9723C47.3533 36.487 44.1061 37.6662 44.4145 36.5596C44.6322 35.8158 47.9338 37.0312 47.698 35.2534C47.571 34.3282 45.0676 34.4189 44.3601 34.5459V34.5278ZM48.5144 34.5278C48.3148 34.7273 48.1153 34.9269 47.9157 35.1264V40.1515C48.2967 41.9474 52.1425 41.9293 52.2877 40.8045C52.5054 39.2263 49.8205 39.9701 49.6572 39.7161C49.3851 38.6458 50.4554 34.1287 48.5144 34.5278ZM44.4689 42.4009C43.0177 42.5642 41.3668 44.342 41.4575 45.8477C41.4031 45.9384 40.8045 45.7933 40.4779 46.5008C40.6775 47.4441 39.97 50.8727 41.0766 51.1449H48.6232C49.7298 50.8727 49.0223 47.4441 49.2218 46.5008C48.9316 45.8659 48.4055 45.9203 48.3511 45.8477C48.1697 45.6119 47.7887 42.0381 44.4689 42.4009Z" fill="#6B46F2"/>
<path d="M44.36 44.1424C45.5391 43.8885 46.5913 44.6322 46.5913 45.8296C45.4847 45.8477 44.3781 45.8658 43.2534 45.884C42.945 45.2672 43.7795 44.2513 44.3418 44.1424H44.36Z" fill="#6B46F2"/>
<path d="M42.292 47.6436H47.4259C47.444 48.2059 47.4622 48.7683 47.4803 49.3307C45.7569 49.3488 44.0154 49.3669 42.292 49.3851V47.6436Z" fill="#6B46F2"/>
</svg>
