<svg width="70" height="70" viewBox="0 0 70 70" fill="none" xmlns="http://www.w3.org/2000/svg">
<path d="M57.663 1.1521H12.337C6.15967 1.1521 1.15198 6.15979 1.15198 12.3371V57.6631C1.15198 63.8404 6.15967 68.8481 12.337 68.8481H57.663C63.8403 68.8481 68.848 63.8404 68.848 57.6631V12.3371C68.848 6.15979 63.8403 1.1521 57.663 1.1521Z" fill="white"/>
<path d="M37.8437 13.55C43.3687 14.005 48.4225 17.6613 50.3237 22.8775C57.1487 25.9975 58.5625 35.1138 52.9562 40.005C51.0387 41.6788 46.8137 43.4013 47.3012 41.2238C47.4637 40.4763 49.43 40.655 51.5262 38.9975C55.6537 35.7313 55.8325 29.3288 51.8675 25.8513C50.925 25.2825 49.9987 24.7138 49.0562 24.1288C46.2775 15.9225 36.43 12.4775 29.2637 17.645C24.5187 21.0575 24.275 26.095 24.0312 26.5663C23.5437 27.5088 22.195 26.4688 19.725 27.3625C14.7687 29.1663 13.5825 36.2513 18.0512 39.5013C20.2125 41.0775 22.1462 40.3625 21.7725 41.89C21.4475 43.2713 17.8237 41.5326 16.54 40.4276C14.8662 38.9813 13.8912 36.9013 13.5662 34.74V33.1475C14.1025 28.4675 17.905 25.185 22.6012 25.2338C23.7387 18.88 29.4262 14.005 35.8287 13.55H37.8437Z" fill="#6B46F2"/>
<path d="M27.7687 27.46H42.2475C45.855 27.8987 47.2037 32.7087 44.295 34.9512C46.375 36.95 46.4887 39.7125 44.295 41.6462C46.0337 43.255 46.505 45.7575 44.9612 47.675C42.9462 50.1775 38.7375 48.9262 35.8775 49.2187C35.8775 49.9825 35.845 50.7462 35.8287 51.5262C39.4037 53.2487 36.6087 57.75 33.7 56.0925C31.8962 55.0687 32.205 52.1762 34.155 51.5262C34.155 50.7625 34.1225 49.9987 34.1062 49.2187C31.295 48.9262 27.1025 50.1287 25.1037 47.7562C23.5112 45.8712 23.9012 43.1737 25.77 41.6462C23.4787 39.8912 23.6087 36.7712 25.77 34.9512C22.7637 32.8225 24.1287 27.915 27.7362 27.46H27.7687ZM27.9312 29.1337C25.1525 29.54 25.1687 33.7487 27.9312 34.155H42.085C44.8962 33.7487 44.8962 29.54 42.085 29.1337H27.9312ZM27.9312 35.8287C25.1525 36.2187 25.1525 40.4437 27.9312 40.85H42.085C44.8962 40.4437 44.8962 36.235 42.085 35.8287H27.9312ZM27.9312 42.5237C25.1687 42.9137 25.1037 47.155 28.0125 47.545H42.0687C44.88 47.1387 44.88 42.93 42.0687 42.5237H27.915H27.9312ZM34.8862 53.07C33.895 53.1837 34.025 54.8737 35.13 54.7437C36.1212 54.63 35.9912 52.94 34.8862 53.07Z" fill="#6B46F2"/>
<path d="M28.5162 30.7263H35.6337C36.3325 30.9051 36.43 32.2213 35.2925 32.4001H28.8412C27.6875 32.1888 27.9475 30.8726 28.5 30.7263H28.5162Z" fill="#6B46F2"/>
<path d="M38.055 30.7264C39.485 30.3852 39.5175 32.6602 38.055 32.3189C37.34 32.1564 37.34 30.8889 38.055 30.7264Z" fill="#6B46F2"/>
<path d="M40.9962 30.7262C42.15 30.45 42.4587 32.01 41.5812 32.3187C40.4275 32.725 40.0375 30.9537 40.9962 30.7262Z" fill="#6B46F2"/>
<path d="M28.5162 37.4214H35.6337C36.3325 37.6001 36.43 38.9164 35.2925 39.0951H28.8412C27.6875 38.8839 27.9475 37.5676 28.5 37.4214H28.5162Z" fill="#6B46F2"/>
<path d="M38.055 37.4212C39.485 37.08 39.5175 39.355 38.055 39.0137C37.34 38.8512 37.34 37.5837 38.055 37.4212Z" fill="#6B46F2"/>
<path d="M40.9962 37.4213C42.215 37.1451 42.3937 38.8026 41.5812 39.0138C40.3137 39.3388 40.1187 37.6326 40.9962 37.4213Z" fill="#6B46F2"/>
<path d="M28.5162 44.1162H35.6337C36.3325 44.295 36.43 45.6112 35.2925 45.79H28.8412C27.6875 45.5787 27.9475 44.2625 28.5 44.1162H28.5162Z" fill="#6B46F2"/>
<path d="M38.055 44.1163C39.485 43.775 39.5175 46.05 38.055 45.7088C37.34 45.5463 37.34 44.2788 38.055 44.1163Z" fill="#6B46F2"/>
<path d="M40.9962 44.1164C42.215 43.8402 42.3937 45.4977 41.5812 45.7089C40.3137 46.0339 40.1187 44.3277 40.9962 44.1164Z" fill="#6B46F2"/>
<path d="M13.5662 54.0776V53.7363C13.7125 53.5413 13.875 53.3463 14.0212 53.1513C14.7362 52.8426 27.5087 53.2163 29.5075 53.0701C30.32 53.3626 30.2875 54.5488 29.5075 54.7438H14.2812C13.9237 54.6138 13.745 54.4351 13.5662 54.0776Z" fill="#6B46F2"/>
<path d="M34.8862 53.0701C36.0075 52.9401 36.1375 54.6301 35.13 54.7439C34.0087 54.8739 33.8787 53.1839 34.8862 53.0701Z" fill="#6B46F2"/>
<path d="M40.4112 53.0701H55.735C56.6775 53.4276 56.6775 54.3863 55.735 54.7438H40.4112C39.5987 54.5488 39.6312 53.2488 40.4112 53.0701Z" fill="#6B46F2"/>
</svg>
