<?xml version="1.0" encoding="UTF-8"?>
<svg id="Layer_1" xmlns="http://www.w3.org/2000/svg" viewBox="0 0 20 20">
  <defs>
    <style>
      .cls-1 {
        fill: #f2efff;
      }

      .cls-2 {
        fill: #6b46f2;
      }

      .cls-3 {
        fill: none;
        stroke: #6b46f2;
        stroke-miterlimit: 10;
        stroke-width: .25px;
      }
    </style>
  </defs>
  <rect class="cls-1" x="-.08" y="-.14" width="20.28" height="20.28" rx="4.61" ry="4.61"/>
  <g>
    <path class="cls-2" d="M1.72,3.17v13.66h16.57V3.17H1.72ZM17.61,16.15H2.39V6.43h15.21v9.72ZM2.39,5.75v-1.9h15.21v1.9H2.39Z"/>
    <rect class="cls-2" x="11.7" y="4.44" width="1.05" height=".68"/>
    <rect class="cls-2" x="13.74" y="4.44" width="1.05" height=".68"/>
    <rect class="cls-2" x="15.78" y="4.44" width="1.05" height=".68"/>
    <rect class="cls-2" x="9.56" y="12.98" width=".18" height="2.34"/>
    <g>
      <circle class="cls-3" cx="9.94" cy="11.27" r="3.99"/>
      <path class="cls-3" d="M9.94,15.35c-2.25,0-4.08-1.83-4.08-4.08s1.83-4.08,4.08-4.08,4.08,1.83,4.08,4.08-1.83,4.08-4.08,4.08ZM9.94,7.37c-2.15,0-3.9,1.75-3.9,3.9s1.75,3.9,3.9,3.9,3.9-1.75,3.9-3.9-1.75-3.9-3.9-3.9Z"/>
    </g>
    <rect class="cls-2" x="9.79" y="7.34" width=".18" height="2.3"/>
    <path class="cls-2" d="M9.28,15.3c-2.9-5.23-.01-8.02.02-8.04l.12.13s-2.81,2.73.02,7.82l-.16.09Z"/>
    <path class="cls-2" d="M8.44,15.06c-3.21-4.86-.45-7.36-.42-7.39l.12.14s-2.67,2.43.46,7.15l-.15.1Z"/>
    <path class="cls-2" d="M13.73,10.31s-2.75-2.57-7.42-.55l-.07-.17c4.78-2.08,7.59.56,7.62.58l-.13.13Z"/>
    <path class="cls-2" d="M9.95,14.45c-.94,0-2.04-.22-3.3-.83l.08-.16c4.24,2.06,6.69-.46,6.71-.48l.13.12s-1.31,1.35-3.63,1.35Z"/>
    <path class="cls-2" d="M10.56,15.23l-.15-.1c2.97-4.6-.32-7.71-.36-7.74l.12-.13s3.44,3.25.39,7.97Z"/>
    <path class="cls-2" d="M11.71,14.93l-.14-.11c3.27-4.26-.18-7.12-.33-7.24l.11-.14s3.74,3.09.36,7.49Z"/>
    <ellipse class="cls-1" cx="9.94" cy="11.46" rx="3.54" ry="1.89" transform="translate(-.39 .35) rotate(-1.96)"/>
    <g>
      <path class="cls-2" d="M8.97,10.92s0,.02,0,.03c0,.01,0,.03-.01.06l-.29.97s0,.03-.02.03c0,0-.02.02-.03.02-.01,0-.03,0-.06,0-.06,0-.13,0-.19,0-.03,0-.04,0-.06,0-.01,0-.02-.01-.03-.02s-.01-.02-.01-.03l-.18-.65h0s0,0,0,0l-.17.65s0,.03-.01.03c0,0-.02.02-.03.02-.01,0-.03,0-.06,0-.07,0-.13,0-.19,0-.02,0-.04,0-.06,0s-.02-.01-.03-.02-.01-.02-.01-.03l-.28-.97s-.01-.04-.01-.06c0-.01,0-.02,0-.03,0,0,0-.02,0-.02,0,0,.01-.01.02-.01s.03,0,.05,0h.15s.04,0,.05,0c.01,0,.02,0,.02.02s0,.02,0,.03l.21.79h0s0,0,0,0l.2-.79s0-.02.01-.03c0,0,.01-.01.02-.02.01,0,.03,0,.04,0h.07s.05,0,.07,0,.03,0,.04,0c.01,0,.02,0,.02.01,0,0,0,.01,0,.02l.21.79h0s0,0,0,0l.2-.79s0-.02,0-.03c0,0,.01-.01.02-.02.01,0,.03,0,.05,0h.14s.03,0,.04,0c.01,0,.02,0,.02.01,0,0,0,.01,0,.02h.01ZM10.82,10.92s0,.02,0,.03c0,.01,0,.03-.01.06l-.29.97s0,.03-.02.03c0,0-.02.02-.03.02-.01,0-.03,0-.06,0-.06,0-.13,0-.19,0-.03,0-.04,0-.06,0-.01,0-.02-.01-.03-.02,0,0-.01-.02-.01-.03l-.18-.65h0s0,0,0,0l-.17.65s0,.03-.01.03c0,0-.02.02-.03.02-.01,0-.03,0-.06,0-.07,0-.13,0-.19,0-.02,0-.04,0-.06,0s-.02-.01-.03-.02-.01-.02-.01-.03l-.28-.97s-.01-.04-.01-.06c0-.01,0-.02,0-.03,0,0,0-.02,0-.02,0,0,.01-.01.02-.01s.03,0,.05,0h.15s.04,0,.05,0c.01,0,.02,0,.02.02,0,0,0,.02,0,.03l.21.79h0s0,0,0,0l.2-.79s0-.02.01-.03c0,0,.01-.01.02-.02.01,0,.03,0,.04,0h.07s.05,0,.07,0,.03,0,.04,0c.01,0,.02,0,.02.01,0,0,0,.01,0,.02l.21.79h0s0,0,0,0l.2-.79s0-.02,0-.03c0,0,.01-.01.02-.02.01,0,.03,0,.05,0h.14s.03,0,.04,0c.01,0,.02,0,.02.01,0,0,0,.01,0,.02h.01Z"/>
      <path class="cls-2" d="M12.67,10.92s0,.02,0,.03c0,.01,0,.03-.01.06l-.29.97s0,.03-.02.03c0,0-.02.02-.03.02-.01,0-.03,0-.06,0-.06,0-.13,0-.19,0-.03,0-.04,0-.06,0-.01,0-.02-.01-.03-.02,0,0-.01-.02-.01-.03l-.18-.65h0s0,0,0,0l-.17.65s0,.03-.01.03c0,0-.02.02-.03.02-.01,0-.03,0-.06,0-.07,0-.13,0-.19,0-.02,0-.04,0-.06,0s-.02-.01-.03-.02c0,0-.01-.02-.01-.03l-.28-.97s-.01-.04-.01-.06c0-.01,0-.02,0-.03,0,0,0-.02,0-.02,0,0,.01-.01.02-.01s.03,0,.05,0h.15s.04,0,.05,0c.01,0,.02,0,.02.02,0,0,0,.02,0,.03l.21.79h0s0,0,0,0l.2-.79s0-.02.01-.03c0,0,.01-.01.02-.02.01,0,.03,0,.04,0h.07s.05,0,.07,0,.03,0,.04,0c.01,0,.02,0,.02.01,0,0,0,.01,0,.02l.21.79h0s0,0,0,0l.2-.79s0-.02,0-.03c0,0,.01-.01.02-.02.01,0,.03,0,.05,0h.14s.03,0,.04,0c.01,0,.02,0,.02.01,0,0,0,.01,0,.02h.01Z"/>
    </g>
  </g>
</svg>