<svg width="70" height="70" viewBox="0 0 70 70" fill="none" xmlns="http://www.w3.org/2000/svg">
<path d="M57.663 1.1521H12.337C6.15967 1.1521 1.15198 6.15979 1.15198 12.3371V57.6631C1.15198 63.8404 6.15967 68.8481 12.337 68.8481H57.663C63.8403 68.8481 68.848 63.8404 68.848 57.6631V12.3371C68.848 6.15979 63.8403 1.1521 57.663 1.1521Z" fill="white"/>
<path d="M20.3715 15.9856C22.5688 16.1591 27.8691 16.3325 29.064 18.2214C29.064 23.9649 29.0833 29.7085 29.1026 35.4329C29.0448 35.7605 28.5436 36.1845 28.2738 36.358C26.1537 37.6493 20.3137 37.8806 17.7889 37.8035C15.8422 37.7457 10.0022 37.3602 9.03855 35.5678C9.03855 29.8242 9.01927 24.0806 9 18.3563C9.15419 17.4697 11.5634 16.6602 11.9103 16.7565C12.0645 16.7951 12.2187 17.1613 11.9103 17.354C11.7947 17.4119 9.94442 17.8359 9.67458 18.3948C9.28911 19.2043 12.5464 19.8982 13.0668 19.9945C16.5939 20.6499 23.1084 20.6499 26.5392 19.6476C28.7942 18.9923 29.276 18.2599 26.7126 17.4697C23.9179 16.6216 19.0802 16.506 16.1506 16.6987C15.2062 16.7951 14.281 16.8915 13.3366 16.9878C13.1053 16.93 13.0475 16.4674 13.4715 16.3518C14.3581 16.2554 15.2254 16.1591 16.112 16.0627C16.7095 16.0434 17.2877 16.0049 17.8852 15.9856H20.3908H20.3715ZM9.65531 19.5127C9.65531 21.0739 9.65531 22.6158 9.63604 24.177C9.77095 24.7359 11.9296 25.3141 12.4693 25.4298C16.0928 26.22 22.9157 26.2393 26.4813 25.2177C26.8861 25.1021 28.3509 24.601 28.4665 24.177C28.4665 22.6158 28.4665 21.0739 28.4473 19.5127C25.4598 21.2281 18.6176 21.2473 15.1869 20.9197C13.433 20.7462 11.1779 20.3993 9.65531 19.5127ZM9.65531 25.1021C9.65531 26.6633 9.65531 28.2052 9.63604 29.7664C9.77095 30.2868 11.8332 30.865 12.3344 30.9806C15.9578 31.8094 23.0699 31.8287 26.6163 30.7686C26.9825 30.653 28.3702 30.1518 28.4665 29.7664C28.4665 28.2052 28.4665 26.6633 28.4473 25.1021C26.6355 26.1236 23.783 26.4705 21.7207 26.5862C18.5791 26.7789 12.3922 26.6633 9.65531 25.1021ZM9.65531 30.6915C9.65531 32.2334 9.65531 33.7753 9.63604 35.3172C9.77095 35.8954 11.8525 36.4544 12.3922 36.57C15.6495 37.3024 21.0269 37.3217 24.3227 36.8206C25.0551 36.7049 28.2931 36.0882 28.4858 35.3172C28.4858 33.7753 28.4858 32.2334 28.4665 30.6915C27.1366 31.4239 25.3635 31.7708 23.8601 31.9636C20.2752 32.4261 12.8933 32.4647 9.67458 30.6915H9.65531Z" fill="#6B46F2"/>
<path d="M24.7468 21.7677C26.6549 21.4979 26.6934 24.5431 24.7082 24.2347C23.4169 24.042 23.4554 21.9411 24.7468 21.7677ZM24.8239 22.423C24.2264 22.5386 24.2264 23.5023 24.7853 23.618C25.8454 23.83 25.7876 22.2303 24.8239 22.423Z" fill="#6B46F2"/>
<path d="M12.1224 22.5771C12.8934 22.7121 13.6643 22.8663 14.416 23.0012C16.2277 23.2325 18.0973 23.2903 19.909 23.2517L22.3375 23.1168C22.5688 23.1746 22.6459 23.6565 22.299 23.7529L20.0054 23.8878C18.1551 23.9263 15.3026 23.8107 13.4909 23.5023C12.6043 23.3481 11.7562 23.271 11.8526 22.8084C11.949 22.7313 12.0453 22.6542 12.1224 22.5771Z" fill="#6B46F2"/>
<path d="M24.7468 27.2804C26.6549 27.0105 26.6934 30.0558 24.7082 29.7474C23.4169 29.5547 23.4554 27.4538 24.7468 27.2804ZM24.8239 27.9164C24.2264 28.0321 24.2264 28.9957 24.7853 29.1114C25.8454 29.3234 25.7876 27.7237 24.8239 27.9164Z" fill="#6B46F2"/>
<path d="M12.0838 28.0896C12.9126 28.2245 13.7221 28.3787 14.5509 28.5136C15.9964 28.6871 17.6154 28.7642 19.061 28.7642C20.1596 28.7256 21.2582 28.6871 22.3375 28.6293C22.6459 28.7063 22.6266 29.1882 22.2604 29.2653C21.7978 29.2846 21.3545 29.3231 20.892 29.3424C19.5043 29.4002 17.2107 29.3617 15.823 29.2653C15.2255 29.2267 12.45 28.8605 12.0646 28.7063C11.6791 28.5329 11.814 28.1089 12.0646 28.0703L12.0838 28.0896Z" fill="#6B46F2"/>
<path d="M24.8238 32.773C26.7511 32.6188 26.5777 35.6448 24.6503 35.2401C23.3397 34.9703 23.4746 32.8694 24.8238 32.773ZM24.8623 33.4091C24.1492 33.5054 24.2456 34.6811 24.9972 34.6426C25.826 34.6041 25.7104 33.2934 24.8623 33.4091Z" fill="#6B46F2"/>
<path d="M12.0838 33.6597C13.1631 33.8331 14.2425 34.0066 15.3218 34.1801C16.6517 34.2379 17.9623 34.2957 19.2922 34.3535C19.4849 34.4113 19.5813 34.8161 19.2922 34.951C18.3092 34.951 17.3263 34.9317 16.3433 34.9125C15.6687 34.8739 12.5271 34.5077 12.0838 34.315C11.679 34.1415 11.8525 33.7175 12.0838 33.6789V33.6597Z" fill="#6B46F2"/>
<path d="M21.6629 34.2183C22.1448 34.2183 22.8964 34.1605 22.3953 34.8158C22.0677 34.8158 20.1981 35.2206 20.5836 34.4496C20.68 34.2569 21.4316 34.2183 21.6629 34.2183Z" fill="#6B46F2"/>
<path d="M51.6529 32.9851C53.8501 33.1586 59.1504 33.332 60.3454 35.2209C60.3454 40.9645 60.3647 46.7081 60.3839 52.4324C60.3261 52.76 59.825 53.184 59.5552 53.3575C57.4351 54.6489 51.5951 54.8801 49.0702 54.803C47.1236 54.7452 41.2836 54.3598 40.3199 52.5673C40.3199 46.8237 40.3006 41.0801 40.2814 35.3558C40.4356 34.4692 42.8448 33.6597 43.1917 33.7561C43.3459 33.7946 43.5001 34.1608 43.1917 34.3535C43.0761 34.4114 41.2258 34.8354 40.956 35.3943C40.5705 36.2038 43.8278 36.8977 44.3481 36.9941C47.8753 37.6494 54.3898 37.6494 57.8205 36.6471C60.0756 35.9918 60.5574 35.2594 57.994 34.4692C55.1993 33.6211 50.3616 33.5055 47.432 33.6982C46.4875 33.7946 45.5624 33.891 44.618 33.9873C44.3867 33.9295 44.3289 33.467 44.7529 33.3513C45.6395 33.2549 46.5068 33.1586 47.3934 33.0622C47.9909 33.0429 48.5691 33.0044 49.1666 32.9851H51.6722H51.6529ZM40.9367 36.5122C40.9367 38.0734 40.9367 39.6153 40.9174 41.1765C41.0523 41.7354 43.211 42.3136 43.7507 42.4293C47.3741 43.2195 54.1971 43.2388 57.7627 42.2173C58.1675 42.1016 59.6323 41.6005 59.7479 41.1765C59.7479 39.6153 59.7479 38.0734 59.7286 36.5122C56.7412 38.2276 49.899 38.2469 46.4683 37.9192C44.7143 37.7457 42.4593 37.3988 40.9367 36.5122ZM40.9367 42.1016C40.9367 43.6628 40.9367 45.2047 40.9174 46.7659C41.0523 47.2863 43.1146 47.8645 43.6157 47.9801C47.2392 48.8089 54.3512 48.8282 57.8976 47.7681C58.2638 47.6525 59.6515 47.1513 59.7479 46.7659C59.7479 45.2047 59.7479 43.6628 59.7286 42.1016C57.9169 43.1231 55.0644 43.4701 53.0021 43.5857C49.8605 43.7784 43.6736 43.6628 40.9367 42.1016ZM40.9367 47.6717C40.9367 49.2136 40.9367 50.7556 40.9174 52.2975C41.0523 52.8757 43.1339 53.4346 43.6736 53.5503C46.9308 54.2827 52.3082 54.3019 55.604 53.8008C56.3364 53.6852 59.5744 53.0684 59.7672 52.2975C59.7672 50.7556 59.7672 49.2136 59.7479 47.6717C58.418 48.4041 56.6448 48.7511 55.1415 48.9438C51.5565 49.4064 44.1747 49.4449 40.956 47.6717H40.9367Z" fill="#6B46F2"/>
<path d="M56.0281 38.7672C57.9362 38.4974 57.9748 41.5426 55.9896 41.2342C54.6982 41.0415 54.7368 38.9407 56.0281 38.7672ZM56.1052 39.4225C55.5077 39.5381 55.5077 40.5018 56.0666 40.6175C57.1267 40.8295 57.0689 39.2298 56.1052 39.4225Z" fill="#6B46F2"/>
<path d="M43.4038 39.5764C44.1748 39.7113 44.9457 39.8655 45.6974 40.0004C47.5091 40.2317 49.3787 40.2895 51.1904 40.251L53.6189 40.1161C53.8502 40.1739 53.9273 40.6557 53.5804 40.7521L51.2868 40.887C49.4365 40.9256 46.584 40.8099 44.7722 40.5016C43.8856 40.3474 43.0376 40.2703 43.134 39.8077C43.2303 39.7306 43.3267 39.6535 43.4038 39.5764Z" fill="#6B46F2"/>
<path d="M56.0281 44.2796C57.9362 44.0098 57.9748 47.0551 55.9896 46.7467C54.6982 46.554 54.7368 44.4531 56.0281 44.2796ZM56.1052 44.9157C55.5077 45.0313 55.5077 45.995 56.0666 46.1107C57.1267 46.3227 57.0689 44.7229 56.1052 44.9157Z" fill="#6B46F2"/>
<path d="M43.3652 45.0891C44.194 45.224 45.0035 45.3782 45.8323 45.5131C47.2778 45.6866 48.8968 45.7637 50.3423 45.7637C51.4409 45.7251 52.5395 45.6866 53.6189 45.6288C53.9273 45.7059 53.908 46.1877 53.5418 46.2648C53.0792 46.2841 52.6359 46.3226 52.1733 46.3419C50.7856 46.3997 48.492 46.3612 47.1043 46.2648C46.5068 46.2263 43.7314 45.86 43.3459 45.7059C42.9605 45.5324 43.0954 45.1084 43.3459 45.0698L43.3652 45.0891Z" fill="#6B46F2"/>
<path d="M56.1051 49.7726C58.0325 49.6184 57.8591 52.6443 55.9317 52.2396C54.6211 51.9698 54.756 49.8689 56.1051 49.7726ZM56.1437 50.4086C55.4306 50.505 55.5269 51.6807 56.2786 51.6421C57.1074 51.6036 56.9917 50.2929 56.1437 50.4086Z" fill="#6B46F2"/>
<path d="M43.3651 50.6589C44.4444 50.8324 45.5238 51.0059 46.6031 51.1793C47.933 51.2372 49.2436 51.295 50.5735 51.3528C50.7662 51.4106 50.8626 51.8154 50.5735 51.9503C49.5905 51.9503 48.6076 51.931 47.6246 51.9117C46.95 51.8732 43.8084 51.507 43.3651 51.3142C42.9604 51.1408 43.1338 50.7168 43.3651 50.6782V50.6589Z" fill="#6B46F2"/>
<path d="M52.9635 51.2179C53.4454 51.2179 54.197 51.16 53.6959 51.8153C53.3683 51.8153 51.4987 52.2201 51.8842 51.4491C51.9806 51.2564 52.7322 51.2179 52.9635 51.2179Z" fill="#6B46F2"/>
<path d="M36.9663 12.0151C38.2769 11.8031 37.6987 13.8846 37.8529 14.5978C45.042 15.0218 50.9012 21.3051 49.0895 28.6484C47.6632 23.5601 43.1146 19.8981 37.8529 19.4933C37.7179 20.1294 38.1612 21.7676 37.3325 21.9796C37.0819 22.0375 36.7928 21.9604 36.6001 21.7676C35.3858 20.3221 34.1908 18.8766 32.9766 17.431C32.8031 17.1226 32.8031 16.8721 32.9766 16.583L36.5037 12.362C36.6193 12.2271 36.7928 12.0536 36.9855 12.0151H36.9663Z" fill="#6B46F2"/>
<path d="M20.5257 41.4849C21.9519 46.5731 26.5006 50.2352 31.7623 50.6399C31.8972 50.0039 31.4539 48.3656 32.2827 48.1536C32.5333 48.0958 32.8224 48.1729 33.0151 48.3656C34.2294 49.8111 35.4243 51.2567 36.6386 52.7022C36.812 53.0106 36.812 53.2611 36.6386 53.5503L32.8609 58.0025C31.2612 58.5422 31.9165 56.3835 31.743 55.5162C24.5539 55.0922 18.6947 48.8089 20.5064 41.4656L20.5257 41.4849Z" fill="#6B46F2"/>
</svg>
