<svg width="35" height="35" viewBox="0 0 35 35" fill="none" xmlns="http://www.w3.org/2000/svg">
<g clip-path="url(#clip0_347_24)">
<mask id="mask0_347_24" style="mask-type:luminance" maskUnits="userSpaceOnUse" x="0" y="0" width="35" height="35">
<path d="M35 0H0V35H35V0Z" fill="white"/>
</mask>
<g mask="url(#mask0_347_24)">
<path d="M27.2824 -0.245117H7.92736C3.47181 -0.245117 -0.140137 3.36683 -0.140137 7.82238V27.1774C-0.140137 31.6329 3.47181 35.2449 7.92736 35.2449H27.2824C31.7379 35.2449 35.3499 31.6329 35.3499 27.1774V7.82238C35.3499 3.36683 31.7379 -0.245117 27.2824 -0.245117Z" fill="#F2EFFF"/>
</g>
<path d="M17.1291 7.71582H5.19189C5.04735 7.71582 4.93018 7.833 4.93018 7.97754V16.0326C4.93018 16.1772 5.04735 16.2943 5.19189 16.2943H17.1291C17.2737 16.2943 17.3908 16.1772 17.3908 16.0326V7.97754C17.3908 7.833 17.2737 7.71582 17.1291 7.71582Z" fill="#6B46F2"/>
<path d="M16.9688 8.90771H5.39502V15.8287H16.9688V8.90771Z" fill="white"/>
<path d="M8.91405 9.75146H6.73307C6.49217 9.75146 6.29688 9.94676 6.29688 10.1877V11.5689C6.29688 11.8099 6.49217 12.0051 6.73307 12.0051H8.91405C9.15496 12.0051 9.35025 11.8099 9.35025 11.5689V10.1877C9.35025 9.94676 9.15496 9.75146 8.91405 9.75146Z" fill="#6B46F2"/>
<path d="M12.2729 9.75146H10.121C9.89614 9.75146 9.71387 9.93374 9.71387 10.1586V11.598C9.71387 11.8229 9.89614 12.0051 10.121 12.0051H12.2729C12.4977 12.0051 12.68 11.8229 12.68 11.598V10.1586C12.68 9.93374 12.4977 9.75146 12.2729 9.75146Z" fill="#6B46F2"/>
<path d="M15.6318 9.75146H13.4799C13.255 9.75146 13.0728 9.93374 13.0728 10.1586V11.598C13.0728 11.8229 13.255 12.0051 13.4799 12.0051H15.6318C15.8566 12.0051 16.0389 11.8229 16.0389 11.598V10.1586C16.0389 9.93374 15.8566 9.75146 15.6318 9.75146Z" fill="#6B46F2"/>
<path d="M15.7626 12.9214H8.89979C8.74722 12.9214 8.62354 13.0451 8.62354 13.1976V13.2703C8.62354 13.4229 8.74722 13.5466 8.89979 13.5466H15.7626C15.9152 13.5466 16.0389 13.4229 16.0389 13.2703V13.1976C16.0389 13.0451 15.9152 12.9214 15.7626 12.9214Z" fill="#6B46F2"/>
<path d="M6.51497 12.9214H7.89626C8.01258 12.9214 8.11436 13.0232 8.11436 13.1395V13.3285C8.11436 13.4448 8.01258 13.5466 7.89626 13.5466H6.51497C6.39865 13.5466 6.29688 13.4448 6.29688 13.3285V13.1395C6.29688 13.0232 6.39865 12.9214 6.51497 12.9214Z" fill="#6B46F2"/>
<path d="M15.7626 13.8369H8.89979C8.74722 13.8369 8.62354 13.9606 8.62354 14.1132V14.1859C8.62354 14.3384 8.74722 14.4621 8.89979 14.4621H15.7626C15.9152 14.4621 16.0389 14.3384 16.0389 14.1859V14.1132C16.0389 13.9606 15.9152 13.8369 15.7626 13.8369Z" fill="#6B46F2"/>
<path d="M6.51497 13.8369H7.89626C8.01258 13.8369 8.11436 13.9387 8.11436 14.055V14.244C8.11436 14.3603 8.01258 14.4621 7.89626 14.4621H6.51497C6.39865 14.4621 6.29688 14.3603 6.29688 14.244V14.055C6.29688 13.9387 6.39865 13.8369 6.51497 13.8369Z" fill="#6B46F2"/>
<path d="M5.70052 8.57389C5.82097 8.57389 5.91862 8.47625 5.91862 8.35579C5.91862 8.23534 5.82097 8.1377 5.70052 8.1377C5.58007 8.1377 5.48242 8.23534 5.48242 8.35579C5.48242 8.47625 5.58007 8.57389 5.70052 8.57389Z" fill="white"/>
<path d="M6.2972 8.57389C6.41765 8.57389 6.5153 8.47625 6.5153 8.35579C6.5153 8.23534 6.41765 8.1377 6.2972 8.1377C6.17675 8.1377 6.0791 8.23534 6.0791 8.35579C6.0791 8.47625 6.17675 8.57389 6.2972 8.57389Z" fill="white"/>
<path d="M6.90755 8.57389C7.028 8.57389 7.12565 8.47625 7.12565 8.35579C7.12565 8.23534 7.028 8.1377 6.90755 8.1377C6.7871 8.1377 6.68945 8.23534 6.68945 8.35579C6.68945 8.47625 6.7871 8.57389 6.90755 8.57389Z" fill="white"/>
<path d="M30.738 20.1763H18.8008C18.6562 20.1763 18.5391 20.2934 18.5391 20.438V28.4931C18.5391 28.6376 18.6562 28.7548 18.8008 28.7548H30.738C30.8826 28.7548 30.9997 28.6376 30.9997 28.4931V20.438C30.9997 20.2934 30.8826 20.1763 30.738 20.1763Z" fill="#6B46F2"/>
<path d="M30.5791 21.3691H19.0054V28.2901H30.5791V21.3691Z" fill="white"/>
<path d="M22.5229 22.1973H20.342C20.1011 22.1973 19.9058 22.3926 19.9058 22.6335V24.0147C19.9058 24.2557 20.1011 24.4509 20.342 24.4509H22.5229C22.7638 24.4509 22.9591 24.2557 22.9591 24.0147V22.6335C22.9591 22.3926 22.7638 22.1973 22.5229 22.1973Z" fill="#6B46F2"/>
<path d="M25.8969 22.1973H23.745C23.5202 22.1973 23.3379 22.3795 23.3379 22.6044V24.0438C23.3379 24.2687 23.5202 24.4509 23.745 24.4509H25.8969C26.1218 24.4509 26.304 24.2687 26.304 24.0438V22.6044C26.304 22.3795 26.1218 22.1973 25.8969 22.1973Z" fill="#6B46F2"/>
<path d="M29.2558 22.1973H27.1039C26.8791 22.1973 26.6968 22.3795 26.6968 22.6044V24.0438C26.6968 24.2687 26.8791 24.4509 27.1039 24.4509H29.2558C29.4806 24.4509 29.6629 24.2687 29.6629 24.0438V22.6044C29.6629 22.3795 29.4806 22.1973 29.2558 22.1973Z" fill="#6B46F2"/>
<path d="M29.3715 25.3813H22.5087C22.3561 25.3813 22.2324 25.505 22.2324 25.6576V25.7303C22.2324 25.8829 22.3561 26.0066 22.5087 26.0066H29.3715C29.5241 26.0066 29.6478 25.8829 29.6478 25.7303V25.6576C29.6478 25.505 29.5241 25.3813 29.3715 25.3813Z" fill="#6B46F2"/>
<path d="M20.1239 25.3813H21.5051C21.6215 25.3813 21.7232 25.4831 21.7232 25.5994V25.7885C21.7232 25.9048 21.6215 26.0066 21.5051 26.0066H20.1239C20.0075 26.0066 19.9058 25.9048 19.9058 25.7885V25.5994C19.9058 25.4831 20.0075 25.3813 20.1239 25.3813Z" fill="#6B46F2"/>
<path d="M29.3715 26.2974H22.5087C22.3561 26.2974 22.2324 26.421 22.2324 26.5736V26.6463C22.2324 26.7989 22.3561 26.9226 22.5087 26.9226H29.3715C29.5241 26.9226 29.6478 26.7989 29.6478 26.6463V26.5736C29.6478 26.421 29.5241 26.2974 29.3715 26.2974Z" fill="#6B46F2"/>
<path d="M20.1239 26.2974H21.5051C21.6215 26.2974 21.7232 26.3991 21.7232 26.5155V26.7045C21.7232 26.8208 21.6215 26.9226 21.5051 26.9226H20.1239C20.0075 26.9226 19.9058 26.8208 19.9058 26.7045V26.5155C19.9058 26.3991 20.0075 26.2974 20.1239 26.2974Z" fill="#6B46F2"/>
<path d="M19.3109 21.0339C19.4313 21.0339 19.529 20.9362 19.529 20.8158C19.529 20.6953 19.4313 20.5977 19.3109 20.5977C19.1904 20.5977 19.0928 20.6953 19.0928 20.8158C19.0928 20.9362 19.1904 21.0339 19.3109 21.0339Z" fill="white"/>
<path d="M19.9061 21.0339C20.0265 21.0339 20.1242 20.9362 20.1242 20.8158C20.1242 20.6953 20.0265 20.5977 19.9061 20.5977C19.7856 20.5977 19.688 20.6953 19.688 20.8158C19.688 20.9362 19.7856 21.0339 19.9061 21.0339Z" fill="white"/>
<path d="M20.5316 21.0339C20.652 21.0339 20.7497 20.9362 20.7497 20.8158C20.7497 20.6953 20.652 20.5977 20.5316 20.5977C20.4111 20.5977 20.3135 20.6953 20.3135 20.8158C20.3135 20.9362 20.4111 21.0339 20.5316 21.0339Z" fill="white"/>
<path d="M24.9812 14.5494C24.8648 14.8693 24.7485 15.1746 24.6177 15.509L24.2396 16.5414L23.9924 17.1957C23.9343 17.3411 23.7743 17.4283 23.6289 17.3701C23.5853 17.3701 23.5417 17.3265 23.5126 17.2974L23.0764 16.8031L21.9278 15.509C21.8405 15.4073 21.7678 15.3055 21.6661 15.2182C21.5934 15.131 21.6079 15.0147 21.6951 14.942C21.6951 14.942 21.7242 14.9274 21.7388 14.9129L21.826 14.8838L22.364 14.782H22.4512V14.593L22.4221 14.2004L22.3931 13.9969C22.3785 13.8806 22.3349 13.7497 22.2913 13.6334C22.2331 13.4444 22.175 13.2699 22.1023 13.0809C22.0441 12.95 21.9859 12.8337 21.9132 12.7174C21.7242 12.3393 21.477 11.9758 21.1863 11.6414C21.0699 11.5106 20.9391 11.3652 20.8228 11.2343C20.7791 11.1907 20.7791 11.118 20.8228 11.0744C20.8518 11.0307 20.8955 11.0017 20.9391 11.0307L21.4916 11.2925L21.6951 11.4233C22.0441 11.6414 22.364 11.9031 22.6548 12.1794C23.1055 12.6011 23.4836 13.11 23.7889 13.6625C23.9052 13.866 23.9924 14.0841 24.0651 14.3168C24.0797 14.3604 24.0942 14.3895 24.1088 14.4331H24.196L24.7194 14.3313C24.8212 14.3022 24.923 14.3313 24.9812 14.4331L25.0102 14.5349L24.9812 14.5494Z" fill="#6B46F2"/>
<path d="M11.5461 22.2272L11.4734 22.2562L10.9499 22.4743C10.9499 22.4743 10.8336 22.4889 10.7755 22.4743C10.7028 22.4453 10.6591 22.358 10.6737 22.2708L10.7318 21.8637C10.8191 21.3257 10.9063 20.7877 10.979 20.2497L11.0953 19.5373C11.1244 19.3774 11.2698 19.261 11.4298 19.2901C11.4298 19.2901 11.4588 19.2901 11.4734 19.2901L11.5752 19.3483C11.8514 19.5518 12.1131 19.7263 12.3748 19.9299L13.7561 20.9622L13.7998 20.9913C13.887 21.064 13.887 21.1803 13.8143 21.2675C13.8143 21.2821 13.7852 21.2966 13.7561 21.3112L13.6544 21.3548L13.1891 21.5438L13.1164 21.5729C13.1164 21.5729 13.1309 21.6892 13.16 21.7474C13.2036 21.8928 13.2472 22.0382 13.3054 22.169C13.3345 22.2562 13.3781 22.3435 13.4217 22.4453C13.538 22.7361 13.7125 23.0269 13.9015 23.274C14.1778 23.6521 14.4977 24.001 14.8757 24.2918C15.0502 24.4372 15.2537 24.5681 15.4573 24.7135C15.4864 24.7426 15.5155 24.7716 15.5155 24.8153C15.5155 24.888 15.4718 24.9316 15.4137 24.9316H15.3701C15.2247 24.9025 15.0793 24.8589 14.9339 24.8153C14.7885 24.7716 14.6576 24.728 14.5268 24.6699C14.1778 24.539 13.8434 24.3645 13.5235 24.161C13.2182 23.9865 12.9419 23.7684 12.6656 23.5358C12.3167 23.245 12.0259 22.9105 11.7642 22.518C11.706 22.4307 11.6479 22.3289 11.5752 22.2272H11.5461Z" fill="#6B46F2"/>
</g>
<defs>
<clipPath id="clip0_347_24">
<rect width="35" height="35" fill="white"/>
</clipPath>
</defs>
</svg>
