<svg width="70" height="70" viewBox="0 0 70 70" fill="none" xmlns="http://www.w3.org/2000/svg">
<path d="M57.663 1.1521H12.337C6.15967 1.1521 1.15198 6.15979 1.15198 12.3371V57.6631C1.15198 63.8404 6.15967 68.8481 12.337 68.8481H57.663C63.8403 68.8481 68.848 63.8404 68.848 57.6631V12.3371C68.848 6.15979 63.8403 1.1521 57.663 1.1521Z" fill="white"/>
<path d="M21.5791 16.6558C23.689 16.8223 28.7784 16.9889 29.9259 18.8026C29.9259 24.3177 29.9444 29.8329 29.9629 35.3295C29.9074 35.6441 29.4262 36.0513 29.1671 36.2178C27.1313 37.4578 21.5236 37.6799 19.0992 37.6059C17.23 37.5504 11.6223 37.1802 10.6969 35.459C10.6969 29.9439 10.6784 24.4288 10.6599 18.9321C10.808 18.0808 13.1214 17.3035 13.4545 17.396C13.6026 17.4331 13.7506 17.7847 13.4545 17.9698C13.3435 18.0253 11.5668 18.4325 11.3077 18.9692C10.9375 19.7465 14.0652 20.4127 14.5649 20.5053C17.9517 21.1345 24.2072 21.1345 27.5014 20.1721C29.6668 19.5429 30.1295 18.8396 27.668 18.0808C24.9845 17.2665 20.3392 17.1555 17.5261 17.3405C16.6192 17.4331 15.7309 17.5256 14.824 17.6181C14.6019 17.5626 14.5464 17.1184 14.9536 17.0074C15.8049 16.9149 16.6377 16.8223 17.4891 16.7298C18.0628 16.7113 18.618 16.6743 19.1917 16.6558H21.5977H21.5791ZM11.2892 20.0426C11.2892 21.5417 11.2892 23.0222 11.2706 24.5213C11.4002 25.058 13.473 25.6132 13.9912 25.7243C17.4706 26.4831 24.0221 26.5016 27.4459 25.5207C27.8346 25.4097 29.2411 24.9285 29.3522 24.5213C29.3522 23.0222 29.3522 21.5417 29.3337 20.0426C26.465 21.6897 19.895 21.7082 16.6007 21.3936C14.9166 21.227 12.7512 20.8939 11.2892 20.0426ZM11.2892 25.4097C11.2892 26.9087 11.2892 28.3893 11.2706 29.8884C11.4002 30.3881 13.3805 30.9433 13.8617 31.0543C17.341 31.8501 24.1701 31.8687 27.5755 30.8508C27.9271 30.7397 29.2596 30.2585 29.3522 29.8884C29.3522 28.3893 29.3522 26.9087 29.3337 25.4097C27.594 26.3905 24.8549 26.7237 22.8746 26.8347C19.858 27.0198 13.9172 26.9087 11.2892 25.4097ZM11.2892 30.7767C11.2892 32.2573 11.2892 33.7379 11.2706 35.2185C11.4002 35.7737 13.399 36.3104 13.9172 36.4214C17.0449 37.1247 22.2084 37.1432 25.3731 36.662C26.0764 36.551 29.1856 35.9587 29.3707 35.2185C29.3707 33.7379 29.3707 32.2573 29.3522 30.7767C28.0752 31.48 26.3725 31.8131 24.9289 31.9982C21.4866 32.4424 14.3984 32.4794 11.3077 30.7767H11.2892Z" fill="#6B46F2"/>
<path d="M25.7804 22.2079C27.6126 21.9488 27.6496 24.873 25.7433 24.5768C24.5034 24.3918 24.5404 22.3745 25.7804 22.2079ZM25.8544 22.8372C25.2807 22.9482 25.2807 23.8736 25.8174 23.9846C26.8353 24.1882 26.7798 22.6521 25.8544 22.8372Z" fill="#6B46F2"/>
<path d="M13.6581 22.9851C14.3984 23.1147 15.1387 23.2627 15.8605 23.3923C17.6002 23.6144 19.3954 23.6699 21.135 23.6329L23.4669 23.5033C23.689 23.5588 23.7631 24.0215 23.4299 24.114L21.2276 24.2436C19.4509 24.2806 16.7118 24.1696 14.9722 23.8735C14.1208 23.7254 13.3065 23.6514 13.399 23.2072C13.4916 23.1332 13.5841 23.0591 13.6581 22.9851Z" fill="#6B46F2"/>
<path d="M25.7804 27.5014C27.6126 27.2423 27.6496 30.1664 25.7433 29.8703C24.5034 29.6852 24.5404 27.6679 25.7804 27.5014ZM25.8544 28.1121C25.2807 28.2232 25.2807 29.1485 25.8174 29.2596C26.8353 29.4631 26.7798 27.927 25.8544 28.1121Z" fill="#6B46F2"/>
<path d="M13.6211 28.2783C14.4169 28.4078 15.1942 28.5559 15.99 28.6854C17.378 28.852 18.9326 28.926 20.3207 28.926C21.3756 28.889 22.4305 28.852 23.4669 28.7965C23.763 28.8705 23.7445 29.3332 23.3929 29.4072C22.9487 29.4257 22.523 29.4627 22.0789 29.4812C20.7463 29.5368 18.544 29.4997 17.2115 29.4072C16.6378 29.3702 13.9727 29.0186 13.6026 28.8705C13.2324 28.7039 13.362 28.2968 13.6026 28.2598L13.6211 28.2783Z" fill="#6B46F2"/>
<path d="M25.8543 32.7755C27.705 32.6274 27.5385 35.5331 25.6877 35.1444C24.4292 34.8853 24.5588 32.868 25.8543 32.7755ZM25.8913 33.3862C25.2065 33.4788 25.2991 34.6077 26.0209 34.5707C26.8167 34.5337 26.7056 33.2752 25.8913 33.3862Z" fill="#6B46F2"/>
<path d="M13.6211 33.627C14.6575 33.7935 15.6939 33.9601 16.7303 34.1266C18.0073 34.1822 19.2658 34.2377 20.5428 34.2932C20.7278 34.3487 20.8204 34.7374 20.5428 34.8669C19.5989 34.8669 18.655 34.8484 17.7112 34.8299C17.0634 34.7929 14.0467 34.4413 13.6211 34.2562C13.2324 34.0896 13.399 33.6825 13.6211 33.6455V33.627Z" fill="#6B46F2"/>
<path d="M22.8191 34.1634C23.2818 34.1634 24.0036 34.1078 23.5224 34.7371C23.2078 34.7371 21.4126 35.1257 21.7827 34.3854C21.8753 34.2004 22.5971 34.1634 22.8191 34.1634Z" fill="#6B46F2"/>
<path d="M51.6162 32.979C53.726 33.1456 58.8155 33.3121 59.9629 35.1258C59.9629 40.641 59.9814 46.1561 59.9999 51.6527C59.9444 51.9674 59.4632 52.3745 59.2041 52.5411C57.1683 53.7811 51.5607 54.0031 49.1362 53.9291C47.267 53.8736 41.6593 53.5035 40.734 51.7823C40.734 46.2672 40.7155 40.752 40.697 35.2554C40.845 34.4041 43.1584 33.6268 43.4915 33.7193C43.6396 33.7563 43.7877 34.1079 43.4915 34.293C43.3805 34.3485 41.6038 34.7557 41.3447 35.2924C40.9746 36.0697 44.1023 36.736 44.602 36.8285C47.9888 37.4577 54.2442 37.4577 57.5385 36.4954C59.7038 35.8661 60.1665 35.1628 57.7051 34.4041C55.0215 33.5897 50.3762 33.4787 47.5631 33.6638C46.6563 33.7563 45.7679 33.8488 44.8611 33.9414C44.639 33.8859 44.5835 33.4417 44.9906 33.3306C45.842 33.2381 46.6748 33.1456 47.5261 33.053C48.0998 33.0345 48.655 32.9975 49.2288 32.979H51.6347H51.6162ZM41.3262 36.3658C41.3262 37.8649 41.3262 39.3455 41.3077 40.8446C41.4372 41.3813 43.5101 41.9365 44.0283 42.0475C47.5076 42.8063 54.0591 42.8248 57.483 41.8439C57.8716 41.7329 59.2782 41.2517 59.3892 40.8446C59.3892 39.3455 59.3892 37.8649 59.3707 36.3658C56.5021 38.013 49.932 38.0315 46.6378 37.7168C44.9536 37.5503 42.7883 37.2171 41.3262 36.3658ZM41.3262 41.7329C41.3262 43.232 41.3262 44.7125 41.3077 46.2116C41.4372 46.7113 43.4175 47.2665 43.8987 47.3776C47.378 48.1734 54.2072 48.1919 57.6125 47.174C57.9642 47.063 59.2967 46.5818 59.3892 46.2116C59.3892 44.7125 59.3892 43.232 59.3707 41.7329C57.631 42.7138 54.892 43.0469 52.9117 43.1579C49.895 43.343 43.9542 43.232 41.3262 41.7329ZM41.3262 47.0815C41.3262 48.562 41.3262 50.0426 41.3077 51.5232C41.4372 52.0784 43.436 52.6151 43.9542 52.7262C47.0819 53.4294 52.2454 53.4479 55.4102 52.9667C56.1134 52.8557 59.2226 52.2635 59.4077 51.5232C59.4077 50.0426 59.4077 48.562 59.3892 47.0815C58.1122 47.7847 56.4096 48.1179 54.966 48.3029C51.5237 48.7471 44.4354 48.7841 41.3447 47.0815H41.3262Z" fill="#6B46F2"/>
<path d="M55.8173 38.5312C57.6495 38.2721 57.6865 41.1962 55.7803 40.9001C54.5403 40.715 54.5773 38.6977 55.8173 38.5312ZM55.8913 39.1604C55.3176 39.2715 55.3176 40.1968 55.8543 40.3079C56.8722 40.5114 56.8167 38.9753 55.8913 39.1604Z" fill="#6B46F2"/>
<path d="M43.6951 39.3083C44.4354 39.4379 45.1757 39.586 45.8975 39.7155C47.6372 39.9376 49.4324 39.9931 51.172 39.9561L53.5039 39.8265C53.726 39.8821 53.8001 40.3447 53.4669 40.4373L51.2646 40.5668C49.4879 40.6039 46.7488 40.4928 45.0091 40.1967C44.1578 40.0486 43.3435 39.9746 43.436 39.5304C43.5286 39.4564 43.6211 39.3824 43.6951 39.3083Z" fill="#6B46F2"/>
<path d="M55.8173 43.8244C57.6495 43.5653 57.6865 46.4894 55.7803 46.1933C54.5403 46.0082 54.5773 43.9909 55.8173 43.8244ZM55.8913 44.4351C55.3176 44.5462 55.3176 45.4715 55.8543 45.5826C56.8722 45.7861 56.8167 44.25 55.8913 44.4351Z" fill="#6B46F2"/>
<path d="M43.6581 44.6018C44.4539 44.7313 45.2312 44.8794 46.0271 45.0089C47.4151 45.1755 48.9697 45.2495 50.3577 45.2495C51.4126 45.2125 52.4675 45.1755 53.504 45.12C53.8001 45.194 53.7816 45.6567 53.4299 45.7307C52.9858 45.7492 52.5601 45.7862 52.1159 45.8047C50.7834 45.8602 48.581 45.8232 47.2485 45.7307C46.6748 45.6937 44.0098 45.342 43.6396 45.194C43.2695 45.0274 43.399 44.6203 43.6396 44.5833L43.6581 44.6018Z" fill="#6B46F2"/>
<path d="M55.8913 49.0987C57.742 48.9507 57.5754 51.8563 55.7247 51.4677C54.4662 51.2086 54.5958 49.1913 55.8913 49.0987ZM55.9283 49.7095C55.2435 49.802 55.3361 50.931 56.0579 50.8939C56.8537 50.8569 56.7426 49.5984 55.9283 49.7095Z" fill="#6B46F2"/>
<path d="M43.658 49.95C44.6944 50.1165 45.7308 50.2831 46.7672 50.4496C48.0442 50.5052 49.3027 50.5607 50.5797 50.6162C50.7648 50.6717 50.8573 51.0604 50.5797 51.1899C49.6358 51.1899 48.692 51.1714 47.7481 51.1529C47.1003 51.1159 44.0837 50.7643 43.658 50.5792C43.2694 50.4126 43.4359 50.0055 43.658 49.9685V49.95Z" fill="#6B46F2"/>
<path d="M52.8746 50.4866C53.3373 50.4866 54.0591 50.4311 53.5779 51.0603C53.2633 51.0603 51.4681 51.449 51.8382 50.7087C51.9308 50.5236 52.6525 50.4866 52.8746 50.4866Z" fill="#6B46F2"/>
<path d="M37.5138 12.8431C38.7723 12.6395 38.2171 14.6383 38.3652 15.3231C45.2683 15.7302 50.8945 21.7636 49.1548 28.8148C47.7853 23.9289 43.4176 20.4125 38.3652 20.0239C38.2356 20.6346 38.6613 22.2077 37.8655 22.4113C37.6249 22.4668 37.3473 22.3928 37.1622 22.2077C35.9962 20.8197 34.8488 19.4316 33.6828 18.0436C33.5163 17.7475 33.5163 17.5069 33.6828 17.2293L37.0697 13.1762C37.1807 13.0467 37.3473 12.8801 37.5323 12.8431H37.5138Z" fill="#6B46F2"/>
<path d="M21.7272 41.1406C23.0967 46.0265 27.4644 49.5428 32.5168 49.9315C32.6464 49.3207 32.2207 47.7476 33.0165 47.5441C33.2571 47.4885 33.5347 47.5626 33.7198 47.7476C34.8858 49.1357 36.0332 50.5237 37.1992 51.9118C37.3657 52.2079 37.3657 52.4485 37.1992 52.7261L33.5717 57.0012C32.0357 57.5194 32.6649 55.4466 32.4983 54.6138C25.5952 54.2066 19.969 48.1733 21.7086 41.1221L21.7272 41.1406Z" fill="#6B46F2"/>
</svg>
