<svg width="70" height="70" viewBox="0 0 70 70" fill="none" xmlns="http://www.w3.org/2000/svg">
<path d="M57.663 1.1521H12.337C6.15967 1.1521 1.15198 6.15979 1.15198 12.3371V57.6631C1.15198 63.8404 6.15967 68.8481 12.337 68.8481H57.663C63.8403 68.8481 68.848 63.8404 68.848 57.6631V12.3371C68.848 6.15979 63.8403 1.1521 57.663 1.1521Z" fill="white"/>
<path d="M16.3579 55.9819H52.9921C54.5284 55.9819 55.7754 54.7349 55.7754 53.1987V16.2933C55.7754 14.7571 54.5284 13.51 52.9921 13.51H16.3579C14.8216 13.51 13.5746 14.7571 13.5746 16.2933V53.2167C13.5746 54.753 14.8216 56 16.3579 56V55.9819ZM13.5746 21.8417H55.7573Z" fill="#6B46F2"/>
<path d="M18.1651 19.0587C18.774 19.0587 19.2676 18.5651 19.2676 17.9562C19.2676 17.3473 18.774 16.8538 18.1651 16.8538C17.5563 16.8538 17.0627 17.3473 17.0627 17.9562C17.0627 18.5651 17.5563 19.0587 18.1651 19.0587Z" fill="white"/>
<path d="M22.051 19.0587C22.6598 19.0587 23.1534 18.5651 23.1534 17.9562C23.1534 17.3473 22.6598 16.8538 22.051 16.8538C21.4421 16.8538 20.9485 17.3473 20.9485 17.9562C20.9485 18.5651 21.4421 19.0587 22.051 19.0587Z" fill="white"/>
<path d="M25.9366 19.0587C26.5454 19.0587 27.039 18.5651 27.039 17.9562C27.039 17.3473 26.5454 16.8538 25.9366 16.8538C25.3277 16.8538 24.8341 17.3473 24.8341 17.9562C24.8341 18.5651 25.3277 19.0587 25.9366 19.0587Z" fill="white"/>
<path d="M36.4009 37.2222C37.2993 37.2222 38.0275 36.4939 38.0275 35.5956C38.0275 34.6972 37.2993 33.969 36.4009 33.969C35.5026 33.969 34.7744 34.6972 34.7744 35.5956C34.7744 36.4939 35.5026 37.2222 36.4009 37.2222Z" fill="white"/>
<path d="M46.5401 42.5537C47.4384 42.5537 48.1667 41.8255 48.1667 40.9271C48.1667 40.0288 47.4384 39.3005 46.5401 39.3005C45.6418 39.3005 44.9135 40.0288 44.9135 40.9271C44.9135 41.8255 45.6418 42.5537 46.5401 42.5537Z" fill="white"/>
<path d="M42.0759 49.3853C42.9743 49.3853 43.7025 48.657 43.7025 47.7587C43.7025 46.8603 42.9743 46.1321 42.0759 46.1321C41.1776 46.1321 40.4493 46.8603 40.4493 47.7587C40.4493 48.657 41.1776 49.3853 42.0759 49.3853Z" fill="white"/>
<path d="M51.4017 48.1743H44.0459C43.8291 48.1743 43.6303 47.9936 43.6303 47.7586C43.6303 47.5237 43.811 47.3429 44.0459 47.3429H51.4017C51.6186 47.3429 51.8174 47.5237 51.8174 47.7586C51.8174 47.9936 51.6367 48.1743 51.4017 48.1743ZM40.2506 48.1743H32.7683C32.5514 48.1743 32.3526 47.9936 32.3526 47.7586C32.3526 47.5237 32.5333 47.3429 32.7683 47.3429H40.2506C40.4675 47.3429 40.6663 47.5237 40.6663 47.7586C40.6663 47.9936 40.4855 48.1743 40.2506 48.1743ZM51.4017 41.686H48.4558C48.2389 41.686 48.0401 41.5053 48.0401 41.2703C48.0401 41.0354 48.2208 40.8547 48.4558 40.8547H51.4017C51.6186 40.8547 51.8174 41.0354 51.8174 41.2703C51.8174 41.5053 51.6367 41.686 51.4017 41.686ZM44.6604 41.686H32.7683C32.5514 41.686 32.3526 41.5053 32.3526 41.2703C32.3526 41.0354 32.5333 40.8547 32.7683 40.8547H44.6604C44.8773 40.8547 45.0761 41.0354 45.0761 41.2703C45.0761 41.5053 44.8954 41.686 44.6604 41.686ZM51.4017 36.0111H38.2806C38.0637 36.0111 37.8649 35.8303 37.8649 35.5954C37.8649 35.3604 38.0457 35.1797 38.2806 35.1797H51.4017C51.6186 35.1797 51.8174 35.3604 51.8174 35.5954C51.8174 35.8303 51.6367 36.0111 51.4017 36.0111ZM34.4672 36.0111H32.7502C32.5333 36.0111 32.3345 35.8303 32.3345 35.5954C32.3345 35.3604 32.5153 35.1797 32.7502 35.1797H34.4672C34.684 35.1797 34.8829 35.3604 34.8829 35.5954C34.8829 35.8303 34.7021 36.0111 34.4672 36.0111Z" fill="white"/>
<path d="M17.2976 33.6075V31.7821H18.2374C18.5266 31.8002 18.7796 31.6195 18.87 31.3484C18.9603 31.0773 19.0507 30.8062 19.1772 30.5531C19.3399 30.3182 19.2857 29.9929 19.0507 29.8302L18.3459 29.2338L19.7194 27.8602L20.352 28.5832C20.5146 28.782 20.8038 28.8181 21.0207 28.7097L21.8701 28.3482C22.1231 28.294 22.2858 28.041 22.2497 27.788V26.8301H24.057C24.057 27.1373 24.075 27.4626 24.057 27.788C24.0389 28.041 24.2196 28.2759 24.4727 28.3482L25.286 28.6916C25.5209 28.8543 25.8462 28.8001 26.0089 28.5651C26.2077 28.3302 26.4246 28.1133 26.5872 27.9145L27.9427 29.288L27.2921 29.8483C27.0752 30.011 27.0029 30.3182 27.1475 30.5531C27.2921 30.8423 27.4186 31.1315 27.5089 31.4387C27.5812 31.6556 27.7981 31.8002 28.0331 31.7821H29.0271V33.6437H28.0873C27.8162 33.6437 27.5632 33.7882 27.4909 34.0593C27.4005 34.3485 27.274 34.6196 27.1475 34.9088C27.021 35.1257 27.0752 35.4148 27.274 35.5775L27.9789 36.21L26.6053 37.5655C26.4065 37.3487 26.2258 37.1137 25.9727 36.8607C25.7197 36.6077 25.5932 36.6438 25.3221 36.7342C25.0329 36.8788 24.7438 36.9872 24.4546 37.0956C24.2016 37.1679 24.0389 37.421 24.075 37.674C24.0931 37.9812 24.075 38.3065 24.075 38.6319H22.2677V37.674C22.3039 37.4029 22.1231 37.1499 21.852 37.0956L21.3279 36.8968C20.858 36.692 20.4544 36.7643 20.117 37.1137C19.9724 37.2583 19.8459 37.421 19.7375 37.6017L18.4362 36.2281C18.617 36.0112 18.8338 35.7944 19.0326 35.5956C19.2676 35.4148 19.3218 35.0895 19.1772 34.8546C19.0507 34.5654 18.9423 34.2943 18.8338 34.0051C18.7796 33.7521 18.5266 33.5894 18.2736 33.6437H17.2795L17.2976 33.6075ZM25.9004 32.6677C25.9004 31.1676 24.6534 29.9567 23.1533 29.9748C21.6532 29.9929 20.4423 31.2219 20.4604 32.7219C20.4604 34.222 21.7075 35.4329 23.2075 35.4148C24.7076 35.4148 25.9185 34.1678 25.9004 32.6677Z" fill="white"/>
<path d="M55.7573 20.9382H13.5746V22.0949H55.7573V20.9382Z" fill="white"/>
</svg>
