<?xml version="1.0" encoding="UTF-8"?>
<svg id="Layer_1" xmlns="http://www.w3.org/2000/svg" viewBox="0 0 70 70">
  <defs>
    <style>
      .cls-1 {
        fill: #fff;
      }

      .cls-2 {
        fill: none;
        stroke: #fff;
        stroke-linecap: round;
      }

      .cls-3 {
        fill: #5138cc;
      }
    </style>
  </defs>
  <g id="Character">
    <rect class="cls-3" width="70" height="70" rx="12.56" ry="12.56"/>
  </g>
  <g>
    <path class="cls-2" d="M11.63,58.82h46.75c1.96,0,3.54-1.39,3.54-3.11V14.29c0-1.72-1.58-3.11-3.54-3.11H11.63c-1.96,0-3.54,1.39-3.54,3.11v41.42c0,1.72,1.58,3.11,3.54,3.11ZM8.08,20.52h53.83"/>
    <circle class="cls-1" cx="13.04" cy="16.84" r="1.42"/>
    <circle class="cls-1" cx="18" cy="16.84" r="1.42"/>
    <circle class="cls-1" cx="22.96" cy="16.84" r="1.42"/>
    <circle class="cls-1" cx="17.86" cy="32.49" r="1.97"/>
    <circle class="cls-1" cx="30.15" cy="39.38" r="1.97"/>
    <circle class="cls-1" cx="24.75" cy="47.24" r="1.97"/>
    <path class="cls-2" d="M13.43,32.49h2.08M36.07,32.49h-15.93M13.44,39.38h14.44M36.08,39.38h-3.57M13.45,47.25h9.08M36.08,47.25h-8.93"/>
    <path class="cls-1" d="M39.25,41.59v-2.92h1.5c.45.04.87-.25,1-.69.13-.43.3-.86.5-1.27.25-.37.17-.88-.19-1.15l-1.11-.96,2.19-2.19,1,1.15c.27.3.72.38,1.08.19l1.34-.58c.4-.09.66-.48.61-.88v-1.54h2.88c0,.5.04,1,0,1.54-.03.41.25.79.65.88l1.31.54c.37.25.88.17,1.15-.19.31-.38.65-.73.92-1.04l2.15,2.19-1.04.88c-.35.26-.45.74-.23,1.11.23.46.42.93.58,1.42.12.35.47.58.84.54h1.57v2.96h-1.5c-.43-.02-.82.24-.96.65-.16.46-.34.91-.54,1.34-.21.36-.13.81.19,1.08l1.11,1-2.19,2.15c-.31-.35-.61-.73-1-1.11s-.61-.35-1.04-.19c-.45.22-.91.41-1.38.58-.4.12-.65.51-.61.92.04.5,0,1,0,1.54h-2.88v-1.54c.07-.43-.22-.84-.65-.92l-.84-.31q-1.11-.5-1.92.35c-.23.24-.43.5-.61.77l-2.07-2.19c.3-.35.62-.69.96-1,.36-.28.46-.79.23-1.19-.19-.46-.38-.88-.54-1.34-.1-.4-.48-.65-.88-.58h-1.57ZM52.96,40.09c-.02-2.4-1.98-4.32-4.38-4.3s-4.32,1.98-4.3,4.38c.02,2.4,1.98,4.32,4.38,4.3,2.4-.02,4.32-1.98,4.3-4.38,0,0,0,0,0,0Z"/>
  </g>
</svg>