<svg width="70" height="70" viewBox="0 0 70 70" fill="none" xmlns="http://www.w3.org/2000/svg">
<path d="M57.663 1.15198H12.337C6.15967 1.15198 1.15198 6.15967 1.15198 12.337V57.663C1.15198 63.8403 6.15967 68.848 12.337 68.848H57.663C63.8403 68.848 68.848 63.8403 68.848 57.663V12.337C68.848 6.15967 63.8403 1.15198 57.663 1.15198Z" fill="white"/>
<path d="M18.0823 53.9836H51.2678C52.6594 53.9836 53.7891 52.854 53.7891 51.4624V18.0313C53.7891 16.6397 52.6594 15.51 51.2678 15.51H18.0823C16.6907 15.51 15.561 16.6397 15.561 18.0313V51.4788C15.561 52.8704 16.6907 54 18.0823 54V53.9836ZM15.561 23.0574H53.7727Z" fill="#6B46F2"/>
<path d="M19.7195 20.5361C20.2711 20.5361 20.7182 20.0889 20.7182 19.5374C20.7182 18.9858 20.2711 18.5387 19.7195 18.5387C19.1679 18.5387 18.7208 18.9858 18.7208 19.5374C18.7208 20.0889 19.1679 20.5361 19.7195 20.5361Z" fill="white"/>
<path d="M23.2393 20.5361C23.7908 20.5361 24.238 20.0889 24.238 19.5374C24.238 18.9858 23.7908 18.5387 23.2393 18.5387C22.6877 18.5387 22.2406 18.9858 22.2406 19.5374C22.2406 20.0889 22.6877 20.5361 23.2393 20.5361Z" fill="white"/>
<path d="M26.7593 20.5361C27.3109 20.5361 27.758 20.0889 27.758 19.5374C27.758 18.9858 27.3109 18.5387 26.7593 18.5387C26.2077 18.5387 25.7606 18.9858 25.7606 19.5374C25.7606 20.0889 26.2077 20.5361 26.7593 20.5361Z" fill="white"/>
<path d="M36.2385 36.9896C37.0522 36.9896 37.7119 36.33 37.7119 35.5162C37.7119 34.7024 37.0522 34.0427 36.2385 34.0427C35.4247 34.0427 34.765 34.7024 34.765 35.5162C34.765 36.33 35.4247 36.9896 36.2385 36.9896Z" fill="white"/>
<path d="M45.423 41.8195C46.2368 41.8195 46.8965 41.1598 46.8965 40.346C46.8965 39.5322 46.2368 38.8726 45.423 38.8726C44.6093 38.8726 43.9496 39.5322 43.9496 40.346C43.9496 41.1598 44.6093 41.8195 45.423 41.8195Z" fill="white"/>
<path d="M41.3793 48.0081C42.1931 48.0081 42.8528 47.3484 42.8528 46.5346C42.8528 45.7208 42.1931 45.0612 41.3793 45.0612C40.5656 45.0612 39.9059 45.7208 39.9059 46.5346C39.9059 47.3484 40.5656 48.0081 41.3793 48.0081Z" fill="white"/>
<path d="M49.8271 46.9111H43.1638C42.9674 46.9111 42.7873 46.7473 42.7873 46.5345C42.7873 46.3217 42.951 46.158 43.1638 46.158H49.8271C50.0236 46.158 50.2037 46.3217 50.2037 46.5345C50.2037 46.7473 50.04 46.9111 49.8271 46.9111ZM39.7258 46.9111H32.9479C32.7514 46.9111 32.5713 46.7473 32.5713 46.5345C32.5713 46.3217 32.735 46.158 32.9479 46.158H39.7258C39.9222 46.158 40.1023 46.3217 40.1023 46.5345C40.1023 46.7473 39.9386 46.9111 39.7258 46.9111ZM49.8271 41.0336H47.1585C46.9621 41.0336 46.782 40.8699 46.782 40.6571C46.782 40.4442 46.9457 40.2805 47.1585 40.2805H49.8271C50.0236 40.2805 50.2037 40.4442 50.2037 40.6571C50.2037 40.8699 50.04 41.0336 49.8271 41.0336ZM43.7205 41.0336H32.9479C32.7514 41.0336 32.5713 40.8699 32.5713 40.6571C32.5713 40.4442 32.735 40.2805 32.9479 40.2805H43.7205C43.9169 40.2805 44.097 40.4442 44.097 40.6571C44.097 40.8699 43.9333 41.0336 43.7205 41.0336ZM49.8271 35.8929H37.9412C37.7448 35.8929 37.5647 35.7292 37.5647 35.5163C37.5647 35.3035 37.7284 35.1398 37.9412 35.1398H49.8271C50.0236 35.1398 50.2037 35.3035 50.2037 35.5163C50.2037 35.7292 50.04 35.8929 49.8271 35.8929ZM34.4868 35.8929H32.9315C32.735 35.8929 32.5549 35.7292 32.5549 35.5163C32.5549 35.3035 32.7186 35.1398 32.9315 35.1398H34.4868C34.6833 35.1398 34.8634 35.3035 34.8634 35.5163C34.8634 35.7292 34.6996 35.8929 34.4868 35.8929Z" fill="white"/>
<path d="M18.9337 33.7153V32.0618H19.7851C20.047 32.0782 20.2762 31.9144 20.3581 31.6689C20.4399 31.4233 20.5218 31.1777 20.6364 30.9485C20.7837 30.7357 20.7346 30.441 20.5218 30.2936L19.8833 29.7534L21.1275 28.5091L21.7006 29.164C21.8479 29.3441 22.1099 29.3768 22.3063 29.2786L23.0758 28.9512C23.305 28.902 23.4523 28.6728 23.4196 28.4436V27.5759H25.0568C25.0568 27.8542 25.0731 28.1489 25.0568 28.4436C25.0404 28.6728 25.2041 28.8857 25.4333 28.9512L26.17 29.2622C26.3829 29.4096 26.6776 29.3604 26.8249 29.1476C27.005 28.9348 27.2015 28.7383 27.3488 28.5582L28.5767 29.8025L27.9873 30.31C27.7909 30.4574 27.7254 30.7357 27.8563 30.9485C27.9873 31.2105 28.1019 31.4724 28.1838 31.7507C28.2493 31.9472 28.4457 32.0782 28.6586 32.0618H29.559V33.7481H28.7077C28.4621 33.7481 28.2329 33.8791 28.1674 34.1246C28.0855 34.3866 27.9709 34.6322 27.8563 34.8941C27.7417 35.0906 27.7909 35.3525 27.9709 35.4999L28.6094 36.0729L27.3652 37.3008C27.1851 37.1043 27.0214 36.8915 26.7922 36.6623C26.563 36.433 26.4484 36.4658 26.2028 36.5477C25.9408 36.6786 25.6789 36.7769 25.4169 36.8751C25.1877 36.9406 25.0404 37.1698 25.0731 37.399C25.0895 37.6773 25.0731 37.972 25.0731 38.2667H23.436V37.399C23.4687 37.1534 23.305 36.9242 23.0594 36.8751L22.5846 36.695C22.159 36.5095 21.7933 36.5749 21.4877 36.8915C21.3567 37.0224 21.2421 37.1698 21.1439 37.3335L19.9652 36.0892C20.1289 35.8928 20.3253 35.6963 20.5054 35.5162C20.7183 35.3525 20.7674 35.0578 20.6364 34.845C20.5218 34.583 20.4236 34.3375 20.3253 34.0755C20.2762 33.8463 20.047 33.699 19.8178 33.7481H18.9174L18.9337 33.7153ZM26.7267 32.864C26.7267 31.5052 25.597 30.4082 24.2382 30.4246C22.8793 30.441 21.7824 31.5543 21.7988 32.9131C21.7988 34.272 22.9284 35.3689 24.2873 35.3525C25.6461 35.3525 26.7431 34.2229 26.7267 32.864Z" fill="white"/>
<path d="M53.7727 22.2388H15.561V23.2866H53.7727V22.2388Z" fill="white"/>
</svg>
