<svg width="35" height="35" viewBox="0 0 35 35" fill="none" xmlns="http://www.w3.org/2000/svg">
<g clip-path="url(#clip0_347_24)">
<mask id="mask0_347_24" style="mask-type:luminance" maskUnits="userSpaceOnUse" x="0" y="0" width="35" height="35">
<path d="M35 0H0V35H35V0Z" fill="white"/>
</mask>
<g mask="url(#mask0_347_24)">
<path d="M27.2824 -0.245117H7.92736C3.47181 -0.245117 -0.140137 3.36683 -0.140137 7.82238V27.1774C-0.140137 31.6329 3.47181 35.2449 7.92736 35.2449H27.2824C31.7379 35.2449 35.3499 31.6329 35.3499 27.1774V7.82238C35.3499 3.36683 31.7379 -0.245117 27.2824 -0.245117Z" fill="#F2EFFF"/>
</g>
<path d="M7.43512 29.1457H27.4847C28.3265 29.1457 28.9999 28.4722 28.9999 27.6305V7.4278C28.9999 6.58602 28.3265 5.9126 27.4847 5.9126H7.43512C6.59334 5.9126 5.91992 6.58602 5.91992 7.4278V27.6305C5.91992 28.4722 6.59334 29.1457 7.43512 29.1457ZM5.91992 10.4735H28.9999Z" fill="#6B46F2"/>
<path d="M8.43056 8.95829C8.76867 8.95829 9.04276 8.6842 9.04276 8.34609C9.04276 8.00798 8.76867 7.73389 8.43056 7.73389C8.09245 7.73389 7.81836 8.00798 7.81836 8.34609C7.81836 8.6842 8.09245 8.95829 8.43056 8.95829Z" fill="white"/>
<path d="M10.557 8.95829C10.8951 8.95829 11.1692 8.6842 11.1692 8.34609C11.1692 8.00798 10.8951 7.73389 10.557 7.73389C10.2189 7.73389 9.94482 8.00798 9.94482 8.34609C9.94482 8.6842 10.2189 8.95829 10.557 8.95829Z" fill="white"/>
<path d="M12.6845 8.95829C13.0226 8.95829 13.2967 8.6842 13.2967 8.34609C13.2967 8.00798 13.0226 7.73389 12.6845 7.73389C12.3464 7.73389 12.0723 8.00798 12.0723 8.34609C12.0723 8.6842 12.3464 8.95829 12.6845 8.95829Z" fill="white"/>
<path d="M18.4092 18.8911C18.8994 18.8911 19.2969 18.4937 19.2969 18.0034C19.2969 17.5132 18.8994 17.1157 18.4092 17.1157C17.9189 17.1157 17.5215 17.5132 17.5215 18.0034C17.5215 18.4937 17.9189 18.8911 18.4092 18.8911Z" fill="white"/>
<path d="M23.9497 21.7998C24.44 21.7998 24.8374 21.4024 24.8374 20.9121C24.8374 20.4218 24.44 20.0244 23.9497 20.0244C23.4594 20.0244 23.062 20.4218 23.062 20.9121C23.062 21.4024 23.4594 21.7998 23.9497 21.7998Z" fill="white"/>
<path d="M21.5156 25.5337C22.0059 25.5337 22.4033 25.1363 22.4033 24.646C22.4033 24.1557 22.0059 23.7583 21.5156 23.7583C21.0254 23.7583 20.6279 24.1557 20.6279 24.646C20.6279 25.1363 21.0254 25.5337 21.5156 25.5337Z" fill="white"/>
<path d="M26.6122 24.8761H22.587C22.4645 24.8761 22.3574 24.769 22.3574 24.6465C22.3574 24.5241 22.4645 24.417 22.587 24.417H26.6122C26.7346 24.417 26.8418 24.5241 26.8418 24.6465C26.8418 24.769 26.7346 24.8761 26.6122 24.8761ZM20.5055 24.8761H16.419C16.2966 24.8761 16.1895 24.769 16.1895 24.6465C16.1895 24.5241 16.2966 24.417 16.419 24.417H20.5055C20.6279 24.417 20.7351 24.5241 20.7351 24.6465C20.7351 24.769 20.6279 24.8761 20.5055 24.8761ZM26.6122 21.3254H25.0052C24.8827 21.3254 24.7756 21.2182 24.7756 21.0958C24.7756 20.9733 24.8827 20.8662 25.0052 20.8662H26.6122C26.7346 20.8662 26.8418 20.9733 26.8418 21.0958C26.8418 21.2182 26.7346 21.3254 26.6122 21.3254ZM22.9237 21.3254H16.419C16.2966 21.3254 16.1895 21.2182 16.1895 21.0958C16.1895 20.9733 16.2966 20.8662 16.419 20.8662H22.9237C23.0461 20.8662 23.1532 20.9733 23.1532 21.0958C23.1532 21.2182 23.0461 21.3254 22.9237 21.3254ZM26.6122 18.2184H19.4341C19.3117 18.2184 19.2045 18.1113 19.2045 17.9889C19.2045 17.8664 19.3117 17.7593 19.4341 17.7593H26.6122C26.7346 17.7593 26.8418 17.8664 26.8418 17.9889C26.8418 18.1113 26.7346 18.2184 26.6122 18.2184ZM17.3526 18.2184H16.419C16.2966 18.2184 16.1895 18.1113 16.1895 17.9889C16.1895 17.8664 16.2966 17.7593 16.419 17.7593H17.3526C17.4751 17.7593 17.5822 17.8664 17.5822 17.9889C17.5822 18.1113 17.4751 18.2184 17.3526 18.2184Z" fill="white"/>
<path d="M7.95525 16.9024V15.8923H8.47562C8.62867 15.8923 8.78172 15.8004 8.81233 15.6474C8.85824 15.4943 8.91946 15.3566 8.98068 15.2188C9.07251 15.0964 9.0419 14.9127 8.91946 14.8209L8.53684 14.4842L9.28678 13.7343L9.6235 14.1322C9.71533 14.2393 9.86838 14.2699 9.99082 14.1934L10.45 13.9944C10.5877 13.9638 10.6795 13.8261 10.6642 13.6883V13.168H11.6591C11.6591 13.3363 11.6591 13.5047 11.6591 13.6883C11.6591 13.8261 11.7509 13.9638 11.8886 13.9944L12.3325 14.1781C12.4549 14.2699 12.6386 14.2393 12.7304 14.1169C12.8376 13.9791 12.96 13.872 13.0518 13.7649L13.7865 14.5148L13.4345 14.8209C13.312 14.9127 13.2814 15.0811 13.3579 15.2035C13.4345 15.3566 13.511 15.5249 13.5569 15.6933C13.6028 15.8157 13.7252 15.8923 13.8477 15.877H14.3834V16.8871H13.863C13.7099 16.8871 13.5875 16.9636 13.5263 17.1167C13.4651 17.2697 13.4038 17.4228 13.3426 17.5758C13.2661 17.6983 13.2967 17.8513 13.4038 17.9431L13.7865 18.2799L13.0365 19.0145C12.9294 18.8921 12.8222 18.7696 12.6998 18.6319C12.5774 18.4941 12.4855 18.5094 12.3478 18.5706C12.1947 18.6472 12.0417 18.7084 11.8733 18.7696C11.7356 18.8155 11.6438 18.938 11.6591 19.091C11.6591 19.2594 11.6591 19.4277 11.6591 19.6114H10.6642V19.091C10.6948 18.938 10.5877 18.8002 10.4347 18.7696L10.1439 18.6625C9.88878 18.5502 9.66941 18.5911 9.48575 18.7849C9.40923 18.8614 9.3327 18.9533 9.27148 19.0451L8.55214 18.2952C8.65928 18.1727 8.76641 18.0656 8.88885 17.9584C9.01129 17.8666 9.0419 17.683 8.96538 17.5452C8.90416 17.3922 8.82763 17.2391 8.78172 17.0861C8.75111 16.9483 8.61336 16.8565 8.47562 16.8871H7.93994L7.95525 16.9024ZM12.6692 16.3973C12.6692 15.5709 11.9958 14.9127 11.1693 14.9127C10.3428 14.9127 9.68472 15.5862 9.68472 16.4126C9.68472 17.2391 10.3581 17.8972 11.1846 17.8972C12.0111 17.8972 12.6692 17.2238 12.6692 16.3973Z" fill="white"/>
<path d="M28.9999 9.96826H5.91992V10.5958H28.9999V9.96826Z" fill="white"/>
</g>
<defs>
<clipPath id="clip0_347_24">
<rect width="35" height="35" fill="white"/>
</clipPath>
</defs>
</svg>
