<svg width="35" height="35" viewBox="0 0 35 35" fill="none" xmlns="http://www.w3.org/2000/svg">
<g clip-path="url(#clip0_323_21)">
<path d="M27.2824 -0.245117H7.92736C3.47181 -0.245117 -0.140137 3.36683 -0.140137 7.82238V27.1774C-0.140137 31.6329 3.47181 35.2449 7.92736 35.2449H27.2824C31.7379 35.2449 35.3499 31.6329 35.3499 27.1774V7.82238C35.3499 3.36683 31.7379 -0.245117 27.2824 -0.245117Z" fill="#F2EFFF"/>
<path d="M23.8699 3.29004H11.2699C6.90129 3.29004 3.35986 6.83147 3.35986 11.2V23.8C3.35986 28.1686 6.90129 31.71 11.2699 31.71H23.8699C28.2384 31.71 31.7799 28.1686 31.7799 23.8V11.2C31.7799 6.83147 28.2384 3.29004 23.8699 3.29004Z" fill="#6B46F2"/>
<path d="M23.4848 25.4102H18.5673V23.3627H23.4848V25.4102ZM31.7623 13.2477H3.2373V11.2002H31.7798V13.2477H31.7623Z" fill="white"/>
<path d="M18.0075 9.15262C18.655 9.15262 19.18 8.62767 19.18 7.98012C19.18 7.33256 18.655 6.80762 18.0075 6.80762C17.3599 6.80762 16.835 7.33256 16.835 7.98012C16.835 8.62767 17.3599 9.15262 18.0075 9.15262Z" fill="#EAE5FF"/>
<path d="M21.8048 9.15262C22.4524 9.15262 22.9773 8.62767 22.9773 7.98012C22.9773 7.33256 22.4524 6.80762 21.8048 6.80762C21.1573 6.80762 20.6323 7.33256 20.6323 7.98012C20.6323 8.62767 21.1573 9.15262 21.8048 9.15262Z" fill="#EAE5FF"/>
<path d="M25.6198 9.15262C26.2673 9.15262 26.7923 8.62767 26.7923 7.98012C26.7923 7.33256 26.2673 6.80762 25.6198 6.80762C24.9722 6.80762 24.4473 7.33256 24.4473 7.98012C24.4473 8.62767 24.9722 9.15262 25.6198 9.15262Z" fill="#EAE5FF"/>
<path d="M12.1447 25.41C11.8647 25.41 11.5847 25.305 11.3922 25.0775C11.0072 24.6575 11.0422 24.01 11.4622 23.625L14.1572 21.1575L11.4622 18.69C11.0422 18.305 11.0247 17.6575 11.3922 17.2375C11.7772 16.8175 12.4247 16.8 12.8447 17.1675L16.3622 20.3875C16.5722 20.58 16.6947 20.86 16.6947 21.14C16.6947 21.42 16.5722 21.7 16.3622 21.8925L12.8447 25.1125C12.6522 25.2875 12.4072 25.375 12.1447 25.375V25.41Z" fill="#EAE5FF"/>
</g>
<defs>
<clipPath id="clip0_323_21">
<rect width="35" height="35" fill="white"/>
</clipPath>
</defs>
</svg>
