<?xml version="1.0" encoding="UTF-8"?>
<svg id="Layer_1" xmlns="http://www.w3.org/2000/svg" viewBox="0 0 32 32">
  <defs>
    <style>
      .cls-1 {
        fill: #fff;
      }

      .cls-2 {
        fill: #6b46f2;
      }
    </style>
  </defs>
  <rect class="cls-1" width="32" height="32" rx="7.27" ry="7.27"/>
  <g>
    <path class="cls-2" d="M13.42,3.83c2.08-.1,4.02,1.24,4.46,3.29,2.43-1.4,5.42.97,4.17,3.63,4.33-1.87,7.75,2.71,5.08,5.72-1.65,1.85-4.05,1.25-6.25,1.35.68-2.03-.01-4.43-1.72-5.74-3.9-2.99-9.57.62-8.05,5.74-2.13,0-3.99.25-5.69-1.28-3.33-3-.71-8.4,4.12-7.8.1-.07-.32-1.14.17-2.38.56-1.43,2.19-2.45,3.7-2.53Z"/>
    <g>
      <path class="cls-2" d="M12.44,20.61c.09.07.18.15.27.22.03.11.1,1.99-.22,2.08-.83,0-1.65.02-2.48.02v1.47c2.87.79,1.48,4.45-.91,3.65-1.5-.5-1.83-3.1.37-3.65-.04-2.83-.28-1.95,2.62-2.08.25-.29-.2-1.71.34-1.72Z"/>
      <path class="cls-2" d="M19.4,20.61c.72-.21.29,1.3.44,1.67,3.06.1,2.68-.65,2.67,2.08,2.36.65,1.66,3.52-.02,3.75-2.33.32-3.21-3.01-.61-3.75v-1.47c-.43-.13-2.54.16-2.65-.2.07-.36-.16-1.99.17-2.08Z"/>
      <path class="cls-2" d="M15.87,21.74c.72-.21.31,1.56.42,2.62,2.55.73,1.66,4.07-.66,3.75-1.74-.24-2.34-3.12.07-3.75v-2.45c.06-.06.11-.11.17-.17Z"/>
    </g>
  </g>
  <g>
    <path class="cls-2" d="M15.11,11.63c.4-.04-.12.09-.54.61-.18.31-.36.63-.54.94-.16,0-1.12-.27-1.13-.35.41-.49,1.6-1.13,2.2-1.2Z"/>
    <path class="cls-2" d="M16.77,11.63c.89.14,1.7.58,2.35,1.2-.38.12-.75.23-1.13.35-.31-.6-.65-1.17-1.22-1.55Z"/>
    <path class="cls-2" d="M15.74,12c0,1.65.35,1.45-1.15,1.29-.08-.06.52-1.13,1.15-1.29Z"/>
    <path class="cls-2" d="M16.29,12c.55.23.94.74,1.15,1.29-.39.03-.78.06-1.16.09,0-.46.01-.92.02-1.39Z"/>
    <path class="cls-2" d="M12.52,13.25c.44.14.87.28,1.31.43-.2.67-.26,1.36-.35,2.05-.63,0-1.27-.01-1.9-.02.06-.89.38-1.76.94-2.46Z"/>
    <path class="cls-2" d="M19.43,13.25c.17-.01.65.93.72,1.13.07.18.37,1.27.24,1.35-.63,0-1.27-.01-1.9-.02-.02-.69-.13-1.37-.33-2.03.43-.11.88-.21,1.28-.43Z"/>
    <path class="cls-2" d="M14.37,13.77l1.39.17c0,.6-.01,1.19-.02,1.79-.57,0-1.15-.01-1.72-.02.06-.66.12-1.32.35-1.94Z"/>
    <path class="cls-2" d="M17.58,13.77s.06.04.09.06c.16.62.29,1.24.3,1.88-.56,0-1.12.01-1.68.02,0-.6-.01-1.19-.02-1.79.44-.06.87-.11,1.31-.17Z"/>
    <path class="cls-2" d="M11.6,16.25h1.88c.11.7.13,1.42.39,2.09-.44.14-.87.28-1.31.43-.57-.67-.96-1.62-.96-2.51Z"/>
    <path class="cls-2" d="M14.04,16.25c.57,0,1.15.01,1.72.02,0,.62-.01,1.24-.02,1.87-.23-.07-1.29.18-1.39.06-.19-.63-.3-1.28-.31-1.94Z"/>
    <path class="cls-2" d="M16.29,16.25c.56,0,1.12.01,1.68.02-.02.67-.12,1.35-.35,1.98-.45-.04-.9-.09-1.35-.13,0-.62.01-1.24.02-1.87Z"/>
    <path class="cls-2" d="M18.51,16.25c.63,0,1.27.01,1.9.02-.01.91-.39,1.79-.94,2.49-.44-.14-.87-.28-1.31-.43.2-.68.3-1.38.35-2.09Z"/>
    <path class="cls-2" d="M15.29,18.65c.15,0,.31.01.46.02,0,.44-.01.87-.02,1.31-.61-.16-1.22-1.19-1.11-1.26.22-.02.44-.05.67-.07Z"/>
    <path class="cls-2" d="M16.29,18.65c.38.03.75.06,1.13.09-.22.53-.59,1.02-1.13,1.24v-1.33Z"/>
    <path class="cls-2" d="M14,18.83s.06.04.09.06c.16.28.32.57.48.85.43.54,1.14.77.24.54-.62-.16-1.42-.63-1.87-1.09.35-.12.7-.23,1.05-.35Z"/>
    <path class="cls-2" d="M17.95,18.83c.38.12.75.23,1.13.35-.64.6-1.44,1.03-2.31,1.16.54-.38.92-.91,1.18-1.52Z"/>
  </g>
</svg>