<?xml version="1.0" encoding="utf-8"?>
<!-- Generator: Adobe Illustrator 17.0.0, SVG Export Plug-In . SVG Version: 6.00 Build 0)  -->
<!DOCTYPE svg PUBLIC "-//W3C//DTD SVG 1.1//EN" "http://www.w3.org/Graphics/SVG/1.1/DTD/svg11.dtd">
<svg version="1.1" id="Layer_1" xmlns="http://www.w3.org/2000/svg" xmlns:xlink="http://www.w3.org/1999/xlink" x="0px" y="0px"
	 width="595.276px" height="560.972px" viewBox="0 141.549 595.276 560.972" enable-background="new 0 141.549 595.276 560.972"
	 xml:space="preserve">
<g id="Layer_x0020_1">
	<g id="_384870440">
		<path fill="#FFFFFF" d="M124.916,438.764c1.944-2.376,2.592-15.119,14.903-22.175c9.504-5.472,20.879-3.96,28.727,1.944
			c7.2,5.472,11.16,14.471,10.584,26.423c-1.008,20.519-16.631,38.807-12.384,60.478c1.8,9,8.208,16.631,11.304,25.631
			c8.424,24.551-17.711,41.543-34.703,33.335c-0.432,1.728-0.144,0.936-0.792,2.016l-3.744,4.896l0.648,4.176
			c7.776-2.376,14.975-5.904,23.615-8.208c29.807-7.848,54.142-10.656,86.541-8.64c24.839,1.584,57.454,7.344,80.925,14.471
			l25.271,7.128c-0.288-9.72-4.248-26.783-4.68-42.767c-0.36-13.896,3.312-27.791,6.336-40.679
			c4.248-17.855,15.623-54.934,21.815-72.07c-0.288-1.656-0.144-0.864-0.504-2.304c-2.664-0.144-5.832,0.288-8.28-0.432
			c-2.736-0.792-4.104-0.792-7.344-1.008c-5.544-0.36-9.504-1.296-14.688-2.448c-8.856-1.944-15.767-5.976-18.575-6.84
			c-2.304-0.72-0.936,0.144-2.808-1.152c-1.944-1.368,0.144-0.72-2.736-1.296l0.288-1.08l2.088-5.688
			c-6.336-2.016-10.296-4.32-15.191-7.848c-7.2-5.112-7.488-9-10.368-12.744h-4.968c0.864,0.792,2.736,1.224,2.952,1.368
			c1.152,0.504-2.376,3.528,1.008,6.264c1.368-3.312,1.008,0,2.52-3.024l-0.504,2.088c-0.144,0.864,0.072,0.864-0.216,1.728
			c-0.936,3.096-0.936-0.936-1.296,2.664c3.672-0.288,0.504-1.008,3.024-1.512c1.656,3.024,3.384,2.448,4.536,4.392
			c0.864,1.44,0.936,0,0.432,2.592c0,0,1.44-0.36,1.584-0.432c0.144,0,0.288,0,0.432-0.072c0.144,0,0.288,0,0.36,0
			c1.224-0.072-0.144,1.584,1.584,0c0.144,1.944-0.216,0.864,0.864,2.016l1.368,1.008c0.072,0.072,0.288,0.36,0.36,0.216
			c0.072-0.144,0.288,0.144,0.36,0.216c0-0.072-0.144-0.144-0.144-0.144l-0.144-0.072c-0.144,0.072-0.576-0.144-1.224,1.728
			c1.296,0.144,2.52,0.216,3.024,0.216l2.448,0.288v6.768c-4.392,0.864-121.604,0.216-131.972,0.216
			c-10.008,0-33.119-0.504-42.767-0.072l-0.72,0.072c-3.456,1.224-3.096,5.472-3.024,3.024c-2.52-0.144-3.312-0.72-5.472,0
			c1.368,1.728-2.088,1.512,3.024,1.512c0-0.072,0.576-0.72-0.792-0.216l-1.008,1.08c-0.072,0.072-0.144,0.144-0.144,0.216
			c-0.072,0.072-0.432,0.36-0.576,0.504c-2.232,1.944-0.504,1.08-3.024,2.448c-0.144,0.072-0.36,0.36-0.432,0.288
			c-0.072-0.144-0.36,0.144-0.504,0.288c0.576-0.432,0.936-0.288-0.288-0.936c-0.072-0.072-0.216-0.144-0.36-0.144
			c-2.52-0.576-2.016,0.864-2.016,0.936c-1.224,2.304-0.144,0.576-0.144,0.72c-0.144,0.72,0,0.144,0,1.512
			c0.072,4.464-1.368,0-3.672,3.456c-0.072-3.096-0.216-0.864-1.512-1.008c0.072,3.6,2.808,4.824-0.504,6.984
			c2.16,8.784-1.8,3.744,1.296,7.848V438.764z"/>
		<path fill="#FEFEFE" d="M439.113,277.129c8.352-0.864,13.752,0.936,15.983,7.848c0.792,2.376-0.504,0.504,1.728,2.232
			c3.96,3.24,2.16,11.664,0.504,14.832c-1.008,1.872-2.376,2.592-2.808,4.824c-0.432,2.16-0.216,4.752-0.936,6.48
			c-0.072-0.144-0.144-0.288-0.144-0.36c0-0.072-0.072-0.288-0.144-0.36c0-0.072-0.072-0.288-0.072-0.36
			c0-0.144-0.072-0.288-0.072-0.432l0.432-5.544c-1.728-0.792-4.824,0.36-6.048-7.056c-2.232,0.792-4.32,1.368-5.688-0.792
			c-1.152-1.8-0.432-3.024,0.504-4.32c0.792-1.152,0.144,0,0.936-1.368c-2.016-3.024-3.456-3.096-9.288-2.52
			c-1.872,2.736-2.232,6.984-2.232,11.016l2.16,1.008c-1.656,1.512-2.664,0.144-1.584,3.024c1.872,5.112,8.928,2.16,11.448,1.656
			c-1.368,5.328-5.256,2.448-5.4,6.12l12.168,0.144c11.304,1.512,10.224,1.944,10.152,8.928
			c29.735,12.024,26.927,85.389,25.487,113.684c-0.072,2.016,0.864,7.056-1.152,8.136c0.504,3.6,2.592,4.536-5.256,6.12
			c0.432,5.328,1.872,11.736,2.52,17.567c2.016,17.639,2.088,40.031-0.216,57.166c-1.224,9.432-1.296,7.92,3.528,14.4
			c2.736,3.672,5.472,8.136,8.208,11.808c1.584,2.088,14.975,22.103,16.703,23.471c4.536-1.872,12.96-10.152,16.343-14.4
			c7.344-9.144,10.08-18.575,11.016-19.583c1.224,6.912-11.304,22.247-17.855,28.223c-2.664,2.448-5.76,4.824-8.784,6.624
			c0.432,2.016,9.288,13.968,11.088,16.631c4.752,6.912,18.791,27.863,23.543,32.471c3.096,3.024,12.312,11.664,12.744,15.911
			c-1.368,2.52-5.976,5.904-8.208,7.92c-6.48,5.832-6.192,6.624-8.928,5.472c-2.304,6.12-8.568,9.648-14.184,14.904
			c-2.52,2.376-5.4,4.536-7.776,6.768c-2.592,2.448-4.968,6.264-9.288,4.536c-0.288,0.36-0.288,0.504-0.432,1.008l-0.072,3.456
			c0.36,2.304-1.08,1.368,5.256,1.872v-3.024c1.512-2.736-1.08,0.144,1.008-1.152l5.4-2.952c2.52-1.512,2.592-1.512,3.096-5.4
			c-0.216,0.072-0.792-0.36-0.288,0.72c0.648,1.512-0.504,0.432,1.296,1.224l1.512-3.24c1.584,0,0.36-0.36,1.872,0.72l1.656-3.456
			c-1.08,0-0.576,0.36,0.216,0.072c2.448-0.864-1.368-0.144,1.296-0.576l-0.216,0.216c0.288,1.296,0.072,0.432,0.72,1.296
			c2.376-1.152,2.232-0.288,4.032-1.008c-1.008-1.584,0.216-1.368-2.52-1.512c0.72-0.216,0.36,2.376,4.968-3.528
			c0.072,0,0.144,0.072,0.144,0.072l1.872,0.432c0.144-1.368,0.432-3.744-0.144-4.752c-1.152-1.872-0.648-0.288-0.792-0.288
			c1.944,0,4.032,0.216,4.32-2.088l-0.288-0.432c1.656,0,2.88,0.216,3.888-0.432c0.936-0.576,1.008,0.216,1.152-3.528
			c-1.296,1.08,1.872,1.728,2.304-1.44c0.072-0.36,0.216-2.016,0.432-2.448l1.152-1.08c0.072-0.072,0.216-0.144,0.288-0.144
			c3.888-2.376,1.008-2.592,3.456-2.304c3.096,0.432,1.728,1.368,2.304,3.24l2.016,0.432V310.752c-17.135,0-34.343,0-51.478,0
			h-38.519c-2.232-0.144-4.104-0.576-6.552-0.792c-1.368-0.072-1.656-0.432-3.024,0.144c-1.728,0.72-0.432,0-1.224,1.656
			l0.792-0.576c-1.368-1.728,2.088-1.512-3.024-1.512h0.288c0.432-0.36-0.216-2.232,0.072-3.816c0.576-3.168,1.8-1.44,3.384-3.384
			l1.8-8.352c0-0.144-0.072-0.288-0.072-0.432l0.432-3.6c-0.144-0.072-0.36-0.072-0.432-0.144c-2.448-0.864-1.224,0.72-1.08-0.864
			c-0.072-1.944-0.36-0.936-0.504-2.952l-2.952-0.576v-3.024l-2.016,1.728c-0.072-1.584-0.216-1.296-0.504-2.232
			c0.144,0.792-1.08,1.008,0.936,0.504c2.16-0.504,1.08-3.312,1.08-4.032c-0.216,0.072-0.432,0.216-0.576,0.36l-1.008,1.008
			c-1.08,2.52,0.576,0.648,0.576,0.648c-1.944-0.504,2.088,0.504-1.152-1.08c-0.72-0.36-2.016,0.504-2.592-2.232
			c-0.648-2.808,0.432-0.432-0.216-0.648c0-0.144-0.144-0.288-0.216-0.36c-2.16-2.808-7.704-2.592-10.8-2.664l-0.576,0.864
			c-1.224,1.368-0.36,0.648-1.368,0.36c-4.32-1.224-4.248-0.936-5.04,1.224c0.648,0.144,3.168,0.504,3.528,0.72V277.129z"/>
		<path fill="#FEFEFE" d="M176.826,196.132c1.008-2.016,1.152-2.448,2.808-4.176c1.368-0.072,4.896,0.288,5.688,0.864
			c1.584,1.008,1.008,3.744,1.08,5.616l10.296,7.128c3.024,0.936,4.176-1.584,6.408,1.44c3.384,4.608-0.576,6.624-1.224,7.632
			s1.152,12.168,1.224,12.312c0.864,1.296,2.808,1.872,3.888,2.52c0.072,1.224,0.144,2.592-0.072,3.816l-0.504,1.44
			c-1.728,3.384-3.816,0.648-6.192,2.88c-1.08,1.008-3.024,4.752-5.328,7.2l-0.792,0.72c-1.872,2.16-0.504,2.448-0.72,6.768
			c-7.488,4.608-5.328,1.152-9.144-0.288c-1.152-0.432-3.456,0.504-5.328,0.72c-2.232,0.288-4.464,0.144-6.768,0.36
			c-1.512,1.872-1.44,2.52-2.736,4.176c-1.944,0.288-4.392,0.144-5.832-0.792c-1.656-1.152-1.152-3.384-1.224-5.976
			c-1.584-1.224-6.912-3.24-9.288-7.2c-3.384-0.144-4.464,1.584-6.624-0.144c-1.512-1.224-2.592-3.888-1.368-6.12
			c1.944-3.528,2.664-0.648,1.584-6.048c-0.576-2.88-0.72-5.112-0.72-8.352c-1.368-0.936-2.664-1.944-4.032-2.808
			c-0.792-7.488,2.448-7.272,6.768-7.2c3.168-7.416,7.056-7.272,6.912-11.448c-0.072-2.16-0.864-3.312,0.936-4.68
			c5.328-4.248,5.832,0.504,8.64,1.008c0.432,0.072,9.936-1.08,11.664-1.224V196.132z M231.04,184.324
			c3.096-2.016-0.864-3.168,6.768-2.088l0.144,4.248c0.576,0.36,1.224,0.648,2.088,1.152l5.184,4.32l4.68-0.144
			c0.648,1.728,1.656,1.8,1.656,3.744c0,1.656-1.08,2.16-2.016,3.384l0.648,8.496c1.368,0.864,2.376,1.08,3.024,3.024
			c0,4.752-0.504,4.608-4.968,4.68c-6.192,9.864-4.536,3.816-5.256,11.304c-5.616,4.608-3.888-0.864-9,0.144
			c-8.496,1.656-4.752-1.44-9.36,3.888c-2.16-0.432-2.736-1.224-4.464-1.656c-1.008-6.912-2.52-3.024-7.272-9
			c-2.376,0.216-3.96,0.864-5.184-0.936c-1.44-2.16-0.72-3.096,0.288-4.68c1.512-2.52,0.792-1.656,0.36-4.824
			c-0.288-2.016-0.144-3.384-0.432-5.256c-2.592-1.44-4.176-1.512-3.168-4.536c1.008-3.024,0.864-2.232,5.976-3.024
			c1.008-1.8,0.36-2.376,1.584-4.104l1.944-2.016c2.232-2.376-0.288-2.232,0.648-4.752c1.44-4.032,7.416-0.36,7.416-0.36
			l8.784-1.008H231.04z M180.498,166.397c1.656,1.944,2.16,1.152,5.472,3.24c2.304,1.44,3.888,1.728,4.968,4.176
			c-6.12-2.088-9.936-7.776-25.703-9.288c-14.76-1.44-27.647,3.816-37.943,12.744c-9.36,8.136-16.199,21.959-16.127,34.703
			c3.528,1.944,6.84,3.168,8.352,6.984c-4.968-2.52-6.48-5.976-14.184-7.704c-16.487-3.672-32.039,7.416-32.759,27.287
			c1.728,0.432,3.96,0.792,5.472,1.872c-0.432,0.36-0.216,0.648-2.016,0.288c-2.448-0.432-3.6-1.512-8.352-0.576
			c-7.344,1.44-13.104,8.64-12.456,16.343c0,0.432,0.36,2.52,0.36,2.664c-0.072,2.448,0.648,0.648-0.72,1.944l-1.296-4.536
			c-4.968,2.88-6.48,7.704-7.2,13.392c-3.96,0.288-10.512-0.576-7.272,4.392l284.462,0.144c4.68,0,13.032,0.936,13.176-2.016
			c0.216-3.24-4.032-2.088-9.216-2.52c-0.72-1.224-2.808-15.047-16.055-15.623c-4.608-0.216-5.544,0.864-6.84,1.08
			c-1.512,0.216,0.216,0.144-1.152,0l2.664-1.728c1.512-0.288,2.016-0.288,3.168-0.792c3.24-4.608,2.952-14.688,0.864-20.447
			c-6.48-17.783-29.303-23.543-43.775-9.936c-1.296,1.224-1.368,2.304-3.168,2.376c0.504-2.16,4.608-5.4,7.128-7.056
			c4.824-3.168,8.352-2.952,10.368-4.248c1.512-13.464-2.952-26.279-8.856-35.855c-4.896-7.848-9.936-12.384-16.631-17.351
			c-11.88-8.856-29.735-12.168-45.286-9.216c-5.328,1.008-12.312,3.6-16.415,5.904c-7.704,4.392-10.44,7.776-13.104,9.36H180.498z"
			/>
		<path fill="#FEC034" d="M339.613,407.013c-1.008,0.864-1.944,1.944-3.672,1.224c-1.152-0.504-2.16-1.944-1.584-3.456
			C335.221,402.405,340.045,401.253,339.613,407.013z M370.211,421.268c1.872-0.576,6.552-0.288,8.856-0.36
			c2.88-0.144,5.76-0.576,8.28-1.008c5.328-1.008,11.592-1.44,15.263-3.96c-0.432-6.192-0.144-11.952,6.624-15.839
			c2.808-1.584,5.184-2.304,9.288-1.8c4.536,0.576,5.04,2.52,7.992,3.816c6.048-3.24,14.04-16.199,17.063-23.111
			c1.224,2.736-8.712,15.767-10.584,17.927c-8.568,10.008-23.183,19.007-36.935,22.031c-4.536,1.008-21.455,4.464-25.919,2.304
			H370.211z M368.052,307.152c4.104,1.296,4.104,4.536,0,5.76c-1.008-0.36-1.368-0.504-2.232-0.792l-0.36-3.312l2.52-1.584
			L368.052,307.152z M363.948,302.76c-0.504,0.576,0.72,0.72-1.224,0.432c-0.432,2.088-3.096,4.896-4.824,6.552
			c-1.584,1.512,1.8-1.656-0.792,0.72c-1.872,1.656-4.104,6.048-5.976,6.48c1.872,2.664,5.4,8.568,7.416,10.656
			c1.8-0.144,1.584-0.288,3.024-1.656l15.839-12.816c-0.216,1.872-6.84,6.624-8.64,8.064c-1.728,1.368-8.208,6.552-9,7.776
			c0.576,1.728,9.576,14.543,10.368,15.263c0.504-0.072-0.216-0.36,0.792,0.36l11.736,8.208c2.664,1.728,1.368-0.072,4.608,2.376
			c0-1.512,1.8-2.736,4.032-4.608c1.8-1.44,3.24-2.808,4.824-4.176c1.944-1.656,3.168-2.808,4.824-4.176
			c1.296-1.08,3.312-3.024,4.608-3.816c-0.36,1.512-4.032,7.632-4.968,9.432c-1.728,3.24-2.808,6.696-4.536,10.224l-1.944-0.072
			l1.368,0.936c-1.224,4.464-3.816,9.36-4.464,13.464h-1.584l1.368,0.36c-0.648,1.152,0.936,1.08-0.936,0.936l-0.144,1.512
			c13.464-6.984,15.479-19.367,19.799-25.199c0.288,3.888-5.976,13.464-7.848,16.199c-6.696,9.432-19.007,15.335-31.103,16.271
			c-7.632,0.576-15.983-0.072-22.967,0.576c-0.144,4.608,0.36,30.887-0.576,32.759c-1.656-2.016-0.432-28.151-0.936-33.119
			l-10.224-0.144l-10.44,26.639c-1.368-0.288-0.72,0.432-0.936-0.864l-0.288,1.08c2.88,0.576,0.792-0.072,2.736,1.296
			c1.872,1.296,0.504,0.432,2.808,1.152c2.808,0.864,9.72,4.968,18.575,6.84c5.112,1.152,9.144,2.088,14.688,2.448
			c3.24,0.216,4.68,0.288,7.344,1.008c2.376,0.648,5.616,0.216,8.28,0.432c0.36,1.44,0.216,0.648,0.504,2.304l0.72-1.152
			l0.216,1.296c1.368-0.576,3.384,0.936,5.256,1.8l15.767,5.184c2.592,0.72,2.304,0,2.448,2.16l0.432-1.152
			c0.864,0.72,0.288-0.144,0.648,1.08l0.792-1.296c2.016,0.432,1.584,1.008,4.104,1.296c1.944,0.216,3.816,0.288,5.544,0.576
			c17.783,2.448,26.495-0.792,33.911-0.504l0.072,16.631c0.72-1.8,0.36-9.72,0.288-12.6c0-0.432-0.072-1.656,0-2.016l0.648-2.088
			c1.8-1.8,2.736-1.224,5.544-1.872c2.016-0.504,3.312-1.152,5.616-1.872c5.832-1.656,6.912-1.8,12.744,0
			c2.808,0.936,5.04,3.312,6.696,5.76c1.296,1.8,3.024,7.056,4.392,8.28c2.016-1.08,1.08-6.12,1.152-8.136
			c1.44-28.295,4.176-101.589-25.487-113.684c0.072-6.984,1.152-7.416-10.152-8.928l-12.168-0.144l-0.792-0.432
			c-10.44,7.416-26.639,11.52-39.887,7.056c-11.232-3.816-16.631-10.224-23.615-14.544c-2.592-1.656-3.744-5.04-7.128-5.4
			c-1.368,0.648-2.088,2.088-3.096,2.952L363.948,302.76z"/>
		<path fill="#FEFEFE" d="M415.714,543.952c-0.432-2.808-1.152-6.624-0.936-9.504c8.568-6.768,14.759-14.688,20.519-25.775
			c2.952-5.688,11.736-27.647,11.088-34.775l-0.792-13.968c0,0.072-1.944,0.36,1.08,1.656c0.504-2.808-0.072-2.16-0.072-4.68
			c0-2.016,0.576-1.944,0.864-3.456c0.288-1.368,0.144-3.528,0.216-5.04c0-2.52,0.072-3.168-1.008-4.464
			c-2.448,1.08-0.936-1.224-1.728,5.112c-0.144,0.864-0.288,3.24-0.288,4.824c-0.864-2.088-0.504-6.12-0.504-9
			c-1.08-1.512,0.432-0.72-2.448-1.224c-5.904-1.152-19.511-1.08-26.495-1.152c-1.944,0-3.528-0.216-5.184,0.504l-2.664,1.368
			c-2.52,1.512,0.504-1.152-0.72,0.504l-0.504,0.504c-0.864,0.576,0.144,0.72-0.288-0.936c-0.36-1.368-0.72-2.592-1.656-3.312
			c-0.072-0.072-0.216-0.144-0.36-0.216l-1.512-0.576l-7.056,22.679c-13.896,48.814-17.423,109.148-6.84,158.971l5.4,24.047
			l26.495,0.072c-1.08,1.008,0.288,0.36-1.728,0.864c-0.288,0.072-1.152,0.144-1.44,0.144c-13.968,0.432-32.903-0.36-47.878-0.072
			c-0.144,2.808,2.52,14.255,3.24,16.919h57.958L415.714,543.88V543.952z"/>
		<path fill="#FEFEFE" d="M173.154,609.254c-4.32,1.944-24.839-0.792-30.023,1.152c0.36,1.008,0.072,1.728,2.016,1.512
			c-4.32,0-1.728-0.288-2.52,2.016l2.448-0.504c0.144,0,0.288-0.072,0.36-0.144c0.144-0.072,0.288-0.072,0.36-0.144
			c0.144,0,0.288-0.072,0.432-0.072c4.104-0.864,5.544,0.576,6.696,0.432c0.504-0.072,1.08-0.576,3.168-0.648
			c2.736-0.144,5.76,0.072,8.568,0c0.936,0,3.168-0.144,3.96-0.072l3.528,1.512c0.576-0.864,0.648-0.504,1.008-2.016
			c-1.728,2.16,0.432,1.944,0.504,2.016l0.36-0.72c1.08-1.728,0.072-0.576,1.152,0.144l1.008,0.648
			c-0.288-2.304,0.072-3.096-0.288-5.04l-0.216-3.6l-4.032-0.432c-0.648-2.088-0.864,1.728,0.288-0.432
			c0.792-1.512,0-0.936,0.216-2.088c28.151,0,56.302,0,84.525,0c25.055,0,54.07,0.432,78.981,0c2.736-0.072,2.952-0.432,4.968,1.008
			c-1.224,0.36-0.792,1.008-1.008,2.52h6.48c-0.504-3.528-2.448-2.52,2.016-2.52l0.504,2.016h4.464
			c0.432-1.152,0.576-2.304,1.008-3.528c0,0.36-0.072,1.08,1.44,1.512c1.512,0.432,0.936,0,2.592,0c-1.224,1.8-1.728,3.024,0,4.464
			c-0.576-0.792-0.072-0.288-0.432-1.224l-1.584-2.304c-0.432,1.8,0.144,1.152-0.432,3.168l-0.576,1.872
			c0.144,0.072,0.36,0.144,0.504,0.144l1.152,0.36c0.072,0,0.216,0.072,0.288,0.072c0.072,0,0.144,0.072,0.216,0.144l0.504,0.504
			c0-0.072,0.072,0.144,0.144,0.216c-0.144,0.072-0.936,0.216-1.296,0.504c-1.08,0.936-0.216-0.864-1.008,1.512
			c1.512,0.288-0.648-0.072,1.296-0.072c1.8,0-0.144-0.216,1.08,0.072c0.792,0.216,0.504,0.216,1.008,0.504
			c0.072,0.072,0.288,0.36,0.36,0.216c0.072-0.144,0.216,0.216,0.36,0.288c1.224-1.296,1.008,1.584,1.008-1.512
			c0,1.08-0.144,0,0.864,0.504c-0.36-3.528-4.968-30.815-5.76-32.039c-2.448-1.152-9.576-2.664-12.456-3.6
			c-56.95-17.927-121.676-26.135-180.066-9.648c-8.856,2.52-15.767,5.688-23.615,8.424c1.44,10.728,8.208,24.407,13.536,31.823
			l20.447,0.144c0.36,0.648,0.288,0.216-0.504,0.648V609.254z"/>
		<path fill="#FEFEFE" d="M450.129,433.796c0.144,12.384,0,22.679-1.728,34.343c-0.792,5.544-1.728,9.936-2.88,15.119
			c-1.008,4.536-1.296,10.08-2.592,14.616c-2.232,17.351,15.263,58.678,22.895,72.79c5.544,10.296,11.952,20.087,19.151,28.799
			c4.392,5.256,6.984,8.28,11.304,12.672c1.8,1.872,10.44,10.584,12.744,11.16c2.88-2.16,11.304-10.152,13.392-10.8
			c-0.648,1.944-14.544,13.032-17.063,15.263l-8.568,7.416c-1.584,1.296-7.848,6.048-8.856,7.704
			c1.368,2.448,10.8,13.392,12.096,13.824l15.191-13.104c4.32-3.672,24.695-20.519,25.919-22.679
			c-2.88-5.112-50.758-73.006-54.07-77.685c-8.568-12.168-7.272-7.344-5.328-24.623c2.16-19.367,1.224-42.119-1.944-61.414
			c-0.792-4.968-1.584-9.36-2.664-13.968c-0.936-3.888-2.88-9.72-3.312-13.176c-5.832-1.8-6.912-1.656-12.744,0
			c-2.304,0.648-3.528,1.368-5.616,1.872c-2.808,0.648-3.672,0-5.544,1.872H450.129z"/>
		<path fill="#FEFEFE" d="M382.163,363.958l-17.135-24.839c-3.024-4.248-20.879-31.463-23.183-32.183
			c-2.52-0.792-99.357-0.216-110.804-0.216c0.36,2.664,1.296,1.08,1.512,3.744v-0.072c1.512,0.72,4.968,6.192,6.192,7.92
			l27.791,39.671c3.888,5.472,8.496,14.255,12.528,14.544c8.424,0.504,18.863,0,27.575,0l81.141,0.072
			C387.131,370.078,383.819,366.334,382.163,363.958z M324.805,349.778c-6.449,0-6.449-10,0-10
			C331.253,339.778,331.253,349.778,324.805,349.778z"/>
		<path fill="#FDFDFD" d="M120.884,528.401c-0.072,0.36,0.216,7.2,0.432,8.424c0.432,3.384,0.576,4.032,2.736,6.192
			c3.6,3.528,10.584,4.608,13.608,4.32c1.224-3.312,1.944-9.144,2.952-12.312c4.032-13.248,7.848-17.135,10.8-34.631
			c4.104-24.047,2.16-33.263-2.16-55.438c2.232,1.08,1.656,0.072,2.952,6.048c3.744,17.567,3.96,33.263,0.36,51.19
			c-3.456,17.351-7.56,22.607-11.448,36.575c-3.24,11.592-1.152,9.144-0.216,12.024c1.8,0.864,1.152,0.36,2.088,2.304
			c0.36,0.792,1.008,2.016,1.152,2.952c0.504,2.664-0.144,5.256-0.432,7.416c7.272,1.872,15.407,2.376,21.599-1.296
			c0.648-0.36,1.368-0.936,2.088-1.368l0.936-0.648c3.888-2.664,7.2-7.416,8.784-12.168c5.112-15.192-5.976-26.063-10.368-38.303
			c-10.08-28.367,23.759-59.182,6.336-84.741c-7.632-11.16-24.695-14.256-36.071-5.04c-9.36,7.632-13.464,22.823-10.08,38.663
			c6.48,30.959,24.695,49.102,4.104,60.838C128.3,520.985,121.604,525.449,120.884,528.401z"/>
		<path fill="#FEFEFE" d="M370.715,454.459c-1.728,3.24-5.472,16.991-6.624,21.383c-6.696,25.559-14.04,44.998-11.232,73.006
			c1.224,12.312,12.6,90.789,16.343,97.269h23.759c-0.288-4.392-3.24-13.176-4.248-18.215c-4.392-21.455-6.48-35.495-7.128-58.462
			c-0.432-14.4,0.216-28.439,1.224-42.479c1.224-15.911,3.96-25.415,5.328-38.015c-5.184-3.24-8.28-2.736-10.584-13.536
			c-2.304-0.936-0.864,1.512-1.44-2.448l0.288-9.36c1.584-5.76-0.216-1.08-0.216-8.712c-3.816-2.664-3.096,0.288-5.472-0.504
			V454.459z"/>
		<path fill="#FEFEFE" d="M431.481,669.444l0.072,19.799c6.192-0.144,3.168-4.824,3.168-4.824c-0.36-1.872-0.072-6.768-0.072-8.928
			h0.504c0,8.424,0.648,2.088,1.008,7.992l0.504-13.464h67.966c-0.072,2.376-0.576,0.936-0.144,2.952
			c0.72,3.456,0.288-0.144,1.152,2.016l-0.072-0.072l-0.936,1.08c-0.216,0.072-0.36-1.584-0.288,1.08
			c0.072,3.024-0.072-0.144,0.216,0.936l0.288,1.224c0.072,0.216,0.072,1.584,2.88,1.512c2.016,0,0.72,0.648,2.376-0.936
			c-0.432-1.152-0.072-0.432-0.576-1.224l-0.864-1.08c-0.288-2.808-2.304-4.248-0.936-7.92c1.08-2.88,3.24-4.176,4.896-6.048
			c1.512-2.16,6.624-4.68,6.912-8.568c-1.296-0.504-1.152-0.36-1.656-1.44l1.512-0.648c0.144-2.448-0.144-0.864-0.576-1.368
			c-1.368-1.728-0.504,0.72-1.296-1.44c1.152-1.728-0.216-0.288,2.016-1.512c-0.936-0.504-0.144-0.216-0.648-1.008l-0.936-1.008
			c1.44-1.944,1.512-0.504,0.936-3.6c-3.672,0.72-14.544,13.32-19.079,15.191c-2.88-2.376-39.815-46.654-41.759-50.902l-7.056,0.288
			c0.648-1.584,3.888-1.296,5.688-1.368c-0.648-1.512-7.848-10.728-9.576-12.744l-24.119-0.576
			c0.072,5.76,1.512,13.536,2.304,19.295c1.944,14.615,6.048,44.998,6.48,57.382L431.481,669.444z"/>
		<path fill="#FDFDFD" d="M420.25,549.424c0.36,6.912,25.919,40.895,31.463,48.454c8.136,11.088,17.711,22.751,26.495,33.479
			c1.944,2.376,7.056,9.072,8.928,10.44l18.215-15.191c1.08-1.008,1.584-1.296,2.376-2.232l-6.192-5.904
			c-27.071-24.263-45.43-59.254-55.366-94.605l-3.456-14.184c-0.072-0.504-0.36-2.16-0.504-2.52c-1.08-2.52,0.072-0.504-1.296-1.584
			c0.072,4.536-5.904,20.303-7.92,24.551c-2.304,4.896-9.648,18.431-12.744,19.151V549.424z"/>
		<path fill="#AD95FE" d="M174.09,237.747c-3.816,0-6.48-2.016-9.072-4.248c-5.256-4.68-4.824-12.672,0.216-17.855
			c5.112-5.328,13.896-5.328,18.863,0.288c4.752,5.4,4.608,13.176-0.936,18.143C180.498,236.451,178.338,237.747,174.09,237.747z
			 M141.907,219.747c1.368,0.936,2.664,1.872,4.032,2.808c0.072,3.168,0.144,5.472,0.72,8.352c1.152,5.4,0.36,2.592-1.584,6.048
			c-1.224,2.232-0.144,4.896,1.368,6.12c2.16,1.728,3.312,0,6.624,0.144c2.376,4.032,7.704,5.976,9.288,7.2
			c0.072,2.592-0.432,4.824,1.224,5.976c1.44,0.936,3.888,1.08,5.832,0.792c1.296-1.656,1.152-2.232,2.736-4.176
			c2.304-0.288,4.536-0.072,6.768-0.36c1.8-0.216,4.176-1.152,5.328-0.72c3.816,1.44,1.656,4.896,9.144,0.288
			c0.216-4.32-1.152-4.608,0.72-6.768l0.792-0.72c2.376-2.448,4.248-6.192,5.328-7.2c2.448-2.16,4.464,0.576,6.192-2.88
			c0,0,0.504-1.368,0.504-1.44c0.216-1.224,0.072-2.52,0.072-3.816c-1.08-0.648-3.024-1.224-3.888-2.52
			c-0.072-0.072-1.872-11.304-1.224-12.312c0.648-1.08,4.608-3.024,1.224-7.632c-2.232-3.024-3.384-0.504-6.408-1.44l-10.296-7.128
			c-0.072-1.872,0.504-4.608-1.08-5.616c-0.792-0.504-4.32-0.864-5.688-0.864c-1.656,1.656-1.8,2.16-2.808,4.176
			c-1.728,0.216-11.232,1.296-11.664,1.224c-2.88-0.432-3.312-5.184-8.64-1.008c-1.728,1.368-1.008,2.52-0.936,4.68
			c0.144,4.104-3.672,3.96-6.912,11.448c-4.32-0.072-7.56-0.288-6.768,7.2V219.747z"/>
		<path fill="#2C2C2C" d="M379.283,424.652c-6.264,17.135-17.639,54.214-21.815,72.07c-3.024,12.888-6.768,26.783-6.336,40.679
			c0.432,15.983,4.392,33.047,4.68,42.767l-25.271-7.128c-23.471-7.128-56.158-12.888-80.925-14.471
			c-32.327-2.016-56.734,0.792-86.541,8.64c-8.64,2.304-15.767,5.832-23.615,8.208l-0.648-4.176l-1.584,0.648
			c-1.008-2.448-2.952-7.128-5.184-8.568c0.432,1.584,0.648,1.44,1.224,2.808c1.44,1.44,4.464,7.416,4.752,10.296l-5.832,2.52
			c-9.288,3.96-37.871,21.671-40.175,28.079c2.376-0.576,3.384-2.664,5.328-4.392c9.648-8.64,30.095-22.031,40.751-25.343
			c1.512,2.376,2.016,6.048,2.88,8.712c3.096,9.792,5.76,13.608,10.872,22.175c-3.456,0.504-6.984-0.36-8.784,0.648l0.72,0.288
			c2.736,0.72,28.799,0.144,29.303,0.072c0.792-0.432,0.864,0,0.504-0.648l-20.447-0.144c-5.328-7.416-12.168-21.095-13.536-31.823
			c7.848-2.736,14.76-5.976,23.615-8.424c58.39-16.487,123.116-8.28,180.066,9.648c2.88,0.936,10.08,2.376,12.456,3.6
			c0.792,1.224,5.4,28.583,5.76,32.039c1.944,7.92,3.384,17.351,4.896,25.703c0.648,3.672,4.392,23.831,5.328,25.559l27.359,0.288
			l31.535-0.072c-0.36,1.584-0.216,3.168,0.792,4.536c-0.432-12.384-4.464-42.767-6.48-57.382c-0.792-5.76-2.16-13.536-2.304-19.295
			l24.119,0.576c1.656,1.944,8.928,11.232,9.576,12.744c-1.8,0.072-5.04-0.144-5.688,1.368l7.056-0.288
			c1.944,4.248,38.879,48.526,41.759,50.902c4.536-1.872,15.407-14.472,19.079-15.192c0.576,3.096,0.504,1.656-0.936,3.6
			l0.936,1.008l3.096-0.072c-0.216-1.224-0.072-0.72-1.8-1.944l-0.648-0.504c-0.144-5.112,0.72-4.176,3.384-6.336
			c1.728-1.368,3.168-3.024,4.968-4.536c2.592-2.16,7.776-7.56,10.8-8.424l6.192,8.568c8.496,10.512,13.968,3.024-13.176,26.711
			l-12.96,11.52c-1.224,1.008-1.44,1.44-2.592,2.376c-1.872,1.512-4.464,2.592-5.472,4.608l-0.288,0.504
			c4.32,1.728,6.696-2.088,9.288-4.536c2.376-2.232,5.256-4.392,7.776-6.768c5.616-5.256,11.88-8.784,14.184-14.904
			c2.736,1.152,2.376,0.288,8.928-5.472c2.232-2.016,6.84-5.472,8.208-7.92c-0.504-4.176-9.648-12.888-12.744-15.911
			c-4.752-4.608-18.791-25.559-23.543-32.471c-1.872-2.664-10.728-14.688-11.088-16.631c2.952-1.728,6.12-4.176,8.784-6.624
			c6.552-5.976,19.079-21.311,17.855-28.223c-0.936,1.008-3.672,10.44-11.016,19.583c-3.384,4.248-11.736,12.528-16.343,14.4
			c-1.728-1.368-15.191-21.383-16.703-23.471c-2.664-3.6-5.472-8.136-8.208-11.808c-4.824-6.552-4.752-5.04-3.528-14.4
			c2.232-17.135,2.16-39.527,0.216-57.166c-0.648-5.76-2.088-12.168-2.52-17.567c7.848-1.584,5.76-2.52,5.256-6.12
			c-1.44-1.224-3.096-6.48-4.392-8.28c-1.728-2.376-3.888-4.824-6.696-5.76c0.432,3.528,2.376,9.288,3.312,13.176
			c1.08,4.608,1.8,9.072,2.664,13.968c3.168,19.223,4.104,41.975,1.944,61.414c-1.944,17.279-3.168,12.456,5.328,24.623
			c3.24,4.68,51.19,72.574,54.07,77.685c-1.224,2.16-21.599,19.007-25.919,22.679l-15.191,13.104
			c-1.296-0.432-10.728-11.376-12.096-13.824c1.008-1.656,7.344-6.48,8.856-7.704l8.568-7.416
			c2.52-2.232,16.415-13.248,17.063-15.263c-2.16,0.648-10.512,8.64-13.392,10.8c-2.376-0.576-10.944-9.36-12.744-11.16
			c-4.248-4.392-6.912-7.416-11.304-12.672c-7.2-8.712-13.608-18.503-19.151-28.799c-7.632-14.112-25.127-55.438-22.895-72.79
			c-1.584,1.584,0.432-1.44-0.792,1.08c-0.72,1.44-0.432,2.16-0.504,3.384c-0.36,4.32-0.936-1.08-0.72,3.384
			c1.368,1.008,0.216-0.936,1.296,1.584c0.144,0.36,0.432,1.944,0.504,2.52l3.456,14.184c9.936,35.279,28.295,70.27,55.366,94.605
			l6.192,5.904c-0.864,0.864-1.296,1.224-2.376,2.232l-18.215,15.191c-1.944-1.368-6.984-8.064-8.928-10.44
			c-8.784-10.728-18.359-22.391-26.495-33.479c-5.544-7.56-31.031-41.543-31.463-48.454h-0.72c-0.072,0-0.36,0.072-0.432-0.072
			c-0.072-0.144-0.288-0.072-0.504-0.144c1.656,6.408,17.783,29.663,23.471,37.367c1.44,1.944,2.88,3.312,3.672,5.688l-22.967-0.36
			c-1.584-5.328-2.232-16.127-3.024-22.031l-2.52-19.655c-0.288-3.528-0.288-1.944,0.864-2.592c-0.432-1.584-0.432-1.368-1.8-2.88
			c-0.072-0.072-0.288-0.144-0.288-0.36c-0.072-0.216-0.216-0.216-0.36-0.36l14.759,120.092h-57.958
			c-0.72-2.592-3.384-14.112-3.24-16.919c14.975-0.288,33.911,0.504,47.878,0.072c0.36,0,1.152-0.072,1.44-0.144
			c2.016-0.504,0.576,0.144,1.728-0.864l-26.495-0.072l-5.4-24.047c-10.512-49.822-6.984-110.156,6.84-158.971l7.056-22.679
			l2.448-6.624c-0.36-1.152,0.216-0.36-0.648-1.08l-0.432,1.152c-6.048,16.703-11.808,34.847-15.191,53.782
			c-15.623-2.952-9.504-28.727-5.112-39.959l4.752-12.816c-2.016,2.232-6.336,14.04-7.56,17.855
			c-2.304,7.416-3.456,14.04-3.096,22.607c2.304,10.8,5.4,10.224,10.584,13.536c-1.44,12.6-4.176,22.031-5.328,38.015
			c-1.08,14.112-1.656,28.079-1.224,42.479c0.72,22.967,2.736,36.935,7.128,58.462c1.008,5.04,3.96,13.824,4.248,18.215h-23.759
			c-3.672-6.48-15.12-84.957-16.343-97.269c-2.736-28.007,4.608-47.446,11.232-73.006c1.152-4.464,4.896-18.143,6.624-21.383
			l9.504-29.663l-0.216-1.296l-0.72,1.152H379.283z"/>
		<path fill="#AA92FD" d="M324.925,376.126v2.088c-2.088,0.576-3.744,0.72-5.4-0.144
			C318.301,374.686,322.693,375.334,324.925,376.126z M303.11,377.926c-0.072-2.088-1.44-2.376,5.04-2.376
			c0.936,0,4.104-0.072,4.752,0.216c5.616,2.016-5.616,4.968-9.864,2.16H303.11z M262.575,366.91c1.44,0.648,0.432-0.072,1.44,1.224
			l3.744,5.256c6.624,9.504,3.672,7.344,22.895,7.344c6.84,0,13.68-0.072,20.519,0c4.608,0,17.423,1.224,20.015-1.296
			c2.664,0.72-1.512,1.584,6.48,1.44l24.479,0.072c7.272,0,19.295-0.504,25.991-4.464c0.144-0.072,0.216-0.144,0.36-0.216
			c0.144-0.072,0.216-0.144,0.36-0.216c0.72-0.504,0.432-0.288,1.08-0.864l0.144-1.512c-2.952-0.504-51.622-0.72-55.87-0.288
			c-4.392,0.432,0.576,1.224-5.04,0.288l-20.951-0.144c-9.144,0-18.359-0.072-27.503,0c-5.544,0-5.688-1.656-8.352-5.76
			l-17.063-24.407c-4.032-5.184-7.344-11.016-11.52-16.487c-2.016-2.592-10.368-14.112-11.088-16.487
			c-1.296-0.36-0.864-0.288-2.016-1.872c-0.576-0.792-0.72-1.152-1.44-1.656c-4.464-0.576-5.4,3.672-3.024,6.624
			c2.088,2.664,3.456,5.112,5.4,7.704c1.944,2.664,30.815,44.135,31.103,45.718H262.575z"/>
		<path fill="#AD95FE" d="M226.648,196.924c5.544-2.016,10.152,2.232,11.52,6.48c0.792,2.448,0,5.832-1.08,7.56
			c-6.552,10.296-22.895,0.288-15.839-9.936c3.024-4.464,0.072-2.16,5.472-4.104H226.648z M210.593,196.564
			c-5.112,0.792-4.968,0-5.976,3.024c-1.008,3.024,0.576,3.096,3.168,4.536c0.288,1.872,0.072,3.312,0.432,5.256
			c0.432,3.096,1.152,2.304-0.36,4.824c-0.936,1.584-1.728,2.52-0.288,4.68c1.224,1.872,2.808,1.152,5.184,0.936
			c4.752,5.976,6.264,2.016,7.272,9c1.728,0.432,2.304,1.224,4.464,1.656c4.68-5.256,0.864-2.16,9.36-3.888
			c5.184-1.008,3.384,4.464,9-0.144c0.648-7.416-1.008-1.44,5.256-11.304c4.392-0.072,4.896,0.072,4.968-4.68
			c-0.648-1.944-1.656-2.16-3.024-3.024l-0.648-8.496c0.936-1.224,2.016-1.728,2.016-3.384c-0.072-1.944-1.008-2.016-1.656-3.744
			l-4.68,0.144l-5.184-4.32c-0.864-0.504-1.44-0.792-2.088-1.152l-0.144-4.248c-7.56-1.08-3.672,0.072-6.768,2.088l-8.784,1.008
			c0,0-5.904-3.672-7.416,0.36c-0.936,2.592,1.656,2.448-0.648,4.752l-1.944,2.016c-1.224,1.728-0.576,2.304-1.584,4.104H210.593z"
			/>
		<path fill="#FCFCFC" d="M380.147,424.796l-9.504,29.663c2.304,0.792,1.656-2.16,5.472,0.504c0,7.632,1.8,2.952,0.216,8.712
			l-0.288,9.36c0.576,3.96-0.864,1.512,1.44,2.448c-0.36-8.568,0.72-15.263,3.096-22.607c1.224-3.888,5.544-15.623,7.56-17.855
			l-4.752,12.816c-4.392,11.232-10.512,37.007,5.112,39.959c3.384-18.935,9.144-37.007,15.191-53.782
			c-0.144-2.16,0.144-1.44-2.448-2.16l-15.767-5.184c-1.872-0.864-3.888-2.376-5.256-1.8L380.147,424.796z"/>
		<path fill="#565656" d="M180.498,166.325c2.664-1.584,5.4-4.896,13.104-9.36c4.104-2.376,11.088-4.896,16.415-5.904
			c15.551-2.952,33.407,0.36,45.286,9.216c6.624,4.968,11.736,9.432,16.631,17.351c5.904,9.576,10.368,22.319,8.856,35.855
			c-2.016,1.368-5.544,1.08-10.368,4.248c-2.52,1.656-6.624,4.896-7.128,7.056c1.8-0.072,1.872-1.224,3.168-2.376
			c14.471-13.608,37.295-7.848,43.775,9.936c2.088,5.76,2.376,15.839-0.864,20.447c-1.152,0.504-1.656,0.432-3.168,0.792
			l-2.664,1.728c1.368,0.144-0.36,0.288,1.152,0c1.296-0.216,2.232-1.296,6.84-1.08c13.32,0.576,15.407,14.4,16.055,15.623
			c5.184,0.504,9.432-0.648,9.216,2.52c-0.144,3.024-8.496,2.016-13.176,2.016l-284.462-0.144c-3.24-4.968,3.312-4.176,7.272-4.392
			c0.72-5.688,2.232-10.512,7.2-13.392l1.296,4.536c1.368-1.368,0.648,0.504,0.72-1.944c0-0.144-0.36-2.232-0.36-2.664
			c-0.576-7.704,5.184-14.903,12.456-16.343c4.752-0.936,5.904,0.144,8.352,0.576c1.8,0.36,1.584,0.072,2.016-0.288
			c-1.512-1.08-3.672-1.44-5.472-1.872c0.72-19.871,16.271-30.959,32.759-27.287c7.776,1.728,9.216,5.184,14.184,7.704
			c-1.584-3.744-4.896-5.04-8.352-6.984c0-12.744,6.84-26.639,16.127-34.703c10.224-8.928,23.183-14.184,37.943-12.744
			c15.767,1.512,19.583,7.2,25.703,9.288c-1.08-2.448-2.664-2.736-4.968-4.176c-3.312-2.088-3.816-1.368-5.472-3.24H180.498z
			 M179.13,166.181c-9.864-1.944-13.248-4.464-26.567-2.448c-9.504,1.44-19.439,6.336-25.487,12.096
			c-1.512,1.44-2.376,2.304-3.744,3.744c-7.704,8.064-12.456,19.151-13.32,31.535c-7.2-0.648-13.608-5.256-27.071,3.528
			c-5.688,3.744-11.88,13.032-11.448,23.543c-5.904,1.512-13.608,2.016-16.559,12.024c-0.72,2.52-0.216,3.672-1.728,5.112
			c-5.184,4.752-4.968,1.728-7.92,13.536c-2.448,0-7.056-0.864-7.992,2.16c-1.08,3.528,2.016,4.608,4.896,4.68
			c46.15,0.432,94.749,0,141.043,0h140.971c4.392,0,17.063,1.944,13.464-5.472c-0.36-0.576,0.144-1.224-3.888-1.368
			c-1.656-0.072-3.384,0-5.04,0c-0.792-1.728-1.08-3.816-2.016-5.832c-2.808-5.976-8.208-9.432-15.479-10.08
			c-0.072-1.872,6.48-14.472-3.456-28.007c-5.04-6.912-12.744-11.808-25.559-11.304c0.504-26.207-10.08-47.158-33.839-58.894
			c-11.808-5.832-24.623-7.272-38.951-4.68c-13.248,2.376-23.183,9.864-30.167,16.199L179.13,166.181z"/>
		<path fill="#FDFDFD" d="M88.341,494.85c4.68-0.936,3.744-2.664,10.8-2.592c7.128,0,12.96,4.608,16.415,10.728
			c0.576,1.008,1.44,3.384,1.944,4.68c0.864,2.232,1.296,2.88,1.08,5.688c1.08,1.152,0.072-0.432,0.648,1.152
			c1.08,3.312,0.216,5.184,1.656,11.304c7.992-8.136,18.719-10.152,18.935-20.447c0.144-4.608-2.736-11.592-4.248-15.839
			c-0.72-1.944-4.176-13.176-5.544-14.544c-1.368,1.584-0.216,3.024-0.144,4.608c0.072,1.368-1.008,1.512,0.648,5.256
			c-5.616,1.656-19.583-0.216-26.279,0.36c-1.368,0.216,0.216,0.216-1.152,1.08l-2.664,1.08c-0.072-0.144-0.288,0.144-0.432,0.144
			c-0.792-3.096-0.504-0.72,0.432-2.448c-2.16,1.224-5.328-0.144-11.736-0.144c-0.936,3.6,0.72,2.664,3.312,3.096
			c-0.936,0.936-2.592,1.08-3.096,1.296c-0.216,1.368-0.504,1.584-0.288,2.52l1.296,1.584c-1.728,0.576-0.864-0.36-1.512,1.368
			L88.341,494.85z"/>
		<path fill="#AC93FE" d="M396.131,668.58l0.504-1.224c1.656,0.648,2.304,1.224,2.52,3.384c-1.656-0.144-2.16-0.792-3.096-1.728
			l-0.864,0.936c1.08,1.512,1.44,1.656,1.728,3.6c-2.952-0.288-1.8-0.504-3.312-2.016v2.016c0.72,1.872,0.432,0.504,0.792,2.52
			c-2.232-0.36-0.576-0.072-2.52-0.72c-4.032,1.8-5.544,1.44-10.224,1.368c-0.072,6.768-5.472,7.848-8.64,8.784
			c-2.736,0.792-1.08-0.72-2.088,1.44c2.16,1.368,24.335,0.648,26.783,0.648c8.856,0,18.359,0.36,27.143-0.072
			c0.288-3.528-0.432-8.136-0.288-12.096c0.072-4.104,1.368-7.344,1.368-10.152l-26.711-0.288l-27.359-0.288
			c2.88,2.376,23.327-0.792,26.423,1.224c-1.584,1.944-0.504-0.072-2.52,1.512l0.504,1.152H396.131z"/>
		<path fill="#AA92FD" d="M518.814,647.413c0.504,0.792-0.288,0.504,0.648,1.008c-2.232,1.224-0.792-0.216-2.016,1.512
			c0.792,2.232-0.072-0.216,1.296,1.44c0.432,0.504,0.72-1.008,0.576,1.368c1.8,0.216,2.16-0.072,2.664,1.8l-2.52,0.288
			c-0.288,3.888-5.328,6.408-6.912,8.568c2.304-0.432,0.576-0.36,1.584,1.008c0.288,0.36,0.648,1.656,0.72,2.088
			c0.864,4.32-1.584,8.496-3.6,9.936c-1.656,1.152-0.576,0.72-2.664,0.864l0.864,1.08c0.504,0.792,0.144,0.072,0.576,1.224
			l0.576-0.216c1.008-2.088,3.528-3.096,5.472-4.608c1.224-0.936,1.368-1.368,2.592-2.376l12.96-11.52
			c27.143-23.687,21.599-16.199,13.176-26.711l-6.192-8.568c-3.024,0.792-8.208,6.264-10.8,8.424c-1.8,1.512-3.24,3.168-4.968,4.536
			c-2.736,2.16-3.528,1.224-3.384,6.336l0.648,0.504c1.8,1.224,1.656,0.792,1.8,1.944L518.814,647.413z"/>
		<path fill="#7045FE" d="M88.341,494.85c-2.016,4.608-6.624,1.944-5.544,19.079c1.656,0.72,1.8,1.512,2.304,3.312
			c3.096,0.432,0.288-0.648,3.672-0.432c1.872,0.144,3.312,0.216,5.328,0.216c4.608-0.072,3.168-0.072,4.752,0.648
			c2.088,0.936,0.936,0.36,3.24-0.072c0.144,4.896,3.816,11.664,6.048,16.271c0.792,1.656,0.792-0.288,0.432,1.728
			c0.072,0.072,0.216,0.144,0.288,0.288l2.736,3.816c1.224,2.016,2.088,2.952,3.168,4.464l6.912,8.64
			c0.936,0.36,0.216-0.072,1.44,1.08c0.864-3.24,0.576-0.936-2.592-4.464l-7.272-9.72c-0.072-0.072-0.144-0.216-0.216-0.288
			l-9.072-21.383c2.16-1.296,4.752-0.432,8.136-0.432c6.624,0,6.408,1.512,6.408-4.248c0.216-2.808-0.216-3.456-1.08-5.688
			c-0.504-1.296-1.368-3.672-1.944-4.68c-3.456-6.12-9.288-10.728-16.415-10.728c-7.056,0-6.12,1.656-10.8,2.592H88.341z"/>
		<path fill="#8966FE" d="M120.884,528.401c-1.368-1.368-1.08,1.728-1.008-1.44l0.936-1.08c-1.44-6.12-0.576-7.992-1.656-11.304
			c-0.504-1.584,0.504,0-0.648-1.152c0,5.76,0.216,4.248-6.408,4.248c-3.384,0-5.976-0.792-8.136,0.432l9.072,21.383
			c0.072,0.072,0.144,0.216,0.216,0.288l7.272,9.72c3.096,3.456,3.456,1.152,2.592,4.464l1.08,1.8
			c1.512,1.872,0.792,1.368,3.384,1.728c-1.008-3.384-0.288-1.296-3.096-4.248c1.656,0.072,3.096,0.648,4.032,0.72l13.176-0.216
			c-0.144-0.144-0.792-1.08-0.864-2.88c-0.936-2.88-3.024-0.432,0.216-12.024c3.888-13.968,7.992-19.295,11.448-36.575
			c3.6-17.927,3.384-33.551-0.36-51.19c-1.296-5.976-0.72-4.968-2.952-6.048c4.248,22.175,6.264,31.463,2.16,55.438
			c-3.024,17.495-6.768,21.383-10.8,34.631c-0.936,3.168-1.728,8.928-2.952,12.312c-3.024,0.288-10.008-0.792-13.608-4.32
			c-2.16-2.16-2.304-2.808-2.736-6.192c-0.144-1.296-0.504-8.064-0.432-8.424L120.884,528.401z"/>
		<path fill="#414141" d="M232.552,310.392c-0.216-2.664-1.152-1.08-1.512-3.744c11.448,0,108.284-0.576,110.804,0.216
			c2.304,0.72,20.087,27.863,23.183,32.183l17.135,24.839c1.584,2.376,4.968,6.192,5.616,8.64l-81.141-0.072
			c-8.64,0-19.079,0.504-27.575,0c-4.032-0.216-8.64-9.072-12.528-14.544l-27.791-39.671c-1.296-1.728-4.68-7.2-6.192-7.92V310.392z
			 M262.503,366.91c-0.216-1.584-29.159-43.055-31.103-45.718c-1.872-2.592-3.24-5.04-5.4-7.704c-2.376-2.952-1.44-7.2,3.024-6.624
			c0.72,0.504,0.792,0.864,1.44,1.656c1.224,1.584,0.72,1.512,2.016,1.872c0.792,2.376,9.144,13.896,11.088,16.487
			c4.248,5.472,7.56,11.232,11.52,16.487l17.063,24.407c2.664,4.104,2.808,5.76,8.352,5.76c9.144-0.072,18.359,0,27.503,0
			l20.951,0.144c5.544,0.936,0.576,0.216,5.04-0.288c4.248-0.432,52.846-0.288,55.87,0.288c1.8,0.216,0.216,0.216,0.936-0.936
			l-1.368-0.36c-3.096-3.96-6.984-9.72-9.792-13.968c-3.24-4.824-6.48-9.288-9.504-14.184c-0.792-0.72-9.792-13.536-10.368-15.263
			c0.792-1.224,7.272-6.408,9-7.776c1.8-1.368,8.424-6.192,8.64-8.064l-15.839,12.816c-1.44,1.368-1.224,1.44-3.024,1.656
			c-2.088-2.088-5.544-7.992-7.416-10.656c-2.088-2.52-3.744-5.4-5.4-7.632c-3.312-4.464-2.088-3.384-8.64-3.816
			c-1.224-1.008-2.664-2.448-3.096-4.608l5.4,2.304c-0.864-3.384-3.96-3.384-4.464-7.632c2.952,0.216,4.464,4.176,8.352,4.608
			c-0.792-1.872-1.368-2.16-2.88-4.104c-1.008-1.296-1.728-2.304-2.088-4.248c3.528,1.368,4.824,4.536,8.28,6.12
			c-0.144-3.312-3.312-3.168-3.816-8.856c1.872,0.792,7.128,5.904,10.08,8.28c-0.504,3.096-1.656,5.616,1.152,7.776
			c0.936-1.872-2.232-2.088-0.216-6.48c1.512-3.24,0.072-6.408,1.296-8.136c2.376-2.376,7.416,11.448,7.632,12.672
			c1.872,0.36,0.72,0.144,1.224-0.432c-1.08-3.816-5.4-15.047-9.864-13.32c-0.72,1.8-0.432,4.464-0.648,6.84
			c-3.96-1.944-7.344-8.496-11.448-8.352c-0.792,2.808-0.072,3.384,0.864,5.4c-1.8-0.648-3.6-3.528-5.04-2.232
			c-1.512,1.512,0.72,4.392,1.512,5.76c-1.512-1.152-2.88-2.664-5.256-2.304c-0.576,2.16,0,3.672,1.512,4.824l-1.584,0.504
			c-1.08,0.36,0.144-0.648-1.368,0.504c0.144,2.592,1.44,2.952,2.232,5.04c-17.495,0.36-35.351,0-52.918,0
			c-17.279,0-35.927-0.72-52.99,0c-11.016,0.432-1.728,11.592,0.648,14.831c2.016,2.736,3.456,5.112,5.472,7.992l16.199,23.327
			c1.296,2.088,9.144,14.688,11.088,15.263L262.503,366.91z"/>
		<path fill="#FCFCFC" d="M174.09,237.747c4.248,0,6.48-1.296,9.072-3.672c5.544-4.968,5.616-12.744,0.936-18.143
			c-4.968-5.688-13.824-5.616-18.863-0.288c-4.968,5.184-5.472,13.176-0.216,17.855C167.61,235.803,170.274,237.747,174.09,237.747z
			"/>
		<path fill="#9E81FE" d="M123.116,553.96c-1.224-1.152-0.504-0.72-1.44-1.08c-2.808-0.36,0.144-0.144-1.656,0.36
			c-1.584,0.432,0.216,0.216-1.512,0.216c-4.968-0.144-7.992,0.504-10.152-1.224l-0.936-0.792c-0.072-0.216-0.216-0.216-0.36-0.288
			c0.072,5.112-0.432,10.08-0.504,15.767c1.872,0.576,11.232,0,14.544,0c2.376,0,5.184-0.144,7.488,0.072
			c2.736,0.288,2.736,0.864,4.68-0.864c-0.576-1.368-0.792-1.224-1.224-2.808c2.232,1.44,4.176,6.12,5.184,8.568l1.584-0.648
			l3.744-4.896c0.648-1.08,0.36-0.216,0.792-2.016c-1.008-1.08-1.152-0.504,0.432-1.008c0.288-2.088,0.936-4.752,0.432-7.416
			c-0.216-1.008-0.792-2.232-1.152-2.952c-1.008-1.872-0.288-1.368-2.088-2.304c0.072,1.8,0.72,2.736,0.864,2.88l-13.176,0.216
			c-1.008,0-2.376-0.648-4.032-0.72c2.808,2.952,2.088,0.864,3.096,4.248c-2.592-0.36-1.872,0.144-3.384-1.728l-1.08-1.8
			L123.116,553.96z"/>
		<path fill="#050505" d="M443.001,299.089c-1.296-3.312-0.864-4.32,2.16-5.328l2.376,1.224c0.504,3.888-1.152,5.184-4.464,4.176
			L443.001,299.089z M437.745,312.768l0.792,0.432c0.144-3.672,4.032-0.792,5.4-6.12c-2.52,0.576-9.576,3.456-11.448-1.656
			c-1.08-2.88-0.072-1.584,1.584-3.024l-2.16-1.008c0-4.032,0.36-8.28,2.232-11.016c5.832-0.504,7.2-0.504,9.288,2.52
			c-0.792,1.296-0.144,0.216-0.936,1.368c-0.936,1.296-1.656,2.52-0.504,4.32c1.368,2.16,3.456,1.512,5.688,0.792
			c1.224,7.416,4.32,6.192,6.048,7.056l-0.432,5.544c0,0.144,0,0.288,0.072,0.432c0,0.144,0.072,0.288,0.072,0.36
			s0.072,0.288,0.144,0.36c0,0.072,0.072,0.216,0.144,0.36c0.72-1.728,0.504-4.32,0.936-6.48c0.432-2.232,1.8-2.88,2.808-4.824
			c1.656-3.168,3.456-11.664-0.504-14.832c-2.232-1.8-0.936,0.144-1.728-2.232c-2.232-6.912-7.632-8.712-15.983-7.848
			c-2.808,1.944-4.104,1.152-6.552,4.68c-0.936,1.368-1.44,3.168-1.224,5.04c0.504,4.464,2.232,0.648,1.152,5.184
			c-3.816,15.911-0.144,15.047,5.112,17.351l0.144,3.384L437.745,312.768z"/>
		<path fill="#050505" d="M449.193,450.499c0,3.096-1.224,18.863-2.304,22.319c-0.36,1.224,0.072,0.36-0.504,1.08
			c0.72,7.056-8.136,29.087-11.088,34.775c-5.76,11.088-11.952,19.007-20.519,25.775c-0.288,2.88,0.504,6.696,0.936,9.504
			c0.072,0.144,0.288,0.144,0.36,0.36s0.216,0.216,0.288,0.36c1.368,1.512,1.368,1.296,1.8,2.88l0.432,1.656
			c0.144,0.072,0.36,0,0.504,0.144c0.072,0.144,0.36,0.072,0.432,0.072h0.72c3.096-0.72,10.512-14.255,12.744-19.151
			c1.944-4.248,7.992-20.015,7.92-24.551c-0.216-4.464,0.36,0.936,0.72-3.384c0.072-1.224-0.216-1.872,0.504-3.384
			c1.224-2.592-0.72,0.504,0.792-1.08c1.224-4.536,1.584-10.08,2.592-14.616c1.152-5.184,2.088-9.648,2.88-15.119
			c1.656-11.664,1.872-21.959,1.728-34.343l-0.648,2.088c0,0.36,0,1.584,0,2.016C449.553,440.78,449.841,448.699,449.193,450.499z"
			/>
		<path fill="#FCFCFC" d="M418.594,549.136l-0.432-1.656c-1.152,0.648-1.152-0.936-0.864,2.592l2.52,19.655
			c0.792,5.904,1.44,16.775,3.024,22.031l22.967,0.36c-0.792-2.304-2.232-3.672-3.672-5.688
			c-5.688-7.704-21.815-30.959-23.471-37.367L418.594,549.136z"/>
		<path fill="#FAFAF9" d="M404.77,433.868l-2.448,6.624l1.512,0.576c0.072,0.072,0.216,0.144,0.36,0.216
			c1.008,0.72,1.368,1.944,1.656,3.312c0.432,1.656-0.576,1.44,0.288,0.936l0.504-0.504c1.224-1.728-1.8,1.008,0.72-0.504
			l2.664-1.368c1.656-0.648,3.24-0.504,5.184-0.504c6.984,0.072,20.663,0.072,26.495,1.152c2.88,0.576,1.368-0.288,2.448,1.224
			c0,2.88-0.36,6.912,0.504,9c0-1.584,0.144-3.96,0.288-4.824c0.792-6.336-0.72-4.032,1.728-5.112
			c1.08,1.296,1.08,1.944,1.008,4.464c0,1.44,0.144,3.672-0.216,5.04c-0.36,1.512-0.936,1.44-0.864,3.456
			c0,2.52,0.576,1.872,0.072,4.68c-3.024-1.296-1.08-1.584-1.08-1.656l0.792,13.968c0.576-0.72,0.144,0.144,0.504-1.08
			c1.08-3.456,2.304-19.151,2.304-22.319l-0.072-16.631c-7.416-0.288-16.127,2.952-33.911,0.504c-1.8-0.216-3.6-0.288-5.544-0.576
			c-2.52-0.288-2.088-0.864-4.104-1.296l-0.792,1.296V433.868z"/>
		<path fill="#03030B" d="M381.587,676.716c-4.104,0.648-7.92-0.144-10.296,2.808c-1.368,1.656-3.744,7.272-2.016,9.72
			c1.224,1.584,1.8,1.224,4.392,1.152c1.656,0,3.384,0,5.04,0c6.912,0,26.567,1.008,29.735-1.512c2.304,1.008-0.36,1.44,5.76,1.368
			c3.96-0.072,14.688,0.792,17.423-1.08l-0.072-19.799c-1.008-1.368-1.224-2.88-0.792-4.536l-31.535,0.072l26.711,0.288
			c0.072,2.808-1.224,6.048-1.368,10.152c-0.072,3.888,0.576,8.568,0.288,12.096c-8.784,0.432-18.287,0.072-27.143,0.072
			c-2.52,0-24.623,0.72-26.783-0.648c0.936-2.16-0.648-0.576,2.088-1.44c3.168-0.936,8.568-2.016,8.64-8.784L381.587,676.716z"/>
		<path fill="#474648" d="M124.916,438.764c0.432,3.312-0.504,6.696-0.288,10.152c0.144,3.168,0.504,6.336,1.08,9.432
			c0.648,3.312,4.32,14.76,4.176,16.703c1.368,1.368,4.896,12.6,5.544,14.544c1.512,4.248,4.392,11.232,4.248,15.839
			c-0.216,10.224-10.944,12.312-18.935,20.447l-0.936,1.08c-0.072,3.168-0.36,0.144,1.008,1.44c0.792-3.024,7.416-7.488,10.152-9
			c20.663-11.664,2.448-29.807-4.104-60.838c-3.312-15.839,0.72-31.031,10.08-38.663c11.304-9.216,28.439-6.12,36.071,5.04
			c17.423,25.559-16.343,56.374-6.336,84.741c4.32,12.24,15.407,23.111,10.368,38.303c-1.584,4.752-4.896,9.504-8.784,12.168
			l-0.936,0.648c-0.72,0.504-1.44,1.008-2.088,1.368c-6.192,3.672-14.328,3.096-21.599,1.296c-1.584,0.504-1.44-0.072-0.432,1.008
			c16.991,8.208,43.127-8.784,34.703-33.335c-3.096-8.928-9.504-16.559-11.304-25.631c-4.248-21.599,11.376-39.887,12.384-60.478
			c0.576-12.024-3.384-20.951-10.584-26.423c-7.776-5.904-19.223-7.416-28.727-1.944c-12.24,7.128-12.888,19.871-14.903,22.175
			L124.916,438.764z"/>
		<path fill="#F9F9F7" d="M351.204,316.944c1.872-0.432,4.176-4.824,5.976-6.48c2.592-2.304-0.792,0.864,0.792-0.72
			c1.728-1.656,4.392-4.464,4.824-6.552c-0.288-1.152-5.256-15.047-7.632-12.672c-1.152,1.728,0.216,4.896-1.296,8.136
			c-2.016,4.392,1.08,4.608,0.216,6.48c-2.808-2.16-1.656-4.68-1.152-7.776c-2.952-2.448-8.208-7.56-10.08-8.28
			c0.432,5.688,3.6,5.544,3.816,8.856c-3.456-1.584-4.752-4.824-8.28-6.12c0.36,1.944,1.08,2.952,2.088,4.248
			c1.44,1.944,2.016,2.16,2.88,4.104c-3.888-0.36-5.4-4.392-8.352-4.608c0.576,4.248,3.6,4.176,4.464,7.632l-5.4-2.304
			c0.432,2.16,1.872,3.528,3.096,4.608c6.552,0.432,5.4-0.648,8.64,3.816C347.46,311.616,349.116,314.424,351.204,316.944z"/>
		<path fill="#FCFCFC" d="M302.678,381.958c2.664,6.84,14.904,17.927,24.551,19.151l6.552-17.135
			c-2.448-2.88-6.264-2.16-10.728-2.16l-20.447,0.144H302.678z"/>
		<path fill="#FCFCFC" d="M162.93,345.959c4.464,2.592,13.248,2.736,18.143,0.432c4.176-1.944,9.072-8.496,4.464-13.896
			C178.194,323.928,164.01,332.207,162.93,345.959z"/>
		<path fill="#4D4D4D" d="M302.678,381.958l20.447-0.144c4.464,0,8.208-0.72,10.728,2.16l-6.552,17.135
			c-9.648-1.224-21.887-12.24-24.551-19.151H302.678z M389.795,375.118c-0.576,0.576-0.36,0.36-1.08,0.864
			c-0.144,0.072-0.216,0.144-0.36,0.216c-0.144,0.072-0.216,0.144-0.36,0.216c-6.624,3.96-18.719,4.464-25.991,4.464l-24.479-0.072
			c-7.992,0.144-3.888-0.72-6.48-1.44c-2.592,2.52-15.408,1.368-20.015,1.296c-6.84,0-13.68,0-20.519,0
			c-19.223,0-16.271,2.16-22.895-7.344l-3.744-5.256c-1.008-1.296,0.072-0.576-1.44-1.224c0.288,2.016,8.136,13.68,10.152,14.472
			c2.52,1.08,19.223,0.36,23.471,0.432h4.968c2.952,3.744,3.168,7.632,10.368,12.744c4.896,3.456,8.856,5.832,15.191,7.848
			l-2.088,5.688c0.288,1.296-0.36,0.576,0.936,0.864l10.44-26.639l10.224,0.144c0.504,4.968-0.72,31.103,0.936,33.119
			c0.936-1.872,0.432-28.151,0.576-32.759c6.984-0.648,15.335,0,22.967-0.576c12.168-0.936,24.479-6.84,31.103-16.271
			c1.872-2.664,8.136-12.312,7.848-16.199c-4.32,5.832-6.336,18.287-19.799,25.199L389.795,375.118z"/>
		<path fill="#AA92FD" d="M106.556,566.919c1.8,6.192,3.672,9.288,9.288,12.24c6.912,3.672,10.656,1.08,13.896-0.072
			c0.72-0.288,1.656-0.576,2.376-0.144l5.832-2.52c-0.288-2.88-3.312-8.784-4.752-10.296c-1.944,1.656-1.944,1.08-4.68,0.864
			c-2.304-0.216-5.112-0.072-7.488-0.072c-3.312,0-12.672,0.576-14.544,0H106.556z"/>
		<path fill="#464646" d="M162.93,345.959c1.08-13.752,15.263-22.103,22.607-13.464c4.608,5.4-0.288,11.952-4.464,13.896
			C176.178,348.695,167.394,348.551,162.93,345.959z M161.491,345.815c-12.168-4.032-22.967-13.608-26.927-25.631
			c-7.704-23.399,9.936-36.503,10.512-38.735c-2.664,0.648-5.904,4.968-7.2,6.84c-12.6,18.863-5.328,43.271,14.328,54.574
			c2.736,1.584,6.552,2.808,9.144,4.248c-0.144,5.328-0.576,8.712,1.224,13.68c4.104,11.448,15.839,16.559,27.359,20.303
			c8.136,2.664,16.775,4.536,25.703,5.616c15.839,1.944,18.215,0.216,30.383,0.36c-1.296,1.296-4.464,4.68-5.112,6.408
			c1.944-0.36,0.432,0.576,2.16-1.44c2.592-2.952,4.248-3.888,4.68-6.12c-1.008-1.44-2.304-2.088-3.816-3.528
			c-1.44-1.368-1.728-2.304-3.888-2.52c0.648,1.224,1.44,1.8,2.88,3.096c2.016,1.872,2.016,1.296,2.664,2.952
			c-20.951,1.368-36.215,0.072-54.934-5.832c-15.119-4.752-31.319-12.672-28.151-32.687c6.912,0.936,12.96,3.528,19.871-0.576
			c4.176-2.52,9-9.648,3.744-15.551c-3.744-4.176-12.384-4.032-16.703-0.504c-4.176,3.312-5.904,8.568-8.064,14.975L161.491,345.815
			z"/>
		<path fill="#090605" d="M370.283,421.34c4.464,2.16,21.383-1.296,25.919-2.304c13.752-3.096,28.367-12.096,36.935-22.031
			c1.872-2.16,11.808-15.191,10.584-17.927c-3.024,6.84-11.016,19.871-17.063,23.111c-2.952-1.296-3.456-3.24-7.992-3.816
			c-4.176-0.504-6.48,0.216-9.288,1.8c-6.768,3.888-6.984,9.576-6.624,15.839c-3.672,2.52-9.936,2.952-15.263,3.96
			c-2.52,0.504-5.4,0.936-8.28,1.008c-2.376,0.072-6.984-0.216-8.856,0.36H370.283z"/>
		<path fill="#FCFCFC" d="M226.648,196.924c-5.4,1.944-2.376-0.36-5.472,4.104c-6.984,10.296,9.36,20.231,15.839,9.936
			c1.08-1.728,1.872-5.112,1.08-7.56c-1.368-4.176-5.904-8.496-11.52-6.48H226.648z"/>
		<path fill="#825CFE" d="M98.061,533.657c0.144,0.072,0.288,0.072,0.36,0.216l1.944,1.296c1.728,0.72,4.176,0.864,5.976,0.576
			c1.872-0.288,1.368,0.504,2.232-0.216c0.36-2.016,0.36-0.072-0.432-1.728c-2.232-4.608-5.976-11.376-6.048-16.271
			c-2.304,0.36-1.152,1.008-3.24,0.072c-1.584-0.72-0.144-0.72-4.752-0.648c-2.016,0-3.456-0.072-5.328-0.216
			c-3.384-0.288-0.576,0.792-3.672,0.432c-0.576-1.728-0.648-2.592-2.304-3.312c1.8,5.256,3.456,7.128,6.48,11.376
			C90.501,526.961,96.261,533.081,98.061,533.657z"/>
		<path fill="#FBFBF4" d="M389.435,372.382h1.584c0.72-4.032,3.24-9,4.464-13.464l-1.368-0.936l-6.912-2.736
			c-3.24-2.52-1.872-0.648-4.608-2.376l-11.736-8.208c-1.008-0.72-0.288-0.504-0.792-0.36c3.024,4.896,6.264,9.36,9.504,14.184
			c2.808,4.176,6.624,10.008,9.792,13.968L389.435,372.382z"/>
		<path fill="#8F70F8" d="M107.132,551.152c0.144,0.072,0.288,0.072,0.36,0.288l0.936,0.792c2.16,1.728,5.184,1.08,10.152,1.224
			c1.8,0.072-0.072,0.216,1.512-0.216c1.8-0.504-1.152-0.648,1.656-0.36l-6.912-8.64c-1.08-1.512-1.944-2.448-3.168-4.464
			l-2.736-3.816c-0.072-0.216-0.144-0.216-0.288-0.288c-0.936,0.648-0.432-0.072-2.232,0.216c-1.728,0.288-4.248,0.072-5.976-0.576
			l-1.944-1.296c-0.072-0.216-0.216-0.144-0.36-0.216c0.432,2.52,1.224,2.16,3.744,5.472l4.68,9.864
			c0.072,0.504,0.072,0.648,0.216,1.224c0.36,1.584-0.216,0.216,0.36,0.936V551.152z"/>
		<path fill="#0B0B0B" d="M387.275,355.247l6.912,2.736l1.944,0.072c1.728-3.528,2.808-6.912,4.536-10.224
			c0.936-1.872,4.608-7.92,4.968-9.432c-1.296,0.792-3.384,2.736-4.608,3.816c-1.584,1.368-2.808,2.592-4.824,4.176
			c-1.584,1.296-3.096,2.664-4.824,4.176c-2.232,1.872-4.032,3.096-4.032,4.608L387.275,355.247z"/>
		<path fill="#03030B" d="M508.663,677.436c2.088-0.216,1.008,0.288,2.664-0.864c2.016-1.44,4.464-5.616,3.6-9.936
			c-0.072-0.504-0.504-1.728-0.72-2.088c-1.008-1.368,0.72-1.512-1.584-1.008c-1.656,1.872-3.744,3.168-4.896,6.048
			c-1.368,3.672,0.648,5.112,0.936,7.92V677.436z"/>
		<path fill="#03030B" d="M303.038,377.926c4.248,2.808,15.479-0.216,9.864-2.16c-0.648-0.216-3.888-0.216-4.752-0.216
			c-6.552,0-5.184,0.288-5.04,2.376H303.038z"/>
		<path fill="#4A4A4A" d="M78.189,356.687c-0.576-2.304-4.176-8.064,1.944-12.24c4.968-3.384,8.64-0.432,11.448,1.728
			c0.36-4.464-10.512-6.984-14.904,0.288C75.021,349.199,74.445,355.031,78.189,356.687z"/>
		<path fill="#F4F4F3" d="M443.001,299.089c3.384,1.008,5.04-0.288,4.464-4.176l-2.376-1.224c-3.024,1.08-3.384,2.088-2.16,5.328
			L443.001,299.089z"/>
		<path fill="#6A330B" d="M335.509,404.493c2.088-0.864,3.6-0.648,2.952,2.376c-1.296,0.576-1.512,0.648-2.808-0.072
			L335.509,404.493z M339.685,407.085c0.432-5.832-4.392-4.68-5.256-2.232c-0.576,1.512,0.432,2.952,1.584,3.456
			C337.741,409.029,338.677,407.949,339.685,407.085z"/>
		<path fill="#0B0B0B" d="M324.925,376.126c-2.232-0.72-6.624-1.44-5.4,1.944c1.656,0.792,3.312,0.72,5.4,0.144V376.126z"/>
		<path fill="#6A330B" d="M366.972,311.256c-0.792-2.592,0.36-3.528,2.664-2.304c0.432,1.224,0.288,1.512-0.144,2.304
			c-1.656,0.576-0.504,0.792-2.448,0H366.972z M365.604,308.808l0.36,3.312c0.864,0.36,1.224,0.504,2.232,0.792
			c4.104-1.224,4.104-4.464,0-5.76l-2.52,1.584L365.604,308.808z"/>
		<path fill="#D7AD6C" d="M335.653,406.797c1.296,0.648,1.584,0.576,2.808,0.072c0.576-3.024-0.864-3.168-2.952-2.376
			L335.653,406.797z"/>
		<path fill="#D7AD6C" d="M366.972,311.256c2.016,0.792,0.792,0.648,2.448,0c0.432-0.792,0.648-1.08,0.144-2.304
			c-2.304-1.296-3.456-0.288-2.664,2.304H366.972z"/>
		<path fill="#060A26" d="M393.539,671.532c1.512,1.512,0.36,1.728,3.312,2.016c-0.288-1.944-0.648-2.088-1.728-3.6h-1.368
			l-0.216,1.512V671.532z"/>
		<path fill="#14172E" d="M519.462,654.901l2.52-0.288c-0.504-1.872-0.936-1.584-2.664-1.8l-1.512,0.648
			C518.31,654.541,518.167,654.469,519.462,654.901z"/>
		<path fill="#060A26" d="M391.811,675.348c1.944,0.648,0.288,0.36,2.52,0.72c-0.36-2.088-0.072-0.72-0.792-2.52l-2.376-0.792
			C391.379,674.772,391.163,673.62,391.811,675.348z"/>
		<path fill="#14172E" d="M396.131,668.58l-0.144,0.432c1.008,0.936,1.44,1.584,3.096,1.728c-0.144-2.16-0.792-2.736-2.52-3.384
			l-0.504,1.224H396.131z"/>
	</g>
</g>
<linearGradient id="SVGID_1_" gradientUnits="userSpaceOnUse" x1="82.7972" y1="536.5889" x2="144.4251" y2="536.5889">
	<stop  offset="0" style="stop-color:#624EC6"/>
	<stop  offset="1" style="stop-color:#AA92FD"/>
</linearGradient>
<path fill="url(#SVGID_1_)" d="M87.016,496.822l-3.357,4.436l-0.862,7.812v4.788c0,0,3.848,9.697,10.969,16.33
	c7.121,6.632,4.726,3.83,4.726,3.83l1.893,3.463l2.926,4.817c0,0,2.436,4.366,2.949,6.215c0.512,1.849,0.688,8.435,0.688,8.435
	l-0.464,7.122l0.663,4.747l2.171,4.775l4.131,4.139l4.062,2.22l3.362,0.97h3.362l5.505-1.833l2.376-0.144l5.272-2.249l0.559-0.271
	c0,0-1.903-7.738-4.752-10.296l-1.152-2.808l0.556,0.428l1.627,1.998l1.327,2.369l1.588,3.564l0.086,0.209l1.577-0.526l4.25-5.542
	l0.262-1.294l-0.803-0.622l1.122-0.439c0,0,0.997-4.536,0.751-5.976s-1.111-4.093-1.111-4.093l-1.025-2.017l-1.195-0.6l-0.102,1.168
	c0,0-17.45-9.119-19.204-20.001s-3.257-21.021-3.257-21.021l-5.686-12.312l-7.167-5l-6.569-1.353l-5.891,0.784l-4.837,1.808
	l-1.267,1.885L87.016,496.822z"/>
</svg>
