<svg width="70" height="70" viewBox="0 0 70 70" fill="none" xmlns="http://www.w3.org/2000/svg">
<path d="M57.6629 1.15234H12.3369C6.15953 1.15234 1.15186 6.16003 1.15186 12.3373V57.6633C1.15186 63.8406 6.15953 68.8483 12.3369 68.8483H57.6629C63.8402 68.8483 68.8479 63.8406 68.8479 57.6633V12.3373C68.8479 6.16003 63.8402 1.15234 57.6629 1.15234Z" fill="white"/>
<path d="M29.8094 10.3496C34.0534 10.1455 38.0118 12.8797 38.9096 17.0625C43.8678 14.2059 49.9686 19.0417 47.4181 24.4692C56.2531 20.6536 63.2313 29.9987 57.7834 36.1403C54.4167 39.9151 49.5197 38.6908 45.0308 38.8949C46.4183 34.7528 45.0104 29.8559 41.5213 27.1829C33.5637 21.0821 21.9946 28.448 25.0961 38.8949C20.75 38.8949 16.9548 39.405 13.4861 36.2831C6.69158 30.1619 12.0374 19.1437 21.8926 20.368C22.0967 20.2251 21.2397 18.0419 22.2395 15.5118C23.3821 12.594 26.708 10.5128 29.789 10.3496H29.8094Z" fill="#6B46F2"/>
<path d="M33.7067 26.5712C33.9516 26.5712 34.2168 26.612 34.4617 26.612C34.0944 29.3257 35.992 29.2237 35.7063 26.5712C40.0116 26.7752 43.8476 30.55 43.9088 34.8756C41.195 34.5084 41.2971 36.4059 43.9496 36.1203C43.7047 40.4868 40.0116 44.2207 35.6451 44.3227C35.9716 41.6294 34.1556 41.6498 34.4005 44.3635C30.034 44.0983 26.2797 40.4256 26.198 36.0591C28.8914 36.3855 28.8506 34.5288 26.1572 34.8144C26.2592 31.9987 28.1568 29.0197 30.6053 27.6526C31.1766 27.3261 33.115 26.5916 33.7067 26.5508V26.5712ZM34.9106 30.7744C34.2576 30.9581 34.6861 33.7534 34.5637 34.4268C32.6661 35.7938 35.237 37.5486 36.1552 36.0183C36.8082 34.9573 35.8492 34.7736 35.7471 34.4268C35.4819 33.5494 36.3593 30.3459 34.8902 30.7744H34.9106Z" fill="#6B46F2"/>
<path d="M27.8097 44.5868C27.9933 44.7296 28.1769 44.8929 28.3606 45.0357C28.4218 45.2601 28.5646 49.0961 27.9117 49.2797C26.2181 49.2797 24.545 49.3206 22.8515 49.3206V52.32C28.7074 53.9319 25.8713 61.3998 20.9947 59.7674C17.9341 58.7472 17.2607 53.4422 21.7496 52.32C21.668 46.5456 21.1783 48.3412 27.0955 48.0759C27.6056 47.4842 26.6874 44.5868 27.7892 44.5664L27.8097 44.5868Z" fill="#6B46F2"/>
<path d="M42.011 44.5871C43.4801 44.1586 42.6027 47.2396 42.9088 47.9945C49.1524 48.1986 48.3771 46.6683 48.3567 52.2386C53.172 53.5649 51.7437 59.4208 48.3158 59.8901C43.5617 60.5431 41.7661 53.7485 47.0712 52.2386V49.2392C46.1938 48.9739 41.8886 49.5657 41.6641 48.8311C41.8069 48.0966 41.3377 44.7707 42.011 44.5871Z" fill="#6B46F2"/>
<path d="M34.8086 46.8929C36.2777 46.4644 35.4412 50.0759 35.6656 52.2387C40.8687 53.7282 39.0527 60.5432 34.3189 59.8903C30.7686 59.4006 29.5444 53.5242 34.4618 52.2387V47.2397C34.5842 47.1173 34.6862 47.0153 34.8086 46.8929Z" fill="#6B46F2"/>
</svg>
