<?xml version="1.0" encoding="UTF-8"?>
<svg id="Layer_1" xmlns="http://www.w3.org/2000/svg" viewBox="0 0 70 70">
  <defs>
    <style>
      .cls-1 {
        fill: #eae5ff;
      }

      .cls-2 {
        fill: #5138cc;
      }
    </style>
  </defs>
  <g id="Character">
    <rect class="cls-2" x="-.07" y="-.18" width="70" height="70" rx="12.56" ry="12.56"/>
  </g>
  <g>
    <path class="cls-1" d="M58.8,13.45H11.2c-.53,0-.96.43-.96.96v26.12h49.52V14.41c0-.53-.43-.96-.96-.96ZM27.6,24.74l4.73-4.73c.28-.28.73-.31,1.04-.07l3.65,2.74,2.89-2.9h-.04s-.02,0-.02,0c-.43,0-.78-.34-.8-.77-.02-.44.32-.8.77-.82l2.07-.08s0,0,.02,0c.05,0,.09.02.15.03.16.02.31.09.43.2.05.05.07.11.11.17.02.03.05.06.06.1s.02.08.02.13c.02.05.03.12.03.19v.02l-.07,2.07c-.02.43-.36.77-.8.77h-.03c-.44-.02-.78-.39-.77-.83v-.03l-3.38,3.38c-.28.28-.73.32-1.04.08l-3.65-2.74-4.23,4.23c-.16.16-.36.24-.56.24s-.41-.08-.56-.24c-.32-.32-.32-.82,0-1.14ZM44.98,35.86h-19.96c-.44,0-.8-.36-.8-.8v-13.14c0-.44.36-.8.8-.8s.8.36.8.8v12.34h2.61v-3.93c0-.44.36-.8.8-.8s.8.36.8.8v3.93h3.13v-7.61c0-.44.36-.8.8-.8s.8.36.8.8v7.61h3.14v-5.51c0-.44.35-.8.8-.8s.8.36.8.8v5.51h3.13v-8.66c0-.45.35-.8.8-.8s.8.35.8.8v8.66h.77c.44,0,.8.36.8.8,0,.44-.36.8-.8.8ZM10.24,47.1c0,.53.43.96.96.96h19.55l-3,4.94h-4.61v3.54h23.74v-3.54h-4.61l-3-4.94h19.55c.53,0,.96-.43.96-.96v-4.97H10.24v4.97ZM35,43.09c1.1,0,2,.9,2,2s-.9,1.99-2,1.99-2-.89-2-1.99.9-2,2-2Z"/>
    <path class="cls-1" d="M35,46.04c.53,0,.96-.43.96-.95s-.43-.96-.96-.96-.96.43-.96.96.43.95.96.95Z"/>
  </g>
</svg>