<svg width="35" height="35" viewBox="0 0 35 35" fill="none" xmlns="http://www.w3.org/2000/svg">
<g clip-path="url(#clip0_347_24)">
<mask id="mask0_347_24" style="mask-type:luminance" maskUnits="userSpaceOnUse" x="0" y="0" width="35" height="35">
<path d="M35 0H0V35H35V0Z" fill="white"/>
</mask>
<g mask="url(#mask0_347_24)">
<path d="M27.2824 -0.245117H7.92736C3.47181 -0.245117 -0.140137 3.36683 -0.140137 7.82238V27.1774C-0.140137 31.6329 3.47181 35.2449 7.92736 35.2449H27.2824C31.7379 35.2449 35.3499 31.6329 35.3499 27.1774V7.82238C35.3499 3.36683 31.7379 -0.245117 27.2824 -0.245117Z" fill="#F2EFFF"/>
</g>
<path d="M12.406 5C12.856 5.41 13.306 5.81 13.756 6.22C14.556 6.39 15.506 4.42 16.316 6.7C15.976 7.16 15.636 7.61 15.296 8.07C17.926 8.31 19.716 10.99 18.496 13.45C20.276 14.58 20.066 13.74 20.396 13.58C20.716 13.42 21.276 13.77 21.416 13.78C21.866 13.83 22.736 13.12 22.556 12.64C22.516 12.52 22.096 12.3 22.306 11.88C22.336 11.82 23.116 11.1 23.396 11.14C24.036 11.24 23.806 13.85 25.526 12.56C26.066 12.16 26.476 11 27.206 10.43C28.596 9.34 30.516 9.59 29.826 11.93C28.016 12.59 28.556 12.86 28.306 14.11C28.216 14.56 27.706 16.68 27.366 16.83C27.016 16.98 25.746 16.03 25.716 15.94C25.596 15.55 26.246 14.75 25.746 14.49C25.386 14.31 25.086 14.7 24.726 14.64C24.506 14.5 24.286 14.37 24.066 14.23C23.646 14.14 22.886 14.77 23.076 15.22C23.126 15.34 24.596 16.79 24.346 17.45C24.046 18.24 22.866 16.92 22.566 19.08C20.856 20.75 19.276 22.54 17.336 23.96C17.236 24.29 17.886 25.27 17.746 26.5C17.546 27.08 17.336 27.65 17.136 28.23C16.966 28.92 17.136 29.4 16.806 29.58C16.636 29.61 16.466 29.65 16.296 29.68C15.536 30.02 15.696 30.7 14.926 30.59C14.026 30.47 14.396 29.47 13.936 28.28C13.226 26.94 12.516 25.61 11.806 24.27C11.146 22.46 11.216 19.71 11.096 19.45C10.966 19.34 10.846 19.23 10.716 19.12C10.066 18.91 10.176 19.87 9.54597 19.98C8.96597 20.09 7.49597 19.38 7.64597 18.74C7.83597 18.57 8.01597 18.4 8.20597 18.23C8.44597 17.41 6.47597 17.29 7.13597 16.4C7.78597 15.53 8.62597 16.55 8.91597 15.99C9.23597 15.37 7.99597 14.77 8.10597 14.11C8.11597 14.03 8.63597 12.82 9.14597 12.92C9.67597 13.02 9.50597 13.99 11.046 11.68C11.046 10.71 11.526 9.8 12.216 9.14C11.726 8.77 11.236 8.4 10.746 8.02C10.656 7.71 10.976 7.44 10.796 7.11C10.556 6.66 8.91597 6.69 10.646 5H12.426H12.406ZM14.556 8.96C13.096 9.09 11.706 10.58 11.836 12.08C11.926 13.13 14.466 17.25 14.856 17.34H15.056C15.316 17.27 17.556 13.62 17.826 12.79C18.526 10.63 16.736 8.75 14.546 8.96H14.556ZM12.886 16.12C11.346 18.05 13.026 20.83 15.476 20.39C17.326 20.06 18.276 17.62 16.996 16.17C16.816 16.42 16.636 16.66 16.466 16.91C17.386 18.54 15.456 20.31 13.906 19.22C13.226 18.74 12.926 17.63 13.426 16.91C13.246 16.65 13.066 16.39 12.896 16.12H12.886Z" fill="#6B46F2"/>
<path d="M14.5559 8.95994C16.7459 8.75994 18.5259 10.6399 17.8359 12.7899C17.5659 13.6199 15.3259 17.2699 15.0659 17.3399H14.8659C14.4659 17.2599 11.9359 13.1399 11.8459 12.0799C11.7159 10.5699 13.0959 9.08994 14.5659 8.95994H14.5559ZM14.7159 10.2799C14.1559 10.3399 13.4459 10.8799 13.2659 11.4199C12.7359 12.9799 14.3859 14.3899 15.8259 13.5799C17.4059 12.6999 16.6959 10.0799 14.7059 10.2799H14.7159Z" fill="white"/>
<path d="M14.7162 10.2799C16.7062 10.0799 17.4062 12.6999 15.8362 13.5799C14.3862 14.3899 12.7462 12.9899 13.2762 11.4199C13.4562 10.8799 14.1562 10.3299 14.7262 10.2799H14.7162ZM14.6662 11.1899C13.7562 11.3799 13.8962 13.1699 15.1762 12.9199C16.1462 12.7299 16.0162 10.8999 14.6662 11.1899Z" fill="#6B46F2"/>
<path d="M12.8862 16.1201C13.0662 16.3801 13.2462 16.6401 13.4162 16.9101C12.9262 17.6301 13.2162 18.7401 13.8962 19.2201C15.4462 20.3101 17.3862 18.5401 16.4562 16.9101C16.6362 16.6601 16.8162 16.4201 16.9862 16.1701C18.2562 17.6101 17.3062 20.0501 15.4662 20.3901C13.0162 20.8301 11.3362 18.0601 12.8762 16.1201H12.8862Z" fill="white"/>
</g>
<defs>
<clipPath id="clip0_347_24">
<rect width="35" height="35" fill="white"/>
</clipPath>
</defs>
</svg>
