<?xml version="1.0" encoding="UTF-8"?>
<svg xmlns="http://www.w3.org/2000/svg" xmlns:xlink="http://www.w3.org/1999/xlink" width="22.5pt" height="22.5pt" viewBox="0 0 22.5 22.5" version="1.1">
<g id="surface25">
<path style=" stroke:none;fill-rule:nonzero;fill:rgb(94.901961%,93.72549%,100%);fill-opacity:1;" d="M 5.097656 -0.15625 L 17.539062 -0.15625 C 20.402344 -0.15625 22.726562 2.707031 22.726562 5.03125 L 22.726562 17.472656 C 22.726562 20.335938 20.40625 22.660156 17.539062 22.660156 L 5.097656 22.660156 C 2.234375 22.660156 -0.0898438 19.796875 -0.0898438 17.472656 L -0.0898438 5.03125 C -0.0898438 2.167969 2.230469 -0.15625 5.097656 -0.15625 Z M 5.097656 -0.15625 "/>
<path style=" stroke:none;fill-rule:nonzero;fill:rgb(41.960784%,27.45098%,94.901961%);fill-opacity:1;" d="M 10.710938 11.351562 C 11.8125 11.351562 12.835938 11.710938 13.714844 12.363281 L 14.984375 11.472656 C 13.9375 10.707031 12.6875 10.28125 11.417969 10.257812 L 11.339844 10.257812 C 8.257812 10.257812 5.871094 12.089844 5.230469 14.8125 C 6.199219 12.652344 8.1875 11.335938 10.71875 11.347656 Z M 10.035156 15.648438 C 9.628906 16.054688 9.628906 16.71875 10.035156 17.132812 C 10.316406 17.425781 10.734375 17.527344 11.125 17.402344 C 11.371094 17.324219 11.542969 17.132812 11.640625 16.984375 L 14.878906 12.25 L 10.042969 15.648438 Z M 11.394531 16.359375 C 11.394531 16.6875 11.125 16.945312 10.796875 16.945312 C 10.640625 16.945312 10.492188 16.878906 10.378906 16.765625 C 10.265625 16.652344 10.210938 16.496094 10.210938 16.339844 C 10.210938 16.011719 10.492188 15.753906 10.820312 15.753906 C 10.976562 15.753906 11.136719 15.820312 11.238281 15.933594 C 11.351562 16.046875 11.40625 16.191406 11.40625 16.351562 Z M 16.246094 16.640625 L 17.6875 16.640625 C 17.632812 14.898438 16.910156 13.265625 15.683594 12.0625 L 14.773438 13.402344 C 15.472656 14.28125 15.976562 15.394531 16.246094 16.652344 Z M 16.246094 16.640625 "/>
<path style=" stroke:none;fill-rule:nonzero;fill:rgb(41.960784%,27.45098%,94.901961%);fill-opacity:1;" d="M 18.460938 4.285156 L 4.285156 4.285156 C 3.273438 4.285156 2.453125 5.105469 2.453125 6.117188 L 2.453125 7.457031 L 20.296875 7.457031 L 20.296875 6.117188 C 20.296875 5.105469 19.476562 4.285156 18.464844 4.285156 Z M 10.585938 6.839844 L 4.128906 6.839844 C 3.589844 6.839844 3.160156 6.414062 3.160156 5.871094 C 3.160156 5.332031 3.585938 4.902344 4.128906 4.902344 L 10.585938 4.902344 C 11.125 4.902344 11.554688 5.328125 11.554688 5.871094 C 11.554688 6.410156 11.128906 6.839844 10.585938 6.839844 Z M 13.566406 6.941406 C 12.96875 6.941406 12.496094 6.457031 12.496094 5.871094 C 12.496094 5.285156 12.980469 4.800781 13.566406 4.800781 C 14.152344 4.800781 14.636719 5.285156 14.636719 5.871094 C 14.636719 6.46875 14.152344 6.941406 13.566406 6.941406 Z M 16.03125 6.941406 C 15.433594 6.941406 14.960938 6.457031 14.960938 5.871094 C 14.960938 5.285156 15.445312 4.800781 16.03125 4.800781 C 16.617188 4.800781 17.101562 5.285156 17.101562 5.871094 C 17.101562 6.46875 16.617188 6.941406 16.03125 6.941406 Z M 18.496094 6.941406 C 17.898438 6.941406 17.425781 6.457031 17.425781 5.871094 C 17.425781 5.285156 17.910156 4.800781 18.496094 4.800781 C 19.082031 4.800781 19.566406 5.285156 19.566406 5.871094 C 19.566406 6.457031 19.082031 6.941406 18.496094 6.941406 Z M 18.496094 6.941406 "/>
<path style=" stroke:none;fill-rule:nonzero;fill:rgb(41.960784%,27.45098%,94.901961%);fill-opacity:1;" d="M 16.03125 5.378906 C 15.75 5.378906 15.535156 5.605469 15.535156 5.875 C 15.535156 6.144531 15.761719 6.371094 16.03125 6.371094 C 16.300781 6.371094 16.527344 6.144531 16.527344 5.875 C 16.527344 5.605469 16.300781 5.378906 16.03125 5.378906 Z M 13.566406 5.378906 C 13.296875 5.378906 13.070312 5.605469 13.070312 5.875 C 13.070312 6.144531 13.296875 6.371094 13.566406 6.371094 C 13.835938 6.371094 14.0625 6.144531 14.0625 5.875 C 14.0625 5.605469 13.835938 5.378906 13.566406 5.378906 Z M 2.441406 17.875 C 2.441406 18.886719 3.261719 19.707031 4.273438 19.707031 L 18.449219 19.707031 C 19.460938 19.707031 20.28125 18.886719 20.28125 17.875 L 20.285156 8.03125 L 2.441406 8.03125 Z M 11.328125 9.675781 L 11.417969 9.675781 C 12.871094 9.6875 14.296875 10.203125 15.46875 11.117188 L 15.828125 10.859375 C 15.941406 10.78125 16.097656 10.792969 16.199219 10.894531 C 16.300781 10.996094 16.3125 11.140625 16.234375 11.253906 L 16.007812 11.582031 C 17.460938 12.964844 18.28125 14.902344 18.257812 16.9375 C 18.257812 17.09375 18.132812 17.21875 17.964844 17.21875 L 15.996094 17.21875 C 15.859375 17.21875 15.738281 17.117188 15.714844 16.984375 C 15.488281 15.792969 15.050781 14.734375 14.421875 13.902344 L 12.09375 17.3125 C 11.878906 17.628906 11.597656 17.851562 11.273438 17.953125 C 11.105469 18.007812 10.9375 18.03125 10.765625 18.03125 C 10.328125 18.03125 9.910156 17.851562 9.59375 17.535156 C 8.964844 16.882812 8.984375 15.847656 9.628906 15.230469 C 9.628906 15.230469 9.652344 15.207031 9.664062 15.207031 L 13.195312 12.722656 C 12.453125 12.207031 11.597656 11.945312 10.675781 11.933594 L 10.597656 11.933594 C 7.457031 11.933594 5.230469 14.296875 5.152344 17.703125 C 5.152344 17.847656 5.027344 17.972656 4.882812 17.984375 L 4.859375 17.984375 C 4.722656 17.984375 4.601562 17.894531 4.578125 17.75 C 4.488281 17.253906 4.441406 16.75 4.441406 16.242188 C 4.488281 12.429688 7.367188 9.683594 11.292969 9.683594 Z M 11.328125 9.675781 "/>
<path style=" stroke:none;fill-rule:nonzero;fill:rgb(41.960784%,27.45098%,94.901961%);fill-opacity:1;" d="M 3.046875 4.804688 L 11.664062 4.804688 L 11.664062 6.953125 L 3.046875 6.953125 Z M 3.046875 4.804688 "/>
<path style=" stroke:none;fill-rule:nonzero;fill:rgb(94.901961%,93.72549%,100%);fill-opacity:1;" d="M 10.585938 5.480469 L 4.128906 5.480469 C 3.914062 5.480469 3.734375 5.660156 3.734375 5.875 C 3.734375 6.089844 3.914062 6.269531 4.128906 6.269531 L 10.585938 6.269531 C 10.800781 6.269531 10.980469 6.089844 10.980469 5.875 C 10.980469 5.660156 10.800781 5.480469 10.585938 5.480469 Z M 10.585938 5.480469 "/>
<path style=" stroke:none;fill-rule:nonzero;fill:rgb(41.960784%,27.45098%,94.901961%);fill-opacity:1;" d="M 14.703125 5.804688 C 14.703125 7.320312 12.429688 7.320312 12.429688 5.804688 C 12.429688 4.289062 14.703125 4.289062 14.703125 5.804688 "/>
<path style=" stroke:none;fill-rule:nonzero;fill:rgb(41.960784%,27.45098%,94.901961%);fill-opacity:1;" d="M 17.167969 5.90625 C 17.167969 7.421875 14.894531 7.421875 14.894531 5.90625 C 14.894531 4.390625 17.167969 4.390625 17.167969 5.90625 "/>
<path style=" stroke:none;fill-rule:nonzero;fill:rgb(41.960784%,27.45098%,94.901961%);fill-opacity:1;" d="M 19.640625 5.871094 C 19.640625 7.386719 17.371094 7.386719 17.371094 5.871094 C 17.371094 4.359375 19.640625 4.359375 19.640625 5.871094 "/>
<path style=" stroke:none;fill-rule:nonzero;fill:rgb(94.901961%,93.72549%,100%);fill-opacity:1;" d="M 18.496094 5.378906 C 18.226562 5.378906 18 5.605469 18 5.875 C 18 6.144531 18.226562 6.371094 18.496094 6.371094 C 18.765625 6.371094 18.992188 6.144531 18.992188 5.875 C 18.992188 5.605469 18.765625 5.378906 18.496094 5.378906 Z M 18.496094 5.378906 "/>
<path style=" stroke:none;fill-rule:nonzero;fill:rgb(94.901961%,93.72549%,100%);fill-opacity:1;" d="M 16.03125 5.410156 C 15.761719 5.410156 15.535156 5.636719 15.535156 5.90625 C 15.535156 6.175781 15.761719 6.402344 16.03125 6.402344 C 16.300781 6.402344 16.527344 6.175781 16.527344 5.90625 C 16.527344 5.636719 16.300781 5.410156 16.03125 5.410156 Z M 16.03125 5.410156 "/>
<path style=" stroke:none;fill-rule:nonzero;fill:rgb(94.901961%,93.72549%,100%);fill-opacity:1;" d="M 14.007812 5.410156 C 13.738281 5.410156 13.511719 5.636719 13.511719 5.90625 C 13.511719 6.175781 13.738281 6.402344 14.007812 6.402344 C 14.277344 6.402344 14.503906 6.175781 14.503906 5.90625 C 14.503906 5.636719 14.277344 5.410156 14.007812 5.410156 Z M 14.007812 5.410156 "/>
</g>
</svg>
