<?xml version="1.0" encoding="UTF-8"?>
<svg id="Layer_1" xmlns="http://www.w3.org/2000/svg" viewBox="0 0 70 70">
  <defs>
    <style>
      .cls-1 {
        fill: #fff;
      }

      .cls-2 {
        fill: #5138cc;
      }
    </style>
  </defs>
  <g id="Character">
    <rect class="cls-2" width="70" height="70" rx="12.56" ry="12.56"/>
  </g>
  <g>
    <path class="cls-1" d="M16.17,26.04c1.17-.15,1.6.81,1.69.85,1.37.5,4.69-1.35,4.08,2.07.22.35,2.71-.77,2.75,1.48-3.76-.03-4.42.87-4.29-2.07-3.22-.3-2.75.7-3.49.85-2.45.49-2.64-2.93-.74-3.18Z"/>
    <path class="cls-1" d="M34.8,8.99c10.74-.02,20.73,6.79,24.46,16.84.44-1.06.16-3.1,1.48-2.75l.48.48c-.35,1.87-.71,3.74-1.06,5.61-.19.41-.73.54-1.11.37-1.39-1.25-2.79-2.51-4.18-3.76-.16-.54.2-1.15.79-1.11.72.55,1.45,1.09,2.17,1.64-8.45-21.25-37.39-20.42-45.54-.74-.68,1.65-1.22,5.15-2.38,3.87-.8-.89,2.05-6.7,2.7-7.78,4.55-7.62,13.26-12.63,22.19-12.65Z"/>
    <path class="cls-1" d="M53.97,26.04c1.8-.24,2.51,2.2,1.16,2.97-1.52.86-2.2-.59-2.33-.64h-3.28c.15,2.92-.61,2.04-4.29,2.07.14-1.94,1.26-1.29,2.75-1.48-.71-3.47,2.99-1.54,4.82-2.07.39-.28.78-.56,1.16-.85Z"/>
    <path class="cls-1" d="M33.53,22.76c1.02.04,2.05.07,3.07.11.55.28.22,2.28,1.69,3.07,2.2,1.18,3.29-.9,4.24-.64.72.72,1.45,1.45,2.17,2.17.27.94-1.87,2.03-.64,4.24,1.37,2.44,3.97-.61,3.07,4.98-.29.55-2.23.2-3.07,1.69-1.24,2.21.91,3.3.64,4.24l-2.17,2.17c-.94.27-2.01-1.83-4.24-.64-2.44,1.3.61,3.99-4.98,3.07-.62-.31-.14-2.05-1.59-2.97-2.32-1.48-3.31.98-4.55.42-.62-.62-1.24-1.24-1.85-1.85-.63-1.2,1.92-2.2.42-4.55-.96-1.51-2.85-.95-3.07-1.69v-3.07c.22-.74,2.11-.18,3.07-1.69,1.32-2.08-.64-3.59-.64-4.02.05-.5,2.02-2.43,2.28-2.49,1-.22,2.13,1.93,4.34.53,1.55-.98.83-2.83,1.8-3.07ZM34.17,27.63c-5.32.47-8.31,6.74-5.56,11.28,2.64,4.36,9.03,4.75,12.18.74,4.05-5.16-.14-12.59-6.62-12.02Z"/>
    <path class="cls-1" d="M34.38,29.12c5.13-.44,8.42,5.49,5.24,9.58-3.81,4.91-11.74,1.23-10.48-4.98.46-2.3,2.92-4.41,5.24-4.61ZM37.45,32.72c-.48.02-2.57,2.38-3.18,2.75-1.95-2.17-2.86-1.29-2.59-.37.72.72,1.45,1.45,2.17,2.17h.74c1.18-1.11,2.37-2.22,3.55-3.34.25-.54-.05-1.25-.69-1.22Z"/>
    <path class="cls-1" d="M52.91,33.25c2.29-.52,2.76,2.47,1.16,3.07-1.38.52-1.9-.7-2.01-.74-1.11-.02-2.22-.04-3.34-.05.02-.48.04-.95.05-1.43h3.18c.32-.28.64-.56.95-.85Z"/>
    <path class="cls-1" d="M16.91,33.46c1.3-.26,1.7.81,1.8.85h2.44c.6,2.53-1.34,1.08-2.44,1.48-.12.04-.73,1.45-2.22.64-1.34-.73-.73-2.73.42-2.97Z"/>
    <path class="cls-1" d="M45.29,39.6c3.6.19,4.37-.89,4.24,2.12h4.02c.06-.02.41-.73.95-.85,1.85-.39,2.71,1.75,1.59,2.75-1.33,1.2-2.4-.38-2.54-.42-1.98-.57-6.39,1.47-5.56-2.07-.22-.34-2.91.77-2.7-1.54Z"/>
    <g>
      <path class="cls-1" d="M20.83,39.6c1.29.02,2.58.04,3.87.05-.04,2.25-2.53,1.14-2.75,1.48.74,3.51-3.3,1.51-4.82,2.07-.14.18-.28.35-.42.53-2.43,1.2-3.29-1.8-1.91-2.65,1.41-.86,2.3.6,2.44.64h3.18c.19-.12-.21-1.91.42-2.12Z"/>
      <path class="cls-1" d="M10.34,40.45c.4-.04,4.63,3.57,4.71,3.87.21.72-.4,1.33-1.22.9-.56-.49-1.13-.99-1.69-1.48,1,3.6,4.24,7.8,7.1,10.17,12.5,10.34,31.7,5.91,38.18-8.95,1.1-2.53,1.14-5.01,2.38-4.39l.37.37c.35,1.15-2.48,6.89-3.28,8.15-11.45,17.97-38.67,15.02-46.22-4.71-.47.97-.13,2.97-1.48,2.65-.12-.09-.25-.18-.37-.26-.23-.37.86-5.8,1.06-6.04.16-.09.32-.18.48-.26Z"/>
    </g>
  </g>
</svg>