<?xml version="1.0" encoding="UTF-8"?>
<svg id="Layer_1" xmlns="http://www.w3.org/2000/svg" viewBox="0 0 70 70">
  <defs>
    <style>
      .cls-1 {
        letter-spacing: 0em;
      }

      .cls-2 {
        letter-spacing: .01em;
      }

      .cls-3 {
        letter-spacing: -.03em;
      }

      .cls-4 {
        letter-spacing: 0em;
      }

      .cls-5 {
        letter-spacing: -.03em;
      }

      .cls-6 {
        fill: #fff;
      }

      .cls-7 {
        letter-spacing: 0em;
      }

      .cls-8 {
        letter-spacing: -.01em;
      }

      .cls-9 {
        letter-spacing: 0em;
      }

      .cls-10 {
        letter-spacing: 0em;
      }

      .cls-11 {
        letter-spacing: 0em;
      }

      .cls-12 {
        letter-spacing: 0em;
      }

      .cls-13 {
        fill: #5138cc;
      }

      .cls-14 {
        letter-spacing: .02em;
      }

      .cls-15 {
        letter-spacing: 0em;
      }

      .cls-16 {
        letter-spacing: .01em;
      }

      .cls-17 {
        letter-spacing: .01em;
      }

      .cls-18 {
        font-family: MyriadPro-Regular, 'Myriad Pro';
        font-size: 12px;
      }

      .cls-19 {
        letter-spacing: -.03em;
      }

      .cls-20 {
        letter-spacing: 0em;
      }

      .cls-21 {
        letter-spacing: 2.79em;
      }

      .cls-22 {
        letter-spacing: 0em;
      }

      .cls-23 {
        letter-spacing: -.01em;
      }

      .cls-24 {
        letter-spacing: -.01em;
      }

      .cls-25 {
        letter-spacing: .03em;
      }

      .cls-26 {
        letter-spacing: 0em;
      }

      .cls-27 {
        letter-spacing: 0em;
      }

      .cls-28 {
        letter-spacing: .02em;
      }

      .cls-29 {
        fill: none;
        stroke: #fff;
        stroke-miterlimit: 10;
        stroke-width: .25px;
      }

      .cls-30 {
        letter-spacing: -.02em;
      }
    </style>
  </defs>
  <g id="Character">
    <rect class="cls-13" x="-.07" y="-.18" width="70" height="70" rx="12.56" ry="12.56"/>
  </g>
  <text class="cls-18" transform="translate(-92.01 63.48)"><tspan class="cls-2" x="0" y="0">I</tspan><tspan class="cls-12" x="2.99" y="0">nsta</tspan><tspan class="cls-7" x="24.16" y="0">n</tspan><tspan x="30.77" y="0">t </tspan><tspan class="cls-9" x="37.28" y="0">S</tspan><tspan x="43.27" y="0">etup</tspan><tspan class="cls-21" x="0" y="14.4">	</tspan><tspan class="cls-3" x="36" y="14.4">W</tspan><tspan x="45.76" y="14.4">ee</tspan><tspan class="cls-14" x="57.78" y="14.4">k</tspan><tspan x="63.61" y="14.4">ly bac</tspan><tspan class="cls-27" x="92.63" y="14.4">k</tspan><tspan x="98.3" y="14.4">up</tspan><tspan class="cls-21" x="0" y="28.8">	</tspan><tspan x="36" y="28.8">NV</tspan><tspan class="cls-9" x="50.59" y="28.8">M</tspan><tspan x="60.31" y="28.8">e SSD </tspan><tspan class="cls-20" x="91.24" y="28.8">S</tspan><tspan class="cls-15" x="97.12" y="28.8">t</tspan><tspan x="101.01" y="28.8">o</tspan><tspan class="cls-26" x="107.6" y="28.8">r</tspan><tspan x="111.47" y="28.8">age</tspan><tspan class="cls-21" x="0" y="43.2">	</tspan><tspan x="36" y="43.2">No </tspan><tspan class="cls-17" x="53.03" y="43.2">O</tspan><tspan class="cls-24" x="61.46" y="43.2">v</tspan><tspan x="67.11" y="43.2">er</tspan><tspan class="cls-9" x="77.05" y="43.2">S</tspan><tspan x="83.04" y="43.2">elling</tspan><tspan class="cls-21" x="0" y="57.6">	</tspan><tspan x="36" y="57.6">Smooth </tspan><tspan class="cls-16" x="78.28" y="57.6">M</tspan><tspan x="88.07" y="57.6">i</tspan><tspan class="cls-10" x="90.87" y="57.6">g</tspan><tspan class="cls-11" x="97.51" y="57.6">r</tspan><tspan class="cls-7" x="101.37" y="57.6">a</tspan><tspan x="107.11" y="57.6">tion</tspan><tspan class="cls-21" x="0" y="72">	</tspan><tspan class="cls-5" x="36" y="72">F</tspan><tspan class="cls-24" x="41.53" y="72">r</tspan><tspan x="45.34" y="72">ee SSL </tspan><tspan class="cls-23" x="79.94" y="72">C</tspan><tspan x="86.77" y="72">e</tspan><tspan class="cls-28" x="92.78" y="72">r</tspan><tspan x="97" y="72">tific</tspan><tspan class="cls-7" x="115.43" y="72">a</tspan><tspan class="cls-15" x="121.16" y="72">t</tspan><tspan x="125.06" y="72">es</tspan><tspan class="cls-21" x="0" y="86.4">	</tspan><tspan class="cls-30" x="36" y="86.4">P</tspan><tspan class="cls-22" x="42.08" y="86.4">o</tspan><tspan class="cls-24" x="48.59" y="86.4">w</tspan><tspan x="57.3" y="86.4">e</tspan><tspan class="cls-25" x="63.31" y="86.4">r</tspan><tspan x="67.6" y="86.4">ful &amp; </tspan><tspan class="cls-9" x="92.89" y="86.4">S</tspan><tspan class="cls-12" x="98.88" y="86.4">calable</tspan><tspan class="cls-21" x="0" y="100.8">	</tspan><tspan x="36" y="100.8">Gua</tspan><tspan class="cls-26" x="56.15" y="100.8">r</tspan><tspan x="60.01" y="100.8">a</tspan><tspan class="cls-7" x="65.8" y="100.8">n</tspan><tspan class="cls-15" x="72.41" y="100.8">t</tspan><tspan x="76.31" y="100.8">eed </tspan><tspan class="cls-27" x="97.64" y="100.8">R</tspan><tspan x="104.15" y="100.8">esou</tspan><tspan class="cls-24" x="128.11" y="100.8">r</tspan><tspan class="cls-10" x="131.92" y="100.8">c</tspan><tspan x="137.22" y="100.8">es</tspan><tspan class="cls-21" x="0" y="115.2">	</tspan><tspan class="cls-5" x="36" y="115.2">F</tspan><tspan class="cls-27" x="41.53" y="115.2">r</tspan><tspan x="45.5" y="115.2">iendly </tspan><tspan class="cls-23" x="78.78" y="115.2">C</tspan><tspan x="85.61" y="115.2">o</tspan><tspan class="cls-7" x="92.2" y="115.2">n</tspan><tspan x="98.81" y="115.2">t</tspan><tspan class="cls-24" x="102.78" y="115.2">r</tspan><tspan x="106.58" y="115.2">ol </tspan><tspan class="cls-5" x="118.55" y="115.2">P</tspan><tspan x="124.62" y="115.2">anel</tspan><tspan x="0" y="129.6">11:15</tspan><tspan class="cls-19" x="0" y="144">F</tspan><tspan x="5.42" y="144">ully </tspan><tspan class="cls-7" x="25.9" y="144">E</tspan><tspan x="31.75" y="144">quipped </tspan><tspan class="cls-8" x="76.91" y="144">f</tspan><tspan x="80.25" y="144">or </tspan><tspan class="cls-9" x="93.31" y="144">S</tspan><tspan x="99.3" y="144">eamless Ope</tspan><tspan class="cls-26" x="163.1" y="144">r</tspan><tspan class="cls-4" x="166.97" y="144">a</tspan><tspan class="cls-1" x="172.7" y="144">tion</tspan></text>
  <g>
    <g>
      <path class="cls-29" d="M8.62,32.56c0,.14.04.28.15.4.12.13.28.21.45.2h7.97c.33.03.61-.21.64-.54v-.05c-.03-.35-.3-.62-.65-.65h-7.97c-.33,0-.6.26-.6.6v.05h0Z"/>
      <rect class="cls-29" x="11.65" y="37.94" width="6.53" height="1.24" rx=".6" ry=".6"/>
      <rect class="cls-29" x="7.97" y="42.96" width="3.99" height="1.24" rx=".6" ry=".6"/>
      <rect class="cls-29" x="11.26" y="45.79" width="6.53" height="1.24" rx=".6" ry=".6"/>
      <circle class="cls-29" cx="10.16" cy="36.09" r=".6"/>
      <circle class="cls-29" cx="13.92" cy="41.59" r=".6"/>
    </g>
    <g>
      <path class="cls-6" d="M43.18,29.21l-.69-.21-.1-.13v-.67c0-.06.05-.1.1-.1h0l.69-.23c.19-.08.25-.19.19-.38l-.35-1.04c-.06-.23-.17-.29-.4-.23l-.65.23c-.1,0-.15,0-.19-.08-.09-.18-.21-.34-.35-.48-.05-.05-.05-.14,0-.19l.4-.56c.13-.19.13-.33-.06-.44l-.83-.6c-.25-.19-.38-.15-.54.08l-.42.58-.67-.21c-.13-.04-.17-.08-.17-.19.02-.21.02-.43,0-.65,0-.21-.06-.33-.29-.33h-1.04c-.18-.03-.35.1-.38.29v.84l-.77.25-.13-.15-.38-.52c-.08-.13-.25-.16-.38-.08,0,0-.02.01-.02.02l-.94.67c-.19.15-.19.29-.04.48l.46.6-.42.58c-.05.06-.11.09-.19.08l-.67-.23c-.13-.06-.29,0-.35.13,0,.02-.02.04-.02.06l-.33,1.04c-.08.23-.04.33.19.42l.63.23c.13,0,.13.02.13.15v.63c0,.08,0,.13-.08.13l-.67.21c-.16.03-.26.18-.23.34v.02h0c.13.38.27.75.38,1.08.04.16.19.25.35.21,0,0,.02,0,.02,0h.04l.63-.19s.1,0,.15,0l.46.63-.5.65c-.1.13-.09.31.04.41h0s.04,0,.04,0l.86.67c.23.15.33.1.52-.13.16-.18.3-.38.42-.58l.71.21c.1.04.1.08.1.17v.71c-.01.14.09.27.23.29h1.18c.23,0,.29-.13.29-.33.02-.22.02-.44,0-.67,0-.08.04-.13.13-.17l.58-.19c.07-.02.14,0,.19.04.13.21.27.41.42.6.06.13.21.18.33.11,0,0,.02,0,.02-.01l.06-.04.9-.67c.19-.1.19-.25.06-.44l-.4-.56v-.15l.35-.52c.04-.08.08-.08.19-.08l.6.23c.27.08.38,0,.44-.23l.35-1.04c.06-.19,0-.29-.19-.38h.01ZM38.29,30.48c-1.07,0-1.93-.87-1.93-1.93s.87-1.93,1.93-1.93,1.93.87,1.93,1.93-.87,1.93-1.93,1.93h0Z"/>
      <path class="cls-6" d="M16.72,13.29h43.14c.95.23,1.9,1.05,2.06,2.06.33,2.15-.25,23.74,0,28.41-.62.02-1.24.03-1.87.05-1.5-2.88-3.15-8.03-7.08-4.97-1.1-.27-2.33.05-3.06.96-1.17-.26-1.94.39-2.15.24-1.43-2.22-.42-1.2,1.43-3.92.4-.59,1.9-2.8.53-3.01-1.01-.16-1.66,2.7-3.54,4.11-.4-.62-.8-1.24-1.2-1.87-.06-.28,2.16-2.41,2.58-5.07,1.28-8.1-7.01-13.67-13.82-10-8.34,4.5-5.6,18.56,6.07,17.65.84,2.51,2.15,2.15-2.34,2.34-.18-.06.06-.99-.57-1.15-.48-.12-2.38.78-2.53,1.1-.34.68,1.24,2.49,1.39,2.53.75.22,1.13-.4,1.05-1.05,1.61.24,3.2-.02,4.78-.29.46.78.92,1.56,1.39,2.34-9.42.02-18.84.03-28.27.05.15-4.54-.36-26.46-.05-28.46.16-1.01,1.1-1.83,2.06-2.06ZM40.26,14.34c-.58.15-.42,1.02-.48,1.05-3.76-.44-7.75.88-10.52,3.44-.6.56-4.39,4.83-2.39,5.17.87.15,1.13-1.29,2.06-2.53,2.35-3.15,6.38-4.88,10.28-4.64-.41,2.28,3.05.42,3.11-.24.02-.26-1.1-2.49-2.06-2.25ZM43.32,16.54c-.39.12-.56.83-.33,1.2.38.62,7.27,2.6,6.98,11.77-2.18-.57-.56,3.24.62,3.01.42-.08,3.6-2.23.81-2.53.58-4.03-1.12-8.41-4.07-11.14-.65-.61-3.2-2.54-4.02-2.3ZM26,24.57c-.14.03-2.05,1.15-1.96,1.87.08.7,1.02.61,1.05.67.25.4-.81,4.45,2.3,8.99,1.49,2.17,5.84,5.65,6.31,4.02.3-1.03-1.21-1.25-2.53-2.25-3.11-2.36-4.87-6.38-4.54-10.28,2.19.56.56-3.23-.62-3.01Z"/>
      <path class="cls-6" d="M42.36,35.86c.58-.1,1.18.09,1.58.53l3.87,6.74c-.1-1.9,1.95-2.63,2.87-.96-.18-1.98,1.96-2.65,2.87-.96-.03-1.32,1.23-2.27,2.39-1.53.9.57,3.62,6.38,3.68,7.89-3.3,1.93-6.6,3.86-9.9,5.79-1.94-1.98-10-3.53-9.23-7.13.5-2.32,4.85.65,6.12.77-1.75-3.06-3.51-6.12-5.26-9.18-.2-.75.13-1.81,1-1.96Z"/>
      <path class="cls-6" d="M14.71,45.33h24.49c-.27.79-.41,1.76-.05,2.53-7.51.02-15.02.03-22.53.05-.99-.17-2.17-1.54-1.91-2.58Z"/>
      <path class="cls-6" d="M59.67,49.35c.43.72.86,1.43,1.29,2.15-2.98,1.74-5.96,3.48-8.94,5.21l-1.29-2.15c2.98-1.74,5.96-3.48,8.94-5.21Z"/>
      <path class="cls-6" d="M28.49,49.44h11.48c1.95,1.96,4.89,2.88,7.32,4.16-2.64-.17-19.73.37-20.71.05-.84-.28,1.78-3.59,1.91-4.21Z"/>
    </g>
  </g>
</svg>