<svg width="42" height="42" viewBox="0 0 42 42" fill="none" xmlns="http://www.w3.org/2000/svg">
<circle cx="20.9995" cy="21" r="20.5" stroke="white"/>
<path d="M16.5095 11H24.4895C27.5295 11 29.9995 13.47 29.9995 16.51V24.49C29.9995 25.9513 29.419 27.3528 28.3857 28.3862C27.3523 29.4195 25.9509 30 24.4895 30H16.5095C13.4695 30 10.9995 27.53 10.9995 24.49V16.51C10.9995 15.0487 11.58 13.6472 12.6134 12.6138C13.6467 11.5805 15.0482 11 16.5095 11ZM16.3195 12.9C15.4125 12.9 14.5426 13.2603 13.9012 13.9017C13.2598 14.5431 12.8995 15.413 12.8995 16.32V24.68C12.8995 26.5705 14.429 28.1 16.3195 28.1H24.6795C25.5866 28.1 26.4564 27.7397 27.0978 27.0983C27.7392 26.4569 28.0995 25.587 28.0995 24.68V16.32C28.0995 14.4295 26.57 12.9 24.6795 12.9H16.3195ZM25.487 14.325C25.802 14.325 26.104 14.4501 26.3267 14.6728C26.5494 14.8955 26.6745 15.1976 26.6745 15.5125C26.6745 15.8274 26.5494 16.1295 26.3267 16.3522C26.104 16.5749 25.802 16.7 25.487 16.7C25.1721 16.7 24.87 16.5749 24.6473 16.3522C24.4246 16.1295 24.2995 15.8274 24.2995 15.5125C24.2995 15.1976 24.4246 14.8955 24.6473 14.6728C24.87 14.4501 25.1721 14.325 25.487 14.325ZM20.4995 15.75C21.7593 15.75 22.9675 16.2504 23.8583 17.1412C24.7491 18.032 25.2495 19.2402 25.2495 20.5C25.2495 21.7598 24.7491 22.968 23.8583 23.8588C22.9675 24.7496 21.7593 25.25 20.4995 25.25C19.2397 25.25 18.0316 24.7496 17.1408 23.8588C16.25 22.968 15.7495 21.7598 15.7495 20.5C15.7495 19.2402 16.25 18.032 17.1408 17.1412C18.0316 16.2504 19.2397 15.75 20.4995 15.75ZM20.4995 17.65C19.7436 17.65 19.0187 17.9503 18.4843 18.4847C17.9498 19.0192 17.6495 19.7441 17.6495 20.5C17.6495 21.2559 17.9498 21.9808 18.4843 22.5153C19.0187 23.0497 19.7436 23.35 20.4995 23.35C21.2554 23.35 21.9803 23.0497 22.5148 22.5153C23.0492 21.9808 23.3495 21.2559 23.3495 20.5C23.3495 19.7441 23.0492 19.0192 22.5148 18.4847C21.9803 17.9503 21.2554 17.65 20.4995 17.65Z" fill="#292929"/>
</svg>
