<?xml version="1.0" encoding="UTF-8"?>
<svg id="Layer_1" xmlns="http://www.w3.org/2000/svg" viewBox="0 0 70 70">
  <defs>
    <style>
      .cls-1 {
        fill: #fff;
      }

      .cls-2, .cls-3 {
        fill: #5138cc;
      }

      .cls-3 {
        font-family: Poppins-Bold, Poppins;
        font-size: 5.86px;
        font-weight: 700;
      }
    </style>
  </defs>
  <g id="Character">
    <path class="cls-2" d="M12.57-.12h45.43c7.03,0,12.72,5.63,12.72,12.56v44.87c0,6.94-5.7,12.56-12.72,12.56H12.57c-7.03,0-12.72-5.63-12.72-12.56V12.44C-.15,5.5,5.54-.12,12.57-.12Z"/>
  </g>
  <g>
    <g>
      <path class="cls-1" d="M23.46,11.62h3.08l.15.15c.02,1.62.03,3.25.05,4.87h6.56c.03-1.67.07-3.35.1-5.02,1.08.02,2.15.03,3.23.05.02,1.66.03,3.32.05,4.97h6.56c.02-1.62.03-3.25.05-4.87l.15-.15h3.08l.15.15v4.82c3.91.34,6.38,2.82,6.72,6.72h4.82l.15.15v3.08l-.15.15c-1.62.02-3.25.03-4.87.05v6.56c1.67.03,3.35.07,5.02.1-.02,1.08-.03,2.15-.05,3.23-1.66.02-3.32.03-4.97.05v6.56c1.62.02,3.25.03,4.87.05l.15.15v3.08l-.15.15h-4.82c-.34,3.91-2.83,6.38-6.72,6.72v4.82l-.15.15h-3.08l-.15-.15c-.02-1.62-.03-3.25-.05-4.87h-6.56c-.03,1.67-.07,3.35-.1,5.02-1.08-.02-2.15-.03-3.23-.05-.02-1.66-.03-3.32-.05-4.97h-6.56c-.02,1.62-.03,3.25-.05,4.87l-.15.15h-3.08l-.15-.15v-4.82c-3.88-.32-6.41-2.83-6.72-6.72h-4.82l-.15-.15v-3.08l.15-.15c1.62-.02,3.25-.03,4.87-.05v-6.56c-1.67-.03-3.35-.07-5.02-.1.02-1.08.03-2.15.05-3.23,1.66-.02,3.32-.03,4.97-.05v-6.56c-1.62-.02-3.25-.03-4.87-.05l-.15-.15v-3.08l.15-.15h4.82c.31-3.9,2.84-6.39,6.72-6.72v-4.82l.15-.15ZM27.87,23.31c-2.33.26-4.3,2.25-4.56,4.56v14.25c.26,2.32,2.23,4.3,4.56,4.56h14.25c2.35-.27,4.3-2.21,4.56-4.56v-14.25c-.27-2.35-2.21-4.3-4.56-4.56h-14.25Z"/>
      <path class="cls-1" d="M27.87,26.69c.7-.15,13.56-.15,14.25,0,.44.09,1.1.85,1.18,1.28v14.05c-.08.44-.74,1.19-1.18,1.28-.7.15-13.56.15-14.25,0-.36-.08-1.11-.84-1.18-1.18-.15-.7-.15-13.56,0-14.25.07-.34.82-1.1,1.18-1.18Z"/>
    </g>
    <text class="cls-3" transform="translate(28.04 36.67)"><tspan x="0" y="0">AMD</tspan></text>
  </g>
</svg>