<?xml version="1.0" encoding="UTF-8"?>
<svg id="Layer_1" xmlns="http://www.w3.org/2000/svg" viewBox="0 0 32 32">
  <defs>
    <style>
      .cls-1 {
        fill: #fff;
      }

      .cls-2 {
        fill: #6b46f2;
      }
    </style>
  </defs>
  <rect class="cls-1" width="32" height="32" rx="7.27" ry="7.27"/>
  <g>
    <path class="cls-2" d="M16.7,28.72h-1.39C4.25,27.85.38,13.92,9.49,7.53c2.52-5.67,10.5-5.67,13.02,0,9.11,6.38,5.23,20.32-5.81,21.19ZM15.43,4.07c-1.46.11-3.11.94-4.1,2.01-1.77,1.92-1.97,4.72-.94,7.06.72,1.63,4.3,5.59,5.64,7.28,1.4-1.96,4.98-5.62,5.74-7.63,1.79-4.73-1.67-9.07-6.34-8.72ZM9.07,8.84c-.18.14-1.36,1.23-1.29,1.34.41.16.81.31,1.22.47-.14-.6.04-1.21.07-1.81ZM22.93,8.84c.03.6.21,1.21.07,1.81.41-.16.81-.31,1.22-.47.07-.11-1.11-1.21-1.29-1.34ZM7.23,10.83c-1.24,1.69-1.96,3.78-2.01,5.89,1.81,0,3.63.02,5.44.02.24-1.9-.04-1.47-.57-2.46-.45-.84-.83-1.73-.99-2.68-.62-.26-1.24-.51-1.86-.77ZM24.67,10.83c-.59.26-1.18.51-1.76.77-.18,1.72-1.59,3.43-1.64,3.63.02.51.05,1.01.07,1.52,1.81,0,3.63-.02,5.44-.02-.04-1.19-.27-2.41-.7-3.53-.14-.36-1.11-2.38-1.42-2.36ZM11.5,16.2c-.22.78.42.57.42.47-.14-.16-.28-.31-.42-.47ZM20.5,16.2c-.85.77,0,.57.02.52,0-.17-.02-.35-.02-.52ZM5.24,17.54c-.02,2.04.78,4.23,1.99,5.86,1.27-.57,2.59-1,3.95-1.32-.32-1.5-.44-3.02-.52-4.55h-5.42ZM11.5,17.54c-.02,1.49.16,2.98.5,4.42,2.65-.44,5.37-.38,8.03-.02.29-1.45.5-2.92.47-4.4h-1.09c-.46.43-3.03,3.87-3.28,3.93h-.25c-.25-.05-2.82-3.5-3.28-3.93h-1.09ZM21.34,17.54c-.08,1.53-.2,3.05-.52,4.55,1.36.31,2.68.74,3.95,1.32,1.24-1.68,1.95-3.74,2.01-5.84-1.81,0-3.63-.02-5.44-.02ZM14.53,22.46c-.79.09-1.57.18-2.36.27,1.81,6.92,5.84,6.91,7.65,0-1.69-.24-3.58-.36-5.29-.27ZM11.2,22.91c-.31-.01-3.31.96-3.43,1.14,1.41,1.85,3.63,3.11,5.91,3.63-1.18-1.4-1.83-3.03-2.34-4.77h-.15ZM20.65,22.91c-.49,1.73-1.16,3.39-2.34,4.77,2.31-.51,4.43-1.79,5.94-3.6-1.14-.55-2.35-.96-3.6-1.17Z"/>
    <path class="cls-2" d="M16.49,3.32c3.91.23,7.25,3.89,6.88,7.84-.29,3.08-5.05,8.08-7.39,10.13-2.31-2.1-7.06-7.01-7.35-10.13-.37-3.96,2.97-7.62,6.88-7.84h.98ZM15.6,5.39c-3.38.25-5.63,4.09-3.88,7.28,1.63,2.97,5.84,3.39,8.04.81,2.8-3.29.26-8.42-4.16-8.09Z"/>
    <path class="cls-2" d="M16.82,7.46c.51-.02,1.47.01,1.93.18,1.98.7,1.6,4.22-1.75,3.76l-.05.05c0,.71-.01,1.42-.02,2.12h-1.3c0-1.98-.01-3.97-.02-5.95l1.21-.16ZM17.11,8.51l-.16.05v1.75c2.17.48,2.18-2.22.16-1.81Z"/>
    <path class="cls-2" d="M13.07,7.5h1.3l.05.05c0,2.01-.01,4.01-.02,6.02-.46,0-.92-.01-1.39-.02v-6l.05-.05Z"/>
  </g>
</svg>