<?xml version="1.0" encoding="UTF-8"?>
<svg id="Layer_1" xmlns="http://www.w3.org/2000/svg" viewBox="0 0 32 32">
  <defs>
    <style>
      .cls-1 {
        fill: #f2efff;
      }

      .cls-2 {
        fill: #fff;
      }

      .cls-3 {
        fill: #6b46f2;
      }
    </style>
  </defs>
  <rect class="cls-2" width="32" height="32" rx="7.27" ry="7.27"/>
  <g>
    <g>
      <path class="cls-3" d="M15.87,4.8c2.16-.16,4.08,1.27,4.62,3.34,6.31-.73,9.41,7.07,4.28,10.82-.17-1.2.44-2.53-.93-3.05h-15.68c-.4.07-.81.58-.91.96.1.88-.28,2.28.34,2.9-3.5-1.21-3.97-5.77-.88-7.82-.28-2.93,2.66-5.32,5.48-4.45.63-1.44,2.09-2.59,3.69-2.7ZM15.38,8.58c-1.13.12-2.86,1.2-2.97,1.6-.09.3.16.64.57.42.17-.1,1.25-1.58,3.59-1.33,1.44.16,2.5,1.41,2.65,1.43.26.02.74-.26-.15-1.03-.97-.84-2.43-1.21-3.69-1.08ZM15.73,10.79c-.82.07-2.22.99-1.52,1.38.45.25.93-1.06,2.41-.59.57.18,1.01.99,1.3.47.3-.53-1.09-1.35-2.19-1.25ZM15.87,13.06c-.28.07-.29.51-.05.64.56.31.76-.81.05-.64Z"/>
      <path class="cls-3" d="M15.38,8.58c1.26-.13,2.72.24,3.69,1.08.89.77.41,1.06.15,1.03-.15-.01-1.21-1.27-2.65-1.43-2.34-.26-3.41,1.23-3.59,1.33-.41.23-.65-.12-.57-.42.12-.4,1.85-1.48,2.97-1.6Z"/>
      <path class="cls-3" d="M15.73,10.79c1.1-.1,2.48.72,2.19,1.25-.29.53-.73-.29-1.3-.47-1.48-.47-1.96.84-2.41.59-.69-.38.71-1.3,1.52-1.38Z"/>
      <path class="cls-3" d="M15.87,13.06c.71-.17.51.95-.05.64-.24-.13-.23-.57.05-.64Z"/>
      <path class="cls-3" d="M8.35,16.35h15.29c.3.11.47.23.61.52-.17.86.49,2.65-.71,2.83-1.23.18-12.61-.14-15.14,0-.31-.08-.54-.26-.66-.57.14-.76-.42-2.59.61-2.78ZM8.99,16.99c-.06.06-.11.11-.17.17v1.72c.07.23.56.24.64-.05v-1.62c-.05-.18-.31-.27-.47-.22ZM10.07,16.99c-.33.1-.33,1.97,0,2.06.76.22.46-1.94.34-2.02-.11-.02-.23-.03-.34-.05ZM11.15,16.99c-.35.08-.32,1.97,0,2.06.73.21.53-1.98.25-2.06h-.25ZM12.24,16.99l-.22.22v1.62c.08.29.57.28.64.05v-1.72c-.04-.14-.28-.2-.42-.17ZM22.17,17.48c-.55.12-.49,1.18.25,1.08.64-.09.53-1.26-.25-1.08Z"/>
      <path class="cls-2" d="M8.99,16.99c.16-.05.42.04.47.22v1.62c-.08.29-.57.28-.64.05v-1.72c.06-.06.11-.11.17-.17Z"/>
      <path class="cls-2" d="M10.07,16.99c.11.02.23.03.34.05.11.08.41,2.23-.34,2.02-.33-.09-.33-1.97,0-2.06Z"/>
      <path class="cls-2" d="M11.15,16.99h.25c.28.08.49,2.27-.25,2.06-.32-.09-.35-1.98,0-2.06Z"/>
      <path class="cls-2" d="M12.24,16.99c.13-.03.38.04.42.17v1.72c-.07.23-.56.24-.64-.05v-1.62l.22-.22Z"/>
      <path class="cls-2" d="M22.17,17.48c.78-.17.89.99.25,1.08-.73.1-.79-.96-.25-1.08Z"/>
      <path class="cls-3" d="M8.3,20.14h15.34c.33.12.45.21.61.52-.12.66.35,2.59-.52,2.78-.76.16-13.38-.12-15.49,0-.26-.12-.39-.26-.52-.52.13-.71-.39-2.59.57-2.78ZM9.14,20.73c-.57,0-.43,1.93-.2,2.06.19.11.47,0,.52-.17v-1.62c-.11-.09-.21-.18-.32-.27ZM10.17,20.73c-.46.02-.36,1.7-.32,1.84.04.15.25.3.42.27.43-.07.34-1.94.1-2.06-.07-.02-.13-.03-.2-.05ZM11.25,20.73c-.11.09-.21.18-.32.27-.03.13-.08,1.66.17,1.79.78.43.57-1.89.34-2.02-.07-.02-.13-.03-.2-.05ZM12.33,20.73c-.11.07-.21.15-.32.22v1.67c.08.28.57.27.64.05v-1.72c-.11-.07-.21-.15-.32-.22ZM22.12,21.27c-.4.1-.47.87,0,1.03.9.32,1.02-1.28,0-1.03Z"/>
      <path class="cls-2" d="M9.14,20.73c.11.09.21.18.32.27v1.62c-.05.16-.33.28-.52.17-.24-.14-.37-2.07.2-2.06Z"/>
      <path class="cls-2" d="M10.17,20.73c.07.02.13.03.2.05.24.13.33,2-.1,2.06-.16.03-.38-.12-.42-.27-.04-.14-.14-1.82.32-1.84Z"/>
      <path class="cls-2" d="M11.25,20.73c.07.02.13.03.2.05.23.12.43,2.44-.34,2.02-.25-.14-.2-1.67-.17-1.79.11-.09.21-.18.32-.27Z"/>
      <path class="cls-2" d="M12.33,20.73c.11.07.21.15.32.22v1.72c-.07.22-.56.23-.64-.05v-1.67c.11-.07.21-.15.32-.22Z"/>
      <path class="cls-2" d="M22.12,21.27c1.02-.25.9,1.35,0,1.03-.47-.16-.4-.94,0-1.03Z"/>
      <path class="cls-3" d="M8.3,23.92h15.39c.2.04.52.31.57.52v2.26c-.05.22-.36.44-.57.52h-15.39c-.19-.04-.52-.32-.57-.52v-2.26c.04-.21.37-.48.57-.52ZM9.04,24.51c-.43.07-.33,1.93-.1,2.06.2.12.48-.06.52-.17v-1.67c-.02-.06-.24-.25-.42-.22ZM10.12,24.51c-.43.07-.34,1.93-.1,2.06.08.02.16.03.25.05.43-.07.34-1.93.1-2.06-.08-.02-.16-.03-.25-.05ZM11.2,24.51c-.43.07-.34,1.93-.1,2.06.76.41.58-1.88.34-2.02-.08-.02-.16-.03-.25-.05ZM12.29,24.51c-.09.07-.18.15-.27.22v1.67c.07.23.56.31.64,0v-1.72c-.03-.1-.27-.19-.37-.17ZM22.31,25c-.61,0-.7.96-.2,1.08.92.22.94-1.08.2-1.08Z"/>
      <path class="cls-2" d="M9.04,24.51c.18-.03.4.16.42.22v1.67c-.03.11-.32.29-.52.17-.23-.14-.33-2,.1-2.06Z"/>
      <path class="cls-2" d="M10.12,24.51c.08.02.16.03.25.05.24.13.33,2-.1,2.06-.08-.02-.16-.03-.25-.05-.24-.13-.33-2,.1-2.06Z"/>
      <path class="cls-2" d="M11.2,24.51c.08.02.16.03.25.05.24.14.42,2.43-.34,2.02-.24-.13-.33-2,.1-2.06Z"/>
      <path class="cls-2" d="M12.29,24.51c.1-.02.33.07.37.17v1.72c-.08.31-.57.23-.64,0v-1.67c.09-.07.18-.15.27-.22Z"/>
      <path class="cls-2" d="M22.31,25c.74,0,.72,1.3-.2,1.08-.5-.12-.41-1.08.2-1.08Z"/>
    </g>
    <g>
      <path class="cls-1" d="M11.64,10.82c-.05,0-.07.08-.13,0,0,0,0,0,0-.01,0-.02-.03-.03-.05-.02,0,0,0,0,0,0h-.12s0,0,0,0v-.03s0,0,0,0c-.01,0-.03,0-.04.01-.04.03-.09.03-.14.03-.01,0-.03-.01-.03-.02,0-.01,0-.02-.02-.01-.04.01-.07.03-.09.04-.01,0-.02.02-.03.03v-.08s0,0,0,0h.65s0,0,0,0c0,.02,0,.04,0,.06h0ZM13.54,10.88h-.02s0,0-.01,0l-.09.04s0,0,0,0v-.04s0,0,0-.01l.02-.03s0-.01,0,0h-.05s-.01,0-.01,0c-.02-.02-.04-.02-.07,0-.02,0-.02,0,0,0,0,0,0,0,.01,0,0,0,0,0,0,0-.03-.04-.14.04-.16-.02,0,0,0,0,0,0-.06,0-.1.04-.15.04-.05,0-.1,0-.14-.04,0-.01.01-.02.03-.02.26,0,.52,0,.79,0,0,0,0,0,0,0,0,0,0,0,0,0l-.1.12ZM14.73,10.82c-.06-.01-.07.08-.15.02,0,0-.01-.01-.01-.03,0,0,0,0,0,0-.02,0-.04,0-.06.01,0,0,0,0-.01,0-.03,0-.05,0-.08,0-.02,0-.03,0-.05,0,0,0,0,0,0,0,0,0,0,0,0,0,0,0,0,0,0,0,0-.03-.06,0-.07,0,0,0,0,0-.01,0-.04,0-.09,0-.13.01,0,0,0,0,0,0,0,0,0,0,0,0,0,0,0,0,0-.02,0,0,0,0,0,0-.03,0-.05,0-.07.02-.02.02-.05.01-.07.04l-.03-.09s0-.01,0-.01c0,0,0,0,0,0h.72s0,0,0,0l.02.06Z"/>
      <path class="cls-1" d="M16.99,10.76h-.03s0,0,0,0c0,.05-.09.06-.13.06,0,0,0,0-.01,0,0,0-.01,0-.02,0,0,0,0,0,0,0,0,0,0,0,0,0,0,0,0,0,0-.01,0-.05-.18.06-.18,0,0,0,0,0,0-.01-.02,0-.05,0-.08.01-.02.01-.06.01-.1,0,0,0,0,0,0,0-.03-.05-.14.02-.18.03,0-.02,0-.04.02-.05,0,0,0,0,.01,0h.72Z"/>
      <path class="cls-1" d="M18.32,10.87h0s0,0-.01,0c-.03.02-.1.06-.13.02,0,0,0,0,0-.01h0s0-.04-.02-.03c-.03,0-.05,0-.08,0,0,0,0,0-.01,0h-.02s0,0,0,0c0,0,0,0,0,0,0,0,0,0,0,0h0s0-.02-.01-.01c-.04.01-.08.02-.13.01,0,0,0,0-.01,0-.01,0-.03,0-.04,0-.01,0-.01,0,0-.01,0,0,0,0,0-.02,0,0,0,0,0,0-.05,0-.08.03-.12.05-.04.02-.08.04-.12.07,0,0,0,0,0,.01,0,0,0,.02,0,.02v-.17s0,0,0,0h.63s.01,0,.02,0l.05.11h0ZM20.75,10.75v.1l-.09.05s0,0-.01,0c-.03-.03.01-.08-.03-.08,0,0,0,0-.01,0-.03.01-.05.01-.08,0,0,0,0,0-.01,0h-.03s0,0,0,0h0s0-.02,0-.02c-.03-.02-.08.02-.11.02-.03,0-.07,0-.1,0,0,0,0,0,0,0h0s0-.02,0-.02c-.01,0-.02,0-.04,0-.02,0-.05.01-.08,0,0,0,0,0-.01,0-.02.01-.05.01-.07,0,0-.02,0-.03.02-.04,0,0,0,0,.01,0h.65Z"/>
      <path class="cls-1" d="M16.99,10.76l-.14.41s-.02-.01-.03,0c0,0,0,0,0,0l-.14.06h-.03s0-.05,0-.05c.03-.01.1-.04.1-.07,0,0,0,0,0,0h-.01s0-.02,0-.03c0,0,0,0,0-.01,0-.02.01-.03.03-.04l.04-.02s0,0,0,0v-.02s0,0,0,0l-.05.02s-.01-.04,0-.07l.05-.04s0,0,0-.01c0,0,0,0-.01,0l-.06.02s-.05,0-.07-.02c0,0,0,0,0-.01l.03-.02s0,0,0,0h0s0-.01,0-.01c-.03,0-.06.01-.08.03h-.04s-.05,0-.08,0c0,0,0,0,0,0,0,0,.01-.02.02-.02,0,0,0,0,0-.01h0s0-.02-.01-.02l-.08.03-.17.08s-.02,0-.03,0l.04-.12s.14-.08.18-.03c0,0,0,0,0,0,.04,0,.08,0,.1,0,.03-.01.06-.02.08-.01,0,0,0,0,0,.01,0,.07.18-.04.18,0,0,0,0,0,0,.01,0,0,0,0,0,0,0,0,0,0,0,0,0,0,.01,0,.02,0,0,0,0,0,.01,0,.03,0,.13,0,.13-.06,0,0,0,0,0,0h.03s0,0,0,0Z"/>
      <path class="cls-1" d="M11.64,10.82v.32s-.08.03-.08.03c0,0,0,0-.01,0-.01-.01-.02-.03-.01-.05.02,0,.03-.02.03-.04,0,0,0,0,0,0l-.06.02s0,0,0,0v-.05s0-.01,0-.02c0,0,0,0,0,0,0,0,0,0,0,0,0,0,0,0,0,0,0,0,0,0,0,0-.02-.01-.03-.03-.03-.05l.03-.02s0,0,0,0c0,0,0-.02-.01-.02,0,0,0,0-.01,0h-.03s-.06,0-.06-.02c0,0,0,0,0,0l.02-.02s0,0,0-.01c-.03-.02-.12.03-.15.05l-.3.14v-.06h0s0-.01,0,0c0,0,.15-.06.19-.08,0,0,0,0,0-.01h0s0-.02-.01-.02c0,0,0,0,0,0-.06.03-.12.06-.19.08v-.08s.01-.03.03-.03c.03-.01.06-.02.09-.04.01,0,.02,0,.02.01,0,0,.02.02.03.02.05,0,.1,0,.14-.03.01,0,.03-.01.04-.01,0,0,0,0,0,0v.03s0,0,0,0h.12s0,0,0-.01c.01-.01.05,0,.05.02,0,0,0,0,0,.01.06.07.08,0,.13,0h0ZM13.54,10.88l-.44.52s-.02-.01-.04,0c-.03.02-.06.03-.09.04,0,0,0,0-.01,0,0,0,0,0,0,0l.03-.05s0,0,0,0c0,0,.02,0,.02-.02,0,0,0,0,0,0,0,0,0,0,0,0,0,0,0,0,0,0,0,0,0,0,0,0,.02-.01.03-.02.03-.03,0,0,0-.01-.01,0l-.06.02s0,0,0,0c0,0,0-.02,0-.02,0,0,0,0,0-.01v-.03s.03-.01.03-.01c.06-.03.12-.06.18-.09.01,0,.03,0,.02-.03,0,0,0,0-.01,0,0,0,0,0,0,0l-.1.05s0,0,0,0c0-.02,0-.04,0-.06l.15-.07s.07-.03.1-.06c0,0,0,0,0-.01,0,0,0,0,0,0-.03,0-.07.02-.1.04,0,0,0,0,0,0,0,0,0,0,0,0l.02-.02s0,0,0-.01c0,0,0-.02,0-.03.04-.03.09-.05.13-.07.01,0,.02-.02.01-.03,0,0-.01,0-.02,0l-.14.07s-.02,0-.02,0c0,0,0,0-.01,0-.02,0-.03-.01-.04-.02h.03s0-.02,0-.03h0s0-.01-.01-.01l-.09.03h-.08s0-.01,0-.01h0s0,0,0,0l.03-.02s0,0,0-.01c-.03-.02-.17.06-.19.07-.03.02-.08.03-.11.06,0,0,0,0-.01,0,0,0-.02,0-.02,0l.14-.17s.09.04.14.04c.05,0,.09-.04.15-.04,0,0,0,0,0,0,.02.07.13-.01.16.02,0,0,0,0,0,0,0,0,0,0-.01,0-.02.01-.01.02,0,0,.03-.01.05,0,.07,0,0,0,0,0,.01,0h.05s.01,0,0,0l-.02.03s0,0,0,.01v.04s0,0,.01,0l.09-.04s0,0,.01,0h.02s0,0,0,0Z"/>
      <path class="cls-1" d="M18.32,10.87l.24.53s-.06,0-.09.02c0,0,0,0-.01,0h-.03s0,0,0-.02v-.02s0-.01,0-.01c0,0,.01-.01.02-.03,0,0,0-.01-.01-.02,0,0,0,0,0,0h-.04s0,.01,0,0c0-.01-.02-.03-.02-.04.02,0,.03-.01.03-.03,0,0,0,0,0,0-.01,0-.03,0-.04.01-.03,0-.04-.02-.03-.05h0s.04-.02.04-.04c0,0,0,0,0,0h-.06s-.01.01-.01,0l-.02-.04s.03-.02.04-.03c0,0,0,0,0,0-.03,0-.06.01-.08.03l-.03-.05.05-.03s0,0,0,0c0,0,0-.02-.01-.02-.02-.01-.03-.03-.03-.05l.03-.02s0,0,0,0h0s0-.02,0-.01l-.1.04s-.03-.02-.05-.04l.09-.04s0,0,0-.01c0,0,0,0,0,0-.01,0-.04,0-.05,0-.15.07-.29.13-.44.21l-.03.02s0,0,0,0v.05s0-.23,0-.23c0,0,0-.01,0-.02,0,0,0,0,0-.01.04-.03.08-.05.12-.07.04-.02.07-.05.12-.05,0,0,0,0,0,0,0,0,0,.01,0,.02,0,0,0,.01,0,.01.01,0,.03,0,.04,0,0,0,0,0,.01,0,.04,0,.08,0,.13-.01,0,0,0,0,.01,0h0s0,.02,0,.02c0,0,0,0,0,0,0,0,0,0,0,0h.02s0,0,.01,0c.03.01.05.02.08,0,.02,0,.03,0,.02.02h0s0,.02,0,.02c.02.05.09,0,.13-.02,0,0,0,0,.01,0h0s0,0,0,0ZM17.66,10.98v.02s.02,0,.02,0l.16-.08s.08-.05.08-.05c0,0,0,0,0,0h0s-.04,0-.09.02c0,0,0,0,0,0l-.16.08s0,0,0,0c0,0,0,0,0,0ZM14.73,10.82l.06.19s-.06.02-.09.03c0,0,0,0-.01,0-.02,0-.03-.02-.03-.04,0,0,0,0,0,0,.01,0,.02-.02.02-.03,0,0,0,0,0,0-.01,0-.02,0-.03.01,0,0,0,0-.01,0,0,0,0,0,0,0l-.02-.03s0,0,0-.01c0,0,0,0,0-.01,0,0,0,0,0-.01v-.02s0,0,0,0h-.05s0,.01,0,0c0,0-.02-.01-.03-.01,0,0,0,0-.01,0,0,0,0-.02,0-.03,0,0,0,0,0-.01-.04-.01-.09.02-.13.04h-.03s-.1,0-.1,0c0,0,0,0,0,0,0,0,0,0,0,0l.03-.02s0,0,0-.01c0-.01-.02,0-.03,0-.07.03-.14.07-.21.1,0,0-.01.01,0,.02,0,0,0,0,0,0,.02,0,.03.03.03.05,0,.01,0,.01-.01,0,0,0-.01,0-.01,0l-.06-.16s.05-.03.07-.04c.02-.02.05-.02.07-.02,0,0,0,0,0,0,0,0,0,.01,0,.02,0,0,0,0,0,0,0,0,0,0,0,0,.04-.01.09-.02.13-.01,0,0,0,0,.01,0,.01,0,.06-.03.07,0,0,0,0,0,0,0,0,0,0,0,0,0,0,0,0,0,0,0,.02,0,.03,0,.05,0,.03,0,.05,0,.08,0,0,0,0,0,.01,0,.02-.01.04-.01.06-.01,0,0,0,0,0,0,0,.01,0,.02.01.03.07.06.09-.03.15-.02h0ZM20.75,10.86v.32h0s0,0-.01,0c-.04.03-.1.05-.14.08h0s0,0,0,0l-.02-.04.03-.02s0,0,0,0c0-.01,0-.02,0-.02h.02s0-.01,0-.01c0-.02-.01-.03-.01-.05,0,0,.02-.01.03-.02,0,0,0,0,0,0v-.02s0,0,0,0h-.03s-.03-.02-.02-.04l.05-.03s.02,0,.03-.03c0,0,0,0,0-.01,0,0,0,0,0,0-.03.01-.05,0-.06-.03,0,0,0-.01.01-.02,0,0,0,0,0,0,0-.02-.05,0-.06,0h-.03s-.03.01-.04,0c0,0,0,0-.01,0,0,0-.04,0-.05,0,0,0,0,0,0,0l.02-.02s0,0,0-.01c-.01-.02-.11.03-.13.04h-.03s-.01,0-.01,0c0,0,0,0-.01,0-.02-.01-.03-.01-.05,0,0,0,0,0-.01,0,0-.01,0-.02,0-.02,0,0,0,0,0-.01-.03-.01-.05.01-.07.02-.03.01-.06.02-.09.03l.04-.09s.04.02.07,0c0,0,0,0,.01,0,.03,0,.05,0,.08,0,.01,0,.02,0,.04,0,0,0,0,0,0,0h0s0,.02,0,.02c.03,0,.07,0,.1,0,.04,0,.08-.03.11-.02,0,0,0,0,0,0h0s0,.02,0,.02h.03s0,0,.01,0c.03.01.05.01.08,0,0,0,0,0,.01,0,.04,0,0,.05.03.08,0,0,0,0,.01,0l.09-.05h0Z"/>
      <path class="cls-1" d="M13.07,10.87l-.46.22s0,0,0,.01c0,.01,0,.02.02.02,0,0,.01,0,.02,0,.17-.08.34-.17.51-.24,0,.01.02.02.04.02,0,0,0,0,.01,0,0,0,.01,0,.02,0-.14.06-.29.14-.43.2-.1.05-.21.1-.31.15,0,0-.02.01-.04.03h-.03s.28-.35.28-.35c0,0,.02,0,.02,0,0,0,0,0,.01,0,.04-.03.08-.05.11-.06.02,0,.16-.08.19-.07,0,0,0,0,0,.01l-.03.02s0,0,0,0h0s0,.01,0,.01h.08s0,0,0,0ZM16.56,10.87s-.1.05-.14.07c-.08.03-.14.07-.22.11-.01,0-.02.01-.01.03,0,0,0,0,0,0,0,0,0,0,0,0,.08-.03.18-.08.24-.11.05-.02.1-.05.15-.07.02,0,.02-.02,0-.04.02-.02.05-.03.08-.03,0,0,0,0,0,0h0s0,0,0,.01l-.03.02s0,0,0,.01c.02.02.05.03.07.02l-.56.27s0,0,0,.01h0s0,.02.01.02c.12-.05.26-.12.36-.17.07-.03.14-.07.21-.1,0,.02,0,.04,0,.07-.05.03-.11.05-.16.07-.13.07-.26.13-.39.19-.02,0-.05.03-.09.05h-.02s.12-.37.12-.37c.01,0,.02,0,.03,0,0,.01,0,.02,0,.02,0,0,0,0,.01,0l.17-.08s0,0,0-.01c0-.01,0-.02-.02-.01l.08-.03s0,0,.01,0h0s0,.02,0,.02c-.01,0-.02.01-.02.02,0,0,0,0,0,0,.03,0,.05,0,.08,0h0ZM14.37,10.87l-.29.14s0,0,0,.01h0s0,.02,0,.02c.12-.05.23-.1.32-.16,0,0,0,0,0-.02,0,0,0,0,0,0h-.02s.09-.05.13-.04c0,0,0,0,0,.01,0,0-.01.02,0,.03,0,0,0,0,.01,0,.01,0,.02,0,.03.01,0,0,0,0,0,0h.05s0-.01,0,0v.02s0,0,0,.01c0,0,0,0,0,.01,0,0,0,0,0,.01l.02.03s0,0,.01,0c0,0,0,0,0,0,0-.01.02-.01.03-.01,0,0,0,0,0,0,0,.01-.01.03-.02.03,0,0,0,0,0,0,0,.02,0,.03.03.04,0,0,0,0,.01,0,.03-.02.06-.03.09-.03l.06.18s-.09.03-.12.03c0,0,0,0,0,0v-.02s-.01,0-.01-.01c.01-.01.04-.03.04-.05,0,0,0,0,0,0-.01,0-.02,0-.03,0,0,0,0,0-.01,0-.03,0-.04-.02-.04-.05,0,0,0,0,0-.01,0,0,0-.01,0,0h-.01s-.03-.03-.03-.05c.01,0,.02-.01.01-.03,0,0,0,0,0,0h-.01s-.05-.03-.03-.06c0,0,0-.01,0-.02,0,0,0,0-.01,0-.09.04-.15.07-.26.12-.06.03-.13.06-.19.08l-.03-.09s0,0,.01,0c0,0,.01,0,.01,0,0-.03,0-.04-.03-.05,0,0-.01-.01,0-.02,0,0,0,0,0,0,.08-.04.15-.07.21-.1.01,0,.03,0,.03,0,0,0,0,0,0,.01l-.03.02s0,0,0,0c0,0,0,0,0,0h.1s0,0,0,0ZM20.51,10.87s-.1.05-.15.07c-.03.01-.05.03-.07.04-.11.05-.21.1-.31.15,0,0-.01.01-.03.02,0,0,0,0,0,.01h0s0,.01.01.01l.6-.29s0,0,0,0h0s0-.01,0-.01h-.01s.06-.02.06,0c0,0,0,0,0,0,0,0-.01,0-.01.02,0,.03.03.05.06.03,0,0,0,0,.01,0,0,0,0,0,0,0,0,.02-.02.03-.03.03v-.02s0,0,0,0c0,0,0,0,0,0-.11.04-.23.11-.32.15-.14.06-.28.13-.41.2h-.03s.18-.39.18-.39c.03-.01.06-.02.09-.03.02,0,.04-.03.07-.02,0,0,0,0,0,.01,0,0-.01.01,0,.02,0,0,0,0,.01,0,.02-.01.03-.01.05,0,0,0,0,0,.01,0h.01c-.06.03-.13.07-.2.1-.02,0-.09.03-.08.06,0,0,0,0,0,0,.1-.04.2-.09.3-.14,0,0,.02-.01.02-.02,0,0,0,0,0,0h-.02s.12-.07.13-.04c0,0,0,0,0,.01l-.02.02s0,0,0,0c0,.01.04,0,.05,0,0,0,0,0,.01,0,.01,0,.02.01.04,0h0Z"/>
      <path class="cls-1" d="M11.45,10.91c-.15.07-.29.14-.44.21-.02,0-.02.02-.02.04,0,0,0,0,0,0,.01,0,.02,0,.03-.02,0,0,0,0,.01,0,.11-.05.23-.1.34-.16.02,0,.04-.02.08-.03,0,.02,0,.04.03.05,0,0,0,0,0,0,0,0,0,0,0,0-.05.02-.11.05-.15.07-.12.05-.24.11-.35.17v-.22.02s0,0,.01,0c.08-.04.17-.08.25-.11.02,0,.06-.02.05-.05,0,0,0,0,0,0h-.01s.12-.07.15-.05c0,0,0,0,0,.01l-.02.02s0,0,0,0c0,.02.04.03.06.03Z"/>
      <path class="cls-1" d="M13.14,10.88c-.17.07-.34.16-.51.24,0,0-.01,0-.02,0-.01,0-.02,0-.02-.02,0,0,0,0,0-.01l.46-.22.09-.03s0,0,.01,0h0s0,.02,0,.02h-.03s0,.01,0,.01Z"/>
      <path class="cls-1" d="M13.21,10.95l-.78.36s0,0-.01,0c0,0,0,0,0-.01.02-.02.03-.03.04-.03.1-.05.2-.1.31-.15.14-.06.28-.14.43-.2l.14-.07s.01,0,.02,0c.01.01,0,.02-.01.03-.05.02-.09.04-.13.07Z"/>
      <path class="cls-1" d="M16.41,10.85s.02,0,.02.01c0,0,0,.01,0,.01l-.17.08s0,0-.01,0c0,0,0-.01,0-.02l.17-.08ZM10.97,10.97v-.04c.07-.02.13-.04.19-.08,0,0,.01,0,.01,0,0,0,0,0,0,0h0s0,.02,0,.02c-.04.02-.19.09-.19.08,0,0,0,0,0,0h0s0,0,0,0ZM14.4,10.86h.02s0,0,0,0c0,0,0,.01,0,.02-.09.05-.2.11-.32.16,0,0,0,0,0,0h0s0-.02,0-.03l.29-.14h.03s0-.01,0-.01ZM16.6,10.86s0,.03,0,.04c-.05.02-.1.05-.15.07-.06.03-.16.08-.24.11,0,0,0,0-.01,0,0,0,0,0,0,0,0-.01,0-.02.01-.03.07-.04.14-.08.22-.11.05-.02.1-.04.14-.07h.04s0-.01,0-.01ZM20.54,10.86h.01s0,0,0,0h0s0,.01,0,.02l-.6.29s-.01,0-.01,0h0s0-.01,0-.02c.01-.01.02-.02.03-.02.1-.05.21-.1.31-.15.02-.01.05-.03.07-.04.05-.02.1-.04.15-.07h.03s0-.01,0-.01ZM17.66,10.98s0,0,0,0c0,0,0,0,0,0l.16-.08s.09-.04.09-.03c0,0,0,0,0,0h0s-.03.04-.08.06h0s-.16.08-.16.08c0,0,0,0,0,0v-.02s0,0,0,0ZM18.06,10.93c-.13.06-.25.12-.38.18,0,0-.01,0-.02,0,0,0,0,0,0-.02.14-.07.29-.14.44-.21.01,0,.04,0,.05,0,0,0,0,0,0,0,0,0,0,0,0,0l-.09.04ZM20.3,10.87h.02s0,0,0,0c0,0-.01.01-.02.02-.1.05-.2.1-.3.14,0,0,0,0,0,0-.02-.04.06-.05.08-.06.07-.03.13-.06.2-.1h.03s0,0,0,0Z"/>
      <path class="cls-1" d="M16.74,10.93c-.07.03-.14.07-.21.1-.09.04-.23.12-.36.17,0,0,0,0-.01,0h0s0-.02,0-.02l.56-.27.06-.02s.01,0,.01,0c0,0,0,0,0,.01l-.05.04Z"/>
      <path class="cls-1" d="M10.97,11.04h0s.3-.14.3-.14h.01s0,0,0,0c0,.03-.03.04-.05.05-.08.04-.16.08-.25.11,0,0,0,0,0,0v-.02s0,0,0,0Z"/>
      <path class="cls-1" d="M11.46,10.95s-.06.03-.08.03c-.11.06-.22.11-.34.16,0,0,0,0-.01,0,0,0-.02.02-.03.02,0,0,0,0,0,0,0-.02,0-.03.02-.04.15-.07.29-.14.44-.21h.03s0-.01.01-.01c0,0,.01,0,.01.02,0,0,0,0,0,0l-.03.02h0Z"/>
      <path class="cls-1" d="M14.59,10.98c-.06.03-.12.05-.17.08-.09.05-.17.09-.26.13,0,0,0,0,0,.01h0s0,.02,0,.02c.08-.04.16-.07.23-.11.07-.04.14-.07.21-.1,0,.02.01.04.03.05l-.45.22s0,0,0,.01h0s0,.02.01.02c.16-.06.31-.14.47-.22,0,.03,0,.05.04.05,0,0,0,0,.01,0,0,0,.02,0,.03,0,0,0,0,0,0,0,0,.02-.02.03-.04.05,0,0,0,0,0,.01v.02s.02,0,.02,0c.04,0,.09-.04.12-.03-.01.04-.05.04-.08.06,0,0,0,0,0,0,0,.02,0,.03.02.04,0,0,0,0,.01,0,.02,0,.08-.05.09-.02h0s-.09.06-.09.06c0,0,0,0,0,0,0,.02.01.03.03.04.03,0,.06-.03.09-.02,0,0,0,.01,0,.02-.03.01-.07.02-.1.04,0,0,0,0,0,0,0,.02.01.03.03.04,0,0,0,0,.01,0,.02-.02.05-.03.08-.03v.02s-.06.04-.07.05c0,0,0,0,0,.01l.02.03s0,0,.01,0c.02-.02.05-.03.08-.04v.03s-.05.02-.07.04c-.03.02-.03.04,0,.06,0,0,0,0,.01,0,.03-.02.06-.03.09-.03v.02s-.1.05-.1.05c0,0,0,0,0,0,0,.03.02.04.05.03.03,0,.06-.02.08-.03v.03s-.08.05-.08.05c0,0,0,0,0,0,0,.02,0,.03.03.04,0,0,0,0,.01,0,.02-.02.05-.03.08-.02v.02s-.08.04-.08.04c0,0,0,0,0,0v.03s0,0,0,0c.02.01.08-.02.11-.03v.03s-.11.05-.08.09c0,.01.02.02.03.01.02,0,.08-.05.08-.01,0,0,0,.01,0,.02l-.08.04h-.02s0,0,0,0c0,0,0-.01-.01,0-.15.06-.3.14-.45.21-.02,0-.02.02,0,.04h-.01s-.43-1.19-.43-1.19c.07-.02.13-.05.19-.08.1-.06.17-.09.26-.12,0,0,.01,0,.02,0,0,0,0,0,0,.01-.01.03,0,.05.03.06h0ZM14.67,11.16s0,0-.01,0l-.45.22s0,0,0,.01h0s0,.02.01.02l.45-.22s0,0,0-.01h0ZM14.24,11.47v.02s.02,0,.02,0c0,0,0,0,0,0l.38-.18s.05-.03.05-.03c0,0,0,0,0,0v-.02s-.03,0-.06.02l-.38.18s0,0,0,0ZM14.3,11.57c.05-.02.1-.05.15-.08.11-.05.21-.09.28-.14,0,0,0,0,0-.01h0s0-.01-.01-.02c0,0,0,0,0,0-.14.07-.29.13-.42.21,0,0,0,0,0,0v.02s0,0,0,0ZM14.74,11.45h0s0-.02,0-.01c0,0,0,0,0,0-.15.06-.29.13-.42.2-.01,0-.01.01,0,.03,0,0,0,0,0,0l.43-.2s0,0,0,0c0,0,0,0,0,0,0,0,0,0,0,0h0ZM14.33,11.73v.02s.01,0,.02,0l.37-.18s.09-.05.08-.05h0s-.05,0-.1.02l-.37.18s0,0,0,0ZM14.38,11.84s0,0,0,0c.15-.06.29-.13.43-.2,0,0,0,0,0,0h0s0-.02-.01-.02c0,0,0,0,0,0l-.44.21s0,0,0,.01c0,0,0,0,0,0h.01s0,0,0,0ZM14.42,11.93c.14-.06.28-.13.41-.2.01,0,.02-.02.02-.03,0,0,0,0,0,0,0,0,0,0,0,0-.11.04-.23.11-.31.14-.05.02-.1.05-.15.07,0,0,0,0,0,.01h0s0,.02,0,.02c0,0,0,0,0,0,0,0,0,0,0,0h0ZM14.91,11.8s.02-.02,0-.03c0,0,0,0-.01,0l-.46.22s0,0,0,.01c0,0,0,0,0,0,0,.01.02.01.03,0,.15-.06.3-.13.44-.21h0ZM14.91,11.88s0,0-.01,0l-.44.21s0,0,0,.01v.02s.01,0,.02,0l.44-.21s0,0,0-.01v-.02ZM14.49,12.19h0s0,.01.01.01c.12-.07.25-.12.37-.17.01,0,.09-.04.09-.06,0,0-.01-.01-.02,0,0,0,0,0,0,0-.13.06-.26.13-.39.18-.02,0-.04.02-.06.04,0,0,0,0,0,.01h0Z"/>
      <path class="cls-1" d="M18.06,10.93s.03.03.05.04l-.45.21s0,0,0,.01c0,0,0,0,0,0,0,0,.02.01.03,0,.16-.07.33-.16.49-.23,0,.02.01.04.03.05-.18.07-.34.16-.54.25,0,0-.02.01-.02.02-.01,0-.04.03-.02.04,0,0,0,0,0,0,0,.02.01.06-.02.06v-.3s0,0,0,0l.03-.02s0,.01,0,.02c0,0,.01.01.02,0,.13-.06.25-.12.38-.18h0Z"/>
      <path class="cls-1" d="M20.62,10.96l-.05.03c-.14.07-.29.14-.43.21-.05.03-.15.08-.23.11,0,0,0,0-.01,0,0,0,0-.01,0-.02.14-.07.27-.14.41-.2.09-.04.21-.1.32-.15,0,0,0,0,0,0,0,0,0,0,0,0v.02h0ZM18.18,10.98c-.17.07-.33.16-.49.23-.01,0-.02,0-.03,0,0,0,0,0,0-.01,0,0,0,0,0,0l.45-.21.1-.04s0,0,0,0h0s0,.02,0,.02l-.03.02Z"/>
      <path class="cls-1" d="M13.21,10.95s0,.02,0,.03c0,0,0,0,0,.01l-.02.02s0,0,0,0c0,0,0,0,0,0,.03-.02.06-.03.1-.04,0,0,0,0,0,0,0,0,0,0,0,0-.03.02-.06.04-.1.06,0-.01,0-.02,0-.03,0,0,0,0-.01,0-.06.03-.14.07-.25.12-.09.05-.27.13-.53.25-.03.01-.15.06-.15.1,0,0,0,.01.01,0,.03-.02.07-.04.11-.06.12-.05.26-.12.36-.17.1-.05.21-.1.31-.15,0,.02,0,.04,0,.06,0,0,0,0,0,0l.1-.05s.01,0,.02,0c0,0,0,0,0,0,0,.02-.01.02-.02.03-.06.03-.12.06-.18.09,0,0,0-.02,0-.03,0,0,0,0,0,0-.1.05-.18.08-.29.14-.13.06-.27.12-.44.21-.02.01-.06.02-.09.04,0,0,0,0,0,0h0s0,.02,0,.02c0,0,0,0,0,0,.11-.04.22-.1.31-.14.16-.08.33-.16.49-.23v.03s0,0,0,.01c0,0,0,.01,0,.02,0,0,0,0,0,0l.06-.02s.01,0,.01,0c0,.01-.01.02-.03.03,0,0,0,0,0,0,0,0,0,0,0,0,0,0,0,0,0,0,0,0,0,0,0,0,0,0-.01.02-.02.02,0,0,0,0,0,0l-.03.05s0,0,0,.01c0,0,0,0,0,0,.03-.01.07-.03.09-.04.01,0,.03,0,.04,0l-.04.05h-.02s0,0-.01,0c-.06.03-.12.06-.18.1,0,0,0,0,0,0l-.02.04s0,.03.02.02c.02,0,.11-.06.12-.04-.01.02-.03.04-.05.06-.08.02-.16.05-.23.09.01-.01.04-.02.03-.04,0,0,0,0-.01,0l-.86.41s.03-.05.03-.08c.03-.02.05-.04.08-.05.15-.07.34-.16.51-.24.11-.05.23-.12.35-.17,0,0,0,0,.01,0,0-.01,0-.02,0-.02,0,0,0,0-.01,0-.13.05-.28.14-.39.18-.15.07-.31.14-.46.22-.03.01-.06.03-.11.04l.56-.69h.03s0,.01,0,.02c0,0,0,0,.01,0l.78-.36ZM12.06,11.78s0,0-.01,0c0,0,0,0,0,0,0,0,0,.01,0,.01,0,0,0,0,.01,0,.15-.08.3-.14.45-.22.1-.05.21-.1.31-.15.04-.02.08-.04.11-.06,0,0,0,0,0,0,0,0,.01-.02.01-.03,0,0,0,0,0,0-.17.09-.34.16-.51.25-.09.05-.19.08-.28.13-.03.02-.06.04-.09.05Z"/>
      <path class="cls-1" d="M16.75,11.03l-.63.3s-.01,0-.01,0c0,0,0-.01,0-.02.04-.02.07-.04.09-.05.13-.06.26-.12.39-.19.05-.02.11-.04.16-.07l.05-.02s0,0,0,0v.02s0,0,0,0l-.04.02ZM14.59,10.98h.01s0,0,0,0c0,.01,0,.02-.01.03-.07.03-.14.06-.21.1-.08.04-.16.07-.23.11,0,0,0,0,0,0h0s0-.02,0-.03c.09-.04.18-.08.26-.13.05-.03.11-.05.17-.08Z"/>
      <path class="cls-1" d="M20.57,10.99s0,.04.02.06c-.25.12-.51.24-.76.36-.01,0-.02.02,0,.03,0,0,0,0,.01,0,.14-.06.3-.14.4-.19.12-.06.24-.11.36-.17,0,.02,0,.04.01.05,0,0,0,0,0,0h-.02c-.13.07-.26.13-.4.2-.1.05-.28.13-.42.2,0,0,0,0,0,.01v.02s0,0,0,0c0,0,0,0,0,0,.14-.07.28-.14.42-.2.01,0,.02-.02.03-.02.11-.05.22-.1.33-.15l.02.04s0,0,0,0h0s-.01,0-.01,0c-.23.1-.4.19-.61.28-.02,0-.05.03-.07.04-.06.03-.13.06-.19.09,0,0,0,0,0,.01h0s0,.02.02.02c.1-.04.17-.08.28-.13.09-.04.18-.09.26-.13.11-.05.21-.1.32-.15l.07-.04s-.01.04-.01.06c0,0,0,0,0,0l.1-.05v.05h-.03s0,0-.01,0l-.07.05s0,0,0,0v.03s0,.02.01.02c0,0,0,0,0,0l.08-.03s0,0,.01,0h.01v.03s-.06.03-.09.04c-.03.02-.04.04-.03.07,0,0,0,0,0,0l.11-.04v.03s-.1.03-.12.08c0,0,0,.02.01.02,0,0,0,0,0,0,.03,0,.07-.04.1-.03v.03h0s0,0,0,0c-.04,0-.07.02-.09.04-.02.02-.01.03,0,.05,0,0,0,0,.01,0l.1-.04v.05s-.08.02-.1.05c0,0,0,0,0,.01v.04s0,0,0,0c0,0,0,0,0,0l.1-.06v.05c-.06.02-.13.04-.12.11,0,0,0,0,0,0l.11-.05v.02s0,0,0,.01c0,0,0,0,0,0-.03.01-.16.06-.14.11,0,0,0,0,.01,0,.04,0,.08-.02.11-.04,0,0,.02,0,.02,0,0,0,0,0,0,0,.01.04-.07.05-.09.07-.01,0-.02.02-.04.02,0,0,0,0,0,.01v.03s.01.02.02.01c.04-.01.07-.03.1-.05,0,0,0,0,0,0,0,0,0,0,0,0v.05h-.02s0-.01-.01,0l-.1.05s.01-.02,0-.03c0,0,0,0-.01,0l-.45.21s0-.04-.01-.06c.14-.08.29-.13.43-.21,0,0,0,0,0,0h0s0-.02,0-.02c-.04,0-.08.04-.11.05-.11.05-.21.09-.31.15-.01-.01-.02-.03-.02-.04,0,0,0,0,0,0-.02,0-.03.02-.04,0v-.1s0-.01.02-.01c.07-.02.13-.05.19-.08.11-.05.21-.1.32-.15.02,0,.02-.02.02-.04,0,0,0,0-.01,0,0,0,0,0,0,0l-.54.25-.17.08c-.17.06-.32.15-.49.23,0-.02,0-.04,0-.06l1.17-.56s0,0,0-.01v-.02s0,0,0,0c-.24.11-.44.21-.65.31-.11.06-.22.1-.36.17.02-.02.02-.04,0-.06.09-.05.18-.09.27-.13.24-.12.48-.23.72-.34.02,0,.03-.02.04-.04,0-.01,0-.01-.01,0-.15.07-.29.14-.43.21-.09.04-.21.1-.32.15-.04.02-.12.06-.25.11-.02,0-.04.02-.06.03l.02-.06s0,0,0,0c0,0,0,0-.01,0,.21-.1.41-.19.62-.29.12-.06.3-.14.44-.21,0,0,0,0,0,0h0s0-.02-.01-.02l-.95.45s0-.04,0-.06c.04-.02.08-.04.12-.06.01,0,.03-.02.04-.03.26-.12.52-.24.78-.37.02,0,.03-.01.03-.03,0,0,0,0-.01,0,0,0,0,0,0,0l-.94.45s0-.04,0-.06c.13-.07.3-.15.39-.19.18-.09.37-.18.55-.27.01,0,.02-.02.02-.03,0,0,0,0,0,0-.12.05-.26.12-.34.16-.19.09-.38.18-.56.27-.02.01-.04.03-.07.04l.24-.54h.03s0,0,0,0c0,0,0,0,.01,0,.08-.03.18-.08.23-.11.14-.07.29-.14.43-.21h0ZM20.14,12.23l.44-.21s0,0,0,0c0,0,0,0,0,0h0s-.01-.02-.02-.02l-.43.2s0,.01,0,.02c0,0,0,0,0,0h0s0,.01,0,.01h0Z"/>
      <path class="cls-1" d="M11.47,11.01s0,0,0,0c0,0,0,0,0,0,0,0,0,.02,0,.02l-.5.24v-.03c.11-.06.23-.12.35-.17.04-.02.1-.05.15-.07ZM13.21,11.05l-.15.07c-.1.05-.21.1-.31.15-.1.04-.24.12-.36.17-.04.02-.07.04-.11.06,0,0-.01,0-.01,0,0-.04.12-.08.15-.1.26-.12.44-.2.53-.25.1-.05.18-.09.25-.12,0,0,0,0,.01,0,0,0,0,.02,0,.03h0Z"/>
      <path class="cls-1" d="M16.75,11.03s-.02.02-.03.04c0,0,0,0,0,.01-.01,0-.01.02,0,.03l-.62.3s0,0,0,0c0,0,0,0,0,.01,0,0,0,0,0,0,0,.02.26-.11.27-.11.1-.04.2-.09.29-.14v.06s-.03.02-.05.03c-.22.1-.4.18-.53.25-.01,0-.02.02,0,.03,0,0,0,0,0,0,.13-.05.28-.13.39-.18.06-.03.12-.06.18-.08,0,.01,0,.02-.01.04,0,0,0,0,0,0,0,0,0,.02.01.02l-.65.31.12-.38h.02s0,.02,0,.03c0,0,0,0,.01,0l.63-.3h0Z"/>
      <path class="cls-1" d="M18.22,11.03s.01.01.01.02c0,0,0,0,0,0l-.05.03c-.15.07-.3.15-.46.21-.02,0-.03.02-.05.02,0,0,0,0,0,0v-.02s.01-.01.02-.02c.2-.09.36-.18.54-.25ZM20.59,11.08c-.12.06-.24.11-.36.17-.1.05-.26.13-.4.19,0,0-.01,0-.01,0-.01,0,0-.02,0-.03.25-.12.51-.24.76-.36h.03s0-.01,0,0v.02s0,0,0,0c-.01,0-.02,0-.03.02h0Z"/>
      <path class="cls-1" d="M11.48,11.04v.05s.01,0,.02,0l.06-.02s0,0,0,0c0,.02,0,.03-.03.04-.02,0-.04.01-.05.02,0,0,0-.02,0-.03,0,0,0,0,0,0-.13.06-.25.11-.38.18-.04.02-.08.04-.12.06v-.07s.5-.24.5-.24h0Z"/>
      <path class="cls-1" d="M14.63,11.06h.01s.01,0,0,0c0,0,0,0,0,.01-.15.08-.31.16-.47.22,0,0,0,0-.01,0h0s0-.02,0-.02l.45-.22Z"/>
      <path class="cls-1" d="M18.17,11.08l.03.05c-.18.09-.38.17-.55.27,0,0,0,0,0,.01h0s0,.01.01,0c.07-.02.13-.06.19-.09.14-.06.27-.13.41-.19l.02.04s0,0,.01,0h.06s0-.01,0,0c0,.02-.01.03-.04.03,0,0,0-.02,0-.02,0,0,0,0-.01,0-.09.03-.18.08-.24.11-.14.06-.28.13-.4.2,0,0-.01.01,0,.02,0,0,0,0,0,0,.09-.03.2-.09.27-.12.13-.06.26-.12.39-.18,0,.03,0,.04.03.05l-.69.33s0,0,0,.01c0,0,0,0,0,0,.02,0,.03,0,.05,0,.13-.05.23-.12.38-.18.09-.04.19-.09.28-.14,0,.02,0,.03.02.04,0,0,0,0,0,0h.04s.01,0,.02,0c0,0,0,0,0,0,0,.01,0,.02-.02.03,0,0,0,0,0,.01v.02s0,0,.01,0h.03s0,0,.01,0c.03-.02.06-.03.09-.02,0,0,0,0,0,0l-.1.06s0,0,0,.01c0,.03.03.04.06.03.02-.01.05-.02.07-.03l.02.03-.11.04s-.02-.02-.04-.02c-.11.05-.22.1-.33.16-.13.07-.31.14-.46.23,0,0,0,0,0,.01h0s0,.01.01.01l.81-.39s0,.04.02.05c0,0,0,0,.01,0l.08-.04s0,0,.01,0h.02s0,.01,0,.01c-.02.02-.05.03-.08.04,0,0,0,0,0,.01v.03s.02.02.03.02c0,0,0,0,0,0l.08-.03h0s-.08.07-.1.09c0,0,0,0,0,.01,0,.01.01.03.02.03,0,0,0,0,.01,0l.08-.04s0,0,.01,0c.02.03-.04.05-.05.07,0,0,0,0,0,.01l.02.03s0,0,.01,0l.08-.04v.03s-.04.04-.07.05c0,0,0,0,0,.01v.04s.02,0,.02,0l.07-.03s0,0,.01,0h.02s0,0,0,.01c-.03.02-.06.04-.1.06,0,0-.01.01,0,.02.02.04.07.02.1,0,0,0,0,0,.01,0h.02s0,.01,0,.01c0,0,0,0,0,0,0,0,0,0,0,0-.04.02-.08.04-.12.05,0,0,0,0,0-.02,0,0,0,0,0,0-.06,0-.21.09-.35.16,0-.03-.01-.04-.04-.05.11-.05.22-.1.32-.16.02,0,.02-.02,0-.03,0,0,0,0,0,0-.11.04-.2.1-.3.15,0-.02-.01-.03-.02-.04,0,0,0,0,0,0h-.01s.36-.17.36-.17c0,0,0,0,0,0h0s0-.02-.01-.02l-.92.43v-.06c.28-.14.57-.28.86-.42.01,0,.02-.02.01-.03,0,0,0,0,0,0,0,0,0,0,0,0-.11.05-.2.09-.32.15-.09.05-.19.09-.28.13-.1.05-.19.1-.29.14,0-.02,0-.04-.02-.06.12-.05.27-.12.35-.16.17-.08.34-.16.51-.24.01,0,.02-.01.01-.03,0,0,0,0,0,0-.07.02-.14.06-.2.09-.09.04-.21.1-.32.15-.11.05-.22.11-.33.16,0-.02,0-.04-.02-.05l.85-.41s0,0,0,0h0s0-.02-.01-.02l-.82.39-.02-.05s0,0,0,0h-.03s0,0,0,0h0v-.55s.03-.04.02-.06c0,0,0,0,0,0-.02,0,0-.04.02-.04v.02s0,0,0,0c.02,0,.03-.02.05-.02.16-.07.3-.14.46-.21h0ZM18.38,11.36l-.73.35s0,0,0,0c0,.02.01.02.03.01.16-.07.3-.14.48-.22.08-.04.16-.08.24-.12,0,0,0,0,0-.01h0s0-.02-.01-.02ZM17.68,11.81v.02s.02,0,.02,0l.43-.2c.18-.08.32-.15.31-.16h0s0-.02,0-.02c0,0-.15.06-.32.14,0,0,0,0,0,0l-.43.2s0,0,0,0c0,0,0,0,0,0Z"/>
      <path class="cls-1" d="M11.48,11.14l-.5.24s0,0,0,0h0s0-.02,0-.02c.04-.02.08-.04.12-.06.12-.07.25-.12.38-.18,0,0,0,0,0,0,0,0,0,.02,0,.03ZM16.64,11.19c-.1.05-.19.09-.29.14-.01,0-.26.14-.27.11,0,0,0,0,0,0,0,0,0,0,0-.01,0,0,0,0,0,0l.62-.3h.01s0,0,0,0c0,.03-.07.06-.1.07h0ZM18.25,11.15c-.14.06-.27.13-.41.19-.05.02-.12.06-.19.09,0,0,0,0-.01,0h0s0-.01,0-.02c.18-.1.37-.18.55-.27.03-.01.05-.02.08-.03,0,0,0,0,0,0,0,.02-.02.03-.04.03h0Z"/>
      <path class="cls-1" d="M11.54,11.12s0,.03.01.05c0,0,0,0,.01,0l.08-.03v.04s-.08.02-.11.05c0,0,0,0,0,.01v.03s0,0,.01,0c.04,0,.06-.04.1-.04v.32s-.09.03-.15.06c0,0,0,0,0,0,0,0,0,0,0,0v-.02s0,0,0-.01c0,0,0-.02,0-.03l.02-.02s.04,0,.05-.03c0,0,0-.01,0-.01,0,0,0,0,0,0h-.04s0,0,0,0v-.05s0-.02-.01-.02c0,0,0,0,0,0h0s0-.06,0-.06l.04-.02s0,0,0-.01h0s0-.02,0-.02h-.03s0,0-.01,0c0,0,0,0,0,0v-.05s.05-.03.05-.03c0,0,0,0,0-.01h0s0-.02-.01-.01c-.18.08-.34.16-.5.23,0,0,0,0,0,0,0,0,0,0-.01,0h0v-.09h0s0,.01,0,0l.5-.24s.03-.02.05-.02h0ZM16.85,11.16v.04c-.06.01-.1.03-.14.06,0,0-.02,0-.03,0,0,0,.01-.02,0-.03,0,0,0,0,0,0,0,0,0,0,0,0l.14-.06s0,0,0,0c0-.01.02-.02.03,0h0Z"/>
      <path class="cls-1" d="M20.58,11.15s.01.01,0,.02c0,0,0,0,0,0l-.03.02c-.11.05-.22.1-.33.15-.01,0-.02.02-.03.02-.14.06-.28.13-.42.2,0,0,0,0-.01,0,0,0,0,0,0,0v-.02s0,0,.01-.01c.14-.07.32-.15.42-.2.13-.06.26-.13.4-.19Z"/>
      <rect class="cls-1" x="14.18" y="11.26" width=".52" height=".03" rx="0" ry="0" transform="translate(-3.47 7.41) rotate(-25.8)"/>
      <path class="cls-1" d="M20.75,11.17v.04s-.07.02-.1.04l-.07.04s0-.02,0-.03h.01s.1-.05.14-.09c0,0,0,0,.01,0h0Z"/>
      <path class="cls-1" d="M11.64,11.18v.06s-.06.05-.1.04c0,0,0,0,0,0v-.03s0,0,0-.01c.03-.03.07-.04.11-.05ZM14.85,11.19l.03.1s-.07,0-.09.02c0,0,0,0-.01,0-.01,0-.02-.02-.02-.04,0,0,0,0,0,0,.03-.02.07-.02.08-.06ZM16.84,11.2l-.03.08c-.06.02-.12.05-.17.08h-.02s-.01,0-.01-.02c0,0,0,0,0,0,0-.01,0-.02.01-.04l.05-.04s.03,0,.03,0c.04-.02.08-.04.13-.06Z"/>
      <path class="cls-1" d="M18.31,11.23h0c-.13.07-.26.13-.39.19-.07.03-.17.09-.27.12,0,0,0,0,0,0,0-.01,0-.02,0-.02.13-.07.26-.13.4-.2.07-.03.16-.08.24-.11,0,0,.01,0,.01,0,0,0,0,.01,0,.02h0ZM11.45,11.27l-.47.22s0,0,0,0v-.02s.01,0,.01,0c0,0,0,0,0,0,.15-.07.31-.15.5-.23,0,0,0,0,.01,0h0s0,.02,0,.02l-.05.03h0Z"/>
      <path class="cls-1" d="M20.75,11.22v.06l-.1.05s0,0,0,0c0-.02,0-.04.01-.06.03-.02.06-.03.1-.04Z"/>
      <path class="cls-1" d="M12.99,11.26h-.03c-.16.09-.33.17-.49.25-.09.04-.2.1-.31.14,0,0,0,0-.01,0,0,0,0,0,0,0h0s0-.02,0-.02c.03-.02.07-.03.09-.04.17-.09.31-.15.44-.21.11-.06.19-.09.29-.14,0,0,0,0,0,0,0,0,0,.02,0,.03Z"/>
      <path class="cls-1" d="M16.68,11.24s0,0,0,0c0,0,0,0,0,0,0,0,0,.02,0,.03l-.05.04c-.06.03-.12.05-.18.08-.11.05-.25.13-.39.18,0,0,0,0,0,0,0-.01,0-.02,0-.03.14-.07.32-.15.53-.25.02,0,.04-.02.06-.03h.03ZM14.24,11.47s0,0,0,0l.38-.18s.05-.02.06-.02v.02s-.01.02-.04.03c0,0,0,0,0,0l-.38.18s0,0,0,0c0,0,0,0,0,0v-.02s0,0,0,0Z"/>
      <path class="cls-1" d="M20.58,11.26s.01.02,0,.03c-.11.05-.21.1-.32.15-.08.04-.18.08-.26.13-.1.05-.18.09-.28.13-.01,0-.02,0-.02-.01h0s0-.02,0-.02c.06-.03.13-.06.19-.09.02-.01.05-.03.07-.04.21-.09.38-.18.61-.28h0Z"/>
      <path class="cls-1" d="M11.45,11.27v.05s0,0,0,0c0,0,0,0,.01,0l-.49.24v-.1s0,0,0,0v.02s0,0,0,0l.47-.22Z"/>
      <path class="cls-1" d="M18.36,11.31c-.1.04-.19.1-.28.14-.14.06-.25.12-.38.18-.02,0-.03.02-.05,0,0,0,0,0,0-.01,0,0,0,0,0,0l.69-.33s.03-.01.04-.01c0,0,0,0,0,0,0,.02-.01.03-.03.03Z"/>
      <path class="cls-1" d="M16.81,11.28s0,.04-.01.05c-.05.01-.09.04-.13.06l-.05.02s.02-.02.03-.04c0,0,0,0,0,0h0c.05-.04.11-.06.17-.09Z"/>
      <path class="cls-1" d="M14.88,11.29l.02.07s-.07.03-.09.02c-.01,0-.02-.02-.03-.04,0,0,0,0,0,0l.09-.05Z"/>
      <path class="cls-1" d="M11.46,11.36l-.48.23s0-.02,0-.03l.49-.24h.03s0-.01,0,0h0s0,.02,0,.02l-.04.02Z"/>
      <path class="cls-1" d="M20.75,11.32v.07h-.01s0,0-.01,0l-.08.03s-.02,0-.02,0c0,0,0,0,0,0v-.03s0,0,0,0l.07-.05s0,0,.01,0h.03ZM16.79,11.33s-.02.06-.03.09l-.11.04s0,0,0,0c0-.03,0-.05.03-.06.04-.03.08-.05.13-.06Z"/>
      <path class="cls-1" d="M14.45,11.5c-.05.02-.1.05-.15.08,0,0,0,0,0,0v-.02s0,0,0,0c.13-.08.28-.14.42-.21,0,0,.01,0,.01,0,0,0,0,0,0,0h0s0,.01,0,.01c-.07.05-.17.09-.28.14ZM12.06,11.78s.06-.04.09-.05c.09-.05.19-.09.28-.13.17-.08.34-.16.51-.25,0,0,0,0,0,0,0,.01,0,.02-.01.03,0,0,0,0,0,0-.04.02-.08.04-.11.06-.1.06-.21.1-.31.15-.15.07-.3.14-.45.22,0,0,0,0-.01,0,0,0,0,0,0-.01,0,0,0,0,0,0,0,0,0,0,.01,0h0ZM19.64,11.85s-.02-.01-.02-.03c.03,0,.05-.03.07-.04.19-.09.38-.18.56-.27.09-.04.22-.11.34-.16,0,0,0,0,0,0,0,.02,0,.03-.02.03-.19.09-.37.18-.55.27-.09.04-.26.12-.39.19h0Z"/>
      <path class="cls-1" d="M11.46,11.36v.06s-.47.22-.47.22c0,0-.02.01-.01.02h0s0,.02,0,.02c.17-.07.33-.15.5-.24v.05s.01,0,.02,0h.04s.01,0,.01,0c0,0,0,0,0,0-.01.02-.03.03-.05.03,0,0,0-.01,0-.02,0,0,0,0,0,0-.14.06-.28.12-.41.19-.03.02-.07.03-.1.05-.01,0-.02.02-.01.03,0,0,0,0,.01,0,0,0,0,0,0,0l.49-.24s0,.02,0,.03c0,0,0,0,0,.01v.02s0,0,0,0c0,0,0,0,0,0,.05-.03.1-.05.15-.06v.03s-.1.05-.1.05c0,0,0,0,0,.02,0,.01,0,.03,0,.04,0,0,0,0,0,0,0,0,0,0,0,0l.1-.06v.05s-.13.06-.13.06c.01,0,.02-.02.02-.03,0,0,0,0,0,0-.19.08-.34.17-.51.24,0,0,0,0,0,0h0s0,0,0,0c0-.02-.02-.03-.03-.04.02,0,0-.03,0-.05,0,0,0,.02,0,.02,0,0,0,0,.01,0,.14-.06.27-.13.4-.19.02,0,.12-.04.1-.07,0,0,0,0-.01,0,0,0,0,0,0,0-.08.03-.15.07-.23.1-.07.03-.18.1-.28.13v-.27s.48-.23.48-.23Z"/>
      <path class="cls-1" d="M18.38,11.36s0,0,.01,0h0s0,.02,0,.02c-.08.04-.16.09-.24.12-.18.08-.32.15-.48.22-.02,0-.03,0-.03-.01,0,0,0,0,0,0l.73-.35ZM16.63,11.37h0s0,0,0,0c0,.02-.01.03-.03.04-.18.09-.37.17-.55.26-.03.02-.06.04-.1.04v-.03s.66-.31.66-.31h.02Z"/>
      <path class="cls-1" d="M14.91,11.39l.02.06s-.05.02-.08.03c0,0,0,0-.01,0-.02,0-.03-.02-.03-.04,0,0,0,0,0,0,.03-.02.06-.03.1-.04h0Z"/>
      <path class="cls-1" d="M16.66,11.39s-.03.03-.03.06c0,0,0,0,0,0l.11-.04v.04c-.07.02-.13.05-.18.08,0,0,0,0,0,.01,0,.02,0,.03-.02.05,0,0,0,0,0,.01,0,0,0,0,0,0l.13-.06s0,0,.01,0c0,0,0,.01,0,.02h0s-.09.04-.15.08c0,0,0,0,0,.01,0,.02,0,.03-.02.04,0,0,0,0,0,0,0,0,0,0,0,0l.11-.06s0,0,.01,0c0,0,0,0,0,.02v.02c-.06.03-.12.05-.17.09,0,0,0,0,0,.01,0,.02-.01.03-.03.04,0,0,0,0,0,.01,0,0,0,0,0,0,0,0,0,0,.01,0l.12-.06s0,0,0,0h0s0,0,0,0c0,0,0,0,0,0v.03c-.06.02-.11.04-.17.07,0,0,0,0,0,.01,0,.02,0,.03-.02.05,0,0,0,0,0,0,0,0,.02,0,.03,0,.04-.02.08-.04.13-.05,0,.02,0,.03-.01.04-.04.01-.14.05-.15.08,0,.02,0,.03,0,.05l-.06.03c-.17.07-.35.17-.54.25v-.05s-.02,0-.02,0c0,0-.02,0-.03,0l.08-.24s.05-.02.08-.03c.1-.05.19-.09.29-.14.06-.03.16-.08.25-.12.02,0,.04-.02.05-.04,0,0,0,0,0,0,0,0,0,0,0,0-.09.04-.17.08-.25.12,0,0,0,0-.01,0,0,0,0,0-.01,0-.13.05-.25.11-.37.18l.11-.35s.07-.02.1-.04c.18-.09.37-.18.55-.26l.05-.02ZM15.96,11.79s-.01.02-.02.03c0,0,0,0,0,0,0,0,0,0,0,0,.08-.03.17-.08.24-.12.09-.04.19-.09.28-.13.03-.01.12-.04.11-.08,0,0,0,0,0,0-.21.1-.41.2-.62.3h0ZM16.54,11.64s0-.01,0-.02c0,0,0,0,0,0-.02,0-.05.02-.07.03-.18.08-.36.17-.54.26,0,0,0,0,0,.01h0s0,.02.01.02c.17-.07.33-.16.5-.23.03-.01.07-.04.1-.06h0ZM15.85,12.16v.02s0,0,0,0c.07-.03.15-.07.2-.09.11-.05.22-.1.32-.15.03-.02.06-.03.08-.05.01,0,.01-.01,0-.02-.01-.01-.57.27-.62.29,0,0,0,0,0,0h0ZM15.79,12.3v.02s.01,0,.02,0c0,0,0,0,0,0l.52-.25c.06-.03.1-.05.1-.06h0s-.05,0-.11.03l-.52.25s0,0,0,0h0Z"/>
      <path class="cls-1" d="M18.57,11.41l.03.07s-.05.02-.07.03c-.03.01-.05,0-.06-.03,0,0,0,0,0-.01l.1-.06h0ZM20.75,11.42v.07l-.11.04s0,0,0,0c0-.03,0-.05.03-.07.03-.01.06-.03.09-.04Z"/>
      <path class="cls-1" d="M11.49,11.45c-.16.08-.33.16-.5.24,0,0,0,0,0,0h0s0-.03.01-.03l.47-.22h0s0,0,0,0c0,0,0,.01,0,.02h0ZM14.75,11.46s0,0,0,0c0,0,0,0,0,0l-.43.2s0,0,0,0c0-.01,0-.02,0-.03.13-.07.27-.14.42-.2,0,0,0,0,0,0,0,0,0,0,0,0h0s0,.01,0,.01h0Z"/>
      <path class="cls-1" d="M13.05,11.46l-.11.13s-.1.03-.12.04c-.02,0-.03,0-.02-.02l.02-.04s0,0,0,0c.06-.04.12-.07.18-.1,0,0,0,0,.01,0h.02s0,0,0,0ZM16.75,11.46l-.04.11s0-.02,0-.02c0,0,0,0-.01,0l-.13.06s0,0,0,0c0,0,0,0,0,0,.01-.01.02-.03.02-.05,0,0,0,0,0-.01.05-.03.11-.06.17-.08h0Z"/>
      <path class="cls-1" d="M17.68,11.81s0,0,0,0h0s.43-.2.43-.2c.18-.08.32-.15.32-.14h0s0,.02,0,.02c0,0-.14.08-.31.16,0,0,0,0,0,0l-.43.2s0,0,0,0v-.02s-.01,0-.01,0ZM19.63,11.96l-.04.02s0,0,0,0c0-.03.04-.04.06-.05l.94-.45s.01,0,.01,0c0,0,0,0,0,0,0,.02-.01.02-.03.03-.26.13-.52.25-.78.37-.01,0-.03.02-.04.03-.04.02-.08.04-.12.06h0Z"/>
      <path class="cls-1" d="M14.94,11.47l.02.07s-.05.02-.08.04c0,0,0,0-.01,0l-.02-.03s0,0,0-.01c.02-.01.08-.04.08-.05h0Z"/>
      <path class="cls-1" d="M15.95,11.82s0-.02.02-.03c.2-.1.41-.2.62-.3,0,0,0,0,0,0,0,.04-.09.07-.11.08-.09.05-.18.09-.28.13-.07.03-.16.08-.24.12,0,0,0,0,0,0,0,0,0,0,0,0h0Z"/>
      <path class="cls-1" d="M18.61,11.51l.03.06h-.02s0,0-.01,0l-.08.04s0,0-.01,0c-.02-.01-.02-.03-.02-.05h0s.11-.05.11-.05h0Z"/>
      <path class="cls-1" d="M11.51,11.54l-.02.02-.49.24s-.01,0-.01,0c0,0,0,0,0,0,0-.01,0-.02.01-.03.03-.01.07-.03.1-.05.13-.07.27-.13.41-.19,0,0,0,0,0,0,0,0,0,.01,0,.02ZM14.33,11.73s0,0,0,0l.37-.18s.09-.04.1-.03h0s-.04.04-.08.06l-.37.18s0,0,0,0v-.02s-.01,0-.01,0Z"/>
      <path class="cls-1" d="M20.75,11.53v.07s-.06.03-.1.03c-.01,0-.02,0-.02-.02,0,0,0,0,0,0,.02-.05.08-.06.12-.08Z"/>
      <path class="cls-1" d="M11.84,12.02s-.04.02-.05,0l.04-.05s.08-.03.11-.04c.15-.08.31-.15.46-.22.11-.05.26-.13.39-.18,0,0,0,0,.01,0,0,0,0,.01,0,.02,0,0,0,0-.01,0-.12.05-.24.12-.35.17-.17.08-.36.17-.51.24-.03.01-.06.03-.08.05h0ZM18.5,11.55h0s-.81.39-.81.39c0,0,0,0-.01,0h0s0-.02,0-.02c.15-.08.33-.16.46-.23.11-.05.22-.11.33-.16.01,0,.04,0,.04.02h0ZM19.54,12.1c-.06-.02.09-.08.1-.09l.95-.45s.01,0,.01,0h0s0,.02,0,.02c-.14.08-.33.16-.44.21-.2.1-.41.2-.62.29Z"/>
      <path class="cls-1" d="M14.97,11.57l.02.07s-.06.01-.09.03c0,0-.01,0-.01,0-.02-.02-.03-.04,0-.06.03-.01.05-.03.08-.04h0ZM16.7,11.58l-.03.1s0-.01,0-.02c0,0,0,0-.01,0l-.11.06s0,0,0,0c0,0,0,0,0,0,.01-.01.02-.03.02-.04,0,0,0,0,0-.01.05-.04.1-.05.15-.07ZM18.64,11.58l.03.07-.08.03s-.02,0-.03-.01c0,0,0,0,0,0v-.03s0,0,0-.01c.03-.01.05-.03.08-.04h0ZM11.64,11.59v.05s-.1.06-.1.06c0,0,0,0,0,0,0,0,0,0,0,0,0-.01,0-.03,0-.04,0,0,0-.01,0-.02l.1-.05Z"/>
      <path class="cls-1" d="M14.38,11.84h-.01s0-.02,0-.02c0,0,0,0,0,0l.44-.21s.01,0,.02,0c0,0,0,0,0,0h0s0,.02,0,.02c-.14.07-.29.15-.43.2,0,0,0,0,0,0h0ZM16.54,11.64s-.07.05-.1.06c-.17.07-.33.16-.5.23,0,0,0,0-.01,0h0s0-.02,0-.03c.18-.09.36-.17.54-.26.02,0,.05-.03.07-.03,0,0,.01,0,.01.01,0,0,0,0,0,0h0ZM17.67,12.05h-.03s0,0,0,0c0-.03.03-.04.06-.05l.82-.39s0,0,.01,0h0s0,.02,0,.02l-.85.41ZM10.98,11.87h0c.1-.04.2-.11.28-.14.07-.03.15-.07.23-.1,0,0,0,0,.01,0,0,0,0,0,0,0,.01.03-.08.07-.1.07-.12.05-.25.13-.4.19,0,0,0,0-.01,0,0,0,0-.01,0-.02h0Z"/>
      <path class="cls-1" d="M20.75,11.63v.06l-.1.04s0,0-.01,0c0-.02-.01-.03,0-.05.03-.02.06-.04.09-.04,0,0,0,0,0,0h0ZM12.89,11.64l-.09.12s0,0-.01-.01c0,0,0,0-.01,0l-.19.09s0,0-.01,0c0-.02.04-.03.04-.08l.05-.03c.07-.04.15-.07.23-.09h0ZM15,11.66l.02.06s-.06.02-.08.03c-.03,0-.05,0-.05-.03,0,0,0,0,0,0l.1-.05ZM18.68,11.66l.07.15-.08.04s0,0-.01,0l-.02-.03s0,0,0-.01c.02-.02.08-.04.05-.07,0,0,0,0-.01,0l-.08.04s0,0-.01,0c-.01,0-.02-.02-.02-.03,0,0,0,0,0-.01.03-.02.09-.05.1-.07h0Z"/>
      <path class="cls-1" d="M19.57,12.19l-.1.04s0,0-.01,0c-.04-.02.06-.06.07-.06.02-.01.04-.03.06-.03.13-.06.21-.09.25-.11.1-.06.23-.11.32-.15.14-.07.29-.14.43-.21,0,0,.01,0,.01,0,0,.02-.02.03-.04.04-.24.11-.48.23-.72.34-.09.04-.19.08-.27.13h0ZM12.66,11.73l-.05.03-.84.4-.05.03s0,0-.01,0c0,0,0,0,0,0,0-.03.08-.07.11-.08l.86-.41s0,0,.01,0c.02.02-.02.03-.03.04h0Z"/>
      <path class="cls-1" d="M11.64,11.69v.08s-.1.03-.1.03c0,0,0,0,0,0,0,0-.01,0-.02,0,0,0,0,0,0,0,0-.02,0-.04.01-.05l.13-.06Z"/>
      <path class="cls-1" d="M14.42,11.93s0,0,0,0c0,0,0,0,0,0h0s0-.02,0-.03c.05-.02.1-.05.15-.07.08-.04.2-.1.31-.14,0,0,0,0,0,0,0,0,0,0,0,0,0,.01-.01.02-.02.03-.14.07-.27.14-.41.2,0,0,0,0,0,0h0Z"/>
      <path class="cls-1" d="M16.66,11.7l-.04.11s0,0,0,0c0,0,0,0,0,0h0s0,0,0,0l-.12.06s0,0-.01,0c0,0,0,0,0,0,0,0,0,0,0-.01.02,0,.03-.02.03-.04,0,0,0,0,0-.01.05-.03.1-.06.16-.09Z"/>
      <path class="cls-1" d="M17.67,12.15h-.02s0,.01,0,0c0-.03.03-.04.05-.05.11-.05.22-.11.33-.16.11-.05.23-.11.32-.15.07-.03.13-.07.2-.09,0,0,0,0,0,0,0,.01,0,.02-.01.03-.17.08-.34.16-.51.24-.09.04-.23.12-.35.16ZM11.52,11.76l-.49.23-.02-.02h0s0-.01,0-.01c.17-.07.33-.16.51-.24,0,0,0,0,0,0,0,.01,0,.02-.02.03h0Z"/>
      <path class="cls-1" d="M12.8,11.75l-.05.05h-.02s0,0-.01,0l-.15.08s0,0,0,.01v.03s0,0,.02,0l.06-.02s0,0,0,0h0s0,.02,0,.02l-.05.03s0,0,0,.01v.03s.02,0,.02,0l.09-.03v.02s-.14.06-.09.11c0,0,0,0,0,0,0,0,0,0,.01,0,0,0,0,0,.01,0l.1-.05v.03s-.08.05-.08.05c0,0,0,0,0,0l.02.04s0,0,0,0l.09-.04s0,0,0,0h.01s0,.02,0,.02l-.11.05v-.02s.01-.02,0-.01c-.04.01-.07.04-.1.05-.12.05-.23.11-.35.17l-.04.02s-.02-.04-.05-.04c.12-.06.23-.11.35-.17.03-.01.07-.04.12-.07,0,0,0,0,0,0h0s0-.02,0-.02c0,0,0,0,0,0l-.49.23s-.02-.04-.03-.05c.16-.08.32-.15.47-.24,0,0,.01-.01,0-.02,0,0-.01,0-.02,0-.15.07-.3.14-.45.22-.1.05-.17.08-.23.11h0s0,0,0,0c-.03,0-.05,0-.07-.02l.14-.07.58-.28s0,0,0-.01h0s0-.02-.01-.02c0,0,0,0,0,0l-.6.29-.12.05s-.01-.04-.04-.04h0c.12-.05.25-.13.36-.17.14-.06.28-.13.42-.2.01,0,.02-.02.01-.03,0,0,0,0,0,0l-.79.38-.04.02s.02-.03.03-.05c0,0,0,0,0,0,.01,0,.02-.02.01-.03l.84-.4s-.04.06-.04.08c0,0,0,0,.01,0l.19-.09s0,0,.01,0c0,0,0,0,.01.01Z"/>
      <path class="cls-1" d="M20.75,11.74v.06l-.1.06s0,0-.01,0c0,0,0,0,0,0v-.04s0,0,0-.01c.03-.03.06-.05.1-.05Z"/>
      <path class="cls-1" d="M15.84,12.09v-.03c.13-.07.25-.13.38-.18,0,0,0,0,.01,0,0,0,0,0,.01,0,.08-.04.17-.08.25-.12,0,0,0,0,0,0,0,0,0,0,0,0,0,.02-.02.04-.05.04-.09.04-.19.09-.25.12-.1.05-.2.09-.29.14-.02.01-.05.02-.08.03h0Z"/>
      <path class="cls-1" d="M15.03,11.75l.02.07s-.05,0-.08.02c0,0,0,0-.01,0-.02,0-.03-.02-.03-.04,0,0,0,0,0,0l.09-.05Z"/>
      <path class="cls-1" d="M11.52,11.76s-.01.04-.01.05c0,0,0,0,0,0,0,0,.01,0,.02,0,0,0,0,0,0,0l.1-.03v.03c-.05.01-.11.03-.11.1,0,0,0,0,0,0,0,0,0,0,0,0l.08-.03s0,0,.01,0h0s0,.02,0,.03c-.03.01-.07.03-.09.05,0,0,0,0,0,.01,0,.01,0,.02,0,.03,0,0,0,.01,0,.01h0s0,0,0,0c-.01,0-.02,0-.03.02-.12.06-.24.12-.37.17-.01,0-.03.02-.05.03v-.05s0-.02,0-.02c0,0,0,0,0,0,.14-.06.27-.12.4-.19.01,0,.02-.01.02-.03,0,0,0,0,0-.01,0,0,0,0,0,0-.08.03-.16.07-.21.1-.07.03-.15.07-.22.1v-.07s0,0,.01,0c.14-.06.28-.13.41-.2,0,0,0,0,0-.01h0s0-.02,0-.02c0,0,0,0,0,0-.1.04-.2.1-.29.14-.05.02-.1.05-.14.07l-.03-.05.49-.23Z"/>
      <path class="cls-1" d="M14.91,11.8c-.14.08-.29.15-.44.21-.02,0-.03,0-.03,0,0,0,0-.01,0-.01,0,0,0,0,0,0l.46-.22s0,0,.01,0c.01.01,0,.02,0,.03Z"/>
      <path class="cls-1" d="M19.43,12.37s-.02,0-.02-.02c0,0,0,0,0,0l.17-.08c.14-.07.24-.12.36-.17.21-.1.41-.2.65-.31,0,0,0,0,0,0v.02s0,0,0,.01l-1.17.56h0Z"/>
      <path class="cls-1" d="M17.71,12.25l-.06.03s0,0,0,0c-.01-.03.03-.04.05-.05.1-.04.2-.09.29-.14.09-.04.19-.09.28-.13.12-.06.21-.1.32-.15,0,0,0,0,.01,0,0,0,0,0,0,0,0,.01,0,.02-.01.03-.29.14-.58.28-.87.42h0Z"/>
      <path class="cls-1" d="M12.75,11.81l-.08.1s0,0,0,.01l.04.07-.09.03s-.01,0-.01,0v-.03s-.01-.01,0-.01l.05-.03s0,0,0,0h0s0-.02,0-.01l-.06.02s-.01,0-.01,0v-.03s0-.01,0-.01l.15-.08s0,0,.01,0h.02s0,0,0,0ZM11.64,11.8v.39c-.05.01-.09.03-.13.05h-.01s-.02-.04,0-.06c0,0,.01-.02.01-.03,0,0,0,0,0,0h-.02s-.02,0-.02,0c0,0,0,0,0,0v-.05s.09-.05.05-.07c0,0,.02-.01.03-.02,0,0,0,0,0,0h0s-.01,0,0-.01c0,0,.01-.02,0-.03,0,0,0,0,0-.01.03-.02.06-.04.09-.05.02,0,.02-.01,0-.03h0s0,0-.01,0l-.08.03s0,0-.01,0c0,0,0,0,0,0,0-.06.06-.08.11-.1h0Z"/>
      <path class="cls-1" d="M19.62,11.82s0,.03.02.03c0,.02,0,.04,0,.06-.02.01-.07.02-.06.05,0,0,0,0,0,0l.04-.02s0,.04,0,.06c-.02,0-.16.06-.1.09,0,0,0,0,.01,0,0,0,0,0,0,0l-.02.06s-.11.04-.07.06c0,0,0,0,.01,0l.1-.04s.03.04,0,.06l-.17.08s0,0,0,0c0,.01,0,.02.02.02,0,.02.01.04,0,.06-.03.02-.09.04-.09.08,0,0,0,0,0,0,.17-.08.34-.16.51-.24.03-.01.05-.02.07-.05,0,0,0,0,0-.01,0,0,0,0,0,0l.17-.08s0,.02.02.02c0,0-.01,0-.02.01l-.02.04s0,0,0,0c0,0,0,0,0,0h0s0-.01,0,0c-.02,0-.04.02-.05.03-.02.01-.06.02-.09.05,0,0,0,0,0,.01,0,0,0,.02-.02.02,0,0,0,0,0,.01h0s0,.01.01.01h.01s0,0,0,0c-.01.06-.09.04-.09.11,0,.01-.01.02-.02.02-.04,0-.05.01-.03.04-.27.13-.44.21-.51.24-.02,0-.02.02,0,.04h0s-.03.01-.03.01c.12-.33.25-.6.41-.95h0ZM19.9,12.33s0,0,0,0c0,0,0,0,0,0-.06.02-.13.06-.18.09-.06.03-.4.17-.42.22,0,0,0,.01,0,.01,0,0,0,0,0,0,.15-.08.31-.15.46-.22.03-.01.06-.04.1-.05,0,0,0,0,0,0l.02-.03h0Z"/>
      <path class="cls-1" d="M16.61,11.83l-.03.09s-.09.03-.13.05c0,0-.02,0-.03,0,0,0,0,0,0,0,.01-.01.02-.03.02-.05,0,0,0-.01,0-.01.05-.03.1-.05.16-.07h0Z"/>
      <path class="cls-1" d="M11.06,12.07v-.02s.09-.05.13-.07c.09-.04.19-.1.29-.14,0,0,0,0,.01,0,0,0,0,0,0,0h0s0,.02,0,.02c-.14.07-.27.14-.41.2,0,0-.02,0-.03,0h0Z"/>
      <path class="cls-1" d="M18.77,11.84l.04.08h-.02s0,0-.01,0l-.07.03s-.01,0-.01,0v-.04s0,0,0-.01c.03-.01.06-.03.09-.05ZM15.06,11.84l.02.06s-.09.04-.11.03c0,0,0,0,0,0v-.03s0,0,0,0l.09-.04h0ZM20.75,11.84v.06l-.11.05s0,0,0,0c-.01-.07.06-.09.12-.11Z"/>
      <path class="cls-1" d="M11.76,12.26h-.01s0,0,0-.01v-.02s.8-.38.8-.38c0,0,0,0,0,0,0,.01,0,.03-.01.03-.14.07-.28.14-.42.2-.11.05-.24.12-.36.17h0ZM15.85,12.16s0,0,0,0c.05-.03.61-.3.62-.29,0,.01,0,.02,0,.02-.03.01-.06.03-.08.05-.1.06-.22.1-.32.15-.05.02-.13.07-.2.09,0,0,0,0,0,0v-.02s0,0,0,0ZM20.1,12.14s-.02-.01-.02-.02l.54-.25s0,0,.01,0c0,0,0,0,0,0,0,.02,0,.03-.02.04-.11.05-.21.1-.32.15-.06.03-.13.06-.19.08h0Z"/>
      <rect class="cls-1" x="14.44" y="11.98" width=".51" height=".03" rx="0" ry="0" transform="translate(-3.73 7.49) rotate(-25.5)"/>
      <path class="cls-1" d="M18.29,12.07l-.64.3s0,0,0,0c0,0,0-.02,0-.03,0,0,0,0,.01,0,.02,0,.05-.02.07-.04l.92-.43s.01,0,.01,0h0s0,.02,0,.02l-.36.17Z"/>
      <path class="cls-1" d="M18.81,11.92l.03.07h-.02s0,0-.01,0c-.03.02-.08.05-.1,0,0,0,0-.02,0-.02.04-.02.07-.04.1-.06h0ZM15.09,11.93l.05.15s-.06.03-.1.04c0,0,0,0,0,0,0-.01-.01-.03,0-.05l.08-.04s0,0,0-.02c0-.04-.06,0-.08.01-.01,0-.03,0-.03-.01-.02-.04.07-.07.09-.09Z"/>
      <path class="cls-1" d="M20.75,11.93v.19s0,0,0,0c0,0,0,0,0,0-.03.03-.07.04-.1.05-.01,0-.02,0-.02-.01v-.03s0,0,0-.01c.02,0,.02-.01.04-.02.03-.01.11-.03.09-.07,0,0-.01-.01-.02,0,0,0,0,0,0,0-.03.02-.07.04-.11.04,0,0,0,0-.01,0-.02-.05.1-.1.14-.11,0,0,0,0,0,0,0,0,0,0,0-.01Z"/>
      <path class="cls-1" d="M11.08,12.19v-.05s0,0,0,0c.07-.04.14-.07.22-.1.06-.03.14-.07.21-.1,0,0,.01,0,.01,0,0,0,0,0,0,0,0,.01,0,.02-.02.03-.13.07-.27.13-.4.19,0,0,0,0,0,0v.02h0Z"/>
      <path class="cls-1" d="M17.62,11.95h0s0,0,0,0h.03s0,0,0,0l.02.05s-.05.02-.06.05c0,0,0,0,0,0h.03s.02.02.02.04c-.02.01-.06.02-.05.05,0,0,0,0,0,0h.02s.02.03.02.05c-.02.01-.06.02-.05.05,0,0,0,0,0,0l.06-.03v.06s-.03.03-.05.04c0,0,0,0-.01,0,0,0,0,.02,0,.03,0,0,0,0,0,0l.64-.3h.01s0,0,0,0c0,.01.02.03.02.04-.04.02-.04.04,0,.04.02,0,.04.02.04.05h-.02s0,.02,0,.02h0s0,.01.01.01c.06-.03.12-.05.17-.08.05-.03.13-.05.18-.09.04-.01.08-.03.12-.05,0,0,0,0,0,0,0,0,0,0,0,0l.03.06s-.08.05-.13.07c-.12.06-.25.12-.37.18,0,0,0,0,0,0h0s0,.02,0,.02c0,0,0,0,0,0,.12-.05.23-.1.34-.16.05-.02.11-.05.16-.08l.03.07h-.01s0,0-.01,0l-.49.24s0,0,0,0h0s0,.02.01.02c.17-.07.32-.16.48-.22,0,0,0,0,.01,0l.02-.02.03.06-.49.23s0,0,0,0c0,.01,0,.02.01.02-.01,0-.03.01-.04.01l-.15-.36s0,0,0,0v.04s-.07.01-.09.04l-.06.02s.01-.02,0-.03c0,0,0,0,0,0,0,0,0,0,0,0-.16.07-.32.14-.47.22,0,0-.01.01,0,.03,0,0,0,0,0,0,.09-.03.21-.1.27-.12.07-.03.13-.06.2-.09v.05s0,0,.01,0h.02s0,0,0,0c0,.01-.01.03-.03.04,0,0,0,0,0,0,0,.02-.01.04-.01.06-.13.06-.26.13-.38.18-.04.02-.07.03-.09.05h-.02s0-.71,0-.71h0ZM17.66,12.55v.02s.01,0,.02,0l.38-.18s.09-.05.08-.05h0s-.04,0-.09.02l-.38.18s0,0,0,0c0,0,0,0,0,0h0Z"/>
      <path class="cls-1" d="M16.57,11.96l-.03.1s0,0,0-.01c0,0,0,0-.01,0l-.1.05s0-.03,0-.05c.01-.04.11-.07.15-.08h0Z"/>
      <path class="cls-1" d="M14.5,12.18s.04-.03.06-.04c.12-.06.25-.12.39-.18,0,0,.02,0,.02,0,0,0,0,0,0,0,0,.02-.07.06-.09.06-.12.06-.25.11-.37.17,0,0,0,0-.01,0h0s0-.02,0-.02h0ZM11.95,12.28h-.03s0,0,0,0c0,0,0-.02,0-.02l.6-.29s.01,0,.01,0c0,0,0,0,0,0h0s0,.02,0,.02l-.58.28ZM18.33,12.16s-.04-.01,0-.04c.1-.05.2-.1.3-.15,0,0,0,0,0,0,.03,0,.02.02,0,.03-.11.05-.21.11-.32.16ZM20.14,12.23s0,0,0,0h0s0-.03,0-.03c0,0,0,0,0,0l.43-.2s.02,0,.02.01h0s0,.02,0,.02c0,0,0,0,0,0l-.44.21Z"/>
      <path class="cls-1" d="M15.79,12.3s0,0,0,0l.52-.25c.06-.03.1-.04.11-.04h0s-.04.04-.1.07l-.52.25s0,0,0,0c0,0,0,0,0,0v-.02Z"/>
      <path class="cls-1" d="M12.72,12.01l.03.05-.1.05s0,0-.01,0c0,0,0,0-.01,0,0,0,0,0,0,0-.06-.05.07-.09.1-.11h0Z"/>
      <path class="cls-1" d="M11.84,12.02s-.01.06-.03.08c-.03,0-.11.04-.11.08,0,0,0,0,0,0,0,0,0,0,0,0l.05-.03s0,.02-.01.03c0,0,0,0,0,0,0,.02-.01.03-.03.05-.14.07-.29.14-.42.2-.1.05-.19.09-.29.14-.02,0-.03.03-.02.04,0,0,0,0,0,0l.77-.37s.04.02.04.04c-.03.02-.07.04-.1.05-.1.05-.2.09-.3.14-.01,0-.03.02-.04.03-.04.02-.37.16-.38.19,0,0,0,.01,0,.02,0,0,0,0,0,0l.81-.39s.04.03.07.02c0,0,0,0,0,0h0c-.29.15-.59.29-.89.43,0,0,0,0,0,.01v.02s0,0,0,0c.11-.05.22-.11.35-.17.12-.05.24-.11.35-.17.13-.06.27-.13.4-.19.02.01.03.03.03.05-.1.04-.18.08-.29.13-.11.05-.21.1-.32.15-.19.1-.37.18-.55.27h0s0-.45,0-.45v-.02s.05-.04.05-.04c0,0,.01,0,.02,0,.15-.07.3-.14.45-.21-.01.02-.01.05,0,.07-.16.07-.32.16-.48.23-.01,0-.03.02-.02.04,0,0,.01,0,.02,0l.51-.24s.02-.02,0-.03c0,0,0,0-.01,0,.04-.02.08-.04.12-.05,0,.01,0,.02,0,.02,0,0,0,0,0,0l.15-.19s.03,0,.05,0h0Z"/>
      <path class="cls-1" d="M11.5,12.04s-.03.06-.05.07l-.37.17s0,0,0,0h0s0-.03,0-.03c.02-.02.04-.03.05-.03.12-.05.25-.11.37-.17h0Z"/>
      <path class="cls-1" d="M16.53,12.05v.03c-.06.02-.12.05-.17.08-.02,0-.02.02-.02.04,0,0,0,0,0,.01v.02s0,0,0,.01c0,0,0,0,0,0l.09-.04s.01,0,.01,0c0,0,0,0,0,0h0s0,.02,0,.02c-.06.02-.11.05-.15.09,0,0,0,0,0,.01,0,.01,0,.03,0,.04l-.62.3s0,0,0,0c0,0-.01,0-.02,0l.11-.34s.02,0,.03,0c0,0,0,0,0,0v.05s-.06.03-.04.06c0,0,0,0,0,0,.12-.05.3-.14.55-.26.02-.01.04-.02.05-.04,0,0,0,0,0-.01,0,0,0,0-.01,0l.06-.03.1-.05s0,0,.01,0c0,0,0,0,0,.01h0ZM15.71,12.55s0,0,0,.01c0,0,0,0,0,0,0,0,0,0,0,0,.1-.04.2-.1.29-.14.1-.05.2-.09.3-.15,0,0,.01-.01.02-.02,0,0,0-.01,0-.01,0,0,0,0,0,0-.07.03-.15.07-.2.1-.1.05-.23.11-.37.18,0,0-.01.01-.01.02h0Z"/>
      <path class="cls-1" d="M15,12.07c-.14.08-.3.15-.44.22h-.02s0-.02,0-.03c.15-.08.29-.15.45-.21,0,0,.01,0,.01,0h0s0,.01,0,.01ZM12.11,12.31c-.14.06-.27.13-.4.19-.12.05-.24.12-.35.17-.14.06-.24.12-.35.17,0,0,0,0,0,0v-.02s0,0,0-.01c.3-.14.59-.28.89-.43.06-.02.13-.06.23-.11.15-.07.3-.14.45-.22,0,0,.01,0,.02,0,0,0,0,.01,0,.02-.15.09-.31.15-.47.24h0ZM18.71,12.08s-.13.06-.18.09c-.06.03-.12.05-.17.08,0,0,0,0-.01,0h0s0-.02,0-.02h.02c.14-.08.29-.17.35-.17,0,0,0,0,0,0,0,0,0,.01,0,.02h0Z"/>
      <path class="cls-1" d="M15.02,12.07s0,.03,0,.05c0,0,0,0,0,0,.04,0,.07-.04.1-.04l.04.11-.09.05s0,0,0,.01v.04s0,.01.02,0c.03-.01.05-.02.07-.04,0,0,0,0,.01,0h.01s0,.02,0,.02c-.02.02-.04.03-.07.05-.02.01-.05.03-.04.06,0,.01.02.02.03.01l.09-.04s0,0,.01,0c0,0,0,0,0,0v.02s-.11.04-.11.04c0-.02,0-.02-.02-.02,0,0,0,0,0,0l-.37.18s0-.04-.03-.05c.13-.06.26-.12.38-.18.01,0,.02-.01.01-.02,0,0,0-.01-.01,0,0,0,0,0,0,0l-.43.2s-.02-.04-.04-.05c.14-.07.29-.14.43-.2.01,0,.02-.02.02-.03,0,0,0,0,0,0,0,0,0,0,0,0-.14.06-.27.14-.41.19,0-.02-.03-.04-.05-.04l.43-.21s0,0,0-.01c0,0,0-.01,0-.02,0,0,0,0,0,0-.03-.01-.4.18-.44.2,0-.03,0-.04-.03-.05.15-.07.3-.14.44-.22h.02Z"/>
      <path class="cls-1" d="M18.87,12.07v.03s-.1.05-.15.08c-.11.06-.23.11-.34.16,0,0-.01,0-.01,0,0,0,0,0,0,0h0s0-.02,0-.02c.12-.06.25-.12.37-.18.04-.02.09-.04.13-.07Z"/>
      <path class="cls-1" d="M16.52,12.08l-.08.22s0,0,0,0c0,0,0,0,0,0-.01,0-.02,0-.03,0,0,0,0,0-.01,0l-.1.04s0-.03,0-.04c0,0,0,0,0-.01.05-.04.1-.07.15-.09,0,0,0,0,0-.01h0s0-.02-.01-.02c0,0,0,0,0,0l-.09.04s0,0-.01,0c0,0,0,0,0,0v-.02s.01,0,.01-.01c0-.02,0-.03.02-.04.05-.03.1-.05.16-.08h0Z"/>
      <path class="cls-1" d="M20.16,12.33h-.03s0,0,0,0h0s0-.01,0-.02l.05-.03c.1-.05.21-.1.31-.15.03-.01.07-.04.11-.05,0,0,0,0,0,0h0s0,.02,0,.02c-.14.08-.29.14-.43.21h0Z"/>
      <path class="cls-1" d="M12.77,12.09l.09.15s-.01,0-.01,0c0,0,0,0,0,0l-.59.28s0,0,0,.01c0,.01,0,.02.02.02,0,0,0,0,.01,0,.07-.03.15-.07.19-.09.08-.04.17-.08.25-.12.02,0,.04-.03.06-.03.03,0,.06-.03.08-.05l.04.06c-.19.09-.38.18-.57.27,0,0,0,0,0,0,0,0,0,.02.01.02,0,0,0,0,.01,0l.56-.27.03.06s-.09.03-.13.05l-.44.21s0,0,0,0c0,0,0,.01.02.02-.02.02-.05.02-.07.02l-.13-.23s0,0,0,0c0,0,0,0,0,0,0,.01-.01.02-.02.03,0,0,0,0,0-.01,0,0,0,0,0,0l-.18.09s.02-.02.02-.03c0,0,0,0,0,0,0,0,0,0-.01,0l.24-.12.04-.02s0,.02,0,.02c0,0,0,0,.01,0,.04-.01.08-.04.11-.05.11-.05.23-.09.33-.16l.11-.05s0,0,0-.01h-.01s0-.02,0-.02l-.09.04s0,0,0,0l-.02-.04s0,0,0,0l.1-.05h0Z"/>
      <path class="cls-1" d="M11.45,12.1v.05s0,0,0,0h.02c-.07.03-.15.07-.22.1-.06.03-.13.07-.21.1v-.04s.03-.05.03-.05h0s0,0,0,0l.37-.17h0Z"/>
      <path class="cls-1" d="M16.36,12.12s0,0,.01,0c0,0,0,0,0,.01-.01.01-.03.03-.05.04-.25.12-.43.21-.55.26,0,0,0,0,0,0-.01-.03.03-.05.05-.06.2-.08.37-.18.54-.25h0ZM12.15,12.39l-1.14.54s-.01,0-.02,0c0,0,0,0,0-.01.19-.09.36-.17.55-.27.11-.05.21-.1.32-.15.1-.05.19-.09.29-.13l.49-.23s0,0,0,0c0,0,0,0,0,0h0s0,.02,0,.02c-.05.03-.09.05-.12.07-.12.05-.24.11-.35.17h0ZM14.57,12.38s-.01,0-.02-.01c0,0,0,0,0-.01,0,0,.01-.01.02-.01.04-.02.41-.21.44-.2,0,0,0,0,0,0,0,0,0,0,0,.02,0,0,0,0,0,.01l-.43.21ZM11.49,12.18c-.15.07-.3.14-.45.21,0,0-.01,0-.02,0l.02-.04c.07-.03.15-.07.21-.1.07-.03.15-.07.22-.1h.02s0,0,0,0c0,.01,0,.02-.01.03ZM18.92,12.17h0s-.02.03-.02.03c0,0,0,0-.01,0-.16.06-.31.15-.48.22,0,0,0,0-.01,0h0s0-.02,0-.02l.49-.24s0,0,.01,0h.01s0,0,0,0Z"/>
      <path class="cls-1" d="M20.75,12.17v.04l-.64.31s0,0,0,.02c0,0,0,0,0,0,0,0,.02,0,.03,0,.17-.07.3-.15.49-.23.04-.02.08-.05.13-.06v.06c-.21.1-.42.2-.63.3-.01,0-.04.03,0,.04,0,0,0,0,0,0-.01,0-.02,0-.04.01v-.42s.03,0,.05,0c0,0,0,0,0,0,0,.02,0,.03.02.04l-.05.03s0,0,0,.01h0s0,.01,0,0h.03s.02.03.01.05c-.01,0-.07.03-.06.05,0,0,.01.01.02,0l.49-.24.1-.05s0,0,.01,0h.02s0,0,0,0Z"/>
      <path class="cls-1" d="M20.07,12.19l-.14.33s-.02,0-.03,0c0,0,0,0-.01,0l-.06.03h-.01s0,0,0,0c0,0,0-.01.01-.02,0,0,0,0,0,0,0-.01,0-.03.02-.04.02,0,.03-.02.04-.04,0,0,0,0,0,0,0,0,0,0,0,0l-.1.05s0-.04.03-.04c.01,0,.02-.01.02-.02,0-.07.08-.04.09-.11,0,0,0,0,0,0h-.01s0,0-.01,0h0s0-.02,0-.02c0,0,.01-.01.02-.02,0,0,0,0,0-.01.02-.03.06-.04.09-.05.02-.01.04-.02.05-.03,0,0,0,0,0,0h0s0,.01,0,.01c0,0,0,0,0,0h0Z"/>
      <path class="cls-1" d="M20.63,12.21l-.49.24s-.02,0-.02,0c-.01-.02.05-.04.06-.05l.45-.21s0,0,.01,0c0,0,0,.02,0,.03Z"/>
      <path class="cls-1" d="M15.17,12.19l.02.07h-.01s0,0-.01,0c-.02.02-.05.03-.07.04,0,0-.01,0-.01,0v-.04s0,0,0-.01l.09-.05Z"/>
      <path class="cls-1" d="M18.27,12.2v.38s0,0,0,0c0,0,0,0-.01,0l-.08.04s-.01,0-.02,0c0,0,0,0,0-.01l.02-.05s0,0,0,0c.03,0,.06-.02.08-.04,0,0,0,0,0-.01h0s0-.02-.01-.02l-.07.03s-.01,0-.02,0c0,0,0,0,0,0v-.04s0,0,.01-.01c.02,0,.08-.04.07-.06,0,0,0,0,0,0l-.05.02s0,0,0,0c-.03-.06.05-.05.03-.1,0,0,0,0,0,0h-.02s0,.01-.01.01c0,0,.01-.05,0-.06.03-.03.06-.04.09-.04h0Z"/>
      <path class="cls-1" d="M19.92,12.2s0,0,0,0c0,0,0,0,0,.01-.02.03-.04.04-.07.05-.17.08-.34.16-.51.24,0,0,0,0,0,0,0-.03.06-.06.09-.08.16-.07.32-.16.49-.23ZM12.69,12.24c-.1.07-.22.11-.33.16-.03.01-.07.04-.11.05,0,0,0,0-.01,0,0,0,0-.01,0-.02.11-.06.23-.12.35-.17.03-.01.06-.04.1-.05.02,0,.02,0,.01.01v.02ZM20.75,12.22v.04s-.09.04-.13.06c-.19.09-.32.16-.49.23,0,0-.02,0-.03,0,0,0,0-.01,0-.02,0,0,0,0,0,0l.64-.31ZM18.12,12.26c-.07.03-.13.06-.2.09-.06.03-.17.09-.27.12,0,0,0,0,0,0,0-.01,0-.02,0-.03.15-.08.31-.16.47-.22,0,0,0,0,0,0,0,0,0,0,0,0,0,.01,0,.02,0,.03ZM11.76,12.23v.02s-.01,0,0,0h.01s0,0,0,0l-.77.37s0,0,0,0c0-.02,0-.04.02-.04.1-.04.2-.09.29-.14.13-.06.28-.13.42-.2l.04-.02ZM12.85,12.25s0,0,0,0c-.02.03-.05.04-.08.05-.03,0-.04.02-.06.03-.08.04-.17.08-.25.12-.05.02-.13.07-.19.09,0,0,0,0-.01,0-.01,0-.02,0-.02-.02,0,0,0,0,0-.01l.59-.28s0,0,0,0c0,0,0,0,.01,0h0ZM14.6,12.47s0-.04.02-.05c.14-.06.27-.13.41-.19,0,0,0,0,0,0,0,0,0,0,0,0,0,.01,0,.03-.02.03-.14.07-.29.14-.43.2Z"/>
      <path class="cls-1" d="M18.17,12.24s-.02.06,0,.06c0,0,0,0,.01,0h.02s0-.01,0,0c.02.05-.06.03-.03.1,0,0,0,0,0,0l.05-.02s0,0,0,0c0,.02-.06.05-.07.06,0,0,0,0,0,.01v.04s0,.01,0,.01c0,0,0,0,0,0l.07-.03s.01,0,.01,0h0s0,.02,0,.02c-.03.02-.05.03-.08.04,0,0,0,0,0,0l-.02.05s0,.01,0,.02c0,0,0,0,.01,0l.08-.04s0,0,.01,0h.01v.09l-.59.29v-.05s-.02,0-.02,0h-.04s0-.23,0-.23h.02s0,0,0,.01c0,0,0,0,.01,0,0,0,0,0,0,0,.16-.07.31-.15.48-.22.01,0,.02-.01.02-.03,0,0,0,0,0,0,0,0-.01,0-.02,0,0-.02,0-.04.01-.06,0,0,0,0,0,0,.01-.01.02-.02.03-.04,0,0,0,0,0,0h-.02s0,0,0,0v-.05s.05-.02.05-.02h0ZM17.65,12.76s0,.02,0,.03c0,0,0,0,0,0,.16-.08.32-.15.48-.24.01,0,.02-.02,0-.03,0,0,0,0-.01,0l-.46.22s-.01,0-.02.02h0ZM18.13,12.67s.02-.02.01-.03c0,0,0,0,0,0-.04.01-.09.04-.12.06-.12.05-.24.11-.36.17-.01,0-.01.01,0,.02,0,.01,0,.01.02,0,.12-.06.24-.12.37-.18.03-.02.07-.04.1-.06h0Z"/>
      <path class="cls-1" d="M11.51,12.25s0,0,.01,0c.01.01.01.02,0,.03l-.51.24s-.01,0-.02,0c-.02-.01,0-.03.02-.04.16-.07.33-.16.48-.23h.01s0,0,0,0ZM18.95,12.24s0,.02.01.02c0,0,0,0,0,0,0,0,0,0,0,0-.06.03-.13.06-.19.09-.05.03-.15.07-.3.14-.01,0-.01-.01-.01-.02,0,0,0,0,0,0l.49-.23h0ZM15.71,12.55s0-.01.01-.02c.14-.07.27-.13.37-.18.06-.03.13-.07.2-.1,0,0,.01,0,.01,0,0,0,0,0,0,0,0,0,0,.02-.02.02-.1.05-.2.1-.3.15-.08.04-.19.1-.29.14,0,0,0,0,0,0,0,0,0,0,0,0,0,0,0,0,0-.01h0ZM11.92,12.26s0,.01,0,.02c0,0,0,0,0,0h.03s-.14.06-.14.06l-.81.39s0,0,0,0c0,0,0-.01,0-.02,0-.03.33-.17.38-.19.01,0,.03-.02.04-.03.1-.05.2-.09.3-.14.03-.01.06-.04.1-.05l.12-.05Z"/>
      <path class="cls-1" d="M18.96,12.26l.03.06c-.17.08-.34.16-.51.24-.02,0-.02.02,0,.03,0,0,0,0,.01,0,.09-.04.18-.08.27-.12.06-.03.16-.09.25-.12l.03.06s-.21.09-.24.1c-.04.02-.27.12-.28.14,0,0,0,.01,0,.02,0,0,0,0,0,0l.49-.24s0,0,0,0v-.02s.05.11.05.11c-.03,0-.1.03-.11.07,0,.02,0,.04.03.04-.13.06-.26.12-.39.19,0,0-.01.01,0,.02,0,0,0,0,0,0,.06-.02.13-.06.18-.08.07-.03.15-.07.22-.1,0,.02,0,.03.01.05,0,0,0,0,0,0h.04s0-.01,0-.01c.02.04-.08.05-.06.08,0,0,0,0,0,.01,0,0,0,.02,0,.02,0,0,0,0,.01,0,.01,0,.02-.01.04-.01,0,0,0,0,.01,0,0,0,.02-.01.03-.01,0,0,0,0,0,0h0s0,.02,0,.02l-.07.03s0-.02,0-.03c0,0,0,0-.01,0l-.29.14s-.02-.03-.03-.05l.29-.14s0,0,0,0h0s0-.02,0-.03c0,0,0,0,0,0l-.35.17s-.04-.07-.07-.03l-.16-.36s.03,0,.04-.01c.15-.06.25-.11.3-.14.06-.04.13-.06.19-.09,0,0,0,0,0,0,0,0,0,0,0,0h0ZM18.96,12.56c-.14.06-.27.12-.4.19-.01,0,0,.01,0,.03,0,0,0,0,0,0l.39-.19s0,0,0,0h0s0-.02,0-.02c0,0,0,0,0,0ZM15.21,12.28l.03.09s0,0,0,0c0,0,0,0-.01,0l-.09.04s-.02,0-.03-.01c-.01-.03.01-.05.04-.06.03-.01.05-.03.07-.05h0Z"/>
      <path class="cls-1" d="M14.55,12.29s.03.03.03.05c0,0-.02,0-.02.01,0,0,0,0,0,.01,0,0,0,.01.02.01.02,0,.04.02.05.04-.03,0-.04.02-.02.05.02,0,.04.02.04.05h-.02s0,.02,0,.02h0s0,.02.01.01l.05-.02s.04.02.03.05l-.06.03s0,0,0,.01h0s0,.02,0,.02c0,0,0,0,0,0,.15-.07.3-.14.45-.22l.11-.04.02.06s0,0,0,0c0,0,0,0,0,0l-.56.26s0,.01,0,.02c0,.02.02,0,.03,0,.05-.02.53-.25.54-.25,0,0,0,0,0,0h0s.02.05.02.05c-.05.02-.1.05-.14.06-.06.02-.13.06-.18.09-.08.04-.16.07-.24.11,0,0,0,0,0,.01h0s0,.02.01.02c.13-.06.25-.11.39-.18.05-.03.1-.05.16-.07,0,0,0,0,0,0,0,0,0,0,0,0l.02.07c-.06.02-.1.04-.14.05-.14.07-.28.14-.42.21,0,0,0,0,0,0,0,0,.01.01.02.02l-.03.02-.22-.63h.01s.02-.02.02-.02h0Z"/>
      <path class="cls-1" d="M16.44,12.3v.04s-.04,0-.05,0c-.11.06-.22.11-.32.16-.1.05-.26.13-.4.18,0,0,0,0-.01,0h-.01s0-.03,0-.03c0,0,.01,0,.02,0,0,0,0,0,0,0l.62-.3.1-.04s0,0,.01,0c0,0,.02-.01.03,0,0,0,0,0,0,0,0,0,0,0,0,0h0Z"/>
      <path class="cls-1" d="M12.89,12.31l.02.03-.56.27s0,0-.01,0c-.01,0-.02,0-.01-.02,0,0,0,0,0,0,.18-.09.38-.18.57-.27h0ZM14.69,12.53l-.05.02s0,0-.01,0h0s0-.02,0-.02h.02s.43-.21.43-.21c0,0,.01,0,.02,0,0,0,0,0,0,0,0,0,0,.02-.01.02-.13.06-.25.12-.38.18h0ZM19.9,12.33l-.02.03s0,0,0,0c-.03.01-.07.04-.1.05-.16.07-.31.15-.46.22,0,0-.01,0-.01,0,0,0,0,0,0,0,.02-.04.36-.19.42-.22.05-.02.12-.07.18-.09,0,0,0,0,0,0,0,0,0,0,0,0h0Z"/>
      <path class="cls-1" d="M20.75,12.33v.04s-.04,0-.06.02c-.21.1-.39.19-.57.27-.03-.01,0-.03,0-.04.21-.1.42-.2.63-.3Z"/>
      <path class="cls-1" d="M17.66,12.55s0,0,0,0c0,0,0,0,0,0l.38-.18s.09-.04.09-.03h0s-.04.04-.08.06l-.38.18s0,0,0,0v-.02Z"/>
      <path class="cls-1" d="M18.99,12.33v.03c-.08.03-.18.09-.24.12-.09.04-.18.08-.27.12,0,0,0,0-.01,0-.02-.01,0-.03,0-.03.17-.08.34-.16.51-.24h0Z"/>
      <path class="cls-1" d="M16.43,12.34l-.03.09s-.05.01-.07.02c-.22.1-.43.2-.65.31-.02,0-.07.04-.05.06,0,0,0,0,0,0,.15-.08.31-.15.45-.22.08-.04.17-.08.25-.12.01,0,.03,0,.04,0l-.03.07c-.07.03-.14.05-.21.09-.2.1-.35.17-.53.25-.02,0-.03.02-.03.04,0,0,0,0,0,0,0,0,0,0,0,0,.17-.08.34-.16.51-.24.07-.04.15-.07.23-.1-.02.08-.05.14-.07.21l-.61.29s0-.04-.03-.05l.66-.32s0,0,0,0v-.02s0,0,0,0c0,0,0,0,0,0l-.71.34s0,0,0,.01c0,0,0,0,0,0h.01s-.03.03-.05.02c.03-.13.07-.25.11-.37h.01s0,0,.01,0c.14-.05.3-.14.4-.18.11-.05.22-.1.32-.16.01,0,.02,0,.04,0h0ZM20.75,12.37v.06l-.61.29-.02-.06s0,0,0,0c.18-.07.36-.17.57-.27.02,0,.04-.01.06-.02ZM12.15,12.39s.04.02.05.04l-.24.12c-.32.15-.63.3-.95.45-.02,0-.02.02-.01.03,0,0,0,0,0,0l.95-.45.18-.09s0,0,0,0c0,0,0,0,0,.01l-.09.11s-.02-.02-.04,0c-.01,0-.04.02-.06.04-.3.14-.6.29-.9.43-.02.01-.04.02-.05.03,0,0,0,0,0,.01v.02s0,0,0,0l.72-.34v.03s0,0,0,.01c-.02,0-.02.02-.02.04-.08.04-.16.07-.24.11-.02,0-.03.02-.05.03-.14.06-.27.12-.4.19,0,0,0,0,0,.01v.02s0,0,0,0c0,0,0,0,0,0,0,0,0-.01,0-.02v-.31h0s0,.01,0,.02c.01,0,.02,0,.02,0l1.14-.54h0ZM12.94,12.41h0s0,.02-.01.03c0,0,0,0-.01,0-.03,0-.05.02-.07.04,0,0,0,0,0,.01l.02.02s0,0,0,0c0,0,.02,0,.02,0,0,0,0,0,.01,0l.05-.02s.01,0,.02,0c0,0,0,0,0,0h0s0,.02,0,.02c-.03,0-.05.03-.07.05,0,0,0,0,0,.01,0,.01.02.02.03.03-.11.05-.21.09-.31.15-.06.03-.13.06-.2.1,0,0,0,0,0,0,0,.02.02.02.03.01.14-.06.28-.13.42-.2.06-.03.12-.06.18-.09l.08.14s-.06.03-.1.05c-.11.05-.23.11-.33.16-.05.03-.16.06-.2.1l-.18-.32s.05,0,.07-.02l.43-.2s0,0,0,0c0-.01,0-.02-.01-.03.04-.03.08-.05.13-.05h0ZM12.9,12.54s-.01-.01-.02,0h0s-.49.23-.49.23c0,0-.01.01,0,.02h0s0,0,0,0c0,0,.01.01.02,0h0s.49-.23.49-.23c0,0,.01-.01,0-.02h0s0,0,0,0ZM13,12.7s-.01-.01-.02,0h0l-.5.24s-.01.01,0,.02h0s0,0,0,0c0,0,.01.01.02,0h0s.5-.24.5-.24c0,0,.01-.01,0-.02h0s0,0,0,0h0Z"/>
      <path class="cls-1" d="M15.12,12.43c-.15.08-.3.15-.45.22,0,0-.01,0-.01,0,0,0,0,0,0,0h0s0-.02,0-.02l.06-.03.37-.18s0,0,0,0c.02,0,.03,0,.02.02h0Z"/>
      <path class="cls-1" d="M12.94,12.41l.08.15-.09.06s-.03-.02-.03-.03c0,0,0,0,0-.01.02-.02.04-.04.07-.05,0,0,0,0,0-.01h0s0-.02-.01-.02c0,0,0,0,0,0l-.05.02s0,0-.01,0c0,0-.01,0-.02,0,0,0,0,0,0,0l-.02-.02s0,0,0-.01c.02-.02.04-.03.07-.04,0,0,0,0,.01,0,0,0,0-.02.01-.02h0Z"/>
      <path class="cls-1" d="M16.4,12.43l-.02.04s-.03,0-.04,0c-.08.04-.17.08-.25.12-.14.07-.3.14-.45.22,0,0,0,0,0,0-.02-.02.03-.05.05-.06.22-.1.43-.21.65-.31.02-.01.04-.04.07-.02h0ZM19.03,12.42v.02s-.01,0-.01,0l-.49.24s0,0,0,0c0,0,0-.01,0-.02,0-.03.24-.13.28-.14.03-.01.21-.12.24-.1h0ZM17.64,12.66s.06-.04.09-.05c.12-.05.26-.12.38-.18,0,0,.01,0,.02,0,0,0,0,0,0,0,0,.01,0,.02-.02.03-.17.08-.31.15-.48.22,0,0,0,0-.01,0,0,0,0,0,0,0,0,0,0-.01,0-.02ZM19.84,12.48l-.58.27s-.01-.03,0-.04c.07-.04.24-.12.51-.24l.1-.05s0,0,0,0c0,0,0,0,0,0,0,.02-.02.03-.04.04h0ZM20.75,12.43v.06s-.02-.01-.03,0c-.16.06-.31.15-.51.24-.02,0-.04.02-.06.04l-.04.02s0,0,0,0c0-.02.03-.04.04-.05l.61-.29h0ZM15.26,12.45v.03s0,0,0,0c0,0,0,0,0,0,0,0-.49.22-.54.25-.01,0-.03.01-.03,0,0,0,0-.01,0-.02l.56-.26s0,0,0,0c0,0,0,0,0,0h0ZM12.81,12.46s.02.01.01.03c0,0,0,0,0,0l-.43.2s-.02,0-.02-.02c0,0,0,0,0,0l.44-.21Z"/>
      <path class="cls-1" d="M20.75,12.49v.05s0,0,0,0c-.19.09-.39.18-.58.28,0-.02,0-.04-.02-.06.02-.01.04-.03.06-.04.2-.09.35-.18.51-.24.01,0,.02,0,.03,0ZM19.84,12.48s-.02.02-.02.04c0,0,0,0,0,0,0,0,0,0-.01.02,0,0,0,0,0,0h.01s-.56.27-.56.27c0-.02,0-.04-.02-.06h0s.58-.28.58-.28h0Z"/>
      <path class="cls-1" d="M19.93,12.52l-.02.04s-.06.02-.1.04c-.15.07-.44.21-.87.42-.1.05-.17.08-.21.1,0,0,0,0-.01,0-.01,0-.02,0-.02,0,0,0,0-.02,0-.02l.54-.26.56-.27.06-.03s0,0,.01,0c0,0,.02,0,.03,0h0Z"/>
      <rect class="cls-1" x="12.35" y="12.65" width=".57" height=".03" rx=".02" ry=".02" transform="translate(-4.21 6.64) rotate(-25.4)"/>
      <path class="cls-1" d="M15.29,12.53v.03s0,0,0,0c0,0,0,0,0,0-.05.02-.11.04-.16.07-.14.07-.26.12-.39.18,0,0,0,0-.01,0h0s0-.02,0-.02c.08-.04.16-.07.24-.11.05-.02.11-.06.18-.09.05-.02.09-.05.14-.06h0ZM17.65,12.76s.01-.01.02-.02l.46-.22s0,0,.01,0c.01.01,0,.02,0,.03-.16.08-.32.16-.48.24,0,0,0,0,0,0,0-.01,0-.02,0-.03h0Z"/>
      <path class="cls-1" d="M19.08,12.53l.11.29s0,0,0,0c0,0,0,0,0,0v-.05s.05-.01.05-.01c0,.02.02.04.02.06l-.54.26s0,.01,0,.02c0,0,0,0,.02,0,0,0,0,0,.01,0,.04-.02.1-.05.21-.1.43-.2.72-.34.87-.42.04-.02.07-.03.1-.04l-.04.1h0s0-.01-.01-.01c0,0-.01.01-.02.01-.04.02-.1.05-.18.09-.11.06-.25.11-.38.18-.1.05-.21.09-.31.15-.07.04-.14.07-.21.1,0,0-.01,0,0,.02,0,0,0,0,.01,0,0,0,0,0,0,0,.13-.05.3-.14.38-.18.24-.11.48-.23.72-.35l-.05.1s-.06.01-.08.03c-.1.06-.22.1-.33.16-.12.06-.26.12-.38.19-.02.01-.08.04-.18.08,0,0,0,0,0,.01h0s0,.02.01.02c0,0,0,0,0,0,.18-.08.35-.17.53-.25.03-.01.05-.03.08-.04.12-.05.23-.11.35-.16l-.05.11s-.05.02-.08.03c-.1.04-.22.1-.29.13-.1.05-.18.08-.29.14-.08.04-.18.08-.27.13,0,0,0,0,0,.01h0s0,.02.01.01c.16-.07.31-.15.46-.21.15-.07.3-.15.43-.2l-.05.12s0-.02,0-.02c0,0,0,0-.01,0-.12.06-.25.12-.37.18-.1.05-.22.11-.34.16-.02,0-.02.02,0,.03,0,0,.01,0,.02,0,.23-.11.46-.21.68-.33.01,0,.02,0,.03,0l-.05.12s0-.01-.01-.02c0,0,0,0-.01,0-.08.04-.16.07-.25.11-.04.02-.08.04-.11.06-.13.06-.24.1-.32.16,0,0,0,0,0,.01h0s0,.01.01,0c.12-.06.24-.11.36-.17.02,0,.03-.02.05-.03.07-.04.15-.07.23-.11,0,0,0,0,.01,0,0,0,.02,0,.03,0l-.06.12h0s0,0,0,0h0s0,0,0,0c-.14.06-.27.14-.41.2-.04.02-.1.06-.15.07,0,0,0,0-.01,0h-.02s-.34-.76-.34-.76c.03-.04.06,0,.07.03-.01,0-.02.01-.02.02,0,0,0,0,0,.01,0,.02.07-.02.09-.02,0,.02.01.04.03.05l-.07.03s0,0,0,.01v.02s0,0,.01,0l.37-.18.07-.03s0,0,0,0h0s0-.02,0-.02c-.01,0-.02,0-.03.01,0,0,0,0-.01,0-.01,0-.03,0-.04.01,0,0,0,0-.01,0,0,0,0-.01,0-.02,0,0,0,0,0-.01-.02-.02.07-.04.06-.08,0,0,0,0,0,0h-.04s0,.01,0,.01c-.01-.02-.02-.03-.01-.05.03-.02.05-.03.08-.05.02,0,.02-.02,0-.03,0,0,0,0-.01,0l-.08.05s-.04-.02-.03-.04c.01-.03.08-.06.11-.07h0Z"/>
      <path class="cls-1" d="M20.75,12.54v.03c-.05.02-.1.05-.15.07-.01,0-.03.02-.04.03-.14.06-.28.13-.41.2h-.03s0,0,0,0c-.01-.03.05-.04.06-.06.19-.09.38-.19.58-.28,0,0,0,0,0,0h0ZM16.36,12.55s0,.03-.02.04c-.08.03-.15.06-.23.1-.17.09-.34.16-.51.24,0,0,0,0,0,0,0,0,0,0,0,0,0-.02,0-.03.03-.04.18-.09.33-.16.53-.25.07-.03.14-.06.21-.09h0ZM11.95,12.59l-.95.45s0,0,0,0c0-.02,0-.03.01-.03.32-.15.63-.3.95-.45,0,0,0,0,.01,0,0,0,0,0,0,0,0,.01-.01.02-.02.03h0ZM13.02,12.56l.02.03c-.06.03-.12.06-.18.09-.14.07-.28.14-.42.2-.01,0-.03,0-.03-.01,0,0,0,0,0,0,.07-.04.14-.06.2-.1.1-.05.21-.1.31-.15l.09-.06h0ZM18.96,12.56s0,0,0,0c0,0,0,0,0,0h0s0,.02,0,.02l-.39.19s0,0,0,0c-.01-.01-.01-.02,0-.03.13-.07.26-.13.4-.19Z"/>
      <path class="cls-1" d="M20.75,12.57v.18s-.08.03-.1.04c-.13.06-.23.1-.3.14-.06.03-.11.06-.15.07l-.02-.06.45-.21s0,0,0,0v-.02s0,0,0,0c0,0,0,0,0,0l-.47.22s0-.04-.02-.05c.14-.07.27-.14.41-.2.01,0,.03-.02.04-.03.05-.02.1-.04.15-.07Z"/>
      <path class="cls-1" d="M19,12.67c-.07.03-.15.07-.22.1-.05.02-.12.06-.18.08,0,0,0,0,0,0,0-.01,0-.02,0-.02.13-.07.26-.13.39-.19l.08-.05s0,0,.01,0c.02,0,.01.02,0,.03-.03.01-.05.03-.08.05h0Z"/>
      <path class="cls-1" d="M12.05,12.63s-.03.04-.05.05c-.1.03-.2.08-.29.13l-.72.34s0,0,0,0v-.02s0,0,0-.01c.01-.01.03-.02.05-.03.3-.14.6-.29.9-.43.03-.01.05-.03.06-.04.02-.01.03-.01.04,0h0Z"/>
      <path class="cls-1" d="M15.32,12.63v.03c-.08.03-.17.09-.24.12-.1.04-.2.09-.29.14h-.02s-.02,0-.02,0c0,0,0,0,0,0,.14-.07.28-.14.42-.21.03-.02.08-.04.14-.05ZM18.13,12.67s-.06.04-.1.06c-.12.05-.25.11-.37.18,0,0-.02,0-.02,0,0-.01,0-.02,0-.02.12-.06.24-.12.36-.17.04-.02.08-.05.12-.06,0,0,0,0,0,0,0,.01,0,.02-.01.03h0Z"/>
      <path class="cls-1" d="M19.87,12.66v.02c-.25.12-.49.23-.73.35-.09.04-.25.13-.38.18,0,0-.01,0-.01,0,0,0,0,0,0,0,0,0,0-.02,0-.02.07-.03.14-.07.21-.1.1-.05.21-.1.31-.15.14-.07.28-.13.38-.18.08-.04.14-.07.18-.09,0,0,0,0,.02-.01,0,0,0,0,.01,0h0s0,.01,0,.01Z"/>
      <path class="cls-1" d="M15.33,12.65l.04.15c-.06.03-.13.07-.19.09-.09.04-.19.08-.28.13,0-.03,0-.04-.03-.05.11-.06.24-.1.35-.17,0,0,0,0,0-.01h0s0-.02,0-.02l-.39.18-.03-.04s0,0,0,0h-.01c.1-.05.2-.09.29-.14.07-.03.16-.08.25-.12h0Z"/>
      <path class="cls-1" d="M20.12,12.66l.02.06s-.05.03-.04.05c0,0,0,0,0,0l.04-.02s.02.04.02.06c-.02.01-.08.03-.06.06,0,0,0,0,0,0h.03s.02.03.02.05c-.02.01-.07.03-.06.05,0,0,0,0,0,0l.07-.03.02.06s-.11.04-.1.07c0,0,0,0,.01,0,0,0,0,0,0,0,.13-.05.28-.13.39-.18.08-.04.17-.08.25-.12v.08s0,0,0,0c0,0,0,0,0,0-.21.1-.41.19-.62.29-.01,0-.02.02-.02.03,0,0,0,0,.01,0,0,0,0,0,0,0,.13-.06.23-.1.4-.19.08-.04.16-.07.24-.1v.06s-.05.02-.07.03c-.16.08-.32.15-.48.23-.02,0-.08.04-.08.07,0,0,0,0,0,0,.04-.02.08-.04.12-.06.11-.05.18-.08.31-.15.06-.03.12-.06.19-.08v.17h0s0,0,0,0c-.04.02-.07.04-.11.06-.06.03-.12.05-.17.08-.1.05-.22.11-.33.16,0,0,0,0,0,0,0,.01,0,.02.01.02-.02.01-.03.02-.05.02v-.1h0s0,0,0,0c.19-.09.32-.16.39-.19.06-.03.12-.06.16-.09,0,0,0-.01,0-.02,0,0,0,0,0,0,0,0,0,0,0,0l-.56.27s0,0,0,0h0s0-.71,0-.71c.01,0,.03,0,.04-.01Z"/>
      <path class="cls-1" d="M18.27,12.67v.04c-.09.05-.19.09-.28.14-.09.04-.21.1-.32.15h-.02s0,0,0,0c-.01-.03.03-.04.04-.05l.59-.29h0Z"/>
      <path class="cls-1" d="M12.01,12.68s-.06.09-.1.12c0,0-.01,0-.02,0,0,0,0,0-.01,0-.06.04-.12.07-.19.1,0-.02,0-.03.02-.04,0,0,0,0,0-.01v-.03c.09-.06.19-.1.29-.13h0Z"/>
      <path class="cls-1" d="M15.63,13.03h-.03s-.01,0-.01,0c0,0,0-.01,0-.01,0,0,0,0,0,0l.71-.34s0,0,.01,0c0,0,0,0,0,0v.02s0,0,0,0l-.66.32h0Z"/>
      <rect class="cls-1" x="12.44" y="12.81" width=".59" height=".03" rx=".02" ry=".02" transform="translate(-4.28 6.73) rotate(-25.5)"/>
      <path class="cls-1" d="M20.18,12.95l-.07.03s0,0,0,0c0-.03.04-.04.06-.05l.47-.22s0,0,.01,0c0,0,0,0,0,0v.02s0,0-.01,0l-.45.21Z"/>
      <path class="cls-1" d="M18.27,12.71v.08s0,0,0-.01c0,0,0,0,0,0-.02.01-.03.03-.05.04-.17.08-.35.16-.52.24,0-.02,0-.04-.03-.05.11-.05.22-.11.32-.15.1-.04.19-.09.28-.14h0Z"/>
      <path class="cls-1" d="M13.12,12.73v.02s-.09.06-.13.08c-.16.08-.32.16-.48.23v-.02s.14-.08.19-.1c.1-.04.22-.11.33-.16.03-.01.07-.03.1-.05h0Z"/>
      <path class="cls-1" d="M18.72,12.92s-.08.04-.09.02c0,0,0,0,0-.01,0,0,.01-.02.02-.02l.35-.17s.01,0,.02,0c0,0,0,0,0,0h0s0,.02,0,.02l-.29.14Z"/>
      <path class="cls-1" d="M13.13,12.75l.08.15s-.09.04-.14.06c-.16.07-.31.15-.48.22,0,0,0,0,0,.01h0s0,.02,0,.02c.17-.07.29-.13.35-.15.11-.06.2-.1.27-.14l.08.15c-.06.02-.11.04-.17.07-.16.08-.3.14-.45.22-.01,0-.01.02,0,.02,0,0,.02,0,.03,0,.19-.1.39-.19.59-.28,0,0,0,0,0-.01l.03.06s-.09.04-.14.06c-.03.01-.06.03-.09.05-.13.06-.25.12-.38.18,0,0,0,0,0,.01h0s0,.02.01.01l.61-.29.09.16c-.12.07-.25.13-.38.19-.07.03-.15.08-.23.11,0,0-.01,0-.01,0,0,0,0-.01,0-.01l.04-.02s0,0,0,0c0-.02-.02-.03-.03-.04l.55-.27s0,0,0-.01c0,0,0,0,0,0,0-.01-.02-.02-.03-.01-.08.03-.16.08-.23.11-.13.06-.25.12-.37.18l-.27-.48c.16-.07.33-.15.48-.23.04-.02.1-.04.15-.08h0ZM13.16,12.83s-.01,0-.02,0l-.58.27s0,.01,0,.02h0s.01.01.02.01h0s.58-.27.58-.27c0,0,0-.01,0-.02h0s0,0,0,0ZM13.26,13h0s0-.02-.01-.02c-.17.07-.33.16-.52.24-.02.01-.05.03-.07.04,0,0,0,0,0,0,0,0,.02,0,.03,0,.19-.09.38-.18.57-.27,0,0,0,0,0-.01h0Z"/>
      <path class="cls-1" d="M20.75,12.75v.02c-.08.04-.17.08-.25.12-.11.05-.26.13-.39.18,0,0,0,0-.01,0,0,0,0,0,0,0-.01-.03.08-.06.1-.07.04-.02.09-.04.15-.07.07-.03.17-.08.3-.14.02-.01.08-.05.1-.04h0ZM14.88,12.97l-.08.04s0,0,0,0c-.01-.03.03-.04.05-.05l.39-.18s0,0,0,0h0s0,.02,0,.03c-.11.06-.23.11-.35.17h0ZM18.28,12.79v.03s-.62.29-.62.29c0,0-.01,0-.02,0,0,0,0,0,0,0h0s0-.01,0-.02l.05-.03c.17-.08.35-.16.52-.24.02,0,.03-.02.05-.04,0,0,0,0,0,0,0,0,0,0,0,.01h0ZM19.82,12.78v.03c-.13.06-.24.11-.36.16-.03.01-.05.03-.08.04-.18.08-.35.16-.53.25,0,0-.01,0-.01,0,0,0,0,0,0,0h0s0-.02,0-.02c.1-.04.16-.07.18-.08.13-.07.26-.12.38-.19.11-.05.23-.09.33-.16.03-.02.05-.03.08-.03ZM11.91,12.8l-.05.06h-.01s0-.02-.01-.01c-.27.15-.56.27-.83.41,0,0,0,0,0,0h0s0-.02,0-.02c0,0,0,0,0-.01.13-.07.26-.13.4-.19.02,0,.03-.02.05-.03.08-.04.16-.07.24-.11.07-.03.13-.06.19-.1,0,0,0,0,.01,0,0,0,.01,0,.02,0h0ZM15.37,12.8v.03s-.08.05-.08.05c-.15.07-.3.14-.45.22-.01,0-.02,0-.03-.01,0,0,0,0,0,0l.09-.05c.09-.05.18-.09.28-.13.06-.03.12-.07.19-.09ZM16.27,12.8s0,.04-.01.05c-.01,0-.03,0-.04,0-.1.05-.21.1-.31.15-.11.06-.24.11-.36.17,0,0,0,0-.01,0,0,0,0,0,0,0-.01-.03.07-.07.12-.09l.61-.29h0Z"/>
      <path class="cls-1" d="M18.27,12.82v.07s0,.09,0,.09c0,0,0,0,0,.01-.19.08-.39.18-.57.27-.02,0-.07.04-.06.06,0,0,0,0,0,0,.04-.01.08-.04.1-.05.16-.07.32-.15.48-.23.01,0,.03,0,.04,0v.17s0-.02-.02-.01c-.12.06-.22.11-.3.15-.09.04-.19.1-.29.14,0,0,0,0,0,0,0,.01,0,.02.02.02l-.06.02v-.63s.04,0,.04,0c0,0,0,0,0,0v.05s-.04.02-.03.05c0,0,0,0,0,0h.02s.03.02.03.05l-.05.03s0,0,0,.01h0s0,.02.01.02c0,0,0,0,0,0l.62-.29h0ZM18.26,12.89c-.21.1-.41.19-.61.29-.01,0-.02.02,0,.03,0,0,0,0,0,0,.21-.09.41-.19.58-.27.01,0,.02,0,.03,0,0,0,0,0,0,0v-.03s0,0,0,0c0,0,0,0,0,0ZM17.68,13.41c.06-.02.12-.06.17-.08.12-.05.23-.11.33-.16.03-.02.06-.03.08-.03,0,0,0,0,0,0v-.03s0,0-.01,0c-.06.03-.11.05-.17.08,0,0-.01.02-.02.02-.14.06-.27.12-.4.19,0,0,0,0,0,0h0s0,.02.01.02h0Z"/>
      <rect class="cls-1" x="12.53" y="12.96" width=".66" height=".03" rx=".01" ry=".01" transform="translate(-4.31 6.74) rotate(-25.3)"/>
      <path class="cls-1" d="M15.38,12.83l.1.35s-.02,0-.03,0l-.07.03s0-.03-.02-.04c0,0,0-.01,0-.01,0,0,0,0,0,0,.01,0,.07-.03.06-.05,0,0,0,0-.01,0-.01,0-.04.02-.06.01,0,0,0,0,0-.01v-.03s0,0,0,0l.06-.04s0,0,0,0h0s0-.01,0-.02h0s0,0-.01,0l-.04.02s-.01,0-.01,0c0,0,0,0,0,0v-.05s.05-.03.05-.03c.01,0,.01-.02,0-.02-.02,0-.07.03-.09.04,0,0,0,0,0,0,0,0,0,0,0,0,0-.02,0-.04,0-.06l.09-.05h0Z"/>
      <path class="cls-1" d="M19.05,12.86l-.37.18s0,0-.01,0v-.02s0,0,0-.01l.07-.03.29-.14s.01,0,.01,0c0,0,0,.02,0,.03h0Z"/>
      <path class="cls-1" d="M16.25,12.85l-.03.07s-.02,0-.03,0c-.28.13-.55.26-.83.4-.08.04-.23.12-.35.16-.01,0-.03.01-.04.03,0,0,0,0,0,.01h0s0,.02.01.02c.1-.04.19-.09.28-.13.04-.02.07-.04.1-.05.14-.06.28-.13.4-.19.12-.05.19-.09.23-.11.07-.04.14-.08.2-.09l-.03.08s-.21.09-.23.1c-.17.08-.34.17-.53.25-.04.02-.07.04-.1.06-.09.04-.17.08-.26.12-.02.01-.06.02-.05.05,0,0,0,0,0,0,.03-.01.05-.03.08-.04.06-.03.12-.06.18-.08.12-.05.27-.13.4-.19.03-.01.06-.03.09-.05.08-.04.17-.08.25-.12.03-.01.07-.04.12-.06.02,0,.03-.02.04-.02l-.06.16s-.1.02-.14.04c0-.01,0-.02,0-.03,0,0,0,0-.01,0-.05.02-.09.04-.14.06-.05.02-.1.06-.15.08-.13.05-.27.13-.39.18-.08.04-.17.08-.25.12-.01,0-.02-.02-.03-.03l-.14-.38c.16-.07.29-.14.43-.2.02,0,.03-.02.03-.04,0,0,0,0,0,0-.06.03-.13.05-.19.09-.09.05-.19.08-.26.14l-.12-.33.03-.02h.02s.01,0,.01,0c0,0,0,0,0,0l.03.04s-.06.02-.05.05c0,0,0,0,0,0l.08-.04s.03.03.03.05l-.09.05s0,0,0,0c0,.01.01.02.03.01.15-.07.3-.15.45-.22,0,.02,0,.04,0,.06,0,0,0,0,0,0,0,0,0,0,0,0-.15.07-.3.14-.44.21-.01,0-.01.01,0,.03,0,0,0,0,0,0,.05-.02.1-.04.15-.07.11-.06.23-.11.34-.17v.05s0,0,0,.01c0,0,0,0,0,0l.04-.02s0,0,.01,0h0s0,0,0,0h0s0,.02,0,.02l-.06.04s0,0,0,0v.03s0,0,0,.01c.02,0,.04,0,.06-.01,0,0,0,0,.01,0,.01.02-.04.04-.06.05,0,0,0,0,0,.01,0,0,0,0,0,0,.01.01.02.03.02.04l-.42.2s0,0,0,0c-.02.02-.02.03,0,.03,0,0,0,0,.01,0,.17-.08.33-.15.49-.23,0,0,0,0,0,0v-.02s0-.01.02,0v.04s.02.02.02,0l.04-.16s.04,0,.05-.01h.03s.03.02.03.04c-.05.02-.13.05-.12.09,0,0,0,0,.01,0,0,0,0,0,0,0,.12-.06.24-.12.36-.17.1-.05.2-.1.31-.15.01,0,.03,0,.04,0h0ZM15.35,13.14s-.01-.01-.02,0l-.41.2s-.01.01,0,.02h0s.01.01.02,0l.41-.2s.01-.01,0-.02h0ZM11.86,12.87l-.15.17c-.05,0-.1.02-.14.05v-.03s0,0,0-.01c0,0,0,0,0,0-.1.05-.2.1-.31.15-.08.03-.17.09-.26.12-.01,0-.02.02-.01.04,0,0,0,0,0,0l.51-.24v.06s0,0,0,0c0,0,0,0,0,0l.11-.06s0,0,0,0v.02s0,0,0,0l-.14.07s.01-.01.01-.03c0,0,0,0,0,0,0,0,0,0,0,0-.13.05-.25.12-.38.18-.02.01-.13.05-.14.07,0,0,0,.02,0,.03,0,0-.01,0-.02,0v-.23s0,.01,0,.02c0,0,0,0,0,0,0,0,0,0,0,0h0s0,0,0,0c.28-.14.56-.26.83-.41,0,0,0,0,.01,0h.01s0,.01,0,.01Z"/>
      <path class="cls-1" d="M20.75,12.86v.04c-.08.03-.16.06-.24.1-.17.08-.26.13-.4.19,0,0-.01,0-.01,0,0,0,0,0,0,0,0-.01.01-.02.02-.03.21-.1.41-.2.62-.29,0,0,0,0,0,0,0,0,0,0,0,0h0ZM18.26,12.89s0,0,.01,0c0,0,0,0,0,0v.03s0,0,0,0c-.01,0-.02,0-.03,0-.17.08-.37.18-.58.27,0,0,0,0,0,0,0-.01,0-.02,0-.03.2-.1.4-.19.61-.29Z"/>
      <path class="cls-1" d="M18.28,12.89v.15s-.03,0-.04,0c-.16.08-.32.16-.48.23-.03.01-.07.04-.1.05,0,0,0,0,0,0,0-.02.04-.05.06-.06.19-.09.38-.19.57-.27,0,0,0,0,0-.01v-.09s0,0,0,0ZM13.22,12.9v.02c-.06.04-.15.08-.26.14-.06.03-.17.08-.35.15,0,0,0,0,0,0h0s0-.02,0-.03c.16-.07.32-.15.48-.22.05-.02.09-.04.14-.06h0ZM15.35,12.95c-.12.05-.23.11-.34.17-.05.03-.1.05-.15.07,0,0,0,0,0,0,0-.01,0-.02,0-.03.15-.07.29-.15.44-.21.02,0,.07-.05.09-.04.01,0,.01.01,0,.02l-.04.03ZM19.75,12.92l-.02.03c-.13.05-.28.13-.43.2-.15.07-.3.15-.46.21,0,0,0,0-.01,0h0s0-.02,0-.02c.09-.05.19-.09.27-.13.11-.06.19-.09.29-.14.07-.03.19-.09.29-.13.02,0,.04-.04.08-.03h0Z"/>
      <path class="cls-1" d="M16.22,12.92l-.02.05c-.06,0-.13.05-.2.09-.04.02-.11.05-.23.11-.12.06-.27.13-.4.19-.03.01-.07.04-.1.05-.09.04-.19.08-.28.13,0,0-.01,0-.01,0h0s0-.02,0-.02c.02-.01.03-.02.04-.03.12-.05.27-.13.35-.16.28-.13.55-.26.83-.4,0,0,.02,0,.03,0h0Z"/>
      <path class="cls-1" d="M20.75,12.96v.04c-.07.02-.13.05-.19.08-.14.07-.21.1-.31.15-.03.02-.08.04-.12.06,0,0,0,0,0,0,0-.02.06-.06.08-.07.16-.08.32-.15.48-.23.02-.01.05-.02.07-.03h0ZM13.26,13s0,0,0,.01c-.19.09-.38.18-.57.27,0,0-.02,0-.03,0,0,0,0,0,0,0,.02-.01.05-.03.07-.04.19-.09.35-.17.52-.24,0,0,0,0,.01,0h0s0,.01,0,.01Z"/>
      <path class="cls-1" d="M11.71,13.04l-.06.07s0,0,0,.01v.02s0-.02,0-.02c0,0,0,0,0,0l-.11.06s0,0-.01,0c0,0,0,0,0,0v-.06s.07-.04.07-.04c.04-.03.09-.04.14-.05h0Z"/>
      <path class="cls-1" d="M14.87,13.28v-.02c.06-.06.16-.09.26-.14.06-.03.12-.06.19-.09,0,0,0,0,0,0,0,.02,0,.03-.03.04-.14.06-.27.13-.43.2Z"/>
      <path class="cls-1" d="M16.18,13.05v.03s-.03.02-.05.02c-.04.01-.09.04-.12.06-.08.04-.17.08-.25.12-.03.01-.06.03-.09.05-.14.06-.28.13-.4.19-.06.03-.12.06-.18.08-.02.01-.05.03-.08.04,0,0,0,0,0,0,0-.03.03-.04.05-.05.09-.04.17-.08.26-.12.03-.02.07-.04.1-.06.18-.08.35-.17.53-.25.03-.01.23-.12.23-.1h0Z"/>
      <path class="cls-1" d="M11.57,13.08l-.06.04-.51.24s0,0,0,0c0-.02,0-.03.01-.04.09-.04.18-.09.26-.12.1-.05.21-.1.31-.15,0,0,0,0,.01,0,0,0,0,0,0,0v.03s0,0,0,0Z"/>
      <path class="cls-1" d="M19.68,13.07v.02s-.03,0-.04,0c-.22.11-.45.22-.68.33,0,0-.01,0-.02,0-.01,0,0-.02,0-.03.12-.05.24-.12.34-.16.13-.06.25-.12.37-.18,0,0,0,0,.01,0,0,0,0,.01,0,.02h0Z"/>
      <path class="cls-1" d="M13.31,13.06h0s0,.02,0,.03c-.19.1-.39.19-.59.28,0,0-.02,0-.03,0-.01,0-.01-.02,0-.02.15-.08.29-.14.45-.22.05-.03.11-.05.17-.07h0Z"/>
      <path class="cls-1" d="M17.67,13.4h0s0-.02,0-.02c.13-.07.27-.13.4-.19,0,0,.02-.02.02-.02.06-.02.11-.05.17-.08,0,0,0,0,0,0v.03s0,0,0,0c-.03,0-.06.01-.08.03-.1.06-.21.11-.33.16-.05.02-.11.06-.17.08,0,0-.01,0-.01,0h0Z"/>
      <path class="cls-1" d="M20.08,13.4v-.03h0s0,0,0,0l.56-.27s0,0,.01,0c0,0,0,0,0,0,0,0,0,.02,0,.02-.05.03-.1.06-.16.09-.07.03-.2.09-.39.19,0,0,0,0,0,0h0s0,0,0,0Z"/>
      <rect class="cls-1" x="14.89" y="13.23" width=".49" height=".03" rx=".02" ry=".02" transform="translate(-4.24 7.84) rotate(-25.6)"/>
      <path class="cls-1" d="M13.35,13.14l.02.03-.61.29s0,0-.01,0h0s0-.02,0-.02c.12-.07.25-.13.38-.18.03-.01.06-.04.09-.05.05-.02.1-.04.14-.06h0Z"/>
      <path class="cls-1" d="M11.64,13.15v.63s-.12.05-.12.05c0,0,0,0,0,0,.02.04-.02.03-.02.05,0,0,0,0,0,0l.11-.05s0,0,0,0c0,0,0,0,0,0v.02s-.01,0-.01,0c-.08.03-.16.08-.24.11-.04.02-.07.04-.11.04,0,0,0,0,0,0h0s0-.02,0-.02c.01,0,.02-.01.03-.02,0,0,0,0,0-.01,0,0,0,0,0,0-.04,0-.07-.01-.11,0-.03.01-.14.07-.17.06,0,0,0,0,0-.01,0,0,0,0,0,0l.14-.07s0,0,0-.01c0,0-.01,0-.02,0,0,0,0,0-.01,0-.03.02-.04-.02-.06,0l.56-.27s0,0,0,0v-.02s0,0,0,0c-.11.05-.23.1-.34.15-.02.01-.05.03-.07.04-.07.03-.15.07-.22.1-.02,0-.03.02-.02.04h0s0-.1,0-.1c.06-.03.12-.05.17-.08.14-.07.26-.12.39-.18.03-.01.06-.04.1-.05,0,0,0,0,0,0v-.02s0,0,0,0c-.03,0-.05.02-.08.03-.13.07-.28.13-.41.2-.06.03-.11.06-.17.09v-.4s.02,0,.02,0c.17-.07.34-.16.51-.24l.14-.07h0ZM11.64,13.26s0-.01,0-.02c0,0,0,0,0,0-.01,0-.02,0-.03,0,0,0,0,0,0,0-.14.06-.29.14-.4.19-.06.03-.13.06-.19.09-.02,0-.03.02-.02.04,0,0,0,0,0,0l.64-.31h0ZM11,13.64s-.01.01,0,.02c0,0,0,0,.02,0,0,0,0,0,0,0l.63-.3s0,0,0,0h0s0-.02,0-.02c0,0,0,0,0,0-.07.04-.16.07-.23.11-.03.02-.05.03-.07.04-.11.05-.22.1-.33.16h0ZM10.99,13.76s0,.01,0,.02c0,0,0,0,0,0,.09-.03.18-.09.26-.12.12-.06.24-.11.36-.18,0,0,.01,0,.02,0,0,0,0,0,0,0h0s0-.03-.01-.03c0,0,0,0,0,0-.07.02-.14.07-.19.09-.15.07-.29.14-.43.21,0,0,0,0,0,.01,0,0,0,0,0,0h0Z"/>
      <path class="cls-1" d="M20.75,13.17v.03s-.04,0-.06.02c-.12.07-.25.12-.37.18-.05.03-.11.05-.16.08h-.02s-.02,0-.01-.01c0,0,0,0,0,0,.11-.05.22-.11.33-.16.06-.03.12-.05.17-.08.04-.02.07-.04.11-.06,0,0,0,0,0,0h0s0,0,0,0ZM15.45,13.18v.02s0,0,0,0c-.16.08-.33.16-.49.23,0,0,0,0-.01,0-.02,0-.02-.01,0-.03,0,0,0,0,0,0l.42-.2.07-.03ZM11.5,13.22c-.17.08-.34.17-.51.24,0,0,0-.02,0-.03,0-.02.11-.06.14-.07.13-.06.25-.12.38-.18,0,0,0,0,.01,0,0,0,0,0,0,0,0,.01,0,.02-.01.03ZM19.62,13.21v.02s-.03,0-.04,0c0,0,0,0-.01,0-.08.03-.15.07-.23.11-.02,0-.03.02-.05.03-.12.05-.24.11-.36.17,0,0,0,0-.01,0h0s0-.01,0-.02c.09-.06.19-.1.32-.16.04-.02.07-.04.11-.06.08-.04.17-.07.25-.11,0,0,0,0,.01,0,0,0,0,.01.01.02h0ZM18.28,13.21h0c-.1.07-.19.12-.29.16-.1.04-.2.1-.3.14-.01,0-.02,0-.02-.02,0,0,0,0,0,0,.1-.04.2-.1.29-.14.08-.04.18-.09.3-.15,0,0,.01,0,.02.01h0Z"/>
      <path class="cls-1" d="M20.75,13.2v.1s0,0,0,0l-.63.3s-.01,0-.02,0c0,0,0,0,0,0h0s0-.02,0-.02c.03,0,.05-.02.07-.03,0,0,0,0,0-.01,0-.02,0-.03-.02-.05.06-.02.11-.05.16-.08.12-.06.25-.12.37-.18.02-.01.04-.01.06-.02Z"/>
      <path class="cls-1" d="M18.28,13.22v.57s-.02-.03-.02-.03c0,0,0,0-.01,0-.09.05-.19.1-.28.14-.07.03-.16.08-.25.12,0,0-.01,0-.01,0,0,0,0,0,0-.01l.03-.02s0,0,0,0h0s0-.01,0-.01c-.02,0-.03,0-.04-.03,0,0,.39-.19.48-.23.01,0,.02-.02.02-.03,0,0,0,0-.02,0l-.5.24s0,0,0,.01c0,.01,0,.02.02.02l-.04.02s0,0,0,0c0,0,0,0,0,0,0-.04,0-.07,0-.11,0-.03.01-.06,0-.09.15-.07.29-.13.45-.22.06-.03.13-.06.19-.09,0,0,0,0,0,0h0s0-.02-.01-.02c-.13.05-.29.13-.38.18-.08.04-.18.07-.25.13h0s0-.18,0-.18l.06-.02c.1-.04.21-.1.3-.14.1-.05.2-.1.29-.15h0ZM17.62,13.62v.02s.02,0,.02,0l.1-.05c.23-.11.42-.21.42-.21v-.02s-.2.08-.43.2c0,0,0,0,0,0l-.1.05s0,0,0,.01h0ZM18.27,13.55v-.02s0,0,0,0h-.02s0,0-.01,0c-.06.03-.12.05-.17.08-.13.07-.26.12-.38.19,0,0,0,0,0,.01h0s0,.02.01.02l.56-.27s0,0,0,0h0s0,0,0,0h0ZM16.11,13.24l-.16.46s-.09.06-.14.07c.02-.01.03-.02.01-.03,0,0,0,0-.01,0l-.44.21s0,0,0,.02c0,0,0,0,0,0,0,0,.02.01.03,0-.06.03-.11.05-.17.08-.01,0-.03,0-.04,0,0,0,0,0,0-.01,0,0,0,0,0,0l.06-.03s0,0,0-.01c0,0-.02-.01-.03-.01,0,0,0,0,0,0-.02-.03-.06,0-.07.02,0,0,0,0-.01,0h0s0-.03,0-.04c0,0,0,0,0,0,0,0,.01-.01.01-.02,0,0,0,0,0,0-.01,0-.03,0-.04-.02l-.09-.25s.02.02.03.03c0,.01,0,.02,0,.02,0,0,.02,0,.02,0l.91-.44s.13-.07.14-.04h0ZM15.93,13.4s.02-.01.02-.03c0,0,0,0,0,0,0,0,0,0,0,0-.24.12-.49.23-.73.35-.05.03-.1.05-.15.07,0,0,0,0,0,0h0s0,.02.01.02c.07-.02.15-.07.19-.09.08-.04.17-.08.25-.12.14-.07.28-.13.42-.21h0ZM15.88,13.53s.01-.02.01-.03c0,0,0,0,0,0,0,0,0,0,0,0-.14.06-.29.14-.41.19-.12.06-.24.11-.36.18-.01,0-.01.01-.01.02,0,0,0,0,.02,0,0,0,0,0,0,0l.75-.36s0,0,0,0h0ZM15.23,13.92s0,.01,0,.02c0,0,0,0,0,0,.07-.02.14-.06.18-.08.15-.07.3-.14.44-.21.02,0,.02-.02,0-.03,0,0-.01,0-.02,0l-.62.3s0,0,0,0h0s0,0,0,0h0Z"/>
      <path class="cls-1" d="M11.64,13.26l-.64.31s0,0,0,0c0-.02,0-.03.02-.04.06-.03.13-.06.19-.09.11-.05.26-.13.4-.19,0,0,0,0,0,0,0,0,.02,0,.03,0,0,0,0,.01,0,.02,0,0,0,0,0,0h0ZM12.84,13.53l-.06.02v-.02c.11-.07.23-.13.36-.18.07-.03.15-.08.23-.11.01,0,.02,0,.03.01,0,0,0,.01,0,.01,0,0,0,0,0,0l-.55.27h0ZM15.97,13.28l-.91.44s-.02,0-.02,0c0,0,0,0,0-.02.08-.04.17-.08.25-.12.12-.06.25-.13.39-.18.05-.02.11-.06.15-.08.04-.02.09-.04.14-.06,0,0,0,0,.01,0,0,0,0,.02,0,.03h0Z"/>
      <path class="cls-1" d="M20.75,13.28v.45h0s0-.02,0-.02c-.02.02-.05.03-.08.04,0,0,0-.02,0-.02,0,0,0,0-.01,0l-.45.21s0,0-.01.01c0,.02,0,.02.03.01-.02.01-.09.05-.11.04,0,0,0,0,0-.01,0,0,0,0,0,0l.06-.03s0,0,0,0l-.02-.03s0,0,0,0c-.01,0-.02,0-.03,0,0,0,0,0,0,0h-.01v-.42s.04,0,.05-.02h.02s.02.02.02.04c0,0,0,0,0,.01-.02.02-.05.03-.07.03,0,0,0,0,0,0h0s0,.03.01.03c0,0,0,0,0,0l.63-.3s0,0,0,0v-.02s0,0,0,0ZM20.74,13.38s-.06.03-.09.05c-.06.02-.12.05-.18.08-.11.05-.2.09-.3.14-.02.01-.09.04-.08.07,0,0,0,0,0,0,.02,0,.04-.02.05-.03.15-.07.3-.14.45-.21.02,0,.18-.06.14-.09,0,0,0,0-.01,0ZM20.74,13.48c-.13.05-.24.12-.37.17-.09.04-.18.08-.26.13-.01,0-.01.02,0,.03,0,0,0,0,0,0,.06-.03.13-.06.18-.09.15-.07.3-.14.44-.21.01,0,.02-.02,0-.03,0,0,0,0,0,0h0ZM20.65,13.65s0-.01,0-.02c0,0,0,0-.01,0l-.53.25s0,0,0,0c0,.02,0,.02.02.02.09-.03.19-.09.26-.12.09-.04.17-.08.26-.12,0,0,0,0,0,0,0,0,0,0,0,0,0,0,0,0,0,0Z"/>
      <path class="cls-1" d="M13.46,13.33l.02.04s0,.02-.02.03c-.09.05-.19.09-.31.14-.08.03-.17.09-.25.12-.01,0-.04.03-.02.04,0,0,0,0,.01,0,.1-.04.21-.1.28-.13.08-.04.15-.07.23-.11.02,0,.08-.03.09-.04,0,0,0,0,0,0h0s0,0,0,0h0s.02.04.02.04c-.04.02-.08.04-.11.06-.16.07-.32.15-.48.23-.01,0-.02.02,0,.03,0,0,0,0,.01,0,.06-.03.12-.06.18-.09.14-.07.28-.13.42-.21l.08.15h-.01s0,0,0,0c-.01.02-.03.03-.04.03-.11.05-.2.09-.31.15-.06.03-.11.05-.14.06-.05.02-.08.04-.1.08h-.02s-.23-.4-.23-.4l.06-.02s.03.03.03.04c0,0,0,0,0,0l-.04.02s0,.01,0,.02c0,0,0,0,.01,0,.08-.03.16-.08.23-.11.13-.06.26-.12.38-.19h0ZM13.03,13.85s0,0,0,0c0,0,0,0,0,0,.16-.08.31-.15.47-.22.01,0,.02-.02.01-.03,0,0,0-.01-.02,0l-.48.23s0,0,0,0c0,0,0,.01,0,.02,0,0,0,0,0,0h0s0,0,0,0h0Z"/>
      <path class="cls-1" d="M11,13.64c.11-.06.21-.11.33-.16.02,0,.04-.02.07-.04.07-.04.15-.07.23-.11,0,0,0,0,.01,0,0,0,0,0,0,0h0s0,.02,0,.02l-.63.3s-.01,0-.02,0c0,0,0,0,0,0,0-.01,0-.02,0-.02h0Z"/>
      <path class="cls-1" d="M19.55,13.36l-.13.28c-.05,0-.1.03-.15.05,0,0,0-.02,0-.02,0,0,0-.01-.01-.01,0,0,0,0,0,0-.08.04-.15.08-.23.11,0,0-.01.01-.01.02,0,0,0,0,0,0h.02s-.02.02-.03,0l-.04-.1s0,0,0,0c0,0,0,0,0,0,0,0,.01,0,.02,0,.06-.02.13-.06.18-.09.04-.02.17-.06.18-.1,0,0,0,0,0,0,0,0,0,0,0,0-.12.05-.24.11-.36.17,0,0,0,0-.01,0,0,0-.01,0-.01.02l-.04-.08h.02s0,0,.01,0c.06-.02.11-.06.15-.07.14-.06.27-.14.41-.2,0,0,0,0,0,0h0s0,0,0,0h0s0,0,0,0Z"/>
      <path class="cls-1" d="M17.62,13.62s0,0,0-.01l.1-.05c.23-.11.43-.2.43-.2,0,0,0,0,0,0v.02s-.18.1-.41.21l-.1.05s0,0-.01,0v-.02ZM15.93,13.4c-.14.07-.28.14-.42.21-.08.04-.16.08-.25.12-.05.02-.12.07-.19.09,0,0,0,0-.01,0h0s0-.02,0-.02c.05-.02.1-.05.15-.07.24-.12.49-.23.73-.35,0,0,0,0,.01,0,0,0,0,0,0,0,0,.02,0,.02-.02.03h0ZM13.48,13.37l.03.05h0s0,0,0,0h0s0,0,0,0c0,0-.07.03-.09.04-.08.04-.15.07-.23.11-.07.03-.18.09-.28.13,0,0,0,0-.01,0-.02-.01,0-.03.02-.04.09-.04.18-.09.25-.12.11-.05.22-.1.31-.14.01,0,.02-.02.02-.03ZM20.75,13.38s-.12.08-.14.09c-.15.08-.3.15-.45.21-.02,0-.03.02-.05.03,0,0,0,0,0,0-.01-.03.05-.06.08-.07.1-.05.19-.08.3-.14.06-.03.12-.06.18-.08.03-.01.06-.03.09-.05,0,0,0,0,.01,0ZM17.63,13.75v-.03c.08-.05.17-.09.25-.13.09-.04.25-.13.38-.18,0,0,0,0,.01,0h0s0,.02,0,.02c-.07.03-.13.06-.19.09-.16.08-.3.14-.45.22h0ZM10.99,13.75s0,0,0-.01c.14-.07.29-.14.43-.21.05-.02.12-.07.19-.09,0,0,.01,0,.02,0,0,0,0,0,0,0h0s0,.02,0,.02c0,0-.02,0-.02,0-.12.06-.24.12-.36.18-.08.03-.17.09-.26.12,0,0,0,0,0,0,0,0,0-.02,0-.02,0,0,0,0,0,0h0ZM13.54,13.47l.02.03c-.14.08-.28.14-.42.21-.06.03-.12.06-.18.09,0,0-.01,0-.01,0,0-.01,0-.02,0-.03.16-.08.32-.16.48-.23.04-.02.08-.04.11-.06h0Z"/>
      <path class="cls-1" d="M20.74,13.48s0,0,0,0c0,.01,0,.02,0,.03-.15.07-.29.14-.44.21-.05.02-.12.06-.18.09,0,0,0,0,0,0,0-.01,0-.02,0-.03.08-.05.17-.09.26-.13.12-.05.24-.12.37-.17h0ZM15.87,13.54l-.75.36s-.01,0-.02,0c0,0,0,0,0,0,0,0,0-.02.01-.02.12-.06.24-.12.36-.18.12-.05.27-.13.41-.19,0,0,0,0,0,0,0,0,0,0,0,0,0,.01,0,.02-.01.03,0,0,0,0,0,0h0ZM18.97,13.72h0s0-.02.01-.02c0,0,0,0,.01,0,.12-.06.24-.12.36-.17,0,0,0,0,.01,0,0,0,0,0,0,0-.01.04-.14.09-.18.1-.05.02-.12.07-.18.09,0,0-.01,0-.02,0,0,0,0,0,0,0,0,0,0,0,0,0h0ZM18.27,13.53v.02s0,0,0,0h0s0,0,0,0l-.56.27s0,0-.01,0h0s0-.02,0-.02c.13-.07.26-.12.38-.19.06-.03.12-.05.17-.08,0,0,0,0,.01,0h.02s0,0,0,0h0ZM10.97,13.89v-.03c.06-.03.12-.06.17-.09.13-.07.28-.13.41-.2.02-.01.05-.02.08-.03,0,0,0,0,0,0v.02s0,0,0,0c-.04,0-.07.04-.1.05-.13.06-.24.11-.39.18-.06.03-.12.06-.17.08h0Z"/>
      <path class="cls-1" d="M13.03,13.85h0s0,0,0,0c0,0,0-.01,0-.02,0,0,0,0,0,0l.48-.23s.01,0,.02,0c0,.02,0,.03-.01.03-.16.07-.31.14-.47.22,0,0,0,0,0,0,0,0,0,0,0,0,0,0,0,0,0,0h0Z"/>
      <path class="cls-1" d="M15.23,13.92h0s0,0,0,0l.62-.3s.01,0,.02,0c.01.01.01.02,0,.03-.15.07-.29.14-.44.21-.04.02-.12.06-.18.08,0,0,0,0,0,0,0,0,0-.01,0-.02,0,0,0,0,0,0h0ZM13.63,13.64v.02c-.07.05-.15.09-.23.13-.04.02-.1.05-.16.08-.07.04-.14.07-.22.09.02-.03.05-.06.1-.08.03,0,.07-.03.14-.06.11-.06.21-.1.31-.15.02,0,.03-.02.04-.03,0,0,0,0,0,0h.01s0,0,0,0ZM20.65,13.66s0,0,0,0c0,0,0,0,0,0-.09.04-.17.08-.26.12-.07.03-.17.09-.26.12-.02,0-.03,0-.02-.02,0,0,0,0,0,0l.53-.25s.01,0,.01,0c0,0,0,.01,0,.02,0,0,0,0,0,0Z"/>
      <path class="cls-1" d="M19.43,13.64l-.03.08h0s0,0-.01,0c-.1.05-.2.1-.29.14-.01,0-.02.02-.01.03,0,0,0,0,.01,0,0,0,0,0,0,0,.07-.03.13-.06.2-.1.03-.02.06-.03.09-.04l-.16.35-.03.06s0,0,0,0l-.03-.06-.13-.29s.02,0,.03,0c.08-.03.15-.07.23-.11.05-.03.1-.05.15-.05h0Z"/>
      <path class="cls-1" d="M11.08,13.95l-.1.04s0-.03.02-.04c.07-.03.15-.07.22-.1.03-.01.05-.03.07-.04.11-.05.23-.1.34-.15,0,0,0,0,0,0v.02s0,0,0,0l-.56.27Z"/>
      <path class="cls-1" d="M13.64,13.66l.08.14c-.05.02-.41.18-.42.21,0,0,0,0,0,0,.01,0,.02,0,.04,0,.18-.08.29-.14.35-.17,0,0,.02,0,.03,0,0,0,0,0,0,0,0,0,0,0,0-.01l.03.06c-.05.02-.36.14-.35.18,0,0,0,0,0,0,.05-.01.09-.04.13-.06.08-.03.15-.07.22-.1l.1.18s0,0,0,0c0,0,0,0,0,0h-.8s-.08-.14-.08-.14h.02c.07-.03.15-.06.22-.1.06-.03.12-.06.16-.08.08-.04.17-.08.25-.13h0ZM13.59,13.78s-.01-.01-.02,0h0s-.48.23-.48.23c0,0-.01.01,0,.02h0s0,0,0,0c0,0,.01.01.02,0h0s.48-.23.48-.23c0,0,.01-.01,0-.02h0s0,0,0,0h0Z"/>
      <path class="cls-1" d="M19.27,13.69c-.07.04-.15.08-.23.11h-.02s0,0,0,0c0-.01,0-.02.01-.02.08-.04.15-.08.23-.11,0,0,.01,0,.02,0,0,0,0,0,0,0,0,0,0,.01,0,.02h0ZM17.68,13.93h-.01s-.02,0-.02-.02c0,0,0,0,0-.01l.5-.24s.01,0,.02,0c0,.01,0,.03-.02.03-.08.04-.48.23-.48.23h0Z"/>
      <path class="cls-1" d="M15.95,13.7l-.14.39h-.65s-.07-.18-.07-.18c.01.01.03.02.04.02,0,0,0,0,0,0,0,0,0,.01-.01.02,0,0-.01.02,0,.03,0,0,0,0,0,0h0s0,.01.01.01c.01-.02.05-.05.07-.02,0,0,0,0,0,0,.01,0,.02,0,.03.01,0,0,0,0,0,.01l-.06.03s0,0,0,.01c0,0,0,0,0,0,.01,0,.03,0,.04,0,.06-.03.11-.05.17-.08l.41-.2c.05-.02.1-.04.14-.07h0ZM15.43,14.03s0,.01,0,.02c0,0,0,0,.01,0,.03,0,.06-.03.08-.04.07-.03.15-.06.22-.09,0,0,0,0,0,0v-.02s.01,0,0,0c-.11.04-.21.09-.32.15Z"/>
      <path class="cls-1" d="M19.39,13.71l-.02.04s-.06.02-.09.04c-.07.04-.13.07-.2.1,0,0-.01,0-.01,0,0,0,0,0,0,0,0-.01,0-.02.01-.03.1-.05.2-.1.29-.14,0,0,0,0,.01,0h0s0,0,0,0Z"/>
      <path class="cls-1" d="M20.75,13.73v.36h0c-.22,0-.44,0-.66,0,0,0,0,0,0,0v-.18s0,.01,0,.01c0,0,0,0,0,0,0,0,.02-.01.03,0,0,0,0,0,0,0l.02.03s0,0,0,0l-.06.03s0,0,0,.01c0,0,0,0,0,0,.02,0,.09-.03.11-.04l.45-.22s.06-.03.08-.04c0,0,0,0,0,0h0s0,.01,0,.01ZM20.6,13.86s0,0,0,0c0,0,0,0,0,0-.15.06-.25.12-.39.18,0,0,0,0,0,.02,0,0,0,0,0,0,.02,0,.03,0,.04,0,.12-.05.24-.11.35-.17.01,0,.02-.02.02-.03,0,0,0,0,0,0h0s0,0,0,0h0ZM20.73,13.92s-.01-.01-.02,0h0s-.26.12-.26.12c0,0-.01.01,0,.02h0s0,0,0,0c0,0,.01.01.02,0h0s.26-.12.26-.12c0,0,.01-.01,0-.02h0s0,0,0,0h0ZM17.62,13.72h0s0,.03,0,.03c.01.03,0,.06,0,.09,0,.04,0,.08,0,.11,0,0,0,0,0,0,0,0,0,0,0,0l.04-.02h.01s.02.02.04.02c0,0,0,0,0,0h0s0,0,0,.01l-.03.02s0,.01,0,.02c0,0,0,0,.01,0,.09-.03.18-.09.25-.12.1-.04.19-.09.28-.14,0,0,0,0,.01,0l.02.03v.03s0,0,0,0c0,0,0,0,0,0h-.01s0,.02,0,.02c-.1.04-.19.08-.29.14-.04.02-.08.04-.12.06,0,0,0,0,0,0,0,0,0,0,0,0-.01,0-.01,0,0,0,.02,0,.04,0,.06-.01.13-.06.27-.12.4-.19v.25s-.66,0-.66,0v-.38s0,0,0,0Z"/>
      <path class="cls-1" d="M20.66,13.76l-.45.22s-.03,0-.03-.01c0,0,0-.01.01-.01l.45-.21s0,0,.01,0c0,0,0,.01,0,.02h0ZM15.81,13.78l-.41.2s-.02,0-.03,0c0,0,0-.01,0-.02,0,0,0,0,0,0l.44-.21s0,0,.01,0c.01,0,.01.02-.01.03h0Z"/>
      <rect class="cls-1" x="13.05" y="13.88" width=".57" height=".03" rx=".02" ry=".02" transform="translate(-4.67 7.06) rotate(-25.4)"/>
      <path class="cls-1" d="M11.64,13.79v.28s0,.03,0,.03h-.66v-.1s0,0,0,0l.1-.04s.03.03.06,0c0,0,0,0,.01,0,0,0,.01,0,.02,0,0,0,0,0,0,.01l-.14.07s0,0,0,.01c0,0,0,0,0,0,.02,0,.13-.05.17-.06.04-.01.07,0,.11,0,0,0,0,0,0,0,0,0,0,0,0,0,0,0-.02.01-.03.02,0,0,0,0,0,0h0s0,.01,0,.02c.04,0,.08-.02.11-.04.08-.03.16-.08.24-.11,0,0,0,0,0,0v-.02s0,0,0,0c0,0,0,0,0,0l-.11.05s0,0,0,0c0-.02.04-.02.02-.05,0,0,0,0,0,0l.12-.05h0Z"/>
      <path class="cls-1" d="M18.28,13.82v.03c-.13.06-.26.13-.4.19-.03.01-.05.02-.06.01-.01,0-.01,0,0,0,0,0,0,0,0,0,0,0,0,0,0,0,.04-.02.08-.03.12-.06.1-.06.19-.09.29-.14,0,0,0,0,0,0h.01s0-.02,0-.02c0,0,0,0,0,0h0ZM13.72,13.8l.02.03s0,0,0,.01c0,0,0,0,0,0-.01,0-.03,0-.03,0-.06.03-.18.08-.35.17-.01,0-.02,0-.04,0,0,0,0,0,0,0,.01-.03.36-.19.42-.21h0Z"/>
      <path class="cls-1" d="M20.61,13.86h0s0,0,0,0c0,.02,0,.03-.02.03-.12.06-.24.11-.35.17,0,0-.02,0-.04,0,0,0,0,0,0,0,0,0,0-.02,0-.02.15-.06.25-.12.39-.18,0,0,0,0,0,0,0,0,0,0,0,0h0s0,0,0,0Z"/>
      <path class="cls-1" d="M15.43,14.03c.11-.06.21-.11.32-.15,0,0,0,0,0,0v.02s-.01,0-.02,0c-.07.03-.14.07-.22.09-.03,0-.05.04-.08.04,0,0-.01,0-.01-.01,0,0,0,0,0-.01Z"/>
      <path class="cls-1" d="M13.77,13.89v.02c-.06.04-.14.07-.21.1-.04.02-.08.04-.13.06,0,0,0,0,0,0,0-.04.29-.16.35-.18h0Z"/>
      <rect class="cls-1" x="20.43" y="13.97" width=".31" height=".03" rx=".02" ry=".02" transform="translate(-3.99 10.05) rotate(-25.1)"/>
    </g>
  </g>
</svg>