<svg width="70" height="70" viewBox="0 0 70 70" fill="none" xmlns="http://www.w3.org/2000/svg">
<path d="M57.663 1.1521H12.337C6.15967 1.1521 1.15198 6.15979 1.15198 12.3371V57.6631C1.15198 63.8404 6.15967 68.8481 12.337 68.8481H57.663C63.8403 68.8481 68.848 63.8404 68.848 57.6631V12.3371C68.848 6.15979 63.8403 1.1521 57.663 1.1521Z" fill="white"/>
<path d="M33.1347 13.1716C33.6567 13.1896 34.0346 13.3696 34.1426 13.9095C34.1066 16.0693 34.0886 18.247 34.0526 20.4068C33.8906 20.5328 33.7287 20.6768 33.5667 20.8028C33.0987 20.9647 29.3732 20.7668 25.4856 23.6104C15.7667 30.7376 18.5384 46.7018 31.1909 49.5095C31.8569 49.6534 33.7826 49.5815 34.0526 50.1754C34.0886 52.3351 34.1066 54.5129 34.1426 56.6726C33.9086 57.8965 31.5329 57.3206 31.1549 56.8526C30.669 56.2407 30.687 54.0989 30.327 53.217C28.0953 52.7311 25.9715 51.8672 24.0998 50.5893C23.1639 51.1833 21.598 52.8391 20.5002 52.6051C20.2122 52.5511 16.5406 49.7074 16.8646 48.1776C17.5125 47.2057 18.1604 46.2518 18.7904 45.2799C17.5845 43.3902 16.7026 41.3384 16.2527 39.1427C15.1008 38.8907 13.9489 38.6387 12.7791 38.4047C11.6452 37.7388 12.0051 33.2933 12.2931 32.7354C12.8331 31.7275 15.2628 32.0155 16.2347 31.5115C16.6846 29.3158 17.5845 27.246 18.7724 25.3742C18.3224 24.2404 16.5766 22.9445 16.8466 21.6847C16.9726 21.0907 19.9242 18.1571 20.4822 18.0491C21.58 17.8151 23.1459 19.4709 24.0818 20.0648C25.9176 18.841 27.9693 17.9051 30.1471 17.5271C30.939 17.1672 30.2191 13.5676 31.9829 13.3156C32.3608 13.2796 32.7388 13.2616 33.1167 13.2256L33.1347 13.1716Z" fill="#6B46F2"/>
<path d="M40.4239 14.7552C43.2856 14.2333 44.4195 18.1208 41.7018 19.1827C41.6118 25.464 42.8537 26.4899 35.6905 26.1659V24.6721C36.5544 24.5101 39.956 25.086 40.208 24.0962V19.1827C38.1202 18.4988 38.2822 15.1332 40.4239 14.7552Z" fill="#6B46F2"/>
<path d="M48.055 21.5946C50.8267 21.1267 52.0685 24.8522 49.3328 26.0221C49.1349 27.8399 50.1787 31.7994 47.5331 32.2134C43.5735 32.2134 39.596 32.1774 35.6364 32.1774C35.6364 31.6915 35.6724 31.2055 35.6724 30.7376C37.2922 30.6296 46.8671 30.9176 47.4431 30.6476C48.199 30.2876 47.677 26.922 47.839 26.0401C45.3913 25.0142 46.2552 21.9186 48.055 21.6126V21.5946Z" fill="#6B46F2"/>
<path d="M33.0447 23.8804C33.5486 23.8804 34.0166 23.9524 34.1425 24.5463V46.0538C33.9806 47.4577 30.057 46.0538 29.1751 45.6579C21.814 42.2383 20.4461 32.0334 26.5474 26.688C28.0412 25.3742 31.0469 23.9164 33.0447 23.8804Z" fill="#6B46F2"/>
<path d="M35.6905 27.6602H43.4116C44.2395 27.8401 44.1675 29.064 43.3216 29.244H35.6905V27.6602Z" fill="#6B46F2"/>
<path d="M56.982 34.8591V35.741C56.3161 38.0087 53.5264 38.2787 52.5546 36.1009H35.7085C35.7085 35.597 35.6725 35.0751 35.6725 34.5711C41.3058 34.5711 46.9392 34.5351 52.5725 34.5351C53.5444 32.3574 56.3341 32.6093 57 34.8951L56.982 34.8591Z" fill="#6B46F2"/>
<path d="M35.6905 38.3687H47.5331C50.1608 38.7826 49.1349 42.7062 49.3329 44.5599C52.7165 46.2158 49.8909 50.3553 47.2632 48.6455C45.9313 47.7816 45.9133 45.2979 47.8391 44.5599C47.6771 43.678 48.1991 40.3124 47.4431 39.9525C46.8852 39.6825 37.2923 39.9705 35.6725 39.8625V38.3687H35.6905Z" fill="#6B46F2"/>
<path d="M35.6905 41.3562H43.3216C44.1855 41.5362 44.2395 42.76 43.4116 42.94H35.6905V41.3562Z" fill="#6B46F2"/>
<path d="M35.6905 44.4341C42.8537 44.0921 41.6118 45.154 41.7018 51.4173C44.5455 52.5692 43.1596 56.6367 40.172 55.7548C38.5522 55.2869 37.9222 52.4072 40.208 51.4173C40.028 45.046 41.5038 46.0719 35.6905 46.0179V44.4341Z" fill="#6B46F2"/>
</svg>
