<svg width="35" height="35" viewBox="0 0 35 35" fill="none" xmlns="http://www.w3.org/2000/svg">
<g clip-path="url(#clip0_323_2)">
<path d="M27.2824 -0.245117H7.92736C3.47181 -0.245117 -0.140137 3.36683 -0.140137 7.82238V27.1774C-0.140137 31.6329 3.47181 35.2449 7.92736 35.2449H27.2824C31.7379 35.2449 35.3499 31.6329 35.3499 27.1774V7.82238C35.3499 3.36683 31.7379 -0.245117 27.2824 -0.245117Z" fill="#F2EFFF"/>
<path d="M25.9699 28.9273H6.10736C5.31986 28.9273 4.58486 28.7173 3.98986 28.3323L3.93736 28.2973C2.44986 27.3173 1.59236 25.5673 1.64486 23.6248C1.67986 21.8573 2.23986 20.5273 3.30736 19.6348C4.67236 18.5148 6.47486 18.4798 7.33236 18.5323C8.48736 13.7898 12.6174 13.5973 14.0174 13.6673C14.8749 10.6223 16.2049 8.60981 18.0249 7.69981C19.9499 6.71981 21.6649 7.38481 21.7349 7.41981C21.9974 7.52481 22.1199 7.82231 22.0149 8.08481C21.9099 8.34731 21.6124 8.46981 21.3499 8.36481C21.3499 8.36481 19.9674 7.83981 18.4624 8.60981C16.8524 9.43231 15.6624 11.3573 14.8924 14.3323C14.8224 14.5948 14.5774 14.7523 14.3149 14.7173C14.1049 14.6823 9.23986 13.9473 8.24236 19.1798C8.18986 19.4598 7.92736 19.6348 7.64736 19.5823C7.62986 19.5823 5.38986 19.2148 3.95486 20.4048C3.13236 21.0873 2.69486 22.1723 2.65986 23.6073C2.62486 25.1998 3.32486 26.6173 4.51486 27.4048C4.98736 27.7198 5.52986 27.8598 6.10736 27.8598H25.9699C28.0174 27.8598 29.8549 26.9148 30.8874 25.3223C31.4649 24.4473 31.7449 23.4498 31.7449 22.3823C31.7449 22.1023 31.9724 21.8748 32.2524 21.8748C32.5324 21.8748 32.7599 22.1023 32.7599 22.3823C32.7599 23.6598 32.4099 24.8323 31.7274 25.8823C30.5024 27.7548 28.3499 28.8923 25.9349 28.8923L25.9699 28.9273Z" fill="#6B46F2"/>
<path d="M17.5522 15.8898C17.7447 14.1923 18.4972 12.6523 19.6172 11.4973L20.8947 12.7748L21.4897 12.1798L20.2297 10.9198C21.4372 9.92232 22.9422 9.29232 24.6047 9.20482V11.2873H25.4447V9.20482C27.1072 9.29232 28.6122 9.92232 29.8197 10.9198L28.6122 12.1273L29.2072 12.7223L30.4322 11.4973C31.5522 12.6698 32.3222 14.1923 32.4972 15.8898H30.7472V16.7298H32.5497C32.5497 18.5498 31.9022 20.2123 30.8347 21.5073L29.3997 20.0723L28.8047 20.6673L30.2572 22.1198L30.8347 22.7323C32.4097 21.2098 33.3722 19.0923 33.3722 16.7298C33.3722 12.1273 29.6272 8.38232 25.0247 8.38232C20.4222 8.38232 16.6772 12.1273 16.6772 16.7298C16.6772 19.0223 17.6047 21.1048 19.0922 22.6098L19.6872 22.0148L20.9472 20.7548L20.3522 20.1598L19.1272 21.3848C18.1122 20.1073 17.5172 18.4973 17.5172 16.7298H19.2147V15.8898H17.5697H17.5522Z" fill="#6B46F2"/>
<path d="M26.2146 20.3175C26.0571 20.3875 25.8996 20.3875 25.7421 20.3525L20.3346 18.0775C19.5296 17.8325 19.7396 17.01 20.5621 17.1325L26.4071 17.465C26.5646 17.4825 26.7221 17.57 26.8271 17.6925L27.5446 18.69C27.6496 19.1275 27.6146 19.32 27.2996 19.74L26.2146 20.3175Z" fill="#6B46F2"/>
</g>
<defs>
<clipPath id="clip0_323_2">
<rect width="35" height="35" fill="white"/>
</clipPath>
</defs>
</svg>
