<svg width="42" height="42" viewBox="0 0 42 42" fill="none" xmlns="http://www.w3.org/2000/svg">
<circle cx="20.9995" cy="21" r="20.5" stroke="white"/>
<path d="M15.9869 13.0009C15.9867 13.5313 15.7764 14.0399 15.4023 14.4147C15.0282 14.7896 14.521 15 13.9922 14.9998C13.4635 14.9995 12.9565 14.7886 12.5827 14.4133C12.209 14.0381 11.9992 13.5293 11.9995 12.9989C11.9998 12.4685 12.2101 11.9599 12.5842 11.585C12.9582 11.2102 13.4654 10.9997 13.9942 11C14.523 11.0003 15.03 11.2112 15.4037 11.5865C15.7774 11.9617 15.9872 12.4705 15.9869 13.0009ZM16.0467 16.4807H12.0593V29H16.0467V16.4807ZM22.3468 16.4807H18.3794V29H22.307V22.4304C22.307 18.7706 27.0619 18.4306 27.0619 22.4304V29H30.9995V21.0704C30.9995 14.9008 23.9617 15.1308 22.307 18.1606L22.3468 16.4807Z" fill="#292929"/>
</svg>
