<svg width="70" height="70" viewBox="0 0 70 70" fill="none" xmlns="http://www.w3.org/2000/svg">
<path d="M57.6629 1.15234H12.3369C6.15953 1.15234 1.15186 6.16003 1.15186 12.3373V57.6633C1.15186 63.8406 6.15953 68.8483 12.3369 68.8483H57.6629C63.8402 68.8483 68.8479 63.8406 68.8479 57.6633V12.3373C68.8479 6.16003 63.8402 1.15234 57.6629 1.15234Z" fill="white"/>
<path d="M35.8575 10.5923C37.6932 10.8747 39.4054 11.669 40.5527 13.1694C43.4652 16.9997 42.0178 22.6304 43.271 25.8252C43.7123 26.9726 46.9954 31.2442 48.0545 32.9563C50.455 36.8396 51.9024 39.452 50.5786 44.2001C52.5379 46.1064 50.861 47.6068 52.785 49.1248C53.5263 49.7073 55.6621 50.0603 54.7972 51.9843C54.3736 52.9375 49.4489 55.3027 48.1957 56.15C46.9601 56.9796 45.9187 58.427 44.3477 58.5858C41.5059 58.8859 41.0293 56.6265 40.4998 56.4324C36.8989 55.7087 33.4922 55.8852 29.9091 56.5206C29.5384 56.9266 29.1677 57.3326 28.7794 57.7386C26.6259 59.2213 22.8133 56.9266 20.5363 56.3265C19.0536 55.9382 16.5648 55.8146 15.3821 55.3027C12.7698 54.173 15.1527 52.6021 14.8703 50.0956C13.4758 46.4595 16.1411 46.989 17.818 46.3006C19.6361 45.5593 19.3537 44.2707 20.7658 43.3529C19.9185 41.5877 21.207 40.0521 21.7895 38.4811C22.4073 36.769 23.0428 35.0392 23.6605 33.327C24.5431 31.5442 27.7027 27.8728 27.9674 27.1491C28.9735 24.4485 27.1378 17.9352 28.444 14.4049C29.3442 11.9691 31.886 10.9806 34.2512 10.6099H35.8399L35.8575 10.5923ZM35.9987 16.8761C34.2689 17.1938 33.1922 21.0947 35.3456 21.2889C34.8161 17.0173 39.3877 19.2767 36.9872 21.9067C37.4108 22.5951 38.1345 21.8184 38.3993 21.3418C39.4407 19.4885 38.3287 16.4701 36.0164 16.8938L35.9987 16.8761ZM30.1915 17.335C29.5031 17.4586 28.8323 18.7118 28.7441 19.3473C28.5146 21.1124 29.7325 23.4247 30.6151 21.9773C27.5262 20.3004 31.2859 16.5407 31.4094 21.2712C31.7095 21.0947 32.0095 20.9359 32.292 20.7594C32.6626 20.1592 32.1861 16.9467 30.1915 17.335ZM32.9098 21.7478C32.592 21.8008 29.9267 23.7777 29.8561 23.9542C29.5384 24.7662 31.9742 26.3724 32.1508 26.443C32.5214 26.4783 32.8921 26.5136 33.2804 26.5313C33.5276 26.4783 37.4638 24.2896 37.552 24.0425C37.905 22.9658 33.404 21.6772 32.9098 21.7478ZM38.1522 25.0309C36.9342 25.1192 33.7041 28.2435 31.7801 27.5551C31.0387 27.2903 29.8208 26.1077 29.256 25.4899C29.3795 28.6494 27.7027 29.938 27.0496 31.2618C26.4847 32.8328 25.9199 34.3861 25.3551 35.957C24.9491 36.9984 23.3781 38.8695 23.6605 42.1349C24.0489 46.5124 32.8568 48.1893 28.3558 51.137C28.9912 51.8784 29.6443 52.6021 30.2797 53.3434C34.9926 53.6965 38.4875 53.2728 41.5765 49.4602C41.6471 48.4541 41.347 44.5531 42.1943 44.0766C43.271 43.4588 43.8358 45.0827 44.1183 42.0643C44.2771 40.3345 44.1006 38.4811 43.6417 36.8219C43.271 35.4275 39.1406 25.2781 38.5405 25.0662H38.1698L38.1522 25.0309ZM21.4718 44.5178C20.5892 44.6061 20.3951 47.0949 18.7535 47.4303C14.6408 48.0481 16.5295 48.7012 16.2647 51.137C16.1411 52.3197 14.7997 53.7318 16.6001 54.2789C18.0298 54.5261 19.4772 54.7732 20.907 55.0203C22.3544 55.4263 25.7963 57.3679 27.1908 56.8031C27.6144 56.3441 28.038 55.9028 28.4617 55.4439C29.2383 53.6082 27.279 52.1078 26.3965 50.7487C25.3021 49.0542 22.9545 44.359 21.4718 44.5178ZM43.5887 45.3651C42.7415 45.4357 43.3593 47.7657 43.2533 49.5308C43.1474 51.4194 41.4882 55.4263 43.3946 56.6972C45.1244 57.8445 47.2249 55.0556 48.5487 54.173C49.2371 53.7141 53.2616 51.8431 53.3675 51.4018C53.6675 50.3251 50.808 50.2368 50.455 47.9422C50.2079 44.1825 49.7313 46.9008 48.531 47.7127C47.4543 48.4188 45.142 48.8247 44.3654 47.5715C43.6593 46.4242 44.383 45.2945 43.5711 45.3651H43.5887Z" fill="#6B46F2"/>
<path d="M35.9984 16.8762C38.3283 16.4526 39.4227 19.4709 38.3813 21.3243C38.1165 21.7832 37.4104 22.5775 36.9692 21.8891C39.3697 19.2591 34.7981 16.9997 35.3276 21.2713C33.1742 21.0772 34.2509 17.1763 35.9807 16.8585L35.9984 16.8762Z" fill="white"/>
<path d="M30.191 17.3352C32.1856 16.9469 32.6798 20.1594 32.2915 20.7595C31.9914 20.936 31.6913 21.0949 31.4089 21.2714C31.2853 16.5409 27.5256 20.2829 30.6146 21.9775C29.732 23.4248 28.5141 21.1125 28.7436 19.3474C28.8318 18.6943 29.5202 17.4588 30.191 17.3352Z" fill="white"/>
<path d="M32.9093 21.7479C33.4036 21.6773 37.9046 22.9658 37.5516 24.0425C37.481 24.272 33.5271 26.4784 33.28 26.5314C32.9093 26.4961 32.5387 26.4608 32.1503 26.4431C31.9738 26.3902 29.538 24.7839 29.8557 23.9543C29.9263 23.7778 32.574 21.8008 32.9093 21.7479Z" fill="white"/>
<path d="M38.1526 25.0314H38.5232C39.141 25.2432 43.2714 35.4103 43.6244 36.7871C44.0657 38.4639 44.2422 40.2997 44.101 42.0295C43.8362 45.0478 43.2537 43.4239 42.177 44.0417C41.3474 44.5183 41.6298 48.4192 41.5592 49.4253C38.4703 53.238 34.9753 53.6616 30.2625 53.3086C29.627 52.5672 28.9739 51.8435 28.3385 51.1022C32.8396 48.1544 24.0493 46.4776 23.6433 42.1001C23.3432 38.817 24.9142 36.9636 25.3378 35.9222C25.9026 34.3512 26.4675 32.7979 27.0323 31.227C27.6854 29.9031 29.3446 28.6146 29.2387 25.455C29.8212 26.0728 31.0391 27.2554 31.7628 27.5202C33.7045 28.2086 36.917 25.0843 38.1349 24.9961L38.1526 25.0314Z" fill="white"/>
<path d="M21.4719 44.5176C22.9546 44.3587 25.3022 49.0716 26.3966 50.7485C27.2791 52.1076 29.2384 53.6079 28.4617 55.4437C28.0381 55.9026 27.6145 56.3439 27.1909 56.8028C25.7964 57.3676 22.3544 55.426 20.907 55.02C19.4773 54.7729 18.0299 54.5258 16.6002 54.2787C14.8174 53.7315 16.1412 52.3194 16.2648 51.1368C16.5296 48.7009 14.6232 48.0655 18.7536 47.43C20.3952 47.1123 20.5893 44.6058 21.4719 44.5176Z" fill="white"/>
<path d="M43.5889 45.365C44.4008 45.2944 43.6771 46.424 44.3832 47.5714C45.1598 48.8246 47.4898 48.4186 48.5488 47.7126C49.7491 46.9183 50.2257 44.1823 50.4728 47.942C50.8258 50.2543 53.6677 50.3426 53.3853 51.4017C53.2617 51.8429 49.2549 53.6963 48.5665 54.1729C47.2427 55.0555 45.1422 57.862 43.4124 56.697C41.506 55.4261 43.1652 51.4193 43.2711 49.5306C43.3594 47.7655 42.7593 45.4356 43.6065 45.365H43.5889Z" fill="white"/>
</svg>
