<svg width="35" height="35" viewBox="0 0 35 35" fill="none" xmlns="http://www.w3.org/2000/svg">
<g clip-path="url(#clip0_347_24)">
<mask id="mask0_347_24" style="mask-type:luminance" maskUnits="userSpaceOnUse" x="0" y="0" width="35" height="35">
<path d="M35 0H0V35H35V0Z" fill="white"/>
</mask>
<g mask="url(#mask0_347_24)">
<path d="M27.2824 -0.245117H7.92736C3.47181 -0.245117 -0.140137 3.36683 -0.140137 7.82238V27.1774C-0.140137 31.6329 3.47181 35.2449 7.92736 35.2449H27.2824C31.7379 35.2449 35.3499 31.6329 35.3499 27.1774V7.82238C35.3499 3.36683 31.7379 -0.245117 27.2824 -0.245117Z" fill="#F2EFFF"/>
</g>
<path d="M8.8813 6.01H23.801C26.8509 6.51999 27.7309 10.1799 25.201 11.9899C27.1309 13.4998 27.2109 16.0298 25.201 17.5098C25.191 17.6097 26.1109 18.0597 25.6409 18.5897C25.201 19.0897 24.531 18.0697 23.651 18.0197C21.261 18.1297 9.76129 17.8597 8.73131 18.0697C6.39136 18.5497 6.40136 22.2396 9.0313 22.5496H18.7311C19.2111 22.6696 19.2111 23.4296 18.6811 23.5296C18.2011 23.6296 9.37129 23.5796 8.8813 23.5296C6.18136 23.2396 4.74139 19.5997 7.48133 17.4998C5.47138 16.0198 5.54138 13.4998 7.48133 11.9799C4.95139 10.1599 5.84137 6.50999 8.8813 6V6.01ZM9.0313 6.99998C6.31136 7.48997 6.32136 11.0399 9.0313 11.5299H23.661C26.3709 11.0399 26.3709 7.48997 23.661 6.99998H9.0313ZM9.0313 12.5099C6.31136 12.9998 6.33136 16.5498 9.0313 17.0398H23.661C26.3709 16.5498 26.3809 12.9998 23.661 12.5099H9.0313Z" fill="#6B46F2"/>
<path d="M22.4215 7.68948C24.4614 7.44949 24.6414 10.4394 22.8615 10.6394C20.8115 10.8794 20.6115 7.88948 22.4215 7.68948ZM22.5215 8.66946C21.9915 8.74946 22.0415 9.74944 22.7215 9.64944C23.3315 9.56944 23.2115 8.55946 22.5215 8.66946Z" fill="#6B46F2"/>
<path d="M9.08123 8.67016H15.4811C15.9711 8.78015 15.9711 9.55014 15.4811 9.65013C15.1611 9.72013 9.23123 9.73013 8.93124 9.60014C8.53124 9.43014 8.61124 8.76015 9.08123 8.66016V8.67016Z" fill="#6B46F2"/>
<path d="M17.3514 8.66935C18.0314 8.57935 18.0814 9.56933 17.5514 9.64933C16.8614 9.75933 16.7614 8.74935 17.3514 8.66935Z" fill="#6B46F2"/>
<path d="M19.4213 8.66935C20.1013 8.57935 20.1613 9.56933 19.6213 9.64933C18.9313 9.74933 18.8513 8.73935 19.4213 8.66935Z" fill="#6B46F2"/>
<path d="M22.4215 13.1997C24.4614 12.9597 24.6414 15.9497 22.8615 16.1497C20.8115 16.3897 20.6115 13.3997 22.4215 13.1997ZM22.5215 14.1897C21.9915 14.2697 22.0415 15.2697 22.7215 15.1697C23.3315 15.0897 23.2115 14.0797 22.5215 14.1897Z" fill="#6B46F2"/>
<path d="M9.08123 14.1897H15.4811C15.9711 14.2997 15.9711 15.0697 15.4811 15.1697C15.1611 15.2397 9.23123 15.2497 8.93124 15.1197C8.53124 14.9497 8.61124 14.2797 9.08123 14.1797V14.1897Z" fill="#6B46F2"/>
<path d="M17.3514 14.1896C18.0414 14.0896 18.0814 15.0896 17.5514 15.1696C16.8614 15.2796 16.7614 14.2696 17.3514 14.1896Z" fill="#6B46F2"/>
<path d="M19.4213 14.1899C20.1013 14.0999 20.1613 15.0898 19.6213 15.1698C18.9313 15.2698 18.8513 14.2599 19.4213 14.1899Z" fill="#6B46F2"/>
<path d="M9.08123 19.6995H15.4811C15.9711 19.8095 15.9711 20.5794 15.4811 20.6794C15.1611 20.7494 9.23123 20.7594 8.93124 20.6294C8.53124 20.4594 8.61124 19.7895 9.08123 19.6895V19.6995Z" fill="#6B46F2"/>
<path d="M17.3514 19.6994C18.0414 19.5994 18.0814 20.5994 17.5514 20.6794C16.8614 20.7894 16.7614 19.7794 17.3514 19.6994Z" fill="#6B46F2"/>
<path d="M19.4213 19.6991C20.1013 19.6091 20.1613 20.5991 19.6213 20.6791C18.9313 20.7791 18.8513 19.7691 19.4213 19.6991Z" fill="#6B46F2"/>
<path d="M25.1114 30.3291C22.2614 30.3291 19.9715 28.0092 19.9815 25.1592C19.9815 22.3093 22.3014 20.0193 25.1514 20.0293C28.0013 20.0293 30.2913 22.3493 30.2813 25.1992C30.2813 25.2392 30.2813 25.2792 30.2813 25.3192C30.2013 28.1192 27.9113 30.3391 25.1114 30.3291ZM25.1614 29.4391C27.5213 29.4691 29.4213 27.4992 29.4113 25.1792C29.4113 22.8193 27.5113 20.8993 25.1514 20.8893C22.7914 20.8893 20.8715 22.7893 20.8615 25.1492C20.8615 27.5092 22.7614 29.4291 25.1214 29.4391H25.1714H25.1614Z" fill="#6B46F2"/>
<path d="M30.0208 19.7599L29.9508 19.9099L29.8008 20.0899L26.4308 23.4299L26.3208 23.5799C26.1708 23.7299 26.2108 23.9099 26.4308 24.0198C26.7208 24.2098 27.0408 24.3898 27.3608 24.5398L28.7708 25.3898C28.8808 25.4298 28.9908 25.4598 28.9908 25.6098C28.9908 25.7598 28.8808 25.8298 28.7708 25.8998L22.2809 29.3097L20.541 30.2397H20.251C20.251 30.1697 20.281 30.1097 20.321 30.0597L20.431 29.9497L23.7709 26.6098L23.8809 26.4598C24.0009 26.3898 24.0509 26.2398 23.9809 26.0998C23.9409 26.0298 23.8809 25.9898 23.8109 25.9698L21.5109 24.6398C21.401 24.5698 21.221 24.5298 21.251 24.3498C21.281 24.1698 21.401 24.1298 21.5109 24.0598L29.6608 19.7599L29.8408 19.6899L30.0208 19.7599Z" fill="#6B46F2"/>
</g>
<defs>
<clipPath id="clip0_347_24">
<rect width="35" height="35" fill="white"/>
</clipPath>
</defs>
</svg>
