<svg width="35" height="35" viewBox="0 0 35 35" fill="none" xmlns="http://www.w3.org/2000/svg">
<g clip-path="url(#clip0_347_24)">
<mask id="mask0_347_24" style="mask-type:luminance" maskUnits="userSpaceOnUse" x="0" y="0" width="35" height="35">
<path d="M35 0H0V35H35V0Z" fill="white"/>
</mask>
<g mask="url(#mask0_347_24)">
<path d="M27.2824 -0.245117H7.92736C3.47181 -0.245117 -0.140137 3.36683 -0.140137 7.82238V27.1774C-0.140137 31.6329 3.47181 35.2449 7.92736 35.2449H27.2824C31.7379 35.2449 35.3499 31.6329 35.3499 27.1774V7.82238C35.3499 3.36683 31.7379 -0.245117 27.2824 -0.245117Z" fill="#F2EFFF"/>
</g>
<path d="M7.99124 6H23.4205C26.5791 6.53601 27.4789 10.3072 24.8754 12.1832C26.8663 13.7529 26.962 16.3564 24.8754 17.8878C24.8754 17.9835 25.8134 18.4621 25.3348 19.0173C24.8754 19.5341 24.1863 18.4813 23.2674 18.4238C20.7979 18.5387 8.9101 18.2516 7.83809 18.4813C5.42607 18.979 5.42607 22.7885 8.14438 23.1139H18.1753C18.6731 23.2287 18.6731 24.0136 18.1179 24.1285C17.6202 24.2242 8.48895 24.1859 7.99124 24.1285C5.19635 23.8222 3.70319 20.0701 6.53636 17.8878C4.44977 16.3564 4.52634 13.7529 6.53636 12.1832C3.91377 10.3072 4.83263 6.53601 7.99124 6ZM8.14438 7.01458C5.33035 7.53144 5.34949 11.1878 8.14438 11.7046H23.2674C26.0623 11.2069 26.0814 7.53144 23.2674 7.01458H8.14438ZM8.14438 12.7192C5.33035 13.2361 5.34949 16.8924 8.14438 17.4093H23.2674C26.0623 16.9115 26.0814 13.2361 23.2674 12.7192H8.14438Z" fill="#6B46F2"/>
<path d="M21.9848 7.74182C24.0906 7.49296 24.282 10.575 22.4443 10.8047C20.3194 11.0536 20.128 7.97154 21.9848 7.74182ZM22.0805 8.75641C21.5254 8.83298 21.5828 9.8667 22.2911 9.77099C22.9228 9.67527 22.808 8.64155 22.0805 8.75641Z" fill="#6B46F2"/>
<path d="M8.18289 8.75694H14.8064C15.3233 8.87179 15.3233 9.65666 14.8064 9.77152C14.481 9.84809 8.35518 9.84809 8.02975 9.71409C7.62775 9.5418 7.70432 8.85265 8.18289 8.73779V8.75694Z" fill="#6B46F2"/>
<path d="M16.7393 8.75625C17.4476 8.66054 17.4859 9.69426 16.9499 9.77083C16.2416 9.88569 16.1267 8.83282 16.7393 8.75625Z" fill="#6B46F2"/>
<path d="M18.8833 8.75625C19.5915 8.66054 19.649 9.69426 19.0938 9.77083C18.3855 9.88569 18.2898 8.83282 18.8833 8.75625Z" fill="#6B46F2"/>
<path d="M21.9848 13.4274C24.0906 13.1785 24.282 16.2605 22.4443 16.4903C20.3194 16.7391 20.128 13.6571 21.9848 13.4274ZM22.0805 14.4611C21.5254 14.5377 21.5828 15.5714 22.2911 15.4757C22.9228 15.38 22.808 14.3462 22.0805 14.4611Z" fill="#6B46F2"/>
<path d="M8.18289 14.4615H14.8064C15.3233 14.5764 15.3233 15.3613 14.8064 15.4761C14.481 15.5527 8.35518 15.5527 8.02975 15.4187C7.62775 15.2464 7.70432 14.5572 8.18289 14.4424V14.4615Z" fill="#6B46F2"/>
<path d="M16.7393 14.4608C17.4476 14.3651 17.4859 15.3989 16.9499 15.4754C16.2416 15.5903 16.1267 14.5374 16.7393 14.4608Z" fill="#6B46F2"/>
<path d="M18.8833 14.4608C19.5915 14.3651 19.649 15.3989 19.0938 15.4754C18.3855 15.5903 18.2898 14.5374 18.8833 14.4608Z" fill="#6B46F2"/>
<path d="M8.18289 20.1661H14.8064C15.3233 20.281 15.3233 21.0658 14.8064 21.1807C14.481 21.2573 8.35518 21.2573 8.02975 21.1233C7.62775 20.951 7.70432 20.2618 8.18289 20.147V20.1661Z" fill="#6B46F2"/>
<path d="M16.7393 20.1659C17.4476 20.0702 17.4859 21.1039 16.9499 21.1805C16.2416 21.2954 16.1267 20.2425 16.7393 20.1659Z" fill="#6B46F2"/>
<path d="M18.8833 20.1659C19.5915 20.0702 19.649 21.1039 19.0938 21.1805C18.3855 21.2954 18.2898 20.2425 18.8833 20.1659Z" fill="#6B46F2"/>
<path d="M24.6267 31.1272C21.58 31.1272 19.1268 28.6389 19.1466 25.6174C19.1466 22.5761 21.6394 20.1273 24.6663 20.1471C27.713 20.1471 30.1661 22.6354 30.1464 25.6569C30.1464 25.6964 30.1464 25.7359 30.1464 25.7951C30.0672 28.7772 27.614 31.147 24.6267 31.147V31.1272ZM24.6663 30.1793C27.1788 30.2188 29.2165 28.1057 29.1967 25.6372C29.1967 23.1094 27.159 21.0753 24.6465 21.0555C22.1142 21.0555 20.0764 23.0896 20.0567 25.5977C20.0567 28.1255 22.0944 30.1596 24.6069 30.1793H24.6663Z" fill="#6B46F2"/>
<path d="M30.1465 20.2242L30.0707 20.3786L29.9192 20.5715L26.4722 24.0452L26.3586 24.1996C26.2071 24.354 26.245 24.547 26.4722 24.6628C26.7753 24.8557 27.0972 25.0487 27.4192 25.2031L28.8586 26.0908C28.9722 26.1294 29.0859 26.168 29.0859 26.3224C29.0859 26.4768 28.9722 26.554 28.8586 26.6312L22.2298 30.1821L20.4495 31.147H20.1465C20.1465 31.147 20.1844 31.0119 20.2222 30.954L20.3359 30.8382L23.745 27.3645L23.8586 27.2101C23.9912 27.1329 24.0291 26.9786 23.9533 26.8435C23.9154 26.7663 23.8586 26.7277 23.7828 26.7084L21.4344 25.3189C21.3207 25.2417 21.1313 25.2031 21.1692 25.0101C21.2071 24.8171 21.3207 24.7786 21.4344 24.7014L29.7677 20.2242L29.9571 20.147L30.1465 20.2242Z" fill="#6B46F2"/>
</g>
<defs>
<clipPath id="clip0_347_24">
<rect width="35" height="35" fill="white"/>
</clipPath>
</defs>
</svg>
