<svg width="197" height="34" viewBox="0 0 197 34" fill="none" xmlns="http://www.w3.org/2000/svg">
<path d="M57.9707 11.2366L50.2338 20.7302V25.4088H46.1125V20.6938L38.106 11.2366H43.3229L46.4665 15.1597C46.8795 15.6694 47.9751 16.9801 48.2869 17.3897C48.5398 16.9892 48.9949 16.4067 49.9725 15.1415L52.956 11.2184L57.9707 11.2366Z" fill="#4927B9"/>
<path d="M75.8885 18.3091C75.8885 23.3699 72.669 25.6363 66.2974 25.6363C59.9259 25.6363 56.698 23.3699 56.698 18.3546C56.698 13.3393 59.9006 11.0728 66.2974 11.0728C72.6943 11.0728 75.8885 13.2482 75.8885 18.3091ZM71.843 18.3091C71.843 15.2598 70.3766 14.6682 66.2974 14.6682C62.2183 14.6682 60.7434 15.2325 60.7434 18.3091C60.7434 21.3856 62.2183 21.9499 66.2974 21.9499C70.3766 21.9499 71.843 21.3583 71.843 18.3091Z" fill="#4927B9"/>
<path d="M94.4974 19.2193C94.4974 23.467 91.7723 25.606 86.3223 25.6363C80.0013 25.6363 77.2791 23.4973 77.2791 19.2648V11.2367H81.3245V19.2193C81.3245 21.3128 82.1673 21.9955 86.3223 21.9955C89.4322 21.9955 90.4182 21.2127 90.4182 19.2193V11.2367H94.4974V19.2193Z" fill="#4927B9"/>
<path d="M108.463 16.8891C111.665 16.8891 113.385 18.1817 113.385 20.7667C113.385 23.7158 111.758 25.4088 107.755 25.4088H95.5342L98.1553 21.7679H108.075C108.985 21.7679 109.466 21.4766 109.466 20.7394C109.466 20.0021 109.027 19.7563 108.075 19.7563H100.937C97.5653 19.7563 96.0061 18.127 96.0061 15.6968C96.0061 13.0207 97.6917 11.2913 101.644 11.2913H113.039L110.511 14.9322H101.383C100.481 14.9322 99.9926 15.187 99.9926 15.9152C99.9926 16.6434 100.448 16.8982 101.383 16.8982L108.463 16.8891Z" fill="#4927B9"/>
<path d="M129.827 11.2367L127.198 14.9322H122.503V25.4088H118.441V14.9322H112.289L114.918 11.2913L129.827 11.2367Z" fill="#4927B9"/>
<path d="M140.067 21.7952C139.714 21.2855 139.157 20.4117 138.727 19.7381L136.376 15.988L130.215 25.3997H125.403L133.831 12.5838C134.113 12.1031 134.503 11.7065 134.963 11.4298C135.424 11.1532 135.942 11.0055 136.469 11C136.989 11.0053 137.499 11.1545 137.95 11.4334C138.402 11.7122 138.78 12.1114 139.048 12.5929L147.223 25.4088H142.478L140.067 21.7952Z" fill="#4927B9"/>
<path d="M165.065 21.3037C165.065 23.6521 163.876 25.4361 159.73 25.4361H148.2V16.7526H159.797C160.387 16.7526 160.935 16.5159 160.935 15.7696C160.935 15.0232 160.37 14.8593 159.797 14.8593H152.263V17.1895H148.167V11.2367H159.629C162.764 11.2367 164.778 12.5474 164.778 15.1597C164.812 15.798 164.652 16.4307 164.324 16.9626C163.996 17.4945 163.516 17.8968 162.958 18.1088C163.595 18.2995 164.152 18.7211 164.536 19.3028C164.919 19.8845 165.106 20.5909 165.065 21.3037ZM152.28 19.8655V21.8225H159.797C160.699 21.8225 161.045 21.4948 161.045 20.8395C161.045 20.1841 160.64 19.8382 159.797 19.8382L152.28 19.8655Z" fill="#4927B9"/>
<path d="M180.867 21.7952L178.238 25.4361H166.624V11.2367H170.686V21.7952H180.867Z" fill="#4927B9"/>
<path d="M196.939 21.7952L194.335 25.4361H181.71V11.2367H196.88L194.276 14.9322H185.781V16.6343H196.172L193.838 19.8473H185.781V21.8043L196.939 21.7952Z" fill="#4927B9"/>
<path d="M25.4274 17.735H22.763C22.763 13.2511 18.7068 9.59934 13.7109 9.59934C8.71503 9.59934 4.65885 13.2511 4.65885 17.735H1.99438C1.99438 11.7606 7.25195 6.8916 13.7109 6.8916C20.1699 6.8916 25.4274 11.7233 25.4274 17.735Z" fill="#4927B9"/>
<path d="M2.90834 23.6984C2.32 23.6806 1.74955 23.4745 1.26842 23.1058C0.787287 22.7371 0.416847 22.2222 0.203483 21.6256C-0.00988133 21.0291 -0.0566911 20.3773 0.0689134 19.7519C0.194518 19.1265 0.486955 18.5554 0.909613 18.1099C1.33227 17.6644 1.86637 17.3644 2.44504 17.2475C3.02371 17.1306 3.62123 17.2019 4.1628 17.4526C4.70438 17.7032 5.16593 18.122 5.48968 18.6566C5.81343 19.1912 5.98499 19.8178 5.98289 20.4579C5.9767 20.8902 5.89226 21.317 5.73439 21.7139C5.57652 22.1107 5.34832 22.4699 5.06281 22.7708C4.7773 23.0717 4.44009 23.3085 4.07042 23.4677C3.70075 23.6268 3.30587 23.7052 2.90834 23.6984ZM2.90834 19.3217C2.63128 19.3217 2.36558 19.4414 2.16967 19.6545C1.97376 19.8676 1.8637 20.1566 1.8637 20.4579C1.8637 20.7592 1.97376 21.0482 2.16967 21.2612C2.36558 21.4743 2.63128 21.594 2.90834 21.594C3.18539 21.594 3.4511 21.4743 3.64701 21.2612C3.84291 21.0482 3.95297 20.7592 3.95297 20.4579C3.95297 20.1566 3.84291 19.8676 3.64701 19.6545C3.4511 19.4414 3.18539 19.3217 2.90834 19.3217Z" fill="#4927B9"/>
<path d="M23.6497 23.6988C23.1083 23.6912 22.581 23.4936 22.1341 23.1309C21.6872 22.7683 21.3409 22.2568 21.1386 21.661C20.9364 21.0652 20.8874 20.4117 20.9977 19.7829C21.1081 19.154 21.3729 18.5781 21.7587 18.1275C22.1446 17.6769 22.6342 17.3719 23.166 17.251C23.6977 17.13 24.2477 17.1985 24.7467 17.4478C25.2456 17.6971 25.6712 18.116 25.9698 18.6518C26.2684 19.1876 26.4266 19.8163 26.4245 20.4586C26.4103 21.3216 26.112 22.1438 25.5935 22.7493C25.0749 23.3548 24.3773 23.6956 23.6497 23.6988ZM23.6497 19.3226C23.4613 19.3277 23.2783 19.3986 23.1237 19.5264C22.9692 19.6543 22.8498 19.8335 22.7807 20.0414C22.7115 20.2494 22.6956 20.477 22.735 20.6956C22.7744 20.9143 22.8672 21.1142 23.002 21.2705C23.1367 21.4269 23.3074 21.5325 23.4925 21.5743C23.6776 21.6161 23.869 21.5921 24.0427 21.5054C24.2165 21.4187 24.3647 21.2732 24.469 21.087C24.5733 20.9007 24.629 20.6822 24.629 20.4586C24.6276 20.3077 24.6012 20.1586 24.5512 20.0199C24.5012 19.8811 24.4286 19.7554 24.3377 19.6499C24.2468 19.5444 24.1392 19.4612 24.0211 19.4051C23.9031 19.3489 23.7769 19.3209 23.6497 19.3226Z" fill="#4927B9"/>
<path d="M24.8453 33.9998C24.2575 33.9819 23.6875 33.7761 23.2067 33.4079C22.7258 33.0397 22.3554 32.5256 22.1417 31.9297C21.9281 31.3339 21.8806 30.6828 22.0053 30.0577C22.1299 29.4327 22.4212 28.8615 22.8427 28.4155C23.2642 27.9695 23.7972 27.6685 24.3751 27.5502C24.953 27.4318 25.5502 27.5013 26.0919 27.75C26.6337 27.9987 27.0961 28.4156 27.4212 28.9485C27.7464 29.4814 27.9199 30.1067 27.9202 30.7463C27.9076 31.6206 27.577 32.454 27.0006 33.0638C26.4243 33.6736 25.6493 34.0102 24.8453 33.9998ZM24.8453 29.6056C24.6389 29.6107 24.4385 29.6819 24.2692 29.8103C24.0999 29.9387 23.9692 30.1186 23.8935 30.3274C23.8177 30.5362 23.8003 30.7647 23.8435 30.9843C23.8866 31.2038 23.9883 31.4046 24.1359 31.5616C24.2835 31.7185 24.4704 31.8246 24.6731 31.8665C24.8759 31.9085 25.0855 31.8844 25.2758 31.7974C25.466 31.7104 25.6285 31.5642 25.7427 31.3772C25.8569 31.1902 25.9179 30.9707 25.9179 30.7463C25.9164 30.5948 25.8874 30.4451 25.8326 30.3057C25.7779 30.1664 25.6984 30.0402 25.5988 29.9343C25.4992 29.8284 25.3814 29.7448 25.2521 29.6884C25.1228 29.632 24.9846 29.6039 24.8453 29.6056Z" fill="#4927B9"/>
<path d="M4.98584 26.865V24.2341L8.72515 24.241L15.9545 24.241L23.5966 24.2341C25.9229 24.2341 28.7611 24.7853 30.6803 23.1829C33.7394 20.619 32.3087 15.9271 29.2845 14.2092C29.0297 14.0836 28.7591 14.0014 28.4819 13.9657C28.319 13.9657 26.8302 13.8503 26.8302 13.8503L25.4111 11.8504H26.2137C31.541 10.9915 36.1472 17.2731 33.7511 22.6573C33.376 23.5143 32.8364 24.2711 32.1696 24.8754C31.5028 25.4797 30.7247 25.917 29.8893 26.157C28.3953 26.4728 26.8718 26.5848 25.353 26.4903C23.7711 26.4903 22.1891 26.6057 20.5956 26.6314L12.1975 26.7852H5.98299L4.98584 26.865Z" fill="#4927B9"/>
<path d="M22.4358 32.3735H4.96855C2.80777 32.3735 0.99707 30.9522 0.99707 28.5501C1.00365 27.9288 1.12283 27.3164 1.34665 26.7537C1.57047 26.1911 1.89375 25.6912 2.29489 25.2875C2.69602 24.8838 3.16574 24.5856 3.67263 24.4129C4.17952 24.2402 4.71189 24.197 5.23412 24.2861L5.14962 26.8445C4.876 26.8623 4.61153 26.9667 4.38417 27.1469C4.15681 27.327 3.97501 27.5761 3.85798 27.8679C3.83057 28.0559 3.83557 28.2484 3.87268 28.4341C3.90979 28.6197 3.97826 28.7947 4.074 28.9485C4.16974 29.1024 4.2908 29.2319 4.42997 29.3295C4.56913 29.4271 4.72356 29.4908 4.88405 29.5166H22.3755L22.4358 32.3735Z" fill="#4927B9"/>
<path d="M12.0324 5.37457C13.6081 4.28605 15.3933 3.58099 17.2586 3.31039C19.124 3.03978 21.0231 3.21039 22.8184 3.80988C24.7197 4.44823 26.4042 5.65661 27.6668 7.28789C28.9295 8.91917 29.7158 10.903 29.93 12.9977C29.93 13.5109 29.3966 13.0979 29.5033 13.6111C29.8233 13.5485 32.431 15.3385 32.4072 14.9755C31.9331 8.95457 30.1552 5.58737 26.6113 2.97121C21.8702 -0.521164 13.5732 0.705549 9.68553 4.81128C9.43662 5.08667 9.19957 5.36205 8.97437 5.64995" fill="#4927B9"/>
</svg>
