<svg width="35" height="35" viewBox="0 0 35 35" fill="none" xmlns="http://www.w3.org/2000/svg">
<g clip-path="url(#clip0_356_330)">
<mask id="mask0_356_330" style="mask-type:luminance" maskUnits="userSpaceOnUse" x="0" y="0" width="35" height="35">
<path d="M35 0H0V35H35V0Z" fill="white"/>
</mask>
<g mask="url(#mask0_356_330)">
<path d="M27.2824 -0.245117H7.92736C3.47181 -0.245117 -0.140137 3.36683 -0.140137 7.82238V27.1774C-0.140137 31.6329 3.47181 35.2449 7.92736 35.2449H27.2824C31.7379 35.2449 35.3499 31.6329 35.3499 27.1774V7.82238C35.3499 3.36683 31.7379 -0.245117 27.2824 -0.245117Z" fill="#F2EFFF"/>
</g>
<path d="M7 22.6558V21.8858C7.15 20.9158 7.69 20.0858 8.51 19.5458C7.67 18.8458 7.2 18.2558 7 17.1558V16.3858C7.15 15.4158 7.69 14.5858 8.51 14.0458C7.67 13.3458 7.2 12.7558 7 11.6558V10.8858C7.2 9.51579 8.3 8.30579 9.69 8.08579C11.19 7.85579 21.58 8.17579 24.19 8.04579C27.32 8.37579 28.31 12.2558 25.67 14.0058C25.65 14.1158 26.3 14.2958 26.06 14.8258C25.78 15.4658 25.02 14.5858 24.36 14.5058H9.86C6.96 15.2058 7.62 18.7858 9.86 19.0658H15.8C16.3 19.1658 16.3 19.9058 15.8 20.0158H9.86C8.22 20.2258 7.32 22.3058 8.38 23.6958C8.68 24.0958 9.36 24.5158 9.86 24.5758H15.75C16.3 24.6758 16.3 25.4158 15.75 25.5258H10.03C8.44 25.3858 7.25 24.2458 7 22.6858V22.6558ZM9.86 8.97579C7.27 9.54579 7.27 12.9658 9.86 13.5358H24.36C26.91 12.9158 26.91 9.59579 24.36 8.97579H9.86Z" fill="#6B46F2"/>
<path d="M10.89 9.87559C12.82 9.62559 13.03 12.4356 11.32 12.6256C9.42997 12.8356 9.25997 10.0856 10.89 9.87559ZM11.06 10.7756C10.48 10.8456 10.58 11.7956 11.19 11.7256C11.77 11.6556 11.67 10.7056 11.06 10.7756Z" fill="#6B46F2"/>
<path d="M15.4898 9.87582C17.3998 9.64582 17.6098 12.4258 15.9198 12.6258C14.0198 12.8558 13.8398 10.0758 15.4898 9.87582ZM15.6698 10.7758C15.1198 10.8058 15.1398 11.7558 15.7598 11.7258C16.3298 11.6958 16.2998 10.7458 15.6698 10.7758Z" fill="#6B46F2"/>
<path d="M11.06 10.7757C11.67 10.7057 11.76 11.6557 11.19 11.7257C10.58 11.7957 10.49 10.8457 11.06 10.7757Z" fill="#6B46F2"/>
<path d="M15.67 10.7756C16.29 10.7356 16.33 11.6856 15.76 11.7256C15.15 11.7656 15.12 10.8156 15.67 10.7756Z" fill="#6B46F2"/>
<path d="M10.89 15.3858C12.82 15.1358 13.03 17.9458 11.32 18.1358C9.42997 18.3458 9.25997 15.5958 10.89 15.3858ZM11.06 16.2858C10.48 16.3558 10.58 17.3058 11.19 17.2358C11.77 17.1658 11.67 16.2158 11.06 16.2858Z" fill="#6B46F2"/>
<path d="M15.4898 15.3856C17.3998 15.1556 17.6098 17.9356 15.9198 18.1356C14.0198 18.3656 13.8398 15.5856 15.4898 15.3856ZM15.6698 16.2856C15.1198 16.3156 15.1398 17.2656 15.7598 17.2356C16.3298 17.2056 16.2998 16.2556 15.6698 16.2856Z" fill="#6B46F2"/>
<path d="M11.06 16.2859C11.67 16.2159 11.76 17.1659 11.19 17.2359C10.58 17.3059 10.49 16.3559 11.06 16.2859Z" fill="#6B46F2"/>
<path d="M15.67 16.2859C16.29 16.2459 16.33 17.1959 15.76 17.2359C15.15 17.2759 15.12 16.3259 15.67 16.2859Z" fill="#6B46F2"/>
<path d="M23.6498 29.1456H23.3898C20.8498 27.9556 18.2498 25.7556 18.0098 22.7556V18.3256L18.3298 18.0056C20.0798 17.4356 21.8298 16.8556 23.5798 16.2856C25.2898 16.8556 26.9898 17.4356 28.6998 18.0056L29.0198 18.3256V22.7556C28.7798 25.7456 26.1898 27.9556 23.6398 29.1456H23.6498ZM23.4898 17.2356C21.9598 17.7556 20.4398 18.2856 18.9098 18.8056C19.0198 21.4056 18.4098 23.3656 20.1098 25.5556C20.8298 26.4856 22.4398 27.7756 23.5698 28.1556C25.7798 27.0156 27.9098 25.1356 28.1098 22.4956V18.7956C26.5698 18.2756 25.0298 17.7456 23.4898 17.2256V17.2356ZM23.4898 17.2756C21.9598 17.7956 20.4398 18.3256 18.9098 18.8456C19.0198 21.4456 18.4098 23.4056 20.1098 25.5956C20.8298 26.5256 22.4398 27.8156 23.5698 28.1956C25.7798 27.0556 27.9098 25.1756 28.1098 22.5356V18.8356C26.5698 18.3156 25.0298 17.7856 23.4898 17.2656V17.2756Z" fill="#6B46F2"/>
<path d="M10.89 20.8858C12.82 20.6358 13.03 23.4458 11.32 23.6358C9.42997 23.8458 9.25997 21.0958 10.89 20.8858ZM11.06 21.7958C10.48 21.8658 10.58 22.8158 11.19 22.7458C11.77 22.6758 11.67 21.7258 11.06 21.7958Z" fill="#6B46F2"/>
<path d="M15.4898 20.8856C17.3998 20.6556 17.6098 23.4356 15.9198 23.6356C14.0198 23.8656 13.8398 21.0856 15.4898 20.8856ZM15.6698 21.7956C15.1198 21.8256 15.1398 22.7756 15.7598 22.7456C16.3298 22.7156 16.2998 21.7656 15.6698 21.7956Z" fill="#6B46F2"/>
<path d="M11.06 21.7957C11.67 21.7257 11.76 22.6757 11.19 22.7457C10.58 22.8157 10.49 21.8657 11.06 21.7957Z" fill="#6B46F2"/>
<path d="M15.67 21.7957C16.29 21.7557 16.33 22.7057 15.76 22.7457C15.15 22.7857 15.12 21.8357 15.67 21.7957Z" fill="#6B46F2"/>
<path d="M18.7601 18.5156L23.6201 16.7656L28.4301 18.5156L28.6701 23.1156C28.6701 23.1156 27.0401 26.2656 26.9701 26.3156C26.9001 26.3656 23.7101 28.6356 23.7101 28.6356L20.7801 26.8356C20.7801 26.8356 18.3301 24.8256 18.6101 22.6256C18.6101 22.6256 18.3301 19.1656 18.7601 18.5156Z" fill="#6B46F2"/>
<path d="M26.1999 20.4159C26.4999 20.3859 26.9199 20.7259 26.6099 21.2159C26.4799 21.4159 23.4199 24.4959 23.1899 24.5459H22.8899C22.7199 24.5059 20.7899 22.0659 20.7599 21.8959C20.6999 21.4959 21.0999 21.2259 21.4699 21.4059C22.0099 22.0659 22.5599 22.7259 23.0999 23.3859L25.9399 20.5459L26.1999 20.4159Z" fill="#EAE5FF"/>
</g>
<defs>
<clipPath id="clip0_356_330">
<rect width="35" height="35" fill="white"/>
</clipPath>
</defs>
</svg>
