<svg width="24" height="24" viewBox="0 0 24 24" fill="none" xmlns="http://www.w3.org/2000/svg">
<g clip-path="url(#clip0_1207_166)">
<path fill-rule="evenodd" clip-rule="evenodd" d="M5.46995 5.46995C5.61058 5.3295 5.8012 5.25061 5.99995 5.25061C6.1987 5.25061 6.38933 5.3295 6.52995 5.46995L18.53 17.4699C18.6036 17.5386 18.6627 17.6214 18.7037 17.7134C18.7447 17.8054 18.7668 17.9047 18.7685 18.0054C18.7703 18.1061 18.7518 18.2062 18.7141 18.2995C18.6764 18.3929 18.6202 18.4778 18.549 18.549C18.4778 18.6202 18.3929 18.6764 18.2995 18.7141C18.2062 18.7518 18.1061 18.7703 18.0054 18.7685C17.9047 18.7668 17.8054 18.7447 17.7134 18.7037C17.6214 18.6627 17.5386 18.6036 17.4699 18.53L5.46995 6.52995C5.3295 6.38933 5.25061 6.1987 5.25061 5.99995C5.25061 5.8012 5.3295 5.61058 5.46995 5.46995Z" fill="#FF0000"/>
<path fill-rule="evenodd" clip-rule="evenodd" d="M18.53 5.46995C18.6704 5.61058 18.7493 5.8012 18.7493 5.99995C18.7493 6.1987 18.6704 6.38933 18.53 6.52995L6.52997 18.53C6.38779 18.6624 6.19975 18.7346 6.00545 18.7311C5.81114 18.7277 5.62576 18.649 5.48835 18.5116C5.35093 18.3742 5.27222 18.1888 5.26879 17.9945C5.26537 17.8002 5.33749 17.6121 5.46997 17.4699L17.47 5.46995C17.6106 5.3295 17.8012 5.25061 18 5.25061C18.1987 5.25061 18.3893 5.3295 18.53 5.46995Z" fill="#FF0000"/>
</g>
<defs>
<clipPath id="clip0_1207_166">
<rect width="24" height="24" fill="white"/>
</clipPath>
</defs>
</svg>
