<svg width="70" height="70" viewBox="0 0 70 70" fill="none" xmlns="http://www.w3.org/2000/svg">
<path d="M57.6629 1.15234H12.3369C6.15954 1.15234 1.15186 6.16003 1.15186 12.3373V57.6633C1.15186 63.8406 6.15954 68.8483 12.3369 68.8483H57.6629C63.8402 68.8483 68.8479 63.8406 68.8479 57.6633V12.3373C68.8479 6.16003 63.8402 1.15234 57.6629 1.15234Z" fill="white"/>
<path d="M34.0145 47.5151C34.5494 47.5151 35.0629 47.5365 35.5978 47.5579C35.5978 49.077 35.5764 50.5961 35.555 52.1367C35.0201 52.1367 34.5066 52.1153 33.9717 52.0939C33.9717 50.5748 33.9931 49.0556 34.0145 47.5151Z" fill="white"/>
<path d="M14.3734 53.5064C16.4488 53.3353 16.6841 56.3949 14.8227 56.673C12.5975 56.994 12.3622 53.6776 14.3734 53.5064Z" fill="white"/>
<path d="M31.0405 53.5068H38.5505C38.5505 54.5552 38.5719 55.5822 38.5933 56.6306C36.0686 56.6306 33.5438 56.652 31.0405 56.6734V53.5068Z" fill="white"/>
<path d="M54.8551 53.5068C57.2087 53.3142 57.1445 57.0157 54.7695 56.6734C53.0365 56.4166 53.122 53.6565 54.8551 53.5068Z" fill="white"/>
<path d="M17.4551 54.3193H29.5866C29.5866 54.8542 29.608 55.3677 29.6294 55.9026C25.5641 55.9026 21.5203 55.924 17.4551 55.9454V54.3193Z" fill="white"/>
<path d="M40.0063 54.3193H52.1378C52.1378 54.8542 52.1592 55.3677 52.1806 55.9026C48.1154 55.9026 44.0716 55.924 40.0063 55.9454V54.3193Z" fill="white"/>
<path d="M37.3314 11.6562C39.5993 11.7846 49.9122 12.3409 50.4685 14.9512V21.6481C49.2703 23.6594 49.2703 21.9905 50.4685 24.0017V30.6986C49.1847 32.5387 49.3345 31.1051 50.4685 32.9666V39.6635C50.1475 41.3324 46.0395 41.8673 45.9325 42.1026C46.66 49.6768 43.5576 47.0023 37.0104 47.4944C37.0104 49.0135 36.989 50.5326 36.9676 52.0731C39.7277 51.9448 39.6635 52.8648 39.9203 52.929H53.0574C54.9188 51.3457 57.3793 52.2657 57.9998 54.5551V55.5607C57.4649 57.7858 54.983 58.8128 53.1643 57.2723H39.8561C39.5565 57.5077 39.257 57.7644 38.9575 57.9998H30.72C30.4205 57.7644 30.1209 57.5077 29.8214 57.2723H16.5131C14.181 59.2622 10.8218 56.8658 11.8488 53.9774C12.5121 52.1373 15.208 51.5382 16.5987 52.929H29.7358C29.9712 52.8648 29.907 51.9234 32.6885 52.0731C32.6885 50.554 32.6671 49.0349 32.6457 47.4944C26.0985 47.0023 22.9961 49.6768 23.7236 42.1026C23.6166 41.8673 19.5086 41.311 19.1876 39.6635V32.9666C20.3002 31.1051 20.5356 32.6242 19.1876 30.6986V24.0017C20.3858 21.9905 20.3858 23.6594 19.1876 21.6481V14.9512C19.7439 12.3409 30.0568 11.7632 32.3247 11.6562H37.3956H37.3314ZM32.3033 13.0256C29.6716 13.1112 24.9645 13.5177 22.5254 14.2879C20.236 15.0154 19.9365 15.4433 21.8835 16.1922C25.3711 17.5401 34.0364 17.7969 37.9091 17.6471C40.5621 17.5401 47.3019 16.9838 49.0991 15.3363C46.1251 13.0898 36.283 12.8972 32.3033 13.0256ZM20.5356 17.0908C20.5356 18.5243 20.5142 19.9579 20.4928 21.3914C22.8463 22.9533 28.3023 23.4668 31.2335 23.6166C35.5341 23.8091 45.7186 23.6808 49.1205 21.3914C49.1205 19.9579 49.0991 18.5243 49.0777 17.0908C42.1027 19.7011 27.532 19.7011 20.557 17.0908H20.5356ZM21.6054 23.6166C19.7439 24.2798 20.5356 24.7933 22.611 25.4352C28.0028 27.0827 41.5892 27.0827 46.9595 25.4352C48.4786 24.9645 49.8266 24.4082 48.4145 23.8091C47.473 23.424 45.6972 24.1729 44.606 24.344C37.5881 25.4352 28.5376 25.2854 21.6054 23.6166ZM20.5356 26.0557C20.5356 27.4892 20.5142 28.9228 20.4928 30.3563C22.8035 32.0893 29.4577 32.5601 32.4959 32.667C36.4541 32.7954 46.1251 32.5815 49.1205 30.3563C49.1205 28.9228 49.0991 27.4892 49.0777 26.0557C42.3594 28.7302 27.2753 28.7088 20.557 26.0557H20.5356ZM21.7124 32.5815C19.8081 33.2447 20.4928 33.7582 22.5254 34.4001C27.8958 36.0904 41.6961 36.0904 47.0665 34.4001C48.9707 33.801 50.0191 33.1591 47.6014 32.5815C40.2198 34.6141 29.1367 34.4857 21.7124 32.5815ZM20.5356 35.0206C20.5356 36.4755 20.5142 37.9518 20.4928 39.4067C21.3914 40.0914 22.5254 40.3696 23.6166 40.6263C23.9161 39.1928 23.1245 37.3527 24.3013 36.2402C24.2799 36.0476 21.6054 35.748 20.5356 35.0206ZM49.0563 35.0206C48.0507 35.748 45.3334 36.0476 45.2906 36.2402C46.4674 37.3527 45.6758 39.1928 45.9753 40.6263C47.0665 40.3696 48.2005 40.0914 49.0991 39.4067C49.0991 37.9518 49.0777 36.4755 49.0563 35.0206ZM25.4994 37.0104C25.3283 37.1816 25.1571 37.3527 25.0073 37.5025V45.6544C25.1785 45.8255 25.3497 45.9967 25.4994 46.1465H44.0711L44.5632 45.6544V37.5025L44.0711 37.0104H25.4994ZM34.015 47.5158C34.015 49.0349 33.9936 50.554 33.9722 52.0945C34.5071 52.0945 35.0206 52.1159 35.5555 52.1373C35.5555 50.6182 35.5769 49.0991 35.5983 47.5586C35.0634 47.5586 34.5499 47.5372 34.015 47.5158ZM14.3736 53.5067C12.3623 53.6778 12.5977 56.9942 14.8229 56.6733C16.6843 56.3951 16.449 53.3355 14.3736 53.5067ZM31.041 53.5067V56.6733C33.5657 56.6733 36.0904 56.6519 38.5937 56.6305C38.5937 55.5821 38.5723 54.5551 38.5509 53.5067H31.041ZM54.8546 53.5067C53.1002 53.6564 53.036 56.4165 54.769 56.6733C57.1654 57.0156 57.2082 53.2927 54.8546 53.5067ZM17.4546 54.3197V55.9458C21.5198 55.9458 25.5636 55.9244 29.6288 55.903C29.6288 55.3681 29.6074 54.8546 29.586 54.3197H17.4546ZM40.0059 54.3197V55.9458C44.0711 55.9458 48.1149 55.9244 52.1801 55.903C52.1801 55.3681 52.1587 54.8546 52.1373 54.3197H40.0059Z" fill="#6B46F2"/>
<path d="M20.5354 17.0908C27.5104 19.7011 42.0811 19.7011 49.0561 17.0908C49.0561 18.5243 49.0775 19.9579 49.0989 21.3914C45.697 23.6808 35.5125 23.8091 31.2119 23.6166C28.3021 23.4882 22.8461 22.9747 20.4712 21.3914C20.4712 19.9579 20.4926 18.5243 20.514 17.0908H20.5354Z" fill="#6B46F2"/>
<path d="M20.5354 26.0557C27.2537 28.7088 42.3378 28.7302 49.0561 26.0557C49.0561 27.4892 49.0775 28.9227 49.0989 30.3562C46.1035 32.5814 36.4325 32.7954 32.4743 32.667C29.4361 32.5814 22.782 32.0893 20.4712 30.3562C20.4712 28.9227 20.4926 27.4892 20.514 26.0557H20.5354Z" fill="#6B46F2"/>
<path d="M20.536 35.02C21.6058 35.7475 24.2588 36.047 24.3016 36.2396C23.1249 37.3522 23.9165 39.1922 23.617 40.6258C22.5258 40.369 21.3918 40.0908 20.4932 39.4062C20.4932 37.9513 20.5146 36.4749 20.536 35.02Z" fill="#6B46F2"/>
<path d="M49.0562 35.02C49.0562 36.4749 49.0776 37.9513 49.099 39.4062C48.2004 40.0908 47.0664 40.369 45.9752 40.6258C45.6757 39.1922 46.4673 37.3522 45.2905 36.2396C45.3119 36.047 48.0292 35.7475 49.0562 35.02Z" fill="#6B46F2"/>
<path d="M28.8591 38.658C29.6293 38.5724 31.2982 39.0645 31.0843 40.0701C30.8275 41.2041 28.6665 39.3426 28.5596 40.3482C28.4954 40.7976 31.9187 41.0543 31.1913 43.3437C30.528 45.3763 26.6767 44.4991 27.019 42.9799C27.2758 41.8246 28.6237 43.3437 29.4154 43.2153C29.5866 43.0869 29.7577 42.9372 29.9075 42.8088C29.9717 42.1669 27.6395 42.1241 27.2758 40.9045C26.9763 39.8775 27.8107 38.7863 28.8591 38.6794V38.658Z" fill="#6B46F2"/>
<path d="M34.7423 38.6581C37.0959 38.4442 38.8932 40.9903 37.588 43.0443C38.6578 44.0713 37.5238 45.0983 36.6466 44.0927C31.5972 46.2109 30.7199 39.0219 34.7423 38.6581ZM34.8279 40.0061C33.1377 40.2414 33.1377 42.9373 34.8279 43.1727C36.0689 43.3438 35.2558 42.7234 35.2345 42.5736C35.1917 42.3168 35.4056 41.7819 35.641 41.7178C36.3042 41.5252 36.775 42.6378 36.6894 41.3968C36.6252 40.541 35.6624 39.8777 34.8279 39.9847V40.0061Z" fill="#6B46F2"/>
<path d="M40.1767 38.6577C41.6958 38.3796 40.7972 42.2737 41.0325 43.1295C41.1181 43.2793 42.9581 42.8299 42.573 44.1351C42.4018 44.6914 39.8771 44.8412 39.6846 44.0495V39.1498L40.1767 38.6577Z" fill="#6B46F2"/>
</svg>
