<?xml version="1.0" encoding="UTF-8"?>
<svg id="Layer_1" xmlns="http://www.w3.org/2000/svg" viewBox="0 0 56 56">
  <defs>
    <style>
      .cls-1 {
        fill: #fff;
      }

      .cls-2 {
        fill: #5138cc;
      }
    </style>
  </defs>
  <rect class="cls-1" width="56" height="56" rx="6.8" ry="6.8"/>
  <g>
    <g>
      <path class="cls-2" d="M13.36,8.51c2.25.18,7.67.35,8.89,2.29.01,5.87.03,11.73.04,17.6-.06.33-.57.77-.85.94-2.16,1.31-8.14,1.55-10.71,1.48-2-.06-7.96-.45-8.95-2.29-.01-5.87-.03-11.73-.04-17.6.15-.91,2.63-1.74,2.98-1.63.15.05.32.42,0,.61-.11.06-2.01.49-2.29,1.07-.4.83,2.94,1.54,3.46,1.63,3.6.67,10.26.67,13.76-.35,2.31-.67,2.79-1.42.17-2.22-2.86-.87-7.8-.99-10.8-.78-.96.1-1.92.2-2.87.3-.23-.07-.3-.53.13-.65.9-.1,1.8-.2,2.7-.3.6-.03,1.21-.06,1.81-.09h2.57ZM2.41,12.13c0,1.59-.01,3.18-.02,4.77.14.57,2.34,1.16,2.9,1.28,3.71.81,10.68.82,14.33-.22.42-.12,1.92-.63,2.03-1.07,0-1.59-.01-3.18-.02-4.77-3.04,1.76-10.05,1.78-13.55,1.44-1.79-.17-4.1-.53-5.66-1.44ZM2.41,17.83c0,1.59-.01,3.18-.02,4.77.13.53,2.25,1.12,2.77,1.24,3.7.84,10.96.86,14.59-.22.38-.11,1.8-.64,1.89-1.02,0-1.59-.01-3.18-.02-4.77-1.85,1.04-4.76,1.39-6.88,1.52-3.22.2-9.53.09-12.33-1.52ZM2.41,23.54c0,1.58-.01,3.15-.02,4.73.14.58,2.26,1.16,2.81,1.28,3.33.75,8.82.77,12.2.26.74-.11,4.05-.75,4.25-1.55,0-1.58-.01-3.15-.02-4.73-1.36.75-3.17,1.11-4.7,1.31-3.67.47-11.22.5-14.5-1.31Z"/>
      <path class="cls-2" d="M17.83,14.44c1.96-.27,2,2.84-.04,2.53-1.32-.2-1.29-2.34.04-2.53ZM17.91,15.09c-.6.12-.6,1.1-.04,1.22,1.08.23,1.02-1.41.04-1.22Z"/>
      <path class="cls-2" d="M4.93,15.26c.78.15,1.57.29,2.35.44,1.85.23,3.76.29,5.62.26l2.48-.13c.23.06.32.56-.04.65l-2.35.13c-1.89.05-4.81-.08-6.66-.39-.9-.15-1.78-.24-1.68-.72.09-.08.19-.16.28-.24Z"/>
      <path class="cls-2" d="M17.83,20.05c1.96-.27,2,2.84-.04,2.53-1.32-.2-1.29-2.34.04-2.53ZM17.91,20.71c-.6.12-.6,1.1-.04,1.22,1.08.23,1.02-1.41.04-1.22Z"/>
      <path class="cls-2" d="M4.89,20.88c.84.15,1.68.29,2.53.44,1.48.18,3.12.26,4.62.26,1.12-.04,2.24-.09,3.35-.13.31.08.29.58-.09.65-.46.03-.93.06-1.39.09-1.42.07-3.76.02-5.18-.09-.61-.05-3.45-.41-3.83-.57-.4-.17-.25-.6,0-.65Z"/>
      <path class="cls-2" d="M17.91,25.67c1.97-.15,1.79,2.94-.17,2.53-1.33-.28-1.19-2.42.17-2.53ZM17.96,26.33c-.73.1-.64,1.3.13,1.26.84-.04.74-1.38-.13-1.26Z"/>
      <path class="cls-2" d="M4.89,26.59c1.1.17,2.21.35,3.31.52,1.35.06,2.7.12,4.05.17.19.06.29.48,0,.61-1-.01-2-.03-3.01-.04-.7-.04-3.9-.41-4.36-.61-.41-.18-.23-.61,0-.65Z"/>
      <path class="cls-2" d="M14.69,27.15c.5,0,1.27-.07.74.61-.34,0-2.25.4-1.85-.37.1-.2.87-.23,1.11-.24Z"/>
    </g>
    <g>
      <path class="cls-2" d="M45.34,25.89c2.25.18,7.67.35,8.89,2.29.01,5.87.03,11.73.04,17.6-.06.33-.57.77-.85.94-2.16,1.31-8.14,1.55-10.71,1.48-2-.06-7.96-.45-8.95-2.29-.01-5.87-.03-11.73-.04-17.6.15-.91,2.63-1.74,2.98-1.63.15.05.32.42,0,.61-.11.06-2.01.49-2.29,1.07-.4.83,2.94,1.54,3.46,1.63,3.6.67,10.26.67,13.76-.35,2.31-.67,2.79-1.42.17-2.22-2.86-.87-7.8-.99-10.8-.78-.96.1-1.92.2-2.87.3-.23-.07-.3-.53.13-.65.9-.1,1.8-.2,2.7-.3.6-.03,1.21-.06,1.81-.09h2.57ZM34.38,29.5c0,1.59-.01,3.18-.02,4.77.14.57,2.34,1.16,2.9,1.28,3.71.81,10.68.82,14.33-.22.42-.12,1.92-.63,2.03-1.07,0-1.59-.01-3.18-.02-4.77-3.04,1.76-10.05,1.78-13.55,1.44-1.79-.17-4.1-.53-5.66-1.44ZM34.38,35.21c0,1.59-.01,3.18-.02,4.77.13.53,2.25,1.12,2.77,1.24,3.7.84,10.96.86,14.59-.22.38-.11,1.8-.64,1.89-1.02,0-1.59-.01-3.18-.02-4.77-1.85,1.04-4.76,1.39-6.88,1.52-3.22.2-9.53.09-12.33-1.52ZM34.38,40.91c0,1.58-.01,3.15-.02,4.73.14.58,2.26,1.16,2.81,1.28,3.33.75,8.82.77,12.2.26.74-.11,4.05-.75,4.25-1.55,0-1.58-.01-3.15-.02-4.73-1.36.75-3.17,1.11-4.7,1.31-3.67.47-11.22.5-14.5-1.31Z"/>
      <path class="cls-2" d="M49.8,31.81c1.96-.27,2,2.84-.04,2.53-1.32-.2-1.29-2.34.04-2.53ZM49.89,32.46c-.6.12-.6,1.1-.04,1.22,1.08.23,1.02-1.41.04-1.22Z"/>
      <path class="cls-2" d="M36.91,32.64c.78.15,1.57.29,2.35.44,1.85.23,3.76.29,5.62.26l2.48-.13c.23.06.32.56-.04.65l-2.35.13c-1.89.05-4.81-.08-6.66-.39-.9-.15-1.78-.24-1.68-.72.09-.08.19-.16.28-.24Z"/>
      <path class="cls-2" d="M49.8,37.43c1.96-.27,2,2.84-.04,2.53-1.32-.2-1.29-2.34.04-2.53ZM49.89,38.08c-.6.12-.6,1.1-.04,1.22,1.08.23,1.02-1.41.04-1.22Z"/>
      <path class="cls-2" d="M36.87,38.26c.84.15,1.68.29,2.53.44,1.48.18,3.12.26,4.62.26,1.12-.04,2.24-.09,3.35-.13.31.08.29.58-.09.65-.46.03-.93.06-1.39.09-1.42.07-3.76.02-5.18-.09-.61-.05-3.45-.41-3.83-.57-.4-.17-.25-.6,0-.65Z"/>
      <path class="cls-2" d="M49.89,43.05c1.97-.15,1.79,2.94-.17,2.53-1.33-.28-1.19-2.42.17-2.53ZM49.93,43.7c-.73.1-.64,1.3.13,1.26.84-.04.74-1.38-.13-1.26Z"/>
      <path class="cls-2" d="M36.87,43.96c1.1.17,2.21.35,3.31.52,1.35.06,2.7.12,4.05.17.19.06.29.48,0,.61-1-.01-2-.03-3.01-.04-.7-.04-3.9-.41-4.36-.61-.41-.18-.23-.61,0-.65Z"/>
      <path class="cls-2" d="M46.67,44.53c.5,0,1.27-.07.74.61-.34,0-2.25.4-1.85-.37.1-.2.87-.23,1.11-.24Z"/>
    </g>
    <path class="cls-2" d="M30.32,4.46c1.35-.22.74,1.92.9,2.64,7.34.43,13.34,6.86,11.49,14.36-1.46-5.2-6.11-8.94-11.49-9.35-.15.65.32,2.32-.53,2.54-.26.07-.55-.03-.75-.22-1.24-1.48-2.47-2.96-3.71-4.44-.18-.31-.18-.56,0-.87,1.2-1.44,2.4-2.87,3.61-4.31.12-.13.3-.32.48-.35Z"/>
    <path class="cls-2" d="M13.52,34.58c1.46,5.2,6.11,8.94,11.49,9.35.15-.65-.32-2.32.53-2.54.26-.07.55.03.75.22,1.24,1.48,2.47,2.96,3.71,4.44.18.31.18.56,0,.87-1.29,1.52-2.57,3.04-3.86,4.56-1.64.55-.97-1.65-1.14-2.54-7.34-.43-13.34-6.86-11.49-14.36Z"/>
  </g>
</svg>