<svg width="70" height="70" viewBox="0 0 70 70" fill="none" xmlns="http://www.w3.org/2000/svg">
<path d="M57.6629 1.15234H12.3369C6.15953 1.15234 1.15186 6.16003 1.15186 12.3373V57.6633C1.15186 63.8406 6.15953 68.8483 12.3369 68.8483H57.6629C63.8402 68.8483 68.8479 63.8406 68.8479 57.6633V12.3373C68.8479 6.16003 63.8402 1.15234 57.6629 1.15234Z" fill="white"/>
<path d="M38.3432 11.4019C44.4729 11.9067 50.0797 15.9631 52.189 21.7502C59.761 25.2116 61.3295 35.3256 55.1096 40.7522C52.9823 42.6091 48.2949 44.5201 48.8357 42.1043C49.016 41.275 51.1975 41.4733 53.5231 39.6344C58.1024 36.0107 58.3007 28.9075 53.9017 25.0494C52.8561 24.4184 51.8285 23.7874 50.7828 23.1384C47.7 14.034 36.7747 10.212 28.8242 15.945C23.5599 19.731 23.2894 25.3198 23.019 25.8426C22.4782 26.8883 20.9818 25.7345 18.2415 26.726C12.7428 28.7272 11.4267 36.5876 16.3845 40.1933C18.7823 41.942 20.9277 41.1488 20.5131 42.8435C20.1525 44.3759 16.1321 42.4468 14.7079 41.2209C12.851 39.6164 11.7693 37.3087 11.4087 34.9109V33.1442C12.0036 27.952 16.2223 24.3102 21.4325 24.3643C22.6945 17.3152 29.0045 11.9067 36.1077 11.4019H38.3432Z" fill="#6B46F2"/>
<path d="M27.166 26.8345H43.2294C47.2317 27.3212 48.728 32.6577 45.5009 35.1456C47.8086 37.3631 47.9348 40.4279 45.5009 42.5733C47.43 44.3581 47.9528 47.1345 46.2401 49.2619C44.0046 52.0382 39.3352 50.6501 36.1622 50.9746C36.1622 51.8219 36.1262 52.6692 36.1081 53.5346C40.0744 55.4456 36.9735 60.4395 33.7464 58.6006C31.7452 57.4648 32.0878 54.2557 34.2512 53.5346C34.2512 52.6873 34.2151 51.8399 34.1971 50.9746C31.0782 50.6501 26.4269 51.9842 24.2094 49.352C22.4426 47.2607 22.8752 44.268 24.9485 42.5733C22.4065 40.6262 22.5507 37.1648 24.9485 35.1456C21.6133 32.7839 23.1276 27.3393 27.13 26.8345H27.166ZM27.3463 28.6914C24.2634 29.1421 24.2815 33.8115 27.3463 34.2622H43.0491C46.168 33.8115 46.168 29.1421 43.0491 28.6914H27.3463ZM27.3463 36.1191C24.2634 36.5518 24.2634 41.2392 27.3463 41.6899H43.0491C46.168 41.2392 46.168 36.5698 43.0491 36.1191H27.3463ZM27.3463 43.5468C24.2815 43.9795 24.2094 48.6849 27.4364 49.1176H43.0311C46.15 48.6669 46.15 43.9976 43.0311 43.5468H27.3283H27.3463ZM35.0625 55.2473C33.9627 55.3735 34.107 57.2485 35.3329 57.1042C36.4326 56.978 36.2884 55.1031 35.0625 55.2473Z" fill="#6B46F2"/>
<path d="M27.9946 30.4575H35.891C36.6663 30.6558 36.7744 32.1161 35.5124 32.3144H28.3551C27.0751 32.0801 27.3636 30.6198 27.9765 30.4575H27.9946Z" fill="#6B46F2"/>
<path d="M38.5778 30.4578C40.1644 30.0792 40.2004 32.6032 38.5778 32.2246C37.7846 32.0443 37.7846 30.6381 38.5778 30.4578Z" fill="#6B46F2"/>
<path d="M41.8405 30.4576C43.1205 30.1511 43.463 31.8818 42.4895 32.2244C41.2095 32.6751 40.7768 30.71 41.8405 30.4576Z" fill="#6B46F2"/>
<path d="M27.9946 37.8857H35.891C36.6663 38.0841 36.7744 39.5444 35.5124 39.7427H28.3551C27.0751 39.5083 27.3636 38.048 27.9765 37.8857H27.9946Z" fill="#6B46F2"/>
<path d="M38.5778 37.8855C40.1644 37.5069 40.2004 40.0309 38.5778 39.6523C37.7846 39.472 37.7846 38.0658 38.5778 37.8855Z" fill="#6B46F2"/>
<path d="M41.8411 37.8854C43.1932 37.5789 43.3915 39.4178 42.4901 39.6522C41.0839 40.0128 40.8675 38.1198 41.8411 37.8854Z" fill="#6B46F2"/>
<path d="M27.9946 45.3135H35.891C36.6663 45.5118 36.7744 46.9721 35.5124 47.1704H28.3551C27.0751 46.936 27.3636 45.4757 27.9765 45.3135H27.9946Z" fill="#6B46F2"/>
<path d="M38.5778 45.3137C40.1644 44.9351 40.2004 47.4591 38.5778 47.0805C37.7846 46.9002 37.7846 45.494 38.5778 45.3137Z" fill="#6B46F2"/>
<path d="M41.8411 45.3136C43.1932 45.0072 43.3915 46.8461 42.4901 47.0804C41.0839 47.441 40.8675 45.548 41.8411 45.3136Z" fill="#6B46F2"/>
<path d="M11.4087 56.3649V55.9863C11.5709 55.77 11.7512 55.5536 11.9135 55.3373C12.7067 54.9947 26.8771 55.4094 29.0946 55.2471C29.996 55.5716 29.96 56.8877 29.0946 57.1041H12.2019C11.8053 56.9598 11.607 56.7615 11.4087 56.3649Z" fill="#6B46F2"/>
<path d="M35.0624 55.2467C36.3064 55.1024 36.4506 56.9774 35.3328 57.1036C34.0889 57.2478 33.9447 55.3729 35.0624 55.2467Z" fill="#6B46F2"/>
<path d="M41.1914 55.2466H58.1923C59.2379 55.6432 59.2379 56.7069 58.1923 57.1035H41.1914C40.29 56.8872 40.3261 55.4449 41.1914 55.2466Z" fill="#6B46F2"/>
</svg>
