<?xml version="1.0" encoding="UTF-8"?>
<svg id="Layer_1" xmlns="http://www.w3.org/2000/svg" viewBox="0 0 20 20">
  <defs>
    <style>
      .cls-1 {
        fill: #f2efff;
      }

      .cls-2 {
        fill: #fff;
      }

      .cls-3 {
        fill: #6b46f2;
      }
    </style>
  </defs>
  <rect class="cls-1" x="-.08" y="-.14" width="20.28" height="20.28" rx="4.61" ry="4.61"/>
  <g>
    <path class="cls-3" d="M3.45,17.59h13.1c.55,0,.99-.44.99-.99V3.4c0-.55-.44-.99-.99-.99H3.45c-.55,0-.99.44-.99.99v13.2c0,.55.44.99.99.99ZM2.46,5.39h15.08"/>
    <circle class="cls-2" cx="4.1" cy="4" r=".4"/>
    <circle class="cls-2" cx="5.49" cy="4" r=".4"/>
    <circle class="cls-2" cx="6.88" cy="4" r=".4"/>
    <circle class="cls-2" cx="10.62" cy="10.31" r=".58"/>
    <circle class="cls-2" cx="14.24" cy="12.21" r=".58"/>
    <circle class="cls-2" cx="12.65" cy="14.65" r=".58"/>
    <path class="cls-2" d="M15.98,14.8h-2.63c-.08,0-.15-.07-.15-.15s.07-.15.15-.15h2.63c.08,0,.15.07.15.15s-.07.15-.15.15ZM11.99,14.8h-2.67c-.08,0-.15-.07-.15-.15s.07-.15.15-.15h2.67c.08,0,.15.07.15.15s-.07.15-.15.15ZM15.98,12.48h-1.05c-.08,0-.15-.07-.15-.15s.07-.15.15-.15h1.05c.08,0,.15.07.15.15s-.07.15-.15.15ZM13.57,12.48h-4.25c-.08,0-.15-.07-.15-.15s.07-.15.15-.15h4.25c.08,0,.15.07.15.15s-.07.15-.15.15ZM15.98,10.45h-4.69c-.08,0-.15-.07-.15-.15s.07-.15.15-.15h4.69c.08,0,.15.07.15.15s-.07.15-.15.15ZM9.93,10.45h-.61c-.08,0-.15-.07-.15-.15s.07-.15.15-.15h.61c.08,0,.15.07.15.15s-.07.15-.15.15Z"/>
    <path class="cls-2" d="M3.79,9.59v-.66h.34c.1,0,.2-.06.22-.16.03-.1.07-.19.11-.28.06-.08.04-.2-.04-.26l-.25-.22.49-.49.22.26c.06.07.16.09.24.04l.3-.13c.09-.02.15-.11.14-.2v-.34h.65c0,.11,0,.22,0,.34,0,.09.06.18.15.2l.29.12c.08.06.2.04.26-.04.07-.09.15-.16.21-.23l.48.49-.23.2c-.08.06-.1.17-.05.25.05.1.1.21.13.32.03.08.11.13.19.12h.35v.66h-.34c-.1,0-.18.05-.22.15-.04.1-.08.2-.12.3-.05.08-.03.18.04.24l.25.22-.49.48c-.07-.08-.14-.16-.22-.25s-.14-.08-.23-.04c-.1.05-.2.09-.31.13-.09.03-.15.11-.14.21,0,.11,0,.22,0,.34h-.65v-.34c.02-.1-.05-.19-.15-.21l-.19-.07q-.25-.11-.43.08c-.05.05-.1.11-.14.17l-.47-.49c.07-.08.14-.15.22-.22.08-.06.1-.18.05-.27-.04-.1-.09-.2-.12-.3-.02-.09-.11-.15-.2-.13h-.35ZM6.87,9.26c0-.54-.44-.97-.98-.97s-.97.44-.97.98c0,.54.44.97.98.97.54,0,.97-.44.97-.98,0,0,0,0,0,0Z"/>
    <rect class="cls-2" x="2.46" y="5.06" width="15.08" height=".41"/>
  </g>
</svg>