<?xml version="1.0" encoding="UTF-8"?>
<svg id="Layer_1" xmlns="http://www.w3.org/2000/svg" viewBox="0 0 70 70">
  <defs>
    <style>
      .cls-1 {
        fill: #fff;
      }

      .cls-2 {
        fill: #5138cc;
      }
    </style>
  </defs>
  <g id="Character">
    <rect class="cls-2" width="70" height="70" rx="12.56" ry="12.56"/>
  </g>
  <g>
    <path class="cls-1" d="M14.58,14.44c5.32.28,37.01-.37,38.92,0,.79.15,1.38,1.15,1.48,1.89-.03,3.19-.07,6.39-.1,9.58-.16.59-.88,1.27-1.48,1.38-1.91.34-33.34-.26-38.82,0-.84-.34-1.36-.98-1.48-1.89v-9.07c.12-.9.64-1.55,1.48-1.89ZM15.7,16.99v7.74c12.21-.02,24.42-.03,36.63-.05-.02-2.56-.03-5.13-.05-7.69H15.7Z"/>
    <path class="cls-1" d="M19.88,19.53c1.34,0,1.75,2.21.41,2.55-1.99.5-2.25-2.54-.41-2.55Z"/>
    <path class="cls-1" d="M25.18,19.53c1.46-.04,1.75,2.27.41,2.55-2.04.42-2.1-2.5-.41-2.55Z"/>
    <path class="cls-1" d="M41.68,19.74c1.81-.31,2.09,2.37.51,2.55-1.72.19-1.97-2.3-.51-2.55Z"/>
    <path class="cls-1" d="M47.19,19.74c1.81-.31,2.06,2.31.51,2.55-1.65.25-2.02-2.29-.51-2.55Z"/>
    <path class="cls-1" d="M14.78,29.32c2.17-.36,32.89.28,38.52,0,1.22.29,1.8,1.4,1.68,2.6-.18,1.82-2.59,1.79-2.6-.05-12.24.02-24.49.03-36.73.05.09.93-.18,7.59.15,7.79h23.74c.83.18,1.24,1.4.66,2.09-.73.86-3,.26-4.08.51v11.21c3.14.02,6.28.03,9.43.05.83.2,1.54,2.03-.2,2.55h-23.54c-1.35-.25-1.41-2.28-.1-2.55,3.96-.02,7.91-.03,11.87-.05v-11.21c-6.23-.02-12.46-.03-18.7-.05-.99-.16-1.65-1.03-1.78-1.99.03-3.19.07-6.39.1-9.58.17-.64.95-1.27,1.58-1.38Z"/>
    <path class="cls-1" d="M19.57,34.51c1.81-.31,2.09,2.37.51,2.55-1.72.19-1.97-2.3-.51-2.55Z"/>
    <path class="cls-1" d="M24.87,34.51c1.83-.36,2.09,2.3.61,2.55-1.64.27-2.12-2.26-.61-2.55Z"/>
    <path class="cls-1" d="M48.92,34.72c5.27-.5,9.88,4.53,7.18,11.06-.89,2.16-4.88,7.33-5.96,7.59-1.1.27-2.5-1.4-3.21-2.19-3.02-3.35-6.03-8.49-3.46-12.94,1.03-1.78,3.4-3.32,5.45-3.52ZM49.02,37.26c-1.72.2-3.55,1.93-3.92,3.62-.69,3.18,2.39,7.36,4.64,9.43,2.52-2.53,6.22-7.32,3.92-10.95-.92-1.45-2.95-2.29-4.64-2.09Z"/>
    <path class="cls-1" d="M49.02,37.26c1.68-.2,3.72.63,4.64,2.09,2.3,3.63-1.4,8.42-3.92,10.95-2.24-2.06-5.33-6.25-4.64-9.43.37-1.69,2.2-3.41,3.92-3.62ZM49.63,39.91c-2.67.11-2.47,4.57.61,3.97,2.1-.41,1.79-4.07-.61-3.97Z"/>
    <path class="cls-2" d="M49.6,39.91c3.36-.14,3.79,4.98.85,5.55-4.31.84-4.59-5.4-.85-5.55Z"/>
  </g>
</svg>