<svg width="35" height="35" viewBox="0 0 35 35" fill="none" xmlns="http://www.w3.org/2000/svg">
<g clip-path="url(#clip0_347_24)">
<mask id="mask0_347_24" style="mask-type:luminance" maskUnits="userSpaceOnUse" x="0" y="0" width="35" height="35">
<path d="M35 0H0V35H35V0Z" fill="white"/>
</mask>
<g mask="url(#mask0_347_24)">
<path d="M27.2824 -0.245117H7.92736C3.47181 -0.245117 -0.140137 3.36683 -0.140137 7.82238V27.1774C-0.140137 31.6329 3.47181 35.2449 7.92736 35.2449H27.2824C31.7379 35.2449 35.3499 31.6329 35.3499 27.1774V7.82238C35.3499 3.36683 31.7379 -0.245117 27.2824 -0.245117Z" fill="#F2EFFF"/>
</g>
<path d="M11.629 9H7.877L6 12.25L7.877 15.5H11.629L13.505 12.25L11.629 9Z" fill="#6B46F2"/>
<path d="M8.44141 13.3218V11.2728C8.44141 11.2728 8.56041 10.7378 9.06541 11.0648L10.4514 12.6788V11.3328C10.4514 11.3328 10.5204 10.7788 10.9764 11.0558C10.9764 11.0558 11.0654 11.0858 11.0654 11.6598V13.2538C11.0654 13.2538 11.0854 13.5708 10.6294 13.5308C10.6294 13.5308 10.3824 13.5708 9.85741 12.8278L8.99641 11.8078V13.1938C8.99641 13.1938 9.05541 13.5368 8.67941 13.5338C8.67941 13.5338 8.51141 13.5988 8.44141 13.3218Z" fill="white"/>
<path d="M17.264 22.4629H18.102C18.107 22.5389 18.112 22.6059 18.112 22.6769C18.115 23.0829 18.117 23.4889 18.112 23.8959C18.109 24.0419 18.13 24.1119 18.313 24.1019C18.678 24.0809 19.042 24.0939 19.409 24.0969C19.776 24.0999 19.896 24.2319 19.893 24.5889C19.89 24.9459 19.896 25.2579 19.893 25.5939C19.89 25.9299 19.771 26.0389 19.45 26.0389C18.257 26.0439 17.065 26.0459 15.872 26.0439C15.645 26.0439 15.5 25.9219 15.494 25.6949C15.481 25.2759 15.484 24.8569 15.494 24.4369C15.499 24.2229 15.658 24.1059 15.931 24.1009C16.309 24.0929 16.686 24.0829 17.064 24.1009C17.244 24.1109 17.267 24.0439 17.265 23.8949C17.26 23.4259 17.262 22.9549 17.262 22.4629H17.264Z" fill="#6B46F2"/>
<path d="M14.7831 24.6421C14.7831 24.8971 14.7881 25.1421 14.7781 25.3871C14.7781 25.4261 14.7101 25.4701 14.6661 25.4991C14.6221 25.5281 14.6041 25.5021 14.5701 25.5021C13.0811 25.5021 11.5881 25.5051 10.0991 25.5021C9.73213 25.5021 9.51313 25.2131 9.64613 24.9031C9.70813 24.7571 9.82013 24.6611 9.98513 24.6561C10.3731 24.6461 10.7641 24.6431 11.1541 24.6401H14.7841V24.6431L14.7831 24.6421Z" fill="#6B46F2"/>
<path d="M20.5952 25.4811V24.6481H22.7802L25.2332 24.6431C25.4412 24.6431 25.6292 24.6821 25.7302 24.8981C25.8062 25.0651 25.7902 25.2231 25.6682 25.3431C25.5872 25.4211 25.4622 25.4971 25.3562 25.4991C23.8012 25.5071 22.2472 25.5041 20.6902 25.5021C20.6722 25.4991 20.6532 25.4921 20.5952 25.4811Z" fill="#6B46F2"/>
<path d="M23.2723 10.7241L12.9523 10.7941C13.0523 10.9641 13.1423 11.1541 13.2223 11.3341C13.2323 11.3641 13.2423 11.3941 13.2523 11.4241V11.4341C13.2823 11.4741 13.3023 11.5241 13.3323 11.5741C13.4023 11.6941 13.4923 11.8041 13.5423 11.9341C13.7123 12.3241 13.4823 12.6941 13.2923 13.0241C13.1623 13.2441 13.0223 13.4641 12.8923 13.6841C12.8723 13.7341 12.8623 13.7941 12.8423 13.8441L23.2723 13.7741C23.5723 13.7741 23.8123 13.5341 23.8123 13.2441V11.2541C23.8123 10.9641 23.5723 10.7241 23.2723 10.7241ZM20.0223 12.8451C19.6923 12.8451 19.4323 12.5751 19.4323 12.2551C19.4323 11.9251 19.6923 11.6551 20.0223 11.6551C20.3523 11.6551 20.6223 11.9251 20.6223 12.2551C20.6223 12.5751 20.3523 12.8451 20.0223 12.8451Z" fill="#6B46F2"/>
<path d="M23.282 14.4951H12.542C12.272 14.9851 11.922 15.4351 11.582 15.8951V17.0051C11.582 17.3051 11.812 17.5351 12.102 17.5351H23.282C23.572 17.5351 23.812 17.3051 23.812 17.0051V15.0251C23.812 14.7351 23.572 14.4951 23.282 14.4951ZM20.022 16.6151C19.692 16.6151 19.432 16.3451 19.432 16.0151C19.432 15.6951 19.692 15.4251 20.022 15.4251C20.352 15.4251 20.622 15.6951 20.622 16.0151C20.622 16.3451 20.352 16.6151 20.022 16.6151Z" fill="#6B46F2"/>
<path d="M23.282 18.2451H12.102C11.812 18.2451 11.582 18.4851 11.582 18.7751V20.7551C11.582 21.0551 11.812 21.2851 12.102 21.2851H23.282C23.572 21.2851 23.812 21.0551 23.812 20.7551V18.7751C23.812 18.4851 23.572 18.2451 23.282 18.2451ZM20.022 20.3541C19.692 20.3541 19.432 20.0941 19.432 19.7641C19.432 19.4341 19.692 19.1741 20.022 19.1741C20.352 19.1741 20.622 19.4341 20.622 19.7641C20.622 20.0941 20.352 20.3541 20.022 20.3541Z" fill="#6B46F2"/>
<path d="M17.6791 12.085H14.5161V12.607H17.6791V12.085Z" fill="#EAE5FF"/>
<path d="M17.6791 15.7539H14.5161V16.2759H17.6791V15.7539Z" fill="#EAE5FF"/>
<path d="M17.5981 19.5039H14.4351V20.0259H17.5981V19.5039Z" fill="#EAE5FF"/>
</g>
<defs>
<clipPath id="clip0_347_24">
<rect width="35" height="35" fill="white"/>
</clipPath>
</defs>
</svg>
