<svg width="35" height="35" viewBox="0 0 35 35" fill="none" xmlns="http://www.w3.org/2000/svg">
<g clip-path="url(#clip0_91_95)">
<path d="M17.5 0.764893C26.742 0.764893 34.235 8.25789 34.235 17.4999C34.235 26.7419 26.742 34.2349 17.5 34.2349C8.25802 34.2349 0.765015 26.7419 0.765015 17.4999C0.765015 8.25789 8.25802 0.764893 17.5 0.764893Z" fill="#EAE5FF"/>
<path fill-rule="evenodd" clip-rule="evenodd" d="M11.6048 21.0983C11.4849 21.0233 11.335 21.0533 11.26 21.1582C11.2 21.2482 11.2 21.3531 11.26 21.4431C11.26 21.4431 11.3649 21.518 11.4249 21.518C11.4849 21.518 11.5448 21.4881 11.5898 21.4431C11.7247 21.4431 11.8297 21.3981 11.8297 21.2632C11.8297 21.1283 11.7247 21.0233 11.5898 21.0233V21.0833L11.6048 21.0983ZM11.6048 21.0983C11.4849 21.0233 11.335 21.0533 11.26 21.1582C11.2 21.2482 11.2 21.3531 11.26 21.4431C11.26 21.4431 11.3649 21.518 11.4249 21.518C11.4849 21.518 11.5448 21.4881 11.5898 21.4431C11.7247 21.4431 11.8297 21.3981 11.8297 21.2632C11.8297 21.1283 11.7247 21.0233 11.5898 21.0233V21.0833L11.6048 21.0983ZM27.0162 13.9023C27.0162 13.9023 26.9863 13.8273 26.9563 13.8123L25.0973 11.9534L24.9174 12.1183C24.9174 12.1183 24.8125 12.2232 24.7375 12.2382L24.4976 12.2682C24.4077 12.2682 24.3177 12.2382 24.2278 12.1932C24.1378 12.1632 24.0629 12.1183 24.0029 12.0583C23.9429 11.9983 23.883 11.9234 23.853 11.8334C23.823 11.7435 23.808 11.6535 23.793 11.5636C23.793 11.4736 23.793 11.3987 23.823 11.3087L23.928 11.1288L24.1079 10.9639L24.0329 10.9039L23.6581 10.5142C23.1634 10.0044 22.3988 9.20988 22.2189 9.08995L22.129 9.02998L22.024 9L21.9191 9.02998L21.8291 9.08995L9.85078 21.0683C9.85078 21.0683 9.8058 21.1283 9.79081 21.1582C9.77582 21.1882 9.76083 21.2182 9.76083 21.2482C9.76083 21.2932 9.76083 21.3232 9.79081 21.3531C9.79081 21.3831 9.82079 21.4131 9.85078 21.4431L10.0307 21.623L9.05622 22.5974C8.98126 22.6874 8.98126 22.8223 9.05622 22.8973L9.86577 23.7068C9.86577 23.7068 10.0457 23.7668 10.1206 23.7068L10.2705 23.5719C10.2705 23.5719 10.3605 23.4969 10.4205 23.4969C10.4804 23.4969 10.5254 23.5269 10.5704 23.5719C10.6453 23.6619 10.6453 23.7968 10.5704 23.8717L10.4205 24.0067C10.4205 24.0067 10.3605 24.1866 10.4205 24.2615L13.089 26.915C13.1639 27.005 13.2839 27.02 13.3738 26.96C13.3888 26.96 13.4038 26.93 13.4188 26.915L14.3783 25.9706L14.5432 26.1355L14.6331 26.1954L14.7231 26.2254L14.828 26.1954L14.918 26.1355L26.8963 14.1571C26.8963 14.1571 26.9413 14.0972 26.9563 14.0672C26.9713 14.0372 26.9863 13.9922 26.9863 13.9622C26.9863 13.9323 26.9863 13.9023 26.9563 13.8723L27.0162 13.9023ZM11.0351 20.8734C11.1401 20.7685 11.29 20.7085 11.4399 20.7085C11.5898 20.7085 11.7247 20.7685 11.8297 20.8734C11.9346 20.9783 11.9946 21.1283 11.9946 21.2782C11.9946 21.4281 11.9346 21.563 11.8297 21.668C11.7247 21.7729 11.5898 21.8329 11.4399 21.8329C11.29 21.8329 11.1401 21.7729 11.0351 21.668C10.9302 21.563 10.8702 21.4281 10.8702 21.2782C10.8702 21.1283 10.9302 20.9783 11.0351 20.8734ZM13.2839 26.6452L12.9391 26.3154L13.5537 25.7007L13.3139 25.4459L12.6992 26.0605L12.3994 25.7757L13.014 25.161L12.7592 24.9062L12.1595 25.5208L11.8597 25.236L12.4743 24.6213L12.2195 24.3665L11.6048 24.9811L11.29 24.6663L11.9046 24.0516L11.6648 23.7968L11.0501 24.4114L10.8252 24.1866V24.1566C10.9302 24.0516 10.9901 23.9167 10.9901 23.7668C10.9901 23.6169 10.9302 23.467 10.8252 23.362C10.7203 23.2571 10.5854 23.1971 10.4355 23.1971C10.2855 23.1971 10.1356 23.2571 10.0307 23.362L10.0007 23.392L9.86577 23.2571L10.4804 22.6424L10.2406 22.3876L9.6259 23.0022L9.41602 22.7923L10.3005 21.9078L14.1534 25.7757L13.2839 26.6452ZM24.6176 14.6818L15.4577 23.8268C15.4577 23.8268 15.3527 23.8867 15.3077 23.8418L12.3094 20.8284C12.3094 20.8284 12.2644 20.7085 12.3094 20.6635L21.4543 11.5186C21.4543 11.5186 21.5743 11.4736 21.6192 11.5186L24.6326 14.5169C24.6326 14.5169 24.6775 14.6369 24.6326 14.6818H24.6176ZM11.275 21.4581C11.275 21.4581 11.3799 21.533 11.4399 21.533C11.4999 21.533 11.5598 21.5031 11.6048 21.4581C11.6948 21.3681 11.6948 21.2032 11.6048 21.1133C11.4849 21.0383 11.335 21.0683 11.26 21.1732C11.2 21.2632 11.2 21.3681 11.26 21.4581H11.275Z" fill="#4927B9"/>
<path d="M14.8108 20.0613L15.9926 21.2452L15.8538 21.3836L14.2809 21.0981L14.2693 21.1097L15.1972 22.0392L15.0538 22.1823L13.8721 20.9984L14.0108 20.8599L15.5884 21.1455L15.5999 21.1339L14.6698 20.2021L14.8108 20.0613ZM15.1462 19.7265L16.4925 20.3722L16.5063 20.3584L15.863 19.011L16.0133 18.861L16.7604 20.4787L16.6124 20.6264L14.9959 19.8765L15.1462 19.7265ZM16.1977 18.6769L16.3688 18.5061L17.752 19.0871L17.7659 19.0733L17.1873 17.689L17.3584 17.5182L18.5401 18.702L18.406 18.8359L17.5082 17.9365L17.4966 17.948L18.0245 19.2167L17.895 19.346L16.6272 18.8159L16.6157 18.8274L17.5135 19.7268L17.3794 19.8607L16.1977 18.6769ZM19.1998 18.0804C19.1142 18.1658 19.0216 18.2206 18.9219 18.2448C18.8221 18.2682 18.7214 18.2625 18.6198 18.2278C18.5182 18.1923 18.422 18.1291 18.3312 18.0381C18.2404 17.9472 18.177 17.8505 18.1409 17.748C18.1048 17.6448 18.0972 17.5439 18.118 17.4454C18.1389 17.346 18.1894 17.2564 18.2696 17.1764C18.3158 17.1302 18.3692 17.0923 18.4297 17.0627C18.4901 17.0331 18.5562 17.0172 18.6278 17.015C18.699 17.0123 18.7739 17.0284 18.8524 17.0631C18.9309 17.0978 19.0116 17.1566 19.0943 17.2395L19.152 17.2973L18.4676 17.9805L18.3499 17.8626L18.8955 17.3178C18.8455 17.2677 18.7909 17.233 18.7316 17.2137C18.6727 17.194 18.6136 17.1911 18.5543 17.2049C18.4954 17.2183 18.4413 17.2497 18.3919 17.2989C18.3376 17.3532 18.304 17.4136 18.2913 17.4802C18.2785 17.546 18.2829 17.6109 18.3044 17.6748C18.3259 17.7387 18.3611 17.7952 18.4099 17.8441L18.4884 17.9227C18.5553 17.9898 18.6236 18.0351 18.6933 18.0586C18.763 18.0814 18.8307 18.0842 18.8966 18.0669C18.9621 18.0492 19.0224 18.0129 19.0775 17.9579C19.1133 17.9221 19.1407 17.8848 19.1596 17.8459C19.1785 17.8063 19.1883 17.7657 19.1891 17.7241C19.1896 17.6821 19.1802 17.64 19.1609 17.5976L19.3297 17.503C19.3604 17.5616 19.3763 17.6242 19.3774 17.6908C19.3782 17.757 19.3639 17.8236 19.3345 17.8906C19.3048 17.9571 19.2599 18.0204 19.1998 18.0804ZM19.9939 15.4782C19.9285 15.4265 19.8549 15.4091 19.7733 15.426C19.6917 15.4429 19.615 15.4871 19.5433 15.5586C19.4909 15.611 19.4535 15.6652 19.4311 15.7214C19.4091 15.7772 19.402 15.8309 19.4096 15.8825C19.4177 15.9337 19.4405 15.9782 19.4782 16.016C19.5098 16.0476 19.5444 16.0673 19.5821 16.075C19.6199 16.082 19.6582 16.081 19.6971 16.0722C19.7356 16.063 19.7728 16.0501 19.8086 16.0336C19.844 16.0167 19.8756 16.0002 19.9033 15.984L20.0559 15.8964C20.0948 15.8737 20.1402 15.8506 20.1922 15.8272C20.2446 15.8034 20.3005 15.7865 20.3598 15.7765C20.4191 15.7658 20.4791 15.7681 20.54 15.7836C20.6008 15.799 20.6589 15.8345 20.7143 15.89C20.7781 15.954 20.8191 16.0285 20.8371 16.1136C20.8555 16.1983 20.8479 16.2879 20.8143 16.3822C20.7812 16.4761 20.7191 16.5684 20.6281 16.6592C20.5434 16.7438 20.4563 16.8035 20.3669 16.838C20.278 16.8722 20.1913 16.8825 20.107 16.869C20.0231 16.8551 19.9465 16.818 19.8773 16.7579L20.0252 16.6102C20.0737 16.651 20.1257 16.673 20.1811 16.6762C20.2365 16.6785 20.2916 16.6666 20.3463 16.6405C20.401 16.6136 20.4519 16.5767 20.4989 16.5297C20.5536 16.4751 20.5939 16.4172 20.6197 16.356C20.6452 16.2944 20.6547 16.2349 20.6482 16.1776C20.6413 16.1198 20.6163 16.0693 20.5732 16.0262C20.534 15.9869 20.4911 15.9659 20.4445 15.9631C20.3979 15.9604 20.349 15.9692 20.2978 15.9896C20.2466 16.0099 20.1944 16.0351 20.1412 16.0651L19.954 16.1689C19.835 16.2346 19.7239 16.2697 19.6207 16.2743C19.5175 16.2788 19.4261 16.2412 19.3464 16.1614C19.2803 16.0951 19.2405 16.0194 19.2271 15.9343C19.2137 15.8485 19.2238 15.7615 19.2573 15.6733C19.2909 15.5844 19.3455 15.5023 19.421 15.4269C19.4973 15.3507 19.5788 15.2967 19.6654 15.2648C19.7517 15.2325 19.8357 15.2226 19.9173 15.235C19.9993 15.247 20.0711 15.2819 20.1326 15.3397L19.9939 15.4782ZM21.0319 14.442C20.9665 14.3903 20.893 14.3729 20.8113 14.3898C20.7297 14.4067 20.653 14.4509 20.5813 14.5224C20.5289 14.5747 20.4915 14.629 20.4692 14.6852C20.4472 14.741 20.44 14.7947 20.4476 14.8463C20.4557 14.8975 20.4786 14.942 20.5163 14.9798C20.5478 15.0114 20.5824 15.0311 20.6202 15.0388C20.6579 15.0457 20.6962 15.0448 20.7351 15.036C20.7736 15.0268 20.8108 15.0139 20.8466 14.9974C20.882 14.9805 20.9136 14.964 20.9414 14.9478L21.0939 14.8602C21.1328 14.8375 21.1783 14.8144 21.2303 14.791C21.2826 14.7671 21.3385 14.7503 21.3978 14.7403C21.4571 14.7296 21.5172 14.7319 21.578 14.7474C21.6388 14.7628 21.6969 14.7983 21.7523 14.8538C21.8162 14.9178 21.8571 14.9923 21.8751 15.0774C21.8935 15.1621 21.8859 15.2517 21.8524 15.346C21.8192 15.4399 21.7571 15.5322 21.6662 15.623C21.5814 15.7076 21.4943 15.7672 21.4049 15.8018C21.316 15.836 21.2293 15.8463 21.145 15.8328C21.0611 15.8188 20.9845 15.7818 20.9153 15.7217L21.0632 15.574C21.1117 15.6148 21.1637 15.6368 21.2191 15.6399C21.2746 15.6423 21.3296 15.6304 21.3843 15.6043C21.439 15.5774 21.4899 15.5405 21.5369 15.4935C21.5916 15.4389 21.6319 15.381 21.6578 15.3198C21.6832 15.2582 21.6927 15.1987 21.6862 15.1414C21.6793 15.0836 21.6543 15.0331 21.6113 14.99C21.572 14.9507 21.5291 14.9297 21.4825 14.9269C21.4359 14.9242 21.387 14.933 21.3358 14.9534C21.2846 14.9737 21.2324 14.9989 21.1792 15.0289L20.992 15.1327C20.873 15.1984 20.7619 15.2335 20.6587 15.2381C20.5555 15.2426 20.4641 15.205 20.3845 15.1252C20.3183 15.0589 20.2785 14.9832 20.2651 14.8981C20.2517 14.8123 20.2618 14.7253 20.2954 14.6371C20.3289 14.5482 20.3835 14.466 20.459 14.3906C20.5353 14.3145 20.6168 14.2605 20.7035 14.2286C20.7897 14.1963 20.8737 14.1864 20.9553 14.1988C21.0373 14.2108 21.1091 14.2457 21.1706 14.3035L21.0319 14.442ZM22.6741 14.5752L22.3088 14.9399L21.1271 13.7561L21.5086 13.3752C21.6234 13.2606 21.7453 13.1862 21.8743 13.1521C22.003 13.1175 22.1331 13.1226 22.2647 13.1674C22.396 13.2118 22.5228 13.2953 22.6451 13.4178C22.7682 13.5411 22.8522 13.6692 22.8972 13.8021C22.9417 13.9346 22.9458 14.0667 22.9095 14.1983C22.8728 14.3296 22.7944 14.4552 22.6741 14.5752ZM22.3252 14.6696L22.538 14.4573C22.6358 14.3596 22.6981 14.2597 22.7248 14.1577C22.7514 14.0557 22.7457 13.954 22.7077 13.8528C22.6697 13.7515 22.6026 13.6526 22.5064 13.5563C22.411 13.4607 22.3133 13.394 22.2132 13.3562C22.1127 13.318 22.013 13.3114 21.914 13.3363C21.8147 13.3609 21.7188 13.4193 21.6263 13.5116L21.3974 13.7401L22.3252 14.6696Z" fill="#4927B9"/>
</g>
<defs>
<clipPath id="clip0_91_95">
<rect width="35" height="35" fill="white"/>
</clipPath>
</defs>
</svg>
