<?xml version="1.0" encoding="UTF-8"?>
<svg id="Layer_1" xmlns="http://www.w3.org/2000/svg" viewBox="0 0 20 20">
  <defs>
    <style>
      .cls-1 {
        fill-rule: evenodd;
      }

      .cls-1, .cls-2 {
        fill: #6b46f2;
      }

      .cls-3 {
        fill: #f2efff;
      }

      .cls-2 {
        font-family: Raleway-Bold, Raleway;
        font-size: 1.63px;
        font-weight: 700;
      }

      .cls-2, .cls-4 {
        isolation: isolate;
      }

      .cls-5 {
        letter-spacing: 0em;
      }
    </style>
  </defs>
  <rect class="cls-3" x="-.08" y="-.14" width="20.28" height="20.28" rx="4.61" ry="4.61"/>
  <g>
    <path class="cls-1" d="M4.04,12.83h0c-.11-.07-.25-.04-.32.06-.05.08-.05.18,0,.26h.01s.1.07.15.07c.06,0,.11-.02.15-.07.12,0,.22-.04.22-.16s-.1-.22-.22-.22v.06h0ZM4.04,12.83h0c-.11-.07-.25-.04-.32.06-.05.08-.05.18,0,.26h.01s.1.07.15.07c.06,0,.11-.02.15-.07.12,0,.22-.04.22-.16s-.1-.22-.22-.22v.06h0ZM18.32,6.18s-.03-.07-.05-.09l-1.73-1.73-.17.15c-.04.05-.1.09-.17.12l-.22.03c-.09,0-.17-.03-.25-.07-.08-.03-.15-.07-.21-.13-.06-.06-.11-.13-.14-.21-.03-.08-.05-.16-.05-.25,0-.08,0-.16.03-.23l.1-.17.17-.15-.07-.05-.35-.36c-.46-.48-1.17-1.21-1.33-1.31l-.08-.05-.1-.03-.1.03-.08.05L2.45,12.82s-.04.06-.05.09c-.01.03-.02.06-.03.09,0,.04,0,.07.03.1.01.03.03.06.05.09l.17.17-.9.9c-.07.08-.07.2,0,.28l.75.75c.07.06.17.06.23,0l.14-.13s.09-.07.14-.07c.05,0,.1.03.14.07.07.08.07.2,0,.28l-.14.13c-.06.07-.06.17,0,.23l2.47,2.46c.07.09.19.1.27.04.01-.01.03-.02.04-.04l.89-.88.15.15.09.05.09.03.1-.03.09-.05,11.09-11.09s.04-.06.05-.09c.01-.03.02-.07.03-.1,0-.03-.01-.06-.03-.09h0ZM3.52,12.63c.1-.1.23-.16.37-.15.14,0,.27.05.36.15.1.1.16.23.15.37,0,.14-.06.27-.15.36-.09.1-.23.16-.36.15-.14,0-.28-.05-.37-.15-.1-.09-.15-.23-.15-.36s.05-.28.15-.37ZM5.6,17.97l-.32-.31.57-.57-.22-.23-.57.57-.28-.27.57-.57-.23-.23-.55.57-.28-.27.57-.57-.23-.23-.57.57-.3-.3.57-.57-.22-.23-.57.57-.21-.21v-.03c.1-.09.16-.23.15-.36,0-.14-.05-.28-.15-.37-.09-.1-.23-.15-.36-.15s-.28.05-.37.15l-.03.03-.13-.13.57-.57-.22-.23-.57.57-.19-.19.82-.82,3.57,3.58-.81.81h0ZM16.09,6.9L7.61,15.36s-.1.06-.15.02c0,0,0,0-.01,0h0l-2.77-2.78s-.04-.11,0-.15L13.15,3.97s.11-.04.15,0l2.78,2.77s.04.11,0,.15h0ZM3.74,13.16s.1.07.15.07c.06,0,.11-.02.15-.07.09-.09.09-.23,0-.32h0c-.11-.07-.25-.04-.32.06-.05.08-.05.18,0,.26h.01Z"/>
    <g class="cls-4">
      <text class="cls-2" transform="translate(7.35 12.94) rotate(-44.95)"><tspan x="0" y="0">NV</tspan><tspan class="cls-5" x="2.35" y="0">M</tspan><tspan x="3.75" y="0">e SSD</tspan></text>
    </g>
  </g>
</svg>