<svg width="35" height="35" viewBox="0 0 35 35" fill="none" xmlns="http://www.w3.org/2000/svg">
<g clip-path="url(#clip0_323_30)">
<path d="M27.2824 -0.245117H7.92736C3.47181 -0.245117 -0.140137 3.36683 -0.140137 7.82238V27.1774C-0.140137 31.6329 3.47181 35.2449 7.92736 35.2449H27.2824C31.7379 35.2449 35.3499 31.6329 35.3499 27.1774V7.82238C35.3499 3.36683 31.7379 -0.245117 27.2824 -0.245117Z" fill="#F2EFFF"/>
<path fill-rule="evenodd" clip-rule="evenodd" d="M7.06984 22.4527C6.87734 22.3302 6.63234 22.3827 6.50984 22.5577C6.42234 22.6977 6.42234 22.8727 6.50984 23.0127H6.52734C6.52734 23.0127 6.70234 23.1352 6.78984 23.1352C6.89484 23.1352 6.98234 23.1002 7.05234 23.0127C7.26234 23.0127 7.43734 22.9427 7.43734 22.7327C7.43734 22.5227 7.26234 22.3477 7.05234 22.3477V22.4527H7.06984ZM7.06984 22.4527C6.87734 22.3302 6.63234 22.3827 6.50984 22.5577C6.42234 22.6977 6.42234 22.8727 6.50984 23.0127H6.52734C6.52734 23.0127 6.70234 23.1352 6.78984 23.1352C6.89484 23.1352 6.98234 23.1002 7.05234 23.0127C7.26234 23.0127 7.43734 22.9427 7.43734 22.7327C7.43734 22.5227 7.26234 22.3477 7.05234 22.3477V22.4527H7.06984ZM32.0598 10.8152C32.0598 10.8152 32.0073 10.6927 31.9723 10.6577L28.9448 7.6302L28.6473 7.8927C28.5773 7.9802 28.4723 8.0502 28.3498 8.1027L27.9648 8.15519C27.8073 8.15519 27.6673 8.1027 27.5273 8.0327C27.3873 7.9802 27.2648 7.9102 27.1598 7.8052C27.0548 7.7002 26.9673 7.5777 26.9148 7.4377C26.8623 7.2977 26.8273 7.1577 26.8273 7.0002C26.8273 6.8602 26.8273 6.7202 26.8798 6.5977L27.0548 6.3002L27.3523 6.0377L27.2298 5.9502L26.6173 5.3202C25.8123 4.4802 24.5698 3.2027 24.2898 3.0277L24.1498 2.9402L23.9748 2.8877L23.7998 2.9402L23.6598 3.0277L4.28734 22.4352C4.28734 22.4352 4.21734 22.5402 4.19984 22.5927C4.18234 22.6452 4.16484 22.6977 4.14734 22.7502C4.14734 22.8202 4.14734 22.8727 4.19984 22.9252C4.21734 22.9777 4.25234 23.0302 4.28734 23.0827L4.58484 23.3802L3.00984 24.9552C2.88734 25.0952 2.88734 25.3052 3.00984 25.4452L4.32234 26.7577C4.44484 26.8627 4.61984 26.8627 4.72484 26.7577L4.96984 26.5302C4.96984 26.5302 5.12734 26.4077 5.21484 26.4077C5.30234 26.4077 5.38984 26.4602 5.45984 26.5302C5.58234 26.6702 5.58234 26.8802 5.45984 27.0202L5.21484 27.2477C5.10984 27.3702 5.10984 27.5452 5.21484 27.6502L9.53734 31.9552C9.65984 32.1127 9.86984 32.1302 10.0098 32.0252C10.0273 32.0077 10.0623 31.9902 10.0798 31.9552L11.6373 30.4152L11.8998 30.6777L12.0573 30.7652L12.2148 30.8177L12.3898 30.7652L12.5473 30.6777L31.9548 11.2702C31.9548 11.2702 32.0248 11.1652 32.0423 11.1127C32.0598 11.0602 32.0773 10.9902 32.0948 10.9377C32.0948 10.8852 32.0773 10.8327 32.0423 10.7802L32.0598 10.8152ZM6.15984 22.1027C6.33484 21.9277 6.56234 21.8227 6.80734 21.8402C7.05234 21.8402 7.27984 21.9277 7.43734 22.1027C7.61234 22.2777 7.71734 22.5052 7.69984 22.7502C7.69984 22.9952 7.59484 23.2227 7.43734 23.3802C7.27984 23.5552 7.03484 23.6602 6.80734 23.6427C6.56234 23.6427 6.31734 23.5552 6.15984 23.3802C5.98484 23.2227 5.89734 22.9777 5.89734 22.7502C5.89734 22.5227 5.98484 22.2602 6.15984 22.1027ZM9.79984 31.4477L9.23984 30.9052L10.2373 29.9077L9.85234 29.5052L8.85484 30.5027L8.36484 30.0302L9.36234 29.0327L8.95984 28.6302L7.99734 29.6277L7.50734 29.1552L8.50484 28.1577L8.10234 27.7552L7.10484 28.7527L6.57984 28.2277L7.57734 27.2302L7.19234 26.8277L6.19484 27.8252L5.82734 27.4577V27.4052C6.00234 27.2477 6.10734 27.0027 6.08984 26.7752C6.08984 26.5302 6.00234 26.2852 5.82734 26.1277C5.66984 25.9527 5.42484 25.8652 5.19734 25.8652C4.96984 25.8652 4.70734 25.9527 4.54984 26.1277L4.49734 26.1802L4.26984 25.9527L5.26734 24.9552L4.88234 24.5527L3.88484 25.5502L3.55234 25.2177L4.98734 23.7827L11.2348 30.0477L9.81734 31.4652L9.79984 31.4477ZM28.1573 12.0752L13.3173 26.8802C13.3173 26.8802 13.1423 26.9852 13.0548 26.9152C13.0548 26.9152 13.0548 26.9152 13.0373 26.9152L8.18984 22.0502C8.18984 22.0502 8.11984 21.8577 8.18984 21.7877L23.0123 6.9477C23.0123 6.9477 23.2048 6.8777 23.2748 6.9477L28.1398 11.7952C28.1398 11.7952 28.2098 11.9877 28.1398 12.0577L28.1573 12.0752ZM6.54484 23.0302C6.54484 23.0302 6.71984 23.1527 6.80734 23.1527C6.91234 23.1527 6.99984 23.1177 7.06984 23.0302C7.22734 22.8727 7.22734 22.6277 7.06984 22.4702C6.87734 22.3477 6.63234 22.4002 6.50984 22.5752C6.42234 22.7152 6.42234 22.8902 6.50984 23.0302H6.52734H6.54484Z" fill="#6B46F2"/>
<path d="M13.4865 19.8763L15.028 21.4204L14.847 21.601L12.7953 21.2286L12.7802 21.2437L13.9905 22.4561L13.8035 22.6427L12.2621 21.0986L12.443 20.918L14.5008 21.2904L14.5158 21.2753L13.3026 20.0599L13.4865 19.8763ZM13.924 19.4396L15.68 20.2818L15.6981 20.2637L14.8589 18.5063L15.055 18.3106L16.0294 20.4207L15.8364 20.6134L13.728 19.6352L13.924 19.4396ZM15.2955 18.0705L15.5187 17.8477L17.3229 18.6056L17.341 18.5875L16.5863 16.7819L16.8095 16.5592L18.3509 18.1033L18.176 18.2779L17.0048 17.1047L16.9898 17.1198L17.6784 18.7746L17.5095 18.9432L15.8558 18.2518L15.8407 18.2668L17.0118 19.44L16.8369 19.6146L15.2955 18.0705ZM19.2113 17.2925C19.0997 17.4039 18.9789 17.4754 18.8488 17.5069C18.7187 17.5374 18.5874 17.53 18.4548 17.4847C18.3223 17.4384 18.1968 17.3559 18.0784 17.2373C17.96 17.1187 17.8772 16.9925 17.8301 16.8589C17.783 16.7243 17.7731 16.5927 17.8003 16.4642C17.8276 16.3346 17.8935 16.2177 17.998 16.1133C18.0583 16.0531 18.1279 16.0037 18.2068 15.9651C18.2857 15.9265 18.3718 15.9057 18.4652 15.9028C18.5582 15.8993 18.6558 15.9203 18.7582 15.9656C18.8606 16.0108 18.9658 16.0875 19.0737 16.1956L19.1489 16.271L18.2562 17.1621L18.1027 17.0083L18.8144 16.2978C18.7492 16.2325 18.6779 16.1872 18.6006 16.162C18.5238 16.1363 18.4467 16.1325 18.3694 16.1505C18.2925 16.168 18.2219 16.2089 18.1576 16.2731C18.0867 16.3439 18.0429 16.4227 18.0263 16.5096C18.0096 16.5954 18.0153 16.68 18.0434 16.7634C18.0714 16.8468 18.1173 16.9204 18.1811 16.9843L18.2834 17.0868C18.3707 17.1743 18.4598 17.2334 18.5507 17.2641C18.6416 17.2938 18.7299 17.2974 18.8158 17.2749C18.9012 17.2518 18.9799 17.2044 19.0518 17.1327C19.0985 17.086 19.1342 17.0373 19.1588 16.9866C19.1835 16.9349 19.1964 16.882 19.1974 16.8277C19.198 16.773 19.1857 16.718 19.1606 16.6627L19.3807 16.5394C19.4208 16.6157 19.4416 16.6974 19.443 16.7842C19.444 16.8706 19.4253 16.9575 19.3871 17.0448C19.3483 17.1317 19.2897 17.2143 19.2113 17.2925ZM20.2471 13.8983C20.1617 13.8309 20.0658 13.8082 19.9594 13.8302C19.8529 13.8522 19.7529 13.9099 19.6594 14.0032C19.591 14.0715 19.5423 14.1422 19.5131 14.2155C19.4844 14.2883 19.475 14.3584 19.485 14.4257C19.4955 14.4925 19.5253 14.5505 19.5745 14.5998C19.6156 14.641 19.6608 14.6666 19.71 14.6767C19.7592 14.6858 19.8092 14.6846 19.8599 14.6731C19.9102 14.6611 19.9586 14.6443 20.0054 14.6227C20.0516 14.6007 20.0928 14.5791 20.129 14.5581L20.3279 14.4437C20.3787 14.4141 20.438 14.3841 20.5058 14.3535C20.5741 14.3224 20.647 14.3004 20.7243 14.2874C20.8017 14.2734 20.88 14.2765 20.9593 14.2966C21.0387 14.3168 21.1145 14.3631 21.1867 14.4354C21.27 14.5189 21.3234 14.6161 21.3469 14.7271C21.3709 14.8376 21.361 14.9544 21.3172 15.0774C21.2739 15.1999 21.193 15.3203 21.0744 15.4388C20.9638 15.5491 20.8502 15.6269 20.7337 15.672C20.6176 15.7166 20.5046 15.73 20.3946 15.7124C20.2852 15.6942 20.1853 15.6459 20.0949 15.5675L20.288 15.3748C20.3512 15.4281 20.419 15.4568 20.4913 15.4608C20.5636 15.4639 20.6354 15.4484 20.7068 15.4143C20.7781 15.3792 20.8444 15.3311 20.9058 15.2699C20.9771 15.1986 21.0297 15.1231 21.0634 15.0433C21.0966 14.9629 21.109 14.8853 21.1005 14.8105C21.0915 14.7352 21.059 14.6694 21.0028 14.6131C20.9516 14.5618 20.8956 14.5344 20.8348 14.5308C20.7741 14.5272 20.7103 14.5387 20.6435 14.5653C20.5767 14.5918 20.5086 14.6247 20.4392 14.6638L20.1951 14.7992C20.0398 14.8849 19.8949 14.9307 19.7603 14.9367C19.6257 14.9426 19.5064 14.8935 19.4026 14.7894C19.3163 14.703 19.2644 14.6043 19.2469 14.4933C19.2294 14.3813 19.2426 14.2678 19.2864 14.1528C19.3302 14.0368 19.4013 13.9297 19.4998 13.8313C19.5994 13.732 19.7056 13.6615 19.8187 13.6199C19.9312 13.5778 20.0407 13.5649 20.1472 13.581C20.2541 13.5967 20.3477 13.6422 20.428 13.7176L20.2471 13.8983ZM21.601 12.5467C21.5157 12.4793 21.4198 12.4566 21.3133 12.4786C21.2068 12.5006 21.1068 12.5583 21.0133 12.6516C20.945 12.7199 20.8962 12.7906 20.867 12.8639C20.8383 12.9367 20.829 13.0068 20.8389 13.0741C20.8494 13.1409 20.8793 13.1989 20.9284 13.2482C20.9696 13.2894 21.0148 13.3151 21.064 13.3251C21.1132 13.3342 21.1631 13.333 21.2139 13.3215C21.2641 13.3095 21.3126 13.2927 21.3593 13.2712C21.4055 13.2491 21.4467 13.2275 21.4829 13.2065L21.6819 13.0922C21.7326 13.0626 21.7919 13.0325 21.8597 13.0019C21.9281 12.9708 22.0009 12.9488 22.0783 12.9358C22.1556 12.9218 22.234 12.9249 22.3133 12.9451C22.3926 12.9652 22.4684 13.0115 22.5407 13.0839C22.624 13.1673 22.6774 13.2645 22.7009 13.3755C22.7249 13.486 22.715 13.6028 22.6712 13.7258C22.6279 13.8483 22.5469 13.9688 22.4283 14.0872C22.3177 14.1976 22.2041 14.2753 22.0876 14.3204C21.9715 14.365 21.8585 14.3785 21.7486 14.3608C21.6391 14.3426 21.5392 14.2943 21.4489 14.2159L21.6419 14.0232C21.7051 14.0765 21.7729 14.1052 21.8452 14.1093C21.9175 14.1123 21.9894 14.0968 22.0607 14.0627C22.132 14.0277 22.1984 13.9795 22.2597 13.9183C22.3311 13.847 22.3836 13.7715 22.4173 13.6917C22.4506 13.6114 22.4629 13.5338 22.4545 13.4589C22.4455 13.3836 22.4129 13.3178 22.3567 13.2615C22.3055 13.2102 22.2495 13.1828 22.1888 13.1792C22.128 13.1757 22.0642 13.1872 21.9974 13.2137C21.9306 13.2403 21.8625 13.2731 21.7932 13.3122L21.549 13.4476C21.3937 13.5333 21.2488 13.5792 21.1142 13.5851C20.9796 13.591 20.8604 13.5419 20.7565 13.4379C20.6702 13.3514 20.6183 13.2527 20.6008 13.1417C20.5834 13.0297 20.5965 12.9162 20.6403 12.8012C20.6841 12.6852 20.7553 12.5781 20.8538 12.4797C20.9533 12.3804 21.0596 12.3099 21.1726 12.2683C21.2851 12.2263 21.3946 12.2133 21.5011 12.2295C21.608 12.2451 21.7017 12.2906 21.782 12.3661L21.601 12.5467ZM23.7431 12.7205L23.2666 13.1962L21.7251 11.6521L22.2228 11.1553C22.3725 11.0058 22.5316 10.9087 22.6999 10.8642C22.8676 10.8191 23.0374 10.8258 23.2091 10.8842C23.3803 10.9421 23.5457 11.051 23.7052 11.2108C23.8658 11.3717 23.9754 11.5388 24.034 11.7121C24.0921 11.8849 24.0975 12.0571 24.0501 12.2289C24.0022 12.4001 23.8999 12.5639 23.7431 12.7205ZM23.288 12.8436L23.5654 12.5667C23.6931 12.4392 23.7743 12.309 23.8091 12.1759C23.8439 12.0429 23.8364 11.9103 23.7868 11.7781C23.7372 11.646 23.6497 11.5171 23.5243 11.3915C23.3998 11.2668 23.2723 11.1798 23.1418 11.1305C23.0108 11.0807 22.8807 11.072 22.7516 11.1045C22.622 11.1366 22.4969 11.2128 22.3763 11.3332L22.0777 11.6313L23.288 12.8436Z" fill="#6B46F2"/>
</g>
<defs>
<clipPath id="clip0_323_30">
<rect width="35" height="35" fill="white"/>
</clipPath>
</defs>
</svg>
