<svg width="35" height="35" viewBox="0 0 35 35" fill="none" xmlns="http://www.w3.org/2000/svg">
<g clip-path="url(#clip0_347_24)">
<mask id="mask0_347_24" style="mask-type:luminance" maskUnits="userSpaceOnUse" x="0" y="0" width="35" height="35">
<path d="M35 0H0V35H35V0Z" fill="white"/>
</mask>
<g mask="url(#mask0_347_24)">
<path d="M27.2824 -0.245117H7.92736C3.47181 -0.245117 -0.140137 3.36683 -0.140137 7.82238V27.1774C-0.140137 31.6329 3.47181 35.2449 7.92736 35.2449H27.2824C31.7379 35.2449 35.3499 31.6329 35.3499 27.1774V7.82238C35.3499 3.36683 31.7379 -0.245117 27.2824 -0.245117Z" fill="#F2EFFF"/>
</g>
<path fill-rule="evenodd" clip-rule="evenodd" d="M8.29052 22.6459C8.12367 22.5397 7.91132 22.5852 7.80514 22.7369C7.7293 22.8582 7.7293 23.0099 7.80514 23.1313H7.82031C7.82031 23.1313 7.97199 23.2374 8.04783 23.2374C8.13884 23.2374 8.21468 23.2071 8.27535 23.1313C8.45737 23.1313 8.60905 23.0706 8.60905 22.8886C8.60905 22.7066 8.45737 22.5549 8.27535 22.5549V22.6459H8.29052ZM8.29052 22.6459C8.12367 22.5397 7.91132 22.5852 7.80514 22.7369C7.7293 22.8582 7.7293 23.0099 7.80514 23.1313H7.82031C7.82031 23.1313 7.97199 23.2374 8.04783 23.2374C8.13884 23.2374 8.21468 23.2071 8.27535 23.1313C8.45737 23.1313 8.60905 23.0706 8.60905 22.8886C8.60905 22.7066 8.45737 22.5549 8.27535 22.5549V22.6459H8.29052ZM29.9505 12.5591C29.9505 12.5591 29.905 12.4529 29.8747 12.4226L27.2506 9.79853L26.9927 10.0261C26.9321 10.1019 26.8411 10.1626 26.7349 10.2081L26.4012 10.2536C26.2647 10.2536 26.1433 10.2081 26.022 10.1474C25.9006 10.1019 25.7945 10.0412 25.7034 9.95021C25.6124 9.8592 25.5366 9.75303 25.4911 9.63168C25.4456 9.51034 25.4153 9.38899 25.4153 9.25248C25.4153 9.13114 25.4153 9.00979 25.4608 8.90362L25.6124 8.64576L25.8703 8.41824L25.7641 8.3424L25.2332 7.79635C24.5355 7.06828 23.4586 5.96101 23.2159 5.80933L23.0945 5.73349L22.9429 5.68799L22.7912 5.73349L22.6698 5.80933L5.8788 22.6307C5.8788 22.6307 5.81812 22.7217 5.80295 22.7672C5.78779 22.8127 5.77262 22.8582 5.75745 22.9037C5.75745 22.9644 5.75745 23.0099 5.80295 23.0554C5.81812 23.1009 5.84846 23.1464 5.8788 23.1919L6.13665 23.4498L4.77153 24.8149C4.66535 24.9363 4.66535 25.1183 4.77153 25.2396L5.90913 26.3772C6.01531 26.4682 6.16699 26.4682 6.258 26.3772L6.47035 26.18C6.47035 26.18 6.60686 26.0739 6.6827 26.0739C6.75854 26.0739 6.83438 26.1194 6.89505 26.18C7.00123 26.3014 7.00123 26.4834 6.89505 26.6047L6.6827 26.8019C6.59169 26.9081 6.59169 27.0598 6.6827 27.1508L10.4292 30.8821C10.5354 31.0186 10.7174 31.0338 10.8388 30.9428C10.8539 30.9276 10.8843 30.9125 10.8994 30.8821L12.2494 29.5473L12.4769 29.7749L12.6134 29.8507L12.7499 29.8962L12.9016 29.8507L13.0381 29.7749L29.8595 12.9535C29.8595 12.9535 29.9202 12.8625 29.9353 12.817C29.9505 12.7715 29.9657 12.7108 29.9808 12.6653C29.9808 12.6198 29.9657 12.5743 29.9353 12.5288L29.9505 12.5591ZM7.50178 22.3425C7.65346 22.1908 7.85064 22.0998 8.063 22.115C8.27535 22.115 8.47253 22.1908 8.60905 22.3425C8.76073 22.4942 8.85173 22.6914 8.83657 22.9037C8.83657 23.1161 8.74556 23.3133 8.60905 23.4498C8.47253 23.6015 8.26018 23.6925 8.063 23.6773C7.85064 23.6773 7.63829 23.6015 7.50178 23.4498C7.3501 23.3133 7.27426 23.1009 7.27426 22.9037C7.27426 22.7066 7.3501 22.479 7.50178 22.3425ZM10.6567 30.4423L10.1714 29.9721L11.0359 29.1075L10.7022 28.7586L9.83766 29.6232L9.41295 29.2136L10.2775 28.3491L9.92867 28.0002L9.09442 28.8648L8.66972 28.4552L9.5343 27.5907L9.18543 27.2418L8.32085 28.1064L7.86581 27.6513L8.73039 26.7868L8.39669 26.4379L7.53211 27.3025L7.21358 26.9839V26.9384C7.36526 26.8019 7.45627 26.5896 7.44111 26.3924C7.44111 26.18 7.36526 25.9677 7.21358 25.8312C7.07707 25.6795 6.86472 25.6036 6.66753 25.6036C6.47035 25.6036 6.24283 25.6795 6.10632 25.8312L6.06081 25.8767L5.86363 25.6795L6.72821 24.8149L6.39451 24.466L5.52993 25.3306L5.24174 25.0424L6.48552 23.7987L11.9005 29.2288L10.6719 30.4574L10.6567 30.4423ZM26.568 13.6512L13.7055 26.4834C13.7055 26.4834 13.5538 26.5744 13.478 26.5137C13.478 26.5137 13.478 26.5137 13.4628 26.5137L9.26127 22.297C9.26127 22.297 9.2006 22.1302 9.26127 22.0695L22.1086 9.20698C22.1086 9.20698 22.2755 9.14631 22.3361 9.20698L26.5529 13.4085C26.5529 13.4085 26.6135 13.5754 26.5529 13.6361L26.568 13.6512ZM7.83547 23.1464C7.83547 23.1464 7.98716 23.2526 8.063 23.2526C8.154 23.2526 8.22984 23.2223 8.29052 23.1464C8.42703 23.0099 8.42703 22.7976 8.29052 22.661C8.12367 22.5549 7.91132 22.6004 7.80514 22.7521C7.7293 22.8734 7.7293 23.0251 7.80514 23.1464H7.82031H7.83547Z" fill="#6B46F2"/>
<path d="M12.9895 21.4738L14.5309 23.0179L14.3499 23.1986L12.2983 22.8261L12.2832 22.8412L13.4934 24.0536L13.3065 24.2402L11.765 22.6961L11.946 22.5155L14.0037 22.8879L14.0188 22.8728L12.8055 21.6574L12.9895 21.4738ZM13.427 21.0371L15.1829 21.8793L15.201 21.8612L14.3619 20.1038L14.5579 19.9081L15.5324 22.0182L15.3393 22.2109L13.2309 21.2328L13.427 21.0371ZM14.7984 19.668L15.0216 19.4452L16.8259 20.2031L16.844 20.185L16.0892 18.3795L16.3124 18.1567L17.8538 19.7008L17.6789 19.8754L16.5078 18.7022L16.4927 18.7173L17.1813 20.3722L17.0124 20.5408L15.3587 19.8493L15.3436 19.8643L16.5148 21.0375L16.3398 21.2121L14.7984 19.668ZM18.7142 18.89C18.6027 19.0014 18.4818 19.0729 18.3517 19.1044C18.2216 19.1349 18.0903 19.1275 17.9577 19.0822C17.8252 19.0359 17.6997 18.9534 17.5813 18.8348C17.4629 18.7162 17.3801 18.5901 17.333 18.4564C17.286 18.3218 17.276 18.1902 17.3033 18.0617C17.3305 17.9321 17.3964 17.8152 17.5009 17.7108C17.5612 17.6506 17.6308 17.6012 17.7097 17.5626C17.7886 17.524 17.8748 17.5032 17.9682 17.5003C18.0611 17.4968 18.1587 17.5178 18.2611 17.5631C18.3636 17.6084 18.4687 17.685 18.5766 17.7931L18.6519 17.8685L17.7592 18.7596L17.6056 18.6058L18.3174 17.8953C18.2521 17.83 18.1809 17.7847 18.1035 17.7595C18.0267 17.7339 17.9496 17.73 17.8723 17.748C17.7954 17.7655 17.7248 17.8064 17.6605 17.8706C17.5896 17.9414 17.5459 18.0202 17.5292 18.1071C17.5126 18.1929 17.5183 18.2776 17.5463 18.3609C17.5744 18.4443 17.6203 18.518 17.684 18.5818L17.7863 18.6843C17.8736 18.7718 17.9627 18.8309 18.0536 18.8616C18.1445 18.8913 18.2329 18.8949 18.3188 18.8724C18.4042 18.8493 18.4828 18.802 18.5547 18.7302C18.6014 18.6835 18.6371 18.6349 18.6618 18.5841C18.6864 18.5324 18.6993 18.4795 18.7003 18.4252C18.7009 18.3705 18.6886 18.3155 18.6636 18.2602L18.8836 18.1369C18.9237 18.2132 18.9445 18.2949 18.9459 18.3818C18.9469 18.4681 18.9282 18.555 18.89 18.6424C18.8512 18.7292 18.7926 18.8118 18.7142 18.89ZM19.75 15.4958C19.6647 15.4284 19.5688 15.4057 19.4623 15.4277C19.3558 15.4497 19.2558 15.5074 19.1623 15.6007C19.094 15.669 19.0452 15.7397 19.016 15.813C18.9873 15.8858 18.9779 15.9559 18.9879 16.0232C18.9984 16.09 19.0282 16.148 19.0774 16.1973C19.1186 16.2385 19.1637 16.2641 19.213 16.2742C19.2622 16.2833 19.3121 16.2821 19.3629 16.2706C19.4131 16.2586 19.4616 16.2418 19.5083 16.2202C19.5545 16.1982 19.5957 16.1766 19.6319 16.1556L19.8309 16.0412C19.8816 16.0117 19.9409 15.9816 20.0087 15.951C20.0771 15.9199 20.1499 15.8979 20.2272 15.8849C20.3046 15.8709 20.3829 15.874 20.4623 15.8941C20.5416 15.9143 20.6174 15.9606 20.6896 16.033C20.7729 16.1164 20.8263 16.2136 20.8499 16.3246C20.8739 16.4351 20.864 16.5519 20.8202 16.6749C20.7769 16.7974 20.6959 16.9178 20.5773 17.0363C20.4667 17.1467 20.3531 17.2244 20.2366 17.2695C20.1205 17.3141 20.0075 17.3275 19.8976 17.3099C19.7881 17.2917 19.6882 17.2434 19.5979 17.165L19.7909 16.9723C19.8541 17.0256 19.9219 17.0543 19.9942 17.0584C20.0665 17.0614 20.1383 17.0459 20.2097 17.0118C20.281 16.9767 20.3474 16.9286 20.4087 16.8674C20.4801 16.7961 20.5326 16.7206 20.5663 16.6408C20.5995 16.5604 20.6119 16.4829 20.6034 16.408C20.5945 16.3327 20.5619 16.2669 20.5057 16.2106C20.4545 16.1593 20.3985 16.1319 20.3378 16.1283C20.277 16.1247 20.2132 16.1362 20.1464 16.1628C20.0796 16.1894 20.0115 16.2222 19.9422 16.2613L19.698 16.3967C19.5427 16.4824 19.3978 16.5283 19.2632 16.5342C19.1286 16.5401 19.0094 16.491 18.9055 16.387C18.8192 16.3005 18.7673 16.2018 18.7498 16.0908C18.7323 15.9788 18.7455 15.8653 18.7893 15.7503C18.8331 15.6343 18.9042 15.5272 19.0028 15.4288C19.1023 15.3295 19.2086 15.259 19.3216 15.2174C19.4341 15.1753 19.5436 15.1624 19.6501 15.1785C19.757 15.1942 19.8507 15.2397 19.9309 15.3151L19.75 15.4958ZM21.1039 14.1442C21.0186 14.0768 20.9227 14.0541 20.8162 14.0761C20.7097 14.0982 20.6097 14.1558 20.5162 14.2491C20.4479 14.3174 20.3991 14.3882 20.3699 14.4615C20.3412 14.5343 20.3319 14.6043 20.3419 14.6716C20.3524 14.7384 20.3822 14.7964 20.4314 14.8457C20.4725 14.8869 20.5177 14.9126 20.5669 14.9227C20.6161 14.9317 20.6661 14.9305 20.7168 14.919C20.767 14.907 20.8155 14.8902 20.8622 14.8687C20.9085 14.8466 20.9497 14.8251 20.9858 14.804L21.1848 14.6897C21.2356 14.6601 21.2948 14.63 21.3627 14.5994C21.431 14.5683 21.5038 14.5463 21.5812 14.5333C21.6585 14.5193 21.7369 14.5224 21.8162 14.5426C21.8955 14.5627 21.9713 14.609 22.0436 14.6814C22.1269 14.7648 22.1803 14.862 22.2038 14.973C22.2278 15.0836 22.2179 15.2003 22.1741 15.3233C22.1308 15.4458 22.0498 15.5663 21.9312 15.6847C21.8206 15.7951 21.7071 15.8728 21.5905 15.9179C21.4745 15.9625 21.3615 15.976 21.2515 15.9583C21.142 15.9401 21.0421 15.8918 20.9518 15.8134L21.1448 15.6207C21.2081 15.674 21.2758 15.7027 21.3481 15.7068C21.4205 15.7099 21.4923 15.6943 21.5636 15.6603C21.635 15.6252 21.7013 15.577 21.7626 15.5158C21.834 15.4445 21.8865 15.369 21.9203 15.2892C21.9535 15.2089 21.9659 15.1313 21.9574 15.0564C21.9484 14.9811 21.9158 14.9153 21.8596 14.859C21.8084 14.8077 21.7525 14.7803 21.6917 14.7767C21.6309 14.7732 21.5672 14.7847 21.5003 14.8112C21.4335 14.8378 21.3654 14.8706 21.2961 14.9097L21.0519 15.0451C20.8967 15.1309 20.7517 15.1767 20.6171 15.1826C20.4825 15.1885 20.3633 15.1394 20.2594 15.0354C20.1731 14.9489 20.1212 14.8502 20.1038 14.7392C20.0863 14.6272 20.0994 14.5137 20.1432 14.3987C20.187 14.2828 20.2582 14.1756 20.3567 14.0773C20.4562 13.9779 20.5625 13.9074 20.6755 13.8659C20.7881 13.8238 20.8976 13.8108 21.004 13.827C21.111 13.8426 21.2046 13.8882 21.2849 13.9636L21.1039 14.1442ZM23.246 14.318L22.7695 14.7937L21.2281 13.2496L21.7257 12.7528C21.8755 12.6033 22.0345 12.5062 22.2028 12.4617C22.3706 12.4166 22.5403 12.4233 22.712 12.4817C22.8832 12.5396 23.0486 12.6485 23.2081 12.8083C23.3687 12.9692 23.4783 13.1363 23.5369 13.3096C23.595 13.4824 23.6004 13.6547 23.553 13.8264C23.5052 13.9976 23.4028 14.1615 23.246 14.318ZM22.7909 14.4412L23.0684 14.1642C23.196 14.0367 23.2772 13.9065 23.312 13.7734C23.3468 13.6404 23.3394 13.5078 23.2898 13.3757C23.2402 13.2435 23.1526 13.1146 23.0272 12.989C22.9028 12.8643 22.7753 12.7773 22.6447 12.728C22.5137 12.6782 22.3836 12.6695 22.2545 12.702C22.1249 12.7341 21.9998 12.8103 21.8792 12.9307L21.5806 13.2288L22.7909 14.4412Z" fill="#6B46F2"/>
</g>
<defs>
<clipPath id="clip0_347_24">
<rect width="35" height="35" fill="white"/>
</clipPath>
</defs>
</svg>
