<?xml version="1.0" encoding="UTF-8"?>
<svg id="Layer_1" xmlns="http://www.w3.org/2000/svg" viewBox="0 0 56 56">
  <defs>
    <style>
      .cls-1 {
        font-family: Raleway-Bold, Raleway;
        font-size: 1.91px;
        font-weight: 700;
      }

      .cls-1, .cls-2, .cls-3 {
        isolation: isolate;
      }

      .cls-1, .cls-2, .cls-4 {
        fill: #5138cc;
      }

      .cls-5 {
        fill: #fff;
      }

      .cls-6 {
        letter-spacing: -.03em;
      }

      .cls-2 {
        opacity: .31;
      }

      .cls-7 {
        fill: #8878ff;
      }
    </style>
  </defs>
  <rect class="cls-5" width="56" height="56" rx="6.8" ry="6.8"/>
  <g>
    <ellipse class="cls-2" cx="10.43" cy="47.6" rx="8.15" ry=".81"/>
    <path class="cls-7" d="M15.41,11.6l-1.93-.25c-.36-.04-.68.2-.73.56l-.25,1.93c-.04.36.2.68.56.73l1.93.25c.36.04.68-.2.73-.56l.25-1.93c.04-.36-.2-.68-.56-.73ZM11.53,11.1l-5.16-.67c-.36-.04-.68.2-.73.56l-.25,1.93c-.04.36.2.68.56.73l5.16.67c.36.04.68-.2.73-.56l.25-1.93c.04-.36-.2-.68-.56-.73Z"/>
    <path class="cls-4" d="M15.8,13.62l-10.32-1.34L1.31,44.53c-.04.36.2.68.56.73l2.66.34c.28.03.57-.08.7-.34.24-.5.78-.78,1.33-.71s.99.49,1.1,1.03c.05.28.31.47.58.5l2.42.32c.59.07.92-.17.97-.53L15.8,13.62Z"/>
    <path class="cls-5" d="M12.63,17.8l-5.16-.67c-.36-.04-.68.2-.73.56l-.67,5.16c-.04.36.2.68.56.73l5.16.67c.36.04.68-.2.73-.56l.67-5.16c.04-.36-.2-.68-.56-.73ZM4.54,39.71c-.36-.04-.6-.37-.56-.73l1.58-12.25c.04-.36.37-.6.73-.56s.6.37.56.73l-1.58,12.25c-.04.36-.37.6-.73.56ZM11.46,26.83l-2.58-.33c-.36-.04-.68.2-.73.56l-1.58,12.25c-.04.36.2.68.56.73l2.58.33c.36.04.68-.2.73-.56l1.58-12.25c.04-.36-.2-.68-.56-.73ZM7.67,25.68l-1.29-.17c-.36-.04-.6-.37-.56-.73s.37-.6.73-.56l1.29.17c.36.04.6.37.56.73s-.37.6-.73.56Z"/>
    <path class="cls-7" d="M1.81,40.66l-.5,3.87c-.04.36.2.68.56.73l2.69.35c.28.03.54-.11.66-.35.25-.49.78-.77,1.32-.7s.98.48,1.09,1.02c.05.27.28.48.55.51l2.69.35c.36.04.68-.2.73-.56l.5-3.87-10.32-1.34h.02Z"/>
    <circle class="cls-5" cx="9.7" cy="25.29" r=".65"/>
    <circle class="cls-5" cx="11.63" cy="25.53" r=".65"/>
    <g class="cls-3">
      <text class="cls-1" transform="translate(9.44 38.45) rotate(-82.85)"><tspan x="0" y="0">N</tspan><tspan class="cls-6" x="1.46" y="0">V</tspan></text>
      <text class="cls-1" transform="translate(9.78 35.72) rotate(-82.85)"><tspan x="0" y="0">M</tspan></text>
      <text class="cls-1" transform="translate(9.99 34.1) rotate(-82.85)"><tspan x="0" y="0">e SSD</tspan></text>
    </g>
    <circle class="cls-5" cx="8.34" cy="15.5" r=".65"/>
    <circle class="cls-5" cx="10.27" cy="15.75" r=".65"/>
    <circle class="cls-5" cx="12.21" cy="16.01" r=".65"/>
    <g>
      <g>
        <g>
          <path class="cls-4" d="M53.64,20.37H18.49c-.58,0-1.06-.48-1.06-1.06V7.45c0-.58.48-1.06,1.06-1.06h35.14c.58,0,1.06.48,1.06,1.06v11.86c0,.58-.48,1.06-1.06,1.06Z"/>
          <rect class="cls-5" x="22.94" y="9.57" width="9.31" height="1.06"/>
          <circle class="cls-5" cx="44.53" cy="10.21" r=".64"/>
          <circle class="cls-5" cx="46.65" cy="10.21" r=".64"/>
          <circle class="cls-5" cx="48.77" cy="10.21" r=".64"/>
          <path class="cls-4" d="M53.64,36.7H18.49c-.58,0-1.06-.48-1.06-1.06v-11.86c0-.58.48-1.06,1.06-1.06h35.14c.58,0,1.06.48,1.06,1.06v11.86c0,.58-.48,1.06-1.06,1.06Z"/>
          <rect class="cls-5" x="22.94" y="25.91" width="9.31" height="1.06"/>
          <circle class="cls-5" cx="44.53" cy="26.54" r=".64"/>
          <circle class="cls-5" cx="46.65" cy="26.54" r=".64"/>
          <circle class="cls-5" cx="48.77" cy="26.54" r=".64"/>
          <rect class="cls-4" x="35.16" y="38.61" width="2.73" height="9.29"/>
        </g>
        <rect class="cls-4" x="29.1" y="46.48" width="15.43" height="1.87"/>
      </g>
      <circle class="cls-4" cx="36.81" cy="47.42" r="2.2"/>
    </g>
  </g>
</svg>