<svg width="35" height="35" viewBox="0 0 35 35" fill="none" xmlns="http://www.w3.org/2000/svg">
<g clip-path="url(#clip0_347_24)">
<mask id="mask0_347_24" style="mask-type:luminance" maskUnits="userSpaceOnUse" x="0" y="0" width="35" height="35">
<path d="M35 0H0V35H35V0Z" fill="white"/>
</mask>
<g mask="url(#mask0_347_24)">
<path d="M27.2824 -0.245117H7.92736C3.47181 -0.245117 -0.140137 3.36683 -0.140137 7.82238V27.1774C-0.140137 31.6329 3.47181 35.2449 7.92736 35.2449H27.2824C31.7379 35.2449 35.3499 31.6329 35.3499 27.1774V7.82238C35.3499 3.36683 31.7379 -0.245117 27.2824 -0.245117Z" fill="#F2EFFF"/>
</g>
<path d="M18.0834 4.88743C20.8079 4.63464 23.5979 6.23564 24.4405 8.91333C24.9836 10.6267 24.3844 11.6472 24.9461 11.7127C25.1427 11.7408 26.5565 11.385 27.8204 12.4617C29.3371 13.7538 29.412 16.1787 27.9234 17.5269C27.9234 16.9183 27.6987 16.2068 27.0152 16.085H18.9354C18.9354 15.1488 18.9166 14.2219 18.9073 13.2856C18.8324 13.0516 18.3642 13.0235 18.2706 13.4448V19.9424C18.3923 20.5323 19.2443 20.1765 19.3379 20.3169C18.6919 21.1408 18.0459 21.9647 17.3999 22.798C16.7726 21.9741 16.1453 21.1502 15.5087 20.3169C15.5929 20.1765 16.4543 20.5323 16.576 19.9424V13.4448C16.4824 13.0141 16.0142 13.0516 15.9393 13.2856C15.9393 14.2219 15.9206 15.1488 15.9113 16.085H7.81265C7.20408 16.1787 7.04492 16.7872 6.96066 16.7779C4.03018 13.295 6.99811 8.20178 11.4828 8.8946C11.9041 8.96014 12.7748 9.39082 12.9714 9.26911C13.1212 9.17548 13.3834 7.56512 14.8907 6.28245C15.7334 5.5709 16.9786 4.99978 18.0834 4.8968V4.88743Z" fill="#6B46F2"/>
<path d="M7.81276 16.7124C10.5185 16.7124 13.2243 16.7311 15.9207 16.7405C15.9207 17.012 15.902 17.2929 15.8926 17.5644H8.60858C8.60858 17.5644 8.52432 17.6487 8.4775 17.6955C8.21535 18.1261 8.58985 26.5618 8.39324 27.7977C8.12173 27.7977 7.84085 27.7789 7.56934 27.7696V17.0026C7.6536 16.909 7.7285 16.806 7.81276 16.7124Z" fill="#6B46F2"/>
<path d="M18.9258 16.7124H27.0057C27.0712 16.7779 27.1274 16.8341 27.1929 16.8997C27.1929 20.5323 27.2116 24.165 27.221 27.7977C26.9495 27.7977 26.6686 27.7789 26.3971 27.7696C26.2567 26.5524 26.6031 18.1261 26.3409 17.6955L26.2098 17.5644H18.9258V16.7124Z" fill="#6B46F2"/>
<path d="M9.08594 18.1538H15.8363L15.9206 18.2381V19.6237C15.6304 19.7454 14.4788 19.4458 14.4881 19.9421C14.4881 20.1387 16.5011 22.6946 16.7726 23.0317C17.1377 23.4717 17.325 23.8556 17.6808 23.5092C18.5702 22.3201 19.4503 21.1311 20.3397 19.9421C20.3397 19.4365 19.1975 19.7454 18.9073 19.6237V18.2381L18.9915 18.1538H25.7419C25.7419 21.3558 25.7606 24.5672 25.77 27.7691C23.6728 27.7691 21.5662 27.7879 19.469 27.7972C19.1039 27.947 19.0664 28.4058 18.8324 28.7054H15.958C15.6678 28.462 15.6678 27.8815 15.2652 27.7972H9.0953V18.1538H9.08594ZM11.7449 22.0486C11.4734 22.1048 11.23 22.4606 11.1831 22.7134V25.4847C11.23 25.8405 11.567 26.3554 11.9041 26.4678C12.4845 26.655 21.1636 26.4303 22.6991 26.5239C23.0455 26.4678 23.4762 26.0932 23.5792 25.7468C23.5979 24.7357 23.6166 23.7245 23.6353 22.7134C23.4762 21.6741 21.7535 22.0393 21.5569 22.2359C21.1543 22.6478 21.4445 23.7432 21.3134 24.2863H13.4957C13.4957 23.7432 13.477 23.2002 13.4676 22.6572C13.3459 21.9456 12.2973 21.9269 11.7355 22.0486H11.7449Z" fill="#6B46F2"/>
<path d="M11.7453 22.0491C12.307 21.9368 13.3556 21.9461 13.4773 22.6577C13.4773 23.2007 13.4961 23.7437 13.5054 24.2868H21.3231C21.4449 23.7437 21.164 22.6483 21.5666 22.2364C21.7632 22.0397 23.4765 21.6746 23.6451 22.7138C23.6263 23.725 23.6076 24.7362 23.5889 25.7473C23.4953 26.0844 23.0552 26.4589 22.7088 26.5244C21.1733 26.4401 12.4943 26.6648 11.9138 26.4682C11.5767 26.3559 11.249 25.8316 11.1929 25.4852V22.7138C11.2397 22.4611 11.4737 22.1053 11.7546 22.0491H11.7453ZM11.9138 22.6296L11.8295 22.7138V25.5881C11.9606 25.7005 12.0917 25.8222 12.2321 25.9346H22.6058C22.7369 25.8222 22.868 25.7005 23.0084 25.5881V22.7138C21.1921 22.1802 22.4654 23.6314 21.81 24.8766H13.0373C12.7002 24.7642 12.9156 23.0134 12.85 22.667C12.5411 22.667 12.2321 22.6483 11.9231 22.6389L11.9138 22.6296Z" fill="#6B46F2"/>
<path d="M5.84668 28.4438H15.0501C15.228 28.7247 15.4058 29.015 15.5837 29.2958H19.1509C19.3287 29.015 19.5066 28.7247 19.6845 28.4438H28.9347C28.8879 28.9869 28.9441 29.9606 28.2419 30.0917C25.3114 29.9325 7.66301 30.2976 6.59568 30.0917C5.88413 29.9606 5.91222 29.015 5.84668 28.4438Z" fill="#6B46F2"/>
</g>
<defs>
<clipPath id="clip0_347_24">
<rect width="35" height="35" fill="white"/>
</clipPath>
</defs>
</svg>
