<?xml version="1.0" encoding="UTF-8"?>
<svg id="Layer_1" xmlns="http://www.w3.org/2000/svg" viewBox="0 0 20 20">
  <defs>
    <style>
      .cls-1 {
        fill: #f2efff;
      }

      .cls-2 {
        fill: #6b46f2;
      }
    </style>
  </defs>
  <rect class="cls-1" x="-.08" y="-.14" width="20.28" height="20.28" rx="4.61" ry="4.61"/>
  <g>
    <path class="cls-2" d="M10.41,2.52c1.62-.15,3.27.8,3.77,2.39.32,1.02-.03,1.62.3,1.66.12.01.95-.2,1.7.44.9.76.94,2.2.06,3,0-.36-.13-.78-.54-.85h-4.79c0-.55-.01-1.11-.02-1.66-.05-.14-.32-.16-.38.09v3.85c.07.35.58.14.63.22-.38.49-.77.98-1.15,1.47-.37-.49-.75-.98-1.12-1.47.05-.08.56.13.63-.22v-3.85c-.05-.25-.33-.23-.38-.09,0,.55-.01,1.11-.02,1.66h-4.79c-.36.06-.46.42-.5.41-1.74-2.06.02-5.08,2.68-4.68.25.04.77.29.88.22.09-.06.24-1.01,1.14-1.77.5-.42,1.24-.76,1.89-.82Z"/>
    <path class="cls-2" d="M4.32,9.53c1.6,0,3.21.01,4.81.02,0,.16-.01.33-.02.49h-4.32s-.05.05-.08.08c-.15.26.06,5.26-.05,5.99-.16,0-.33-.01-.49-.02v-6.38c.05-.06.09-.12.14-.17Z"/>
    <path class="cls-2" d="M10.91,9.53h4.79s.07.07.11.11c0,2.15.01,4.31.02,6.46-.16,0-.33-.01-.49-.02-.08-.72.12-5.71-.03-5.97l-.08-.08h-4.32v-.51Z"/>
    <path class="cls-2" d="M5.08,10.38h4l.05.05v.82c-.17.07-.85-.11-.85.19,0,.11,1.19,1.63,1.36,1.83.22.26.33.49.54.28.53-.71,1.05-1.41,1.58-2.12,0-.3-.68-.12-.85-.19v-.82l.05-.05h4c0,1.9.01,3.8.02,5.7-1.25,0-2.49.01-3.74.02-.22.09-.24.36-.38.54h-1.7c-.17-.14-.17-.49-.41-.54h-3.66v-5.72ZM6.66,12.69c-.16.03-.31.24-.33.39v1.64c.03.21.23.52.43.58.34.11,5.49-.02,6.4.03.21-.03.46-.26.52-.46.01-.6.02-1.2.03-1.8-.09-.61-1.12-.4-1.23-.28-.24.24-.07.89-.14,1.22h-4.63c0-.32-.01-.64-.02-.96-.07-.42-.69-.43-1.02-.36Z"/>
    <path class="cls-2" d="M6.66,12.69c.33-.07.95-.06,1.02.36,0,.32.01.64.02.96h4.63c.07-.32-.09-.97.14-1.22.11-.12,1.13-.33,1.23.28-.01.6-.02,1.2-.03,1.8-.06.2-.31.42-.52.46-.91-.05-6.06.08-6.4-.03-.2-.07-.4-.37-.43-.58v-1.64c.03-.15.17-.36.33-.39ZM6.75,13.04l-.05.05v1.71c.08.07.16.14.24.21h6.15c.08-.07.16-.14.24-.21v-1.71c-1.08-.32-.32.54-.71,1.28h-5.2c-.2-.07-.07-1.1-.11-1.31-.18,0-.37-.01-.55-.02Z"/>
    <path class="cls-2" d="M3.16,16.48h5.45c.11.17.21.34.32.51h2.11c.11-.17.21-.34.32-.51h5.49c-.03.32,0,.9-.41.98-1.74-.09-12.2.12-12.83,0-.42-.08-.41-.64-.44-.98Z"/>
  </g>
</svg>