<svg width="35" height="35" viewBox="0 0 35 35" fill="none" xmlns="http://www.w3.org/2000/svg">
<g clip-path="url(#clip0_347_24)">
<mask id="mask0_347_24" style="mask-type:luminance" maskUnits="userSpaceOnUse" x="0" y="0" width="35" height="35">
<path d="M35 0H0V35H35V0Z" fill="white"/>
</mask>
<g mask="url(#mask0_347_24)">
<path d="M27.2824 -0.245117H7.92736C3.47181 -0.245117 -0.140137 3.36683 -0.140137 7.82238V27.1774C-0.140137 31.6329 3.47181 35.2449 7.92736 35.2449H27.2824C31.7379 35.2449 35.3499 31.6329 35.3499 27.1774V7.82238C35.3499 3.36683 31.7379 -0.245117 27.2824 -0.245117Z" fill="#F2EFFF"/>
</g>
<path d="M18.2475 4.06628C20.9406 3.81691 23.6836 5.39622 24.5148 8.03948C25.0468 9.73516 24.4649 10.7326 25.0135 10.7991C25.213 10.8157 26.5929 10.4666 27.8397 11.5306C29.3359 12.794 29.4024 15.1879 27.9394 16.5179C27.9394 15.9194 27.7233 15.2212 27.0417 15.1048H19.0787C19.0787 14.1905 19.0621 13.2595 19.0454 12.3452C18.9623 12.1124 18.5135 12.0792 18.4137 12.4948V18.8951C18.5301 19.477 19.3779 19.1279 19.461 19.2609C18.8293 20.0755 18.181 20.8901 17.5492 21.7046C16.9341 20.8901 16.3024 20.0755 15.6873 19.2609C15.7704 19.1279 16.6183 19.477 16.7347 18.8951V12.4948C16.6515 12.0792 16.1861 12.1124 16.1029 12.3452C16.1029 13.2595 16.0863 14.1905 16.0697 15.1048H8.10665C7.50818 15.2045 7.34193 15.803 7.27544 15.7864C4.38281 12.3618 7.30868 7.34126 11.7307 8.00623C12.1464 8.07273 13.0108 8.48834 13.1937 8.37197C13.3433 8.27222 13.5927 6.69292 15.0888 5.42947C15.9201 4.73125 17.1503 4.16602 18.2308 4.06628H18.2475Z" fill="#6B46F2"/>
<path d="M8.12339 15.7197C10.7833 15.7197 13.4598 15.7364 16.1197 15.753C16.1197 16.019 16.103 16.3016 16.0864 16.5676H8.90473C8.90473 16.5676 8.82161 16.6507 8.77173 16.7006C8.52237 17.1328 8.87148 25.4449 8.68861 26.6585C8.42262 26.6585 8.14001 26.6419 7.87402 26.6253V16.019C7.95714 15.9192 8.02364 15.8195 8.10676 15.7364L8.12339 15.7197Z" fill="#6B46F2"/>
<path d="M19.0786 15.7197H27.0416C27.0416 15.7197 27.158 15.8361 27.2245 15.9026C27.2245 19.4768 27.2411 23.0677 27.2578 26.6419C26.9918 26.6419 26.7092 26.6253 26.4432 26.6087C26.3102 25.4117 26.6427 17.1162 26.3933 16.684L26.2603 16.551H19.0786V15.7031V15.7197Z" fill="#6B46F2"/>
<path d="M9.38623 17.1333H16.0359L16.1191 17.2164V18.5796C15.8365 18.696 14.706 18.3968 14.706 18.8955C14.706 19.0784 16.6843 21.6053 16.9669 21.9377C17.3326 22.37 17.5155 22.7523 17.8646 22.4032C18.7457 21.2229 19.6102 20.0592 20.4913 18.8789C20.4913 18.3801 19.3608 18.6794 19.0782 18.563V17.1998L19.1613 17.1167H25.811C25.811 20.2753 25.8276 23.4339 25.8443 26.5925C23.7662 26.5925 21.7048 26.6092 19.6268 26.6258C19.2611 26.7754 19.2278 27.2243 18.9951 27.5235H16.1689C15.8863 27.2908 15.8863 26.7089 15.4873 26.6258H9.40286V17.1167L9.38623 17.1333ZM12.0129 20.9735C11.7469 21.0234 11.4975 21.3725 11.4643 21.6219V24.3483C11.5141 24.6974 11.8466 25.2127 12.1791 25.3125C12.7443 25.4953 21.3058 25.2792 22.8187 25.3623C23.1678 25.3125 23.5834 24.9301 23.6831 24.5976C23.6997 23.6002 23.7164 22.6027 23.733 21.6053C23.5834 20.5912 21.8711 20.9403 21.6882 21.1398C21.2892 21.5388 21.5718 22.6193 21.4555 23.1679H13.7584C13.7584 22.636 13.7418 22.104 13.7252 21.572C13.6088 20.8738 12.5781 20.8572 12.0295 20.9735H12.0129Z" fill="#6B46F2"/>
<path d="M12.013 20.9727C12.5616 20.8563 13.5923 20.873 13.7087 21.5712C13.7087 22.1032 13.7253 22.6351 13.7419 23.1671H21.4389C21.5553 22.6351 21.2893 21.5546 21.6717 21.1389C21.8546 20.9395 23.5502 20.5903 23.7165 21.6044C23.6999 22.6019 23.6832 23.5993 23.6666 24.5968C23.5669 24.9293 23.1513 25.295 22.8021 25.3615C21.2893 25.2784 12.7278 25.4945 12.1626 25.3116C11.8301 25.1953 11.4976 24.6965 11.4478 24.3474V21.621C11.4976 21.3717 11.7304 21.0226 11.9964 20.9727H12.013ZM12.1626 21.5546L12.0795 21.6377V24.4804C12.2125 24.5968 12.3455 24.7132 12.4785 24.8295H22.7024C22.8354 24.7132 22.9684 24.5968 23.1014 24.4804V21.6377C21.306 21.1057 22.5694 22.5354 21.9211 23.7656H13.2764C12.9439 23.6492 13.1601 21.9369 13.0936 21.5878C12.7943 21.5878 12.4785 21.5712 12.1792 21.5546H12.1626Z" fill="#6B46F2"/>
<path d="M6.19482 27.2739H15.2551C15.4379 27.5565 15.6042 27.8392 15.787 28.1218H19.2948C19.4776 27.8392 19.6439 27.5565 19.8267 27.2739H28.9535C28.9036 27.8059 28.9535 28.7701 28.2719 28.9031C25.3792 28.7535 7.99025 29.1026 6.94292 28.9031C6.2447 28.7701 6.26132 27.8392 6.21145 27.2739H6.19482Z" fill="#6B46F2"/>
</g>
<defs>
<clipPath id="clip0_347_24">
<rect width="35" height="35" fill="white"/>
</clipPath>
</defs>
</svg>
