<svg width="35" height="35" viewBox="0 0 35 35" fill="none" xmlns="http://www.w3.org/2000/svg">
<g clip-path="url(#clip0_347_24)">
<mask id="mask0_347_24" style="mask-type:luminance" maskUnits="userSpaceOnUse" x="0" y="0" width="35" height="35">
<path d="M35 0H0V35H35V0Z" fill="white"/>
</mask>
<g mask="url(#mask0_347_24)">
<path d="M27.2824 -0.245117H7.92736C3.47181 -0.245117 -0.140137 3.36683 -0.140137 7.82238V27.1774C-0.140137 31.6329 3.47181 35.2449 7.92736 35.2449H27.2824C31.7379 35.2449 35.3499 31.6329 35.3499 27.1774V7.82238C35.3499 3.36683 31.7379 -0.245117 27.2824 -0.245117Z" fill="#F2EFFF"/>
</g>
<path d="M20.9698 8H12.4198C9.45404 8 7.0498 10.4042 7.0498 13.37V21.92C7.0498 24.8858 9.45404 27.29 12.4198 27.29H20.9698C23.9356 27.29 26.3398 24.8858 26.3398 21.92V13.37C26.3398 10.4042 23.9356 8 20.9698 8Z" fill="#6B46F2"/>
<path d="M26.38 14.0398H7V13.0898H26.37V14.0398H26.38Z" fill="#EAE5FF"/>
<path d="M18.2 11.7101C18.5866 11.7101 18.9 11.3967 18.9 11.0101C18.9 10.6235 18.5866 10.3101 18.2 10.3101C17.8134 10.3101 17.5 10.6235 17.5 11.0101C17.5 11.3967 17.8134 11.7101 18.2 11.7101Z" fill="#EAE5FF"/>
<path d="M20.4798 11.7101C20.8664 11.7101 21.1798 11.3967 21.1798 11.0101C21.1798 10.6235 20.8664 10.3101 20.4798 10.3101C20.0932 10.3101 19.7798 10.6235 19.7798 11.0101C19.7798 11.3967 20.0932 11.7101 20.4798 11.7101Z" fill="#EAE5FF"/>
<path d="M22.7601 11.7101C23.1467 11.7101 23.4601 11.3967 23.4601 11.0101C23.4601 10.6235 23.1467 10.3101 22.7601 10.3101C22.3735 10.3101 22.0601 10.6235 22.0601 11.0101C22.0601 11.3967 22.3735 11.7101 22.7601 11.7101Z" fill="#EAE5FF"/>
<path d="M13.5099 16.5601C14.3099 16.6201 16.2399 16.6801 16.6699 17.3701C16.6699 19.4601 16.6799 21.5501 16.6899 23.6401C16.6699 23.7601 16.4899 23.9101 16.3899 23.9701C15.6199 24.4401 13.4899 24.5201 12.5699 24.5001C11.8599 24.4801 9.72986 24.3401 9.37986 23.6901C9.37986 21.6001 9.36986 19.5101 9.35986 17.4201C9.41986 17.1001 10.2999 16.8001 10.4199 16.8401C10.4699 16.8601 10.5399 16.9901 10.4199 17.0601C10.3799 17.0801 9.69986 17.2301 9.60986 17.4401C9.46986 17.7301 10.6599 17.9901 10.8399 18.0201C12.1199 18.2601 14.4899 18.2601 15.7399 17.9001C16.5599 17.6601 16.7299 17.3901 15.7999 17.1101C14.7799 16.8001 13.0199 16.7601 11.9499 16.8301C11.6099 16.8701 11.2699 16.9001 10.9299 16.9401C10.8499 16.9201 10.8199 16.7501 10.9799 16.7101C11.2999 16.6701 11.6199 16.6401 11.9399 16.6001C12.1499 16.5901 12.3699 16.5801 12.5799 16.5701H13.4999L13.5099 16.5601ZM9.60986 17.8501C9.60986 18.4201 9.60986 18.9801 9.60986 19.5501C9.65986 19.7501 10.4399 19.9601 10.6399 20.0101C11.9599 20.3001 14.4399 20.3001 15.7399 19.9301C15.8899 19.8901 16.4199 19.7101 16.4599 19.5501C16.4599 18.9801 16.4599 18.4201 16.4599 17.8501C15.3799 18.4801 12.8799 18.4801 11.6399 18.3601C10.9999 18.3001 10.1799 18.1701 9.61986 17.8501H9.60986ZM9.60986 19.8801C9.60986 20.4501 9.60986 21.0101 9.60986 21.5801C9.65986 21.7701 10.4099 21.9801 10.5899 22.0201C11.9099 22.3201 14.4899 22.3301 15.7899 21.9401C15.9199 21.9001 16.4299 21.7101 16.4599 21.5801C16.4599 21.0101 16.4599 20.4501 16.4599 19.8801C15.7999 20.2501 14.7599 20.3701 14.0099 20.4201C12.8599 20.4901 10.6199 20.4501 9.61986 19.8801H9.60986ZM9.60986 21.9101C9.60986 22.4701 9.60986 23.0301 9.60986 23.5901C9.65986 23.8001 10.4099 24.0001 10.6099 24.0501C11.7899 24.3201 13.7499 24.3201 14.9499 24.1401C15.2099 24.1001 16.3899 23.8701 16.4599 23.5901C16.4599 23.0301 16.4599 22.4701 16.4599 21.9101C15.9799 22.1801 15.3299 22.3001 14.7799 22.3801C13.4699 22.5501 10.7899 22.5601 9.60986 21.9101Z" fill="white"/>
<path d="M15.0997 18.67C15.7997 18.57 15.8097 19.68 15.0797 19.57C14.6097 19.5 14.6197 18.74 15.0997 18.67ZM15.1297 18.9C14.9197 18.94 14.9197 19.29 15.1097 19.33C15.4897 19.41 15.4697 18.83 15.1297 18.9Z" fill="white"/>
<path d="M10.51 18.9602C10.79 19.0102 11.07 19.0602 11.35 19.1202C12.01 19.2002 12.69 19.2202 13.35 19.2102L14.23 19.1602C14.31 19.1802 14.34 19.3602 14.21 19.3902L13.37 19.4402C12.7 19.4602 11.66 19.4102 11 19.3002C10.68 19.2502 10.37 19.2102 10.4 19.0402C10.43 19.0102 10.47 18.9802 10.5 18.9502L10.51 18.9602Z" fill="white"/>
<path d="M15.0997 20.67C15.7997 20.57 15.8097 21.68 15.0797 21.57C14.6097 21.5 14.6197 20.74 15.0997 20.67ZM15.1297 20.9C14.9197 20.94 14.9197 21.29 15.1097 21.33C15.4897 21.41 15.4697 20.83 15.1297 20.9Z" fill="white"/>
<path d="M10.4898 20.9702C10.7898 21.0202 11.0898 21.0702 11.3898 21.1302C11.9198 21.1902 12.4998 21.2202 13.0298 21.2202C13.4298 21.2002 13.8298 21.1902 14.2198 21.1702C14.3298 21.2002 14.3198 21.3802 14.1898 21.4002C14.0198 21.4102 13.8598 21.4202 13.6898 21.4302C13.1798 21.4502 12.3498 21.4302 11.8398 21.4002C11.6198 21.3802 10.6098 21.2602 10.4798 21.2002C10.3398 21.1402 10.3898 20.9902 10.4798 20.9702H10.4898Z" fill="white"/>
<path d="M15.1297 22.6701C15.8297 22.6201 15.7697 23.7201 15.0697 23.5701C14.5997 23.4701 14.6397 22.7101 15.1297 22.6701ZM15.1497 22.9001C14.8897 22.9401 14.9197 23.3601 15.1997 23.3501C15.4997 23.3401 15.4597 22.8601 15.1497 22.9001Z" fill="white"/>
<path d="M10.49 23C10.88 23.06 11.28 23.12 11.67 23.19C12.15 23.21 12.63 23.23 13.11 23.25C13.18 23.27 13.21 23.42 13.11 23.47C12.75 23.47 12.4 23.46 12.04 23.45C11.79 23.43 10.65 23.31 10.49 23.23C10.34 23.16 10.41 23.01 10.49 23Z" fill="white"/>
<path d="M13.9799 23.2001C14.1599 23.2001 14.4299 23.1801 14.2399 23.4201C14.1199 23.4201 13.4399 23.5601 13.5799 23.2901C13.6199 23.2201 13.8899 23.2101 13.9799 23.2001Z" fill="white"/>
<path d="M15.1799 19.3901C15.3125 19.3901 15.4199 19.2692 15.4199 19.1201C15.4199 18.971 15.3125 18.8501 15.1799 18.8501C15.0474 18.8501 14.9399 18.971 14.9399 19.1201C14.9399 19.2692 15.0474 19.3901 15.1799 19.3901Z" fill="white"/>
<path d="M15.1799 21.3901C15.3125 21.3901 15.4199 21.2692 15.4199 21.1201C15.4199 20.971 15.3125 20.8501 15.1799 20.8501C15.0474 20.8501 14.9399 20.971 14.9399 21.1201C14.9399 21.2692 15.0474 21.3901 15.1799 21.3901Z" fill="white"/>
<path d="M15.1799 23.3999C15.3125 23.3999 15.4199 23.279 15.4199 23.1299C15.4199 22.9807 15.3125 22.8599 15.1799 22.8599C15.0474 22.8599 14.9399 22.9807 14.9399 23.1299C14.9399 23.279 15.0474 23.3999 15.1799 23.3999Z" fill="white"/>
<path d="M21.5101 23.9801C19.6101 23.9801 18.0701 22.4301 18.0801 20.5301C18.0801 18.6301 19.6301 17.0901 21.5301 17.1001C23.4301 17.1001 24.9701 18.6501 24.9601 20.5501C24.9601 20.5801 24.9601 20.6001 24.9601 20.6301C24.9101 22.5001 23.3801 23.9801 21.5101 23.9801ZM21.5401 23.3801C23.1101 23.4001 24.3901 22.0901 24.3801 20.5301C24.3801 18.9501 23.1101 17.6701 21.5301 17.6601C19.9501 17.6601 18.6701 18.9301 18.6601 20.5101C18.6601 22.0901 19.9301 23.3701 21.5101 23.3801H21.5401Z" fill="white"/>
<path d="M24.7898 16.9099L24.7398 17.0099L24.6398 17.1299L22.3898 19.3599L22.3098 19.4599C22.2098 19.5599 22.2298 19.6799 22.3898 19.7599C22.5898 19.8899 22.7898 20.0099 23.0098 20.1099L23.9498 20.6799C24.0298 20.7099 24.0998 20.7299 24.0998 20.8299C24.0998 20.9299 24.0198 20.9799 23.9498 21.0299L19.6198 23.3099L18.4598 23.9299H18.2598C18.2598 23.9299 18.2798 23.8399 18.3098 23.8099L18.3898 23.7299L20.6198 21.4999L20.6998 21.3999C20.7798 21.3499 20.8098 21.2499 20.7698 21.1599C20.7398 21.1099 20.6998 21.0799 20.6498 21.0699L19.1198 20.1799C19.0398 20.1299 18.9198 20.0999 18.9398 19.9799C18.9598 19.8599 19.0398 19.8299 19.1198 19.7799L24.5698 16.9099L24.6898 16.8599L24.8098 16.9099H24.7898Z" fill="white" stroke="#6B46F2" stroke-width="0.4" stroke-miterlimit="10"/>
</g>
<defs>
<clipPath id="clip0_347_24">
<rect width="35" height="35" fill="white"/>
</clipPath>
</defs>
</svg>
