<svg width="70" height="70" viewBox="0 0 70 70" fill="none" xmlns="http://www.w3.org/2000/svg">
<path d="M57.6629 1.15234H12.3369C6.15954 1.15234 1.15186 6.16003 1.15186 12.3373V57.6633C1.15186 63.8406 6.15954 68.8483 12.3369 68.8483H57.6629C63.8402 68.8483 68.8479 63.8406 68.8479 57.6633V12.3373C68.8479 6.16003 63.8402 1.15234 57.6629 1.15234Z" fill="white"/>
<path d="M9.33558 46.0003H7.67627V28.4323C9.08669 27.9967 10.4556 27.7686 11.8246 27.7686C12.8201 27.7686 13.712 27.9345 14.5209 28.2249C15.3298 28.536 16.0143 28.9716 16.5951 29.5108C17.1758 30.0709 17.6114 30.7138 17.9225 31.4813C18.2336 32.228 18.3788 33.0576 18.3788 33.9495C18.3788 35.028 18.1922 35.9614 17.8188 36.7288C17.4455 37.4963 16.9684 38.1393 16.3462 38.6371C15.7447 39.1348 15.0602 39.5082 14.272 39.7363C13.4839 39.9645 12.6957 40.089 11.9075 40.089C11.4719 40.089 11.0364 40.0475 10.6215 40.006C10.2067 39.9438 9.79189 39.8401 9.35632 39.7363V46.0003H9.33558ZM16.4291 33.9288C16.4291 32.5183 16.0351 31.3983 15.2676 30.5272C14.4795 29.656 13.3802 29.2412 11.9697 29.2412C11.5134 29.2412 11.0779 29.2619 10.6423 29.3242C10.2067 29.3864 9.77115 29.4901 9.35632 29.6353V38.2015C9.75041 38.3259 10.1445 38.4504 10.5593 38.5333C10.9742 38.6163 11.3682 38.6578 11.7623 38.6578C13.1935 38.6578 14.3343 38.243 15.1847 37.4341C16.0143 36.6251 16.4499 35.4636 16.4499 33.9495" fill="#6B46F2"/>
<path d="M23.4391 23.0601H21.7383V40.0058H23.4391V23.0601Z" fill="#6B46F2"/>
<path d="M37.2747 38.2215C36.7147 38.8437 36.051 39.3 35.3043 39.6112C34.5576 39.9223 33.6657 40.0882 32.6079 40.0882C31.633 40.0882 30.7826 39.9223 30.0567 39.5904C29.3307 39.2586 28.7292 38.823 28.2314 38.2422C27.7544 37.6822 27.3811 37.0392 27.1529 36.3133C26.9247 35.5873 26.8003 34.8199 26.8003 34.011C26.8003 32.9324 26.9455 32.0198 27.2359 31.2316C27.5262 30.4435 27.9203 29.8005 28.4181 29.2819C28.9159 28.7634 29.4967 28.3693 30.1604 28.1204C30.8241 27.8715 31.5293 27.7471 32.2553 27.7471C34.039 27.7471 35.3665 28.2863 36.2791 29.3856C37.1917 30.4642 37.6066 32.0613 37.5858 34.1354H28.5011C28.5426 35.5044 28.9367 36.6037 29.6833 37.4126C30.43 38.2215 31.4256 38.6156 32.7116 38.6156C33.4168 38.6156 34.0598 38.4911 34.6405 38.263C35.2213 38.0348 35.7398 37.6615 36.2169 37.1429L37.2332 38.2215H37.2747ZM35.9058 32.7458C35.9058 32.248 35.8228 31.7709 35.6776 31.3353C35.5324 30.8998 35.3043 30.5264 35.0139 30.2153C34.7235 29.9042 34.3502 29.6553 33.9146 29.4686C33.4583 29.2819 32.9397 29.199 32.3382 29.199C31.7367 29.199 31.1975 29.2819 30.7619 29.4686C30.3263 29.6553 29.9737 29.8834 29.7041 30.1946C29.4552 30.4849 29.2063 30.8583 28.9781 31.2939C28.75 31.7294 28.6255 32.2065 28.5633 32.725H35.9058V32.7458Z" fill="#6B46F2"/>
<path d="M48.7025 30.7553C48.2877 30.216 47.8314 29.8427 47.3336 29.5938C46.8358 29.3449 46.2551 29.2204 45.5913 29.2204C44.7202 29.2204 44.1187 29.3863 43.7661 29.6767C43.4135 29.9878 43.2475 30.3612 43.2475 30.8382C43.2475 31.1701 43.3305 31.4397 43.4964 31.6679C43.6624 31.8961 43.8698 32.0827 44.1394 32.2487C44.3883 32.4146 44.6994 32.5598 45.0521 32.6635C45.4047 32.7879 45.7573 32.9124 46.1306 33.0161C46.5869 33.1613 47.0432 33.3272 47.4995 33.4931C47.9558 33.6591 48.3707 33.8872 48.744 34.1569C49.1174 34.4265 49.4285 34.7584 49.6566 35.1525C49.9055 35.5465 50.0092 36.0443 50.0092 36.6458C50.0092 37.2059 49.8848 37.6829 49.6566 38.1185C49.4285 38.554 49.0966 38.9274 48.6818 39.2178C48.267 39.5289 47.7899 39.7363 47.2506 39.9022C46.6906 40.0682 46.1099 40.1304 45.4876 40.1304C44.5335 40.1304 43.6624 39.9645 42.9157 39.6533C42.169 39.3422 41.4638 38.8237 40.8208 38.0977L42.1483 36.9362C43.0194 38.0563 44.1602 38.637 45.5706 38.637C46.4832 38.637 47.1469 38.4711 47.6032 38.1392C48.0596 37.8074 48.267 37.3925 48.267 36.8947C48.267 36.5214 48.184 36.2103 48.0181 35.9614C47.8521 35.7125 47.6447 35.5051 47.3543 35.3184C47.0847 35.1525 46.7528 34.9865 46.3795 34.8621C46.0062 34.7376 45.6328 34.6132 45.218 34.5095C44.7617 34.385 44.3054 34.2398 43.8698 34.0739C43.4135 33.908 43.0194 33.7006 42.6668 33.4517C42.3142 33.2028 42.0238 32.8709 41.7956 32.4976C41.5675 32.1035 41.4638 31.6264 41.4638 31.0249C41.4638 29.9464 41.8579 29.1374 42.6253 28.5567C43.3927 27.9759 44.4091 27.6855 45.6328 27.6855C46.5039 27.6855 47.2921 27.8307 47.9766 28.1211C48.6611 28.4115 49.304 28.93 49.947 29.6352L48.7233 30.7968H48.7025V30.7553Z" fill="#6B46F2"/>
<path d="M53.2041 23.0801H54.9049V40.0051H53.2041V23.0801ZM54.9049 33.7619L60.7125 27.8921H62.994L57.0413 33.6997L62.9733 40.0051H60.6295L54.9256 33.7619H54.9049Z" fill="#6B46F2"/>
<path d="M27.6301 44.4028H17.4253V45.9999H27.6301V44.4028Z" fill="#6B46F2"/>
</svg>
