<?xml version="1.0" encoding="UTF-8"?>
<svg id="Layer_1" xmlns="http://www.w3.org/2000/svg" viewBox="0 0 70 70">
  <defs>
    <style>
      .cls-1 {
        fill: #fff;
      }

      .cls-2 {
        stroke: #fff;
        stroke-miterlimit: 10;
      }

      .cls-2, .cls-3 {
        fill: #5138cc;
      }

      .cls-4 {
        fill: #e7e3fd;
      }
    </style>
  </defs>
  <g id="Character">
    <rect class="cls-3" width="70" height="70" rx="12.56" ry="12.56"/>
  </g>
  <g>
    <g>
      <path class="cls-2" d="M36.11,38.31l2.4,10.77-4.86-2.65v-8.11h2.45,0Z"/>
      <path class="cls-2" d="M31.2,38.31l-2.4,10.77,4.86-2.65v-8.11h-2.45Z"/>
      <path class="cls-2" d="M39.57,37.25c0,1.91-1.55,3.46-3.46,3.46h0c-1.35,1.36-3.54,1.36-4.9,0h0c-1.91,0-3.46-1.56-3.46-3.47h0c-1.35-1.36-1.35-3.54,0-4.9v-.02c0-1.91,1.55-3.46,3.46-3.46h.02c1.35-1.35,3.54-1.35,4.89,0h0c1.91,0,3.46,1.55,3.46,3.46,1.36,1.36,1.36,3.55,0,4.91h0l-.02.02h0Z"/>
      <circle class="cls-4" cx="33.65" cy="34.8" r="3.5"/>
    </g>
    <path class="cls-1" d="M8.84,53.67l-.75.31c-.62.31-.93.22-1.28-.35s-.75-1.15-1.06-1.77-.27-.93.27-1.19c.57-.21.89-.83.71-1.42-.04-.35-.04-.71,0-1.06.1-.41-.1-.84-.49-1.02-.84-.49-.88-.75-.35-1.55.28-.53.59-1.05.93-1.55.4-.62.66-.71,1.33-.35.46.28,1.04.24,1.46-.09.31-.23.66-.43,1.02-.58.45-.13.75-.55.71-1.02,0-.8.22-1.02,1.02-1.02h2.08c.71,0,.93.22.93.88-.05.54.28,1.03.8,1.19.35.12.68.3.97.53.4.34.98.37,1.42.09.71-.35.97-.27,1.37.35l1.06,1.77c.31.58.27.88-.31,1.19-.56.23-.85.84-.66,1.42.05.19.05.39,0,.58-.13.75-.04,1.33.8,1.68s.49.58.27,1.02-.8,1.37-1.24,2.03-.66.53-1.19.22c-.5-.32-1.15-.26-1.59.13-.29.21-.6.37-.93.49-.45.16-.74.59-.75,1.06,0,.8-.22.97-.97.97h-2.03c-.8,0-1.02-.18-1.02-.93.04-.48-.25-.92-.71-1.06-.38-.19-.75-.42-1.11-.66l-.66-.31ZM13.35,45.79c-1.69-.02-3.07,1.32-3.1,3.01-.02,1.69,1.32,3.07,3.01,3.1,1.69.02,3.07-1.32,3.1-3.01,0-.01,0-.03,0-.04.02-1.66-1.3-3.03-2.96-3.05-.01,0-.03,0-.04,0Z"/>
    <path class="cls-1" d="M50.55,47.33l-1.9-1.46c3.55-5.25,12.03-5.51,15.83,0l-.82.7-1.01.7c-1.45-1.86-3.66-2.95-6.01-2.98-2.4-.02-4.66,1.11-6.08,3.04Z"/>
    <path class="cls-1" d="M54.47,50.24l-1.84-1.39c1.65-2.6,5.89-2.79,7.91-.06l-1.9,1.46c-1.39-1.27-2.79-1.2-4.18,0Z"/>
    <path class="cls-1" d="M56.62,51.76c.66.06,1.17.6,1.2,1.27-.07.68-.64,1.21-1.33,1.2-.65-.07-1.14-.61-1.14-1.27.03-.67.59-1.2,1.27-1.2Z"/>
    <path class="cls-1" d="M35.2,11.35h1.48c1.17,0,2.13.93,2.16,2.1.06,1.31.06,2.56,0,3.87-.03.29-.2.54-.46.68-2.43,1.53-5.51,1.55-7.96.06-.33-.18-.53-.53-.51-.91.06-1.14,0-2.28,0-3.41s.91-2.39,2.39-2.39h1.02c-.52-.51-.99-1.06-1.42-1.65-.4-.63-.44-1.43-.11-2.1.45-1.11,1.53-1.84,2.73-1.82,1.22.08,2.25.93,2.56,2.1.34,1.25-.17,2.39-1.88,3.47Z"/>
    <path class="cls-1" d="M34.4,64.22c-.38,0-.76,0-1.14-.03-.16,0-.28-.14-.27-.3,0-.16.12-.27.3-.27.76.03,1.52.03,2.28,0,.15-.01.29.11.3.27,0,.16-.11.29-.27.3-.39.02-.79.03-1.19.03ZM30.98,63.98s-.03,0-.04,0c-.77-.11-1.54-.25-2.29-.44-.15-.04-.25-.19-.21-.34.04-.15.18-.25.34-.21.73.18,1.49.32,2.24.43.16.02.26.17.24.32-.02.14-.14.24-.28.24ZM37.86,63.97c-.14,0-.26-.1-.28-.24-.02-.16.09-.3.24-.32.75-.11,1.5-.25,2.23-.43.15-.04.31.06.34.21.04.15-.06.31-.21.34-.75.18-1.52.33-2.29.44-.01,0-.03,0-.04,0ZM26.51,62.91s-.06,0-.09-.02c-.73-.25-1.46-.54-2.16-.86-.14-.07-.21-.23-.14-.38.07-.14.23-.21.38-.14.69.31,1.4.6,2.11.84.15.05.23.21.18.36-.04.12-.15.19-.27.19ZM42.34,62.89c-.12,0-.23-.07-.27-.19-.05-.15.03-.31.18-.36.71-.25,1.42-.53,2.11-.85.14-.06.31,0,.38.14.07.14,0,.31-.14.38-.7.32-1.43.61-2.16.87-.03.01-.06.02-.09.02ZM22.32,61s-.1-.01-.14-.04c-.67-.39-1.33-.81-1.96-1.26-.13-.09-.16-.27-.07-.4.09-.13.27-.16.4-.07.62.44,1.26.85,1.92,1.23.14.08.18.25.1.39-.05.09-.15.14-.25.14ZM46.52,60.97c-.1,0-.19-.05-.25-.14-.08-.14-.03-.31.1-.39.66-.38,1.3-.8,1.91-1.23.13-.09.31-.06.4.07.09.13.06.31-.07.4-.63.45-1.29.87-1.96,1.26-.04.03-.09.04-.14.04ZM50.26,58.3c-.08,0-.16-.03-.21-.1-.1-.12-.09-.3.03-.4.57-.5,1.13-1.03,1.65-1.57.11-.11.29-.12.4,0,.11.11.12.29,0,.4-.53.56-1.1,1.1-1.68,1.61-.05.05-.12.07-.19.07ZM10.29,37.76s-.02,0-.03,0c-.16-.01-.27-.15-.26-.31.07-.77.18-1.55.32-2.31.03-.15.18-.26.33-.23.15.03.26.18.23.33-.14.74-.25,1.5-.32,2.25-.01.15-.14.26-.28.26ZM58.49,37.61c-.14,0-.27-.11-.28-.26-.07-.75-.18-1.51-.33-2.25-.03-.15.07-.3.22-.33.15-.03.3.07.33.22.15.76.26,1.54.34,2.31.01.16-.1.3-.26.31,0,0-.02,0-.03,0ZM11.14,33.24s-.05,0-.08-.01c-.15-.04-.24-.2-.19-.35.22-.74.47-1.49.76-2.2.06-.15.22-.22.37-.16.15.06.22.22.16.37-.28.7-.53,1.43-.74,2.15-.04.12-.15.2-.27.2ZM57.61,33.09c-.12,0-.24-.08-.27-.2-.22-.72-.47-1.45-.75-2.15-.06-.15.01-.31.16-.37.14-.06.31.01.37.16.29.72.55,1.46.77,2.2.04.15-.04.31-.19.35-.03,0-.05.01-.08.01ZM12.84,28.96s-.09,0-.13-.03c-.14-.07-.19-.24-.12-.38.35-.69.74-1.37,1.16-2.02.09-.13.26-.17.39-.09.13.08.17.26.09.39-.41.63-.79,1.3-1.14,1.97-.05.1-.15.15-.25.15ZM55.88,28.83c-.1,0-.2-.06-.25-.15-.35-.67-.73-1.33-1.15-1.97-.09-.13-.05-.31.08-.39.13-.08.31-.05.39.08.42.65.82,1.33,1.17,2.01.07.14.02.31-.12.38-.04.02-.09.03-.13.03ZM15.33,25.09c-.06,0-.12-.02-.18-.06-.12-.1-.14-.28-.05-.4.48-.61.99-1.2,1.52-1.76.11-.11.29-.12.4-.01.11.11.12.29.01.4-.52.55-1.02,1.13-1.49,1.72-.06.07-.14.11-.22.11ZM53.37,24.97c-.08,0-.17-.04-.22-.11-.47-.59-.97-1.17-1.5-1.71-.11-.11-.11-.29,0-.4.11-.11.29-.11.4,0,.54.56,1.05,1.15,1.53,1.75.1.12.08.3-.05.4-.05.04-.11.06-.18.06ZM18.49,21.75c-.08,0-.16-.03-.21-.1-.1-.12-.09-.3.03-.4.58-.51,1.2-.99,1.83-1.45.13-.09.3-.06.4.07.09.13.06.31-.07.4-.61.44-1.21.92-1.78,1.41-.05.05-.12.07-.19.07ZM50.19,21.65c-.07,0-.13-.02-.19-.07-.57-.49-1.18-.97-1.79-1.4-.13-.09-.16-.27-.07-.4.09-.13.27-.16.4-.07.63.45,1.25.93,1.84,1.44.12.1.13.28.03.4-.06.06-.14.1-.22.1ZM22.23,19.07c-.1,0-.19-.05-.25-.14-.08-.14-.03-.31.1-.39.67-.39,1.37-.75,2.07-1.08.14-.07.31,0,.38.14.07.14,0,.31-.14.38-.68.32-1.36.67-2.02,1.05-.04.03-.09.04-.14.04ZM46.43,18.99s-.1-.01-.14-.04c-.66-.38-1.34-.73-2.03-1.04-.14-.06-.21-.23-.14-.38.06-.14.24-.21.38-.14.7.32,1.4.68,2.07,1.06.14.08.18.25.1.39-.05.09-.15.14-.25.14ZM26.41,17.15c-.12,0-.23-.07-.27-.19-.05-.15.03-.31.17-.36.73-.25,1.48-.48,2.23-.66.15-.04.31.06.34.21.04.15-.06.31-.21.34-.73.18-1.47.4-2.18.65-.03.01-.06.02-.09.02ZM42.24,17.1s-.06,0-.09-.02c-.72-.25-1.45-.46-2.19-.63-.15-.04-.25-.19-.21-.34.04-.15.19-.25.34-.21.75.18,1.5.4,2.24.65.15.05.23.21.18.36-.04.12-.15.19-.27.19Z"/>
  </g>
</svg>