<?xml version="1.0" encoding="UTF-8"?>
<svg id="Layer_1" xmlns="http://www.w3.org/2000/svg" viewBox="0 0 70 70">
  <defs>
    <style>
      .cls-1 {
        fill: #eae5ff;
      }

      .cls-2 {
        fill: #5138cc;
      }
    </style>
  </defs>
  <g id="Character">
    <rect class="cls-2" x="-.07" y="-.18" width="70" height="70" rx="12.56" ry="12.56"/>
  </g>
  <path class="cls-1" d="M9.91,52.9l-.72.3c-.59.3-.89.21-1.23-.34s-.72-1.1-1.02-1.7-.25-.89.25-1.15c.55-.2.85-.8.68-1.36-.04-.34-.04-.68,0-1.02.1-.4-.1-.8-.47-.98-.81-.47-.85-.72-.34-1.48.27-.51.57-1.01.89-1.48.38-.59.64-.68,1.27-.34.44.27,1,.23,1.4-.08.3-.22.63-.41.98-.55.43-.12.72-.53.68-.98,0-.76.21-.98.98-.98h1.99c.68,0,.89.21.89.85-.04.51.27.99.76,1.15.34.11.66.28.93.51.38.32.94.36,1.36.08.68-.34.93-.25,1.31.34l1.02,1.7c.3.55.25.85-.3,1.15-.53.22-.81.81-.64,1.36.04.18.04.37,0,.55-.13.72-.04,1.27.76,1.61s.47.55.25.98-.76,1.31-1.19,1.95-.64.51-1.15.21c-.48-.3-1.1-.25-1.53.13-.27.2-.57.35-.89.47-.43.16-.71.56-.72,1.02,0,.76-.21.93-.93.93h-1.95c-.76,0-.98-.17-.98-.89.04-.46-.24-.88-.68-1.02-.37-.19-.72-.4-1.06-.64l-.64-.3ZM14.24,45.35c-1.62-.02-2.95,1.27-2.97,2.88-.02,1.62,1.27,2.95,2.88,2.97,1.62.02,2.95-1.27,2.97-2.88,0-.01,0-.03,0-.04.02-1.59-1.25-2.9-2.84-2.93-.01,0-.03,0-.04,0Z"/>
  <path class="cls-1" d="M49.91,46.82l-1.82-1.4c3.4-5.04,11.54-5.28,15.18,0l-.79.67-.97.67c-1.39-1.78-3.51-2.83-5.77-2.85-2.3-.02-4.47,1.06-5.83,2.91Z"/>
  <path class="cls-1" d="M53.67,49.61l-1.76-1.34c1.58-2.49,5.65-2.67,7.59-.06l-1.82,1.4c-1.34-1.21-2.67-1.15-4.01,0Z"/>
  <path class="cls-1" d="M55.74,51.07c.63.06,1.13.58,1.15,1.21-.06.66-.62,1.16-1.27,1.15-.62-.06-1.1-.59-1.09-1.21.03-.65.57-1.15,1.21-1.15Z"/>
  <path class="cls-1" d="M35.19,12.32h1.42c1.12,0,2.04.89,2.07,2.02.05,1.25.05,2.45,0,3.71-.03.28-.2.52-.44.65-2.33,1.47-5.29,1.49-7.64.05-.32-.17-.51-.51-.49-.87.05-1.09,0-2.18,0-3.27s.87-2.29,2.29-2.29h.98c-.5-.49-.95-1.02-1.36-1.58-.38-.61-.43-1.37-.11-2.02.43-1.07,1.47-1.76,2.62-1.75,1.17.08,2.15.89,2.45,2.02.33,1.2-.16,2.29-1.8,3.33Z"/>
  <path class="cls-1" d="M34.42,63.02c-.37,0-.73,0-1.09-.02-.15,0-.27-.13-.26-.28,0-.15.12-.26.28-.26.72.03,1.46.03,2.18,0,.15-.01.28.11.29.26,0,.15-.11.28-.26.29-.38.02-.76.03-1.14.03ZM31.14,62.79s-.03,0-.04,0c-.74-.1-1.47-.24-2.19-.42-.15-.04-.24-.18-.2-.33.04-.15.18-.24.33-.2.7.17,1.43.31,2.14.41.15.02.25.16.23.31-.02.14-.14.23-.27.23ZM37.75,62.79c-.13,0-.25-.1-.27-.23-.02-.15.08-.29.23-.31.72-.1,1.44-.24,2.14-.41.15-.04.29.05.33.2.04.15-.05.29-.2.33-.72.18-1.46.32-2.19.42-.01,0-.03,0-.04,0ZM26.85,61.76s-.06,0-.09-.01c-.7-.24-1.4-.52-2.08-.83-.14-.06-.2-.22-.14-.36.06-.14.22-.2.36-.14.66.3,1.34.57,2.03.81.14.05.22.2.17.35-.04.11-.14.18-.26.18ZM42.03,61.75c-.11,0-.22-.07-.26-.18-.05-.14.03-.3.17-.35.68-.24,1.37-.51,2.03-.81.13-.06.3,0,.36.13.06.14,0,.3-.13.36-.68.31-1.37.59-2.07.83-.03.01-.06.01-.09.01ZM22.84,59.93s-.09-.01-.14-.04c-.64-.37-1.27-.78-1.88-1.21-.12-.09-.15-.26-.06-.38.09-.12.26-.15.38-.06.59.42,1.21.82,1.84,1.18.13.08.18.24.1.37-.05.09-.14.14-.24.14ZM46.05,59.91c-.09,0-.19-.05-.24-.14-.08-.13-.03-.3.1-.37.63-.36,1.25-.76,1.83-1.18.12-.09.29-.06.38.06.09.12.06.29-.06.38-.6.43-1.23.84-1.88,1.21-.04.03-.09.04-.14.04ZM49.64,57.34c-.08,0-.15-.03-.21-.09-.1-.11-.09-.29.03-.38.55-.48,1.08-.98,1.58-1.51.1-.11.28-.11.39,0,.11.1.11.28,0,.39-.51.54-1.05,1.06-1.62,1.54-.05.04-.12.07-.18.07ZM11.3,37.65s-.02,0-.03,0c-.15-.01-.26-.15-.25-.3.07-.74.17-1.48.31-2.21.03-.15.17-.25.32-.22.15.03.25.17.22.32-.13.71-.24,1.44-.3,2.16-.01.14-.13.25-.27.25ZM57.53,37.5c-.14,0-.26-.11-.27-.25-.07-.72-.18-1.45-.32-2.16-.03-.15.07-.29.22-.32.15-.03.29.07.32.22.14.73.25,1.47.32,2.21.01.15-.1.28-.25.3,0,0-.02,0-.03,0ZM12.12,33.31s-.05,0-.08-.01c-.14-.04-.23-.19-.19-.34.21-.71.45-1.42.73-2.11.06-.14.22-.21.35-.15.14.06.21.21.15.35-.27.67-.51,1.37-.71,2.06-.03.12-.14.2-.26.2ZM56.68,33.17c-.12,0-.23-.08-.26-.19-.21-.69-.45-1.39-.72-2.06-.06-.14.01-.3.15-.36.14-.06.3.01.35.15.28.69.53,1.4.74,2.11.04.14-.04.3-.18.34-.03,0-.05.01-.08.01ZM13.75,29.21s-.08,0-.12-.03c-.13-.07-.19-.23-.12-.37.34-.66.71-1.31,1.11-1.94.08-.13.25-.16.38-.08.13.08.16.25.08.38-.39.61-.76,1.25-1.09,1.89-.05.09-.14.15-.24.15ZM55.02,29.08c-.1,0-.19-.05-.24-.15-.33-.64-.7-1.28-1.1-1.89-.08-.13-.05-.3.08-.38.13-.08.3-.05.38.08.41.62.78,1.27,1.13,1.93.07.13.02.3-.12.37-.04.02-.08.03-.13.03ZM16.13,25.5c-.06,0-.12-.02-.17-.06-.12-.09-.14-.26-.05-.38.46-.58.95-1.15,1.46-1.69.1-.11.28-.11.39-.01.11.1.11.28.01.39-.5.53-.98,1.08-1.43,1.65-.05.07-.13.1-.21.1ZM52.62,25.38c-.08,0-.16-.04-.21-.1-.45-.57-.93-1.12-1.44-1.64-.1-.11-.1-.28,0-.39.11-.1.28-.1.39,0,.51.53,1.01,1.1,1.47,1.68.09.12.07.29-.04.38-.05.04-.11.06-.17.06ZM19.17,22.3c-.08,0-.15-.03-.21-.09-.1-.11-.09-.29.03-.38.56-.49,1.15-.95,1.75-1.39.12-.09.29-.06.38.06.09.12.06.29-.06.38-.59.42-1.17.88-1.71,1.36-.05.05-.12.07-.18.07ZM49.56,22.2c-.06,0-.13-.02-.18-.07-.55-.47-1.13-.93-1.72-1.34-.12-.09-.15-.26-.06-.38.09-.12.26-.15.38-.06.61.43,1.2.89,1.76,1.38.11.1.13.27.03.38-.05.06-.13.09-.21.09ZM22.75,19.72c-.09,0-.18-.05-.24-.14-.08-.13-.03-.3.1-.37.64-.37,1.31-.72,1.98-1.03.13-.06.3,0,.36.13.06.14,0,.3-.13.36-.66.3-1.31.64-1.94,1.01-.04.03-.09.04-.14.04ZM45.96,19.65s-.09-.01-.14-.04c-.63-.36-1.28-.7-1.94-.99-.14-.06-.2-.22-.14-.36.06-.14.23-.2.36-.14.68.31,1.35.65,1.99,1.02.13.07.18.24.1.37-.05.09-.14.14-.24.14ZM26.76,17.88c-.11,0-.22-.07-.26-.18-.05-.14.03-.3.17-.35.7-.24,1.42-.46,2.14-.63.15-.04.29.05.33.2.04.15-.05.29-.2.33-.7.17-1.41.38-2.09.62-.03.01-.06.02-.09.02ZM41.94,17.83s-.06,0-.09-.01c-.69-.24-1.39-.44-2.1-.61-.15-.03-.24-.18-.2-.33.03-.15.18-.24.33-.2.72.17,1.44.38,2.15.62.14.05.22.2.17.35-.04.11-.14.18-.26.18Z"/>
  <path class="cls-1" d="M33.65,30.57c9-.66,13.28,10.6,6.47,16.1-6.24,5.04-15.7-.09-14.68-8.28.5-4.04,4.13-7.52,8.2-7.82ZM34.11,33.88c-.57.16-.53,1.12-.5,1.58-1.59.36-2.65,2.07-1.69,3.54.81,1.26,3.89,1.5,3.77,2.47l-.58.58c-1.35.6-2.18-.73-3-.54-.88.2-.96,1.69,1.46,2.23-.24,2.17,1.97,2.18,1.66.04,1.5-.53,2.7-1.97,1.77-3.54-.89-1.51-5.01-1.71-3.51-2.97,1.39-1.16,3.13,1.33,3.74-.04.48-1.08-1.25-1.58-2-1.85.13-.8-.08-1.78-1.12-1.5Z"/>
</svg>