<?xml version="1.0" encoding="UTF-8"?>
<svg id="Layer_1" xmlns="http://www.w3.org/2000/svg" viewBox="0 0 32 32">
  <defs>
    <style>
      .cls-1 {
        fill: #fff;
      }

      .cls-2 {
        fill: #6b46f2;
      }

      .cls-3 {
        fill: none;
        stroke: #6b46f2;
        stroke-miterlimit: 10;
      }
    </style>
  </defs>
  <rect class="cls-1" width="32" height="32" rx="7.27" ry="7.27"/>
  <g>
    <path class="cls-2" d="M22.82,17.02v-2.04h-1.46c-.14-.74-.43-1.43-.85-2.04l1.01-1.03-1.44-1.44-1.01,1.01c-.62-.42-1.32-.71-2.05-.85v-1.44h-2.04v1.46c-.74.14-1.43.43-2.04.85l-1.03-1.03-1.44,1.44,1.01,1.03c-.42.61-.71,1.3-.85,2.04h-1.44v2.04h1.46c.14.74.43,1.43.85,2.05l-1.03,1.01,1.44,1.46,1.03-1.03c.61.43,1.3.71,2.04.85v1.46h2.04v-1.46c.74-.14,1.43-.43,2.05-.85l1.01,1.01,1.46-1.44-1.03-1.01c.43-.62.71-1.32.85-2.05h1.46ZM16,19.4c-1.89,0-3.41-1.53-3.41-3.4s1.53-3.41,3.41-3.41,3.4,1.53,3.4,3.41-1.53,3.4-3.4,3.4Z"/>
    <line class="cls-3" x1="22.13" y1="9.87" x2="26.22" y2="5.78"/>
    <polyline class="cls-3" points="23.84 5.78 26.22 5.78 26.22 8.16"/>
    <line class="cls-3" x1="9.87" y1="9.87" x2="5.78" y2="5.78"/>
    <polyline class="cls-3" points="8.16 5.78 5.78 5.78 5.78 8.16"/>
    <line class="cls-3" x1="22.13" y1="22.13" x2="26.22" y2="26.22"/>
    <polyline class="cls-3" points="23.84 26.22 26.22 26.22 26.22 23.84"/>
    <line class="cls-3" x1="9.87" y1="22.13" x2="5.78" y2="26.22"/>
    <polyline class="cls-3" points="8.16 26.22 5.78 26.22 5.78 23.84"/>
  </g>
</svg>