<svg width="70" height="70" viewBox="0 0 70 70" fill="none" xmlns="http://www.w3.org/2000/svg">
<path d="M57.663 1.1521H12.337C6.15967 1.1521 1.15198 6.15979 1.15198 12.3371V57.6631C1.15198 63.8404 6.15967 68.8481 12.337 68.8481H57.663C63.8403 68.8481 68.848 63.8404 68.848 57.6631V12.3371C68.848 6.15979 63.8403 1.1521 57.663 1.1521Z" fill="white"/>
<path d="M13.607 17.0801V53.0001H57.173V17.0801H13.607ZM55.3835 51.2106H15.3965V25.6534H55.3998V51.2106H55.3835ZM15.3965 23.8802V18.8858H55.3998V23.8802H15.3965Z" fill="#6B46F2"/>
<path d="M42.6131 20.415H39.8638V22.2045H42.6131V20.415Z" fill="#6B46F2"/>
<path d="M47.9653 20.415H45.2159V22.2045H47.9653V20.415Z" fill="#6B46F2"/>
<path d="M53.3337 20.415H50.5844V22.2045H53.3337V20.415Z" fill="#6B46F2"/>
<path d="M34.723 42.8652H34.2512V49.0146H34.723V42.8652Z" fill="#6B46F2"/>
<path d="M35.2274 48.8677C41.0225 48.8677 45.7203 44.1699 45.7203 38.3748C45.7203 32.5797 41.0225 27.8818 35.2274 27.8818C29.4323 27.8818 24.7344 32.5797 24.7344 38.3748C24.7344 44.1699 29.4323 48.8677 35.2274 48.8677Z" stroke="#6B46F2" stroke-width="0.25" stroke-miterlimit="10"/>
<path d="M35.2273 49.0957C29.3057 49.0957 24.5067 44.2803 24.5067 38.375C24.5067 32.4697 29.322 27.6543 35.2273 27.6543C41.1327 27.6543 45.948 32.4697 45.948 38.375C45.948 44.2803 41.1327 49.0957 35.2273 49.0957ZM35.2273 28.1261C29.5823 28.1261 24.9784 32.7299 24.9784 38.375C24.9784 44.02 29.5823 48.6239 35.2273 48.6239C40.8724 48.6239 45.4763 44.02 45.4763 38.375C45.4763 32.7299 40.8724 28.1261 35.2273 28.1261Z" stroke="#6B46F2" stroke-width="0.25" stroke-miterlimit="10"/>
<path d="M35.3086 28.0447H34.8369V34.0801H35.3086V28.0447Z" fill="#6B46F2"/>
<path d="M33.5029 48.982C25.8731 35.2355 33.4703 27.8986 33.5517 27.8335L33.877 28.1751C33.877 28.1751 26.4913 35.3494 33.9258 48.7543L33.5029 48.982Z" fill="#6B46F2"/>
<path d="M31.2905 48.3475C22.831 35.5607 30.1029 28.9884 30.168 28.9233L30.4771 29.2812C30.4771 29.2812 23.4655 35.6583 31.6809 48.0872L31.2905 48.3475Z" fill="#6B46F2"/>
<path d="M45.1996 35.8535C45.1996 35.8535 37.9766 29.0859 25.6942 34.4219L25.499 33.9826C38.0742 28.5166 45.4437 35.4468 45.525 35.5118L45.1996 35.8535Z" fill="#6B46F2"/>
<path d="M35.2598 46.737C32.7871 46.737 29.8914 46.1677 26.5889 44.5571L26.8004 44.1341C37.9603 49.5514 44.3862 42.9303 44.4513 42.8652L44.7929 43.1906C44.7929 43.1906 41.3604 46.737 35.2598 46.737Z" fill="#6B46F2"/>
<path d="M36.8542 48.7869L36.4475 48.5266C44.2562 36.4231 35.6015 28.2403 35.5039 28.1589L35.8293 27.801C35.9269 27.8824 44.8581 36.3418 36.8379 48.7706L36.8542 48.7869Z" fill="#6B46F2"/>
<path d="M39.88 48.0056L39.5058 47.7128C48.1117 36.5203 39.0341 29.0045 38.6436 28.6791L38.9364 28.3049C39.0341 28.3863 48.7787 36.4227 39.88 47.9893V48.0056Z" fill="#6B46F2"/>
<path d="M35.3954 43.8473C40.5316 43.6716 44.6191 41.3016 44.525 38.5539C44.431 35.8063 40.1911 33.7213 35.0549 33.8971C29.9187 34.0728 25.8312 36.4428 25.9252 39.1905C26.0192 41.9382 30.2592 44.0231 35.3954 43.8473Z" fill="#F2EFFF"/>
<path d="M32.6732 37.4639C32.6732 37.4639 32.6732 37.5127 32.6732 37.5452C32.6732 37.5778 32.6732 37.6266 32.6406 37.6916L31.8923 40.2457C31.8923 40.2457 31.876 40.3108 31.8435 40.3271C31.8272 40.3433 31.7947 40.3759 31.7622 40.3759C31.7296 40.3759 31.6808 40.3921 31.6157 40.3921C31.4531 40.3921 31.2741 40.3921 31.1114 40.3921C31.0464 40.3921 30.9976 40.3921 30.965 40.3759C30.9325 40.3759 30.9 40.3433 30.8837 40.3271C30.8674 40.3108 30.8511 40.2783 30.8511 40.2457L30.3794 38.5376V38.505L30.3631 38.5376L29.9239 40.2457C29.9239 40.2457 29.9076 40.3108 29.8913 40.3271C29.8751 40.3433 29.8425 40.3759 29.81 40.3759C29.7775 40.3759 29.7124 40.3921 29.6636 40.3921C29.4846 40.3921 29.3219 40.3921 29.1593 40.3921C29.0942 40.3921 29.0454 40.3921 29.0128 40.3759C28.9803 40.3596 28.9478 40.3433 28.9315 40.3271C28.9152 40.3108 28.899 40.2783 28.899 40.2457L28.1506 37.6916C28.1506 37.6916 28.1181 37.5778 28.1181 37.5452C28.1181 37.5127 28.1181 37.4802 28.1181 37.4639C28.1181 37.4476 28.1181 37.4151 28.1181 37.4151C28.1181 37.4151 28.1506 37.3825 28.1832 37.3825C28.2157 37.3825 28.2482 37.3825 28.3133 37.3663H28.72C28.72 37.3663 28.8176 37.3663 28.8502 37.3825C28.8827 37.3825 28.899 37.3988 28.9152 37.4313C28.9315 37.4639 28.9315 37.4802 28.9315 37.4964L29.4846 39.5625V39.595L29.5009 39.5625L30.0215 37.4964C30.0215 37.4964 30.0215 37.4476 30.054 37.4313C30.054 37.4313 30.0865 37.3988 30.1191 37.3825C30.1516 37.3825 30.1842 37.3825 30.233 37.3663H30.4282C30.4282 37.3663 30.5746 37.3663 30.6234 37.3663C30.6722 37.3663 30.7047 37.3663 30.7373 37.3825C30.7698 37.3825 30.7861 37.3988 30.8023 37.4151C30.8023 37.4151 30.8186 37.4476 30.8186 37.4639L31.388 39.5462V39.5787L31.4043 39.5462L31.9411 37.4802C31.9411 37.4802 31.9411 37.4313 31.9574 37.4151C31.9574 37.4151 31.9899 37.3825 32.0225 37.3663C32.055 37.3663 32.0875 37.3663 32.1363 37.35H32.5105C32.5105 37.35 32.5918 37.35 32.6244 37.3663C32.6569 37.3663 32.6732 37.3825 32.6894 37.3988C32.6894 37.3988 32.6894 37.4313 32.6894 37.4476H32.722L32.6732 37.4639ZM37.5373 37.4639C37.5373 37.4639 37.5373 37.5127 37.5373 37.5452C37.5373 37.5778 37.5373 37.6266 37.5048 37.6916L36.7565 40.2457C36.7565 40.2457 36.7402 40.3108 36.7077 40.3271C36.6914 40.3433 36.6589 40.3759 36.6263 40.3759C36.5938 40.3759 36.545 40.3921 36.4799 40.3921C36.3172 40.3921 36.1383 40.3921 35.9756 40.3921C35.9105 40.3921 35.8617 40.3921 35.8292 40.3759C35.7967 40.3759 35.7641 40.3433 35.7478 40.3271C35.7316 40.3108 35.7153 40.2783 35.7153 40.2457L35.2435 38.5376V38.505L35.2273 38.5376L34.788 40.2457C34.788 40.2457 34.7718 40.3108 34.7555 40.3271C34.7392 40.3433 34.7067 40.3759 34.6742 40.3759C34.6416 40.3759 34.5765 40.3921 34.5277 40.3921C34.3488 40.3921 34.1861 40.3921 34.0234 40.3921C33.9584 40.3921 33.9096 40.3921 33.877 40.3759C33.8445 40.3596 33.8119 40.3433 33.7957 40.3271C33.7794 40.3108 33.7631 40.2783 33.7631 40.2457L33.0148 37.6916C33.0148 37.6916 32.9823 37.5778 32.9823 37.5452C32.9823 37.5127 32.9823 37.4802 32.9823 37.4639C32.9823 37.4476 32.9823 37.4151 32.9823 37.4151C32.9823 37.4151 33.0148 37.3825 33.0473 37.3825C33.0799 37.3825 33.1124 37.3825 33.1775 37.3663H33.5842C33.5842 37.3663 33.6818 37.3663 33.7143 37.3825C33.7469 37.3825 33.7631 37.3988 33.7794 37.4313C33.7794 37.4313 33.7957 37.4802 33.7957 37.4964L34.3488 39.5625V39.595L34.3651 39.5625L34.8856 37.4964C34.8856 37.4964 34.8856 37.4476 34.9182 37.4313C34.9182 37.4313 34.9507 37.3988 34.9832 37.3825C35.0158 37.3825 35.0483 37.3825 35.0971 37.3663H35.2923C35.2923 37.3663 35.4388 37.3663 35.4876 37.3663C35.5364 37.3663 35.5689 37.3663 35.6014 37.3825C35.634 37.3825 35.6502 37.3988 35.6665 37.4151C35.6665 37.4151 35.6828 37.4476 35.6828 37.4639L36.2522 39.5462V39.5787L36.2684 39.5299L36.8053 37.4639C36.8053 37.4639 36.8053 37.4151 36.8215 37.3988C36.8215 37.3988 36.8541 37.3663 36.8866 37.35C36.9192 37.35 36.9517 37.35 37.0005 37.3337H37.3747C37.3747 37.3337 37.456 37.3337 37.4885 37.35C37.5211 37.35 37.5373 37.3663 37.5536 37.3825C37.5536 37.3825 37.5536 37.4151 37.5536 37.4313H37.5861L37.5373 37.4639Z" fill="#6B46F2"/>
<path d="M42.4015 37.464C42.4015 37.464 42.4015 37.5128 42.4015 37.5453C42.4015 37.5779 42.4015 37.6267 42.369 37.6917L41.6206 40.2458C41.6206 40.2458 41.6044 40.3109 41.5718 40.3272C41.5556 40.3434 41.523 40.376 41.4905 40.376C41.458 40.376 41.4092 40.3922 41.3441 40.3922C41.1814 40.3922 41.0024 40.3922 40.8398 40.3922C40.7747 40.3922 40.7259 40.3922 40.6934 40.376C40.6608 40.376 40.6283 40.3434 40.612 40.3272C40.5957 40.3109 40.5795 40.2784 40.5795 40.2458L40.1077 38.5377V38.5051L40.0914 38.5377L39.6522 40.2458C39.6522 40.2458 39.6359 40.3109 39.6197 40.3272C39.6034 40.3434 39.5709 40.376 39.5383 40.376C39.5058 40.376 39.4407 40.3922 39.3919 40.3922C39.213 40.3922 39.0503 40.3922 38.8876 40.3922C38.8225 40.3922 38.7737 40.3922 38.7412 40.376C38.7086 40.3597 38.6761 40.3434 38.6598 40.3272C38.6436 40.3109 38.6273 40.2784 38.6273 40.2458L37.879 37.6917C37.879 37.6917 37.8464 37.5779 37.8464 37.5453C37.8464 37.5128 37.8464 37.4802 37.8464 37.464C37.8464 37.4477 37.8464 37.4152 37.8464 37.4152C37.8464 37.4152 37.879 37.3826 37.9115 37.3826C37.944 37.3826 37.9766 37.3826 38.0417 37.3664H38.4484C38.4484 37.3664 38.546 37.3664 38.5785 37.3826C38.611 37.3826 38.6273 37.3989 38.6436 37.4314C38.6436 37.4314 38.6598 37.4802 38.6598 37.4965L39.213 39.5626V39.5951L39.2292 39.5626L39.7498 37.4965C39.7498 37.4965 39.7498 37.4477 39.7823 37.4314C39.7823 37.4314 39.8149 37.3989 39.8474 37.3826C39.8799 37.3826 39.9125 37.3826 39.9613 37.3664H40.1565C40.1565 37.3664 40.3029 37.3664 40.3517 37.3664C40.4005 37.3664 40.4331 37.3664 40.4656 37.3826C40.4981 37.3826 40.5144 37.3989 40.5307 37.4152C40.5307 37.4152 40.5469 37.4477 40.5469 37.464L41.1163 39.5463V39.5788L41.1326 39.5463L41.6694 37.4802C41.6694 37.4802 41.6694 37.4314 41.6857 37.4152C41.6857 37.4152 41.7182 37.3826 41.7508 37.3664C41.7833 37.3664 41.8159 37.3664 41.8647 37.3501H42.2388C42.2388 37.3501 42.3202 37.3501 42.3527 37.3664C42.3852 37.3664 42.4015 37.3826 42.4178 37.3989C42.4178 37.3989 42.4178 37.4314 42.4178 37.4477H42.4503L42.4015 37.464Z" fill="#6B46F2"/>
</svg>
