<svg width="70" height="70" viewBox="0 0 70 70" fill="none" xmlns="http://www.w3.org/2000/svg">
<path d="M57.663 1.1521H12.337C6.15967 1.1521 1.15198 6.15979 1.15198 12.3371V57.6631C1.15198 63.8404 6.15967 68.8481 12.337 68.8481H57.663C63.8403 68.8481 68.848 63.8404 68.848 57.6631V12.3371C68.848 6.15979 63.8403 1.1521 57.663 1.1521Z" fill="white"/>
<path d="M12.02 45.2258V43.586C12.34 41.5262 13.4798 39.7464 15.2196 38.5866C13.4398 37.0867 12.4399 35.8469 12.02 33.5072V31.8674C12.34 29.8076 13.4798 28.0278 15.2196 26.868C13.4398 25.3681 12.4399 24.1283 12.02 21.7886V20.1488C12.4399 17.2291 14.7997 14.6494 17.7393 14.1895C20.9389 13.6895 43.0563 14.3695 48.5956 14.0895C55.2548 14.8094 57.3746 23.0484 51.7553 26.768C51.6953 26.988 53.0951 27.3679 52.5752 28.5078C51.9752 29.8676 50.3554 28.0078 48.9556 27.8279H18.0993C11.92 29.3277 13.3398 36.9268 18.0993 37.5267H30.7378C31.7976 37.7467 31.7976 39.3265 30.7378 39.5465H18.0993C14.5997 39.9864 12.6799 44.4259 14.9396 47.3855C15.5796 48.2254 17.0394 49.1253 18.0993 49.2653H30.6378C31.8176 49.4853 31.8176 51.0651 30.6378 51.285H18.4592C15.0796 50.9851 12.5399 48.5654 12 45.2458L12.02 45.2258ZM18.0993 16.1093C12.5799 17.3291 12.5799 24.5882 18.0993 25.8081H48.9556C54.3749 24.4883 54.3949 17.4091 48.9556 16.1093H18.0993Z" fill="#6B46F2"/>
<path d="M20.299 18.0291C24.4185 17.5091 24.8384 23.4884 21.2188 23.8884C17.1793 24.3283 16.8194 18.469 20.299 18.0291ZM20.6589 19.9489C19.4391 20.0888 19.639 22.1086 20.9389 21.9686C22.1587 21.8286 21.9588 19.8089 20.6589 19.9489Z" fill="#6B46F2"/>
<path d="M30.0979 18.029C34.1574 17.529 34.5973 23.4483 31.0178 23.8883C26.9582 24.3682 26.5783 18.4489 30.0979 18.029ZM30.4578 19.9487C29.278 20.0287 29.338 22.0485 30.6378 21.9685C31.8577 21.8885 31.7777 19.8687 30.4578 19.9487Z" fill="#6B46F2"/>
<path d="M20.6589 19.9486C21.9587 19.7887 22.1587 21.8284 20.9389 21.9684C19.639 22.1284 19.439 20.0886 20.6589 19.9486Z" fill="#6B46F2"/>
<path d="M30.4577 19.9488C31.7776 19.8689 31.8576 21.8886 30.6377 21.9686C29.3379 22.0486 29.2779 20.0288 30.4577 19.9488Z" fill="#6B46F2"/>
<path d="M20.299 29.7476C24.4185 29.2277 24.8384 35.2069 21.2188 35.6069C17.1793 36.0468 16.8194 30.1875 20.299 29.7476ZM20.6589 31.6674C19.4391 31.8073 19.639 33.8271 20.9389 33.6871C22.1587 33.5471 21.9588 31.5274 20.6589 31.6674Z" fill="#6B46F2"/>
<path d="M30.0979 29.748C34.1574 29.248 34.5973 35.1673 31.0178 35.6073C26.9582 36.0872 26.5783 30.1679 30.0979 29.748ZM30.4578 31.6677C29.278 31.7477 29.338 33.7675 30.6378 33.6875C31.8577 33.6075 31.7777 31.5877 30.4578 31.6677Z" fill="#6B46F2"/>
<path d="M20.6589 31.6674C21.9587 31.5074 22.1587 33.5472 20.9389 33.6871C19.639 33.8471 19.439 31.8074 20.6589 31.6674Z" fill="#6B46F2"/>
<path d="M30.4577 31.6674C31.7776 31.5874 31.8576 33.6071 30.6377 33.6871C29.3379 33.7671 29.2779 31.7473 30.4577 31.6674Z" fill="#6B46F2"/>
<path d="M47.4557 59.064H46.9158C41.4965 56.5243 35.9771 51.8449 35.4772 45.4656V36.0267L36.1571 35.3468C39.8766 34.127 43.5962 32.9071 47.3358 31.6873C50.9753 32.9071 54.5949 34.127 58.2345 35.3468L58.9144 36.0267V45.4656C58.4144 51.8449 52.8751 56.5443 47.4757 59.064H47.4557ZM47.1358 33.687C43.8762 34.8069 40.6366 35.9068 37.3769 37.0266C37.6169 42.566 36.3171 46.7455 39.9366 51.4049C41.4765 53.3847 44.896 56.1243 47.3158 56.9442C52.0352 54.5245 56.5547 50.525 56.9746 44.9057V37.0266C53.695 35.9068 50.4154 34.8069 47.1358 33.687ZM47.1358 33.787C43.8762 34.9069 40.6366 36.0067 37.3769 37.1266C37.6169 42.6659 36.3171 46.8454 39.9366 51.5049C41.4765 53.4847 44.896 56.2243 47.3158 57.0442C52.0352 54.6245 56.5547 50.625 56.9746 45.0057V37.1266C53.695 36.0067 50.4154 34.9069 47.1358 33.787Z" fill="#6B46F2"/>
<path d="M20.299 41.4661C24.4185 40.9462 24.8384 46.9254 21.2188 47.3254C17.1793 47.7653 16.8194 41.906 20.299 41.4661ZM20.6589 43.4059C19.4391 43.5459 19.639 45.5656 20.9389 45.4256C22.1587 45.2856 21.9588 43.2659 20.6589 43.4059Z" fill="#6B46F2"/>
<path d="M30.0979 41.466C34.1574 40.966 34.5973 46.8853 31.0178 47.3253C26.9582 47.8052 26.5783 41.8859 30.0979 41.466ZM30.4578 43.4058C29.278 43.4857 29.338 45.5055 30.6378 45.4255C31.8577 45.3455 31.7777 43.3258 30.4578 43.4058Z" fill="#6B46F2"/>
<path d="M20.6589 43.4059C21.9587 43.2459 22.1587 45.2857 20.9389 45.4257C19.639 45.5856 19.439 43.5459 20.6589 43.4059Z" fill="#6B46F2"/>
<path d="M30.4577 43.4059C31.7776 43.3259 31.8576 45.3456 30.6377 45.4256C29.3379 45.5056 29.2779 43.4859 30.4577 43.4059Z" fill="#6B46F2"/>
<path d="M37.057 36.4068L47.4158 32.6873L57.6545 36.4068L58.1745 46.2056C58.1745 46.2056 54.6949 52.9248 54.5549 53.0248C54.4149 53.1248 47.6157 57.9642 47.6157 57.9642L41.3765 54.1247C41.3765 54.1247 36.1771 49.8452 36.757 45.1658C36.757 45.1658 36.1571 37.7866 37.077 36.4068H37.057Z" fill="#6B46F2"/>
<path d="M52.8951 40.4664C53.535 40.3864 54.4349 41.1263 53.775 42.1662C53.495 42.6061 46.9958 49.1653 46.4959 49.2653H45.8559C45.496 49.1853 41.3765 43.9859 41.3165 43.626C41.1765 42.7661 42.0564 42.2062 42.8363 42.5661C43.9962 43.9659 45.156 45.3658 46.3159 46.7856C48.3357 44.7659 50.3354 42.7661 52.3552 40.7463L52.8951 40.4664Z" fill="#EAE5FF"/>
</svg>
