<svg width="35" height="35" viewBox="0 0 35 35" fill="none" xmlns="http://www.w3.org/2000/svg">
<g clip-path="url(#clip0_356_306)">
<mask id="mask0_356_306" style="mask-type:luminance" maskUnits="userSpaceOnUse" x="0" y="0" width="35" height="35">
<path d="M35 0H0V35H35V0Z" fill="white"/>
</mask>
<g mask="url(#mask0_356_306)">
<path d="M27.2824 -0.245117H7.92736C3.47181 -0.245117 -0.140137 3.36683 -0.140137 7.82238V27.1774C-0.140137 31.6329 3.47181 35.2449 7.92736 35.2449H27.2824C31.7379 35.2449 35.3499 31.6329 35.3499 27.1774V7.82238C35.3499 3.36683 31.7379 -0.245117 27.2824 -0.245117Z" fill="#F2EFFF"/>
</g>
<path d="M7.45775 8.02126C8.01775 8.14126 9.87775 7.70126 9.99775 8.45126C10.1677 9.44126 8.68775 9.05126 8.13775 9.15126C8.06775 9.62126 8.37775 10.8713 7.70775 10.9813C7.38775 11.0313 7.12775 10.8413 7.01775 10.5513C7.11775 9.59126 6.72775 8.19126 7.44775 8.01126L7.45775 8.02126Z" fill="#6B46F2"/>
<path d="M14.068 8.02148H19.008C19.598 8.13148 19.598 9.02148 19.008 9.13148H14.068C13.478 9.02148 13.478 8.13148 14.068 8.02148Z" fill="#6B46F2"/>
<path d="M26.0477 8.43117V10.5812C25.9177 10.8612 25.6777 11.0412 25.3577 10.9912C24.6877 10.8712 24.9977 9.63117 24.9277 9.16117C24.3777 9.06117 22.8977 9.44117 23.0677 8.46117C23.1977 7.72117 25.0577 8.15117 25.6077 8.03117C25.8577 8.14117 25.9077 8.20117 26.0377 8.44117L26.0477 8.43117Z" fill="#6B46F2"/>
<path d="M20.0875 10.6914H22.9475C23.1175 10.7214 23.3475 10.9514 23.3775 11.1214C23.3675 12.1114 23.3575 13.1014 23.3375 14.0914C23.1875 14.5014 22.5375 14.5414 22.3375 14.1614C22.1675 13.8414 22.3375 12.6814 22.2475 12.6214C21.7175 13.0714 18.4775 16.5214 18.1975 16.5914C17.7375 16.7014 17.3675 16.3314 17.4775 15.8714C17.5375 15.5914 21.0075 12.3614 21.4475 11.8314C20.9775 11.7214 19.9575 12.0114 19.6975 11.5314C19.5275 11.2114 19.7275 10.7614 20.0875 10.7014V10.6914Z" fill="#6B46F2"/>
<path d="M19.0278 27.0013C15.3578 27.0013 11.0078 27.0913 7.43783 27.0013C7.19783 26.8713 7.14783 26.8213 7.02783 26.5713V15.0413C7.09783 14.6813 7.53783 14.4813 7.86783 14.6513C8.39783 14.9313 8.02783 16.8113 8.16783 17.3913H16.1878C16.3778 17.4313 16.6178 17.6613 16.6478 17.8513V25.8613C17.1678 25.9513 18.7678 25.7913 19.1178 25.9213C19.5578 26.0713 19.6178 26.8013 19.0278 26.9913V27.0013Z" fill="#6B46F2"/>
<path d="M26.048 15.0311V20.0011C25.818 20.6511 25.028 20.5011 24.938 19.9811V15.0511C25.038 14.5411 25.818 14.3811 26.048 15.0311Z" fill="#6B46F2"/>
<path d="M26.0478 24.4414V26.5914C25.9178 26.8214 25.8678 26.8714 25.6378 27.0014H23.4878C23.1678 26.8614 22.9878 26.5514 23.1178 26.2014C23.3278 25.6614 24.4778 25.9814 24.9378 25.8714C24.9978 25.4314 24.7778 24.4214 25.1378 24.1514C25.4678 23.9014 25.8978 24.0814 26.0478 24.4514V24.4414Z" fill="#6B46F2"/>
</g>
<defs>
<clipPath id="clip0_356_306">
<rect width="35" height="35" fill="white"/>
</clipPath>
</defs>
</svg>
