<?xml version="1.0" encoding="UTF-8"?>
<svg id="Layer_1" xmlns="http://www.w3.org/2000/svg" viewBox="0 0 70 70">
  <defs>
    <style>
      .cls-1 {
        fill: #fff;
      }

      .cls-2 {
        fill: #5138cc;
      }
    </style>
  </defs>
  <g id="Character">
    <rect class="cls-2" width="70" height="70" rx="12.56" ry="12.56"/>
  </g>
  <path class="cls-1" d="M16.45,33.12l2.89-.16c.03.33.16.64.38.91.32.34.82.53,1.34.51.36.02.71-.07,1-.26.22-.15.35-.37.35-.6,0-.23-.13-.44-.33-.59-.47-.25-1-.42-1.55-.49-1.03-.14-2.01-.49-2.85-1.03-.56-.4-.88-1-.86-1.62,0-.44.15-.86.44-1.22.32-.41.78-.73,1.32-.91.77-.25,1.59-.36,2.41-.33,1.01-.06,2.01.15,2.87.6.7.46,1.13,1.16,1.18,1.91l-2.86.15c-.03-.32-.2-.61-.47-.84-.29-.18-.65-.28-1.01-.26-.28-.02-.57.05-.8.19-.17.11-.27.29-.27.47,0,.14.09.27.22.36.31.17.65.27,1.01.31.98.15,1.94.4,2.85.74.51.2.95.53,1.26.94.26.38.4.81.39,1.25,0,.53-.18,1.05-.52,1.49-.36.46-.87.82-1.47,1.03-.75.26-1.56.38-2.36.35-1.67,0-2.83-.28-3.47-.83-.65-.56-1.04-1.31-1.09-2.1h-.01ZM10.64,20.53h1.44v-2.96c0-.41.38-.74.86-.74h1.54v-1.77c0-.41.4-.75.88-.74,0,0,0,0,0,0h14.11c.48,0,.87.33.87.74v1.77h27.67c.48,0,.87.33.87.74h0v2.96h1.59c.48,0,.87.33.87.74h0c0,.05,0,.11,0,.16l-3.06,19.14c-.1.61-.42,1.18-.93,1.62-.49.43-1.16.67-1.86.67h-16.86v2.22h.08c.68,0,1.24.48,1.24,1.06v1.91h6.05c.54,0,1.02.3,1.18.74h12.95c1.4-.05,2.68.66,3.19,1.78.18.38.27.79.27,1.19,0,.41-.09.81-.27,1.19-.5,1.12-1.79,1.83-3.19,1.78h-12.9c-.07.54-.6.94-1.23.94h-21c-.63,0-1.16-.41-1.23-.94h-13.88c-1.4.05-2.69-.67-3.19-1.8-.18-.38-.27-.79-.27-1.19,0-.41.09-.81.27-1.19.5-1.12,1.79-1.84,3.19-1.78h13.95c.16-.44.64-.74,1.18-.74h4.99v-1.89c0-.58.55-1.06,1.24-1.06h.47v-2.22H14.8c-.72,0-1.41-.25-1.91-.7-.5-.44-.81-1.01-.88-1.62l-2.36-19.19c-.03-.19.04-.38.17-.53.15-.16.36-.26.6-.28.08,0,.15,0,.23,0h0ZM33.33,45.08h3.66v-2.19h-3.66v2.19ZM47.23,50.2v3.13h12.89c.72.03,1.38-.33,1.65-.9.1-.21.14-.44.14-.67,0-.23-.05-.45-.14-.66-.27-.57-.94-.94-1.67-.9h-12.87ZM23.75,53.33v-3.13h-13.88c-.72-.04-1.39.33-1.67.9-.1.21-.14.44-.14.66,0,.23.05.46.14.67.27.57.94.93,1.67.9h13.88ZM11.47,22.01l2.25,18.37c.03.28.16.54.39.74.18.16.43.24.69.24h40.71c.25,0,.48-.09.66-.24.23-.21.38-.48.41-.76l2.92-18.35H11.47ZM13.82,18.31v2.21l43.33-.31v-1.89h-27.67c-.48,0-.87-.33-.87-.74,0,0,0,0,0,0v-1.77h-12.37v1.77c0,.41-.39.74-.87.74h-1.55ZM26.98,27.47h7.51v1.81h-4.46v1.47h3.83v1.7h-3.83v3.43h-3.05v-8.41ZM35.52,27.47h9.24v2.08h-3.1v6.36h-3.04v-6.34h-3.1v-2.1ZM46.18,27.47h5.06c.89-.06,1.78.18,2.47.67.58.51.88,1.21.82,1.92.05.74-.28,1.47-.9,1.99-.6.48-1.51.72-2.74.72h-1.68v3.11h-3.03v-8.41ZM49.23,31.05h.75c.44.04.87-.06,1.24-.26.23-.16.36-.41.36-.67,0-.25-.11-.49-.31-.67-.33-.22-.75-.32-1.17-.27h-.89v1.88h.02Z"/>
</svg>