<?xml version="1.0" encoding="UTF-8"?>
<svg id="Layer_1" xmlns="http://www.w3.org/2000/svg" viewBox="0 0 70 70">
  <defs>
    <style>
      .cls-1 {
        fill: #fff;
      }

      .cls-2 {
        fill: #5138cc;
      }
    </style>
  </defs>
  <g id="Character">
    <rect class="cls-2" width="70" height="70" rx="12.56" ry="12.56"/>
  </g>
  <g>
    <path class="cls-1" d="M34.52,8.5h.96c2.99,1.13,20.53,6.1,21.47,6.73,1.88,1.25.87,4.78,1.12,6.78h-1.71c-.13-1,.29-4.8-.27-5.29-6.94-2.17-13.89-4.34-20.83-6.52h-.53c-6.8,2.1-13.6,4.2-20.41,6.3-.23.2-.46.39-.69.59v6.62c.57.04,1.14.07,1.71.11v1.71c-1.02.34-4.84-.51-5.13.64-.18.73-.18,14.23,0,14.96.23.23.46.46.69.69,16.13-.04,32.26-.07,48.4-.11.16-.2.32-.39.48-.59v-14.96c-.16-.2-.32-.39-.48-.59-14.08-.02-28.17-.04-42.25-.05.18-1.16-.39-5.83.37-6.36,5.73-1.78,11.47-3.56,17.2-5.34.39.04.78.07,1.18.11,5.52,1.71,11.04,3.42,16.56,5.13,1.17.65.29,3.47.64,4.7,2.17.32,7.58-1.02,8.39,1.76.22.76.24,15.13.11,15.92-.53,3.1-5.48,1.82-7.64,2.08-1.58,3.07-3.52,5.92-5.82,8.49,2.47.02,4.95.04,7.42.05v1.71h-9.08c-1.3,1.12-2.6,2.24-3.9,3.37,4.33.02,8.65.04,12.98.05v1.71h-15.6c-.91.6-4.32,2.69-5.13,2.56-1.53-.85-3.06-1.71-4.59-2.56-5.22-.02-10.43-.04-15.65-.05.02-.55.04-1.1.05-1.66,4.33-.02,8.65-.04,12.98-.05-1.3-1.12-2.6-2.24-3.9-3.37-3.04-.02-6.09-.04-9.13-.05.02-.55.04-1.1.05-1.66,2.47-.02,4.95-.04,7.42-.05-.8-.68-4.55-5.78-4.59-6.2-.04-.37,1.32-1.09,1.5-.96,3.69,6.44,9.45,11.67,16.19,14.8,7.12-3.42,13-9.07,16.83-15.97-.02-.05-.04-.11-.05-.16h-3.85c-2.46,3.93-5.88,7.74-9.72,10.36-.69.47-2.85,1.93-3.53,1.82-1.25-.78-2.49-1.57-3.74-2.35-3.6-2.64-6.6-6.06-8.97-9.83h-11.22c-.87-.12-1.94-.88-2.19-1.76-.22-.76-.23-15.03-.11-15.81.27-1.68,1.92-2.24,3.42-2.24.41-2.69-1.21-7.75,1.76-8.81,6.94-2.14,13.89-4.27,20.83-6.41ZM34.73,15.66c-5.31,1.64-10.61,3.28-15.92,4.91v3.2c10.81-.02,21.62-.04,32.42-.05-.02-1.05-.04-2.1-.05-3.15-5.31-1.64-10.61-3.28-15.92-4.91h-.53ZM24.15,43.54c2.67,4.24,6.48,7.72,10.79,10.26,4.45-2.39,8.1-6.07,10.95-10.2-7.25-.02-14.49-.04-21.74-.05Z"/>
    <path class="cls-1" d="M34.73,15.66h.53c5.31,1.64,10.61,3.28,15.92,4.91.02,1.05.04,2.1.05,3.15-10.81.02-21.62.04-32.42.05v-3.2c5.31-1.64,10.61-3.28,15.92-4.91ZM30.78,20.36c-.02.59-.04,1.18-.05,1.76.55.02,1.1.04,1.66.05.02-.59.04-1.18.05-1.76-.55-.02-1.1-.04-1.66-.05ZM34.2,20.36c-.02.59-.04,1.18-.05,1.76.55.02,1.1.04,1.66.05.02-.59.04-1.18.05-1.76-.55-.02-1.1-.04-1.66-.05ZM37.61,20.36c-.02.59-.04,1.18-.05,1.76.55.02,1.1.04,1.66.05.02-.59.04-1.18.05-1.76-.55-.02-1.1-.04-1.66-.05Z"/>
    <path class="cls-1" d="M24.9,28.8c1.58-.05,4.22,1.11,3.26,2.4-.88,1.18-2.64-1.29-4.22-.27-.37.24-.47.74-.27,1.12.53.99,5.62.23,4.81,4.17-.78,3.76-8.21,2.19-6.84-.21.62-1.09,1.98.48,2.83.59,1.81.23,2.72-1,1.6-1.71-.78-.5-5.02-.19-4.43-3.79.23-1.41,1.96-2.25,3.26-2.3Z"/>
    <path class="cls-1" d="M35.16,28.8c1.07-.02,4,.76,3.26,2.3-.68,1.42-2.17-.93-4.01-.27-.71.26-.82,1.07-.21,1.5.94.66,5.1.18,4.54,3.79-.59,3.82-8.08,2.37-6.94,0,.62-1.29,2.03.36,2.83.48.75.11,2.66-.22,2.08-1.34-.54-1.03-4.19-.33-4.81-2.78-.54-2.17,1.23-3.65,3.26-3.69Z"/>
    <path class="cls-1" d="M42.96,29.01c.48-.14,1.31.15,1.44.69v6.73c.24.37,4.94-.77,4.06,1.39-.16.16-.32.32-.48.48-.3.13-5.1.4-5.5-.37-.19-.37-.21-7.8-.11-8.23.2-.23.39-.46.59-.69Z"/>
    <path class="cls-1" d="M24.15,43.54c7.25.02,14.49.04,21.74.05-2.85,4.13-6.5,7.81-10.95,10.2-4.31-2.53-8.12-6.01-10.79-10.26Z"/>
  </g>
</svg>