<svg width="70" height="70" viewBox="0 0 70 70" fill="none" xmlns="http://www.w3.org/2000/svg">
<path d="M57.663 1.15198H12.337C6.15967 1.15198 1.15198 6.15967 1.15198 12.337V57.663C1.15198 63.8403 6.15967 68.848 12.337 68.848H57.663C63.8403 68.848 68.848 63.8403 68.848 57.663V12.337C68.848 6.15967 63.8403 1.15198 57.663 1.15198Z" fill="white"/>
<path d="M17.6761 15H51.4118C53.4238 15.4085 54.8005 16.9213 55.0879 18.9484V47.3136C54.0895 52.5026 49.0669 50.9898 48.8098 51.3074C48.8249 51.958 49.3695 55.5433 49.0367 55.8156C48.3559 56.3754 46.7977 53.8792 45.6782 53.0018C44.7706 53.97 43.8629 54.9382 42.9552 55.9064C41.5634 56.2997 42.7283 53.0018 42.5013 51.2621H17.7669C15.649 50.8233 14.3479 49.4164 14 47.3136V18.9484C14.2874 16.9061 15.6641 15.4387 17.6761 15ZM36.4955 18.2677C34.6196 18.5702 34.4834 21.6564 36.4047 21.9892C39.4757 22.5338 39.4909 17.7987 36.4955 18.2677ZM42.229 18.2677C40.096 18.6307 40.3683 22.4884 43.1367 21.9892C45.2698 21.611 44.9067 17.8138 42.229 18.2677ZM48.0534 18.2677C46.117 18.5702 46.1472 21.6564 47.9626 21.9892C51.0487 22.5641 51.0941 17.7836 48.0534 18.2677ZM23.2281 23.6381C22.5322 24.2433 21.8364 24.8484 21.1405 25.4535C19.0982 25.4686 17.0559 25.4838 14.9985 25.4989C15.2254 29.523 14.6959 45.3924 14.9985 47.5103C15.1649 48.7054 16.481 50.0972 17.6761 50.2787C19.6277 50.5813 38.4016 50.0518 42.5921 50.2787C42.6678 49.8098 42.7434 49.3408 42.819 48.8718C40.8978 48.0549 41.276 46.8447 41.0944 46.3303C38.8857 43.5921 41.1852 43.4408 41.276 41.1414C41.7147 40.2185 42.6526 39.6437 43.6813 39.7344C46.4649 37.4501 46.707 39.8706 48.7795 39.8252C50.5495 40.6724 50.1713 41.8675 50.368 42.4121C50.5495 42.9113 52.3346 44.0157 50.368 46.2244C50.2621 46.8144 50.2621 47.4346 49.9141 47.949C49.1728 49.0836 48.371 48.0398 48.7341 50.2182C50.8672 50.6267 53.7264 50.0367 54.1046 47.4952C54.392 45.5285 53.9231 29.3414 54.0592 25.4384H29.4004L27.585 23.623H23.213L23.2281 23.6381ZM45.4967 41.2775C42.1383 41.4439 41.7147 46.5572 44.9521 47.2834C49.5359 48.3121 50.0654 41.0506 45.4967 41.2775ZM43.7721 48.9928C43.636 50.6418 43.4998 52.2908 43.3636 53.9549C44.1049 53.622 45.1639 51.5949 45.9506 51.8218C46.6464 52.5782 47.3423 53.3346 48.0382 54.091C47.9777 53.4859 47.8416 49.0534 47.5844 48.9928C45.3606 51.0351 43.9385 48.8718 43.7721 48.9928Z" fill="#6B46F2"/>
<path d="M36.4955 18.2676C39.4757 17.7986 39.4757 22.5489 36.4047 21.9891C34.4835 21.6412 34.6196 18.5551 36.4955 18.2676Z" fill="white"/>
<path d="M42.2291 18.2677C44.9068 17.8139 45.2699 21.611 43.1368 21.9892C40.3684 22.4884 40.096 18.6156 42.2291 18.2677Z" fill="white"/>
<path d="M48.0533 18.2677C51.0941 17.7836 51.0487 22.564 47.9626 21.9892C46.1472 21.6563 46.1169 18.5702 48.0533 18.2677Z" fill="white"/>
<path d="M22.4112 28.7212C24.2719 28.7212 24.8317 31.4442 23.6819 31.1719C23.3189 31.0812 23.2583 29.2204 21.9573 29.8104C21.4581 30.0373 21.2161 31.0055 21.8666 31.4442C22.1843 31.656 24.0148 31.5653 24.2719 33.0327C24.635 35.0599 22.3053 36.1339 21.0496 34.8934C20.3538 34.2127 20.3235 32.9268 21.0496 32.9873C21.5337 33.0176 21.5035 35.0145 22.865 34.3488C23.4399 34.0765 23.4853 33.0629 22.9558 32.715C22.623 32.4881 21.1404 32.6545 20.6412 31.4896C20.1117 30.2642 21.0496 28.7061 22.4112 28.7212Z" fill="#6B46F2"/>
<path d="M27.4034 28.7211C28.9465 28.7211 29.8693 31.0054 28.9465 31.1718C28.1598 31.308 28.4019 29.1598 26.9496 29.8103C26.3898 30.0675 26.2839 31.0508 26.8588 31.4441C27.1614 31.6559 28.9919 31.5954 29.2642 32.9418C29.6121 34.621 27.9632 36.0582 26.405 35.1656C25.5275 34.6664 25.1947 33.0477 25.9511 32.9872C26.647 32.9418 26.3142 34.7421 27.6757 34.4395C28.1144 34.3336 28.5985 33.5469 28.175 32.9418C27.8119 32.4275 25.8301 32.6846 25.5427 31.2172C25.3006 30.0372 26.1175 28.7211 27.4034 28.7211Z" fill="#6B46F2"/>
<path d="M31.1401 28.7211C31.3065 28.827 31.4729 28.9329 31.6393 29.0388V34.4092C32.2445 34.6513 34.7255 34.0764 34.8162 34.8631C34.9373 35.8767 31.4124 35.4077 30.8224 35.3169C30.5955 35.1203 30.535 29.8405 30.6409 29.3111C30.8073 29.1144 30.9737 28.9177 31.1401 28.7211Z" fill="#6B46F2"/>
<path d="M39.4153 28.7211C39.9296 28.6152 41.6694 28.5699 41.4576 29.4019C41.3517 29.8406 38.7648 30.0524 38.9161 29.1296C39.0825 28.9934 39.2489 28.8573 39.4153 28.7211Z" fill="#6B46F2"/>
<path d="M43.1368 28.7211H51.6842C52.3649 28.8724 52.2439 29.6136 51.8657 29.7195C51.4421 29.8405 43.3788 29.8557 42.9553 29.7195C42.5317 29.5834 42.6527 28.8421 43.1368 28.7211Z" fill="#6B46F2"/>
<path d="M39.3245 31.7167H51.7749C52.2892 31.8528 52.2741 32.5941 51.8657 32.7151H39.2337C38.7647 32.3672 38.8101 31.989 39.3245 31.7167Z" fill="#6B46F2"/>
<path d="M39.3244 34.7271H47.5087C48.0382 34.8632 48.0382 35.6045 47.5995 35.7255H39.2336C38.8252 35.6045 38.81 34.8632 39.3244 34.7271Z" fill="#6B46F2"/>
<path d="M49.4149 34.727C49.9292 34.5908 52.4102 34.5 52.1833 35.4077C52.0623 35.8918 49.1274 35.8918 49.0064 35.4077C48.9459 35.1657 49.1577 34.7875 49.4149 34.727Z" fill="#6B46F2"/>
<path d="M18.4023 38.6301H22.5776C22.971 38.7512 23.0617 39.4924 22.3961 39.6286H18.5838C17.9182 39.4924 18.009 38.7512 18.4023 38.6301Z" fill="#6B46F2"/>
<path d="M24.7712 38.6301H37.4939C37.9629 38.9781 37.7965 39.5076 37.2216 39.6286C36.6165 39.7496 25.5427 39.7496 24.9527 39.6286C24.2871 39.4924 24.3779 38.7512 24.7712 38.6301Z" fill="#6B46F2"/>
<path d="M45.4967 41.2776C50.0654 41.0506 49.5359 48.297 44.9521 47.2834C41.7147 46.5573 42.1383 41.444 45.4967 41.2776Z" fill="white"/>
<path d="M18.4023 41.3684H33.5001C33.8934 41.6558 33.9691 42.0038 33.5001 42.2761H18.4023C17.9787 42.1551 17.9938 41.4743 18.4023 41.3684Z" fill="#6B46F2"/>
<path d="M35.2247 41.3683C35.3608 41.3229 37.857 41.1263 37.8116 41.8676C37.7662 42.5786 35.0129 42.5634 34.907 41.9583C35.0129 41.7617 35.1188 41.565 35.2247 41.3683Z" fill="#6B46F2"/>
<path d="M18.3114 44.0913H22.6835C22.986 44.1972 22.9709 44.8931 22.5927 44.999H18.4173C18.0391 44.8931 18.024 44.1972 18.3266 44.0913H18.3114Z" fill="#6B46F2"/>
<path d="M24.7711 44.0913H37.4939C37.8872 44.4241 37.8872 44.6662 37.4939 44.999H24.7711C24.4232 44.8931 24.3022 44.2123 24.7711 44.0913Z" fill="#6B46F2"/>
<path d="M43.7721 48.993C43.9536 48.8719 45.3757 51.0353 47.5844 48.993C47.8416 49.0535 47.9777 53.4709 48.0382 54.0911C47.3423 53.3347 46.6464 52.5783 45.9506 51.8219C45.1488 51.595 44.1049 53.6222 43.3636 53.955C43.4998 52.306 43.636 50.6571 43.7721 48.993Z" fill="white"/>
</svg>
