<svg width="70" height="70" viewBox="0 0 70 70" fill="none" xmlns="http://www.w3.org/2000/svg">
<path d="M57.663 1.1521H12.337C6.15967 1.1521 1.15198 6.15979 1.15198 12.3371V57.6631C1.15198 63.8404 6.15967 68.8481 12.337 68.8481H57.663C63.8403 68.8481 68.848 63.8404 68.848 57.6631V12.3371C68.848 6.15979 63.8403 1.1521 57.663 1.1521Z" fill="white"/>
<path d="M45.4245 12.6504H25.3762C18.431 12.6504 12.8008 18.2806 12.8008 25.2258V45.2741C12.8008 52.2193 18.431 57.8495 25.3762 57.8495H45.4245C52.3697 57.8495 57.9999 52.2193 57.9999 45.2741V25.2258C57.9999 18.2806 52.3697 12.6504 45.4245 12.6504Z" fill="#6B46F2"/>
<path d="M44.8219 47.8253H37.0075V44.571H44.8219V47.8253ZM58 28.5002H12.6V25.2458H58V28.5002Z" fill="white"/>
<path d="M36.1036 21.9716C37.1354 21.9716 37.9718 21.1351 37.9718 20.1033C37.9718 19.0715 37.1354 18.2351 36.1036 18.2351C35.0718 18.2351 34.2354 19.0715 34.2354 20.1033C34.2354 21.1351 35.0718 21.9716 36.1036 21.9716Z" fill="#EAE5FF"/>
<path d="M42.1502 21.9716C43.182 21.9716 44.0184 21.1351 44.0184 20.1033C44.0184 19.0715 43.182 18.2351 42.1502 18.2351C41.1184 18.2351 40.282 19.0715 40.282 20.1033C40.282 21.1351 41.1184 21.9716 42.1502 21.9716Z" fill="#EAE5FF"/>
<path d="M48.2169 21.9716C49.2487 21.9716 50.0851 21.1351 50.0851 20.1033C50.0851 19.0715 49.2487 18.2351 48.2169 18.2351C47.1851 18.2351 46.3486 19.0715 46.3486 20.1033C46.3486 21.1351 47.1851 21.9716 48.2169 21.9716Z" fill="#EAE5FF"/>
<path d="M26.7825 47.8255C26.3406 47.8255 25.8986 47.6447 25.5772 47.3032C24.9745 46.6403 25.0147 45.6157 25.6776 44.993L29.9565 41.0757L25.6776 37.1585C25.0147 36.5558 24.9745 35.5112 25.5772 34.8483C26.1799 34.1854 27.2245 34.1452 27.8874 34.7479L33.472 39.8704C33.8135 40.1718 33.9943 40.6137 33.9943 41.0757C33.9943 41.5378 33.7934 41.9596 33.472 42.281L27.8874 47.4036C27.566 47.6849 27.1843 47.8255 26.7825 47.8255Z" fill="#EAE5FF"/>
</svg>
