<svg width="70" height="70" viewBox="0 0 70 70" fill="none" xmlns="http://www.w3.org/2000/svg">
<path d="M57.6629 1.15234H12.3369C6.15953 1.15234 1.15186 6.16003 1.15186 12.3373V57.6633C1.15186 63.8406 6.15953 68.8483 12.3369 68.8483H57.6629C63.8402 68.8483 68.8479 63.8406 68.8479 57.6633V12.3373C68.8479 6.16003 63.8402 1.15234 57.6629 1.15234Z" fill="white"/>
<path d="M16.8638 31.165C14.7513 31.165 13.0288 32.8712 13.0288 35C13.0288 37.1287 14.7351 38.835 16.8638 38.835C18.9926 38.835 20.6988 37.1125 20.6988 35C20.6988 32.8875 18.9763 31.165 16.8638 31.165ZM44.1963 48.5687C42.3601 49.6412 41.7426 51.965 42.7988 53.8012C43.8551 55.6375 46.1951 56.255 48.0313 55.1987C49.8676 54.1425 50.4851 51.8025 49.4288 49.9662C48.3726 48.13 46.0326 47.5125 44.1963 48.5687ZM25.1838 35C25.1838 31.36 26.9551 27.9475 29.9451 25.8512L27.1501 21.1712C23.7538 23.4462 21.3001 26.875 20.2763 30.84C21.4951 31.8312 22.2588 33.3262 22.2588 35.0162C22.2588 36.7062 21.4788 38.2012 20.2763 39.1925C21.3163 43.2062 23.8026 46.6187 27.1501 48.8612L29.9451 44.1812C26.9551 42.085 25.1838 38.6725 25.1838 35.0325V35ZM36.3638 23.82C42.1488 23.82 46.9913 28.24 47.4951 34.0087L52.9551 33.9275C52.6951 29.8487 50.9401 25.9975 48.0151 23.1375C46.5526 23.69 44.8788 23.6087 43.4326 22.7637C42.0351 21.9512 41.0763 20.57 40.8163 18.9612C39.4188 18.5712 37.9076 18.36 36.3638 18.36C33.7151 18.36 31.2126 18.9775 28.9863 20.0825L31.6513 24.8437C33.0813 24.1775 34.6738 23.8037 36.3638 23.8037V23.82ZM36.3638 46.18C34.6738 46.18 33.0813 45.8062 31.6513 45.14L28.9863 49.9012C31.2126 51.0062 33.7151 51.6237 36.3638 51.6237C37.8588 51.6237 39.3538 51.4125 40.8001 51.0225C41.0438 49.4787 41.9701 48.065 43.4163 47.22C44.8626 46.375 46.5526 46.2937 47.9988 46.8462C50.9238 43.9862 52.6788 40.135 52.9388 36.0562L47.4788 35.975C46.9588 41.7437 42.1326 46.1637 36.3476 46.1637L36.3638 46.18ZM44.1963 21.4312C46.0326 22.5037 48.3726 21.8537 49.4288 20.0337C50.4851 18.2137 49.8513 15.8575 48.0313 14.8012C46.2113 13.745 43.8551 14.3787 42.7988 16.1987C41.7426 18.0187 42.3763 20.375 44.1963 21.4312Z" fill="#6B46F2"/>
</svg>
