<?xml version="1.0" encoding="UTF-8"?>
<svg id="Layer_1" xmlns="http://www.w3.org/2000/svg" viewBox="0 0 70 70">
  <defs>
    <style>
      .cls-1 {
        fill: #fff;
      }

      .cls-2 {
        fill: #5138cc;
      }
    </style>
  </defs>
  <g id="Character">
    <rect class="cls-2" x=".72" y="-.12" width="70" height="70" rx="12.56" ry="12.56"/>
  </g>
  <g>
    <path class="cls-1" d="M32.62,5.42c6.27-.43,12.67,1.08,17.98,4.41,3.58-3.68,9.33,1.21,6.32,5.39-2.46,3.43-8.92,1.29-7.25-4.35-12.63-7.69-29.29-4.22-37.76,7.83-3.9,5.56-5.46,11.9-5.1,18.68.04.69.83,3.28.06,3.54-1.26.43-1.39-2.7-1.45-3.54-.66-9.39,3.14-18.8,10.27-24.89,4.51-3.85,10.99-6.67,16.94-7.08Z"/>
    <path class="cls-1" d="M34.59,13.31c1.36-.19,4.09,2.13,5.45,2.9,2.62,1.48,7.06,3.41,9.98,3.94,5.97,1.1,7.09-1.48,6.44,7.37-.91,12.27-6.73,22.52-17.34,28.83-4.04,2.4-4.03,2.36-7.42.46-11.65-6.51-17.81-17.77-18.27-31.03-.23-6.61.8-4.73,5.86-5.51,2.8-.43,7.09-2.14,9.63-3.48,1.89-1.16,3.79-2.32,5.68-3.48ZM34.36,24.79c-3.16.29-5.27,3.22-4.93,6.32-1.05.44-1.93,1.55-2.09,2.67.04,2.98.08,5.96.12,8.93.3,1.2,1.62,2.32,2.84,2.49,3.29-.04,6.57-.08,9.86-.12,1.2-.3,2.32-1.62,2.49-2.84-.04-2.98-.08-5.96-.12-8.93-.23-.92-1.1-1.84-1.97-2.2.36-3.74-2.46-6.67-6.21-6.32Z"/>
    <path class="cls-1" d="M34.25,26.18c2.86-.38,5.12,1.7,4.93,4.58-2.77.02-5.53.04-8.3.06-.4-2.07,1.28-4.36,3.36-4.64Z"/>
    <path class="cls-1" d="M62.9,27.58c.25.06.5.12.75.17.33.29.88,4.22.93,4.87,1.73,25.64-27.04,41.36-47.51,25.93-4.02,3.15-9.4-1.29-7.13-5.86,2.19-4.42,9.98-2.45,8.7,3.48-.16.74-.91,1.04-.29,1.68.5.51,4.56,2.75,5.45,3.13,9.5,4.05,20.86,2.52,28.89-3.94,7.26-5.85,11.17-15.08,10.5-24.42-.1-1.35-1.16-4.81-.29-5.05Z"/>
    <path class="cls-1" d="M34.59,34.54c.78-.15,1.8.35,1.91,1.22l-.35,1.74c.03.92,1.35,3.66-.06,4h-2.2c-1.41-.35-.09-3.09-.06-4,.03-.84-.71-1.33-.12-2.32.29-.21.58-.43.87-.64Z"/>
  </g>
</svg>