<?xml version="1.0" encoding="UTF-8"?>
<svg id="Layer_1" xmlns="http://www.w3.org/2000/svg" viewBox="0 0 70 70">
  <defs>
    <style>
      .cls-1 {
        fill: #fff;
      }

      .cls-2 {
        fill: #5138cc;
      }
    </style>
  </defs>
  <g id="Character">
    <rect class="cls-2" x=".72" y="-.12" width="70" height="70" rx="12.56" ry="12.56"/>
  </g>
  <g>
    <path class="cls-1" d="M19.66,23.2c.04-.09.04-.22.09-.3,1.45-3.35,3.68-6.31,6.48-8.64,2.62-2.12,5.67-3.62,8.94-4.41,2.5-.62,5.08-.81,7.64-.56,2.42.2,4.79.76,7.04,1.69,3.77,1.48,7.12,3.85,9.76,6.91,2.15,2.45,3.77,5.29,4.79,8.38.99,2.85,1.47,5.88,1.39,8.9-.09,2.87-.72,5.69-1.86,8.34-2.46,5.71-6.48,10.02-11.79,13.18-3.44,2.08-7.29,3.42-11.27,3.93-3.68.46-7.41.18-10.97-.82-5.33-1.44-10.12-4.42-13.78-8.55-3.3-3.65-5.54-8.13-6.48-12.96-.14-.69-.27-1.43-.39-2.2h-4.49c-.17,0-.39.09-.56-.13s9.2-13.39,9.72-13.91l.3.34,4.66,6.61,3.28,4.66,1.52,2.12c-.17.34-.47.3-.73.3h-4.02l-.13.09c-.03.13-.03.26,0,.39.26,2.49,1.05,4.88,2.29,7.04,2.25,3.94,5.77,6.99,9.97,8.68,2.85,1.23,5.97,1.75,9.07,1.56,6.23-.38,12.04-3.25,16.15-7.94,2.62-2.79,4.31-6.32,4.84-10.1.34-2.34.26-4.72-.26-7.04-1.11-5.56-4.38-10.46-9.11-13.61-3.86-2.71-8.51-4.07-13.22-3.89-6.61.17-11.92,2.85-16.11,7.94-.92,1.16-1.73,2.41-2.42,3.72l-.26.39-.09-.09Z"/>
    <g>
      <path class="cls-1" d="M54.13,19.14l-11.79,13.82-1.99,2.33c-.71.86-1.99,1.01-2.85.29-.34-.27-.58-.65-.68-1.07-.26-.77,0-1.62.65-2.12l1.43-1.13,14.81-11.96.34-.26.09.09h-.01Z"/>
      <path class="cls-1" d="M38.67,13.96h1.99c.16,1.33.17,2.68.04,4.02-.68.04-1.35.04-2.03,0v-4.02Z"/>
      <path class="cls-1" d="M58.62,31.88v1.99h-4.02c-.09-.69,0-1.33-.04-1.99,1.35-.13,2.71-.13,4.06,0Z"/>
      <path class="cls-1" d="M52.4,46.91l-2.89-2.89,1.39-1.33,2.85,2.89-1.33,1.33h-.01Z"/>
      <path class="cls-1" d="M25.59,45.49l2.85-2.85,1.39,1.52-2.76,2.76c-.52-.44-1.01-.92-1.47-1.43h-.01Z"/>
      <path class="cls-1" d="M31.5,15.77l1.95-.82c.52,1.26.99,2.46,1.56,3.76l-1.95.82-1.56-3.76Z"/>
      <path class="cls-1" d="M29.85,21.56l-1.47,1.47-2.85-2.81,1.47-1.52,2.85,2.85h0Z"/>
      <path class="cls-1" d="M25.59,37.71l.82,1.9-3.72,1.6-.82-1.9,3.72-1.6Z"/>
      <path class="cls-1" d="M32.84,50.5l-1.9-.86,1.69-3.68c.65.22,1.26.56,1.9.82l-1.69,3.72Z"/>
      <path class="cls-1" d="M53.06,39.4c.3-.65.52-1.2.77-1.86,1.3.43,2.5.99,3.79,1.52-.26.6-.47,1.26-.82,1.9l-3.76-1.56h.01Z"/>
      <path class="cls-1" d="M38.67,47.74h1.99c.12,1.32.14,2.64.04,3.98h-2.03v-3.98Z"/>
      <path class="cls-1" d="M48.42,16.03l-1.69,3.72-1.9-.86,1.69-3.72,1.9.86Z"/>
      <path class="cls-1" d="M56.72,24.46l.82,1.86c-1.26.65-2.46,1.09-3.76,1.64l-.82-1.9c1.2-.56,2.46-1.09,3.76-1.6Z"/>
      <path class="cls-1" d="M45.96,50.71c-.52-1.26-1.03-2.46-1.56-3.76l1.9-.82,1.56,3.76-1.9.82Z"/>
      <path class="cls-1" d="M21.74,26.62l.82-1.9,3.76,1.52-.77,1.95-3.79-1.56h-.01Z"/>
    </g>
  </g>
</svg>