<?xml version="1.0" encoding="UTF-8"?>
<svg id="Layer_1" xmlns="http://www.w3.org/2000/svg" viewBox="0 0 70 70">
  <defs>
    <style>
      .cls-1 {
        fill: #eae5ff;
      }

      .cls-2 {
        fill: #5138cc;
      }
    </style>
  </defs>
  <g id="Character">
    <rect class="cls-2" x="-.07" y="-.18" width="70" height="70" rx="12.56" ry="12.56"/>
  </g>
  <g>
    <path class="cls-1" d="M34.49,61.08c-.86-.29-1.58-.75-1.98-1.62-.05-.11-.3-.18-.46-.18-1.31-.01-2.61,0-3.92,0-4.68,0-9.37,0-14.05,0-.2,0-.4,0-.63,0v-1.78c.22,0,.43,0,.64,0,5.92,0,11.84,0,17.77,0,.39,0,.62-.07.84-.45.24-.4.63-.75,1.03-1.01.29-.19.38-.36.37-.67-.02-.88,0-1.76,0-2.68h1.81c0,.86.02,1.72,0,2.58-.01.4.1.61.46.83.38.23.74.57.95.96.21.39.45.45.84.45,5.91,0,11.81,0,17.72,0,.22,0,.44,0,.69,0v1.78c-.21,0-.42,0-.63,0-5.96,0-11.91,0-17.87,0-.34,0-.55.07-.71.41-.36.77-1.07,1.14-1.84,1.41h-1.02ZM34.98,59.26c.5,0,.92-.39.92-.88,0-.47-.39-.87-.86-.89-.5-.02-.92.36-.94.85-.02.49.39.91.88.91Z"/>
    <path class="cls-1" d="M48.14,31.16c-.11-.14-.21-.27-.34-.44.64-.69.69-1.54.69-2.42-.02-2.09,0-4.18,0-6.26,0-1.91-1.09-3-3-3-6.99,0-13.99,0-20.98,0-1.88,0-2.98,1.09-2.98,2.96,0,2.17,0,4.35,0,6.52,0,.8.1,1.56.68,2.19-.11.15-.2.29-.33.46-1.28-.64-2.25-1.56-2.96-2.78-2.05-3.52-.82-7.96,2.76-9.92.48-.26.72-.59.78-1.14.22-2.09,1.74-3.41,3.82-3.32.56.02.92-.18,1.2-.66,1.87-3.24,5.37-4.91,9-4.31,3.54.59,6.32,3.33,7.04,6.95q.31,1.52,1.86,1.6c3.09.16,5.87,2.52,6.54,5.57.7,3.16-.78,6.45-3.55,7.91-.06.03-.12.05-.2.08Z"/>
    <path class="cls-1" d="M34.97,40.62c-3.48,0-6.96,0-10.43,0-.96,0-1.23-.28-1.23-1.25,0-2.17,0-4.34,0-6.51,0-.93.29-1.22,1.21-1.22,6.99,0,13.98,0,20.97,0,.92,0,1.21.29,1.21,1.22,0,2.19,0,4.38,0,6.57,0,.9-.3,1.19-1.19,1.19-3.51,0-7.02,0-10.53,0ZM25.12,36.14c0,1.48,1.2,2.68,2.69,2.68,1.47,0,2.69-1.21,2.7-2.68,0-1.49-1.22-2.71-2.72-2.7-1.49.01-2.67,1.2-2.67,2.7ZM40.36,38.8v-1.74h-8.02v1.74h8.02ZM40.38,33.48h-8.04v1.7h8.04v-1.7ZM43.96,37.06h-1.73v1.72h1.73v-1.72ZM42.24,33.46v1.72h1.72v-1.72h-1.72Z"/>
    <path class="cls-1" d="M35,42.42c3.48,0,6.96,0,10.43,0,1,0,1.27.27,1.27,1.27,0,2.17,0,4.34,0,6.51,0,.9-.3,1.2-1.18,1.2-7.01,0-14.01,0-21.02,0-.89,0-1.19-.3-1.19-1.19,0-2.19,0-4.38,0-6.57,0-.94.28-1.23,1.21-1.23,3.49,0,6.99,0,10.48,0ZM27.82,49.6c1.48,0,2.69-1.22,2.69-2.69,0-1.47-1.21-2.68-2.69-2.69-1.51,0-2.71,1.21-2.7,2.72,0,1.48,1.22,2.67,2.7,2.66ZM32.33,45.97h8.05v-1.71h-8.05v1.71ZM32.32,49.57h8.05v-1.71h-8.05v1.71ZM42.23,44.24v1.73h1.73v-1.73h-1.73ZM43.95,49.58v-1.72h-1.71v1.72h1.71Z"/>
    <path class="cls-1" d="M35.06,20.84c3.48,0,6.96,0,10.43,0,.92,0,1.21.29,1.21,1.23,0,2.19,0,4.38,0,6.57,0,.89-.3,1.19-1.19,1.19-7.01,0-14.01,0-21.02,0-.89,0-1.18-.3-1.18-1.2,0-2.21,0-4.41,0-6.62,0-.86.31-1.16,1.17-1.16,3.53,0,7.06,0,10.59,0ZM27.8,22.65c-1.49,0-2.68,1.19-2.68,2.69,0,1.48,1.19,2.69,2.68,2.7,1.49.01,2.73-1.24,2.71-2.73-.01-1.48-1.23-2.66-2.71-2.66ZM32.34,28h8.02v-1.74h-8.02v1.74ZM40.38,22.69h-8.04v1.7h8.04v-1.7ZM43.96,26.27h-1.71v1.74h1.71v-1.74ZM43.95,24.4v-1.71h-1.71v1.71h1.71Z"/>
    <path class="cls-1" d="M27.79,37.03c-.49,0-.88-.43-.87-.93.01-.48.4-.87.88-.87.49,0,.9.41.9.9,0,.5-.41.91-.9.9Z"/>
    <path class="cls-1" d="M27.83,46.02c.49.01.88.44.86.93-.02.49-.45.89-.93.86-.47-.03-.84-.43-.84-.91,0-.5.42-.9.91-.89Z"/>
    <path class="cls-1" d="M27.83,26.23c-.49.01-.9-.38-.91-.89,0-.5.4-.91.89-.91.47,0,.87.39.88.86.02.5-.37.92-.86.93Z"/>
  </g>
</svg>