<?xml version="1.0" encoding="UTF-8"?>
<svg id="Layer_1" xmlns="http://www.w3.org/2000/svg" viewBox="0 0 70 70">
  <defs>
    <style>
      .cls-1 {
        fill: #fff;
      }

      .cls-2 {
        fill: #5138cc;
      }
    </style>
  </defs>
  <g id="Character">
    <rect class="cls-2" width="70" height="70" rx="12.56" ry="12.56"/>
  </g>
  <g>
    <path class="cls-1" d="M45.64,58.3c-7.03,0-12.73-5.7-12.73-12.73s5.7-12.73,12.73-12.73,12.73,5.7,12.73,12.73v.05c-.02,7.01-5.71,12.68-12.73,12.68Z"/>
    <g id="Character-2">
      <g>
        <path class="cls-2" d="M55.79,49.56s-.09,0-.14-.02c-.21-.08-.32-.3-.25-.52h0c.18-.51.32-1.02.42-1.53.05-.21.25-.36.47-.32.21.05.36.25.32.47h0c-.1.56-.26,1.12-.45,1.66-.06.16-.21.27-.38.27h.01Z"/>
        <path class="cls-2" d="M53.28,53.54c-.23,0-.41-.18-.41-.41,0-.1.05-.2.11-.28.47-.47.88-.98,1.25-1.53.12-.18.37-.24.55-.11s.24.37.11.55c-.39.59-.85,1.14-1.35,1.66-.08.08-.18.12-.28.12h.01Z"/>
        <path class="cls-2" d="M54.96,36.45c-.15-.07-.32-.05-.43.07l-1.17,1.03c-4.44-4.26-11.51-4.12-15.77.33-4.26,4.44-4.12,11.51.33,15.77,3.52,3.37,8.81,4.08,13.1,1.74.19-.1.27-.35.16-.54s-.35-.27-.54-.16c-5.02,2.76-11.32.93-14.08-4.08-2.76-5.02-.93-11.32,4.08-14.08,3.96-2.18,8.86-1.55,12.14,1.57l-1.41,1.24c-.17.15-.18.39-.03.56.08.09.19.14.3.14h3.18c.23,0,.41-.18.41-.41v-2.8c0-.16-.09-.3-.24-.36h-.02Z"/>
        <path class="cls-2" d="M56.39,45.58c-.21,0-.39-.17-.41-.38-.02-.52-.08-1.03-.18-1.53-.05-.21.1-.43.33-.46.21-.03.42.1.46.32.1.55.17,1.09.19,1.66,0,.23-.17.41-.38.42h-.01Z"/>
      </g>
    </g>
    <path class="cls-2" d="M44.45,49.38c-.08,0-.16-.02-.21-.07l-3.99-3.55s-.1-.08-.11-.15c0-.08.03-.15.11-.18l3.99-3.55.21-.07h.11c.1.05.18.15.18.26v1.66h5.21c.14-.02.27.08.29.21v3.31c0,.14-.11.26-.25.26h-5.25v1.66c0,.11-.08.21-.18.26h-.11v-.03h-.01Z"/>
    <path class="cls-1" d="M16.57,13.44c3.33-1.14,7.84-1.74,12.73-1.74s9.35.59,12.73,1.74,4.42,2.19,4.42,2.96-1.37,1.91-4.42,2.96c-3.05,1.05-7.89,1.69-12.73,1.69s-9.4-.59-12.73-1.69-4.42-2.23-4.42-2.96,1.37-1.95,4.42-2.96Z"/>
    <path class="cls-1" d="M11.65,22.05c3.33,2.32,10.12,3.79,17.64,3.79s14.27-1.47,17.64-3.79v4.06c0,1.51-1.82,3.15-4.79,4.42s-7.98,2.28-12.86,2.28-9.44-.81-12.86-2.28c-3.42-1.47-4.79-2.92-4.79-4.42v-4.06h.02Z"/>
    <path class="cls-1" d="M29.3,56.03c-4.88,0-9.44-.77-12.86-2.23s-4.79-2.92-4.79-4.42v-4.6c3.6,2.79,10.25,4.51,17.64,4.51h1.47c.34,2.36,1.17,4.61,2.46,6.61-1.31.11-2.62.16-3.93.14h.01Z"/>
    <path class="cls-1" d="M30.76,44.45h-1.47c-4.88,0-9.44-.77-12.86-2.23-3.42-1.47-4.79-2.92-4.79-4.42v-4.6c3.6,2.83,10.25,4.56,17.64,4.56,1.27,0,2.65-.09,4.06-.23-1.38,2.09-2.27,4.46-2.61,6.93h.02Z"/>
  </g>
</svg>