<svg width="70" height="70" viewBox="0 0 70 70" fill="none" xmlns="http://www.w3.org/2000/svg">
<path d="M57.6629 1.15234H12.3369C6.15954 1.15234 1.15186 6.16003 1.15186 12.3373V57.6633C1.15186 63.8406 6.15954 68.8483 12.3369 68.8483H57.6629C63.8402 68.8483 68.8479 63.8406 68.8479 57.6633V12.3373C68.8479 6.16003 63.8402 1.15234 57.6629 1.15234Z" fill="white"/>
<path d="M55.8899 10.939C55.8899 18.3477 55.9265 25.7563 55.9449 33.165C47.6193 33.3301 39.2753 33.4768 30.9497 33.6418V15.872C39.202 14.2215 47.4542 12.5711 55.7065 10.939H55.8899Z" fill="#6B46F2"/>
<path d="M30.9498 36.8696C39.2754 37.0347 47.6193 37.1814 55.9449 37.3464C55.9449 44.7184 55.9816 52.0721 55.9999 59.4441C55.9266 59.4991 55.8349 59.5358 55.7615 59.5908C47.5276 57.9404 39.2937 56.2899 31.0598 54.6578L30.9131 54.5111C30.9131 48.6428 30.9498 42.7562 30.9681 36.888L30.9498 36.8696Z" fill="#6B46F2"/>
<path d="M28.5475 16.624C28.5475 16.624 28.7126 16.6607 28.7859 16.679V33.587L28.6392 33.7337C23.5412 33.7887 18.4431 33.8621 13.3451 33.9171C13.3451 29.2225 13.3084 24.5095 13.29 19.8149C13.4551 19.7415 13.6385 19.6498 13.8035 19.5765C18.7182 18.5862 23.6145 17.6143 28.5292 16.624H28.5475Z" fill="#6B46F2"/>
<path d="M13.4364 36.5947C18.4977 36.6497 23.5775 36.7231 28.6388 36.7781L28.7856 36.9248C28.7856 42.573 28.7489 48.2396 28.7305 53.8878C23.6141 52.8608 18.4977 51.8339 13.3813 50.8069C13.3813 46.0756 13.418 41.3444 13.4364 36.5947Z" fill="#6B46F2"/>
</svg>
