<?xml version="1.0" encoding="UTF-8"?>
<svg id="Layer_1" xmlns="http://www.w3.org/2000/svg" viewBox="0 0 70 70">
  <defs>
    <style>
      .cls-1 {
        fill: #fff;
      }

      .cls-2 {
        fill: #5138cc;
      }
    </style>
  </defs>
  <g id="Character">
    <rect class="cls-2" width="70" height="70" rx="12.56" ry="12.56"/>
  </g>
  <g>
    <path class="cls-1" d="M11.67,10.7c4.96.29,34.7-.38,36.48,0,.5.11,1.34,1.06,1.43,1.55v10.44c-.43,2.17-3.84,1.4-4.07,1.55-.02.59-.04,1.19-.06,1.78,6.12-.59,3.63,3.77,4.13,9.87,9.35.95,14.71,11.04,9.98,19.27-4.83,8.41-17.26,8.31-22.09-.06H11.79c-.72-.13-1.54-.94-1.66-1.66v-10.21c.44-2.46,3.93-1.41,4.13-1.72-.02-.63-.04-1.26-.06-1.89-.35-.22-3.65.79-4.07-1.66.04-3.52.08-7.04.11-10.56.63-1.95,3.84-1.11,4.02-1.38-.02-.59-.04-1.19-.06-1.78-1.56.06-3.75.23-4.07-1.78v-10.1c.12-.65.89-1.54,1.55-1.66ZM12.13,11.85c-.25.21-.5.42-.75.63v9.98l.52.52c1.74.45,31.24-.34,35.91,0,.17-.13.34-.27.52-.4.16-.49.15-9.72,0-10.21-.21-.17-.42-.34-.63-.52H12.13ZM11.9,27.34l-.52.52v10.1c.21.17.42.34.63.52h28.91c2.1-1.65,4.74-2.46,7.4-2.58v-8.15c-.17-.13-.34-.27-.52-.4H11.9ZM47.93,37.09c-1.71.08-4.2.87-5.62,1.84-1.71,1.16-1.3,1.14-1.32,3.27.18.29,2.79-.49,2.29.92-.18.52-.85-.04-.8.69,1.2,3.5,2.41,7,3.61,10.5.32-1.22,1.75-4.92,1.66-5.79-.5-1.38-.99-2.75-1.49-4.13-.08-.06-1.86-.02-1.15-1.03.28-.4,5.98-.37,6.37-.29,1.03.23.68,1.4-.29,1.32.82,2.62,1.64,5.24,2.47,7.86.48-1.63.96-3.25,1.43-4.88v-.46c-1.65-2.44-2.31-5.81,1.03-6.88-2.11-1.96-5.33-3.06-8.2-2.93ZM11.79,42.82c-.13.17-.27.34-.4.52v9.98l.52.52c8.32-.02,16.64-.04,24.95-.06-1.54-3.48-1.36-7.55.29-10.96-3.27.3-24.15-.39-25.36,0ZM37.94,44.32c-2.36,5.07-.19,11.09,4.36,14.11.02-.13.04-.27.06-.4-1.47-4.57-2.94-9.14-4.42-13.71ZM59.4,44.89c-.93,4.41-2.73,8.58-3.79,12.96,3.81-3,5.59-8.36,3.79-12.96ZM48.5,50.74c-.94,3.04-1.87,6.08-2.81,9.12,1.94.41,4.07.49,5.97-.11-1.05-3-2.1-6-3.16-9.01Z"/>
    <path class="cls-1" d="M41.5,14.03c4.82-.24,5.2,6.81,1.03,7.46-5.54.87-5.95-7.22-1.03-7.46Z"/>
    <path class="cls-1" d="M15.11,14.37c.49-.1,1,.17.86.75-.04.15-2.06,2.37-2.29,1.03-.08-.45,1.03-1.7,1.43-1.78Z"/>
    <path class="cls-1" d="M18.56,14.37c.26-.07.77.02.86.29.22.63-1.25,2.1-1.89,1.89-1.12-.37.9-2.14,1.03-2.18Z"/>
    <path class="cls-1" d="M22,14.37c.55-.16,1,.3.98.63-.01.13-1.33,1.79-2.01,1.55-1.07-.38.9-2.14,1.03-2.18Z"/>
    <path class="cls-1" d="M25.55,14.37c2.03-.61-.18,2.95-1.26,2.07-.62-.51,1.13-2.03,1.26-2.07Z"/>
    <path class="cls-1" d="M29,14.37c.26-.07.77.02.86.29.22.63-1.26,2.11-1.89,1.89-1.07-.38.9-2.14,1.03-2.18Z"/>
    <path class="cls-1" d="M32.44,14.37c.27.04.54.08.8.11.87.71-2.46,3.32-2.12,1.32.44-.48.88-.96,1.32-1.43Z"/>
    <path class="cls-1" d="M15.23,18.27c2.09-.27-1.1,3.54-1.55,1.89-.16-.6,1.42-1.88,1.55-1.89Z"/>
    <path class="cls-1" d="M18.67,18.27c.48-.07.87.39.75.86-.03.12-1.4,1.59-1.89,1.43-1.16-.36.8-2.25,1.15-2.29Z"/>
    <path class="cls-1" d="M22.11,18.27c.58-.14.99.44.75.98-.05.11-1.41,1.71-2.01,1.2-.68-.58,1.13-2.15,1.26-2.18Z"/>
    <path class="cls-1" d="M25.67,18.27c.48-.07.87.39.75.86-.03.12-1.38,1.57-1.89,1.43-1.25-.34.85-2.25,1.15-2.29Z"/>
    <path class="cls-1" d="M29.11,18.27c1.83-.45-.23,2.97-1.26,2.18-.71-.54,1.13-2.15,1.26-2.18Z"/>
    <path class="cls-1" d="M32.67,18.27c2.09-.27-1.1,3.54-1.55,1.89-.16-.6,1.42-1.88,1.55-1.89Z"/>
    <path class="cls-1" d="M41.04,29.52c5.27-.78,5.91,7.01,1.15,7.46-5.05.48-5.49-6.82-1.15-7.46Z"/>
    <path class="cls-1" d="M15.23,29.75c2.09-.27-1.1,3.52-1.55,1.89-.16-.6,1.42-1.88,1.55-1.89Z"/>
    <path class="cls-1" d="M18.67,29.75c.25-.03.68.17.75.4.14.49-1.34,2.2-2.01,1.78-.91-.58,1.12-2.16,1.26-2.18Z"/>
    <path class="cls-1" d="M22.11,29.75c.58-.14.99.44.75.98-.05.11-1.41,1.71-2.01,1.2-.68-.58,1.13-2.15,1.26-2.18Z"/>
    <path class="cls-1" d="M25.67,29.75c.25-.03.68.17.75.4.19.69-2.12,2.84-2.29,1.38-.06-.5,1.4-1.76,1.55-1.78Z"/>
    <path class="cls-1" d="M29.11,29.75c1.9-.3-.36,2.92-1.26,2.18-.78-.64,1.06-2.15,1.26-2.18Z"/>
    <path class="cls-1" d="M32.67,29.75c2.09-.27-1.1,3.52-1.55,1.89-.16-.6,1.42-1.88,1.55-1.89Z"/>
    <path class="cls-1" d="M51.48,32.61c.55-.15,2.01.28,1.43,1.09-.68.97-2.9-.69-1.43-1.09Z"/>
    <path class="cls-1" d="M54.12,33.19c1.19-.24,5.72,2.54,7.17,5.11,1.11,1.96.43,2.39-.29,2.01-.49-.27-.88-3.07-5.39-5.39-.37-.19-1.77-.48-1.89-.86-.09-.27.09-.8.4-.86Z"/>
    <path class="cls-1" d="M15.11,33.76c1.95-.53-.13,2.79-1.15,2.18-.89-.54,1.01-2.14,1.15-2.18Z"/>
    <path class="cls-1" d="M18.56,33.76c.26-.07.77.02.86.29.34.96-2.42,2.93-2.29,1.26.48-.52.96-1.03,1.43-1.55Z"/>
    <path class="cls-1" d="M22.11,33.76c2.24-.42-.97,3.39-1.43,1.89-.21-.67,1.27-1.86,1.43-1.89Z"/>
    <path class="cls-1" d="M25.55,33.76c2-.53-.16,2.78-1.15,2.18-.89-.54,1.01-2.14,1.15-2.18Z"/>
    <path class="cls-1" d="M29,33.76c.26-.07.77.02.86.29.25.71-1.81,2.73-2.18,1.61-.2-.61,1.2-1.86,1.32-1.89Z"/>
    <path class="cls-1" d="M32.55,33.76c2.35-.48-.94,3.5-1.43,1.89-.21-.69,1.31-1.87,1.43-1.89Z"/>
    <path class="cls-1" d="M15.11,45.23c1.97-.36-.09,2.6-1.15,2.18-.98-.38.78-2.11,1.15-2.18Z"/>
    <path class="cls-1" d="M18.56,45.23c.26-.07.77.02.86.29.22.63-1.25,2.1-1.89,1.89-1.12-.37.9-2.14,1.03-2.18Z"/>
    <path class="cls-1" d="M22,45.23c.55-.16,1,.3.98.63-.01.13-1.33,1.79-2.01,1.55-1.07-.38.9-2.14,1.03-2.18Z"/>
    <path class="cls-1" d="M25.55,45.23c1.89-.57.08,2.63-1.15,2.18-.99-.36,1.01-2.14,1.15-2.18Z"/>
    <path class="cls-1" d="M29,45.23c.26-.07.77.02.86.29.22.63-1.26,2.11-1.89,1.89-1.07-.38.9-2.14,1.03-2.18Z"/>
    <path class="cls-1" d="M32.55,45.23c.28-.05.8.13.86.4.12.5-1.92,2.58-2.29,1.49-.22-.65,1.27-1.86,1.43-1.89Z"/>
    <path class="cls-1" d="M15.23,49.13c2.11-.27-1.14,3.56-1.55,1.89-.15-.6,1.42-1.88,1.55-1.89Z"/>
    <path class="cls-1" d="M18.78,49.13c1.6-.06-.29,2.6-1.26,2.29-1.15-.36.81-2.28,1.26-2.29Z"/>
    <path class="cls-1" d="M22.23,49.13c1.82-.23-.48,2.92-1.38,2.18-.76-.62,1.23-2.16,1.38-2.18Z"/>
    <path class="cls-1" d="M25.67,49.13c.25.13.5.27.75.4.2.64-1.99,2.75-2.29,1.49-.15-.6,1.42-1.88,1.55-1.89Z"/>
    <path class="cls-1" d="M29.23,49.13c1.62-.12-.29,2.63-1.26,2.29-1.13-.39,1.04-2.28,1.26-2.29Z"/>
    <path class="cls-1" d="M32.67,49.13c1.84-.24-.49,2.91-1.38,2.18-.76-.62,1.23-2.16,1.38-2.18Z"/>
  </g>
</svg>