<svg width="42" height="42" viewBox="0 0 42 42" fill="none" xmlns="http://www.w3.org/2000/svg">
<circle cx="20.9995" cy="21" r="20.5" stroke="white"/>
<path d="M18.5995 25.1429L24.8275 21.5L18.5995 17.8571V25.1429ZM32.4715 15.635C32.6275 16.2057 32.7355 16.9707 32.8075 17.9421C32.8915 18.9136 32.9275 19.7514 32.9275 20.48L32.9995 21.5C32.9995 24.1593 32.8075 26.1143 32.4715 27.365C32.1715 28.4579 31.4755 29.1621 30.3955 29.4657C29.8315 29.6236 28.7995 29.7329 27.2155 29.8057C25.6555 29.8907 24.2275 29.9271 22.9075 29.9271L20.9995 30C15.9715 30 12.8395 29.8057 11.6035 29.4657C10.5235 29.1621 9.82751 28.4579 9.52751 27.365C9.37151 26.7943 9.26351 26.0293 9.19151 25.0579C9.10751 24.0864 9.07151 23.2486 9.07151 22.52L8.99951 21.5C8.99951 18.8407 9.19151 16.8857 9.52751 15.635C9.82751 14.5421 10.5235 13.8379 11.6035 13.5343C12.1675 13.3764 13.1995 13.2671 14.7835 13.1943C16.3435 13.1093 17.7715 13.0729 19.0915 13.0729L20.9995 13C26.0275 13 29.1595 13.1943 30.3955 13.5343C31.4755 13.8379 32.1715 14.5421 32.4715 15.635Z" fill="#292929"/>
</svg>
