<?xml version="1.0" encoding="UTF-8"?>
<svg id="Layer_1" xmlns="http://www.w3.org/2000/svg" viewBox="0 0 35 35">
  <defs>
    <style>
      .cls-1 {
        fill: #f2efff;
      }

      .cls-2 {
        fill: #6b46f2;
      }

      .cls-3 {
        fill: none;
        stroke: #6b46f2;
        stroke-miterlimit: 10;
        stroke-width: .25px;
      }
    </style>
  </defs>
  <rect class="cls-1" x=".24" width="34.76" height="34.76" rx="7.9" ry="7.9"/>
  <g>
    <path class="cls-2" d="M3.66,6.09v22.82h27.67V6.09H3.66ZM30.2,27.77H4.8V11.54h25.41v16.23ZM4.8,10.41v-3.18h25.41v3.18H4.8Z"/>
    <rect class="cls-2" x="20.34" y="8.22" width="1.75" height="1.13"/>
    <rect class="cls-2" x="23.74" y="8.22" width="1.75" height="1.13"/>
    <rect class="cls-2" x="27.15" y="8.22" width="1.75" height="1.13"/>
    <rect class="cls-2" x="16.77" y="22.47" width=".3" height="3.9"/>
    <g>
      <circle class="cls-3" cx="17.4" cy="19.62" r="6.66"/>
      <path class="cls-3" d="M17.4,26.43c-3.76,0-6.81-3.06-6.81-6.81s3.06-6.81,6.81-6.81,6.81,3.06,6.81,6.81-3.06,6.81-6.81,6.81ZM17.4,13.1c-3.59,0-6.51,2.92-6.51,6.51s2.92,6.51,6.51,6.51,6.51-2.92,6.51-6.51-2.92-6.51-6.51-6.51Z"/>
    </g>
    <rect class="cls-2" x="17.15" y="13.06" width=".3" height="3.84"/>
    <path class="cls-2" d="M16.3,26.35c-4.84-8.73-.02-13.39.03-13.44l.21.22s-4.69,4.55.03,13.07l-.26.15Z"/>
    <path class="cls-2" d="M14.89,25.96c-5.37-8.12-.76-12.3-.71-12.34l.2.23s-4.45,4.06.76,11.95l-.25.17Z"/>
    <path class="cls-2" d="M23.73,18.02s-4.59-4.3-12.39-.91l-.12-.28c7.99-3.47,12.67.93,12.72.97l-.21.22Z"/>
    <path class="cls-2" d="M17.42,24.93c-1.57,0-3.41-.36-5.51-1.38l.13-.27c7.09,3.44,11.17-.77,11.22-.81l.22.21s-2.18,2.26-6.06,2.26Z"/>
    <path class="cls-2" d="M18.43,26.23l-.25-.16c4.96-7.68-.54-12.88-.6-12.93l.21-.22c.06.05,5.74,5.42.65,13.32Z"/>
    <path class="cls-2" d="M20.35,25.74l-.24-.18c5.47-7.11-.3-11.89-.55-12.09l.19-.24c.06.05,6.25,5.16.6,12.51Z"/>
    <ellipse class="cls-1" cx="17.4" cy="19.94" rx="5.91" ry="3.16" transform="translate(-.67 .61) rotate(-1.96)"/>
    <g>
      <path class="cls-2" d="M15.77,19.04s0,.03,0,.05c0,.02,0,.05-.02.09l-.48,1.62s-.02.04-.03.05c-.01.02-.03.03-.05.03-.02,0-.05.01-.09.02-.11,0-.21,0-.32,0-.04,0-.07,0-.1-.02-.02,0-.04-.02-.05-.03s-.02-.03-.02-.05l-.3-1.09v-.02s-.01.02-.01.02l-.28,1.09s-.01.04-.02.05c-.01.02-.03.03-.05.03-.02,0-.06.01-.1.02-.11,0-.21,0-.32,0-.04,0-.07,0-.09-.02s-.04-.02-.05-.03-.02-.03-.02-.05l-.47-1.62s-.02-.07-.02-.09c0-.02,0-.04,0-.05,0-.01,0-.03,0-.03,0,0,.02-.02.04-.02s.05,0,.08-.01h.25s.06,0,.08.01c.02,0,.03.02.04.03s.01.03.02.04l.35,1.32v.02s.01-.02.01-.02l.33-1.32s0-.03.02-.04c0,0,.02-.02.04-.03.02,0,.04,0,.07-.01h.12s.09,0,.12,0,.05,0,.07.01c.02,0,.03.01.04.02,0,0,.01.02.02.03l.36,1.33v.02s.01-.02.01-.02l.34-1.32s0-.03.02-.04c0,0,.02-.02.04-.03.02,0,.05,0,.08-.01h.24s.05,0,.07.01c.02,0,.03.01.04.02,0,0,0,.02,0,.03h.02ZM18.86,19.04s0,.03,0,.05c0,.02,0,.05-.02.09l-.48,1.62s-.02.04-.03.05c-.01.02-.03.03-.05.03-.02,0-.05.01-.09.02-.11,0-.21,0-.32,0-.04,0-.07,0-.1-.02-.02,0-.04-.02-.05-.03-.01-.02-.02-.03-.02-.05l-.3-1.09v-.02s-.01.02-.01.02l-.28,1.09s-.01.04-.02.05c-.01.02-.03.03-.05.03-.02,0-.06.01-.1.02-.11,0-.21,0-.32,0-.04,0-.07,0-.09-.02s-.04-.02-.05-.03-.02-.03-.02-.05l-.47-1.62s-.02-.07-.02-.09c0-.02,0-.04,0-.05,0-.01,0-.03,0-.03,0,0,.02-.02.04-.02s.05,0,.08-.01h.25s.06,0,.08.01c.02,0,.03.02.04.03,0,0,.01.03.02.04l.35,1.32v.02s.01-.02.01-.02l.33-1.32s0-.03.02-.04c0,0,.02-.02.04-.03.02,0,.04,0,.07-.01h.12s.09,0,.12,0,.05,0,.07.01c.02,0,.03.01.04.02,0,0,.01.02.02.03l.36,1.33v.02s.01-.03.01-.03l.34-1.32s0-.03.02-.04c0,0,.02-.02.04-.03.02,0,.05,0,.08-.01h.24s.05,0,.07.01c.02,0,.03.01.04.02,0,0,0,.02,0,.03h.02Z"/>
      <path class="cls-2" d="M21.96,19.04s0,.03,0,.05c0,.02,0,.05-.02.09l-.48,1.62s-.02.04-.03.05c-.01.02-.03.03-.05.03-.02,0-.05.01-.09.02-.11,0-.21,0-.32,0-.04,0-.07,0-.1-.02-.02,0-.04-.02-.05-.03-.01-.02-.02-.03-.02-.05l-.3-1.09v-.02s-.01.02-.01.02l-.28,1.09s-.01.04-.02.05c-.01.02-.03.03-.05.03-.02,0-.06.01-.1.02-.11,0-.21,0-.32,0-.04,0-.07,0-.09-.02s-.04-.02-.05-.03c-.01-.02-.02-.03-.02-.05l-.47-1.62s-.02-.07-.02-.09c0-.02,0-.04,0-.05,0-.01,0-.03,0-.03,0,0,.02-.02.04-.02s.05,0,.08-.01h.25s.06,0,.08.01c.02,0,.03.02.04.03,0,0,.01.03.02.04l.35,1.32v.02s.01-.02.01-.02l.33-1.32s0-.03.02-.04c0,0,.02-.02.04-.03.02,0,.04,0,.07-.01h.12s.09,0,.12,0,.05,0,.07.01c.02,0,.03.01.04.02,0,0,.01.02.02.03l.36,1.33v.02s.01-.02.01-.02l.34-1.32s0-.03.02-.04c0,0,.02-.02.04-.03.02,0,.05,0,.08-.01h.24s.05,0,.07.01c.02,0,.03.01.04.02,0,0,0,.02,0,.03h.02Z"/>
    </g>
  </g>
</svg>