<?xml version="1.0" encoding="UTF-8"?>
<svg id="Layer_1" xmlns="http://www.w3.org/2000/svg" viewBox="0 0 35 35">
  <defs>
    <style>
      .cls-1 {
        fill: #f2efff;
      }

      .cls-2 {
        fill: #fff;
      }

      .cls-3 {
        fill: #6b46f2;
      }
    </style>
  </defs>
  <rect class="cls-1" x=".24" width="34.76" height="34.76" rx="7.9" ry="7.9"/>
  <g>
    <rect class="cls-3" x="2.87" y="5.7" width="13.99" height="9.62" rx=".29" ry=".29"/>
    <rect class="cls-2" x="3.39" y="7.04" width="12.99" height="7.77"/>
    <rect class="cls-3" x="4.4" y="7.98" width="3.42" height="2.54" rx=".49" ry=".49"/>
    <rect class="cls-3" x="8.24" y="7.98" width="3.33" height="2.54" rx=".46" ry=".46"/>
    <rect class="cls-3" x="12.01" y="7.98" width="3.33" height="2.54" rx=".46" ry=".46"/>
    <rect class="cls-3" x="7" y="11.54" width="8.33" height=".71" rx=".31" ry=".31"/>
    <rect class="cls-3" x="4.4" y="11.54" width="2.05" height=".71" rx=".25" ry=".25"/>
    <rect class="cls-3" x="7" y="12.58" width="8.33" height=".71" rx=".31" ry=".31"/>
    <rect class="cls-3" x="4.4" y="12.58" width="2.05" height=".71" rx=".25" ry=".25"/>
    <circle class="cls-2" cx="3.72" cy="6.42" r=".25"/>
    <circle class="cls-2" cx="4.4" cy="6.42" r=".25"/>
    <circle class="cls-2" cx="5.09" cy="6.42" r=".25"/>
    <rect class="cls-3" x="18.14" y="19.68" width="13.99" height="9.62" rx=".29" ry=".29"/>
    <rect class="cls-2" x="18.67" y="21.02" width="12.99" height="7.77"/>
    <rect class="cls-3" x="19.67" y="21.96" width="3.42" height="2.54" rx=".49" ry=".49"/>
    <rect class="cls-3" x="23.52" y="21.96" width="3.33" height="2.54" rx=".46" ry=".46"/>
    <rect class="cls-3" x="27.28" y="21.96" width="3.33" height="2.54" rx=".46" ry=".46"/>
    <rect class="cls-3" x="22.28" y="25.52" width="8.33" height=".71" rx=".31" ry=".31"/>
    <rect class="cls-3" x="19.67" y="25.52" width="2.05" height=".71" rx=".25" ry=".25"/>
    <rect class="cls-3" x="22.28" y="26.56" width="8.33" height=".71" rx=".31" ry=".31"/>
    <rect class="cls-3" x="19.67" y="26.56" width="2.05" height=".71" rx=".25" ry=".25"/>
    <circle class="cls-2" cx="19" cy="20.4" r=".25"/>
    <circle class="cls-2" cx="19.67" cy="20.4" r=".25"/>
    <circle class="cls-2" cx="20.37" cy="20.4" r=".25"/>
    <path class="cls-3" d="M25.36,13.37c-.13.35-.26.7-.41,1.07l-.43,1.15-.28.73c-.06.17-.25.26-.42.2-.05-.02-.1-.05-.13-.09l-.5-.55-1.3-1.45c-.09-.12-.19-.22-.29-.33-.07-.1-.06-.23.03-.31.02-.01.03-.02.04-.03l.09-.03.6-.11h.09v-.21l-.04-.44-.04-.23c-.02-.14-.06-.27-.11-.41-.06-.21-.13-.41-.21-.61-.06-.14-.13-.28-.21-.42-.22-.43-.49-.84-.81-1.2-.13-.15-.28-.31-.42-.46-.05-.05-.05-.13-.01-.18.03-.05.09-.07.14-.05,0,0,.01,0,.02.01l.61.3.23.15c.38.25.75.53,1.07.85.51.48.94,1.04,1.27,1.66.13.23.23.48.31.73.02.04.04.09.05.13h.09l.59-.12c.11-.04.23,0,.3.11l.03.12h0Z"/>
    <path class="cls-3" d="M10.29,21.99l-.09.03-.59.25c-.06.02-.14.02-.2-.01-.09-.04-.13-.13-.11-.22l.07-.46c.1-.61.19-1.22.28-1.82l.12-.8c.03-.18.19-.3.37-.28.02,0,.03,0,.05.01l.11.06c.3.22.61.43.9.66l1.56,1.15.05.04c.09.08.1.22.02.31-.02.02-.04.04-.06.05l-.11.04-.52.22-.09.03c.01.06.02.13.04.19.04.16.1.32.16.47.04.1.08.2.13.3.14.33.32.64.54.93.31.43.68.81,1.09,1.14.2.17.43.31.65.47.04.03.06.07.07.11,0,.07-.05.13-.12.14h-.05c-.17-.03-.33-.07-.49-.12s-.31-.1-.46-.17c-.39-.15-.77-.35-1.13-.57-.34-.2-.66-.44-.96-.7-.38-.33-.72-.71-1.01-1.14-.06-.1-.13-.21-.22-.33v.02h0Z"/>
  </g>
</svg>