<?xml version="1.0" encoding="UTF-8"?>
<svg id="Layer_1" xmlns="http://www.w3.org/2000/svg" viewBox="0 0 35 35">
  <defs>
    <style>
      .cls-1 {
        fill: #f2efff;
      }

      .cls-2 {
        fill: #6b46f2;
      }
    </style>
  </defs>
  <rect class="cls-1" x=".24" width="34.76" height="34.76" rx="7.9" ry="7.9"/>
  <g>
    <path class="cls-2" d="M18.24,4.02c2.91-.27,5.89,1.44,6.79,4.3.58,1.83-.06,2.92.54,2.99.21.03,1.72-.35,3.07.8,1.62,1.38,1.7,3.97.11,5.41,0-.65-.24-1.41-.97-1.54h-8.63c0-1-.02-1.99-.03-2.99-.08-.25-.58-.28-.68.17v6.94c.13.63,1.04.25,1.14.4-.69.88-1.38,1.76-2.07,2.65-.67-.88-1.34-1.76-2.02-2.65.09-.15,1.01.23,1.14-.4v-6.94c-.1-.46-.6-.42-.68-.17,0,1-.02,1.99-.03,2.99H7.27c-.65.1-.82.75-.91.74-3.13-3.72.04-9.16,4.83-8.42.45.07,1.38.53,1.59.4.16-.1.44-1.82,2.05-3.19.9-.76,2.23-1.37,3.41-1.48Z"/>
    <path class="cls-2" d="M7.27,16.65c2.89,0,5.78.02,8.66.03,0,.29-.02.59-.03.88h-7.78s-.09.09-.14.14c-.28.46.12,9.47-.09,10.79-.29,0-.59-.02-.88-.03v-11.5c.09-.1.17-.21.26-.31Z"/>
    <path class="cls-2" d="M19.14,16.65h8.63c.07.07.13.13.2.2,0,3.88.02,7.76.03,11.64-.29,0-.59-.02-.88-.03-.15-1.3.22-10.3-.06-10.76l-.14-.14h-7.78v-.91Z"/>
    <path class="cls-2" d="M8.63,18.19h7.21l.09.09v1.48c-.31.13-1.54-.19-1.53.34,0,.21,2.15,2.94,2.44,3.3.39.47.59.88.97.51.95-1.27,1.89-2.54,2.84-3.81,0-.54-1.22-.21-1.53-.34v-1.48l.09-.09h7.21c0,3.42.02,6.85.03,10.27-2.24,0-4.49.02-6.73.03-.39.16-.43.65-.68.97h-3.07c-.31-.26-.31-.88-.74-.97h-6.59v-10.3ZM11.47,22.35c-.29.06-.55.44-.6.71v2.96c.05.38.41.93.77,1.05.62.2,9.89-.04,11.53.06.37-.06.83-.46.94-.83.02-1.08.04-2.16.06-3.24-.17-1.11-2.01-.72-2.22-.51-.43.44-.12,1.61-.26,2.19h-8.35c0-.58-.02-1.16-.03-1.74-.13-.76-1.25-.78-1.85-.65Z"/>
    <path class="cls-2" d="M11.47,22.35c.6-.12,1.72-.11,1.85.65,0,.58.02,1.16.03,1.74h8.35c.13-.58-.17-1.75.26-2.19.21-.21,2.04-.6,2.22.51-.02,1.08-.04,2.16-.06,3.24-.1.36-.57.76-.94.83-1.64-.09-10.91.15-11.53-.06-.36-.12-.71-.68-.77-1.05v-2.96c.05-.27.3-.65.6-.71ZM11.65,22.97l-.09.09v3.07c.14.12.28.25.43.37h11.08c.14-.12.28-.25.43-.37v-3.07c-1.94-.57-.58.98-1.28,2.31h-9.37c-.36-.12-.13-1.99-.2-2.36-.33,0-.66-.02-.99-.03Z"/>
    <path class="cls-2" d="M5.17,29.18h9.83c.19.3.38.61.57.91h3.81c.19-.3.38-.61.57-.91h9.88c-.05.58.01,1.62-.74,1.76-3.13-.17-21.98.22-23.12,0-.76-.14-.73-1.15-.8-1.76Z"/>
  </g>
</svg>